<?xml version="1.0" standalone="no"?>
<!DOCTYPE svg PUBLIC "-//W3C//DTD SVG 1.1//EN" "http://www.w3.org/Graphics/SVG/1.1/DTD/svg11.dtd" >
<svg xmlns="http://www.w3.org/2000/svg" xmlns:xlink="http://www.w3.org/1999/xlink" version="1.1">
<metadata>
Created by FontForge 20170731 at Mon Aug 17 06:10:04 2015
 By Aleksey,,,
Copyright (c) 2014 by Vyacheslav Kirilenko, Gayane Bagdasaryan. All rights reserved.
</metadata>
<defs>
<font id="Gerbera-Medium" horiz-adv-x="600" >
  <font-face 
    font-family="Gerbera"
    font-weight="500"
    font-stretch="normal"
    units-per-em="1000"
    panose-1="2 0 6 0 0 0 0 0 0 0"
    ascent="767"
    descent="-233"
    x-height="507"
    cap-height="718"
    bbox="-170 -295 1448 1037"
    underline-thickness="50"
    underline-position="-200"
    unicode-range="U+000D-FEFF"
  />
<missing-glyph horiz-adv-x="572" 
d="M90 718h391v-718h-391v718zM390 96v526h-209v-526h209z" />
    <glyph glyph-name=".notdef" horiz-adv-x="572" 
d="M90 718h391v-718h-391v718zM390 96v526h-209v-526h209z" />
    <glyph glyph-name=".null" horiz-adv-x="0" 
 />
    <glyph glyph-name=".null" horiz-adv-x="0" 
 />
    <glyph glyph-name="nonmarkingreturn" unicode="&#xd;" horiz-adv-x="270" 
 />
    <glyph glyph-name="space" unicode=" " horiz-adv-x="270" 
 />
    <glyph glyph-name="exclam" unicode="!" horiz-adv-x="373" 
d="M141 224l-27 494h144l-27 -494h-90zM112 63l-2 -2q0 32 21 53t53 21t53 -21t21 -52t-21 -52t-52 -21t-52 21t-21 53z" />
    <glyph glyph-name="quotedbl" unicode="&#x22;" horiz-adv-x="417" 
d="M51 718h122l-17 -252h-87zM243 718h122l-17 -252h-87z" />
    <glyph glyph-name="numbersign" unicode="#" horiz-adv-x="650" 
d="M587 466h-107l-18 -100h97v-101h-115l-30 -172h-93l30 172h-105l-30 -172h-93l30 172h-91v101h109l18 100h-98v101h115l27 151h94l-27 -151h105l27 151h93l-27 -151h89v-101zM264 366h105l18 100h-105z" />
    <glyph glyph-name="dollar" unicode="$" horiz-adv-x="496" 
d="M360 365v4q43 -37 72 -80q28 -41 28 -101q0 -76 -43 -126q-44 -52 -115 -65v-103h-104v103q-30 6 -57 18q-25 11 -49 27q-22 15 -39 33t-24 36l34 110q32 -50 83 -80t107 -30q39 0 66 18t27 53q0 26 -16 48t-39 39q-33 28 -99 82q-42 35 -69 63q-30 32 -51 66t-21 79
q0 68 41 112q40 43 104 55v103h104v-106q45 -11 78 -36q34 -26 50 -54l-23 -109q-28 40 -74 63q-44 22 -88 22q-13 0 -27 -3t-24 -9q-11 -6 -18 -16t-7 -25q0 -22 18 -42q16 -18 35 -33q30 -26 50 -41q34 -26 38 -30q24 -20 29 -24q16 -14 23 -21z" />
    <glyph glyph-name="percent" unicode="%" horiz-adv-x="910" 
d="M196 0l413 718h105l-413 -718h-105zM222 728h-2q39 0 72 -15t57 -39q25 -25 38 -57q14 -34 14 -70q0 -38 -13 -70t-38 -57q-24 -24 -57 -39t-72 -15t-72 15t-57 39q-25 25 -38 57t-13 70q0 36 14 70q13 32 38 57q24 24 57 39t72 15zM220 473h-4q37 0 59 21q23 21 23 53
t-22 53t-58 21t-58 -21t-22 -53t23 -53q22 -21 59 -21zM682 350h-2q39 0 72 -15t57 -39q25 -25 38 -57q14 -34 14 -70q0 -38 -13 -70t-38 -57q-24 -24 -57 -39t-72 -15t-72 15t-57 39q-25 25 -38 57t-13 70q0 36 14 70q13 32 38 57q24 24 57 39t72 15zM680 95h-4q36 0 59 21
t23 53t-22 53t-58 21t-58 -21t-22 -53t23 -53t59 -21z" />
    <glyph glyph-name="ampersand" unicode="&#x26;" horiz-adv-x="640" 
d="M644 0l-136 2l-67 76q-38 -41 -87 -65q-50 -24 -114 -24q-48 0 -85 15t-63 41q-26 25 -39 60q-13 33 -13 74q0 33 11 64q10 28 29 55t42 47q24 21 51 39l6 4q-33 43 -35 46q-16 22 -26 41q-9 17 -16 39q-6 20 -6 42q0 35 14 68q14 32 38 56t59 38q36 14 75 14
q40 0 76 -14q33 -13 58 -38q24 -24 36 -57t12 -70q0 -28 -10 -52q-9 -23 -29 -49q-18 -24 -42 -45t-51 -42l107 -125q19 33 32 60q16 35 29 68l49 -107q-7 -25 -18 -51t-24 -48zM276 615h3q-35 0 -55 -19q-21 -20 -21 -48q0 -26 13 -46q15 -24 28 -39l19 -21l11 8
q20 14 29 22q13 12 24 24q11 13 18 25q7 13 7 27q0 34 -22 50q-23 17 -54 17zM251 109q67 0 123 51l-128 149l-18 -13q-15 -11 -28 -22q-15 -13 -24 -25q-12 -15 -17 -28q-6 -15 -6 -33q0 -34 26 -57q25 -22 72 -22z" />
    <glyph glyph-name="quotesingle" unicode="'" horiz-adv-x="225" 
d="M51 718h122l-17 -252h-87z" />
    <glyph glyph-name="parenleft" unicode="(" horiz-adv-x="375" 
d="M333 713l-2 1q-77 -106 -109 -220q-31 -112 -31 -222q0 -105 32 -219q31 -111 110 -222l-98 -9q-80 95 -116 209t-36 240q0 128 36 242t116 209z" />
    <glyph glyph-name="parenright" unicode=")" horiz-adv-x="375" 
d="M42 714v-1l98 9q80 -95 116 -209t36 -242q0 -126 -36 -240t-116 -209l-98 9q77 108 109 222q31 111 31 219q0 110 -31 222q-32 114 -109 220z" />
    <glyph glyph-name="asterisk" unicode="*" horiz-adv-x="501" 
d="M85 351l87 122l-145 48l32 92l142 -46v151h97v-151l144 47l31 -93l-145 -48l88 -122l-77 -56l-89 122l-89 -122z" />
    <glyph glyph-name="plus" unicode="+" horiz-adv-x="543" 
d="M224 347v165h95v-165h169v-103h-169v-165h-95v165h-169v103h169z" />
    <glyph glyph-name="comma" unicode="," horiz-adv-x="306" 
d="M127 -3l-2 -2q-19 4 -36 23t-17 50t23 54t57 23q33 0 56 -23t23 -57q0 -28 -9 -49q-10 -22 -22 -43l-65 -113h-72z" />
    <glyph glyph-name="hyphen" unicode="-" horiz-adv-x="468" 
d="M395 325v-99h-323v99h323z" />
    <glyph glyph-name="period" unicode="." horiz-adv-x="306" 
d="M74 67l-2 -1q0 34 23 57t57 23q35 0 57 -22q23 -23 23 -57q0 -35 -22 -57q-23 -23 -57 -23t-57 23q-22 22 -22 57z" />
    <glyph glyph-name="slash" unicode="/" horiz-adv-x="474" 
d="M109 -174h-109l365 892h109z" />
    <glyph glyph-name="zero" unicode="0" horiz-adv-x="608" 
d="M304 731l1 -1q58 0 102 -25q46 -26 77 -73q32 -48 48 -117q17 -71 17 -158q0 -86 -17 -157q-16 -69 -48 -117q-31 -47 -77 -73q-44 -25 -102 -25t-105 26q-46 25 -78 74q-32 48 -48 117q-16 67 -16 156q0 87 17 158q17 69 48 117q31 47 78 73q46 25 103 25zM305 108
l-1 -1q58 0 95 63q38 64 38 185t-37 186q-38 66 -96 66q-56 0 -93 -63q-38 -64 -38 -188q0 -65 10 -109q11 -48 28 -78q18 -31 42 -46t52 -15z" />
    <glyph glyph-name="one" unicode="1" horiz-adv-x="420" 
d="M57 589l166 129h93v-718h-112v568l-147 -104v125z" />
    <glyph glyph-name="two" unicode="2" horiz-adv-x="535" 
d="M241 609q-27 0 -51 -8q-22 -7 -40 -21q-17 -13 -31 -30q-12 -15 -24 -35l-49 83q7 26 26 51q18 24 45 42q28 19 60 29q35 11 72 11q52 0 90 -16q39 -17 66 -45q28 -30 41 -67q14 -40 14 -82q0 -39 -9 -72t-27 -66q-18 -34 -43 -67q-23 -31 -60 -73l-104 -121h260v-122
h-429v98l197 223q45 51 73 96q27 43 27 92q0 43 -28 71q-29 29 -76 29z" />
    <glyph glyph-name="three" unicode="3" horiz-adv-x="538" 
d="M247 109l-4 -2q58 0 95 32q36 31 36 84q0 46 -35 78q-34 31 -95 31q-25 0 -42 -4q-22 -5 -33 -10l-19 91l147 185h-225v122h375v-91l-145 -180q32 -3 65 -18t60 -42q28 -28 44 -67q17 -42 17 -93q0 -49 -18 -93t-49 -76q-30 -32 -77 -52q-44 -19 -101 -19q-40 0 -73 10
q-34 10 -62 26q-26 14 -46 36q-20 21 -27 42l29 101q33 -46 78 -69q44 -22 105 -22z" />
    <glyph glyph-name="four" unicode="4" horiz-adv-x="526" 
d="M309 718h105v-390h84v-121h-84v-207h-112v207h-280v101zM302 328v217l-151 -217h151z" />
    <glyph glyph-name="five" unicode="5" horiz-adv-x="553" 
d="M257 109l-4 -2q56 0 93 32q36 31 36 84q0 28 -10 48q-11 22 -27 35t-38 21t-45 8q-65 0 -105 -34l-84 21l35 394h343v-122h-254l-13 -155q21 11 45 15q27 5 47 5q48 0 89 -18q42 -19 71 -49q31 -33 47 -73q17 -43 17 -92q0 -51 -18 -95q-18 -43 -51 -76q-32 -32 -78 -52
q-44 -19 -97 -19q-42 0 -75 10q-35 11 -62 27q-28 17 -45 37t-25 41l31 102q64 -93 177 -93z" />
    <glyph glyph-name="six" unicode="6" horiz-adv-x="572" 
d="M260 463l-3 -1q10 2 13 2h15q51 0 95 -18q43 -18 75 -50t50 -74t18 -90q0 -52 -19 -96q-20 -46 -52 -78t-76 -52q-42 -19 -91 -19q-51 0 -95 18t-75 51q-30 32 -49 77q-18 44 -18 95q0 60 21 113q22 54 48 98l169 279h130zM284 108h3q25 0 48 9t39 24q17 16 26 36
q9 21 9 45t-9 46t-26 39q-18 18 -40 26q-24 9 -52 9q-26 0 -48 -9t-39 -24q-18 -16 -26 -37q-9 -22 -9 -48q0 -27 10 -47q10 -21 27 -36t39 -24t48 -9z" />
    <glyph glyph-name="seven" unicode="7" horiz-adv-x="516" 
d="M335 596h-288v122h421v-91l-263 -627h-119z" />
    <glyph glyph-name="eight" unicode="8" horiz-adv-x="581" 
d="M431 375v-3q44 -27 68 -72t24 -99q0 -46 -18 -85q-19 -41 -49 -68q-31 -28 -74 -45q-41 -16 -92 -16q-49 0 -92 17q-41 16 -73 45q-30 27 -49 68q-18 39 -18 86q0 54 24 99t68 72q-28 19 -51 59q-22 38 -22 90q0 43 15 80t44 66q28 28 68 45t86 17q48 0 86 -16
q40 -17 68 -45t45 -66q16 -36 16 -80q0 -52 -22 -90q-23 -40 -52 -59zM289 606l-4 -1q-23 0 -42 -8q-16 -7 -31 -20q-12 -11 -19 -29q-6 -16 -6 -33t6 -32q6 -14 20 -27q15 -13 31 -20q17 -7 42 -7q50 0 75 27q26 28 26 60q0 16 -6 33t-18 29q-13 13 -31 20q-21 8 -43 8z
M286 105v-1q53 0 86 30t33 73q0 44 -33 74t-86 30t-86 -30t-33 -73t33 -73t86 -30z" />
    <glyph glyph-name="nine" unicode="9" horiz-adv-x="572" 
d="M312 255h1q-10 -2 -13 -2h-15q-51 0 -94 18t-75 50q-30 30 -49 74q-18 42 -18 90q0 52 19 96q20 46 52 78q32 33 76 52q42 19 91 19q51 0 95 -18t75 -51q31 -32 49 -76q18 -43 18 -95q0 -60 -21 -113q-22 -54 -48 -98l-169 -279h-130zM286 609l-3 -1q-25 0 -48 -9
t-39 -24q-17 -16 -26 -36q-9 -21 -9 -45t9 -46t26 -39q16 -16 40 -25t52 -9q26 0 48 9t39 24q18 16 26 37q9 23 9 48q0 27 -10 47q-10 21 -27 36t-39 24t-48 9z" />
    <glyph glyph-name="colon" unicode=":" horiz-adv-x="306" 
d="M74 67l-2 -1q0 34 23 57t57 23q35 0 57 -22q23 -23 23 -57q0 -35 -22 -57q-23 -23 -57 -23t-57 23q-22 22 -22 57zM72 422l-2 -1q0 34 23 57t57 23q35 0 57 -22q23 -23 23 -57q0 -35 -22 -57q-23 -23 -57 -23t-57 23q-22 22 -22 57z" />
    <glyph glyph-name="semicolon" unicode=";" horiz-adv-x="306" 
d="M127 -3l-2 -2q-19 4 -36 23t-17 50t23 54t57 23q33 0 56 -23t23 -57q0 -28 -9 -49q-10 -22 -22 -43l-65 -113h-72zM72 421l-2 -1q0 34 23 57t57 23q35 0 57 -22q23 -23 23 -57q0 -35 -22 -57q-23 -23 -57 -23t-57 23q-22 22 -22 57z" />
    <glyph glyph-name="less" unicode="&#x3c;" horiz-adv-x="543" 
d="M488 532v-111l-288 -125l288 -124v-111l-433 188v95z" />
    <glyph glyph-name="equal" unicode="=" horiz-adv-x="543" 
d="M55 350v103h433v-103h-433zM55 138v103h433v-103h-433z" />
    <glyph glyph-name="greater" unicode="&#x3e;" horiz-adv-x="543" 
d="M55 63v111l288 125l-288 124v111l433 -188v-95z" />
    <glyph glyph-name="question" unicode="?" horiz-adv-x="474" 
d="M156 63l-2 -2q0 32 21 53t53 21t53 -21t21 -52t-21 -52t-52 -21t-52 21t-21 53zM61 635l-2 -4q9 19 26 36t39 30q23 14 49 21q29 8 56 8q80 0 125 -42t45 -106q0 -28 -9 -51q-9 -21 -26 -42q-16 -19 -39 -36q-20 -15 -50 -33q-26 -16 -38 -24q-17 -12 -23 -19
q-9 -11 -11 -16q-3 -7 -3 -15q0 -14 12 -25q11 -10 35 -10t54 14q28 13 52 39l18 -90q-17 -26 -51 -48t-85 -22q-32 0 -58 10q-27 11 -46 28q-19 18 -30 42q-10 23 -10 53q0 39 26 79q25 39 96 84q45 30 62 45q18 17 18 36q0 20 -18 32t-46 12q-45 0 -82 -21t-61 -52z" />
    <glyph glyph-name="at" unicode="@" horiz-adv-x="947" 
d="M558 202l-1 1q-8 12 -32 20q-26 8 -54 8q-43 0 -66 -13q-24 -14 -24 -36q0 -26 24 -39q23 -13 66 -13q30 0 54 10q25 10 33 27v35zM649 206h-7q0 -28 15 -49t45 -21q23 0 39 14q15 13 24 35q9 21 12 45t3 45q0 69 -25 123q-25 55 -68 96t-98 62t-117 21q-67 0 -123 -25
t-100 -69q-43 -43 -67 -103t-24 -129q0 -71 22 -128q22 -59 63 -102t99 -69q57 -25 132 -25q54 0 96 12q43 12 80 42l18 -83q-30 -30 -83 -49q-51 -18 -111 -18q-86 0 -162 32q-74 31 -129 89t-86 134q-31 75 -31 167q0 89 31 164q31 76 86 134q54 57 128 90q73 33 159 33
q80 0 152 -30t128 -83q55 -52 88 -126t33 -160q0 -47 -9 -90q-9 -44 -28 -76q-20 -34 -51 -53q-32 -20 -80 -20q-41 0 -70 15q-28 15 -51 41q-17 -23 -55 -39q-40 -17 -82 -17q-71 0 -114 36q-44 36 -44 102q0 32 13 57t36 43q22 18 51 27t62 9q37 0 66 -9q28 -9 40 -21v16
q0 26 -9 42q-8 15 -23 25q-14 9 -31 12q-18 3 -34 3q-36 0 -73 -17q-36 -17 -56 -41l-21 80q11 17 29 32q17 14 39 25q19 9 45 16q24 6 47 6q41 0 72 -10q33 -11 57 -30q25 -20 38 -51q14 -33 14 -72v-110z" />
    <glyph glyph-name="A" unicode="A" horiz-adv-x="692" 
d="M684 0h-119l-62 156h-312l-61 -156h-122l280 718h115zM238 276h218l-109 279z" />
    <glyph glyph-name="B" unicode="B" horiz-adv-x="581" 
d="M268 718v-1q49 0 91 -12q43 -12 72 -37q31 -26 47 -63q17 -39 17 -85q0 -49 -16 -81q-17 -33 -45 -57q45 -23 71 -64q27 -42 27 -108q0 -50 -18 -89q-18 -40 -49 -66q-33 -28 -73 -41q-44 -14 -90 -14h-215v718h181zM200 306l1 -191h126q39 0 66 27t27 69q0 21 -7 36
q-8 18 -19 30q-12 13 -30 21q-19 8 -39 8h-125zM201 598l-2 -178h92q39 0 66 24t27 65q0 38 -25 63q-26 26 -66 26h-92z" />
    <glyph glyph-name="C" unicode="C" horiz-adv-x="702" 
d="M669 119h-1q-31 -56 -102 -94q-70 -37 -170 -37q-72 0 -137 27t-114 76q-50 50 -78 118q-29 70 -29 152q0 83 29 153q29 69 78 117t114 75t137 27q50 0 90 -10q45 -11 77 -28q35 -18 60 -42t40 -49l-35 -101q-16 23 -39 42q-24 21 -51 35q-28 15 -63 24t-72 9
q-55 0 -102 -18t-79 -49q-33 -32 -51 -78t-18 -105t18 -105t51 -79t80 -51q46 -18 102 -18q82 0 141 33t90 78z" />
    <glyph glyph-name="D" unicode="D" horiz-adv-x="736" 
d="M584 359h2q0 49 -18 93t-49 75q-32 32 -75 50q-44 18 -96 18h-147v-474h147q48 0 93 17q43 16 75 48t50 75t18 98zM313 718v-3q85 0 155 -24q71 -24 122 -69q52 -46 80 -112q29 -69 29 -153q0 -85 -30 -151q-30 -65 -81 -112q-50 -45 -122 -70q-70 -24 -153 -24h-224v718
h224z" />
    <glyph glyph-name="E" unicode="E" horiz-adv-x="537" 
d="M87 718h390v-122h-277v-166h247v-122h-247v-186h277v-122h-390v718z" />
    <glyph glyph-name="F" unicode="F" horiz-adv-x="491" 
d="M87 718h354v-122h-241v-166h221v-122h-221v-308h-113v718z" />
    <glyph glyph-name="G" unicode="G" horiz-adv-x="741" 
d="M396 731l-1 -2q46 0 90 -11q41 -10 77 -29q34 -18 60 -42t41 -50l-35 -101q-16 22 -39 42q-24 21 -51 35q-28 15 -63 24t-72 9q-55 0 -102 -18q-46 -18 -79 -51t-51 -79t-18 -103q0 -59 18 -105t53 -78q34 -32 81 -48q48 -17 104 -17q51 0 92 15q40 15 72 44v92h-170v119
h281v-247q-19 -31 -46 -57t-66 -46q-35 -18 -81 -31q-43 -12 -93 -12q-72 0 -137 27t-114 76t-79 118t-30 152q0 84 30 153t79 118t114 76t135 27z" />
    <glyph glyph-name="H" unicode="H" horiz-adv-x="761" 
d="M87 718h113v-288h361v288h113v-718h-113v308h-361v-308h-113v718z" />
    <glyph glyph-name="I" unicode="I" horiz-adv-x="287" 
d="M87 718h113v-718h-113v718z" />
    <glyph glyph-name="J" unicode="J" horiz-adv-x="417" 
d="M334 182h-2q0 -93 -43 -143q-43 -51 -133 -51q-23 0 -44 6t-39 15q-19 10 -32 21q-13 12 -21 26l12 108q22 -23 50 -39q27 -15 62 -15t56 21t21 75v512h113v-536z" />
    <glyph glyph-name="K" unicode="K" horiz-adv-x="653" 
d="M87 718h113v-294l267 294h146l-312 -345l348 -373h-156l-293 311v-311h-113v718z" />
    <glyph glyph-name="L" unicode="L" horiz-adv-x="481" 
d="M87 718h113v-596h261v-122h-374v718z" />
    <glyph glyph-name="M" unicode="M" horiz-adv-x="952" 
d="M681 718h118l96 -718h-113l-68 505l-182 -505h-107l-184 505l-66 -505h-118l96 718h118l204 -546z" />
    <glyph glyph-name="N" unicode="N" horiz-adv-x="762" 
d="M87 718h117l358 -526v526h113v-718h-117l-358 522v-522h-113v718z" />
    <glyph glyph-name="O" unicode="O" horiz-adv-x="803" 
d="M401 731h-2q75 0 140 -28q67 -29 116 -78t79 -118t30 -148t-30 -147t-79 -117q-50 -50 -115 -78t-139 -28q-73 0 -140 29t-116 78t-79 117q-30 67 -30 147t30 147q30 68 79 117t116 78t140 29zM400 609l-3 -2q-53 0 -98 -18q-44 -18 -79 -51t-54 -79q-19 -45 -19 -102
t19 -101q20 -45 54 -78t80 -51q45 -18 98 -18t98 18t78 51q34 34 53 79t19 102t-19 102q-19 47 -52 79q-33 33 -78 51t-97 18z" />
    <glyph glyph-name="P" unicode="P" horiz-adv-x="548" 
d="M290 718l-1 -4q50 0 91 -16t73 -45q31 -28 49 -69q18 -40 18 -90q0 -47 -17 -89q-16 -40 -47 -69q-30 -28 -72 -45q-41 -16 -93 -16h-91v-275h-113v718h203zM199 592l-2 -199h108q43 0 71 27q29 27 29 72q0 42 -27 71t-71 29h-108z" />
    <glyph glyph-name="Q" unicode="Q" horiz-adv-x="802" 
d="M401 731v-1q75 0 140 -28q67 -29 116 -78t79 -118t30 -148q0 -70 -24 -132q-25 -64 -64 -110q-41 -48 -95 -80q-54 -31 -116 -42q5 -33 27 -48t53 -15q29 0 50 12t41 32l7 -101q-19 -25 -49 -40t-74 -15q-84 0 -124 45t-42 126q-65 7 -124 39q-58 31 -102 81
q-43 49 -69 113q-25 62 -25 137q0 80 30 147q30 68 79 117t116 78t140 29zM402 608l-3 -2q-53 0 -98 -18q-44 -18 -79 -51t-54 -79q-19 -45 -19 -102t19 -101q20 -45 54 -78t80 -51q45 -18 98 -18t98 18t78 51q34 34 53 79t19 102t-19 102q-19 47 -52 79q-33 33 -78 51
t-97 18z" />
    <glyph glyph-name="R" unicode="R" horiz-adv-x="567" 
d="M87 718l207 -1q40 0 79 -12q37 -11 70 -38q33 -26 50 -64q18 -39 18 -91q0 -75 -39 -126q-39 -50 -105 -70l169 -316h-128l-163 303h-45v-303h-113v718zM201 595l-1 -177h109q37 0 63 24q25 24 25 64q0 38 -24 63q-24 26 -63 26h-109z" />
    <glyph glyph-name="S" unicode="S" horiz-adv-x="496" 
d="M361 365l1 -3q44 -38 71 -80t27 -101q0 -44 -15 -80q-15 -37 -42 -62t-66 -39q-40 -14 -86 -14q-35 0 -73 11q-34 10 -66 29q-30 18 -51 39t-30 44l34 110q32 -50 83 -80t107 -30q43 0 66 19q24 20 24 54q0 26 -15 47q-16 22 -40 42q-17 14 -50.5 41t-47.5 39
q-41 33 -68 62q-31 33 -50 66q-20 35 -20 79q0 40 15 72q15 31 41 54q25 22 60 34q34 12 75 12q30 0 60 -8q29 -8 53 -21q25 -14 42 -31q20 -20 29 -37l-23 -109q-28 40 -74 63q-44 22 -88 22q-14 0 -27 -3t-24 -9t-18 -16t-7 -25q0 -22 18 -42q16 -18 35 -33q30 -26 50 -41
q34 -26 38 -30q24 -20 29 -24q16 -14 23 -21z" />
    <glyph glyph-name="T" unicode="T" horiz-adv-x="577" 
d="M14 718h549v-120h-218v-598h-113v598h-218v120z" />
    <glyph glyph-name="U" unicode="U" horiz-adv-x="734" 
d="M367 109h2q79 0 125 48q47 49 47 129v432h113v-433q0 -67 -21 -123t-58 -94q-37 -39 -90 -60t-117 -21t-117 21t-90 60q-37 38 -58 94t-21 123v433h113v-432q0 -80 47 -129q46 -48 125 -48z" />
    <glyph glyph-name="V" unicode="V" horiz-adv-x="655" 
d="M8 718h122l197 -545l196 545h124l-261 -718h-117z" />
    <glyph glyph-name="W" unicode="W" horiz-adv-x="1021" 
d="M710 214l167 504h126l-238 -718h-107l-149 526l-147 -526h-107l-238 718h121l169 -504l144 504h112z" />
    <glyph glyph-name="X" unicode="X" horiz-adv-x="653" 
d="M157 0h-140l241 371l-226 347h135l158 -243l157 243h140l-226 -347l240 -371h-135l-172 265z" />
    <glyph glyph-name="Y" unicode="Y" horiz-adv-x="576" 
d="M6 718h126l154 -287l155 287h129l-225 -419v-299h-112v299z" />
    <glyph glyph-name="Z" unicode="Z" horiz-adv-x="507" 
d="M47 718h405v-92l-266 -504h268v-122h-407v92l265 504h-265v122z" />
    <glyph glyph-name="bracketleft" unicode="[" horiz-adv-x="384" 
d="M104 -174v892h205v-113h-101v-666h101v-113h-205z" />
    <glyph glyph-name="backslash" unicode="\" horiz-adv-x="474" 
d="M474 -174h-109l-365 892h109z" />
    <glyph glyph-name="bracketright" unicode="]" horiz-adv-x="384" 
d="M280 718v-892h-205v113h101v666h-101v113h205z" />
    <glyph glyph-name="asciicircum" unicode="^" horiz-adv-x="548" 
d="M42 335l178 350h109l177 -350h-110l-121 243l-121 -243h-112z" />
    <glyph glyph-name="underscore" unicode="_" horiz-adv-x="502" 
d="M-2 -66h506v-99h-506v99z" />
    <glyph glyph-name="grave" unicode="`" horiz-adv-x="348" 
d="M210 739l67 -154h-91l-115 154h139z" />
    <glyph glyph-name="a" unicode="a" horiz-adv-x="558" 
d="M375 181l-1 -1q-10 17 -42 28q-30 10 -69 10q-53 0 -81 -16t-28 -45q0 -28 29 -45t81 -17q36 0 69 14q31 13 42 35v37zM69 429l-4 1q29 42 81 66t113 24q101 0 161 -51t60 -147v-321h-105v44q-9 -14 -25 -24q-16 -11 -36 -18q-20 -8 -40 -12q-19 -4 -42 -4q-42 0 -78 12
q-35 12 -61 33q-25 21 -39 51q-14 31 -14 69q0 42 16 71t44 51t63 32q38 11 77 11q44 0 78 -10q37 -11 53 -27v21q0 29 -10 48q-11 20 -27 32t-39 18t-48 6q-47 0 -87 -18q-41 -18 -63 -49z" />
    <glyph glyph-name="b" unicode="b" horiz-adv-x="642" 
d="M597 253v-2q0 -59 -21 -108t-57 -84q-36 -34 -83 -54q-45 -19 -99 -19q-58 0 -99 19t-55 48v-53h-105v728h109v-275q12 28 53 48q39 19 98 19q53 0 98 -19q48 -20 83 -55q36 -36 57 -85t21 -108zM487 250l-2 -1q0 69 -43 111q-44 42 -114 42q-50 0 -89 -21t-51 -54v-150
q6 -16 20 -30q13 -13 32 -24q16 -9 41 -16q23 -6 48 -6q70 0 114 41t44 108z" />
    <glyph glyph-name="c" unicode="c" horiz-adv-x="545" 
d="M500 76l-4 -3q-10 -18 -28 -34q-17 -15 -42 -28q-22 -11 -54 -19q-28 -7 -65 -7q-51 0 -100 20q-48 19 -84 54t-57 84t-21 109t21 109t57 84t84 54q47 19 101 19q67 0 117 -26q49 -26 69 -60l-30 -90q-20 24 -57 42t-83 18q-76 0 -123 -41q-46 -40 -46 -108
q0 -67 47 -109q46 -42 123 -42q47 0 85 20q36 19 58 44z" />
    <glyph glyph-name="d" unicode="d" horiz-adv-x="642" 
d="M45 253h-2q0 59 21 108t57 85q35 35 83 55t98 20q59 0 98 -19q40 -20 54 -48v275h109v-728h-105v53q-12 -28 -54 -48q-41 -19 -99 -19q-51 0 -99 20q-47 20 -83 54q-36 35 -57 84t-21 108zM152 252l-2 2q0 -67 44 -108q43 -40 116 -40q50 0 89 21q38 21 52 53v150
q-14 33 -52 54q-39 21 -89 21q-72 0 -115 -42t-43 -111z" />
    <glyph glyph-name="e" unicode="e" horiz-adv-x="586" 
d="M316 99l-2 -4q47 0 92 20q44 20 65 47l32 -85q-12 -20 -28 -35q-19 -17 -43 -30q-26 -14 -55 -21q-28 -7 -65 -7q-56 0 -106 18q-48 17 -85 53q-37 35 -56 84q-20 51 -20 111q0 54 18 102q18 47 51 85t80 59q46 21 105 21q55 0 100 -21q46 -21 77 -57q32 -36 48 -84
q17 -49 17 -101q0 -22 -3 -40h-382q8 -58 51 -87q43 -28 109 -28zM425 308h-4q-4 43 -41 69t-86 26q-27 0 -48 -7q-25 -8 -41 -19q-18 -12 -30 -30q-11 -17 -16 -39h266z" />
    <glyph glyph-name="f" unicode="f" horiz-adv-x="438" 
d="M396 590l-2 -1q-16 16 -38 27q-20 10 -50 10q-28 0 -51 -18q-22 -18 -22 -59v-43h167v-116h-167v-391h-109v391h-91v116h91v63q0 81 42 126t125 45q43 0 77 -17t47 -42z" />
    <glyph glyph-name="g" unicode="g" horiz-adv-x="641" 
d="M44 260l3 -2q0 58 21 106q20 46 56 82q34 34 81 54q45 19 99 19q58 0 99 -19q42 -20 54 -48v53h105v-508q0 -51 -18 -93q-18 -43 -49 -72q-30 -29 -77 -46q-44 -16 -101 -16q-35 0 -70 8q-34 8 -62 21q-27 13 -51 32q-22 18 -36 39l32 99q28 -34 75 -58t100 -24
q25 0 51 6t48 21t36 41t14 68v44q-14 -29 -54 -48q-39 -19 -99 -19q-52 0 -97 19q-46 19 -82 54t-57 82q-21 48 -21 105zM156 259l-2 1q0 -66 44 -105t116 -39q50 0 89 21t52 52v140q-14 33 -52 53q-39 21 -89 21q-72 0 -115 -39t-43 -105z" />
    <glyph glyph-name="h" unicode="h" horiz-adv-x="611" 
d="M188 0l-110 -1v728h109v-275q10 28 44 48q32 19 89 19q41 0 79 -13t70 -42q31 -28 51 -72q20 -45 20 -103v-290h-109v278q0 61 -34 94q-35 33 -84 33q-45 0 -81 -24t-44 -62v-318z" />
    <glyph glyph-name="i" unicode="i" horiz-adv-x="267" 
d="M79 507h109v-507h-109v507zM58 667q0 32 22 54t54 22t54 -22t22 -54t-22 -54t-54 -22t-54 22t-22 54z" />
    <glyph glyph-name="j" unicode="j" horiz-adv-x="273" 
d="M85 507h107v-568q0 -165 -128 -165q-21 0 -50 8q-27 8 -48 27l10 101q10 -10 26 -15q17 -5 28 -5q31 0 43 18t12 56v543zM62 667q0 32 22 54t54 22t54 -22t22 -54t-22 -54t-54 -22t-54 22t-22 54z" />
    <glyph glyph-name="k" unicode="k" horiz-adv-x="567" 
d="M79 728h109v-418l203 197h144l-242 -238l269 -269h-151l-223 222v-222h-109v728z" />
    <glyph glyph-name="l" unicode="l" horiz-adv-x="267" 
d="M79 728h109v-728h-109v728z" />
    <glyph glyph-name="m" unicode="m" horiz-adv-x="930" 
d="M321 520l-1 -2q45 0 87 -18q41 -18 73 -60q55 79 171 79q39 0 75 -13q38 -14 67 -40q30 -27 48 -67q18 -41 18 -96v-304h-109v288q0 56 -32 86t-78 30q-42 0 -76 -24q-35 -24 -42 -61v-320h-109v288q0 56 -32 86q-31 30 -78 30q-21 0 -40 -6t-35 -17q-15 -11 -26 -26
q-11 -16 -14 -33v-320h-109v507h105v-54q10 28 47 48q35 19 90 19z" />
    <glyph glyph-name="n" unicode="n" horiz-adv-x="611" 
d="M322 520l-3 -1q41 0 79 -13t70 -42q32 -28 51 -72q20 -45 20 -103v-290h-109v278q0 61 -34 94t-84 33q-45 0 -81 -24t-44 -62v-318h-109v507h105v-54q10 28 47 48q35 19 92 19z" />
    <glyph glyph-name="o" unicode="o" horiz-adv-x="614" 
d="M569 253l-2 -1q0 -56 -21 -106q-21 -49 -57 -85q-35 -35 -84 -55t-100 -20t-100 20q-47 19 -84 56q-36 36 -57 85q-21 50 -21 106q0 57 21 106t57 85q37 37 84 56q49 20 101 20t101 -20q47 -19 84 -56q36 -36 57 -85q21 -50 21 -106zM152 252v-1q0 -34 12 -61
q12 -28 33 -47q21 -20 49 -30q30 -11 60 -11t60 11q28 10 49 30q21 19 33 47q12 27 12 60q0 34 -12 63t-33 48q-21 20 -49 30q-30 11 -60 11t-60 -11q-28 -10 -49 -30q-21 -19 -33 -48t-12 -61z" />
    <glyph glyph-name="p" unicode="p" horiz-adv-x="642" 
d="M597 253l-2 -1q0 -58 -21 -108t-57 -84q-36 -35 -82 -54q-45 -19 -97 -19q-59 0 -98 19q-41 20 -53 48v-267h-109v720h105v-54q14 29 55 48t99 19q54 0 99 -19q48 -20 83 -55q36 -36 57 -85t21 -108zM485 253l-2 2q0 68 -43 108q-44 41 -114 41q-26 0 -48 -6
q-25 -7 -41 -16q-19 -11 -32 -24t-19 -30v-150q6 -16 20 -30q13 -13 32 -24q16 -9 41 -16q23 -6 48 -6q70 0 114 41t44 110z" />
    <glyph glyph-name="q" unicode="q" horiz-adv-x="642" 
d="M45 253v-1q0 58 21 108q21 49 57 85q35 35 83 55t99 20q58 0 99 -19q42 -19 54 -48v54h105v-720h-109v267q-14 -28 -54 -48q-39 -19 -97 -19q-50 0 -98 20q-46 19 -82 54t-57 84t-21 108zM154 253h-2q0 -69 44 -110t116 -41q50 0 89 21q38 21 52 53v150q-14 32 -52 54
t-89 22q-71 0 -115 -41q-43 -40 -43 -108z" />
    <glyph glyph-name="r" unicode="r" horiz-adv-x="405" 
d="M366 381l1 1q-11 8 -30 16q-17 7 -40 7q-22 0 -43 -8q-20 -7 -33 -21q-12 -12 -22 -30q-9 -16 -12 -33v-313h-109v507h105v-67q12 38 41 59t74 21q28 0 51 -12t33 -28z" />
    <glyph glyph-name="s" unicode="s" horiz-adv-x="433" 
d="M169 229l-3 -1q-115 58 -115 147q0 29 11 56q10 25 32 45q21 20 51 30q31 11 67 11q26 0 50 -6q27 -7 44 -16q18 -10 34 -24t23 -27l-20 -97q-29 29 -63 42q-36 14 -66 14q-23 0 -37 -7q-15 -8 -15 -24q0 -17 12 -26q11 -8 35 -21l52 -28q61 -31 93 -66q31 -34 31 -90
q0 -33 -12 -61t-36 -49t-57 -33t-74 -12q-58 0 -103 27q-46 27 -65 63l29 93q21 -27 59 -49q36 -21 87 -21q26 0 45 10q20 11 20 33q0 20 -16 33q-18 15 -45 29z" />
    <glyph glyph-name="t" unicode="t" horiz-adv-x="449" 
d="M401 48h-2q-16 -25 -48 -43q-31 -18 -72 -18q-84 0 -123 43q-39 44 -39 129v232h-89v35l165 209h33v-128h169v-116h-169v-210q0 -42 20 -60t54 -18q25 0 44 11q17 10 34 27z" />
    <glyph glyph-name="u" unicode="u" horiz-adv-x="608" 
d="M287 -13l-3 -1q-39 0 -79 14q-39 14 -69 42q-29 28 -49 72q-19 42 -19 104v290h109v-278q0 -61 33 -94t83 -33q45 0 81 24t44 62v318h109v-507h-105v54q-10 -28 -45 -48q-34 -19 -90 -19z" />
    <glyph glyph-name="v" unicode="v" horiz-adv-x="552" 
d="M222 0l-206 507h117l141 -357l142 357h119l-207 -507h-106z" />
    <glyph glyph-name="w" unicode="w" horiz-adv-x="867" 
d="M595 161l132 346h123l-201 -507h-104l-112 349l-111 -349h-105l-201 507h118l133 -346l111 346h106z" />
    <glyph glyph-name="x" unicode="x" horiz-adv-x="541" 
d="M145 0h-134l193 268l-173 239h131l106 -149l107 149h134l-172 -239l193 -268h-130l-128 177z" />
    <glyph glyph-name="y" unicode="y" horiz-adv-x="565" 
d="M17 507h120l143 -343l144 343h121l-302 -720h-120l100 238z" />
    <glyph glyph-name="z" unicode="z" horiz-adv-x="464" 
d="M58 507h343v-92l-209 -299h221v-116h-362v92l210 299h-203v116z" />
    <glyph glyph-name="braceleft" unicode="{" horiz-adv-x="405" 
d="M332 610l-2 -2q-44 2 -69 -18t-18 -66l22 -136q7 -45 -12 -75q-19 -29 -48 -43q28 -13 48 -44q19 -30 12 -75l-22 -136q-7 -47 18 -66t69 -16v-107q-49 -6 -85 4q-37 10 -63 33q-25 22 -36 56t-5 75l20 136q3 22 -3 39q-6 16 -18 28t-29 18q-18 7 -34 8v97q20 2 35 7
q17 6 29 18t18 28q6 17 3 39l-20 137q-6 41 5 75t36 56t63 33q36 10 86 4v-107z" />
    <glyph glyph-name="bar" unicode="|" horiz-adv-x="294" 
d="M199 -174h-104v892h104v-892z" />
    <glyph glyph-name="braceright" unicode="}" horiz-adv-x="405" 
d="M72 608l1 2v107q49 6 85 -4q38 -11 63 -33t36 -56t5 -75l-20 -137q-3 -22 3 -39q6 -16 18 -28t28 -18q15 -5 34 -7v-97q-16 -1 -34 -8q-17 -6 -29 -18t-18 -28q-6 -17 -3 -39l20 -136q6 -41 -5 -75t-36 -56q-26 -23 -63 -33q-36 -10 -85 -4v107q44 -3 69 16t18 66
l-22 136q-7 45 12 75q20 31 48 44q-29 14 -48 43q-19 30 -12 75l22 136q7 46 -18 66t-69 18z" />
    <glyph glyph-name="asciitilde" unicode="~" horiz-adv-x="546" 
d="M69 205l-3 -1q-14 39 -14 67q0 53 35 83t87 30q30 0 54 -10q21 -9 48 -23q8 -4 22 -12t20 -11q19 -10 38 -10q16 0 27 9t11 29q0 11 -6 29h87q14 -36 14 -69q0 -52 -33 -82t-84 -30q-27 0 -54 11q-21 9 -48 23q-8 4 -22 12t-20 11q-20 11 -36 11q-18 0 -30 -9t-12 -28
q0 -13 6 -30h-87z" />
    <glyph glyph-name="uni00A0" unicode="&#xa0;" horiz-adv-x="270" 
 />
    <glyph glyph-name="exclamdown" unicode="&#xa1;" horiz-adv-x="373" 
d="M231 283l27 -496h-144l27 496h90zM112 444l-2 -2q0 32 21 53t53 21t53 -21t21 -52t-21 -52t-52 -21t-52 21t-21 53z" />
    <glyph glyph-name="cent" unicode="&#xa2;" horiz-adv-x="545" 
d="M272 -117l2 105q-46 6 -87 27q-40 21 -72 56q-31 34 -49 81t-18 100q0 54 18 99q19 47 49 80q31 35 72 57q39 22 87 28v110h85v-112q48 -7 87 -32q37 -24 52 -52l-31 -90q-17 20 -45 36t-63 21v-293q38 5 66 22q29 18 44 41l32 -92q-19 -31 -57 -54t-87 -30v-108h-85z
M157 252l-2 -2q0 -54 32 -94q31 -38 86 -49v289q-53 -10 -85 -50q-31 -38 -31 -94z" />
    <glyph glyph-name="sterling" unicode="&#xa3;" horiz-adv-x="550" 
d="M500 121l-1 -117h-440v94q22 10 44 29q21 18 36 39t24 47q9 25 9 51q0 15 -3 30h-109v112h73q-14 40 -20 60q-9 30 -9 62q0 98 57 152t151 54q34 0 62 -9t51 -24t39 -36q17 -21 24 -43l-47 -84q-20 29 -49 51q-31 23 -79 23q-47 0 -71 -25t-24 -63q0 -29 10 -58
q18 -52 22 -62h141v-112h-107q2 -10 2 -15v-15q0 -45 -15 -81t-39 -60h268z" />
    <glyph glyph-name="currency" unicode="&#xa4;" horiz-adv-x="635" 
d="M506 632l72 -68l-78 -78q15 -26 24 -54t9 -60t-9 -60t-24 -54l78 -77l-74 -73l-78 77q-24 -14 -52 -21q-30 -8 -58 -8q-29 0 -58 8q-26 7 -52 21l-78 -77l-73 73l77 77q-31 50 -31 112t31 112l-77 78l73 72l78 -77q49 31 111 31t112 -31zM315 473l-1 -4q-22 0 -39 -7
q-18 -8 -33 -21t-22 -31q-8 -19 -8 -39t8 -39q7 -16 23 -31q15 -13 33 -21q17 -7 39 -7q44 0 73 28q30 29 30 72t-30 72q-29 28 -73 28z" />
    <glyph glyph-name="yen" unicode="&#xa5;" horiz-adv-x="530" 
d="M177 373h-111v91h71l-112 254h117l121 -285l122 285h120l-111 -254h74v-91h-114l-27 -64h141v-92h-146v-217h-112v217h-144v92h140z" />
    <glyph glyph-name="brokenbar" unicode="&#xa6;" horiz-adv-x="294" 
d="M199 -174h-104v344h104v-344zM199 374h-104v344h104v-344z" />
    <glyph glyph-name="section" unicode="&#xa7;" horiz-adv-x="579" 
d="M424 105l-2 -11q26 -20 44 -50t18 -72q0 -38 -15 -70t-42 -53t-63 -33t-79 -12q-32 0 -64 8q-30 8 -54 21q-25 14 -42 31q-18 18 -30 36l25 108q13 -17 35 -34q18 -14 42 -25q20 -9 47 -16q24 -6 47 -6q30 0 54 11q23 11 23 36q0 12 -9 24q-8 11 -23 24q-12 11 -32 24
q-24 16 -37 24l-67 41q-28 17 -51 34q-25 19 -45 42q-19 22 -31 49t-12 58q0 52 27 91t65 57q-23 17 -41 47t-18 71q0 37 14 68q14 30 39 51t62 33q36 12 80 12q34 0 62 -7q30 -7 54 -21q23 -13 43 -30q19 -16 30 -35l-26 -106q-16 18 -36 32t-43 25q-20 9 -45 16
q-22 6 -44 6q-33 0 -53 -10q-21 -10 -21 -33q0 -10 9 -22q8 -11 24 -22q15 -11 33 -21l36 -22l63 -39q34 -22 51 -34q23 -16 46 -41q21 -22 33 -48t12 -55q0 -54 -27 -92q-27 -37 -66 -60zM342 152l-1 -3q25 12 42 32q16 19 16 47q0 29 -24 50q-25 22 -62 47l-81 52
q-26 -11 -41 -30t-15 -47q0 -27 23 -48q23 -22 62 -47z" />
    <glyph glyph-name="dieresis" unicode="&#xa8;" horiz-adv-x="506" 
d="M82 659q0 31 21 52t51 21q31 0 52 -21t21 -52q0 -30 -21 -51t-52 -21q-30 0 -51 21t-21 51zM280 659q0 31 21 52t52 21q30 0 51 -21t21 -52q0 -30 -21 -51t-51 -21q-31 0 -52 21t-21 51z" />
    <glyph glyph-name="copyright" unicode="&#xa9;" horiz-adv-x="819" 
d="M409 731l-4 -4q77 0 146 -29q68 -28 118 -79q52 -52 80 -118q29 -69 29 -145q0 -75 -29 -144q-29 -67 -79 -118q-50 -50 -118 -79q-69 -29 -145 -29q-75 0 -144 29q-66 28 -118 80q-50 50 -79 119t-29 144q0 77 29 146q28 66 80 118t119 80q69 29 144 29zM405 48l-1 -1
q65 0 122 24t99 66t66 98t24 119q0 64 -24 119q-24 56 -66 98t-99 66t-122 24q-64 0 -121 -24t-99 -66q-41 -41 -67 -98q-25 -54 -25 -119t25 -119t68 -97q42 -42 99 -66t121 -24zM562 226l-2 1q-19 -31 -61 -52t-101 -21q-44 0 -84 15q-39 14 -70 44q-30 28 -48 68
q-18 39 -18 87t18 87q18 38 48 67q31 30 70 44q40 15 84 15q58 0 100 -21t60 -51l-25 -71q-18 22 -51 39q-34 17 -77 17q-65 0 -105 -34t-40 -93q0 -29 11 -54q10 -23 30 -40q19 -16 46 -25t59 -9q48 0 81 18q34 18 50 42z" />
    <glyph glyph-name="ordfeminine" unicode="&#xaa;" horiz-adv-x="400" 
d="M255 419l-1 1q-4 7 -23 15q-17 7 -41 7q-33 0 -49 -10t-16 -27t17 -26q16 -9 48 -9q22 0 41 8q18 8 24 18v23zM53 582l-1 -3q20 29 57 44t78 15q67 0 111 -33q43 -33 43 -97v-211h-84v29q-13 -19 -40 -28t-54 -9q-54 0 -91 29q-36 28 -36 80q0 25 11 47t30 35
q20 14 43 21q22 7 50 7q36 0 56 -7t28 -15v10q0 29 -22 44t-54 15t-60 -12q-27 -11 -43 -32z" />
    <glyph glyph-name="guillemotleft" unicode="&#xab;" horiz-adv-x="546" 
d="M494 84h-104l-136 183l136 181h104l-111 -181zM272 84h-104l-136 183l136 181h104l-111 -181z" />
    <glyph glyph-name="logicalnot" unicode="&#xac;" horiz-adv-x="553" 
d="M403 351h-348v103h443v-297h-95v194z" />
    <glyph glyph-name="uni00AD" unicode="&#xad;" horiz-adv-x="468" 
d="M395 325v-99h-323v99h323z" />
    <glyph glyph-name="registered" unicode="&#xae;" horiz-adv-x="819" 
d="M409 731l-4 -4q77 0 146 -29q68 -28 118 -79q52 -52 80 -118q29 -69 29 -145q0 -75 -29 -144q-29 -67 -79 -118q-50 -50 -118 -79q-69 -29 -145 -29q-75 0 -144 29q-66 28 -118 80q-50 50 -79 119t-29 144q0 77 29 146q28 66 80 118t119 80q69 29 144 29zM405 48l-1 -1
q65 0 122 24t99 66t66 98t24 119q0 64 -24 119q-24 56 -66 98t-99 66t-122 24q-64 0 -121 -24t-99 -66q-41 -41 -67 -98q-25 -54 -25 -119t25 -119t68 -97q42 -42 99 -66t121 -24zM263 574l129 -2q26 0 48 -7q25 -8 42 -22q18 -15 29 -38q11 -24 11 -54q0 -39 -21 -69
t-60 -42l98 -178h-88l-95 169h-13v-169h-80v412zM345 485l1 -76h55q20 0 31 10q12 11 12 28t-12 27q-13 11 -32 11h-55z" />
    <glyph glyph-name="macron" unicode="&#xaf;" horiz-adv-x="455" 
d="M380 705v-93h-305v93h305z" />
    <glyph glyph-name="degree" unicode="&#xb0;" horiz-adv-x="424" 
d="M212 728l-1 -1q35 0 64 -13t52 -36t36 -52t13 -64t-13 -64t-36 -52t-52 -36t-64 -13t-64 13t-52 36t-36 52t-13 64t13 64q14 31 36 53t53 36q29 13 64 13zM211 493q32 0 54 20q21 19 21 48t-21 48q-22 20 -54 20t-54 -20q-21 -19 -21 -48t21 -48q22 -20 54 -20z" />
    <glyph glyph-name="plusminus" unicode="&#xb1;" horiz-adv-x="543" 
d="M55 0v103h433v-103h-433zM224 431v160h95v-160h169v-104h-169v-160h-95v160h-169v104h169z" />
    <glyph glyph-name="twosuperior" unicode="&#xb2;" horiz-adv-x="339" 
d="M154 614l-4 4q-28 0 -48 -17q-19 -16 -33 -38l-35 59q4 13 15 28q9 12 26 28q15 14 36 21q22 8 48 8q33 0 56 -10t40 -27q17 -16 24 -39q8 -24 8 -45q0 -41 -20 -73q-19 -31 -54 -69l-49 -53h135v-89h-265v70l119 123q24 25 36 42t12 36q0 17 -12 29t-35 12z" />
    <glyph glyph-name="threesuperior" unicode="&#xb3;" horiz-adv-x="336" 
d="M152 380l-4 -3q28 0 47 14q18 13 18 35q0 20 -16 30q-17 11 -43 11q-16 0 -30 -3q-12 -3 -19 -8l-14 62l75 85h-119v90h230v-64l-75 -83q15 -4 34 -12t32 -21q14 -14 23 -35t9 -51q0 -28 -11 -53q-10 -23 -30 -43q-19 -19 -48 -30q-27 -10 -63 -10q-50 0 -81 21t-39 42
l19 75q17 -23 42 -36t63 -13z" />
    <glyph glyph-name="acute" unicode="&#xb4;" horiz-adv-x="348" 
d="M277 739l-115 -154h-91l67 154h139z" />
    <glyph glyph-name="mu" unicode="&#xb5;" horiz-adv-x="617" 
d="M296 -13l-2 1q-58 0 -108 26v-226h-109v720h109v-278q0 -61 33 -94t83 -33q45 0 81 24t44 62v318h109v-507h-105v54q-11 -28 -45 -48q-34 -19 -90 -19z" />
    <glyph glyph-name="paragraph" unicode="&#xb6;" horiz-adv-x="690" 
d="M627 718l-2 -110h-80v-773h-98v773h-88v-773h-98v485q-45 0 -83 15t-65 42t-42 63t-15 79t15 79q15 35 41 63q25 27 62 42q36 15 79 15h374z" />
    <glyph glyph-name="periodcentered" unicode="&#xb7;" horiz-adv-x="306" 
d="M74 267l-2 -1q0 34 23 57t57 23q35 0 57 -22q23 -23 23 -57q0 -35 -22 -57q-23 -23 -57 -23t-57 23q-22 22 -22 57z" />
    <glyph glyph-name="cedilla" unicode="&#xb8;" horiz-adv-x="342" 
d="M204 -123l-2 -2q0 13 -10 20q-11 8 -27 8q-11 0 -17 -1q-9 -2 -18 -6l-18 36l25 85h67l-18 -62q45 -2 74 -22q30 -21 30 -60q0 -45 -33 -69t-83 -24q-34 0 -65 14q-29 13 -46 33l13 56q21 -17 45 -25q21 -7 45 -7q38 0 38 26z" />
    <glyph glyph-name="onesuperior" unicode="&#xb9;" horiz-adv-x="270" 
d="M40 617l101 78h63v-395h-83v281l-81 -50v86z" />
    <glyph glyph-name="ordmasculine" unicode="&#xba;" horiz-adv-x="441" 
d="M220 641v-2q38 0 70 -13q33 -14 58 -37q25 -24 40 -55q15 -32 15 -69t-15 -69q-15 -31 -40 -55q-25 -23 -58 -37q-32 -13 -70 -13t-70 13q-33 14 -58 37q-24 23 -40 56q-15 31 -15 69t15 69q16 33 40 56q25 23 58 37q32 13 70 13zM315 464l-2 -2q0 38 -27 60
q-28 23 -67 23q-41 0 -67 -22q-27 -23 -27 -60t27 -60q26 -22 68 -22q40 0 68 23q27 22 27 60z" />
    <glyph glyph-name="guillemotright" unicode="&#xbb;" horiz-adv-x="546" 
d="M378 84h-104l111 183l-111 181h104l136 -181zM156 84h-104l111 183l-111 181h104l136 -181z" />
    <glyph glyph-name="onequarter" unicode="&#xbc;" horiz-adv-x="720" 
d="M201 0h-96l429 718h96zM40 617l101 78h63v-395h-83v281l-81 -50v86zM576 395h74v-204h46v-85h-46v-106h-82v106h-155v70zM568 191v86l-65 -86h65z" />
    <glyph glyph-name="onehalf" unicode="&#xbd;" horiz-adv-x="779" 
d="M201 0h-96l429 718h96zM40 617l101 78h63v-395h-83v281l-81 -50v86zM594 314l-4 4q-28 0 -48 -17q-19 -16 -33 -38l-35 59q4 13 15 28q9 12 26 28q15 14 36 21q22 8 48 8q33 0 56 -10t40 -27q17 -16 24 -39q8 -24 8 -45q0 -41 -20 -73q-19 -31 -54 -69l-49 -53h135v-89
h-265v70l119 123q24 25 36 42t12 36q0 17 -12 29t-35 12z" />
    <glyph glyph-name="threequarters" unicode="&#xbe;" horiz-adv-x="771" 
d="M252 0h-96l429 718h96zM627 395h74v-204h46v-85h-46v-106h-82v106h-155v70zM619 191v86l-65 -86h65zM152 380l-4 -3q28 0 47 14q18 13 18 35q0 20 -16 30q-17 11 -43 11q-16 0 -30 -3q-12 -3 -19 -8l-14 62l75 85h-119v90h230v-64l-75 -83q15 -4 34 -12t32 -21
q14 -14 23 -35t9 -51q0 -28 -11 -53q-10 -23 -30 -43q-19 -19 -48 -30q-27 -10 -63 -10q-50 0 -81 21t-39 42l19 75q17 -23 42 -36t63 -13z" />
    <glyph glyph-name="questiondown" unicode="&#xbf;" horiz-adv-x="474" 
d="M318 444l-2 -2q0 -31 -21 -52t-52 -21t-52 21t-21 53t21 53t53 21t53 -21t21 -52zM409 -134l-4 -2q-9 -19 -26 -36q-17 -16 -39 -30q-23 -14 -49 -21q-25 -7 -55 -7q-80 0 -125 42t-45 106q0 28 9 51q9 21 26 42q17 19 39 36q20 15 50 33q44 27 61 44q15 15 15 30
q0 14 -12 25q-11 10 -35 10q-27 0 -54 -13q-28 -13 -52 -39l-18 90q17 25 51 48q35 23 86 23q33 0 59 -10q27 -11 46 -28q19 -18 30 -42q11 -25 11 -52q0 -20 -6 -39q-6 -21 -19 -39q-15 -22 -37 -41t-60 -43q-42 -27 -61 -45q-18 -17 -18 -36t18 -31t46 -12q45 0 82 21
t61 52z" />
    <glyph glyph-name="Agrave" unicode="&#xc0;" horiz-adv-x="692" 
d="M684 0h-119l-62 156h-312l-61 -156h-122l280 718h115zM238 276h218l-109 279zM326 916l67 -144h-93l-115 144h141z" />
    <glyph glyph-name="Aacute" unicode="&#xc1;" horiz-adv-x="692" 
d="M684 0h-119l-62 156h-312l-61 -156h-122l280 718h115zM238 276h218l-109 279zM509 916l-115 -144h-93l67 144h141z" />
    <glyph glyph-name="Acircumflex" unicode="&#xc2;" horiz-adv-x="692" 
d="M684 0h-119l-62 156h-312l-61 -156h-122l280 718h115zM238 276h218l-109 279zM411 916l80 -144h-84l-62 66l-62 -66h-83l80 144h131z" />
    <glyph glyph-name="Atilde" unicode="&#xc3;" horiz-adv-x="692" 
d="M684 0h-119l-62 156h-312l-61 -156h-122l280 718h115zM238 276h218l-109 279zM283 827l1 -1q-13 0 -21 -7q-9 -7 -9 -21q0 -13 4 -24h-68q-12 28 -12 54q0 41 27 65t66 24q20 0 41 -8t38 -18q20 -12 34 -18q18 -8 30 -8q13 0 20 7q8 8 8 21t-4 24h68q12 -28 12 -53
q0 -41 -27 -65t-66 -24q-21 0 -43 8q-21 7 -39 18t-33 18q-16 8 -27 8z" />
    <glyph glyph-name="Adieresis" unicode="&#xc4;" horiz-adv-x="692" 
d="M684 0h-119l-62 156h-312l-61 -156h-122l280 718h115zM238 276h218l-109 279zM175 846q0 29 20 51q19 21 50 21t50 -21q20 -22 20 -51q0 -30 -20 -50t-50 -20t-50 20t-20 50zM378 846q0 29 20 51q20 21 50 21t51 -21t21 -51t-21 -50q-22 -20 -51 -20q-30 0 -50 20t-20 50
z" />
    <glyph glyph-name="Aring" unicode="&#xc5;" horiz-adv-x="692" 
d="M684 0h-119l-62 156h-312l-61 -156h-122l280 718h115zM238 276h218l-109 279zM240 856l-1 -2q0 22 9 42q9 19 23 33t33 23q20 9 42 9t42 -9t34 -22q15 -14 24 -33t9 -42t-9 -42t-24 -33q-14 -13 -34 -22t-42 -9t-42 9q-19 9 -33 23q-13 13 -22 33t-9 42zM306 854l-1 -1
q0 -17 12 -27q11 -10 29 -10q16 0 27 11t11 27t-11 27q-10 10 -27 10t-28 -10q-12 -11 -12 -27z" />
    <glyph glyph-name="AE" unicode="&#xc6;" horiz-adv-x="925" 
d="M865 596h-277v-166h247v-122h-247v-186h277v-122h-390v156h-262l-95 -156h-131l437 718h441v-122zM475 276v312l-189 -312h189z" />
    <glyph glyph-name="Ccedilla" unicode="&#xc7;" horiz-adv-x="702" 
d="M418 -123h-2q0 13 -10 20q-11 8 -27 8q-11 0 -17 -1q-9 -2 -18 -6l-18 36l16 57q-64 9 -119 39q-56 31 -98 78q-42 48 -66 111t-24 140q0 83 29 153q28 69 78 117t114 75t137 27q50 0 90 -10q45 -11 77 -28q34 -18 60 -42q25 -24 40 -49l-35 -101q-17 23 -39 42
q-24 21 -51 35q-29 15 -63 24t-72 9q-56 0 -102 -18q-47 -18 -79 -49q-33 -32 -51 -78t-18 -105t18 -105t51 -79t80 -51t102 -18q83 0 141 33t90 78l34 -102q-31 -53 -98 -91q-65 -37 -159 -40l-9 -31q45 -2 74 -22q30 -21 30 -60q0 -45 -33 -69t-83 -24q-34 0 -65 14
q-29 13 -46 33l13 56q21 -17 45 -25q21 -7 45 -7q38 0 38 26z" />
    <glyph glyph-name="Egrave" unicode="&#xc8;" horiz-adv-x="537" 
d="M87 718h390v-122h-277v-166h247v-122h-247v-186h277v-122h-390v718zM294 916l67 -144h-93l-115 144h141z" />
    <glyph glyph-name="Eacute" unicode="&#xc9;" horiz-adv-x="537" 
d="M87 718h390v-122h-277v-166h247v-122h-247v-186h277v-122h-390v718zM423 916l-115 -144h-93l67 144h141z" />
    <glyph glyph-name="Ecircumflex" unicode="&#xca;" horiz-adv-x="537" 
d="M87 718h390v-122h-277v-166h247v-122h-247v-186h277v-122h-390v718zM349 916l80 -144h-84l-62 66l-62 -66h-83l80 144h131z" />
    <glyph glyph-name="Edieresis" unicode="&#xcb;" horiz-adv-x="537" 
d="M87 718h390v-122h-277v-166h247v-122h-247v-186h277v-122h-390v718zM111 846q0 29 20 51q20 21 50 21q31 0 50 -21q20 -22 20 -51q0 -30 -20 -50t-50 -20t-50 20t-20 50zM314 846q0 29 20 51q19 21 50 21q30 0 51 -21t21 -51t-21 -50q-22 -20 -51 -20q-30 0 -50 20
t-20 50z" />
    <glyph glyph-name="Igrave" unicode="&#xcc;" horiz-adv-x="287" 
d="M87 718h113v-718h-113v718zM125 916l67 -144h-93l-115 144h141z" />
    <glyph glyph-name="Iacute" unicode="&#xcd;" horiz-adv-x="287" 
d="M87 718h113v-718h-113v718zM305 916l-115 -144h-93l67 144h141z" />
    <glyph glyph-name="Icircumflex" unicode="&#xce;" horiz-adv-x="287" 
d="M87 718h113v-718h-113v718zM210 916l80 -144h-84l-62 66l-62 -66h-83l80 144h131z" />
    <glyph glyph-name="Idieresis" unicode="&#xcf;" horiz-adv-x="287" 
d="M87 718h113v-718h-113v718zM-28 846q0 29 20 51q19 21 50 21q30 0 50 -21q20 -22 20 -51q0 -30 -20 -50t-50 -20t-50 20t-20 50zM175 846q0 29 20 51q19 21 50 21q30 0 51 -21t21 -51t-21 -50q-22 -20 -51 -20q-30 0 -50 20t-20 50z" />
    <glyph glyph-name="Eth" unicode="&#xd0;" horiz-adv-x="751" 
d="M7 430l95 -3v288h224q84 0 155 -24t122 -69q52 -46 80 -112q29 -69 29 -153q0 -85 -30 -151q-30 -65 -81 -112q-50 -45 -122 -70q-71 -24 -153 -24h-224v308h-95v122zM599 356h2q0 50 -18 93q-18 44 -49 75q-32 32 -75 50t-96 18h-147v-166h168v-122h-168v-186h147
q48 0 93 17q44 17 75 48q32 32 50 75q18 44 18 98z" />
    <glyph glyph-name="Ntilde" unicode="&#xd1;" horiz-adv-x="762" 
d="M87 718h117l358 -526v526h113v-718h-117l-358 522v-522h-113v718zM318 827l1 -1q-13 0 -21 -7q-9 -7 -9 -21q0 -13 4 -24h-68q-12 28 -12 54q0 41 27 65t66 24q20 0 41 -8t38 -18q20 -12 34 -18q18 -8 30 -8q13 0 20 7q8 8 8 21t-4 24h68q12 -28 12 -53q0 -41 -27 -65
t-66 -24q-21 0 -43 8q-21 7 -39 18t-33 18q-16 8 -27 8z" />
    <glyph glyph-name="Ograve" unicode="&#xd2;" horiz-adv-x="803" 
d="M401 731h-2q75 0 140 -28q67 -29 116 -78t79 -118t30 -148t-30 -147t-79 -117q-50 -50 -115 -78t-139 -28q-73 0 -140 29t-116 78t-79 117q-30 67 -30 147t30 147q30 68 79 117t116 78t140 29zM400 609l-3 -2q-53 0 -98 -18q-44 -18 -79 -51t-54 -79q-19 -45 -19 -102
t19 -101q20 -45 54 -78t80 -51q45 -18 98 -18t98 18t78 51q34 34 53 79t19 102t-19 102q-19 47 -52 79q-33 33 -78 51t-97 18zM393 914l67 -144h-93l-115 144h141z" />
    <glyph glyph-name="Oacute" unicode="&#xd3;" horiz-adv-x="803" 
d="M401 731h-2q75 0 140 -28q67 -29 116 -78t79 -118t30 -148t-30 -147t-79 -117q-50 -50 -115 -78t-139 -28q-73 0 -140 29t-116 78t-79 117q-30 67 -30 147t30 147q30 68 79 117t116 78t140 29zM400 609l-3 -2q-53 0 -98 -18q-44 -18 -79 -51t-54 -79q-19 -45 -19 -102
t19 -101q20 -45 54 -78t80 -51q45 -18 98 -18t98 18t78 51q34 34 53 79t19 102t-19 102q-19 47 -52 79q-33 33 -78 51t-97 18zM540 914l-115 -144h-93l67 144h141z" />
    <glyph glyph-name="Ocircumflex" unicode="&#xd4;" horiz-adv-x="803" 
d="M401 731h-2q75 0 140 -28q67 -29 116 -78t79 -118t30 -148t-30 -147t-79 -117q-50 -50 -115 -78t-139 -28q-73 0 -140 29t-116 78t-79 117q-30 67 -30 147t30 147q30 68 79 117t116 78t140 29zM400 609l-3 -2q-53 0 -98 -18q-44 -18 -79 -51t-54 -79q-19 -45 -19 -102
t19 -101q20 -45 54 -78t80 -51q45 -18 98 -18t98 18t78 51q34 34 53 79t19 102t-19 102q-19 47 -52 79q-33 33 -78 51t-97 18zM461 914l80 -144h-84l-62 66l-62 -66h-83l80 144h131z" />
    <glyph glyph-name="Otilde" unicode="&#xd5;" horiz-adv-x="803" 
d="M401 731h-2q75 0 140 -28q67 -29 116 -78t79 -118t30 -148t-30 -147t-79 -117q-50 -50 -115 -78t-139 -28q-73 0 -140 29t-116 78t-79 117q-30 67 -30 147t30 147q30 68 79 117t116 78t140 29zM400 609l-3 -2q-53 0 -98 -18q-44 -18 -79 -51t-54 -79q-19 -45 -19 -102
t19 -101q20 -45 54 -78t80 -51q45 -18 98 -18t98 18t78 51q34 34 53 79t19 102t-19 102q-19 47 -52 79q-33 33 -78 51t-97 18zM332 825l1 -1q-13 0 -21 -7q-9 -7 -9 -21q0 -13 4 -24h-68q-12 28 -12 54q0 41 27 65t66 24q20 0 41 -8t38 -18q20 -12 34 -18q18 -8 30 -8
q13 0 20 7q8 8 8 21t-4 24h68q12 -28 12 -53q0 -41 -27 -65t-66 -24q-21 0 -43 8q-21 7 -39 18t-33 18q-16 8 -27 8z" />
    <glyph glyph-name="Odieresis" unicode="&#xd6;" horiz-adv-x="803" 
d="M401 731h-2q75 0 140 -28q67 -29 116 -78t79 -118t30 -148t-30 -147t-79 -117q-50 -50 -115 -78t-139 -28q-73 0 -140 29t-116 78t-79 117q-30 67 -30 147t30 147q30 68 79 117t116 78t140 29zM400 609l-3 -2q-53 0 -98 -18q-44 -18 -79 -51t-54 -79q-19 -45 -19 -102
t19 -101q20 -45 54 -78t80 -51q45 -18 98 -18t98 18t78 51q34 34 53 79t19 102t-19 102q-19 47 -52 79q-33 33 -78 51t-97 18zM224 844q0 29 20 51q19 21 50 21q30 0 50 -21q20 -22 20 -51q0 -30 -20 -50t-50 -20t-50 20t-20 50zM427 844q0 29 20 51q19 21 50 21
q30 0 51 -21t21 -51t-21 -50q-22 -20 -51 -20q-30 0 -50 20t-20 50z" />
    <glyph glyph-name="multiply" unicode="&#xd7;" horiz-adv-x="534" 
d="M197 300l-141 140l67 67l140 -140l143 142l73 -72l-143 -143l141 -140l-68 -67l-140 141l-142 -143l-72 72z" />
    <glyph glyph-name="Oslash" unicode="&#xd8;" horiz-adv-x="812" 
d="M406 731l-2 1q54 0 104 -15q48 -15 93 -44l49 59h137l-107 -127q42 -48 66 -111t24 -135q0 -79 -30 -147t-79 -117q-50 -50 -115 -78t-139 -28q-55 0 -104 15q-51 15 -93 43l-49 -58h-137l107 127q-42 48 -66 110t-24 134q0 80 30 147q30 68 79 117t116 78t140 29z
M653 360h-1q0 46 -13 84t-36 70l-318 -377q54 -27 120 -27q53 0 98 18t78 51q34 34 53 79t19 102zM404 610v-1q-53 0 -98 -18q-44 -18 -79 -51t-54 -79q-19 -45 -19 -102q0 -46 13 -84q14 -40 36 -71l318 377q-53 29 -117 29z" />
    <glyph glyph-name="Ugrave" unicode="&#xd9;" horiz-adv-x="734" 
d="M367 109h2q79 0 125 48q47 49 47 129v432h113v-433q0 -67 -21 -123t-58 -94q-37 -39 -90 -60t-117 -21t-117 21t-90 60q-37 38 -58 94t-21 123v433h113v-432q0 -80 47 -129q46 -48 125 -48zM370 916l67 -144h-93l-115 144h141z" />
    <glyph glyph-name="Uacute" unicode="&#xda;" horiz-adv-x="734" 
d="M367 109h2q79 0 125 48q47 49 47 129v432h113v-433q0 -67 -21 -123t-58 -94q-37 -39 -90 -60t-117 -21t-117 21t-90 60q-37 38 -58 94t-21 123v433h113v-432q0 -80 47 -129q46 -48 125 -48zM509 916l-115 -144h-93l67 144h141z" />
    <glyph glyph-name="Ucircumflex" unicode="&#xdb;" horiz-adv-x="734" 
d="M367 109h2q79 0 125 48q47 49 47 129v432h113v-433q0 -67 -21 -123t-58 -94q-37 -39 -90 -60t-117 -21t-117 21t-90 60q-37 38 -58 94t-21 123v433h113v-432q0 -80 47 -129q46 -48 125 -48zM434 916l80 -144h-84l-62 66l-62 -66h-83l80 144h131z" />
    <glyph glyph-name="Udieresis" unicode="&#xdc;" horiz-adv-x="734" 
d="M367 109h2q79 0 125 48q47 49 47 129v432h113v-433q0 -67 -21 -123t-58 -94q-37 -39 -90 -60t-117 -21t-117 21t-90 60q-37 38 -58 94t-21 123v433h113v-432q0 -80 47 -129q46 -48 125 -48zM196 846q0 29 20 51q20 21 50 21t50 -21q20 -22 20 -51q0 -30 -20 -50t-50 -20
t-50 20t-20 50zM399 846q0 29 20 51q19 21 50 21q30 0 51 -21t21 -51t-21 -50q-22 -20 -51 -20q-30 0 -50 20t-20 50z" />
    <glyph glyph-name="Yacute" unicode="&#xdd;" horiz-adv-x="576" 
d="M6 718h126l154 -287l155 287h129l-225 -419v-299h-112v299zM442 916l-115 -144h-93l67 144h141z" />
    <glyph glyph-name="Thorn" unicode="&#xde;" horiz-adv-x="548" 
d="M200 718l-1 -137h90q50 0 91 -16t73 -45q31 -28 49 -69t18 -90q0 -48 -17 -90q-16 -40 -47 -69q-30 -28 -72 -45q-41 -16 -93 -16h-91v-141h-113v718h113zM199 460l-2 -199h108q43 0 71 27q29 27 29 72q0 42 -27 71t-71 29h-108z" />
    <glyph glyph-name="germandbls" unicode="&#xdf;" horiz-adv-x="616" 
d="M451 412l-5 -4q53 -25 88 -78q34 -52 34 -117q0 -45 -17 -88q-17 -42 -46 -73q-30 -31 -70 -49q-41 -18 -88 -18q-44 0 -74 13q-31 14 -45 33l24 92q14 -13 39 -19q24 -6 47 -6q56 0 90 33t34 82q0 27 -11 51q-11 23 -30 38q-21 16 -45 23q-27 8 -54 8h-49v107h13
q51 0 79 25t28 69q0 37 -27 64t-73 27q-51 0 -78 -32q-27 -31 -27 -81v-513h-109v519q0 50 15 90t42 69t66 45q40 17 87 17t85 -16q41 -17 68 -43q28 -27 45 -63q16 -35 16 -78q0 -39 -13 -71q-14 -34 -39 -56z" />
    <glyph glyph-name="agrave" unicode="&#xe0;" horiz-adv-x="558" 
d="M375 181l-1 -1q-10 17 -42 28q-30 10 -69 10q-53 0 -81 -16t-28 -45q0 -28 29 -45t81 -17q36 0 69 14q31 13 42 35v37zM69 429l-4 1q29 42 81 66t113 24q101 0 161 -51t60 -147v-321h-105v44q-9 -14 -25 -24q-16 -11 -36 -18q-20 -8 -40 -12q-19 -4 -42 -4q-42 0 -78 12
q-35 12 -61 33q-25 21 -39 51q-14 31 -14 69q0 42 16 71t44 51t63 32q38 11 77 11q44 0 78 -10q37 -11 53 -27v21q0 29 -10 48q-11 20 -27 32t-39 18t-48 6q-47 0 -87 -18q-41 -18 -63 -49zM274 739l67 -154h-91l-115 154h139z" />
    <glyph glyph-name="aacute" unicode="&#xe1;" horiz-adv-x="558" 
d="M375 181l-1 -1q-10 17 -42 28q-30 10 -69 10q-53 0 -81 -16t-28 -45q0 -28 29 -45t81 -17q36 0 69 14q31 13 42 35v37zM69 429l-4 1q29 42 81 66t113 24q101 0 161 -51t60 -147v-321h-105v44q-9 -14 -25 -24q-16 -11 -36 -18q-20 -8 -40 -12q-19 -4 -42 -4q-42 0 -78 12
q-35 12 -61 33q-25 21 -39 51q-14 31 -14 69q0 42 16 71t44 51t63 32q38 11 77 11q44 0 78 -10q37 -11 53 -27v21q0 29 -10 48q-11 20 -27 32t-39 18t-48 6q-47 0 -87 -18q-41 -18 -63 -49zM414 739l-115 -154h-91l67 154h139z" />
    <glyph glyph-name="acircumflex" unicode="&#xe2;" horiz-adv-x="558" 
d="M375 181l-1 -1q-10 17 -42 28q-30 10 -69 10q-53 0 -81 -16t-28 -45q0 -28 29 -45t81 -17q36 0 69 14q31 13 42 35v37zM69 429l-4 1q29 42 81 66t113 24q101 0 161 -51t60 -147v-321h-105v44q-9 -14 -25 -24q-16 -11 -36 -18q-20 -8 -40 -12q-19 -4 -42 -4q-42 0 -78 12
q-35 12 -61 33q-25 21 -39 51q-14 31 -14 69q0 42 16 71t44 51t63 32q38 11 77 11q44 0 78 -10q37 -11 53 -27v21q0 29 -10 48q-11 20 -27 32t-39 18t-48 6q-47 0 -87 -18q-41 -18 -63 -49zM340 739l80 -154h-87l-62 76l-62 -76h-87l80 154h138z" />
    <glyph glyph-name="atilde" unicode="&#xe3;" horiz-adv-x="558" 
d="M375 181l-1 -1q-10 17 -42 28q-30 10 -69 10q-53 0 -81 -16t-28 -45q0 -28 29 -45t81 -17q36 0 69 14q31 13 42 35v37zM69 429l-4 1q29 42 81 66t113 24q101 0 161 -51t60 -147v-321h-105v44q-9 -14 -25 -24q-16 -11 -36 -18q-20 -8 -40 -12q-19 -4 -42 -4q-42 0 -78 12
q-35 12 -61 33q-25 21 -39 51q-14 31 -14 69q0 42 16 71t44 51t63 32q38 11 77 11q44 0 78 -10q37 -11 53 -27v21q0 29 -10 48q-11 20 -27 32t-39 18t-48 6q-47 0 -87 -18q-41 -18 -63 -49zM208 640l1 -1q-13 0 -21 -7q-9 -8 -9 -21t4 -24h-68q-12 29 -12 54q0 41 27 65
t66 24q20 0 41 -8t38 -18q20 -12 34 -18q18 -8 30 -8q13 0 20 7q8 8 8 21t-4 24h68q12 -28 12 -53q0 -41 -27 -65t-66 -24q-21 0 -43 8q-21 8 -39 18t-33 18q-16 8 -27 8z" />
    <glyph glyph-name="adieresis" unicode="&#xe4;" horiz-adv-x="558" 
d="M375 181l-1 -1q-10 17 -42 28q-30 10 -69 10q-53 0 -81 -16t-28 -45q0 -28 29 -45t81 -17q36 0 69 14q31 13 42 35v37zM69 429l-4 1q29 42 81 66t113 24q101 0 161 -51t60 -147v-321h-105v44q-9 -14 -25 -24q-16 -11 -36 -18q-20 -8 -40 -12q-19 -4 -42 -4q-42 0 -78 12
q-35 12 -61 33q-25 21 -39 51q-14 31 -14 69q0 42 16 71t44 51t63 32q38 11 77 11q44 0 78 -10q37 -11 53 -27v21q0 29 -10 48q-11 20 -27 32t-39 18t-48 6q-47 0 -87 -18q-41 -18 -63 -49zM100 659q0 31 21 52t51 21q31 0 52 -21t21 -52q0 -30 -21 -51t-52 -21
q-30 0 -51 21t-21 51zM298 659q0 31 21 52t52 21q30 0 51 -21t21 -52q0 -30 -21 -51t-51 -21q-31 0 -52 21t-21 51z" />
    <glyph glyph-name="aring" unicode="&#xe5;" horiz-adv-x="558" 
d="M375 181l-1 -1q-10 17 -42 28q-30 10 -69 10q-53 0 -81 -16t-28 -45q0 -28 29 -45t81 -17q36 0 69 14q31 13 42 35v37zM69 429l-4 1q29 42 81 66t113 24q101 0 161 -51t60 -147v-321h-105v44q-9 -14 -25 -24q-16 -11 -36 -18q-20 -8 -40 -12q-19 -4 -42 -4q-42 0 -78 12
q-35 12 -61 33q-25 21 -39 51q-14 31 -14 69q0 42 16 71t44 51t63 32q38 11 77 11q44 0 78 -10q37 -11 53 -27v21q0 29 -10 48q-11 20 -27 32t-39 18t-48 6q-47 0 -87 -18q-41 -18 -63 -49zM164 673l-1 -2q0 23 9 42t23 33t33 23q20 9 42 9t42 -9t34 -22q15 -13 24 -33
t9 -42t-9 -42t-24 -33q-14 -13 -34 -22t-42 -9t-42 9q-19 9 -33 23q-13 13 -22 33q-9 19 -9 42zM230 671l-1 -1q0 -16 12 -27q11 -10 29 -10q17 0 27 10q11 11 11 27t-11 27t-27 11q-17 0 -28 -10q-12 -10 -12 -27z" />
    <glyph glyph-name="ae" unicode="&#xe6;" horiz-adv-x="912" 
d="M262 520l1 -3q61 0 108 -19q49 -20 77 -57q30 33 77 55q45 21 102 21q55 0 100 -21q46 -21 77 -57q32 -36 48 -84q17 -49 17 -101q0 -23 -3 -41h-382q7 -58 50 -87q41 -28 107 -28q51 0 92 18t66 49l32 -85q-11 -22 -30 -38q-21 -18 -45 -29t-55 -19q-28 -7 -61 -7
q-65 0 -119 23q-53 23 -89 66q-24 -36 -72 -63t-114 -27q-42 0 -80 11q-35 10 -63 32q-27 21 -42 51t-15 71q0 42 16 71q17 31 43 51q28 22 63 32q38 11 78 11q44 0 78 -10q35 -10 52 -27v19q0 30 -11 52q-10 20 -29 33t-40 17q-25 5 -45 5q-48 0 -90 -17q-40 -16 -64 -48
l-28 91q14 20 34 36q23 18 46 29q25 12 54 18t59 6zM376 178l-2 -2q-10 17 -42 28q-30 10 -69 10q-53 0 -81 -16t-28 -45t30 -45q29 -16 81 -16q36 0 69 14q31 13 42 35v37zM752 306l-2 -1q-4 43 -41 69t-87 26q-26 0 -48 -6t-42 -18q-19 -11 -31 -30q-12 -18 -15 -40h266z
" />
    <glyph glyph-name="ccedilla" unicode="&#xe7;" horiz-adv-x="545" 
d="M327 -123l-4 -5q0 13 -10 20q-11 8 -27 8q-11 0 -17 -1q-9 -1 -18 -6l-18 36l17 59q-42 9 -81 32q-37 22 -66 56q-28 33 -45 77q-16 42 -16 96q0 59 21 109t57 84t84 54q47 19 101 19q67 0 117 -26q50 -25 69 -60l-30 -90q-19 24 -57 42t-83 18q-76 0 -123 -41
q-46 -40 -46 -108q0 -67 47 -109t123 -42q47 0 85 20q36 19 58 44l32 -90q-9 -17 -27 -32q-19 -16 -40 -27q-24 -13 -51 -20q-28 -7 -62 -9l-8 -30q45 -2 74 -22q30 -21 30 -60q0 -45 -33 -69t-83 -24q-34 0 -65 14q-29 13 -46 33l13 56q21 -17 45 -25q21 -7 45 -7
q38 0 38 26z" />
    <glyph glyph-name="egrave" unicode="&#xe8;" horiz-adv-x="586" 
d="M316 99l-2 -4q47 0 92 20q44 20 65 47l32 -85q-12 -20 -28 -35q-19 -17 -43 -30q-26 -14 -55 -21q-28 -7 -65 -7q-56 0 -106 18q-48 17 -85 53q-37 35 -56 84q-20 51 -20 111q0 54 18 102q18 47 51 85t80 59q46 21 105 21q55 0 100 -21q46 -21 77 -57q32 -36 48 -84
q17 -49 17 -101q0 -22 -3 -40h-382q8 -58 51 -87q43 -28 109 -28zM425 308h-4q-4 43 -41 69t-86 26q-27 0 -48 -7q-25 -8 -41 -19q-18 -12 -30 -30q-11 -17 -16 -39h266zM268 735l67 -154h-91l-115 154h139z" />
    <glyph glyph-name="eacute" unicode="&#xe9;" horiz-adv-x="586" 
d="M316 99l-2 -4q47 0 92 20q44 20 65 47l32 -85q-12 -20 -28 -35q-19 -17 -43 -30q-26 -14 -55 -21q-28 -7 -65 -7q-56 0 -106 18q-48 17 -85 53q-37 35 -56 84q-20 51 -20 111q0 54 18 102q18 47 51 85t80 59q46 21 105 21q55 0 100 -21q46 -21 77 -57q32 -36 48 -84
q17 -49 17 -101q0 -22 -3 -40h-382q8 -58 51 -87q43 -28 109 -28zM425 308h-4q-4 43 -41 69t-86 26q-27 0 -48 -7q-25 -8 -41 -19q-18 -12 -30 -30q-11 -17 -16 -39h266zM445 735l-115 -154h-91l67 154h139z" />
    <glyph glyph-name="ecircumflex" unicode="&#xea;" horiz-adv-x="586" 
d="M316 99l-2 -4q47 0 92 20q44 20 65 47l32 -85q-12 -20 -28 -35q-19 -17 -43 -30q-26 -14 -55 -21q-28 -7 -65 -7q-56 0 -106 18q-48 17 -85 53q-37 35 -56 84q-20 51 -20 111q0 54 18 102q18 47 51 85t80 59q46 21 105 21q55 0 100 -21q46 -21 77 -57q32 -36 48 -84
q17 -49 17 -101q0 -22 -3 -40h-382q8 -58 51 -87q43 -28 109 -28zM425 308h-4q-4 43 -41 69t-86 26q-27 0 -48 -7q-25 -8 -41 -19q-18 -12 -30 -30q-11 -17 -16 -39h266zM357 735l80 -154h-87l-62 76l-62 -76h-87l80 154h138z" />
    <glyph glyph-name="edieresis" unicode="&#xeb;" horiz-adv-x="586" 
d="M316 99l-2 -4q47 0 92 20q44 20 65 47l32 -85q-12 -20 -28 -35q-19 -17 -43 -30q-26 -14 -55 -21q-28 -7 -65 -7q-56 0 -106 18q-48 17 -85 53q-37 35 -56 84q-20 51 -20 111q0 54 18 102q18 47 51 85t80 59q46 21 105 21q55 0 100 -21q46 -21 77 -57q32 -36 48 -84
q17 -49 17 -101q0 -22 -3 -40h-382q8 -58 51 -87q43 -28 109 -28zM425 308h-4q-4 43 -41 69t-86 26q-27 0 -48 -7q-25 -8 -41 -19q-18 -12 -30 -30q-11 -17 -16 -39h266zM120 655q0 31 21 52t51 21q31 0 52 -21t21 -52q0 -30 -21 -51t-52 -21q-30 0 -51 21t-21 51zM318 655
q0 31 21 52t52 21q30 0 51 -21t21 -52q0 -30 -21 -51t-51 -21q-31 0 -52 21t-21 51z" />
    <glyph glyph-name="igrave" unicode="&#xec;" horiz-adv-x="265" 
d="M80 507h109v-507h-109v507zM115 739l67 -154h-91l-115 154h139z" />
    <glyph glyph-name="iacute" unicode="&#xed;" horiz-adv-x="265" 
d="M80 507h109v-507h-109v507zM294 739l-115 -154h-91l67 154h139z" />
    <glyph glyph-name="icircumflex" unicode="&#xee;" horiz-adv-x="265" 
d="M80 507h109v-507h-109v507zM202 739l80 -154h-87l-62 76l-62 -76h-87l80 154h138z" />
    <glyph glyph-name="idieresis" unicode="&#xef;" horiz-adv-x="265" 
d="M80 507h109v-507h-109v507zM-38 659q0 31 21 52t51 21q31 0 52 -21t21 -52q0 -30 -21 -51t-52 -21q-30 0 -51 21t-21 51zM160 659q0 31 21 52t52 21q30 0 51 -21t21 -52q0 -30 -21 -51t-51 -21q-31 0 -52 21t-21 51z" />
    <glyph glyph-name="eth" unicode="&#xf0;" horiz-adv-x="618" 
d="M350 684l105 44l38 -78l-97 -42l90 -132q32 -49 57 -106q26 -60 26 -124q0 -56 -19 -103q-19 -48 -55 -82q-36 -35 -84 -54q-49 -20 -105 -20q-54 0 -101 19t-84 53q-36 33 -57 80t-21 102q0 53 20 101q20 47 55 81q36 35 87 54q52 20 114 20h18q8 0 18 -2l-49 73
l-120 -52l-41 81l110 47l-55 84h122zM305 101l-3 -1q33 0 63 11q28 10 49 30q22 20 32 45q11 27 11 56q0 30 -11 57q-11 26 -31 45q-21 20 -49 30q-30 11 -63 11q-36 0 -63 -10q-28 -10 -49 -30q-20 -19 -31 -45q-11 -27 -11 -57q0 -29 11 -56q10 -25 32 -45q21 -19 50 -30
q30 -11 63 -11z" />
    <glyph glyph-name="ntilde" unicode="&#xf1;" horiz-adv-x="611" 
d="M322 520l-3 -1q41 0 79 -13t70 -42q32 -28 51 -72q20 -45 20 -103v-290h-109v278q0 61 -34 94t-84 33q-45 0 -81 -24t-44 -62v-318h-109v507h105v-54q10 28 47 48q35 19 92 19zM238 639l1 -1q-13 0 -21 -7q-9 -7 -9 -21q0 -13 4 -24h-68q-12 28 -12 54q0 41 27 65t66 24
q20 0 41 -8t38 -18q20 -12 34 -18q18 -8 30 -8q13 0 20 7q8 8 8 21t-4 24h68q12 -29 12 -53q0 -41 -27 -65t-66 -24q-21 0 -43 8q-21 7 -39 18t-33 18q-16 8 -27 8z" />
    <glyph glyph-name="ograve" unicode="&#xf2;" horiz-adv-x="614" 
d="M569 253l-2 -1q0 -56 -21 -106q-21 -49 -57 -85q-35 -35 -84 -55t-100 -20t-100 20q-47 19 -84 56q-36 36 -57 85q-21 50 -21 106q0 57 21 106t57 85q37 37 84 56q49 20 101 20t101 -20q47 -19 84 -56q36 -36 57 -85q21 -50 21 -106zM152 252v-1q0 -34 12 -61
q12 -28 33 -47q21 -20 49 -30q30 -11 60 -11t60 11q28 10 49 30q21 19 33 47q12 27 12 60q0 34 -12 63t-33 48q-21 20 -49 30q-30 11 -60 11t-60 -11q-28 -10 -49 -30q-21 -19 -33 -48t-12 -61zM291 737l67 -154h-91l-115 154h139z" />
    <glyph glyph-name="oacute" unicode="&#xf3;" horiz-adv-x="614" 
d="M569 253l-2 -1q0 -56 -21 -106q-21 -49 -57 -85q-35 -35 -84 -55t-100 -20t-100 20q-47 19 -84 56q-36 36 -57 85q-21 50 -21 106q0 57 21 106t57 85q37 37 84 56q49 20 101 20t101 -20q47 -19 84 -56q36 -36 57 -85q21 -50 21 -106zM152 252v-1q0 -34 12 -61
q12 -28 33 -47q21 -20 49 -30q30 -11 60 -11t60 11q28 10 49 30q21 19 33 47q12 27 12 60q0 34 -12 63t-33 48q-21 20 -49 30q-30 11 -60 11t-60 -11q-28 -10 -49 -30q-21 -19 -33 -48t-12 -61zM458 737l-115 -154h-91l67 154h139z" />
    <glyph glyph-name="ocircumflex" unicode="&#xf4;" horiz-adv-x="614" 
d="M569 253l-2 -1q0 -56 -21 -106q-21 -49 -57 -85q-35 -35 -84 -55t-100 -20t-100 20q-47 19 -84 56q-36 36 -57 85q-21 50 -21 106q0 57 21 106t57 85q37 37 84 56q49 20 101 20t101 -20q47 -19 84 -56q36 -36 57 -85q21 -50 21 -106zM152 252v-1q0 -34 12 -61
q12 -28 33 -47q21 -20 49 -30q30 -11 60 -11t60 11q28 10 49 30q21 19 33 47q12 27 12 60q0 34 -12 63t-33 48q-21 20 -49 30q-30 11 -60 11t-60 -11q-28 -10 -49 -30q-21 -19 -33 -48t-12 -61zM373 737l80 -154h-87l-62 76l-62 -76h-87l80 154h138z" />
    <glyph glyph-name="otilde" unicode="&#xf5;" horiz-adv-x="614" 
d="M569 253l-2 -1q0 -56 -21 -106q-21 -49 -57 -85q-35 -35 -84 -55t-100 -20t-100 20q-47 19 -84 56q-36 36 -57 85q-21 50 -21 106q0 57 21 106t57 85q37 37 84 56q49 20 101 20t101 -20q47 -19 84 -56q36 -36 57 -85q21 -50 21 -106zM152 252v-1q0 -34 12 -61
q12 -28 33 -47q21 -20 49 -30q30 -11 60 -11t60 11q28 10 49 30q21 19 33 47q12 27 12 60q0 34 -12 63t-33 48q-21 20 -49 30q-30 11 -60 11t-60 -11q-28 -10 -49 -30q-21 -19 -33 -48t-12 -61zM241 638l1 -1q-13 0 -21 -7q-9 -8 -9 -21t4 -24h-68q-12 29 -12 54q0 41 27 65
t66 24q20 0 41 -8t38 -18q20 -12 34 -18q18 -8 30 -8q13 0 20 7q8 8 8 21t-4 24h68q12 -29 12 -53q0 -41 -27 -65t-66 -24q-21 0 -43 8q-21 8 -39 18t-33 18q-16 8 -27 8z" />
    <glyph glyph-name="odieresis" unicode="&#xf6;" horiz-adv-x="614" 
d="M569 253l-2 -1q0 -56 -21 -106q-21 -49 -57 -85q-35 -35 -84 -55t-100 -20t-100 20q-47 19 -84 56q-36 36 -57 85q-21 50 -21 106q0 57 21 106t57 85q37 37 84 56q49 20 101 20t101 -20q47 -19 84 -56q36 -36 57 -85q21 -50 21 -106zM152 252v-1q0 -34 12 -61
q12 -28 33 -47q21 -20 49 -30q30 -11 60 -11t60 11q28 10 49 30q21 19 33 47q12 27 12 60q0 34 -12 63t-33 48q-21 20 -49 30q-30 11 -60 11t-60 -11q-28 -10 -49 -30q-21 -19 -33 -48t-12 -61zM133 657q0 31 21 52t51 21q31 0 52 -21t21 -52q0 -30 -21 -51t-52 -21
q-30 0 -51 21t-21 51zM331 657q0 31 21 52t52 21q30 0 51 -21t21 -52q0 -30 -21 -51t-51 -21q-31 0 -52 21t-21 51z" />
    <glyph glyph-name="divide" unicode="&#xf7;" horiz-adv-x="539" 
d="M55 347h429v-103h-429v103zM195 492l-2 -1q0 32 23 53q22 21 54 21q31 0 54 -23t23 -54q0 -32 -22 -54t-54 -22q-31 0 -54 24q-22 23 -22 56zM193 103l-2 -1q0 32 23 53q22 21 54 21q31 0 54 -23t23 -54q0 -32 -22 -54t-54 -22q-31 0 -54 24q-22 23 -22 56z" />
    <glyph glyph-name="oslash" unicode="&#xf8;" horiz-adv-x="623" 
d="M573 253h-3q0 -56 -21 -106q-21 -49 -57 -85q-35 -35 -84 -55t-100 -20q-71 0 -129 34l-29 -34h-135l86 102q-25 32 -40 75q-15 42 -15 90q0 56 21 106q21 49 57 85q37 37 84 56q49 20 101 20q35 0 68 -9q32 -9 62 -26l30 35h135l-87 -103q26 -34 41 -75q15 -42 15 -90z
M154 253l1 1q0 -44 20 -79l188 222q-27 10 -54 10q-33 0 -61 -12q-29 -12 -49 -31q-21 -20 -33 -48t-12 -63zM464 253l-1 1q0 45 -20 80l-189 -222q26 -9 54 -9q32 0 62 11q28 10 49 30q21 19 33 47q12 27 12 62z" />
    <glyph glyph-name="ugrave" unicode="&#xf9;" horiz-adv-x="608" 
d="M287 -13l-3 -1q-39 0 -79 14q-39 14 -69 42q-29 28 -49 72q-19 42 -19 104v290h109v-278q0 -61 33 -94t83 -33q45 0 81 24t44 62v318h109v-507h-105v54q-10 -28 -45 -48q-34 -19 -90 -19zM286 738l67 -154h-91l-115 154h139z" />
    <glyph glyph-name="uacute" unicode="&#xfa;" horiz-adv-x="608" 
d="M287 -13l-3 -1q-39 0 -79 14q-39 14 -69 42q-29 28 -49 72q-19 42 -19 104v290h109v-278q0 -61 33 -94t83 -33q45 0 81 24t44 62v318h109v-507h-105v54q-10 -28 -45 -48q-34 -19 -90 -19zM446 738l-115 -154h-91l67 154h139z" />
    <glyph glyph-name="ucircumflex" unicode="&#xfb;" horiz-adv-x="608" 
d="M287 -13l-3 -1q-39 0 -79 14q-39 14 -69 42q-29 28 -49 72q-19 42 -19 104v290h109v-278q0 -61 33 -94t83 -33q45 0 81 24t44 62v318h109v-507h-105v54q-10 -28 -45 -48q-34 -19 -90 -19zM370 738l80 -154h-87l-62 76l-62 -76h-87l80 154h138z" />
    <glyph glyph-name="udieresis" unicode="&#xfc;" horiz-adv-x="608" 
d="M287 -13l-3 -1q-39 0 -79 14q-39 14 -69 42q-29 28 -49 72q-19 42 -19 104v290h109v-278q0 -61 33 -94t83 -33q45 0 81 24t44 62v318h109v-507h-105v54q-10 -28 -45 -48q-34 -19 -90 -19zM129 658q0 31 21 52t51 21q31 0 52 -21t21 -52q0 -30 -21 -51t-52 -21
q-30 0 -51 21t-21 51zM327 658q0 31 21 52t52 21q30 0 51 -21t21 -52q0 -30 -21 -51t-51 -21q-31 0 -52 21t-21 51z" />
    <glyph glyph-name="yacute" unicode="&#xfd;" horiz-adv-x="565" 
d="M17 507h120l143 -343l144 343h121l-302 -720h-120l100 238zM427 739l-115 -154h-91l67 154h139z" />
    <glyph glyph-name="thorn" unicode="&#xfe;" horiz-adv-x="642" 
d="M597 253l-3 -1q0 -58 -21 -108t-57 -84q-36 -35 -82 -54q-45 -19 -97 -19q-59 0 -98 19q-41 20 -53 48v-267h-109v941h106v-275q14 29 55 48t99 19q54 0 99 -19q48 -20 83 -55q36 -36 57 -85t21 -108zM484 253l-2 2q0 68 -43 108q-44 41 -114 41q-25 0 -48 -6
q-25 -7 -41 -16q-19 -11 -32 -24t-19 -30v-150q6 -16 20 -30q13 -13 32 -24q16 -9 41 -16q22 -6 48 -6q70 0 114 41t44 110z" />
    <glyph glyph-name="ydieresis" unicode="&#xff;" horiz-adv-x="565" 
d="M17 507h120l143 -343l144 343h121l-302 -720h-120l100 238zM110 659q0 31 21 52t51 21q31 0 52 -21t21 -52q0 -30 -21 -51t-52 -21q-30 0 -51 21t-21 51zM308 659q0 31 21 52t52 21q30 0 51 -21t21 -52q0 -30 -21 -51t-51 -21q-31 0 -52 21t-21 51z" />
    <glyph glyph-name="Amacron" unicode="&#x100;" horiz-adv-x="692" 
d="M684 0h-119l-62 156h-312l-61 -156h-122l280 718h115zM238 276h218l-109 279zM499 887v-92h-306v92h306z" />
    <glyph glyph-name="amacron" unicode="&#x101;" horiz-adv-x="558" 
d="M375 181l-1 -1q-10 17 -42 28q-30 10 -69 10q-53 0 -81 -16t-28 -45q0 -28 29 -45t81 -17q36 0 69 14q31 13 42 35v37zM69 429l-4 1q29 42 81 66t113 24q101 0 161 -51t60 -147v-321h-105v44q-9 -14 -25 -24q-16 -11 -36 -18q-20 -8 -40 -12q-19 -4 -42 -4q-42 0 -78 12
q-35 12 -61 33q-25 21 -39 51q-14 31 -14 69q0 42 16 71t44 51t63 32q38 11 77 11q44 0 78 -10q37 -11 53 -27v21q0 29 -10 48q-11 20 -27 32t-39 18t-48 6q-47 0 -87 -18q-41 -18 -63 -49zM424 705v-93h-305v93h305z" />
    <glyph glyph-name="Abreve" unicode="&#x102;" horiz-adv-x="692" 
d="M684 0h-119l-62 156h-312l-61 -156h-122l280 718h115zM238 276h218l-109 279zM493 918q-2 -31 -13 -57q-12 -27 -31 -46t-47 -30t-57 -11t-57 11q-26 10 -46 30q-19 19 -31 46q-11 26 -13 57h92q1 -19 17 -33q14 -13 38 -13q23 0 39 13t18 33h91z" />
    <glyph glyph-name="abreve" unicode="&#x103;" horiz-adv-x="558" 
d="M375 181l-1 -1q-10 17 -42 28q-30 10 -69 10q-53 0 -81 -16t-28 -45q0 -28 29 -45t81 -17q36 0 69 14q31 13 42 35v37zM69 429l-4 1q29 42 81 66t113 24q101 0 161 -51t60 -147v-321h-105v44q-9 -14 -25 -24q-16 -11 -36 -18q-20 -8 -40 -12q-19 -4 -42 -4q-42 0 -78 12
q-35 12 -61 33q-25 21 -39 51q-14 31 -14 69q0 42 16 71t44 51t63 32q38 11 77 11q44 0 78 -10q37 -11 53 -27v21q0 29 -10 48q-11 20 -27 32t-39 18t-48 6q-47 0 -87 -18q-41 -18 -63 -49zM419 731q-2 -31 -13 -57q-12 -27 -31 -46t-47 -30t-57 -11t-57 11q-26 10 -46 30
q-19 19 -31 46q-11 26 -13 57h92q1 -19 17 -33q14 -13 38 -13q23 0 39 13q16 14 18 33h91z" />
    <glyph glyph-name="Aogonek" unicode="&#x104;" horiz-adv-x="692" 
d="M565 0l-60 154h-312l-61 -156h-122l280 718h115l281 -718q-8 -10 -22 -30q-12 -18 -12 -41q0 -22 14 -34t33 -12t27 7l13 -83q-7 -7 -24 -18q-16 -10 -44 -10q-55 0 -87 32q-31 31 -31 77q0 20 8 39q7 18 18 33q9 13 21 25q13 13 18 17h-53zM240 274h218l-109 279z" />
    <glyph glyph-name="aogonek" unicode="&#x105;" horiz-adv-x="558" 
d="M379 0l-2 43q-9 -14 -25 -24q-16 -11 -36 -18q-20 -8 -40 -12q-19 -4 -42 -4q-42 0 -78 12q-35 12 -61 33q-25 21 -39 51q-14 31 -14 69q0 42 16 71t44 51t63 32q38 11 77 11q44 0 78 -10q37 -11 53 -27v21q0 29 -10 48q-11 20 -27 32t-39 18t-48 6q-47 0 -87 -18
q-41 -18 -63 -49l-28 91q29 42 81 66t113 24q101 0 161 -51t60 -147v-321q-8 -10 -22 -30q-12 -18 -12 -41q0 -22 14 -34t33 -12t27 7l13 -83q-7 -7 -24 -18q-16 -10 -44 -10q-55 0 -87 32q-31 31 -31 77q0 20 8 39q7 18 18 33q9 13 21 25q13 13 18 17h-39zM373 180l-1 -1
q-10 17 -42 28q-30 10 -69 10q-53 0 -81 -16t-28 -45q0 -28 29 -45t81 -17q36 0 69 14q31 13 42 35v37z" />
    <glyph glyph-name="Cacute" unicode="&#x106;" horiz-adv-x="702" 
d="M669 119h-1q-31 -56 -102 -94q-70 -37 -170 -37q-72 0 -137 27t-114 76q-50 50 -78 118q-29 70 -29 152q0 83 29 153q29 69 78 117t114 75t137 27q50 0 90 -10q45 -11 77 -28q35 -18 60 -42t40 -49l-35 -101q-16 23 -39 42q-24 21 -51 35q-28 15 -63 24t-72 9
q-55 0 -102 -18t-79 -49q-33 -32 -51 -78t-18 -105t18 -105t51 -79t80 -51q46 -18 102 -18q82 0 141 33t90 78zM545 916l-115 -144h-93l67 144h141z" />
    <glyph glyph-name="cacute" unicode="&#x107;" horiz-adv-x="545" 
d="M500 76l-4 -3q-10 -18 -28 -34q-17 -15 -42 -28q-22 -11 -54 -19q-28 -7 -65 -7q-51 0 -100 20q-48 19 -84 54t-57 84t-21 109t21 109t57 84t84 54q47 19 101 19q67 0 117 -26q49 -26 69 -60l-30 -90q-20 24 -57 42t-83 18q-76 0 -123 -41q-46 -40 -46 -108
q0 -67 47 -109q46 -42 123 -42q47 0 85 20q36 19 58 44zM447 736l-115 -154h-91l67 154h139z" />
    <glyph glyph-name="Ccircumflex" unicode="&#x108;" horiz-adv-x="702" 
d="M669 119h-1q-31 -56 -102 -94q-70 -37 -170 -37q-72 0 -137 27t-114 76q-50 50 -78 118q-29 70 -29 152q0 83 29 153q29 69 78 117t114 75t137 27q50 0 90 -10q45 -11 77 -28q35 -18 60 -42t40 -49l-35 -101q-16 23 -39 42q-24 21 -51 35q-28 15 -63 24t-72 9
q-55 0 -102 -18t-79 -49q-33 -32 -51 -78t-18 -105t18 -105t51 -79t80 -51q46 -18 102 -18q82 0 141 33t90 78zM455 916l80 -144h-84l-62 66l-62 -66h-83l80 144h131z" />
    <glyph glyph-name="ccircumflex" unicode="&#x109;" horiz-adv-x="545" 
d="M500 76l-4 -3q-10 -18 -28 -34q-17 -15 -42 -28q-22 -11 -54 -19q-28 -7 -65 -7q-51 0 -100 20q-48 19 -84 54t-57 84t-21 109t21 109t57 84t84 54q47 19 101 19q67 0 117 -26q49 -26 69 -60l-30 -90q-20 24 -57 42t-83 18q-76 0 -123 -41q-46 -40 -46 -108
q0 -67 47 -109q46 -42 123 -42q47 0 85 20q36 19 58 44zM361 736l80 -154h-87l-62 76l-62 -76h-87l80 154h138z" />
    <glyph glyph-name="Cdotaccent" unicode="&#x10a;" horiz-adv-x="702" 
d="M669 119h-1q-31 -56 -102 -94q-70 -37 -170 -37q-72 0 -137 27t-114 76q-50 50 -78 118q-29 70 -29 152q0 83 29 153q29 69 78 117t114 75t137 27q50 0 90 -10q45 -11 77 -28q35 -18 60 -42t40 -49l-35 -101q-16 23 -39 42q-24 21 -51 35q-28 15 -63 24t-72 9
q-55 0 -102 -18t-79 -49q-33 -32 -51 -78t-18 -105t18 -105t51 -79t80 -51q46 -18 102 -18q82 0 141 33t90 78zM314 846q0 30 21 51t51 21t51 -21t21 -51q0 -29 -21 -50t-51 -21t-51 21t-21 50z" />
    <glyph glyph-name="cdotaccent" unicode="&#x10b;" horiz-adv-x="545" 
d="M500 76l-4 -3q-10 -18 -28 -34q-17 -15 -42 -28q-22 -11 -54 -19q-28 -7 -65 -7q-51 0 -100 20q-48 19 -84 54t-57 84t-21 109t21 109t57 84t84 54q47 19 101 19q67 0 117 -26q49 -26 69 -60l-30 -90q-20 24 -57 42t-83 18q-76 0 -123 -41q-46 -40 -46 -108
q0 -67 47 -109q46 -42 123 -42q47 0 85 20q36 19 58 44zM217 656q0 32 22 53q23 21 54 21t54 -21q22 -21 22 -53t-22 -53q-23 -21 -54 -21t-54 21q-22 21 -22 53z" />
    <glyph glyph-name="Ccaron" unicode="&#x10c;" horiz-adv-x="702" 
d="M669 119h-1q-31 -56 -102 -94q-70 -37 -170 -37q-72 0 -137 27t-114 76q-50 50 -78 118q-29 70 -29 152q0 83 29 153q29 69 78 117t114 75t137 27q50 0 90 -10q45 -11 77 -28q35 -18 60 -42t40 -49l-35 -101q-16 23 -39 42q-24 21 -51 35q-28 15 -63 24t-72 9
q-55 0 -102 -18t-79 -49q-33 -32 -51 -78t-18 -105t18 -105t51 -79t80 -51q46 -18 102 -18q82 0 141 33t90 78zM324 772l-80 144h83l62 -67l62 67h84l-80 -144h-131z" />
    <glyph glyph-name="ccaron" unicode="&#x10d;" horiz-adv-x="545" 
d="M500 76l-4 -3q-10 -18 -28 -34q-17 -15 -42 -28q-22 -11 -54 -19q-28 -7 -65 -7q-51 0 -100 20q-48 19 -84 54t-57 84t-21 109t21 109t57 84t84 54q47 19 101 19q67 0 117 -26q49 -26 69 -60l-30 -90q-20 24 -57 42t-83 18q-76 0 -123 -41q-46 -40 -46 -108
q0 -67 47 -109q46 -42 123 -42q47 0 85 20q36 19 58 44zM223 582l-80 154h87l62 -77l62 77h87l-80 -154h-138z" />
    <glyph glyph-name="Dcaron" unicode="&#x10e;" horiz-adv-x="736" 
d="M584 359h2q0 49 -18 93t-49 75q-32 32 -75 50q-44 18 -96 18h-147v-474h147q48 0 93 17q43 16 75 48t50 75t18 98zM313 718v-3q85 0 155 -24q71 -24 122 -69q52 -46 80 -112q29 -69 29 -153q0 -85 -30 -151q-30 -65 -81 -112q-50 -45 -122 -70q-70 -24 -153 -24h-224v718
h224zM281 769l-80 144h83l62 -67l62 67h84l-80 -144h-131z" />
    <glyph glyph-name="dcaron" unicode="&#x10f;" horiz-adv-x="770" 
d="M45 253h-2q0 59 21 108t57 85q35 35 83 55t98 20q59 0 98 -19q40 -20 54 -48v275h109v-728h-105v53q-12 -28 -54 -48q-41 -19 -99 -19q-51 0 -99 20q-47 20 -83 54q-36 35 -57 84t-21 108zM152 252l-2 2q0 -67 44 -108q43 -40 116 -40q50 0 89 21q38 21 52 53v150
q-14 33 -52 54q-39 21 -89 21q-72 0 -115 -42t-43 -111zM693 606l-2 -1q-15 4 -31 20q-15 15 -15 41q0 28 21 48q20 19 51 19q30 0 50 -20t20 -48q0 -23 -9 -42q-6 -13 -20 -39l-46 -78h-68z" />
    <glyph glyph-name="Dcroat" unicode="&#x110;" horiz-adv-x="751" 
d="M7 430l95 -3v288h224q84 0 155 -24t122 -69q52 -46 80 -112q29 -69 29 -153q0 -85 -30 -151q-30 -65 -81 -112q-50 -45 -122 -70q-71 -24 -153 -24h-224v308h-95v122zM599 356h2q0 50 -18 93q-18 44 -49 75q-32 32 -75 50t-96 18h-147v-166h168v-122h-168v-186h147
q48 0 93 17q44 17 75 48q32 32 50 75q18 44 18 98z" />
    <glyph glyph-name="dcroat" unicode="&#x111;" horiz-adv-x="645" 
d="M45 250l-2 -3q0 59 21 108t57 84q36 34 83 54q45 19 98 19q58 0 98 -18t54 -47v118h-148v93h148v69h109v-69h78v-93h-78v-566h-105v52q-12 -28 -54 -46t-99 -18q-54 0 -99 19q-47 20 -83 54t-57 83q-21 48 -21 107zM152 246h-2q0 -68 44 -107q43 -39 116 -39q50 0 89 21
q38 21 52 53v146q-14 33 -52 54q-39 21 -89 21q-72 0 -115 -40t-43 -109z" />
    <glyph glyph-name="Emacron" unicode="&#x112;" horiz-adv-x="537" 
d="M87 718h390v-122h-277v-166h247v-122h-247v-186h277v-122h-390v718zM436 887v-92h-306v92h306z" />
    <glyph glyph-name="emacron" unicode="&#x113;" horiz-adv-x="586" 
d="M316 99l-2 -4q47 0 92 20q44 20 65 47l32 -85q-12 -20 -28 -35q-19 -17 -43 -30q-26 -14 -55 -21q-28 -7 -65 -7q-56 0 -106 18q-48 17 -85 53q-37 35 -56 84q-20 51 -20 111q0 54 18 102q18 47 51 85t80 59q46 21 105 21q55 0 100 -21q46 -21 77 -57q32 -36 48 -84
q17 -49 17 -101q0 -22 -3 -40h-382q8 -58 51 -87q43 -28 109 -28zM425 308h-4q-4 43 -41 69t-86 26q-27 0 -48 -7q-25 -8 -41 -19q-18 -12 -30 -30q-11 -17 -16 -39h266zM441 701v-93h-305v93h305z" />
    <glyph glyph-name="Ebreve" unicode="&#x114;" horiz-adv-x="537" 
d="M87 718h390v-122h-277v-166h247v-122h-247v-186h277v-122h-390v718zM431 918q-2 -31 -13 -57q-12 -27 -31 -46t-47 -30t-57 -11t-57 11q-26 10 -46 30q-19 19 -31 46q-11 26 -13 57h92q1 -19 17 -33q14 -13 38 -13q23 0 39 13t18 33h91z" />
    <glyph glyph-name="ebreve" unicode="&#x115;" horiz-adv-x="586" 
d="M316 99l-2 -4q47 0 92 20q44 20 65 47l32 -85q-12 -20 -28 -35q-19 -17 -43 -30q-26 -14 -55 -21q-28 -7 -65 -7q-56 0 -106 18q-48 17 -85 53q-37 35 -56 84q-20 51 -20 111q0 54 18 102q18 47 51 85t80 59q46 21 105 21q55 0 100 -21q46 -21 77 -57q32 -36 48 -84
q17 -49 17 -101q0 -22 -3 -40h-382q8 -58 51 -87q43 -28 109 -28zM425 308h-4q-4 43 -41 69t-86 26q-27 0 -48 -7q-25 -8 -41 -19q-18 -12 -30 -30q-11 -17 -16 -39h266zM436 727q-2 -31 -13 -57q-12 -27 -31 -46t-47 -30t-57 -11t-57 11q-26 10 -46 30q-19 19 -31 46
q-11 26 -13 57h92q1 -19 17 -33q14 -13 38 -13q23 0 39 13q17 14 18 33h91z" />
    <glyph glyph-name="Edotaccent" unicode="&#x116;" horiz-adv-x="537" 
d="M87 718h390v-122h-277v-166h247v-122h-247v-186h277v-122h-390v718zM211 846q0 30 21 51t51 21t51 -21t21 -51q0 -29 -21 -50t-51 -21t-51 21t-21 50z" />
    <glyph glyph-name="edotaccent" unicode="&#x117;" horiz-adv-x="586" 
d="M316 99l-2 -4q47 0 92 20q44 20 65 47l32 -85q-12 -20 -28 -35q-19 -17 -43 -30q-26 -14 -55 -21q-28 -7 -65 -7q-56 0 -106 18q-48 17 -85 53q-37 35 -56 84q-20 51 -20 111q0 54 18 102q18 47 51 85t80 59q46 21 105 21q55 0 100 -21q46 -21 77 -57q32 -36 48 -84
q17 -49 17 -101q0 -22 -3 -40h-382q8 -58 51 -87q43 -28 109 -28zM425 308h-4q-4 43 -41 69t-86 26q-27 0 -48 -7q-25 -8 -41 -19q-18 -12 -30 -30q-11 -17 -16 -39h266zM212 655q0 32 22 53t54 21t54 -21t22 -53t-22 -53t-54 -21t-54 21t-22 53z" />
    <glyph glyph-name="Eogonek" unicode="&#x118;" horiz-adv-x="537" 
d="M87 718l392 -2v-122h-277v-166h247v-122h-247v-186h277v-122q-8 -10 -22 -30q-12 -18 -12 -41q0 -22 14 -34q13 -12 33 -12q19 0 27 7l13 -83q-8 -7 -24 -18q-16 -10 -44 -10q-55 0 -87 32q-31 31 -31 77q0 20 8 39q8 18 18 33q9 13 21 25q13 13 18 17h-324v718z" />
    <glyph glyph-name="eogonek" unicode="&#x119;" horiz-adv-x="586" 
d="M316 99l-2 -6q47 0 92 20q44 20 65 47l32 -85q-9 -14 -27 -40q-13 -19 -13 -46q0 -20 14 -32q13 -12 33 -12q19 0 27 7l13 -83q-8 -7 -24 -18q-16 -10 -44 -10q-55 0 -87 32q-31 31 -31 77q0 19 8 40q-27 -6 -60 -6q-56 0 -106 18q-48 17 -85 53q-37 35 -56 84
q-20 51 -20 111q0 54 18 102q18 47 51 85t80 59q46 21 105 21q55 0 100 -21q46 -21 77 -57q32 -36 48 -84q17 -49 17 -101q0 -22 -3 -40h-382q8 -58 51 -87q43 -28 109 -28zM425 306h-4q-4 43 -41 69t-86 26q-27 0 -48 -7q-25 -8 -41 -19q-18 -12 -30 -30q-11 -17 -16 -39
h266z" />
    <glyph glyph-name="Ecaron" unicode="&#x11a;" horiz-adv-x="537" 
d="M87 718h390v-122h-277v-166h247v-122h-247v-186h277v-122h-390v718zM218 772l-80 144h83l62 -67l62 67h84l-80 -144h-131z" />
    <glyph glyph-name="ecaron" unicode="&#x11b;" horiz-adv-x="586" 
d="M316 99l-2 -4q47 0 92 20q44 20 65 47l32 -85q-12 -20 -28 -35q-19 -17 -43 -30q-26 -14 -55 -21q-28 -7 -65 -7q-56 0 -106 18q-48 17 -85 53q-37 35 -56 84q-20 51 -20 111q0 54 18 102q18 47 51 85t80 59q46 21 105 21q55 0 100 -21q46 -21 77 -57q32 -36 48 -84
q17 -49 17 -101q0 -22 -3 -40h-382q8 -58 51 -87q43 -28 109 -28zM425 308h-4q-4 43 -41 69t-86 26q-27 0 -48 -7q-25 -8 -41 -19q-18 -12 -30 -30q-11 -17 -16 -39h266zM219 581l-80 154h87l62 -77l62 77h87l-80 -154h-138z" />
    <glyph glyph-name="Gcircumflex" unicode="&#x11c;" horiz-adv-x="741" 
d="M396 731l-1 -2q46 0 90 -11q41 -10 77 -29q34 -18 60 -42t41 -50l-35 -101q-16 22 -39 42q-24 21 -51 35q-28 15 -63 24t-72 9q-55 0 -102 -18q-46 -18 -79 -51t-51 -79t-18 -103q0 -59 18 -105t53 -78q34 -32 81 -48q48 -17 104 -17q51 0 92 15q40 15 72 44v92h-170v119
h281v-247q-19 -31 -46 -57t-66 -46q-35 -18 -81 -31q-43 -12 -93 -12q-72 0 -137 27t-114 76t-79 118t-30 152q0 84 30 153t79 118t114 76t135 27zM457 914l80 -144h-84l-62 66l-62 -66h-83l80 144h131z" />
    <glyph glyph-name="gcircumflex" unicode="&#x11d;" horiz-adv-x="632" 
d="M36 260l3 -2q0 58 21 106q20 46 56 82q34 34 81 54q45 19 99 19q58 0 99 -19q42 -20 54 -48v53h105v-508q0 -51 -18 -93q-18 -43 -49 -72q-30 -29 -77 -46q-44 -16 -101 -16q-35 0 -70 8q-34 8 -62 21q-27 13 -51 32q-22 18 -36 39l32 99q28 -34 75 -58t100 -24
q25 0 51 6t48 21t36 41t14 68v44q-14 -29 -54 -48q-39 -19 -99 -19q-52 0 -97 19q-46 19 -82 54t-57 82q-21 48 -21 105zM148 259l-2 1q0 -66 44 -105q43 -39 116 -39q50 0 89 21t52 52v140q-14 33 -52 53q-39 21 -89 21q-72 0 -115 -39t-43 -105zM384 738l80 -154h-87
l-62 76l-62 -76h-87l80 154h138z" />
    <glyph glyph-name="Gbreve" unicode="&#x11e;" horiz-adv-x="741" 
d="M396 731l-1 -2q46 0 90 -11q41 -10 77 -29q34 -18 60 -42t41 -50l-35 -101q-16 22 -39 42q-24 21 -51 35q-28 15 -63 24t-72 9q-55 0 -102 -18q-46 -18 -79 -51t-51 -79t-18 -103q0 -59 18 -105t53 -78q34 -32 81 -48q48 -17 104 -17q51 0 92 15q40 15 72 44v92h-170v119
h281v-247q-19 -31 -46 -57t-66 -46q-35 -18 -81 -31q-43 -12 -93 -12q-72 0 -137 27t-114 76t-79 118t-30 152q0 84 30 153t79 118t114 76t135 27zM537 916q-2 -31 -13 -57q-12 -27 -31 -46t-47 -30t-57 -11t-57 11q-26 10 -46 30q-19 19 -31 46q-11 26 -13 57h92
q1 -19 17 -33q14 -13 38 -13q23 0 39 13t18 33h91z" />
    <glyph glyph-name="gbreve" unicode="&#x11f;" horiz-adv-x="632" 
d="M36 260l3 -2q0 58 21 106q20 46 56 82q34 34 81 54q45 19 99 19q58 0 99 -19q42 -20 54 -48v53h105v-508q0 -51 -18 -93q-18 -43 -49 -72q-30 -29 -77 -46q-44 -16 -101 -16q-35 0 -70 8q-34 8 -62 21q-27 13 -51 32q-22 18 -36 39l32 99q28 -34 75 -58t100 -24
q25 0 51 6t48 21t36 41t14 68v44q-14 -29 -54 -48q-39 -19 -99 -19q-52 0 -97 19q-46 19 -82 54t-57 82q-21 48 -21 105zM148 259l-2 1q0 -66 44 -105q43 -39 116 -39q50 0 89 21t52 52v140q-14 33 -52 53q-39 21 -89 21q-72 0 -115 -39t-43 -105zM463 730q-2 -31 -13 -57
q-12 -27 -31 -46t-47 -30t-57 -11t-57 11q-26 10 -46 30q-19 19 -31 46q-11 26 -13 57h92q1 -19 17 -33q14 -13 38 -13q23 0 39 13t18 33h91z" />
    <glyph glyph-name="Gdotaccent" unicode="&#x120;" horiz-adv-x="741" 
d="M396 731l-1 -2q46 0 90 -11q41 -10 77 -29q34 -18 60 -42t41 -50l-35 -101q-16 22 -39 42q-24 21 -51 35q-28 15 -63 24t-72 9q-55 0 -102 -18q-46 -18 -79 -51t-51 -79t-18 -103q0 -59 18 -105t53 -78q34 -32 81 -48q48 -17 104 -17q51 0 92 15q40 15 72 44v92h-170v119
h281v-247q-19 -31 -46 -57t-66 -46q-35 -18 -81 -31q-43 -12 -93 -12q-72 0 -137 27t-114 76t-79 118t-30 152q0 84 30 153t79 118t114 76t135 27zM314 844q0 30 21 51t51 21t51 -21t21 -51q0 -29 -21 -50t-51 -21t-51 21t-21 50z" />
    <glyph glyph-name="gdotaccent" unicode="&#x121;" horiz-adv-x="632" 
d="M36 260l3 -2q0 58 21 106q20 46 56 82q34 34 81 54q45 19 99 19q58 0 99 -19q42 -20 54 -48v53h105v-508q0 -51 -18 -93q-18 -43 -49 -72q-30 -29 -77 -46q-44 -16 -101 -16q-35 0 -70 8q-34 8 -62 21q-27 13 -51 32q-22 18 -36 39l32 99q28 -34 75 -58t100 -24
q25 0 51 6t48 21t36 41t14 68v44q-14 -29 -54 -48q-39 -19 -99 -19q-52 0 -97 19q-46 19 -82 54t-57 82q-21 48 -21 105zM148 259l-2 1q0 -66 44 -105q43 -39 116 -39q50 0 89 21t52 52v140q-14 33 -52 53q-39 21 -89 21q-72 0 -115 -39t-43 -105zM240 658q0 32 22 53t54 21
t54 -21t22 -53t-22 -53t-54 -21t-54 21t-22 53z" />
    <glyph glyph-name="uni0122" unicode="&#x122;" horiz-adv-x="741" 
d="M396 731l-1 -2q46 0 90 -11q41 -10 77 -29q34 -18 60 -42t41 -50l-35 -101q-16 22 -39 42q-24 21 -51 35q-28 15 -63 24t-72 9q-55 0 -102 -18q-46 -18 -79 -51t-51 -79t-18 -103q0 -59 18 -105t53 -78q34 -32 81 -48q48 -17 104 -17q51 0 92 15q40 15 72 44v92h-170v119
h281v-247q-19 -31 -46 -57t-66 -46q-35 -18 -81 -31q-43 -12 -93 -12q-72 0 -137 27t-114 76t-79 118t-30 152q0 84 30 153t79 118t114 76t135 27zM372 -187l-2 -1q-15 4 -31 20q-15 15 -15 41q0 29 21 48q20 19 51 19q30 0 50 -20t20 -48q0 -22 -9 -42q-6 -13 -20 -39
l-46 -78h-68z" />
    <glyph glyph-name="uni0123" unicode="&#x123;" horiz-adv-x="632" 
d="M36 260l3 -2q0 58 21 106q20 46 56 82q34 34 81 54q45 19 99 19q58 0 99 -19q42 -20 54 -48v53h105v-508q0 -51 -18 -93q-18 -43 -49 -72q-30 -29 -77 -46q-44 -16 -101 -16q-35 0 -70 8q-34 8 -62 21q-27 13 -51 32q-22 18 -36 39l32 99q28 -34 75 -58t100 -24
q25 0 51 6t48 21t36 41t14 68v44q-14 -29 -54 -48q-39 -19 -99 -19q-52 0 -97 19q-46 19 -82 54t-57 82q-21 48 -21 105zM148 259l-2 1q0 -66 44 -105q43 -39 116 -39q50 0 89 21t52 52v140q-14 33 -52 53q-39 21 -89 21q-72 0 -115 -39t-43 -105zM332 710v-1q17 -5 31 -19
q15 -15 15 -40q0 -28 -21 -48q-20 -19 -51 -19q-29 0 -49 20q-19 19 -19 48q0 23 9 42q6 13 20 39l46 78h68z" />
    <glyph glyph-name="Hcircumflex" unicode="&#x124;" horiz-adv-x="761" 
d="M87 718h113v-288h361v288h113v-718h-113v308h-361v-308h-113v718zM446 916l80 -144h-84l-62 66l-62 -66h-83l80 144h131z" />
    <glyph glyph-name="hcircumflex" unicode="&#x125;" horiz-adv-x="611" 
d="M188 0l-110 -1v728h109v-275q10 28 44 48q32 19 89 19q41 0 79 -13t70 -42q31 -28 51 -72q20 -45 20 -103v-290h-109v278q0 61 -34 94q-35 33 -84 33q-45 0 -81 -24t-44 -62v-318zM378 930l80 -154h-87l-62 76l-62 -76h-87l80 154h138z" />
    <glyph glyph-name="Hbar" unicode="&#x126;" horiz-adv-x="801" 
d="M12 619h95v99h113v-99h361v99h113v-99h94v-96h-94v-523h-113v308h-361v-308h-113v523h-95v96zM581 430v93h-361v-93h361z" />
    <glyph glyph-name="hbar" unicode="&#x127;" horiz-adv-x="614" 
d="M435 0l-1 251q0 61 -34 94t-84 33q-45 0 -81 -24t-44 -62v-292h-109v560h-78v101h78v67h109v-67h148v-101h-148v-133q10 28 44 48q32 19 89 19q41 0 79 -13t70 -42q31 -29 51 -72q20 -45 20 -103v-264h-109z" />
    <glyph glyph-name="Itilde" unicode="&#x128;" horiz-adv-x="287" 
d="M87 718h113v-718h-113v718zM81 827l1 -1q-13 0 -21 -7q-9 -7 -9 -21q0 -13 4 -24h-68q-12 28 -12 54q0 41 27 65t66 24q20 0 41 -8t38 -18q20 -12 34 -18q18 -8 30 -8q13 0 20 7q8 8 8 21t-4 24h68q12 -28 12 -53q0 -41 -27 -65t-66 -24q-21 0 -43 8q-21 7 -39 18t-33 18
q-16 8 -27 8z" />
    <glyph glyph-name="itilde" unicode="&#x129;" horiz-adv-x="265" 
d="M80 507h109v-507h-109v507zM70 640l1 -1q-13 0 -21 -7q-9 -8 -9 -21t4 -24h-68q-12 29 -12 54q0 41 27 65t66 24q20 0 41 -8t38 -18q20 -12 34 -18q18 -8 30 -8q13 0 20 7q8 8 8 21t-4 24h68q12 -28 12 -53q0 -41 -27 -65t-66 -24q-21 0 -43 8q-21 8 -39 18t-33 18
q-16 8 -27 8z" />
    <glyph glyph-name="Imacron" unicode="&#x12a;" horiz-adv-x="287" 
d="M87 718h113v-718h-113v718zM297 887v-92h-306v92h306z" />
    <glyph glyph-name="imacron" unicode="&#x12b;" horiz-adv-x="265" 
d="M80 507h109v-507h-109v507zM286 705v-93h-305v93h305z" />
    <glyph glyph-name="Ibreve" unicode="&#x12c;" horiz-adv-x="287" 
d="M87 718h113v-718h-113v718zM292 918q-2 -31 -13 -57q-12 -27 -31 -46t-47 -30t-57 -11t-57 11q-26 10 -46 30q-19 19 -31 46q-11 26 -13 57h92q1 -19 17 -33q14 -13 38 -13q23 0 39 13q17 13 18 33h91z" />
    <glyph glyph-name="ibreve" unicode="&#x12d;" horiz-adv-x="265" 
d="M80 507h109v-507h-109v507zM281 731q-2 -31 -13 -57q-12 -27 -31 -46t-47 -30t-57 -11t-57 11q-26 10 -46 30q-19 19 -31 46q-11 26 -13 57h92q1 -19 17 -33q14 -13 38 -13q23 0 39 13q16 14 18 33h91z" />
    <glyph glyph-name="Iogonek" unicode="&#x12e;" horiz-adv-x="287" 
d="M87 718l115 -2v-718q-8 -10 -22 -30q-12 -18 -12 -41q0 -22 14 -34t33 -12t27 7l13 -83q-7 -7 -24 -18q-16 -10 -44 -10q-55 0 -87 32q-31 31 -31 77q0 20 8 39q7 18 18 33q9 13 21 25q13 13 18 17h-47v718z" />
    <glyph glyph-name="iogonek" unicode="&#x12f;" horiz-adv-x="267" 
d="M79 507l111 -2v-507q-8 -10 -22 -30q-12 -18 -12 -41q0 -22 14 -34t33 -12t27 7l13 -83q-7 -7 -24 -18q-16 -10 -44 -10q-55 0 -87 32q-31 31 -31 77q0 20 8 39q7 18 18 33q9 13 21 25q13 13 18 17h-43v507zM60 665q0 32 22 54t54 22t54 -22t22 -54t-22 -54t-54 -22
t-54 22t-22 54z" />
    <glyph glyph-name="Idotaccent" unicode="&#x130;" horiz-adv-x="287" 
d="M87 718h113v-718h-113v718zM72 846q0 30 21 51t51 21t51 -21t21 -51q0 -29 -21 -50t-51 -21t-51 21t-21 50z" />
    <glyph glyph-name="dotlessi" unicode="&#x131;" horiz-adv-x="268" 
d="M80 507h109v-507h-109v507z" />
    <glyph glyph-name="IJ" unicode="&#x132;" horiz-adv-x="552" 
d="M87 718h113v-431h-113v431zM469 204v1q0 -101 -54 -159t-167 -58q-56 0 -99 21t-63 50l10 115q32 -32 70 -48t83 -16q46 0 77 26q30 26 30 87v495h113v-514z" />
    <glyph glyph-name="ij" unicode="&#x133;" horiz-adv-x="539" 
d="M79 507h109v-507h-109v507zM58 667q0 32 22 54t54 22t54 -22t22 -54t-22 -54t-54 -22t-54 22t-22 54zM351 507h107v-568q0 -165 -128 -165q-21 0 -50 8q-27 8 -48 27l10 101q10 -10 26 -15q17 -5 28 -5q31 0 43 18t12 56v543zM328 667q0 32 22 54t54 22t54 -22t22 -54
t-22 -54t-54 -22t-54 22t-22 54z" />
    <glyph glyph-name="Jcircumflex" unicode="&#x134;" horiz-adv-x="416" 
d="M334 182h-2q0 -93 -43 -143q-43 -51 -133 -51q-23 0 -44 6t-39 15q-19 10 -32 21q-13 12 -21 26l12 108q22 -23 50 -39q27 -15 62 -15t56 21t21 75v512h113v-536zM341 916l80 -144h-84l-62 66l-62 -66h-83l80 144h131z" />
    <glyph glyph-name="jcircumflex" unicode="&#x135;" horiz-adv-x="273" 
d="M85 507h107v-568q0 -165 -128 -165q-21 0 -50 8q-27 8 -48 27l10 101q10 -10 26 -15q17 -5 28 -5q31 0 43 18t12 56v543zM206 734l80 -154h-87l-62 76l-62 -76h-87l80 154h138z" />
    <glyph glyph-name="uni0136" unicode="&#x136;" horiz-adv-x="653" 
d="M87 718h113v-294l267 294h146l-312 -345l348 -373h-156l-293 311v-311h-113v718zM317 -185l-2 -1q-15 4 -31 20q-15 15 -15 41q0 29 21 48q20 19 51 19q30 0 50 -20t20 -48q0 -22 -9 -42q-6 -13 -20 -39l-46 -78h-68z" />
    <glyph glyph-name="uni0137" unicode="&#x137;" horiz-adv-x="567" 
d="M79 728h109v-418l203 197h144l-242 -238l269 -269h-151l-223 222v-222h-109v728zM276 -185l-2 -1q-15 4 -31 20q-15 15 -15 41q0 29 21 48q20 19 51 19q30 0 50 -20t20 -48q0 -22 -9 -42q-6 -13 -20 -39l-46 -78h-68z" />
    <glyph glyph-name="kgreenlandic" unicode="&#x138;" horiz-adv-x="567" 
d="M79 507h109v-203l205 203h144l-243 -244l268 -263h-153l-221 216v-216h-109v507z" />
    <glyph glyph-name="Lacute" unicode="&#x139;" horiz-adv-x="481" 
d="M87 718h113v-596h261v-122h-374v718zM305 916l-115 -144h-93l67 144h141z" />
    <glyph glyph-name="lacute" unicode="&#x13a;" horiz-adv-x="266" 
d="M75 728h109v-728h-109v728zM289 916l-115 -144h-93l67 144h141z" />
    <glyph glyph-name="uni013B" unicode="&#x13b;" horiz-adv-x="481" 
d="M87 718h113v-596h261v-122h-374v718zM254 -185l-2 -1q-15 4 -31 20q-15 15 -15 41q0 29 21 48q20 19 51 19q30 0 50 -20t20 -48q0 -22 -9 -42q-6 -13 -20 -39l-46 -78h-68z" />
    <glyph glyph-name="uni013C" unicode="&#x13c;" horiz-adv-x="267" 
d="M79 728h109v-728h-109v728zM109 -185l-2 -1q-15 4 -31 20q-15 15 -15 41q0 29 21 48q20 19 51 19q30 0 50 -20t20 -48q0 -22 -9 -42q-6 -13 -20 -39l-46 -78h-68z" />
    <glyph glyph-name="Lcaron" unicode="&#x13d;" horiz-adv-x="498" 
d="M87 718h113v-596h261v-122h-374v718zM350 604l-2 -1q-15 4 -31 20q-15 15 -15 41q0 28 21 48q20 19 51 19q30 0 50 -20t20 -48q0 -23 -9 -42q-6 -13 -20 -39l-46 -78h-68z" />
    <glyph glyph-name="lcaron" unicode="&#x13e;" horiz-adv-x="395" 
d="M79 728h109v-728h-109v728zM322 604l-2 -1q-15 4 -31 20q-15 15 -15 41q0 28 21 48q20 19 51 19q30 0 50 -20t20 -48q0 -23 -9 -42q-6 -13 -20 -39l-46 -78h-68z" />
    <glyph glyph-name="Ldot" unicode="&#x13f;" horiz-adv-x="518" 
d="M87 718h113v-596h261v-122h-374v718zM315 389q0 30 21 51t51 21t51 -21t21 -51q0 -29 -21 -50t-51 -21t-51 21t-21 50z" />
    <glyph glyph-name="ldot" unicode="&#x140;" horiz-adv-x="426" 
d="M79 728h109v-728h-109v728zM265 362q0 32 22 53q23 21 54 21t54 -21q22 -21 22 -53t-22 -53q-23 -21 -54 -21t-54 21q-22 21 -22 53z" />
    <glyph glyph-name="Lslash" unicode="&#x141;" horiz-adv-x="502" 
d="M108 246l-101 -56v122l101 56v350h113v-288l182 101v-122l-182 -101v-187h261v-121h-374v246z" />
    <glyph glyph-name="lslash" unicode="&#x142;" horiz-adv-x="371" 
d="M131 297l-93 -51v122l93 51v309h109v-249l93 51v-122l-93 -51v-357h-109v297z" />
    <glyph glyph-name="Nacute" unicode="&#x143;" horiz-adv-x="762" 
d="M87 718h117l358 -526v526h113v-718h-117l-358 522v-522h-113v718zM526 916l-115 -144h-93l67 144h141z" />
    <glyph glyph-name="nacute" unicode="&#x144;" horiz-adv-x="611" 
d="M322 520l-3 -1q41 0 79 -13t70 -42q32 -28 51 -72q20 -45 20 -103v-290h-109v278q0 61 -34 94t-84 33q-45 0 -81 -24t-44 -62v-318h-109v507h105v-54q10 28 47 48q35 19 92 19zM460 738l-115 -154h-91l67 154h139z" />
    <glyph glyph-name="uni0145" unicode="&#x145;" horiz-adv-x="762" 
d="M87 718h117l358 -526v526h113v-718h-117l-358 522v-522h-113v718zM356 -185l-2 -1q-15 4 -31 20q-15 15 -15 41q0 29 21 48q20 19 51 19q30 0 50 -20t20 -48q0 -22 -9 -42q-6 -13 -20 -39l-46 -78h-68z" />
    <glyph glyph-name="uni0146" unicode="&#x146;" horiz-adv-x="611" 
d="M322 520l-3 -1q41 0 79 -13t70 -42q32 -28 51 -72q20 -45 20 -103v-290h-109v278q0 61 -34 94t-84 33q-45 0 -81 -24t-44 -62v-318h-109v507h105v-54q10 28 47 48q35 19 92 19zM283 -186l-2 -1q-15 4 -31 20q-15 15 -15 41q0 28 21 48q20 19 51 19q30 0 50 -20t20 -48
q0 -23 -9 -42q-6 -13 -20 -39l-46 -78h-68z" />
    <glyph glyph-name="Ncaron" unicode="&#x147;" horiz-adv-x="762" 
d="M87 718h117l358 -526v526h113v-718h-117l-358 522v-522h-113v718zM315 772l-80 144h83l62 -67l62 67h84l-80 -144h-131z" />
    <glyph glyph-name="ncaron" unicode="&#x148;" horiz-adv-x="611" 
d="M322 520l-3 -1q41 0 79 -13t70 -42q32 -28 51 -72q20 -45 20 -103v-290h-109v278q0 61 -34 94t-84 33q-45 0 -81 -24t-44 -62v-318h-109v507h105v-54q10 28 47 48q35 19 92 19zM238 584l-80 154h87l62 -77l62 77h87l-80 -154h-138z" />
    <glyph glyph-name="napostrophe" unicode="&#x149;" horiz-adv-x="611" 
d="M322 520l-3 -1q41 0 79 -13t70 -42q32 -28 51 -72q20 -45 20 -103v-290h-109v278q0 61 -34 94t-84 33q-45 0 -81 -24t-44 -62v-318h-109v507h105v-54q10 28 47 48q35 19 92 19zM117 654l-2 -1q-15 4 -31 20q-15 15 -15 41q0 28 21 48q20 19 51 19q30 0 50 -20t20 -48
q0 -23 -9 -42q-6 -13 -20 -39l-46 -78h-68z" />
    <glyph glyph-name="Eng" unicode="&#x14a;" horiz-adv-x="762" 
d="M87 718h115l358 -521v521h113v-749q0 -93 -43 -143q-44 -51 -133 -51q-23 0 -44 6t-39 15q-19 10 -32 21q-13 12 -21 26l12 108q22 -23 50 -39q27 -15 62 -15t56 21t21 75v7l-362 522v-522h-113v718z" />
    <glyph glyph-name="eng" unicode="&#x14b;" horiz-adv-x="611" 
d="M432 278l-5 -1q0 61 -34 94q-35 33 -84 33q-45 0 -81 -24t-44 -62v-318h-109v507h105v-54q10 28 47 48q35 19 92 19q41 0 79 -13t70 -42t51 -72q20 -45 20 -103v-351q0 -165 -128 -165q-21 0 -50 8q-27 8 -48 27l10 101q10 -10 26 -15q17 -5 28 -5q31 0 43 18t12 56v314z
" />
    <glyph glyph-name="Omacron" unicode="&#x14c;" horiz-adv-x="803" 
d="M401 731h-2q75 0 140 -28q67 -29 116 -78t79 -118t30 -148t-30 -147t-79 -117q-50 -50 -115 -78t-139 -28q-73 0 -140 29t-116 78t-79 117q-30 67 -30 147t30 147q30 68 79 117t116 78t140 29zM400 609l-3 -2q-53 0 -98 -18q-44 -18 -79 -51t-54 -79q-19 -45 -19 -102
t19 -101q20 -45 54 -78t80 -51q45 -18 98 -18t98 18t78 51q34 34 53 79t19 102t-19 102q-19 47 -52 79q-33 33 -78 51t-97 18zM549 885v-92h-306v92h306z" />
    <glyph glyph-name="omacron" unicode="&#x14d;" horiz-adv-x="614" 
d="M569 253l-2 -1q0 -56 -21 -106q-21 -49 -57 -85q-35 -35 -84 -55t-100 -20t-100 20q-47 19 -84 56q-36 36 -57 85q-21 50 -21 106q0 57 21 106t57 85q37 37 84 56q49 20 101 20t101 -20q47 -19 84 -56q36 -36 57 -85q21 -50 21 -106zM152 252v-1q0 -34 12 -61
q12 -28 33 -47q21 -20 49 -30q30 -11 60 -11t60 11q28 10 49 30q21 19 33 47q12 27 12 60q0 34 -12 63t-33 48q-21 20 -49 30q-30 11 -60 11t-60 -11q-28 -10 -49 -30q-21 -19 -33 -48t-12 -61zM457 703v-93h-305v93h305z" />
    <glyph glyph-name="Obreve" unicode="&#x14e;" horiz-adv-x="803" 
d="M401 731h-2q75 0 140 -28q67 -29 116 -78t79 -118t30 -148t-30 -147t-79 -117q-50 -50 -115 -78t-139 -28q-73 0 -140 29t-116 78t-79 117q-30 67 -30 147t30 147q30 68 79 117t116 78t140 29zM400 609l-3 -2q-53 0 -98 -18q-44 -18 -79 -51t-54 -79q-19 -45 -19 -102
t19 -101q20 -45 54 -78t80 -51q45 -18 98 -18t98 18t78 51q34 34 53 79t19 102t-19 102q-19 47 -52 79q-33 33 -78 51t-97 18zM543 916q-2 -31 -13 -57q-12 -27 -31 -46t-47 -30t-57 -11t-57 11q-26 10 -46 30q-19 19 -31 46q-11 26 -13 57h92q1 -19 17 -33q14 -13 38 -13
q23 0 39 13t18 33h91z" />
    <glyph glyph-name="obreve" unicode="&#x14f;" horiz-adv-x="614" 
d="M569 253l-2 -1q0 -56 -21 -106q-21 -49 -57 -85q-35 -35 -84 -55t-100 -20t-100 20q-47 19 -84 56q-36 36 -57 85q-21 50 -21 106q0 57 21 106t57 85q37 37 84 56q49 20 101 20t101 -20q47 -19 84 -56q36 -36 57 -85q21 -50 21 -106zM152 252v-1q0 -34 12 -61
q12 -28 33 -47q21 -20 49 -30q30 -11 60 -11t60 11q28 10 49 30q21 19 33 47q12 27 12 60q0 34 -12 63t-33 48q-21 20 -49 30q-30 11 -60 11t-60 -11q-28 -10 -49 -30q-21 -19 -33 -48t-12 -61zM452 729q-2 -31 -13 -57q-12 -27 -31 -46t-47 -30t-57 -11t-57 11
q-26 10 -46 30q-19 19 -31 46q-11 26 -13 57h92q1 -19 17 -33q14 -13 38 -13q23 0 39 13q17 14 18 33h91z" />
    <glyph glyph-name="Ohungarumlaut" unicode="&#x150;" horiz-adv-x="803" 
d="M401 731h-2q75 0 140 -28q67 -29 116 -78t79 -118t30 -148t-30 -147t-79 -117q-50 -50 -115 -78t-139 -28q-73 0 -140 29t-116 78t-79 117q-30 67 -30 147t30 147q30 68 79 117t116 78t140 29zM400 609l-3 -2q-53 0 -98 -18q-44 -18 -79 -51t-54 -79q-19 -45 -19 -102
t19 -101q20 -45 54 -78t80 -51q45 -18 98 -18t98 18t78 51q34 34 53 79t19 102t-19 102q-19 47 -52 79q-33 33 -78 51t-97 18zM446 919l-115 -149h-83l67 149h131zM632 919l-115 -149h-83l67 149h131z" />
    <glyph glyph-name="ohungarumlaut" unicode="&#x151;" horiz-adv-x="614" 
d="M569 253l-2 -1q0 -56 -21 -106q-21 -49 -57 -85q-35 -35 -84 -55t-100 -20t-100 20q-47 19 -84 56q-36 36 -57 85q-21 50 -21 106q0 57 21 106t57 85q37 37 84 56q49 20 101 20t101 -20q47 -19 84 -56q36 -36 57 -85q21 -50 21 -106zM152 252v-1q0 -34 12 -61
q12 -28 33 -47q21 -20 49 -30q30 -11 60 -11t60 11q28 10 49 30q21 19 33 47q12 27 12 60q0 34 -12 63t-33 48q-21 20 -49 30q-30 11 -60 11t-60 -11q-28 -10 -49 -30q-21 -19 -33 -48t-12 -61zM361 737l-115 -154h-83l67 154h131zM547 737l-115 -154h-83l67 154h131z" />
    <glyph glyph-name="OE" unicode="&#x152;" horiz-adv-x="1100" 
d="M401 731q71 0 135 -27t114 -75v88h390v-122h-277v-166h242v-122h-242v-186h277v-122h-390v87q-47 -46 -111 -73q-63 -27 -135 -27q-77 0 -144 29q-66 29 -116 80q-49 51 -78 119q-28 66 -28 146q0 78 29 147q29 67 78 117q49 49 116 78t140 29zM402 609l-3 -2
q-53 0 -98 -18q-44 -18 -79 -51t-54 -79q-19 -45 -19 -102t19 -101q20 -45 54 -78t80 -51q45 -18 98 -18t98 18t78 51q34 34 53 79t19 102t-19 102q-19 47 -52 79q-33 33 -78 51t-97 18z" />
    <glyph glyph-name="oe" unicode="&#x153;" horiz-adv-x="996" 
d="M722 -13l-2 -4q-66 0 -123 26q-55 25 -90 71q-37 -44 -90 -70q-51 -25 -112 -25q-51 0 -100 20q-47 19 -84 56q-36 36 -57 85q-21 50 -21 106t21 106q21 49 57 85q37 37 84 56q49 20 101 20q60 0 113 -27t89 -72q33 45 84 72t117 27q55 0 100 -21q46 -21 77 -57
q32 -36 48 -84q17 -49 17 -101q0 -23 -3 -41h-382q7 -58 50 -87q41 -28 107 -28q42 0 88 17t71 48l32 -85q-13 -23 -31 -38q-21 -18 -45 -29t-55 -19q-28 -7 -61 -7zM152 249v-1q0 -34 12 -61q12 -28 33 -47q21 -20 49 -30q30 -11 60 -11t60 11q28 10 49 30q21 19 33 47
q12 27 12 60q0 35 -12 63t-33 48t-49 30q-30 11 -60 11t-60 -11q-28 -10 -49 -30t-33 -48t-12 -61zM836 306l-4 -1q-4 43 -41 69t-87 26q-26 0 -48 -6q-23 -6 -41 -18t-30 -30t-15 -40h266z" />
    <glyph glyph-name="Racute" unicode="&#x154;" horiz-adv-x="567" 
d="M87 718l207 -1q40 0 79 -12q37 -11 70 -38q33 -26 50 -64q18 -39 18 -91q0 -75 -39 -126q-39 -50 -105 -70l169 -316h-128l-163 303h-45v-303h-113v718zM201 595l-1 -177h109q37 0 63 24q25 24 25 64q0 38 -24 63q-24 26 -63 26h-109zM422 915l-115 -144h-93l67 144h141z
" />
    <glyph glyph-name="racute" unicode="&#x155;" horiz-adv-x="405" 
d="M366 381l1 1q-11 8 -30 16q-17 7 -40 7q-22 0 -43 -8q-20 -7 -33 -21q-12 -12 -22 -30q-9 -16 -12 -33v-313h-109v507h105v-67q12 38 41 59t74 21q28 0 51 -12t33 -28zM178 586l67 154h139l-115 -154h-91z" />
    <glyph glyph-name="uni0156" unicode="&#x156;" horiz-adv-x="567" 
d="M87 718l207 -1q40 0 79 -12q37 -11 70 -38q33 -26 50 -64q18 -39 18 -91q0 -75 -39 -126q-39 -50 -105 -70l169 -316h-128l-163 303h-45v-303h-113v718zM201 595l-1 -177h109q37 0 63 24q25 24 25 64q0 38 -24 63q-24 26 -63 26h-109zM280 -186l-2 -1q-15 4 -31 20
q-15 15 -15 41q0 28 21 48q20 19 51 19q30 0 50 -20t20 -48q0 -23 -9 -42q-6 -13 -20 -39l-46 -78h-68z" />
    <glyph glyph-name="uni0157" unicode="&#x157;" horiz-adv-x="400" 
d="M362 381l1 1q-11 8 -30 16q-17 7 -40 7q-22 0 -43 -8q-20 -7 -33 -21q-12 -12 -22 -30q-9 -16 -12 -33v-313h-109v507h105v-67q12 38 41 59t74 21q28 0 51 -12t33 -28zM105 -184l-2 -1q-15 4 -31 20q-15 15 -15 41q0 28 21 48q20 19 51 19q30 0 50 -20t20 -48
q0 -23 -9 -42q-6 -13 -20 -39l-46 -78h-68z" />
    <glyph glyph-name="Rcaron" unicode="&#x158;" horiz-adv-x="567" 
d="M87 718l207 -1q40 0 79 -12q37 -11 70 -38q33 -26 50 -64q18 -39 18 -91q0 -75 -39 -126q-39 -50 -105 -70l169 -316h-128l-163 303h-45v-303h-113v718zM201 595l-1 -177h109q37 0 63 24q25 24 25 64q0 38 -24 63q-24 26 -63 26h-109zM214 771l-80 144h83l62 -67l62 67
h84l-80 -144h-131z" />
    <glyph glyph-name="rcaron" unicode="&#x159;" horiz-adv-x="405" 
d="M366 381l1 1q-11 8 -30 16q-17 7 -40 7q-22 0 -43 -8q-20 -7 -33 -21q-12 -12 -22 -30q-9 -16 -12 -33v-313h-109v507h105v-67q12 38 41 59t74 21q28 0 51 -12t33 -28zM159 586l-80 154h87l62 -77l62 77h87l-80 -154h-138z" />
    <glyph glyph-name="Sacute" unicode="&#x15a;" horiz-adv-x="496" 
d="M361 365l1 -3q44 -38 71 -80t27 -101q0 -44 -15 -80q-15 -37 -42 -62t-66 -39q-40 -14 -86 -14q-35 0 -73 11q-34 10 -66 29q-30 18 -51 39t-30 44l34 110q32 -50 83 -80t107 -30q43 0 66 19q24 20 24 54q0 26 -15 47q-16 22 -40 42q-17 14 -50.5 41t-47.5 39
q-41 33 -68 62q-31 33 -50 66q-20 35 -20 79q0 40 15 72q15 31 41 54q25 22 60 34q34 12 75 12q30 0 60 -8q29 -8 53 -21q25 -14 42 -31q20 -20 29 -37l-23 -109q-28 40 -74 63q-44 22 -88 22q-14 0 -27 -3t-24 -9t-18 -16t-7 -25q0 -22 18 -42q16 -18 35 -33q30 -26 50 -41
q34 -26 38 -30q24 -20 29 -24q16 -14 23 -21zM389 913l-115 -144h-93l67 144h141z" />
    <glyph glyph-name="sacute" unicode="&#x15b;" horiz-adv-x="433" 
d="M169 229l-3 -1q-115 58 -115 147q0 29 11 56q10 25 32 45q21 20 51 30q31 11 67 11q26 0 50 -6q27 -7 44 -16q18 -10 34 -24t23 -27l-20 -97q-29 29 -63 42q-36 14 -66 14q-23 0 -37 -7q-15 -8 -15 -24q0 -17 12 -26q11 -8 35 -21l52 -28q61 -31 93 -66q31 -34 31 -90
q0 -33 -12 -61t-36 -49t-57 -33t-74 -12q-58 0 -103 27q-46 27 -65 63l29 93q21 -27 59 -49q36 -21 87 -21q26 0 45 10q20 11 20 33q0 20 -16 33q-18 15 -45 29zM356 738l-115 -154h-91l67 154h139z" />
    <glyph glyph-name="Scircumflex" unicode="&#x15c;" horiz-adv-x="496" 
d="M361 365l1 -3q44 -38 71 -80t27 -101q0 -44 -15 -80q-15 -37 -42 -62t-66 -39q-40 -14 -86 -14q-35 0 -73 11q-34 10 -66 29q-30 18 -51 39t-30 44l34 110q32 -50 83 -80t107 -30q43 0 66 19q24 20 24 54q0 26 -15 47q-16 22 -40 42q-17 14 -50.5 41t-47.5 39
q-41 33 -68 62q-31 33 -50 66q-20 35 -20 79q0 40 15 72q15 31 41 54q25 22 60 34q34 12 75 12q30 0 60 -8q29 -8 53 -21q25 -14 42 -31q20 -20 29 -37l-23 -109q-28 40 -74 63q-44 22 -88 22q-14 0 -27 -3t-24 -9t-18 -16t-7 -25q0 -22 18 -42q16 -18 35 -33q30 -26 50 -41
q34 -26 38 -30q24 -20 29 -24q16 -14 23 -21zM314 913l80 -144h-84l-62 66l-62 -66h-83l80 144h131z" />
    <glyph glyph-name="scircumflex" unicode="&#x15d;" horiz-adv-x="433" 
d="M169 229l-3 -1q-115 58 -115 147q0 29 11 56q10 25 32 45q21 20 51 30q31 11 67 11q26 0 50 -6q27 -7 44 -16q18 -10 34 -24t23 -27l-20 -97q-29 29 -63 42q-36 14 -66 14q-23 0 -37 -7q-15 -8 -15 -24q0 -17 12 -26q11 -8 35 -21l52 -28q61 -31 93 -66q31 -34 31 -90
q0 -33 -12 -61t-36 -49t-57 -33t-74 -12q-58 0 -103 27q-46 27 -65 63l29 93q21 -27 59 -49q36 -21 87 -21q26 0 45 10q20 11 20 33q0 20 -16 33q-18 15 -45 29zM279 738l80 -154h-87l-62 76l-62 -76h-87l80 154h138z" />
    <glyph glyph-name="Scedilla" unicode="&#x15e;" horiz-adv-x="496" 
d="M272 -123v-4q0 13 -10 20q-11 8 -27 8q-11 0 -17 -1q-9 -2 -18 -6l-18 36l17 58q-31 6 -58 18q-30 13 -50 28q-21 15 -39 35q-16 18 -24 36l34 110q32 -50 83 -80t107 -30q43 0 66 19q24 20 24 54q0 26 -15 47q-16 22 -40 42q-17 14 -50.5 41t-47.5 39q-41 33 -68 62
q-31 33 -50 66q-20 35 -20 79q0 40 15 72q15 31 41 54q25 22 60 34t75 12q30 0 60 -8q29 -8 53 -21q25 -14 42 -31q20 -20 29 -37l-23 -109q-28 40 -74 63q-44 22 -88 22q-13 0 -27 -3t-24 -9q-11 -6 -18 -16t-7 -25q0 -22 18 -42q16 -18 35 -33q30 -26 50 -41
q34 -26 38 -30q24 -20 29 -24q16 -14 23 -21q44 -38 71 -80t27 -101q0 -40 -14 -76q-14 -34 -39 -60q-25 -25 -61 -40t-79 -18l-9 -31q45 -2 74 -22q30 -21 30 -60q0 -45 -33 -69t-83 -24q-34 0 -65 14q-29 13 -46 33l13 56q21 -17 45 -25q21 -7 45 -7q38 0 38 26z" />
    <glyph glyph-name="scedilla" unicode="&#x15f;" horiz-adv-x="433" 
d="M243 -123l-4 -3q0 13 -10 20q-11 8 -27 8q-11 0 -17 -1q-9 -1 -18 -6l-18 36l16 57q-43 7 -79 32q-34 24 -51 54l29 93q21 -27 59 -49q36 -21 87 -21q26 0 45 10q20 11 20 33q0 20 -16 33q-18 15 -45 29l-48 25q-115 58 -115 147q0 29 11 56q10 25 32 45q21 19 51 30
q31 11 67 11q26 0 50 -6q27 -7 44 -16q18 -10 34 -24t23 -27l-20 -97q-29 28 -63 42q-36 14 -66 14q-23 0 -37 -7q-15 -7 -15 -24t12 -26q11 -8 35 -21l52 -28q61 -32 93 -66q31 -34 31 -90q0 -62 -40 -103q-41 -43 -111 -50l-9 -32q45 -2 74 -22q30 -21 30 -60
q0 -45 -33 -69t-83 -24q-34 0 -65 14q-29 13 -46 33l13 56q21 -17 45 -25q21 -7 45 -7q38 0 38 26z" />
    <glyph glyph-name="Scaron" unicode="&#x160;" horiz-adv-x="496" 
d="M361 365l1 -3q44 -38 71 -80t27 -101q0 -44 -15 -80q-15 -37 -42 -62t-66 -39q-40 -14 -86 -14q-35 0 -73 11q-34 10 -66 29q-30 18 -51 39t-30 44l34 110q32 -50 83 -80t107 -30q43 0 66 19q24 20 24 54q0 26 -15 47q-16 22 -40 42q-17 14 -50.5 41t-47.5 39
q-41 33 -68 62q-31 33 -50 66q-20 35 -20 79q0 40 15 72q15 31 41 54q25 22 60 34q34 12 75 12q30 0 60 -8q29 -8 53 -21q25 -14 42 -31q20 -20 29 -37l-23 -109q-28 40 -74 63q-44 22 -88 22q-14 0 -27 -3t-24 -9t-18 -16t-7 -25q0 -22 18 -42q16 -18 35 -33q30 -26 50 -41
q34 -26 38 -30q24 -20 29 -24q16 -14 23 -21zM183 769l-80 144h83l62 -67l62 67h84l-80 -144h-131z" />
    <glyph glyph-name="scaron" unicode="&#x161;" horiz-adv-x="433" 
d="M169 229l-3 -1q-115 58 -115 147q0 29 11 56q10 25 32 45q21 20 51 30q31 11 67 11q26 0 50 -6q27 -7 44 -16q18 -10 34 -24t23 -27l-20 -97q-29 29 -63 42q-36 14 -66 14q-23 0 -37 -7q-15 -8 -15 -24q0 -17 12 -26q11 -8 35 -21l52 -28q61 -31 93 -66q31 -34 31 -90
q0 -33 -12 -61t-36 -49t-57 -33t-74 -12q-58 0 -103 27q-46 27 -65 63l29 93q21 -27 59 -49q36 -21 87 -21q26 0 45 10q20 11 20 33q0 20 -16 33q-18 15 -45 29zM140 584l-80 154h87l62 -77l62 77h87l-80 -154h-138z" />
    <glyph glyph-name="uni0162" unicode="&#x162;" horiz-adv-x="577" 
d="M325 -123l-2 -2q0 13 -10 20q-11 8 -27 8q-11 0 -17 -1q-9 -2 -18 -6l-18 36l19 66h-22v598h-218v120h549v-120h-218v-598h-24l-12 -43q45 -2 74 -22q30 -21 30 -60q0 -45 -33 -69t-83 -24q-34 0 -65 14q-29 13 -46 33l13 56q21 -17 45 -25q21 -7 45 -7q38 0 38 26z" />
    <glyph glyph-name="uni0163" unicode="&#x163;" horiz-adv-x="449" 
d="M290 -123l-1 -4q0 13 -10 20q-11 8 -27 8q-11 0 -17 -1q-9 -2 -18 -6l-18 36l18 61q-101 29 -101 165v232h-89v35l165 209h33v-128h169v-116h-169v-210q0 -42 20 -60q19 -18 54 -18q25 0 44 11q17 10 34 27l23 -93q-16 -25 -48 -42t-72 -18l-8 -30q45 -2 74 -22
q30 -21 30 -60q0 -45 -33 -69t-83 -24q-34 0 -65 14q-29 13 -46 33l13 56q21 -17 45 -25q21 -7 45 -7q38 0 38 26z" />
    <glyph glyph-name="Tcaron" unicode="&#x164;" horiz-adv-x="577" 
d="M14 718h549v-120h-218v-598h-113v598h-218v120zM223 772l-80 144h83l62 -67l62 67h84l-80 -144h-131z" />
    <glyph glyph-name="tcaron" unicode="&#x165;" 
d="M401 48h-2q-16 -25 -48 -43q-31 -18 -72 -18q-84 0 -123 43q-39 44 -39 129v232h-89v35l165 209h33v-128h169v-116h-169v-210q0 -42 20 -60t54 -18q25 0 44 11q17 10 34 27zM500 558l-2 -1q-15 4 -31 20q-15 15 -15 41q0 28 21 48q20 19 51 19q30 0 50 -20t20 -48
q0 -23 -9 -42q-6 -13 -20 -39l-46 -78h-68z" />
    <glyph glyph-name="Tbar" unicode="&#x166;" horiz-adv-x="577" 
d="M14 718h549v-120h-218v-169h126v-120h-126v-309h-113v309h-125v120h125v169h-218v120z" />
    <glyph glyph-name="tbar" unicode="&#x167;" horiz-adv-x="449" 
d="M401 48h-2q-16 -25 -48 -43q-31 -18 -72 -18q-84 0 -123 43q-39 44 -39 129v70h-89v102h89v60h-89v35l165 209h33v-128h169v-116h-169v-60h169v-102h-169v-48q0 -42 20 -60t54 -18q25 0 44 11q17 10 34 27z" />
    <glyph glyph-name="Utilde" unicode="&#x168;" horiz-adv-x="734" 
d="M367 109h2q79 0 125 48q47 49 47 129v432h113v-433q0 -67 -21 -123t-58 -94q-37 -39 -90 -60t-117 -21t-117 21t-90 60q-37 38 -58 94t-21 123v433h113v-432q0 -80 47 -129q46 -48 125 -48zM305 827l1 -1q-13 0 -21 -7q-9 -7 -9 -21q0 -13 4 -24h-68q-12 28 -12 54
q0 41 27 65t66 24q20 0 41 -8t38 -18q20 -12 34 -18q18 -8 30 -8q13 0 20 7q8 8 8 21t-4 24h68q12 -28 12 -53q0 -41 -27 -65t-66 -24q-21 0 -43 8q-21 7 -39 18t-33 18q-16 8 -27 8z" />
    <glyph glyph-name="utilde" unicode="&#x169;" horiz-adv-x="608" 
d="M287 -13l-3 -1q-39 0 -79 14q-39 14 -69 42q-29 28 -49 72q-19 42 -19 104v290h109v-278q0 -61 33 -94t83 -33q45 0 81 24t44 62v318h109v-507h-105v54q-10 -28 -45 -48q-34 -19 -90 -19zM237 639l1 -1q-13 0 -21 -7q-9 -7 -9 -21q0 -13 4 -24h-68q-12 28 -12 54
q0 41 27 65t66 24q20 0 41 -8t38 -18q20 -12 34 -18q18 -8 30 -8q13 0 20 7q8 8 8 21t-4 24h68q12 -29 12 -53q0 -41 -27 -65t-66 -24q-21 0 -43 8q-21 7 -39 18t-33 18q-16 8 -27 8z" />
    <glyph glyph-name="Umacron" unicode="&#x16a;" horiz-adv-x="734" 
d="M367 109h2q79 0 125 48q47 49 47 129v432h113v-433q0 -67 -21 -123t-58 -94q-37 -39 -90 -60t-117 -21t-117 21t-90 60q-37 38 -58 94t-21 123v433h113v-432q0 -80 47 -129q46 -48 125 -48zM521 887v-92h-306v92h306z" />
    <glyph glyph-name="umacron" unicode="&#x16b;" horiz-adv-x="608" 
d="M287 -13l-3 -1q-39 0 -79 14q-39 14 -69 42q-29 28 -49 72q-19 42 -19 104v290h109v-278q0 -61 33 -94t83 -33q45 0 81 24t44 62v318h109v-507h-105v54q-10 -28 -45 -48q-34 -19 -90 -19zM453 704v-93h-305v93h305z" />
    <glyph glyph-name="Ubreve" unicode="&#x16c;" horiz-adv-x="734" 
d="M367 109h2q79 0 125 48q47 49 47 129v432h113v-433q0 -67 -21 -123t-58 -94q-37 -39 -90 -60t-117 -21t-117 21t-90 60q-37 38 -58 94t-21 123v433h113v-432q0 -80 47 -129q46 -48 125 -48zM516 918q-2 -31 -13 -57q-12 -27 -31 -46t-47 -30t-57 -11t-57 11
q-26 10 -46 30q-19 19 -31 46q-11 26 -13 57h92q1 -19 17 -33q14 -13 38 -13q23 0 39 13q17 13 18 33h91z" />
    <glyph glyph-name="ubreve" unicode="&#x16d;" horiz-adv-x="608" 
d="M287 -13l-3 -1q-39 0 -79 14q-39 14 -69 42q-29 28 -49 72q-19 42 -19 104v290h109v-278q0 -61 33 -94t83 -33q45 0 81 24t44 62v318h109v-507h-105v54q-10 -28 -45 -48q-34 -19 -90 -19zM444 730q-2 -31 -13 -57q-12 -27 -31 -46t-47 -30t-57 -11t-57 11q-26 10 -46 30
q-19 19 -31 46q-11 26 -13 57h92q1 -19 17 -33q14 -13 38 -13q23 0 39 13q17 13 18 33h91z" />
    <glyph glyph-name="Uring" unicode="&#x16e;" horiz-adv-x="734" 
d="M367 109h2q79 0 125 48q47 49 47 129v432h113v-433q0 -67 -21 -123t-58 -94q-37 -39 -90 -60t-117 -21t-117 21t-90 60q-37 38 -58 94t-21 123v433h113v-432q0 -80 47 -129q46 -48 125 -48zM261 856l-1 -2q0 22 9 42q9 19 23 33t33 23t42 9t42 -9q20 -9 34 -22
q15 -14 24 -33t9 -42t-9 -42t-24 -33q-14 -13 -34 -22q-19 -9 -42 -9t-42 9t-33 23q-13 13 -22 33t-9 42zM327 854l-1 -1q0 -17 12 -27q11 -10 29 -10q16 0 27 11t11 27t-11 27q-10 10 -27 10t-28 -10q-12 -11 -12 -27z" />
    <glyph glyph-name="uring" unicode="&#x16f;" horiz-adv-x="608" 
d="M287 -13l-3 -1q-39 0 -79 14q-39 14 -69 42q-29 28 -49 72q-19 42 -19 104v290h109v-278q0 -61 33 -94t83 -33q45 0 81 24t44 62v318h109v-507h-105v54q-10 -28 -45 -48q-34 -19 -90 -19zM194 672l-1 -2q0 22 9 42q9 19 23 33t33 23q20 9 42 9t42 -9t34 -22
q15 -14 24 -33t9 -42t-9 -42t-24 -33q-14 -13 -34 -22t-42 -9t-42 9q-19 9 -33 23q-13 13 -22 33t-9 42zM260 670l-1 -1q0 -17 12 -27q11 -10 29 -10q17 0 27 10q11 11 11 27t-11 27t-27 11q-17 0 -28 -10q-12 -11 -12 -27z" />
    <glyph glyph-name="Uhungarumlaut" unicode="&#x170;" horiz-adv-x="734" 
d="M367 109h2q79 0 125 48q47 49 47 129v432h113v-433q0 -67 -21 -123t-58 -94q-37 -39 -90 -60t-117 -21t-117 21t-90 60q-37 38 -58 94t-21 123v433h113v-432q0 -80 47 -129q46 -48 125 -48zM409 921l-115 -149h-83l67 149h131zM595 921l-115 -149h-83l67 149h131z" />
    <glyph glyph-name="uhungarumlaut" unicode="&#x171;" horiz-adv-x="608" 
d="M287 -13l-3 -1q-39 0 -79 14q-39 14 -69 42q-29 28 -49 72q-19 42 -19 104v290h109v-278q0 -61 33 -94t83 -33q45 0 81 24t44 62v318h109v-507h-105v54q-10 -28 -45 -48q-34 -19 -90 -19zM347 738l-115 -154h-83l67 154h131zM533 738l-115 -154h-83l67 154h131z" />
    <glyph glyph-name="Uogonek" unicode="&#x172;" horiz-adv-x="734" 
d="M367 109l1 -3q78 0 125 48q47 49 47 129v432h113v-433q0 -111 -54 -186q-53 -74 -146 -100q-11 -12 -21 -30q-10 -17 -10 -40q0 -22 14 -34t33 -12t27 7l13 -83q-7 -8 -24 -18q-16 -10 -44 -10q-55 0 -87 32q-31 31 -31 77q0 32 17 60q16 27 33 42h-5q-64 0 -117 21
t-90 60q-37 38 -58 94t-21 123v433h113v-432q0 -80 47 -129q46 -48 125 -48z" />
    <glyph glyph-name="uogonek" unicode="&#x173;" horiz-adv-x="608" 
d="M424 0l-1 51q-11 -29 -45 -48t-90 -19q-39 0 -79 14q-39 14 -69 42q-29 28 -49 72q-19 42 -19 104v290h109v-278q0 -61 33 -94t83 -33q45 0 81 24t44 62v318h109v-507q-8 -10 -22 -30q-12 -18 -12 -41q0 -22 14 -34q13 -12 33 -12q19 0 27 7l13 -83q-8 -7 -24 -18
q-16 -10 -44 -10q-55 0 -87 32q-31 31 -31 77q0 20 8 39q8 18 18 33q9 13 21 25q13 13 18 17h-39z" />
    <glyph glyph-name="Wcircumflex" unicode="&#x174;" horiz-adv-x="1021" 
d="M710 214l167 504h126l-238 -718h-107l-149 526l-147 -526h-107l-238 718h121l169 -504l144 504h112zM575 916l80 -144h-84l-62 66l-62 -66h-83l80 144h131z" />
    <glyph glyph-name="wcircumflex" unicode="&#x175;" horiz-adv-x="867" 
d="M595 161l132 346h123l-201 -507h-104l-112 349l-111 -349h-105l-201 507h118l133 -346l111 346h106zM502 739l80 -154h-87l-62 76l-62 -76h-87l80 154h138z" />
    <glyph glyph-name="Ycircumflex" unicode="&#x176;" horiz-adv-x="576" 
d="M6 718h126l154 -287l155 287h129l-225 -419v-299h-112v299zM352 916l80 -144h-84l-62 66l-62 -66h-83l80 144h131z" />
    <glyph glyph-name="ycircumflex" unicode="&#x177;" horiz-adv-x="565" 
d="M17 507h120l143 -343l144 343h121l-302 -720h-120l100 238zM349 739l80 -154h-87l-62 76l-62 -76h-87l80 154h138z" />
    <glyph glyph-name="Ydieresis" unicode="&#x178;" horiz-adv-x="576" 
d="M6 718h126l154 -287l155 287h129l-225 -419v-299h-112v299zM116 846q0 29 20 51q20 21 50 21t50 -21q20 -22 20 -51q0 -30 -20 -50t-50 -20t-50 20t-20 50zM319 846q0 29 20 51q20 21 50 21t51 -21t21 -51t-21 -50q-22 -20 -51 -20q-30 0 -50 20t-20 50z" />
    <glyph glyph-name="Zacute" unicode="&#x179;" horiz-adv-x="507" 
d="M47 718h405v-92l-266 -504h268v-122h-407v92l265 504h-265v122zM393 916l-115 -144h-93l67 144h141z" />
    <glyph glyph-name="zacute" unicode="&#x17a;" horiz-adv-x="464" 
d="M58 507h343v-92l-209 -299h221v-116h-362v92l210 299h-203v116zM372 739l-115 -154h-91l67 154h139z" />
    <glyph glyph-name="Zdotaccent" unicode="&#x17b;" horiz-adv-x="507" 
d="M47 718h405v-92l-266 -504h268v-122h-407v92l265 504h-265v122zM177 846q0 30 21 51t51 21t51 -21t21 -51q0 -29 -21 -50t-51 -21t-51 21t-21 50z" />
    <glyph glyph-name="zdotaccent" unicode="&#x17c;" horiz-adv-x="464" 
d="M58 507h343v-92l-209 -299h221v-116h-362v92l210 299h-203v116zM152 659q0 32 22 53t54 21t54 -21t22 -53t-22 -53t-54 -21t-54 21t-22 53z" />
    <glyph glyph-name="Zcaron" unicode="&#x17d;" horiz-adv-x="507" 
d="M47 718h405v-92l-266 -504h268v-122h-407v92l265 504h-265v122zM184 772l-80 144h83l62 -67l62 67h84l-80 -144h-131z" />
    <glyph glyph-name="zcaron" unicode="&#x17e;" horiz-adv-x="464" 
d="M58 507h343v-92l-209 -299h221v-116h-362v92l210 299h-203v116zM159 585l-80 154h87l62 -77l62 77h87l-80 -154h-138z" />
    <glyph glyph-name="longs" unicode="&#x17f;" horiz-adv-x="369" 
d="M396 590l-2 -1q-16 16 -38 27q-20 10 -50 10q-28 0 -51 -18q-22 -18 -22 -59v-550h-109v394h-87v113h87v63q0 81 42 126t125 45q43 0 77 -17t47 -42z" />
    <glyph glyph-name="uni018F" unicode="&#x18f;" horiz-adv-x="789" 
d="M627 424l-6 1q-11 49 -33 83q-23 35 -55 57q-33 23 -73 33q-42 11 -85 11q-75 0 -138 -27q-62 -27 -103 -81l-36 101q19 30 46 53q30 25 66 41q40 17 81 26q44 9 91 9q73 0 138 -25q67 -26 117 -73q51 -48 81 -117t30 -159q0 -79 -27 -146t-75 -117t-112 -78
q-63 -28 -138 -28q-82 0 -149 29q-66 29 -113 80q-46 51 -72 120q-25 68 -25 150q0 19 1 30q2 17 3 27h586zM391 110h-3q38 0 79 11q38 10 70 33q31 22 54 59q22 36 30 89h-469q6 -53 29 -90q23 -36 56 -59t73 -33q39 -10 81 -10z" />
    <glyph glyph-name="florin" unicode="&#x192;" horiz-adv-x="501" 
d="M181 584v-1q14 76 57 116q44 41 114 41q45 0 80 -16q36 -16 52 -49l-23 -93q-17 20 -39 32t-54 12q-27 0 -51 -15t-31 -52l-23 -125h162v-113h-182l-95 -534h-108l95 534h-91v113h111z" />
    <glyph glyph-name="uni01B5" unicode="&#x1b5;" horiz-adv-x="512" 
d="M50 718h405v-91l-106 -201h86v-118h-148l-98 -186h268v-122h-407v92l114 216h-98v118h159l90 170h-265v122z" />
    <glyph glyph-name="uni01B6" unicode="&#x1b6;" horiz-adv-x="464" 
d="M58 507h343v-92l-75 -108h65v-101h-136l-63 -90h221v-116h-362v92l80 114h-67v101h138l59 84h-203v116z" />
    <glyph glyph-name="Aringacute" unicode="&#x1fa;" horiz-adv-x="692" 
d="M239 756l-2 -1q0 23 9 42t23 33t33 23q20 9 42 9t42 -9t34 -22q15 -13 24 -33t9 -42q0 -24 -9 -44q-10 -21 -25 -35l265 -677h-119l-62 156h-312l-61 -156h-122l264 677q-15 15 -24 35t-9 44zM236 275h218l-109 279zM509 1037l-115 -144h-93l67 144h141zM304 755l-1 -1
q0 -16 12 -27q11 -10 29 -10q16 0 27 11t11 27t-11 27q-10 10 -27 10t-28 -10q-12 -10 -12 -27z" />
    <glyph glyph-name="aringacute" unicode="&#x1fb;" horiz-adv-x="558" 
d="M375 181l-1 -1q-10 17 -42 28q-30 10 -69 10q-53 0 -81 -16t-28 -45q0 -28 29 -45t81 -17q36 0 69 14q31 13 42 35v37zM69 429l-4 1q29 42 81 66t113 24q101 0 161 -51t60 -147v-321h-105v44q-9 -14 -25 -24q-16 -11 -36 -18q-20 -8 -40 -12q-19 -4 -42 -4q-42 0 -78 12
q-35 12 -61 33q-25 21 -39 51q-14 31 -14 69q0 42 16 71t44 51t63 32q38 11 77 11q44 0 78 -10q37 -11 53 -27v21q0 29 -10 48q-11 20 -27 32t-39 18t-48 6q-47 0 -87 -18q-41 -18 -63 -49zM164 673l-1 -2q0 23 9 42t23 33t33 23q20 9 42 9t42 -9t34 -22q15 -13 24 -33
t9 -42t-9 -42t-24 -33q-14 -13 -34 -22t-42 -9t-42 9q-19 9 -33 23q-13 13 -22 33q-9 19 -9 42zM230 671l-1 -1q0 -16 12 -27q11 -10 29 -10q17 0 27 10q11 11 11 27t-11 27t-27 11q-17 0 -28 -10q-12 -10 -12 -27zM423 974l-115 -154h-91l67 154h139z" />
    <glyph glyph-name="AEacute" unicode="&#x1fc;" horiz-adv-x="925" 
d="M865 596h-277v-166h247v-122h-247v-186h277v-122h-390v156h-262l-95 -156h-131l437 718h441v-122zM475 276v312l-189 -312h189zM740 916l-115 -144h-93l67 144h141z" />
    <glyph glyph-name="aeacute" unicode="&#x1fd;" horiz-adv-x="912" 
d="M262 520l1 -3q61 0 108 -19q49 -20 77 -57q30 33 77 55q45 21 102 21q55 0 100 -21q46 -21 77 -57q32 -36 48 -84q17 -49 17 -101q0 -23 -3 -41h-382q7 -58 50 -87q41 -28 107 -28q51 0 92 18t66 49l32 -85q-11 -22 -30 -38q-21 -18 -45 -29t-55 -19q-28 -7 -61 -7
q-65 0 -119 23q-53 23 -89 66q-24 -36 -72 -63t-114 -27q-42 0 -80 11q-35 10 -63 32q-27 21 -42 51t-15 71q0 42 16 71q17 31 43 51q28 22 63 32q38 11 78 11q44 0 78 -10q35 -10 52 -27v19q0 30 -11 52q-10 20 -29 33t-40 17q-25 5 -45 5q-48 0 -90 -17q-40 -16 -64 -48
l-28 91q14 20 34 36q23 18 46 29q25 12 54 18t59 6zM376 178l-2 -2q-10 17 -42 28q-30 10 -69 10q-53 0 -81 -16t-28 -45t30 -45q29 -16 81 -16q36 0 69 14q31 13 42 35v37zM752 306l-2 -1q-4 43 -41 69t-87 26q-26 0 -48 -6t-42 -18q-19 -11 -31 -30q-12 -18 -15 -40h266z
M596 733l-115 -154h-91l67 154h139z" />
    <glyph glyph-name="Oslashacute" unicode="&#x1fe;" horiz-adv-x="812" 
d="M406 731l-2 1q54 0 104 -15q48 -15 93 -44l49 59h137l-107 -127q42 -48 66 -111t24 -135q0 -79 -30 -147t-79 -117q-50 -50 -115 -78t-139 -28q-55 0 -104 15q-51 15 -93 43l-49 -58h-137l107 127q-42 48 -66 110t-24 134q0 80 30 147q30 68 79 117t116 78t140 29z
M653 360h-1q0 46 -13 84t-36 70l-318 -377q54 -27 120 -27q53 0 98 18t78 51q34 34 53 79t19 102zM404 610v-1q-53 0 -98 -18q-44 -18 -79 -51t-54 -79q-19 -45 -19 -102q0 -46 13 -84q14 -40 36 -71l318 377q-53 29 -117 29zM547 916l-115 -144h-93l67 144h141z" />
    <glyph glyph-name="oslashacute" unicode="&#x1ff;" horiz-adv-x="623" 
d="M573 253h-3q0 -56 -21 -106q-21 -49 -57 -85q-35 -35 -84 -55t-100 -20q-71 0 -129 34l-29 -34h-135l86 102q-25 32 -40 75q-15 42 -15 90q0 56 21 106q21 49 57 85q37 37 84 56q49 20 101 20q35 0 68 -9q32 -9 62 -26l30 35h135l-87 -103q26 -34 41 -75q15 -42 15 -90z
M154 253l1 1q0 -44 20 -79l188 222q-27 10 -54 10q-33 0 -61 -12q-29 -12 -49 -31q-21 -20 -33 -48t-12 -63zM464 253l-1 1q0 45 -20 80l-189 -222q26 -9 54 -9q32 0 62 11q28 10 49 30q21 19 33 47q12 27 12 62zM461 741l-115 -154h-91l67 154h139z" />
    <glyph glyph-name="uni0218" unicode="&#x218;" horiz-adv-x="496" 
d="M361 365l1 -3q44 -38 71 -80t27 -101q0 -44 -15 -80q-15 -37 -42 -62t-66 -39q-40 -14 -86 -14q-35 0 -73 11q-34 10 -66 29q-30 18 -51 39t-30 44l34 110q32 -50 83 -80t107 -30q43 0 66 19q24 20 24 54q0 26 -15 47q-16 22 -40 42q-17 14 -50.5 41t-47.5 39
q-41 33 -68 62q-31 33 -50 66q-20 35 -20 79q0 40 15 72q15 31 41 54q25 22 60 34q34 12 75 12q30 0 60 -8q29 -8 53 -21q25 -14 42 -31q20 -20 29 -37l-23 -109q-28 40 -74 63q-44 22 -88 22q-14 0 -27 -3t-24 -9t-18 -16t-7 -25q0 -22 18 -42q16 -18 35 -33q30 -26 50 -41
q34 -26 38 -30q24 -20 29 -24q16 -14 23 -21zM224 -188l-2 -1q-15 4 -31 20q-15 15 -15 41q0 28 21 48q20 19 51 19q30 0 50 -20t20 -48q0 -23 -9 -42q-6 -13 -20 -39l-46 -78h-68z" />
    <glyph glyph-name="uni0219" unicode="&#x219;" horiz-adv-x="433" 
d="M169 229l-3 -1q-115 58 -115 147q0 29 11 56q10 25 32 45q21 20 51 30q31 11 67 11q26 0 50 -6q27 -7 44 -16q18 -10 34 -24t23 -27l-20 -97q-29 29 -63 42q-36 14 -66 14q-23 0 -37 -7q-15 -8 -15 -24q0 -17 12 -26q11 -8 35 -21l52 -28q61 -31 93 -66q31 -34 31 -90
q0 -33 -12 -61t-36 -49t-57 -33t-74 -12q-58 0 -103 27q-46 27 -65 63l29 93q21 -27 59 -49q36 -21 87 -21q26 0 45 10q20 11 20 33q0 20 -16 33q-18 15 -45 29zM189 -186l-2 -1q-15 4 -31 20q-15 15 -15 41q0 28 21 48q20 19 51 19q30 0 50 -20t20 -48q0 -23 -9 -42
q-6 -13 -20 -39l-46 -78h-68z" />
    <glyph glyph-name="uni021A" unicode="&#x21a;" horiz-adv-x="579" 
d="M14 718h549v-120h-218v-598h-113v598h-218v120zM264 -185l-2 -1q-15 4 -31 20q-15 15 -15 41q0 29 21 48q20 19 51 19q30 0 50 -20t20 -48q0 -22 -9 -42q-6 -13 -20 -39l-46 -78h-68z" />
    <glyph glyph-name="uni021B" unicode="&#x21b;" horiz-adv-x="449" 
d="M401 48h-2q-16 -25 -48 -43q-31 -18 -72 -18q-84 0 -123 43q-39 44 -39 129v232h-89v35l165 209h33v-128h169v-116h-169v-210q0 -42 20 -60t54 -18q25 0 44 11q17 10 34 27zM228 -185l-2 -1q-15 4 -31 20q-15 15 -15 41q0 29 21 48q20 19 51 19q30 0 50 -20t20 -48
q0 -22 -9 -42q-6 -13 -20 -39l-46 -78h-68z" />
    <glyph glyph-name="schwa" unicode="&#x259;" horiz-adv-x="586" 
d="M270 408h-1q-49 0 -91 -19q-43 -19 -64 -46l-32 85q12 20 28 35q19 17 43 30q26 14 55 21q32 8 65 8q57 0 106 -18q48 -17 85 -53q37 -35 56 -84q20 -51 20 -111q0 -54 -18 -102q-18 -47 -51 -85q-32 -36 -80 -58q-47 -21 -105 -21q-55 0 -100 21q-44 21 -76 57t-48 84
q-17 49 -17 101q0 22 3 40h382q-8 59 -51 87t-109 28zM158 195h4q4 -43 41 -69t86 -26q27 0 48 7q25 8 41 19q18 12 30 30q11 17 16 39h-266z" />
    <glyph glyph-name="circumflex" unicode="&#x2c6;" horiz-adv-x="441" 
d="M289 739l80 -154h-87l-62 76l-62 -76h-87l80 154h138z" />
    <glyph glyph-name="caron" unicode="&#x2c7;" horiz-adv-x="441" 
d="M151 585l-80 154h87l62 -77l62 77h87l-80 -154h-138z" />
    <glyph glyph-name="uni02C9" unicode="&#x2c9;" horiz-adv-x="455" 
d="M380 705v-93h-305v93h305z" />
    <glyph glyph-name="breve" unicode="&#x2d8;" horiz-adv-x="445" 
d="M370 731q-2 -31 -13 -57q-12 -27 -31 -46t-47 -30t-57 -11t-57 11q-26 10 -46 30q-19 19 -31 46q-11 26 -13 57h92q1 -19 17 -33q14 -13 38 -13q23 0 39 13q17 14 18 33h91z" />
    <glyph glyph-name="dotaccent" unicode="&#x2d9;" horiz-adv-x="312" 
d="M80 659q0 32 22 53t54 21t54 -21t22 -53t-22 -53t-54 -21t-54 21t-22 53z" />
    <glyph glyph-name="ring" unicode="&#x2da;" horiz-adv-x="360" 
d="M75 673l-1 -2q0 23 9 42t23 33t33 23t42 9t42 -9q20 -9 34 -22q15 -13 24 -33t9 -42t-9 -42t-24 -33q-14 -13 -34 -22q-19 -9 -42 -9t-42 9t-33 23q-13 13 -22 33q-9 19 -9 42zM141 671l-1 -1q0 -16 12 -27q11 -10 29 -10q17 0 27 10q11 11 11 27t-11 27t-27 11
q-17 0 -28 -10q-12 -10 -12 -27z" />
    <glyph glyph-name="ogonek" unicode="&#x2db;" horiz-adv-x="340" 
d="M213 0l2 -2q-8 -10 -22 -30q-12 -18 -12 -41q0 -22 14 -34q13 -12 33 -12q19 0 27 7l13 -83q-8 -7 -24 -18q-16 -10 -44 -10q-55 0 -87 32q-31 31 -31 77q0 20 8 39q8 18 18 33q9 13 21 25q13 13 18 17h66z" />
    <glyph glyph-name="tilde" unicode="&#x2dc;" horiz-adv-x="503" 
d="M181 640l1 -1q-13 0 -21 -7q-9 -8 -9 -21t4 -24h-68q-12 29 -12 54q0 41 27 65t66 24q20 0 41 -8t38 -18q20 -12 34 -18q18 -8 30 -8q13 0 20 7q8 8 8 21t-4 24h68q12 -28 12 -53q0 -41 -27 -65t-66 -24q-21 0 -43 8q-21 8 -39 18t-33 18q-16 8 -27 8z" />
    <glyph glyph-name="hungarumlaut" unicode="&#x2dd;" horiz-adv-x="534" 
d="M273 739l-115 -154h-83l67 154h131zM459 739l-115 -154h-83l67 154h131z" />
    <glyph glyph-name="uni0394" unicode="&#x394;" horiz-adv-x="649" 
d="M641 0h-635q11 28 33 89.5t34 92.5l66 177l66 177q12 31 34 92.5t33 89.5h105zM487 112l-163 453l-164 -453h327z" />
    <glyph glyph-name="uni03A9" unicode="&#x3a9;" horiz-adv-x="817" 
d="M408 731l-3 -4q77 0 144 -29q66 -28 114 -78t75 -117t27 -144q0 -41 -9 -78q-10 -40 -22 -69q-13 -30 -30 -55t-33 -38h101v-122h-284v94q72 36 117 103q45 68 45 162q0 52 -18 99t-49 81q-32 35 -76 54q-46 20 -99 20q-55 0 -99 -19t-76 -54q-31 -34 -49 -81
q-18 -46 -18 -99q0 -47 12 -87t33 -73q22 -34 51 -59q31 -26 65 -44v-94h-283v122h100q-16 13 -33 38q-16 23 -30 56q-12 29 -22 69q-9 37 -9 78q0 77 27 144t74 117q46 49 113 78t144 29z" />
    <glyph glyph-name="uni03BC" unicode="&#x3bc;" horiz-adv-x="617" 
d="M296 -13l-2 1q-58 0 -108 26v-226h-109v720h109v-278q0 -61 33 -94t83 -33q45 0 81 24t44 62v318h109v-507h-105v54q-11 -28 -45 -48q-34 -19 -90 -19z" />
    <glyph glyph-name="pi" unicode="&#x3c0;" horiz-adv-x="643" 
d="M235 0h-104v396h-88v111h556v-111h-88v-396h-104v396h-172v-396z" />
    <glyph glyph-name="uni0401" unicode="&#x401;" horiz-adv-x="537" 
d="M87 718h390v-122h-277v-166h247v-122h-247v-186h277v-122h-390v718zM110 846q0 29 20 51q20 21 50 21t50 -21q20 -22 20 -51q0 -30 -20 -50t-50 -20t-50 20t-20 50zM313 846q0 29 20 51q19 21 50 21q30 0 51 -21t21 -51t-21 -50q-22 -20 -51 -20q-30 0 -50 20t-20 50z
" />
    <glyph glyph-name="uni0402" unicode="&#x402;" horiz-adv-x="654" 
d="M394 431l-5 -5q44 0 86 -15q41 -15 75 -44q32 -27 52 -71q20 -43 20 -95q0 -49 -16 -87t-45 -67q-28 -28 -66 -43q-37 -15 -79 -15q-27 0 -58 11q-29 10 -43 29l24 101q12 -10 33 -15q23 -5 39 -5q45 0 72 27t27 67q0 49 -37 77q-38 29 -97 29q-34 0 -54 -4l-45 -9v-296
h-113v598h-149v120h472v-120h-210v-180q25 6 54 9t63 3z" />
    <glyph glyph-name="uni0403" unicode="&#x403;" horiz-adv-x="485" 
d="M82 718h354v-122h-241v-596h-113v718zM398 916l-115 -144h-93l67 144h141z" />
    <glyph glyph-name="uni0404" unicode="&#x404;" horiz-adv-x="702" 
d="M159 427l311 3v-122h-314q14 -98 81 -149t169 -51q36 0 71 9q34 9 65 26q28 16 54 38q24 21 36 45l37 -110q-19 -30 -48 -54q-30 -26 -64 -41q-39 -18 -76 -26q-41 -9 -84 -9q-75 0 -141 27q-67 27 -114 76t-76 117q-28 66 -28 150q0 83 28 151q29 69 76 118t114 76
q66 27 141 27q44 0 88 -11q41 -10 77 -29q34 -18 60 -42q27 -26 41 -49l-36 -105q-12 21 -38 43q-22 20 -54 37q-29 16 -64 25t-69 9q-94 0 -159 -47t-84 -132z" />
    <glyph glyph-name="uni0405" unicode="&#x405;" horiz-adv-x="496" 
d="M361 365l1 -3q44 -38 71 -80t27 -101q0 -44 -15 -80q-15 -37 -42 -62t-66 -39q-40 -14 -86 -14q-35 0 -73 11q-34 10 -66 29q-30 18 -51 39t-30 44l34 110q32 -50 83 -80t107 -30q43 0 66 19q24 20 24 54q0 26 -15 47q-16 22 -40 42q-17 14 -50.5 41t-47.5 39
q-41 33 -68 62q-31 33 -50 66q-20 35 -20 79q0 40 15 72q15 31 41 54q25 22 60 34q34 12 75 12q30 0 60 -8q29 -8 53 -21q25 -14 42 -31q20 -20 29 -37l-23 -109q-28 40 -74 63q-44 22 -88 22q-14 0 -27 -3t-24 -9t-18 -16t-7 -25q0 -22 18 -42q16 -18 35 -33q30 -26 50 -41
q34 -26 38 -30q24 -20 29 -24q16 -14 23 -21z" />
    <glyph glyph-name="uni0406" unicode="&#x406;" horiz-adv-x="287" 
d="M87 718h113v-718h-113v718z" />
    <glyph glyph-name="uni0407" unicode="&#x407;" horiz-adv-x="288" 
d="M87 718h113v-718h-113v718zM-27 846q0 29 20 51q19 21 50 21t50 -21q20 -22 20 -51q0 -30 -20 -50t-50 -20t-50 20t-20 50zM176 846q0 29 20 51q20 21 50 21t51 -21t21 -51t-21 -50q-22 -20 -51 -20q-30 0 -50 20t-20 50z" />
    <glyph glyph-name="uni0408" unicode="&#x408;" horiz-adv-x="417" 
d="M334 182h-2q0 -93 -43 -143q-43 -51 -133 -51q-23 0 -44 6t-39 15q-19 10 -32 21q-13 12 -21 26l12 108q22 -23 50 -39q27 -15 62 -15t56 21t21 75v512h113v-536z" />
    <glyph glyph-name="uni0409" unicode="&#x409;" horiz-adv-x="918" 
d="M569 718v-281h92q51 0 92 -16q42 -17 72 -45q31 -29 47 -69q17 -42 17 -90q0 -49 -18 -90t-49 -69q-32 -29 -73 -45t-91 -16h-203v596h-164q-5 -159 -19 -267q-15 -114 -43 -186q-28 -73 -70 -109t-99 -36q-7 0 -21 2q-9 1 -18 5l-20 104q28 1 55 11q26 9 45 33
q20 25 35 66q14 40 25 109q10 62 16 164q5 86 7 229h385zM678 117q44 0 71 29q27 28 27 71q0 45 -28 72q-29 27 -70 27h-109v-199h109z" />
    <glyph glyph-name="uni040A" unicode="&#x40a;" horiz-adv-x="923" 
d="M462 0l2 311h-262v-312h-113v718h113v-284h262v284h112v-277h92q51 0 92 -16q42 -16 72 -45q31 -29 47 -69q17 -42 17 -90q0 -50 -18 -90q-18 -41 -49 -69q-32 -29 -73 -45t-91 -16h-203zM685 120q44 0 71 29q27 28 27 71q0 45 -28 72q-29 27 -70 27h-109v-199h109z" />
    <glyph glyph-name="uni040B" unicode="&#x40b;" horiz-adv-x="665" 
d="M500 0l-3 194q0 64 -30 90q-31 26 -93 26q-34 0 -54 -4q-30 -6 -46 -10v-295h-113v598h-149v120h472v-120h-210v-180q25 6 56 9q30 3 65 3q44 0 83 -12t69 -36t48 -61q18 -38 18 -90v-232h-113z" />
    <glyph glyph-name="uni040C" unicode="&#x40c;" horiz-adv-x="653" 
d="M87 718h113v-294l267 294h146l-312 -345l348 -373h-156l-293 311v-311h-113v718zM476 916l-115 -144h-93l67 144h141z" />
    <glyph glyph-name="uni040E" unicode="&#x40e;" horiz-adv-x="587" 
d="M25 718h122l155 -349l140 349h124l-289 -718h-124l92 227zM460 902l5 -1q0 -34 -13 -60q-14 -28 -36 -47q-22 -20 -54 -30q-33 -11 -66 -11t-66 11q-32 10 -54 30q-22 19 -36 47q-13 26 -13 60l92 16q1 -29 21 -48q19 -19 54 -19q34 0 54 20t21 48z" />
    <glyph glyph-name="uni040F" unicode="&#x40f;" horiz-adv-x="750" 
d="M87 718h113v-596h351v596h112v-718h-234v-154h-108v154h-234v718z" />
    <glyph glyph-name="uni0410" unicode="&#x410;" horiz-adv-x="692" 
d="M684 0h-119l-62 156h-312l-61 -156h-122l280 718h115zM238 276h218l-109 279z" />
    <glyph glyph-name="uni0411" unicode="&#x411;" horiz-adv-x="563" 
d="M87 0l1 716h374v-122h-261v-154h91q52 0 93 -16q42 -16 72 -45q31 -29 47 -69q17 -42 17 -90q0 -50 -18 -90q-18 -41 -49 -69q-32 -29 -73 -45t-91 -16h-203zM309 120v-1q44 0 71 29t27 71q0 45 -28 72q-29 27 -70 27h-108v-198h108z" />
    <glyph glyph-name="uni0412" unicode="&#x412;" horiz-adv-x="581" 
d="M268 718v-1q49 0 91 -12q43 -12 72 -37q31 -26 47 -63q17 -39 17 -85q0 -49 -16 -81q-17 -33 -45 -57q45 -23 71 -64q27 -42 27 -108q0 -50 -18 -89q-18 -40 -49 -66q-33 -28 -73 -41q-44 -14 -90 -14h-215v718h181zM200 306l1 -191h126q39 0 66 27t27 69q0 21 -7 36
q-8 18 -19 30q-12 13 -30 21q-19 8 -39 8h-125zM201 598l-2 -178h92q39 0 66 24t27 65q0 38 -25 63q-26 26 -66 26h-92z" />
    <glyph glyph-name="uni0413" unicode="&#x413;" horiz-adv-x="491" 
d="M87 718h354v-122h-241v-596h-113v718z" />
    <glyph glyph-name="uni0414" unicode="&#x414;" horiz-adv-x="780" 
d="M637 122l95 -1v-276h-107v154h-489v-154h-107v276h59q32 54 60 116q27 60 45 126q19 70 29 139q11 77 11 156v60h404v-596zM524 121v475h-184q-5 -133 -37 -255q-33 -124 -87 -220h308z" />
    <glyph glyph-name="uni0415" unicode="&#x415;" horiz-adv-x="537" 
d="M87 718h390v-122h-277v-166h247v-122h-247v-186h277v-122h-390v718z" />
    <glyph glyph-name="uni0416" unicode="&#x416;" horiz-adv-x="959" 
d="M536 424l251 294h144l-296 -345l317 -373h-156l-260 311v-311h-113v311l-260 -311h-156l317 373l-296 345h144l251 -294v294h113v-294z" />
    <glyph glyph-name="uni0417" unicode="&#x417;" horiz-adv-x="535" 
d="M253 609l-6 -5q-51 0 -91 -23t-71 -60l-25 104q11 20 30 38q21 19 45 32q28 15 55 23q30 9 63 9q43 0 81 -15t64 -40q27 -26 42 -63t15 -82q0 -47 -19 -84q-20 -37 -51 -63q45 -26 72 -69t27 -109q0 -50 -18 -90q-18 -41 -49 -69q-30 -27 -74 -43q-42 -15 -92 -15
q-41 0 -79 11q-36 10 -63 27t-47 38q-18 19 -28 41l30 102q33 -45 79 -70t108 -25q57 0 89 28q33 29 33 76q0 40 -30 70t-87 30h-69v122h65q44 0 70 24q25 24 25 62t-25 63t-69 25z" />
    <glyph glyph-name="uni0418" unicode="&#x418;" horiz-adv-x="767" 
d="M680 0h-113v523l-363 -523h-117v718h113v-527l363 527h117v-718z" />
    <glyph glyph-name="uni0419" unicode="&#x419;" horiz-adv-x="767" 
d="M680 0h-113v523l-363 -523h-117v718h113v-527l363 527h117v-718zM549 902l5 -1q0 -34 -13 -60q-14 -28 -36 -47q-23 -20 -54 -30q-33 -11 -66 -11t-66 11q-31 10 -54 30q-22 19 -36 47q-13 26 -13 60l92 16q2 -29 21 -48t54 -19q34 0 54 20q19 20 21 48z" />
    <glyph glyph-name="uni041A" unicode="&#x41a;" horiz-adv-x="653" 
d="M87 718h113v-294l267 294h146l-312 -345l348 -373h-156l-293 311v-311h-113v718z" />
    <glyph glyph-name="uni041B" unicode="&#x41b;" horiz-adv-x="704" 
d="M617 718l-2 -721h-112v596h-212q-5 -159 -19 -267q-15 -114 -43 -186q-28 -73 -70 -109t-99 -36q-7 0 -21 2q-9 1 -18 5l-20 104q28 1 55 11q26 9 45 33q20 25 35 66q14 40 25 109q10 62 16 164q5 86 7 229h433z" />
    <glyph glyph-name="uni041C" unicode="&#x41c;" horiz-adv-x="952" 
d="M681 718h118l96 -718h-113l-68 505l-182 -505h-107l-184 505l-66 -505h-118l96 718h118l204 -546z" />
    <glyph glyph-name="uni041D" unicode="&#x41d;" horiz-adv-x="761" 
d="M87 718h113v-288h361v288h113v-718h-113v308h-361v-308h-113v718z" />
    <glyph glyph-name="uni041E" unicode="&#x41e;" horiz-adv-x="803" 
d="M401 731h-2q75 0 140 -28q67 -29 116 -78t79 -118t30 -148t-30 -147t-79 -117q-50 -50 -115 -78t-139 -28q-73 0 -140 29t-116 78t-79 117q-30 67 -30 147t30 147q30 68 79 117t116 78t140 29zM400 609l-3 -2q-53 0 -98 -18q-44 -18 -79 -51t-54 -79q-19 -45 -19 -102
t19 -101q20 -45 54 -78t80 -51q45 -18 98 -18t98 18t78 51q34 34 53 79t19 102t-19 102q-19 47 -52 79q-33 33 -78 51t-97 18z" />
    <glyph glyph-name="uni041F" unicode="&#x41f;" horiz-adv-x="749" 
d="M87 718h575v-718h-113v596h-349v-596h-113v718z" />
    <glyph glyph-name="uni0420" unicode="&#x420;" horiz-adv-x="548" 
d="M290 718l-1 -4q50 0 91 -16t73 -45q31 -28 49 -69q18 -40 18 -90q0 -47 -17 -89q-16 -40 -47 -69q-30 -28 -72 -45q-41 -16 -93 -16h-91v-275h-113v718h203zM199 592l-2 -199h108q43 0 71 27q29 27 29 72q0 42 -27 71t-71 29h-108z" />
    <glyph glyph-name="uni0421" unicode="&#x421;" horiz-adv-x="702" 
d="M669 119h-1q-31 -56 -102 -94q-70 -37 -170 -37q-72 0 -137 27t-114 76q-50 50 -78 118q-29 70 -29 152q0 83 29 153q29 69 78 117t114 75t137 27q50 0 90 -10q45 -11 77 -28q35 -18 60 -42t40 -49l-35 -101q-16 23 -39 42q-24 21 -51 35q-28 15 -63 24t-72 9
q-55 0 -102 -18t-79 -49q-33 -32 -51 -78t-18 -105t18 -105t51 -79t80 -51q46 -18 102 -18q82 0 141 33t90 78z" />
    <glyph glyph-name="uni0422" unicode="&#x422;" horiz-adv-x="577" 
d="M14 718h549v-120h-218v-598h-113v598h-218v120z" />
    <glyph glyph-name="uni0423" unicode="&#x423;" horiz-adv-x="587" 
d="M25 718h122l155 -349l140 349h124l-289 -718h-124l92 227z" />
    <glyph glyph-name="uni0424" unicode="&#x424;" horiz-adv-x="805" 
d="M346 72l-2 -2q-68 3 -124 25q-57 23 -97 61q-40 39 -63 92q-23 54 -23 117q0 62 23 116q22 52 63 91q39 38 98 61q56 22 125 25v74h112v-74q68 -3 124 -25q59 -23 98 -61q41 -39 63 -91q23 -54 23 -115q0 -63 -23 -117q-22 -52 -63 -91q-39 -38 -98 -61q-56 -22 -124 -25
v-83h-112v83zM651 362l-1 -2q0 41 -15 74t-40 55q-24 21 -62 34q-36 12 -78 12v-346q44 2 78 13q38 13 62 34q26 23 41 54q15 32 15 72zM148 360l-1 1q0 -41 15 -72t41 -54q24 -21 62 -34q34 -11 78 -13v346q-42 0 -78 -12q-38 -13 -62 -34q-25 -22 -40 -55t-15 -73z" />
    <glyph glyph-name="uni0425" unicode="&#x425;" horiz-adv-x="653" 
d="M157 0h-140l241 371l-226 347h135l158 -243l157 243h140l-226 -347l240 -371h-135l-172 265z" />
    <glyph glyph-name="uni0426" unicode="&#x426;" horiz-adv-x="802" 
d="M87 718h113v-596h347v596h112v-596h96v-276h-107v154h-561v718z" />
    <glyph glyph-name="uni0427" unicode="&#x427;" horiz-adv-x="589" 
d="M165 718v-193q0 -65 30 -90q31 -26 93 -26q32 0 54 3q24 3 47 9v296h113v-718h-113v300q-26 -6 -55 -9q-30 -3 -64 -3q-42 0 -83 11q-38 10 -69 35q-30 24 -48 62q-18 37 -18 90v233h113z" />
    <glyph glyph-name="uni0428" unicode="&#x428;" horiz-adv-x="965" 
d="M87 718h113v-596h226v596h112v-596h227v596h113v-718h-791v718z" />
    <glyph glyph-name="uni0429" unicode="&#x429;" horiz-adv-x="1020" 
d="M87 718h113v-596h226v596h112v-596h227v596h113v-596h95v-276h-107v154h-779v718z" />
    <glyph glyph-name="uni042A" unicode="&#x42a;" horiz-adv-x="631" 
d="M170 0l2 594h-151v122h263v-276h92q51 0 92 -16q42 -16 72 -45q31 -29 47 -69q17 -42 17 -90q0 -50 -18 -90q-18 -41 -49 -69q-32 -29 -73 -45t-91 -16h-203zM393 120v-1q44 0 71 29t27 71q0 45 -28 72q-29 27 -70 27h-109v-198h109z" />
    <glyph glyph-name="uni042B" unicode="&#x42b;" horiz-adv-x="807" 
d="M607 718h113v-718h-113v718zM290 0l-1 4q50 0 91 16t73 45q31 28 49 69q18 40 18 90q0 47 -17 89q-16 40 -47 69q-30 28 -72 45q-41 16 -93 16h-91v275h-113v-718h203zM199 126l-2 197h108q43 0 71 -27q29 -27 29 -72q0 -42 -27 -70t-71 -28h-108z" />
    <glyph glyph-name="uni042C" unicode="&#x42c;" horiz-adv-x="548" 
d="M289 4l1 -4h-203v718h113v-275h91q52 0 93 -16q42 -17 72 -45q31 -29 47 -69q17 -42 17 -89q0 -50 -18 -90q-18 -41 -49 -69q-32 -29 -73 -45t-91 -16zM197 323l2 -197h108q44 0 71 28t27 70q0 45 -29 72q-28 27 -71 27h-108z" />
    <glyph glyph-name="uni042D" unicode="&#x42d;" horiz-adv-x="705" 
d="M234 430l309 -3q-19 85 -84 132t-159 47q-34 0 -69 -9t-64 -25q-32 -17 -54 -37q-26 -22 -38 -43l-36 105q14 23 41 49q26 24 60 42q36 19 77 29q44 11 88 11q75 0 141 -27q67 -27 114 -76q49 -51 77 -118q28 -68 28 -151q0 -84 -28 -150q-29 -68 -76 -117t-114 -76
q-66 -27 -141 -27q-44 0 -84 9q-37 8 -76 26q-34 15 -64 41q-28 24 -48 54l37 110q12 -24 36 -45q26 -22 54 -38q31 -17 65 -26t71 -9q103 0 170 51t81 149h-314v122z" />
    <glyph glyph-name="uni042E" unicode="&#x42e;" horiz-adv-x="1078" 
d="M676 731l-1 -3q75 0 140 -28q67 -29 116 -78t79 -118t30 -148q0 -80 -30 -147q-30 -68 -79 -117q-50 -50 -115 -78t-139 -28q-69 0 -130 24t-111 66q-49 42 -81 101q-32 60 -41 129h-115v-308h-113v718h113v-288h118q12 65 45 121q33 55 81 96t108 63q61 23 125 23z
M675 606l-3 -2q-53 0 -98 -18t-78 -51q-34 -34 -53 -79t-19 -102q0 -55 20 -101q19 -44 53 -78q33 -33 78 -51t98 -18t98 18q46 18 80 51q35 33 54 79q19 45 19 102t-19 102q-19 46 -54 79t-79 51q-45 18 -97 18z" />
    <glyph glyph-name="uni042F" unicode="&#x42f;" horiz-adv-x="565" 
d="M478 0l-111 -1v296h-52l-158 -296h-128l164 309q-62 22 -99 71q-36 48 -36 123q0 54 18 95t48 68q29 26 69 40q38 13 80 13h205v-718zM263 595l-2 1q-41 0 -66 -27q-25 -26 -25 -67q0 -40 27 -66q26 -25 66 -25h104v184h-104z" />
    <glyph glyph-name="uni0430" unicode="&#x430;" horiz-adv-x="558" 
d="M375 181l-1 -1q-10 17 -42 28q-30 10 -69 10q-53 0 -81 -16t-28 -45q0 -28 29 -45t81 -17q36 0 69 14q31 13 42 35v37zM69 429l-4 1q29 42 81 66t113 24q101 0 161 -51t60 -147v-321h-105v44q-9 -14 -25 -24q-16 -11 -36 -18q-20 -8 -40 -12q-19 -4 -42 -4q-42 0 -78 12
q-35 12 -61 33q-25 21 -39 51q-14 31 -14 69q0 42 16 71t44 51t63 32q38 11 77 11q44 0 78 -10q37 -11 53 -27v21q0 29 -10 48q-11 20 -27 32t-39 18t-48 6q-47 0 -87 -18q-41 -18 -63 -49z" />
    <glyph glyph-name="uni0431" unicode="&#x431;" horiz-adv-x="627" 
d="M537 644l-6 -4q-20 -20 -47 -32q-26 -11 -56 -21q-28 -9 -59 -15q-27 -5 -55 -12q-46 -10 -75 -27t-45 -37t-22 -45q-6 -24 -6 -49q14 21 33 36t42 24q25 10 48 14q28 5 51 5q52 0 95 -18q44 -18 76 -49q33 -32 51 -76q18 -45 18 -97q0 -54 -19 -99q-19 -46 -54 -81
t-81 -54q-48 -20 -100 -20q-62 0 -111 21t-85 63q-35 41 -55 105q-19 61 -19 146q0 65 10 118q10 55 36 100q26 46 66 77t102 48q38 10 58 14q24 5 59 14q19 5 57 17q30 9 56 24zM318 99h-2q32 0 59 9t47 26t32 41t12 56q0 30 -12 54q-12 25 -31 42q-19 18 -47 27
q-27 9 -59 9q-24 0 -48 -6q-25 -6 -45 -19t-37 -33q-16 -18 -25 -45q1 -38 14 -69q12 -30 33 -51q21 -20 49 -31q27 -10 60 -10z" />
    <glyph glyph-name="uni0432" unicode="&#x432;" horiz-adv-x="521" 
d="M273 507l-2 -3q37 0 69 -9t56 -27q23 -17 37 -45t14 -61q0 -32 -9 -54q-9 -23 -31 -42q32 -17 50 -45q18 -29 18 -72q0 -35 -15 -62q-16 -28 -39 -47q-24 -20 -57 -30q-31 -10 -70 -10h-215v507h194zM310 104v-1q22 0 38 14q15 13 15 36q0 21 -15 35q-16 14 -39 14h-126
v-98h127zM286 300h-1q23 0 39 14q15 14 15 33q0 23 -15 36q-14 13 -38 13h-103v-96h103z" />
    <glyph glyph-name="uni0433" unicode="&#x433;" horiz-adv-x="435" 
d="M402 507v-116h-214v-391h-109v507h323z" />
    <glyph glyph-name="uni0434" unicode="&#x434;" horiz-adv-x="639" 
d="M78 116v-1q37 55 65 141q29 89 29 209v42h353v-391h77v-251h-105v135h-365v-135h-105v251h51zM416 115l-1 273h-144q-7 -94 -30 -165t-45 -108h220z" />
    <glyph glyph-name="uni0435" unicode="&#x435;" horiz-adv-x="586" 
d="M316 99l-2 -4q47 0 92 20q44 20 65 47l32 -85q-12 -20 -28 -35q-19 -17 -43 -30q-26 -14 -55 -21q-28 -7 -65 -7q-56 0 -106 18q-48 17 -85 53q-37 35 -56 84q-20 51 -20 111q0 54 18 102q18 47 51 85t80 59q46 21 105 21q55 0 100 -21q46 -21 77 -57q32 -36 48 -84
q17 -49 17 -101q0 -22 -3 -40h-382q8 -58 51 -87q43 -28 109 -28zM425 308h-4q-4 43 -41 69t-86 26q-27 0 -48 -7q-25 -8 -41 -19q-18 -12 -30 -30q-11 -17 -16 -39h266z" />
    <glyph glyph-name="uni0436" unicode="&#x436;" horiz-adv-x="793" 
d="M451 304l180 203h135l-217 -244l237 -263h-144l-191 217v-217h-109v217l-192 -217h-144l237 263l-216 244h135l180 -203v203h109v-203z" />
    <glyph glyph-name="uni0437" unicode="&#x437;" horiz-adv-x="484" 
d="M232 99h-6q45 0 69 15t24 38q0 22 -20 36t-57 14h-70v111h55q31 0 53 11q21 10 21 36q0 20 -21 32t-52 12q-34 0 -71 -12t-69 -44l-27 90q24 34 69 57q46 23 104 23q82 0 132 -39q49 -39 49 -107q0 -36 -16 -62q-17 -28 -40 -42q38 -17 57 -46q20 -31 20 -76
q0 -37 -16 -66q-16 -30 -45 -51q-30 -22 -66 -32q-39 -11 -79 -11q-60 0 -108 22q-50 22 -78 66l30 92q22 -28 65 -48q41 -19 93 -19z" />
    <glyph glyph-name="uni0438" unicode="&#x438;" horiz-adv-x="624" 
d="M188 507v-328l248 328h109v-507h-109v328l-248 -328h-109v507h109z" />
    <glyph glyph-name="uni0439" unicode="&#x439;" horiz-adv-x="624" 
d="M188 507v-328l248 328h109v-507h-109v328l-248 -328h-109v507h109zM475 711v-1q0 -34 -13 -60q-14 -27 -36 -48q-21 -20 -53 -31q-31 -11 -64 -11t-64 11q-30 10 -53 32q-22 21 -36 48q-13 26 -13 60l91 14q2 -28 21 -47q20 -20 54 -20t54 20q19 19 21 47z" />
    <glyph glyph-name="uni043A" unicode="&#x43a;" horiz-adv-x="567" 
d="M79 507h109v-203l205 203h144l-243 -244l268 -263h-153l-221 216v-216h-109v507z" />
    <glyph glyph-name="uni043B" unicode="&#x43b;" horiz-adv-x="604" 
d="M17 104l-1 -4q21 1 41 8q18 6 33 21t27 42q13 29 20 71q7 44 12 108t6 156h368v-507h-109v391h-158q-4 -202 -51 -298t-133 -96q-18 0 -36 5z" />
    <glyph glyph-name="uni043C" unicode="&#x43c;" horiz-adv-x="775" 
d="M534 507h109l79 -507h-108l-50 301l-129 -301h-93l-128 302l-51 -302h-111l79 507h103l150 -348z" />
    <glyph glyph-name="uni043D" unicode="&#x43d;" horiz-adv-x="620" 
d="M188 507v-188h244v188h109v-507h-109v203h-244v-203h-109v507h109z" />
    <glyph glyph-name="uni043E" unicode="&#x43e;" horiz-adv-x="614" 
d="M569 253l-2 -1q0 -56 -21 -106q-21 -49 -57 -85q-35 -35 -84 -55t-100 -20t-100 20q-47 19 -84 56q-36 36 -57 85q-21 50 -21 106q0 57 21 106t57 85q37 37 84 56q49 20 101 20t101 -20q47 -19 84 -56q36 -36 57 -85q21 -50 21 -106zM152 252v-1q0 -34 12 -61
q12 -28 33 -47q21 -20 49 -30q30 -11 60 -11t60 11q28 10 49 30q21 19 33 47q12 27 12 60q0 34 -12 63t-33 48q-21 20 -49 30q-30 11 -60 11t-60 -11q-28 -10 -49 -30q-21 -19 -33 -48t-12 -61z" />
    <glyph glyph-name="uni043F" unicode="&#x43f;" horiz-adv-x="615" 
d="M536 507v-507h-109v391h-239v-391h-109v507h457z" />
    <glyph glyph-name="uni0440" unicode="&#x440;" horiz-adv-x="642" 
d="M597 253l-2 -1q0 -58 -21 -108t-57 -84q-36 -35 -82 -54q-45 -19 -97 -19q-59 0 -98 19q-41 20 -53 48v-267h-109v720h105v-54q14 29 55 48t99 19q54 0 99 -19q48 -20 83 -55q36 -36 57 -85t21 -108zM485 253l-2 2q0 68 -43 108q-44 41 -114 41q-26 0 -48 -6
q-25 -7 -41 -16q-19 -11 -32 -24t-19 -30v-150q6 -16 20 -30q13 -13 32 -24q16 -9 41 -16q23 -6 48 -6q70 0 114 41t44 110z" />
    <glyph glyph-name="uni0441" unicode="&#x441;" horiz-adv-x="545" 
d="M500 76l-4 -3q-10 -18 -28 -34q-17 -15 -42 -28q-22 -11 -54 -19q-28 -7 -65 -7q-51 0 -100 20q-48 19 -84 54t-57 84t-21 109t21 109t57 84t84 54q47 19 101 19q67 0 117 -26q49 -26 69 -60l-30 -90q-20 24 -57 42t-83 18q-76 0 -123 -41q-46 -40 -46 -108
q0 -67 47 -109q46 -42 123 -42q47 0 85 20q36 19 58 44z" />
    <glyph glyph-name="uni0442" unicode="&#x442;" horiz-adv-x="498" 
d="M466 391h-162v-391h-109v391h-163v116h434v-116z" />
    <glyph glyph-name="uni0443" unicode="&#x443;" horiz-adv-x="565" 
d="M17 507h120l143 -343l144 343h121l-302 -720h-120l100 238z" />
    <glyph glyph-name="uni0444" unicode="&#x444;" horiz-adv-x="747" 
d="M155 253v-1q0 -75 44 -111q43 -36 120 -36v297q-77 0 -120 -37q-44 -38 -44 -112zM428 517l2 -3q61 0 112 -18q50 -18 87 -53t56 -84q20 -51 20 -111q0 -61 -21 -109q-21 -47 -57 -82q-35 -34 -87 -52q-51 -18 -111 -18v-202h-109v202q-60 0 -111 18q-50 18 -87 53
q-36 34 -57 83q-21 48 -21 110q0 60 20 111q19 49 56 84t87 53q51 18 112 18v210h109v-210zM594 249v1q0 74 -44 112q-43 37 -120 37v-297q76 0 120 36t44 111z" />
    <glyph glyph-name="uni0445" unicode="&#x445;" horiz-adv-x="541" 
d="M145 0h-134l193 268l-173 239h131l106 -149l107 149h134l-172 -239l193 -268h-130l-128 177z" />
    <glyph glyph-name="uni0446" unicode="&#x446;" horiz-adv-x="648" 
d="M506 -135v135h-427v507h109v-391h236v391h109v-391h78v-251h-105z" />
    <glyph glyph-name="uni0447" unicode="&#x447;" horiz-adv-x="529" 
d="M53 507l107 -2v-114q0 -55 24 -78q23 -22 75 -22q26 0 44 6t36 15v195h109v-507h-109v193q-18 -7 -42 -12q-21 -4 -56 -4q-36 0 -72 11q-35 10 -60 33q-26 23 -41 60t-15 88v138z" />
    <glyph glyph-name="uni0448" unicode="&#x448;" horiz-adv-x="826" 
d="M79 0v507h109v-391h170v391h109v-391h171v391h109v-507h-668z" />
    <glyph glyph-name="uni0449" unicode="&#x449;" horiz-adv-x="861" 
d="M467 507v-391h171v391h109v-391h77v-251h-105v135h-640v507h109v-391h170v391h109z" />
    <glyph glyph-name="uni044A" unicode="&#x44a;" horiz-adv-x="588" 
d="M156 0l-3 390h-130v116h239v-146h89q42 0 77 -13q38 -14 62 -37q26 -25 41 -57q15 -33 15 -74t-15 -74q-15 -32 -41 -57q-26 -24 -61 -36q-36 -12 -76 -12h-197zM361 112v-2q34 0 54 20t20 50q0 32 -21 50t-53 18h-99v-136h99z" />
    <glyph glyph-name="uni044B" unicode="&#x44b;" horiz-adv-x="730" 
d="M542 507h109v-507h-109v507zM79 0l-3 506h109v-146h84q42 0 77 -13q38 -14 62 -37q26 -25 41 -57q15 -33 15 -74t-15 -74q-15 -32 -41 -57q-26 -24 -61 -36q-36 -12 -76 -12h-192zM279 112v-2q34 0 54 20t20 50q0 32 -21 50t-53 18h-94v-136h94z" />
    <glyph glyph-name="uni044C" unicode="&#x44c;" horiz-adv-x="511" 
d="M79 0l-3 506h109v-146h89q42 0 77 -13q38 -14 62 -37q26 -25 41 -57q15 -33 15 -74t-15 -74q-15 -32 -41 -57q-26 -24 -61 -36q-36 -12 -76 -12h-197zM284 112v-2q34 0 54 20t20 50q0 32 -21 50t-53 18h-99v-136h99z" />
    <glyph glyph-name="uni044D" unicode="&#x44d;" horiz-adv-x="545" 
d="M76 168l-2 -2q7 -11 23 -25q13 -11 32 -21q20 -10 39 -14q23 -5 44 -5q63 0 108 24t60 78h-195v107h192q-17 48 -56 71q-40 23 -96 23q-53 0 -91 -19t-58 -45l-30 90q9 16 27 33q19 18 42 29q26 13 54 20q32 8 63 8q57 0 104 -19q49 -20 84 -55q36 -36 57 -85t21 -108
q0 -58 -20 -109q-20 -50 -55 -84q-36 -34 -84 -54q-47 -19 -104 -19q-64 0 -116 26t-74 63z" />
    <glyph glyph-name="uni044E" unicode="&#x44e;" horiz-adv-x="830" 
d="M785 253l-2 -2q0 -57 -21 -106t-57 -85q-35 -35 -84 -55t-100 -20q-48 0 -90 16q-43 17 -78 45q-34 28 -58 69q-23 39 -31 87h-77v-203h-109v507h109v-188h81q10 42 35 81q23 36 57 64q33 27 75 42t87 15q52 0 101 -20q47 -19 84 -56q36 -36 57 -85q21 -50 21 -106z
M369 251v-1q0 -34 12 -61q12 -28 33 -47q21 -20 49 -30q30 -11 60 -11t60 11q28 10 49 30q21 19 33 47q12 27 12 60q0 35 -12 63t-33 48t-49 30q-30 11 -60 11t-60 -11q-28 -10 -49 -30t-33 -48t-12 -61z" />
    <glyph glyph-name="uni044F" unicode="&#x44f;" horiz-adv-x="516" 
d="M437 507l1 -506h-109v154h-65l-105 -154h-125l117 171q-46 22 -73 63t-27 96q0 40 15 73q16 35 40 56q26 23 60 35t75 12h196zM229 395l-2 -2q-32 0 -50 -18t-18 -47t20 -46q19 -16 50 -16h100v129h-100z" />
    <glyph glyph-name="uni0451" unicode="&#x451;" horiz-adv-x="586" 
d="M316 99l-2 -4q47 0 92 20q44 20 65 47l32 -85q-12 -20 -28 -35q-19 -17 -43 -30q-26 -14 -55 -21q-28 -7 -65 -7q-56 0 -106 18q-48 17 -85 53q-37 35 -56 84q-20 51 -20 111q0 54 18 102q18 47 51 85t80 59q46 21 105 21q55 0 100 -21q46 -21 77 -57q32 -36 48 -84
q17 -49 17 -101q0 -22 -3 -40h-382q8 -58 51 -87q43 -28 109 -28zM425 308h-4q-4 43 -41 69t-86 26q-27 0 -48 -7q-25 -8 -41 -19q-18 -12 -30 -30q-11 -17 -16 -39h266zM120 655q0 31 21 52t51 21q31 0 52 -21t21 -52q0 -30 -21 -51t-52 -21q-30 0 -51 21t-21 51zM318 655
q0 31 21 52t52 21q30 0 51 -21t21 -52q0 -30 -21 -51t-51 -21q-31 0 -52 21t-21 51z" />
    <glyph glyph-name="uni0452" unicode="&#x452;" horiz-adv-x="614" 
d="M435 252l-3 -1q0 61 -34 94t-84 33q-45 0 -81 -24t-44 -62v-292h-109v560h-78v101h78v67h109v-67h148v-101h-148v-133q10 28 44 48q32 19 89 19q41 0 79 -13t70 -42q31 -29 51 -72q20 -45 20 -103v-325q0 -165 -128 -165q-21 0 -50 8q-27 8 -48 27l10 101q10 -10 26 -15
q17 -5 28 -5q31 0 43 18t12 56v288z" />
    <glyph glyph-name="uni0453" unicode="&#x453;" horiz-adv-x="435" 
d="M402 507v-116h-214v-391h-109v507h323zM370 739l-115 -154h-91l67 154h139z" />
    <glyph glyph-name="uni0454" unicode="&#x454;" horiz-adv-x="545" 
d="M471 166l-2 2l31 -92q-22 -37 -74 -63t-116 -26q-57 0 -104 19q-48 20 -84 54q-35 34 -55 84q-20 51 -20 109q0 59 21 108t57 85q35 35 84 55q47 19 104 19q31 0 63 -8q28 -7 54 -20q23 -11 42 -29q18 -17 27 -33l-30 -90q-20 26 -58 45t-91 19q-56 0 -96 -23
q-39 -23 -56 -71h192v-107h-195q15 -54 60 -78t108 -24q21 0 44 5q19 4 39 14q19 10 32 21q16 14 23 25z" />
    <glyph glyph-name="uni0455" unicode="&#x455;" horiz-adv-x="433" 
d="M169 229l-3 -1q-115 58 -115 147q0 29 11 56q10 25 32 45q21 20 51 30q31 11 67 11q26 0 50 -6q27 -7 44 -16q18 -10 34 -24t23 -27l-20 -97q-29 29 -63 42q-36 14 -66 14q-23 0 -37 -7q-15 -8 -15 -24q0 -17 12 -26q11 -8 35 -21l52 -28q61 -31 93 -66q31 -34 31 -90
q0 -33 -12 -61t-36 -49t-57 -33t-74 -12q-58 0 -103 27q-46 27 -65 63l29 93q21 -27 59 -49q36 -21 87 -21q26 0 45 10q20 11 20 33q0 20 -16 33q-18 15 -45 29z" />
    <glyph glyph-name="uni0456" unicode="&#x456;" horiz-adv-x="267" 
d="M79 507h109v-507h-109v507zM58 667q0 32 22 54t54 22t54 -22t22 -54t-22 -54t-54 -22t-54 22t-22 54z" />
    <glyph glyph-name="uni0457" unicode="&#x457;" horiz-adv-x="268" 
d="M80 507h109v-507h-109v507zM-36 658q0 31 21 52t51 21q31 0 52 -21t21 -52q0 -30 -21 -51t-52 -21q-30 0 -51 21t-21 51zM162 658q0 31 21 52t52 21q30 0 51 -21t21 -52q0 -30 -21 -51t-51 -21q-31 0 -52 21t-21 51z" />
    <glyph glyph-name="uni0458" unicode="&#x458;" horiz-adv-x="273" 
d="M85 507h107v-568q0 -165 -128 -165q-21 0 -50 8q-27 8 -48 27l10 101q10 -10 26 -15q17 -5 28 -5q31 0 43 18t12 56v543zM62 667q0 32 22 54t54 22t54 -22t22 -54t-22 -54t-54 -22t-54 22t-22 54z" />
    <glyph glyph-name="uni0459" unicode="&#x459;" horiz-adv-x="802" 
d="M578 113l-1 -2q34 0 54 19q21 20 21 51q0 32 -21 50t-53 18h-90v-136h90zM487 505l-4 -151h80q42 0 77 -13q38 -14 62 -37q26 -25 41 -57q15 -33 15 -74t-15 -74q-15 -32 -41 -57q-26 -24 -61 -36q-36 -12 -76 -12h-188v391h-121q-4 -202 -51 -298t-133 -96q-18 0 -36 5
l-19 103q21 1 41 8q18 6 33 21t27 42q13 29 20 71q8 43 12 108t6 156h331z" />
    <glyph glyph-name="uni045A" unicode="&#x45a;" horiz-adv-x="823" 
d="M400 0v202h-212v-203h-109v507h109v-188h212v188h109v-146h80q42 0 77 -13q38 -14 62 -37q26 -25 41 -57q15 -33 15 -74t-15 -74t-42 -57t-63 -36t-76 -12h-188zM598 112l-1 -2q34 0 54 19q21 19 21 51t-21 50t-53 18h-89v-136h89z" />
    <glyph glyph-name="uni045B" unicode="&#x45b;" horiz-adv-x="614" 
d="M435 0l-1 251q0 61 -34 94t-84 33q-45 0 -81 -24t-44 -62v-292h-109v560h-78v101h78v67h109v-67h148v-101h-148v-133q10 28 44 48q32 19 89 19q41 0 79 -13t70 -42q31 -29 51 -72q20 -45 20 -103v-264h-109z" />
    <glyph glyph-name="uni045C" unicode="&#x45c;" horiz-adv-x="567" 
d="M79 507h109v-203l205 203h144l-243 -244l268 -263h-153l-221 216v-216h-109v507zM429 739l-115 -154h-91l67 154h139z" />
    <glyph glyph-name="uni045E" unicode="&#x45e;" horiz-adv-x="565" 
d="M17 507h120l143 -343l144 343h121l-302 -720h-120l100 238zM443 711v-1q0 -34 -13 -60q-14 -27 -36 -48q-21 -20 -53 -31q-31 -11 -64 -11t-64 11q-30 10 -53 32q-22 21 -36 48q-13 26 -13 60l91 14q2 -28 21 -47q20 -20 54 -20t54 20q19 19 21 47z" />
    <glyph glyph-name="uni045F" unicode="&#x45f;" horiz-adv-x="611" 
d="M358 0v-138h-105v138h-174v507h109v-391h235v391h109v-507h-174z" />
    <glyph glyph-name="uni0490" unicode="&#x490;" horiz-adv-x="485" 
d="M81 718h247v154h107v-276h-241v-596h-113v718z" />
    <glyph glyph-name="uni0491" unicode="&#x491;" horiz-adv-x="435" 
d="M297 507v135h105v-251h-214v-391h-109v507h218z" />
    <glyph glyph-name="uni0492" unicode="&#x492;" horiz-adv-x="510" 
d="M106 298h-101v122h101v298h354v-122h-241v-176h186v-122h-186v-298h-113v298z" />
    <glyph glyph-name="uni0493" unicode="&#x493;" horiz-adv-x="461" 
d="M428 507v-116h-215v-99h164v-106h-164v-186h-109v186h-75v106h75v215h324z" />
    <glyph glyph-name="uni049A" unicode="&#x49a;" horiz-adv-x="680" 
d="M87 718h113v-294l267 294h145l-311 -345l236 -251h114v-276h-107v154h-51l-293 311v-311h-113v718z" />
    <glyph glyph-name="uni049B" unicode="&#x49b;" horiz-adv-x="576" 
d="M294 263l151 -147h104v-251h-105v135h-35l-221 216v-216h-109v507h109v-203l205 203h144z" />
    <glyph glyph-name="uni04A2" unicode="&#x4a2;" horiz-adv-x="817" 
d="M87 718h113v-288h361v288h113v-596h96v-276h-107v154h-102v308h-361v-308h-113v718z" />
    <glyph glyph-name="uni04A3" unicode="&#x4a3;" horiz-adv-x="656" 
d="M432 0v203h-244v-203h-109v507h109v-188h244v188h109v-391h78v-251h-105v135h-82z" />
    <glyph glyph-name="uni04AE" unicode="&#x4ae;" horiz-adv-x="576" 
d="M6 718h126l154 -287l155 287h129l-225 -419v-299h-112v299z" />
    <glyph glyph-name="uni04AF" unicode="&#x4af;" horiz-adv-x="552" 
d="M330 -213h-109v219l-204 501h114l143 -358l142 358h119l-205 -500v-220z" />
    <glyph glyph-name="uni04B0" unicode="&#x4b0;" horiz-adv-x="576" 
d="M93 317h130l-217 401h126l154 -287l155 287h129l-216 -401h129v-122h-138v-195h-112v195h-140v122z" />
    <glyph glyph-name="uni04B1" unicode="&#x4b1;" horiz-adv-x="552" 
d="M221 0h-131v108h89l-162 399h114l143 -358l142 358h119l-164 -399h90v-108h-131v-213h-109v213z" />
    <glyph glyph-name="uni04BA" unicode="&#x4ba;" horiz-adv-x="589" 
d="M424 0l-1 192q0 64 -30 90q-31 26 -93 26q-32 0 -54 -3q-21 -3 -46 -9v-296h-113v718h113v-300q26 6 55 9q30 3 64 3q42 0 83 -11q38 -10 69 -35q30 -24 48 -61t18 -90v-233h-113z" />
    <glyph glyph-name="uni04BB" unicode="&#x4bb;" horiz-adv-x="611" 
d="M188 0l-110 -1v728h109v-275q10 28 44 48q32 19 89 19q41 0 79 -13t70 -42q31 -28 51 -72q20 -45 20 -103v-290h-109v278q0 61 -34 94q-35 33 -84 33q-45 0 -81 -24t-44 -62v-318z" />
    <glyph glyph-name="uni04D8" unicode="&#x4d8;" horiz-adv-x="789" 
d="M627 424l-6 1q-11 49 -33 83q-23 35 -55 57q-33 23 -73 33q-42 11 -85 11q-75 0 -138 -27q-62 -27 -103 -81l-36 101q19 30 46 53q30 25 66 41q40 17 81 26q44 9 91 9q73 0 138 -25q67 -26 117 -73q51 -48 81 -117t30 -159q0 -79 -27 -146t-75 -117t-112 -78
q-63 -28 -138 -28q-82 0 -149 29q-66 29 -113 80q-46 51 -72 120q-25 68 -25 150q0 19 1 30q2 17 3 27h586zM391 110h-3q38 0 79 11q38 10 70 33q31 22 54 59q22 36 30 89h-469q6 -53 29 -90q23 -36 56 -59t73 -33q39 -10 81 -10z" />
    <glyph glyph-name="uni04D9" unicode="&#x4d9;" horiz-adv-x="586" 
d="M275 520q57 0 106 -18q48 -17 85 -53q37 -35 56 -84q20 -51 20 -111q0 -54 -18 -102q-18 -47 -51 -85q-32 -36 -80 -58q-47 -21 -105 -21q-54 0 -99 21q-44 21 -76 57q-30 35 -49 86q-18 50 -18 108q0 17 1 25q2 13 3 20h379q-11 52 -51 77q-41 26 -103 26q-50 0 -91 -16
t-67 -48l-30 87q23 41 74 65t114 24zM158 204q4 -47 39 -76q34 -28 90 -28q58 0 95 28q38 29 45 76h-269z" />
    <glyph glyph-name="uni04E8" unicode="&#x4e8;" horiz-adv-x="803" 
d="M401 731h1q75 0 141 -27t116 -77t78 -118q29 -70 29 -150q0 -82 -28 -150t-78 -118q-51 -51 -115 -77q-66 -27 -141 -27q-76 0 -144 27q-67 27 -117 77q-49 49 -78 117q-28 66 -28 149q0 80 29 150q28 68 78 118q49 49 116 78q65 28 141 28zM403 109l1 -2q47 0 86 13
q40 14 72 39q32 26 54 61q23 36 30 82h-487q9 -48 31 -83q22 -36 54 -60q30 -23 72 -37q39 -13 87 -13zM404 607l-1 -2q-45 0 -85 -12t-72 -36t-54 -58q-22 -33 -31 -78h481q-9 44 -31 77q-23 35 -54 59q-30 23 -71 37q-38 13 -82 13z" />
    <glyph glyph-name="uni04E9" unicode="&#x4e9;" horiz-adv-x="614" 
d="M569 253v-1q0 -58 -21 -108t-57 -84t-84 -54q-47 -19 -102 -19q-53 0 -102 20q-48 19 -84 54t-57 84t-21 108t21 108t57 84t84 54q49 20 102 20t102 -20q48 -19 84 -54t57 -84t21 -108zM307 99h-1q54 0 95 27t51 81h-293q12 -54 53 -81q40 -27 95 -27zM306 406h-1
q-52 0 -91 -24t-53 -74h288q-14 50 -53 74t-90 24z" />
    <glyph glyph-name="uni1E02" unicode="&#x1e02;" horiz-adv-x="581" 
d="M268 718v-1q49 0 91 -12q43 -12 72 -37q31 -26 47 -63q17 -39 17 -85q0 -49 -16 -81q-17 -33 -45 -57q45 -23 71 -64q27 -42 27 -108q0 -50 -18 -89q-18 -40 -49 -66q-33 -28 -73 -41q-44 -14 -90 -14h-215v718h181zM200 306l1 -191h126q39 0 66 27t27 69q0 21 -7 36
q-8 18 -19 30q-12 13 -30 21q-19 8 -39 8h-125zM201 598l-2 -178h92q39 0 66 24t27 65q0 38 -25 63q-26 26 -66 26h-92zM202 846q0 30 21 51t51 21t51 -21t21 -51q0 -29 -21 -50t-51 -21t-51 21t-21 50z" />
    <glyph glyph-name="uni1E03" unicode="&#x1e03;" horiz-adv-x="656" 
d="M597 253v-2q0 -59 -21 -108t-57 -84q-36 -34 -83 -54q-45 -19 -99 -19q-58 0 -99 19t-55 48v-53h-105v728h109v-275q12 28 53 48q39 19 98 19q53 0 98 -19q48 -20 83 -55q36 -36 57 -85t21 -108zM487 250l-2 -1q0 69 -43 111q-44 42 -114 42q-50 0 -89 -21t-51 -54v-150
q6 -16 20 -30q13 -13 32 -24q16 -9 41 -16q23 -6 48 -6q70 0 114 41t44 108zM261 814q0 32 22 53q23 21 54 21t54 -21q22 -21 22 -53t-22 -53q-23 -21 -54 -21t-54 21q-22 21 -22 53z" />
    <glyph glyph-name="uni1E0A" unicode="&#x1e0a;" horiz-adv-x="736" 
d="M584 359h2q0 49 -18 93t-49 75q-32 32 -75 50q-44 18 -96 18h-147v-474h147q48 0 93 17q43 16 75 48t50 75t18 98zM313 718v-3q85 0 155 -24q71 -24 122 -69q52 -46 80 -112q29 -69 29 -153q0 -85 -30 -151q-30 -65 -81 -112q-50 -45 -122 -70q-70 -24 -153 -24h-224v718
h224zM264 843q0 30 21 51t51 21t51 -21t21 -51q0 -29 -21 -50t-51 -21t-51 21t-21 50z" />
    <glyph glyph-name="uni1E0B" unicode="&#x1e0b;" horiz-adv-x="606" 
d="M34 253h-2q0 59 21 108t57 85q35 35 83 55t98 20q59 0 98 -19q41 -20 54 -48v275h109v-728h-105v53q-12 -28 -54 -48q-41 -19 -99 -19q-51 0 -99 20q-47 20 -83 54q-36 35 -57 84t-21 108zM141 252l-2 2q0 -67 44 -108q43 -40 116 -40q50 0 89 21q38 21 52 53v150
q-14 33 -52 54q-39 21 -89 21q-71 0 -115 -42q-43 -42 -43 -111zM222 819q0 32 22 53t54 21t54 -21t22 -53t-22 -53t-54 -21t-54 21t-22 53z" />
    <glyph glyph-name="uni1E1E" unicode="&#x1e1e;" horiz-adv-x="491" 
d="M87 718h354v-122h-241v-166h221v-122h-221v-308h-113v718zM192 846q0 30 21 51t51 21t51 -21t21 -51q0 -29 -21 -50t-51 -21t-51 21t-21 50z" />
    <glyph glyph-name="uni1E1F" unicode="&#x1e1f;" horiz-adv-x="438" 
d="M396 590l-2 -1q-16 16 -38 27q-20 10 -50 10q-28 0 -51 -18q-22 -18 -22 -59v-43h167v-116h-167v-391h-109v391h-91v116h91v63q0 81 42 126t125 45q43 0 77 -17t47 -42zM192 855q0 32 22 53t54 21t54 -21t22 -53t-22 -53t-54 -21t-54 21t-22 53z" />
    <glyph glyph-name="uni1E40" unicode="&#x1e40;" horiz-adv-x="952" 
d="M681 718h118l96 -718h-113l-68 505l-182 -505h-107l-184 505l-66 -505h-118l96 718h118l204 -546zM401 846q0 30 21 51t51 21t51 -21t21 -51q0 -29 -21 -50t-51 -21t-51 21t-21 50z" />
    <glyph glyph-name="uni1E41" unicode="&#x1e41;" horiz-adv-x="930" 
d="M321 520l-1 -2q45 0 87 -18q41 -18 73 -60q55 79 171 79q39 0 75 -13q38 -14 67 -40q30 -27 48 -67q18 -41 18 -96v-304h-109v288q0 56 -32 86t-78 30q-42 0 -76 -24q-35 -24 -42 -61v-320h-109v288q0 56 -32 86q-31 30 -78 30q-21 0 -40 -6t-35 -17q-15 -11 -26 -26
q-11 -16 -14 -33v-320h-109v507h105v-54q10 28 47 48q35 19 90 19zM392 657q0 32 22 53t54 21t54 -21t22 -53t-22 -53t-54 -21t-54 21t-22 53z" />
    <glyph glyph-name="uni1E56" unicode="&#x1e56;" horiz-adv-x="548" 
d="M290 718l-1 -4q50 0 91 -16t73 -45q31 -28 49 -69q18 -40 18 -90q0 -47 -17 -89q-16 -40 -47 -69q-30 -28 -72 -45q-41 -16 -93 -16h-91v-275h-113v718h203zM199 592l-2 -199h108q43 0 71 27q29 27 29 72q0 42 -27 71t-71 29h-108zM199 842q0 30 21 51t51 21t51 -21
t21 -51q0 -29 -21 -50t-51 -21t-51 21t-21 50z" />
    <glyph glyph-name="uni1E57" unicode="&#x1e57;" horiz-adv-x="656" 
d="M597 253l-2 -1q0 -58 -21 -108t-57 -84q-36 -35 -82 -54q-45 -19 -97 -19q-59 0 -98 19q-41 20 -53 48v-267h-109v720h105v-54q14 29 55 48t99 19q54 0 99 -19q48 -20 83 -55q36 -36 57 -85t21 -108zM485 253l-2 2q0 68 -43 108q-44 41 -114 41q-26 0 -48 -6
q-25 -7 -41 -16q-19 -11 -32 -24t-19 -30v-150q6 -16 20 -30q13 -13 32 -24q16 -9 41 -16q23 -6 48 -6q70 0 114 41t44 110zM251 660q0 32 22 53q23 21 54 21t54 -21q22 -21 22 -53t-22 -53q-23 -21 -54 -21t-54 21q-22 21 -22 53z" />
    <glyph glyph-name="uni1E60" unicode="&#x1e60;" horiz-adv-x="496" 
d="M361 365l1 -3q44 -38 71 -80t27 -101q0 -44 -15 -80q-15 -37 -42 -62t-66 -39q-40 -14 -86 -14q-35 0 -73 11q-34 10 -66 29q-30 18 -51 39t-30 44l34 110q32 -50 83 -80t107 -30q43 0 66 19q24 20 24 54q0 26 -15 47q-16 22 -40 42q-17 14 -50.5 41t-47.5 39
q-41 33 -68 62q-31 33 -50 66q-20 35 -20 79q0 40 15 72q15 31 41 54q25 22 60 34q34 12 75 12q30 0 60 -8q29 -8 53 -21q25 -14 42 -31q20 -20 29 -37l-23 -109q-28 40 -74 63q-44 22 -88 22q-14 0 -27 -3t-24 -9t-18 -16t-7 -25q0 -22 18 -42q16 -18 35 -33q30 -26 50 -41
q34 -26 38 -30q24 -20 29 -24q16 -14 23 -21zM175 843q0 30 21 51t51 21t51 -21t21 -51q0 -29 -21 -50t-51 -21t-51 21t-21 50z" />
    <glyph glyph-name="uni1E61" unicode="&#x1e61;" horiz-adv-x="433" 
d="M169 229l-3 -1q-115 58 -115 147q0 29 11 56q10 25 32 45q21 20 51 30q31 11 67 11q26 0 50 -6q27 -7 44 -16q18 -10 34 -24t23 -27l-20 -97q-29 29 -63 42q-36 14 -66 14q-23 0 -37 -7q-15 -8 -15 -24q0 -17 12 -26q11 -8 35 -21l52 -28q61 -31 93 -66q31 -34 31 -90
q0 -33 -12 -61t-36 -49t-57 -33t-74 -12q-58 0 -103 27q-46 27 -65 63l29 93q21 -27 59 -49q36 -21 87 -21q26 0 45 10q20 11 20 33q0 20 -16 33q-18 15 -45 29zM132 658q0 32 22 53t54 21t54 -21t22 -53t-22 -53t-54 -21t-54 21t-22 53z" />
    <glyph glyph-name="uni1E6A" unicode="&#x1e6a;" horiz-adv-x="577" 
d="M14 718h549v-120h-218v-598h-113v598h-218v120zM216 846q0 30 21 51t51 21t51 -21t21 -51q0 -29 -21 -50t-51 -21t-51 21t-21 50z" />
    <glyph glyph-name="uni1E6B" unicode="&#x1e6b;" horiz-adv-x="449" 
d="M401 48h-2q-16 -25 -48 -43q-31 -18 -72 -18q-84 0 -123 43q-39 44 -39 129v232h-89v35l165 209h33v-128h169v-116h-169v-210q0 -42 20 -60t54 -18q25 0 44 11q17 10 34 27zM168 782q0 32 22 53t54 21t54 -21t22 -53t-22 -53t-54 -21t-54 21t-22 53z" />
    <glyph glyph-name="Wgrave" unicode="&#x1e80;" horiz-adv-x="1021" 
d="M710 214l167 504h126l-238 -718h-107l-149 526l-147 -526h-107l-238 718h121l169 -504l144 504h112zM487 916l67 -144h-93l-115 144h141z" />
    <glyph glyph-name="wgrave" unicode="&#x1e81;" horiz-adv-x="867" 
d="M595 161l132 346h123l-201 -507h-104l-112 349l-111 -349h-105l-201 507h118l133 -346l111 346h106zM412 739l67 -154h-91l-115 154h139z" />
    <glyph glyph-name="Wacute" unicode="&#x1e82;" horiz-adv-x="1021" 
d="M710 214l167 504h126l-238 -718h-107l-149 526l-147 -526h-107l-238 718h121l169 -504l144 504h112zM672 916l-115 -144h-93l67 144h141z" />
    <glyph glyph-name="wacute" unicode="&#x1e83;" horiz-adv-x="867" 
d="M595 161l132 346h123l-201 -507h-104l-112 349l-111 -349h-105l-201 507h118l133 -346l111 346h106zM595 739l-115 -154h-91l67 154h139z" />
    <glyph glyph-name="Wdieresis" unicode="&#x1e84;" horiz-adv-x="1021" 
d="M710 214l167 504h126l-238 -718h-107l-149 526l-147 -526h-107l-238 718h121l169 -504l144 504h112zM338 846q0 29 20 51q20 21 50 21t50 -21q20 -22 20 -51q0 -30 -20 -50t-50 -20t-50 20t-20 50zM541 846q0 29 20 51q19 21 50 21q30 0 51 -21t21 -51t-21 -50
q-22 -20 -51 -20q-30 0 -50 20t-20 50z" />
    <glyph glyph-name="wdieresis" unicode="&#x1e85;" horiz-adv-x="867" 
d="M595 161l132 346h123l-201 -507h-104l-112 349l-111 -349h-105l-201 507h118l133 -346l111 346h106zM262 659q0 31 21 52t51 21q31 0 52 -21t21 -52q0 -30 -21 -51t-52 -21q-30 0 -51 21t-21 51zM460 659q0 31 21 52t52 21q30 0 51 -21t21 -52q0 -30 -21 -51t-51 -21
q-31 0 -52 21t-21 51z" />
    <glyph glyph-name="Ygrave" unicode="&#x1ef2;" horiz-adv-x="576" 
d="M6 718h126l154 -287l155 287h129l-225 -419v-299h-112v299zM275 916l67 -144h-93l-115 144h141z" />
    <glyph glyph-name="ygrave" unicode="&#x1ef3;" horiz-adv-x="565" 
d="M17 507h120l143 -343l144 343h121l-302 -720h-120l100 238zM261 739l67 -154h-91l-115 154h139z" />
    <glyph glyph-name="endash" unicode="&#x2013;" horiz-adv-x="601" 
d="M47 325h507v-99h-507v99z" />
    <glyph glyph-name="emdash" unicode="&#x2014;" horiz-adv-x="930" 
d="M47 325h836v-99h-836v99z" />
    <glyph glyph-name="quoteleft" unicode="&#x2018;" horiz-adv-x="289" 
d="M169 606l-1 -4q17 -5 32 -20t15 -44q0 -28 -20 -48q-19 -19 -51 -19q-28 0 -49 21t-21 51q0 25 9 45q6 13 20 39l58 101h65z" />
    <glyph glyph-name="quoteright" unicode="&#x2019;" horiz-adv-x="289" 
d="M120 598l-1 3q-15 4 -31 20q-15 15 -15 44q0 28 20 48t51 20q29 0 50 -21t21 -51q0 -25 -9 -45q-6 -13 -20 -39l-58 -101h-65z" />
    <glyph glyph-name="quotesinglbase" unicode="&#x201a;" horiz-adv-x="289" 
d="M120 -2l-1 3q-15 4 -31 20q-15 15 -15 44q0 28 20 48t51 20q29 0 50 -21t21 -51q0 -25 -9 -45q-6 -13 -20 -39l-58 -101h-65z" />
    <glyph glyph-name="quotedblleft" unicode="&#x201c;" horiz-adv-x="483" 
d="M169 606l-1 -4q17 -5 32 -20t15 -44q0 -28 -20 -48q-19 -19 -51 -19q-28 0 -49 21t-21 51q0 25 9 45q6 13 20 39l58 101h65zM362 602l-1 -4q16 -4 32 -20q15 -15 15 -44q0 -28 -20 -48q-19 -19 -51 -19q-28 0 -49 21t-21 51q0 25 9 45q6 13 20 39l58 101h65z" />
    <glyph glyph-name="quotedblright" unicode="&#x201d;" horiz-adv-x="482" 
d="M313 598l-1 3q-15 4 -31 20q-15 15 -15 44q0 28 20 48t51 20q29 0 50 -21t21 -51q0 -25 -9 -45q-6 -13 -20 -39l-58 -101h-65zM118 601l-1 3q-15 4 -31 20q-15 15 -15 44q0 28 20 48t51 20q29 0 50 -21t21 -51q0 -26 -9 -45q-6 -13 -20 -39l-58 -101h-65z" />
    <glyph glyph-name="quotedblbase" unicode="&#x201e;" horiz-adv-x="483" 
d="M314 -2l-1 3q-15 4 -31 20q-15 15 -15 44q0 28 20 48t51 20q29 0 50 -21t21 -51q0 -25 -9 -45q-6 -13 -20 -39l-58 -101h-65zM119 1l-1 3q-15 4 -31 20q-15 15 -15 44q0 28 20 48t51 20q29 0 50 -21t21 -51q0 -26 -9 -45q-6 -13 -20 -39l-58 -101h-65z" />
    <glyph glyph-name="dagger" unicode="&#x2020;" horiz-adv-x="588" 
d="M70 518h171v200h106v-200h171v-113h-171v-579h-106v579h-171v113z" />
    <glyph glyph-name="daggerdbl" unicode="&#x2021;" horiz-adv-x="585" 
d="M349 718v-200h172v-113h-172v-266h172v-113h-172v-200h-106v200h-171v113h171v266h-171v113h171v200h106z" />
    <glyph glyph-name="bullet" unicode="&#x2022;" horiz-adv-x="399" 
d="M199 415l-1 -1q27 0 54 -11q26 -10 44 -29q18 -18 29 -44q11 -27 11 -54t-11 -54q-10 -24 -29 -43q-18 -18 -44 -29q-27 -11 -54 -11t-54 11q-24 10 -43 29t-29 44q-11 27 -11 54t11 54q10 25 29 44t44 29q27 11 54 11z" />
    <glyph glyph-name="ellipsis" unicode="&#x2026;" horiz-adv-x="826" 
d="M74 67l-2 -1q0 34 23 57t57 23q35 0 57 -22q23 -23 23 -57q0 -35 -22 -57q-23 -23 -57 -23t-57 23q-22 22 -22 57zM332 66l-2 -1q0 34 23 57t57 23q35 0 57 -22q23 -23 23 -57q0 -35 -22 -57q-23 -23 -57 -23t-57 23q-22 22 -22 57zM590 65l-2 -1q0 34 23 57t57 23
q35 0 57 -22q23 -23 23 -57q0 -35 -22 -57q-23 -23 -57 -23t-57 23q-22 22 -22 57z" />
    <glyph glyph-name="perthousand" unicode="&#x2030;" horiz-adv-x="1321" 
d="M196 0l413 718h105l-413 -718h-105zM222 728h-2q39 0 72 -15t57 -39q25 -25 38 -57q14 -34 14 -70q0 -38 -13 -70t-38 -57q-24 -24 -57 -39t-72 -15t-72 15t-57 39q-25 25 -38 57t-13 70q0 36 14 70q13 32 38 57q24 24 57 39t72 15zM220 473h-4q37 0 59 21q23 21 23 53
t-22 53t-58 21t-58 -21t-22 -53t23 -53q22 -21 59 -21zM682 350h-2q39 0 72 -15t57 -39q25 -25 38 -57q14 -34 14 -70q0 -38 -13 -70t-38 -57q-24 -24 -57 -39t-72 -15t-72 15t-57 39q-25 25 -38 57t-13 70q0 36 14 70q13 32 38 57q24 24 57 39t72 15zM680 95h-4q36 0 59 21
t23 53t-22 53t-58 21t-58 -21t-22 -53t23 -53t59 -21zM1087 350h-2q39 0 72 -15t57 -39q25 -25 38 -57q14 -34 14 -70q0 -38 -13 -70t-38 -57q-24 -24 -57 -39t-72 -15t-72 15t-57 39q-25 25 -38 57t-13 70q0 36 14 70q13 32 38 57q24 24 57 39t72 15zM1085 95h-4
q37 0 59 21q23 21 23 53t-22 53q-23 21 -58 21t-58 -21q-22 -21 -22 -53t23 -53q22 -21 59 -21z" />
    <glyph glyph-name="guilsinglleft" unicode="&#x2039;" horiz-adv-x="324" 
d="M272 84h-104l-136 183l136 181h104l-111 -181z" />
    <glyph glyph-name="guilsinglright" unicode="&#x203a;" horiz-adv-x="324" 
d="M156 84h-104l111 183l-111 181h104l136 -181z" />
    <glyph glyph-name="uni2042" unicode="&#x2042;" horiz-adv-x="847" 
d="M290 434l70 94l-111 35l23 73l111 -36v118h79v-118l112 36l23 -73l-111 -35l70 -94l-64 -48l-70 96l-68 -96zM74 36l71 94l-112 36l23 72l112 -36v118h79v-118l111 37l24 -73l-112 -36l71 -94l-65 -48l-69 96l-68 -96zM506 36l71 94l-112 36l23 72l112 -36v118h79v-118
l111 37l24 -73l-112 -36l71 -94l-65 -48l-69 96l-68 -96z" />
    <glyph glyph-name="fraction" unicode="&#x2044;" horiz-adv-x="185" 
d="M-74 0h-96l429 718h96z" />
    <glyph glyph-name="uni2051" unicode="&#x2051;" horiz-adv-x="415" 
d="M74 434l71 94l-112 35l23 73l112 -36v118h79v-118l111 36l24 -73l-112 -35l71 -94l-65 -48l-69 96l-68 -96zM74 36l71 94l-112 36l23 72l112 -36v118h79v-118l111 37l24 -73l-112 -36l71 -94l-65 -48l-69 96l-68 -96z" />
    <glyph glyph-name="n.superior" unicode="&#x207f;" horiz-adv-x="436" 
d="M237 641h-2q25 0 51 -9q25 -9 46 -27q20 -17 34 -45q13 -26 13 -65v-196h-86v178q0 35 -21 53t-51 18q-26 0 -48 -13q-23 -14 -27 -34v-201h-87v332h84v-33q7 18 32 30q24 12 62 12z" />
    <glyph glyph-name="Euro" unicode="&#x20ac;" horiz-adv-x="613" 
d="M44 469l68 -1q12 68 39 117t63 81q37 32 78 47q42 15 86 15q72 0 121 -27t78 -75l-39 -93q-26 35 -63 54q-38 20 -82 20q-58 0 -102 -31t-61 -108h277l-38 -91h-252q-1 -17 -1 -39q0 -10 2 -24h223l-36 -92h-167q18 -54 59 -84t101 -30q42 0 80 21q37 21 66 59l35 -95
q-30 -52 -81 -79t-121 -27q-39 0 -81 14q-40 13 -75 42q-36 30 -62 73q-27 45 -42 107h-112l39 92h59q-1 7 -1 24q0 22 1 39h-100z" />
    <glyph glyph-name="uni20B4" unicode="&#x20b4;" horiz-adv-x="537" 
d="M43 486l262 -3q15 15 26 30q12 17 12 36q0 29 -22 42q-23 14 -54 14q-38 0 -77 -19q-40 -20 -69 -54l-23 102q22 38 69 66q46 28 105 28q38 0 73 -12q36 -13 59 -34q24 -22 39 -54t15 -72q0 -20 -6 -38q-6 -17 -15 -34h43v-85h-113q-23 -23 -62 -56h175v-85h-263
q-18 -18 -28 -37t-10 -39q0 -34 24 -54q25 -20 68 -20q48 0 93 24q46 24 77 72l35 -105q-10 -21 -29 -41q-18 -20 -44 -35q-23 -14 -59 -25q-31 -10 -73 -10q-43 0 -82 14q-37 13 -64 39t-42 61q-15 36 -15 78q0 22 6 43q6 22 15 38h-45v85h110q20 18 29 26q25 22 33 29
h-173v85z" />
    <glyph glyph-name="uni20B8" unicode="&#x20b8;" horiz-adv-x="550" 
d="M50 559h450v-122h-169v-437h-112v437h-169v122zM50 718h450v-92h-450v92z" />
    <glyph glyph-name="uni20BD" unicode="&#x20bd;" horiz-adv-x="578" 
d="M32 397l79 -4v321h203q50 0 91 -16t73 -45q31 -28 49 -69q18 -40 18 -90q0 -47 -17 -89q-16 -40 -47 -69q-30 -28 -72 -45q-41 -16 -92 -16h-92v-62h196v-92h-196v-121h-112v121h-81v92h81v62h-81v122zM223 592l-2 -199h109q42 0 71 27t29 72q0 42 -27 71t-71 29h-109z
" />
    <glyph glyph-name="uni2113" unicode="&#x2113;" horiz-adv-x="415" 
d="M252 95l-1 -1q28 0 48 11t35 27l19 -88q-13 -21 -44 -40q-30 -18 -74 -18q-81 0 -120 45t-39 128v406q0 85 42 130t111 45q35 0 62 -12t47 -35t30 -54q11 -33 11 -69q0 -43 -18 -91q-19 -51 -46 -95t-65 -90q-36 -44 -75 -75v-44q0 -41 21 -60q22 -20 56 -20zM175 358
l-2 -3q21 21 38 45q18 26 33 54t24 57t9 54q0 32 -13 49q-14 18 -36 18q-27 0 -40 -18q-13 -17 -13 -50v-206z" />
    <glyph glyph-name="uni2116" unicode="&#x2116;" horiz-adv-x="1177" 
d="M767 224v101h317v-101h-317zM925 728v-2q39 0 69 -13q32 -13 54 -36t36 -54q13 -30 13 -66t-13 -66q-14 -31 -36 -54t-54 -36q-30 -13 -69 -13q-36 0 -69 14q-32 14 -54 36t-36 54q-13 30 -13 66t13 66q14 32 36 54t54 36q33 14 69 14zM925 487h-1q35 0 56 21t21 49
q0 29 -21 48q-22 20 -55 20t-55 -20q-21 -19 -21 -48q0 -28 21 -49t55 -21zM86 716h117l358 -526v526h113v-718h-117l-358 522v-522h-113v718z" />
    <glyph glyph-name="uni2117" unicode="&#x2117;" horiz-adv-x="819" 
d="M409 731l-4 -4q77 0 146 -29q68 -28 118 -79q52 -52 80 -118q29 -69 29 -145q0 -75 -29 -144q-29 -67 -79 -118q-50 -50 -118 -79q-69 -29 -145 -29q-75 0 -144 29q-66 28 -118 80q-50 50 -79 119t-29 144q0 77 29 146q28 66 80 118t119 80q69 29 144 29zM405 48l-1 -1
q65 0 122 24t99 66t66 98t24 119q0 64 -24 119q-24 56 -66 98t-99 66t-122 24q-64 0 -121 -24t-99 -66q-41 -41 -67 -98q-25 -54 -25 -119t25 -119t68 -97q42 -42 99 -66t121 -24zM385 574l-1 -1q29 0 55 -9q24 -9 45 -26q19 -16 30 -41t11 -54t-10 -52q-10 -22 -29 -40
q-19 -17 -44 -26q-26 -9 -57 -9h-41v-154h-80v412h121zM343 486v-84h53q21 0 35 11t14 30t-13 31q-14 12 -36 12h-53z" />
    <glyph glyph-name="trademark" unicode="&#x2122;" horiz-adv-x="811" 
d="M17 718h281v-80h-103v-268h-73v268h-105v80zM642 718h75l48 -348h-73l-29 202l-78 -202h-67l-77 203l-29 -203h-77l49 348h73l93 -230z" />
    <glyph glyph-name="Omega" unicode="&#x2126;" horiz-adv-x="817" 
d="M408 731l-3 -4q77 0 144 -29q66 -28 114 -78t75 -117t27 -144q0 -41 -9 -78q-10 -40 -22 -69q-13 -30 -30 -55t-33 -38h101v-122h-284v94q72 36 117 103q45 68 45 162q0 52 -18 99t-49 81q-32 35 -76 54q-46 20 -99 20q-55 0 -99 -19t-76 -54q-31 -34 -49 -81
q-18 -46 -18 -99q0 -47 12 -87t33 -73q22 -34 51 -59q31 -26 65 -44v-94h-283v122h100q-16 13 -33 38q-16 23 -30 56q-12 29 -22 69q-9 37 -9 78q0 77 27 144t74 117q46 49 113 78t144 29z" />
    <glyph glyph-name="estimated" unicode="&#x212e;" horiz-adv-x="789" 
d="M161 294l6 -2q11 -49 33 -83q23 -35 55 -57q33 -23 73 -33q42 -11 85 -11q75 0 138 27q62 27 103 81l36 -101q-19 -30 -46 -53q-30 -25 -66 -41q-40 -17 -81 -26q-43 -9 -91 -9q-73 0 -138 25q-67 26 -117 73q-51 48 -81 117t-30 159q0 78 27 146t75 117q48 50 112 78
q63 28 138 28q82 0 149 -29q68 -29 113 -79q46 -51 72 -120q25 -68 25 -150q0 -19 -1 -30q-2 -17 -3 -27h-586zM397 607l1 -1q-42 0 -79 -10q-38 -10 -70 -33q-31 -22 -54 -59q-22 -36 -30 -89h469q-6 55 -28 90q-23 37 -55 59q-33 23 -73 33q-39 10 -81 10z" />
    <glyph glyph-name="onethird" unicode="&#x2153;" horiz-adv-x="785" 
d="M201 0h-96l429 718h96zM40 623l101 78h63v-395h-83v281l-81 -50v86zM601 80l-4 -3q28 0 47 14q18 14 18 35q0 20 -16 30q-17 11 -43 11q-17 0 -30 -3q-12 -3 -19 -8l-14 62l75 85h-119v90h230v-64l-75 -83q15 -4 34 -12t32 -21q14 -14 23 -35t9 -51q0 -28 -11 -53
q-10 -23 -30 -43q-20 -19 -48 -30q-27 -10 -63 -10q-49 0 -81 21t-39 42l19 75q16 -23 42 -36q25 -13 63 -13z" />
    <glyph glyph-name="twothirds" unicode="&#x2154;" horiz-adv-x="855" 
d="M271 0h-96l429 718h96zM154 620l-4 4q-28 0 -48 -17q-19 -16 -33 -38l-35 59q4 13 15 28q9 12 26 28q15 14 36 21q22 8 48 8q33 0 56 -10t40 -27q17 -16 24 -39q8 -24 8 -45q0 -41 -20 -73q-19 -31 -54 -69l-49 -53h135v-89h-265v70l119 123q24 25 36 42t12 36
q0 17 -12 29t-35 12zM667 84l-4 -3q28 0 47 14q18 13 18 35q0 20 -16 30q-17 11 -43 11q-17 0 -30 -3q-12 -3 -19 -8l-14 62l75 85h-119v90h230v-64l-75 -83q15 -4 34 -12t32 -21q14 -14 23 -35t9 -51q0 -28 -11 -53q-10 -23 -30 -43q-20 -19 -48 -30q-27 -10 -63 -10
q-49 0 -81 21t-39 42l19 75q16 -23 42 -36q25 -13 63 -13z" />
    <glyph glyph-name="oneeighth" unicode="&#x215b;" horiz-adv-x="787" 
d="M201 0h-96l429 718h96zM40 623l101 78h63v-395h-83v281l-81 -50v86zM696 206l-1 -3q20 -13 35 -36q15 -24 15 -55q0 -25 -11 -49q-10 -23 -30 -39q-21 -17 -45 -26q-25 -9 -55 -9q-28 0 -54 9q-24 9 -45 26q-19 16 -30 39q-11 24 -11 50q0 31 15 55t35 36q-15 10 -27 32
q-12 21 -12 46q0 27 10 48q11 22 27 39q17 17 41 26t52 9q29 0 53 -9q26 -10 41 -25q17 -16 27 -39q10 -21 10 -48q0 -25 -12 -46t-28 -31zM605 312v-2q-23 0 -34 -10q-12 -10 -12 -25q0 -13 12 -24q13 -11 34 -11q22 0 33 11t11 24q0 15 -11 26t-33 11zM605 74h-1
q26 0 41 12t15 30t-15 30t-40 12t-40 -12t-15 -30t15 -30t40 -12z" />
    <glyph glyph-name="threeeighths" unicode="&#x215c;" horiz-adv-x="838" 
d="M252 0h-96l429 718h96zM747 206l-1 -3q20 -13 35 -36q15 -24 15 -55q0 -25 -11 -49q-11 -23 -30 -39q-21 -17 -45 -26q-26 -9 -55 -9t-54 9q-24 9 -45 26q-20 16 -30 39q-11 24 -11 50q0 31 15 55t35 36q-15 10 -27 32q-12 21 -12 46q0 27 10 48q10 22 27 39t41 26t52 9
q29 0 53 -9q26 -10 41 -25q16 -16 27 -39q10 -21 10 -48q0 -25 -12 -46t-28 -31zM656 312v-2q-23 0 -34 -10q-12 -10 -12 -25q0 -13 12 -24q13 -11 34 -11q22 0 33 11t11 24q0 15 -11 26t-33 11zM656 74h-1q26 0 41 12t15 30t-15 30t-40 12t-40 -12t-15 -30t15 -30t40 -12z
M150 381l-4 -3q28 0 47 14q18 14 18 35q0 20 -16 30q-17 11 -43 11q-16 0 -30 -3q-12 -3 -19 -8l-14 62l75 85h-119v90h230v-64l-75 -83q15 -4 34 -12t32 -21q14 -14 23 -35t9 -51q0 -28 -11 -53q-10 -23 -30 -43q-19 -20 -48 -30q-27 -10 -63 -10q-50 0 -81 21t-39 42
l19 75q17 -22 42 -36q25 -13 63 -13z" />
    <glyph glyph-name="fiveeighths" unicode="&#x215d;" horiz-adv-x="843" 
d="M257 0h-96l429 718h96zM219 434v-2q0 20 -16 32q-17 12 -37 12q-18 0 -33 -4q-17 -4 -27 -15l-55 16l22 226h206v-90h-143l-5 -52q7 2 21 4q8 1 20 1q30 0 53 -10q24 -10 42 -27q17 -15 28 -41q10 -23 10 -52q0 -32 -12 -57t-31 -43q-20 -18 -45 -27t-56 -9q-54 0 -85 21
q-32 21 -39 43l19 72q15 -20 42 -33q26 -13 57 -13q25 0 45 12q19 12 19 36zM752 204l-1 -3q20 -13 35 -36q15 -24 15 -55q0 -25 -11 -49q-10 -23 -30 -39q-21 -17 -45 -26q-25 -9 -55 -9q-28 0 -54 9q-24 9 -45 26q-19 16 -30 39q-11 24 -11 50q0 31 15 55t35 36
q-15 10 -27 32q-12 21 -12 46q0 27 10 48q11 22 27 39q17 17 41 26t52 9q29 0 53 -9q26 -10 41 -25q17 -16 27 -39q10 -21 10 -48q0 -25 -12 -46t-28 -31zM661 310v-2q-23 0 -34 -10q-12 -10 -12 -25q0 -13 12 -24q13 -11 34 -11q22 0 33 11t11 24q0 15 -11 26t-33 11z
M661 72h-1q26 0 41 12t15 30t-15 30t-40 12t-40 -12t-15 -30t15 -30t40 -12z" />
    <glyph glyph-name="seveneighths" unicode="&#x215e;" horiz-adv-x="764" 
d="M178 0h-96l429 718h96zM673 206l-1 -3q20 -13 35 -36q15 -24 15 -55q0 -25 -11 -49q-11 -23 -30 -39q-21 -17 -45 -26q-26 -9 -55 -9t-54 9q-24 9 -45 26q-20 16 -30 39q-11 24 -11 50q0 31 15 55t35 36q-15 10 -27 32q-12 21 -12 46q0 27 10 48q10 22 27 39t41 26t52 9
q29 0 53 -9q26 -10 41 -25q16 -16 27 -39q10 -21 10 -48q0 -25 -12 -46t-28 -31zM582 312v-2q-23 0 -34 -10q-12 -10 -12 -25q0 -13 12 -24q13 -11 34 -11q22 0 33 11t11 24q0 15 -11 26t-33 11zM582 74h-1q26 0 41 12t15 30t-15 30t-40 12t-40 -12t-15 -30t15 -30t40 -12z
M186 606h-154v90h252v-63l-147 -332h-87z" />
    <glyph glyph-name="arrowleft" unicode="&#x2190;" horiz-adv-x="715" 
d="M303 501v-176h355v-99h-355v-177l-266 226z" />
    <glyph glyph-name="arrowup" unicode="&#x2191;" horiz-adv-x="528" 
d="M490 376h-177v-353h-99v353h-176l226 266z" />
    <glyph glyph-name="arrowright" unicode="&#x2192;" horiz-adv-x="715" 
d="M412 325v176l266 -226l-266 -226v177h-355v99h355z" />
    <glyph glyph-name="arrowdown" unicode="&#x2193;" horiz-adv-x="528" 
d="M313 295h177l-226 -266l-226 266h176v353h99v-353z" />
    <glyph glyph-name="uni2196" unicode="&#x2196;" horiz-adv-x="583" 
d="M57 574l349 -28l-126 -126l250 -250l-69 -70l-251 250l-125 -124z" />
    <glyph glyph-name="uni2197" unicode="&#x2197;" horiz-adv-x="583" 
d="M177 546l349 28l-28 -348l-125 124l-251 -250l-69 70l250 250z" />
    <glyph glyph-name="uni2198" unicode="&#x2198;" horiz-adv-x="583" 
d="M406 125l-349 -28l28 348l125 -124l251 250l69 -70l-250 -250z" />
    <glyph glyph-name="uni2199" unicode="&#x2199;" horiz-adv-x="583" 
d="M526 97l-349 28l126 126l-250 250l69 70l251 -250l125 124z" />
    <glyph glyph-name="partialdiff" unicode="&#x2202;" horiz-adv-x="592" 
d="M251 731h-1q64 0 116 -28q53 -29 90 -82t58 -130t21 -171q0 -81 -19 -141q-20 -62 -54 -104q-35 -43 -81 -65q-45 -22 -100 -22q-49 0 -93 18q-43 18 -76 51t-51 77t-18 93t18 91q18 43 49 72q32 31 74 47q43 17 92 17q50 0 86 -16q38 -17 59 -42q-9 110 -59 165
q-50 54 -119 54q-36 0 -62 -10q-28 -11 -44 -24l-24 93q15 21 51 39t87 18zM285 103v-3q26 0 51 11q24 11 42 30q19 20 29 47t12 62q-17 41 -55 62q-39 21 -79 21q-28 0 -52 -9t-42 -24q-17 -14 -28 -36q-10 -20 -10 -46q0 -28 10 -48q11 -22 28 -36q19 -16 42 -23
q26 -8 52 -8z" />
    <glyph glyph-name="Delta" unicode="&#x2206;" horiz-adv-x="649" 
d="M641 0h-635q11 28 33 89.5t34 92.5l66 177l66 177q12 31 34 92.5t33 89.5h105zM487 112l-163 453l-164 -453h327z" />
    <glyph glyph-name="product" unicode="&#x220f;" horiz-adv-x="656" 
d="M569 718v-718h-107v603h-267v-603h-108v718h482z" />
    <glyph glyph-name="summation" unicode="&#x2211;" horiz-adv-x="563" 
d="M516 115v-115h-490v87l239 285l-229 259v87h462v-115h-299l205 -230l-222 -258h334z" />
    <glyph glyph-name="minus" unicode="&#x2212;" horiz-adv-x="543" 
d="M55 244v103h433v-103h-433z" />
    <glyph glyph-name="uni2215" unicode="&#x2215;" horiz-adv-x="525" 
d="M96 0h-96l429 718h96z" />
    <glyph glyph-name="uni2219" unicode="&#x2219;" horiz-adv-x="306" 
d="M74 331l-2 -1q0 34 23 57t57 23q35 0 57 -22q23 -23 23 -57q0 -35 -22 -57q-23 -23 -57 -23t-57 23q-22 22 -22 57z" />
    <glyph glyph-name="radical" unicode="&#x221a;" horiz-adv-x="681" 
d="M661 815l-263 -815h-105l-151 395h-118v112h188l126 -343l206 651h117z" />
    <glyph glyph-name="infinity" unicode="&#x221e;" horiz-adv-x="797" 
d="M567 139l-4 -1q-28 0 -55 8q-25 7 -46 21q-20 13 -37 30t-30 33q-13 -16 -30 -33t-37 -30q-21 -14 -46 -21q-27 -8 -55 -8q-38 0 -68 13q-33 14 -56 37q-25 25 -38 57q-14 34 -14 74t14 74q13 32 38 57q23 23 56 37q30 13 68 13q29 0 55 -9t46 -22q22 -14 38 -30
q16 -17 30 -33q12 18 29 35t37 30q21 14 46 21q27 8 57 8q38 0 68 -13q33 -14 56 -37q25 -25 38 -57q14 -34 14 -73q0 -40 -14 -74q-13 -32 -38 -57q-23 -23 -55 -37q-30 -13 -67 -13zM227 238l-1 -3q21 0 36 7q18 8 30 19q15 14 26 27q8 10 22 30q-14 20 -22 30
q-13 17 -25 27q-12 11 -30 19t-36 8q-33 0 -57 -24t-24 -58t24 -58t57 -24zM562 398v4q-21 0 -36 -7q-17 -8 -31 -19q-15 -12 -27 -27q-8 -10 -22 -30q14 -20 22 -30q12 -15 27 -27q14 -11 31 -19q15 -7 36 -7q16 0 31 6q14 6 27 17q12 10 18 26q6 15 6 32t-6 32
q-6 16 -18 26q-13 11 -27 17q-15 6 -31 6z" />
    <glyph glyph-name="integral" unicode="&#x222b;" horiz-adv-x="454" 
d="M167 570v-1q0 101 61 141q62 41 168 26v-112q-55 9 -88 -12t-33 -67v-585q0 -101 -61 -141t-168 -25v112q55 -9 88 12t33 67v585z" />
    <glyph glyph-name="approxequal" unicode="&#x2248;" horiz-adv-x="546" 
d="M69 89l-3 -1q-14 39 -14 67q0 53 35 83t87 30q30 0 54 -10q21 -9 48 -23q8 -4 22 -12t20 -11q19 -10 38 -10q16 0 27 9t11 29q0 11 -6 29h87q14 -36 14 -69q0 -52 -33 -82t-84 -30q-27 0 -54 11q-21 9 -48 23q-8 4 -22 12t-20 11q-20 11 -36 11q-18 0 -30 -9t-12 -28
q0 -13 6 -30h-87zM66 320l-3 -1q-14 39 -14 67q0 53 35 83q34 30 87 30q30 0 54 -10q21 -9 48 -23q8 -4 22 -12t20 -11q19 -10 38 -10q17 0 27 9q11 9 11 29q0 11 -6 29h87q14 -36 14 -69q0 -52 -33 -82t-84 -30q-27 0 -54 11q-21 9 -48 23q-8 4 -22 12t-20 11
q-20 11 -36 11q-18 0 -30 -9t-12 -28q0 -14 6 -30h-87z" />
    <glyph glyph-name="notequal" unicode="&#x2260;" horiz-adv-x="543" 
d="M240 138l-55 -105h-104l55 105h-81v103h136l57 109h-193v103h248l56 105h103l-55 -105h81v-103h-136l-57 -109h193v-103h-248z" />
    <glyph glyph-name="equivalence" unicode="&#x2261;" horiz-adv-x="543" 
d="M55 347h433v-103h-433v103zM55 147h433v-103h-433v103zM55 547h433v-103h-433v103z" />
    <glyph glyph-name="lessequal" unicode="&#x2264;" horiz-adv-x="543" 
d="M55 0v103h433v-103h-433zM488 590v-111l-275 -99l275 -98v-111l-433 162v95z" />
    <glyph glyph-name="greaterequal" unicode="&#x2265;" horiz-adv-x="543" 
d="M55 0v103h433v-103h-433zM488 428v-95l-433 -162v111l275 98l-275 99v111z" />
    <glyph glyph-name="uni2460" unicode="&#x2460;" horiz-adv-x="819" 
d="M409 731l-4 -4q77 0 146 -29q68 -28 118 -79q52 -52 80 -118q29 -69 29 -145q0 -75 -29 -144q-29 -67 -79 -118q-50 -50 -118 -79q-69 -29 -145 -29q-75 0 -144 29q-66 28 -118 80q-50 50 -79 119t-29 144q0 77 29 146q28 66 80 118t119 80q69 29 144 29zM405 48l-1 -1
q65 0 122 24t99 66t66 98t24 119q0 64 -24 119q-24 56 -66 98t-99 66t-122 24q-64 0 -121 -24t-99 -66q-41 -41 -67 -98q-25 -54 -25 -119t25 -119t68 -97q42 -42 99 -66t121 -24zM295 479l101 78h63v-395h-83v281l-81 -50v86z" />
    <glyph glyph-name="uni2461" unicode="&#x2461;" horiz-adv-x="819" 
d="M409 731l-4 -4q77 0 146 -29q68 -28 118 -79q52 -52 80 -118q29 -69 29 -145q0 -75 -29 -144q-29 -67 -79 -118q-50 -50 -118 -79q-69 -29 -145 -29q-75 0 -144 29q-66 28 -118 80q-50 50 -79 119t-29 144q0 77 29 146q28 66 80 118t119 80q69 29 144 29zM405 48l-1 -1
q65 0 122 24t99 66t66 98t24 119q0 64 -24 119q-24 56 -66 98t-99 66t-122 24q-64 0 -121 -24t-99 -66q-41 -41 -67 -98q-25 -54 -25 -119t25 -119t68 -97q42 -42 99 -66t121 -24zM393 476l-4 4q-28 0 -48 -17q-19 -16 -33 -38l-35 59q4 13 15 28q9 12 26 28q15 14 36 21
q22 8 48 8q33 0 56 -10t40 -27q16 -16 24 -39q8 -24 8 -45q0 -41 -20 -73q-20 -31 -54 -69l-49 -53h135v-89h-265v70l119 123q24 25 36 42t12 36q0 17 -12 29t-35 12z" />
    <glyph glyph-name="uni2462" unicode="&#x2462;" horiz-adv-x="819" 
d="M409 731l-4 -4q77 0 146 -29q68 -28 118 -79q52 -52 80 -118q29 -69 29 -145q0 -75 -29 -144q-29 -67 -79 -118q-50 -50 -118 -79q-69 -29 -145 -29q-75 0 -144 29q-66 28 -118 80q-50 50 -79 119t-29 144q0 77 29 146q28 66 80 118t119 80q69 29 144 29zM405 48l-1 -1
q65 0 122 24t99 66t66 98t24 119q0 64 -24 119q-24 56 -66 98t-99 66t-122 24q-64 0 -121 -24t-99 -66q-41 -41 -67 -98q-25 -54 -25 -119t25 -119t68 -97q42 -42 99 -66t121 -24zM393 242l-4 -3q28 0 47 14q18 13 18 35q0 20 -16 30q-17 11 -43 11q-17 0 -30 -3
q-12 -3 -19 -8l-14 62l75 85h-119v90h230v-64l-75 -83q15 -4 34 -12t32 -21q14 -14 23 -35t9 -51q0 -28 -11 -53q-10 -23 -30 -43q-20 -19 -48 -30q-27 -10 -63 -10q-49 0 -81 21t-39 42l19 75q16 -23 42 -36q25 -13 63 -13z" />
    <glyph glyph-name="uni2463" unicode="&#x2463;" horiz-adv-x="819" 
d="M409 731l-4 -4q77 0 146 -29q68 -28 118 -79q52 -52 80 -118q29 -69 29 -145q0 -75 -29 -144q-29 -67 -79 -118q-50 -50 -118 -79q-69 -29 -145 -29q-75 0 -144 29q-66 28 -118 80q-50 50 -79 119t-29 144q0 77 29 146q28 66 80 118t119 80q69 29 144 29zM405 48l-1 -1
q65 0 122 24t99 66t66 98t24 119q0 64 -24 119q-24 56 -66 98t-99 66t-122 24q-64 0 -121 -24t-99 -66q-41 -41 -67 -98q-25 -54 -25 -119t25 -119t68 -97q42 -42 99 -66t121 -24zM408 557h74v-204h46v-85h-46v-106h-82v106h-155v70zM400 353v86l-65 -86h65z" />
    <glyph glyph-name="uni2464" unicode="&#x2464;" horiz-adv-x="819" 
d="M409 731l-4 -4q77 0 146 -29q68 -28 118 -79q52 -52 80 -118q29 -69 29 -145q0 -75 -29 -144q-29 -67 -79 -118q-50 -50 -118 -79q-69 -29 -145 -29q-75 0 -144 29q-66 28 -118 80q-50 50 -79 119t-29 144q0 77 29 146q28 66 80 118t119 80q69 29 144 29zM405 48l-1 -1
q65 0 122 24t99 66t66 98t24 119q0 64 -24 119q-24 56 -66 98t-99 66t-122 24q-64 0 -121 -24t-99 -66q-41 -41 -67 -98q-25 -54 -25 -119t25 -119t68 -97q42 -42 99 -66t121 -24zM453 290v-2q0 20 -16 32q-17 12 -37 12q-18 0 -33 -4q-17 -4 -27 -15l-55 16l22 226h206v-90
h-143l-5 -52q7 2 21 4q8 1 20 1q30 0 53 -10q24 -10 42 -27q17 -15 28 -41q10 -23 10 -52q0 -32 -12 -57t-31 -43q-20 -18 -45 -27t-56 -9q-53 0 -85 21t-39 43l19 72q15 -20 42 -33q26 -13 57 -13q25 0 45 12q19 12 19 36z" />
    <glyph glyph-name="uni2465" unicode="&#x2465;" horiz-adv-x="819" 
d="M409 731l-4 -4q77 0 146 -29q68 -28 118 -79q52 -52 80 -118q29 -69 29 -145q0 -75 -29 -144q-29 -67 -79 -118q-50 -50 -118 -79q-69 -29 -145 -29q-75 0 -144 29q-66 28 -118 80q-50 50 -79 119t-29 144q0 77 29 146q28 66 80 118t119 80q69 29 144 29zM405 48l-1 -1
q65 0 122 24t99 66t66 98t24 119q0 64 -24 119q-24 56 -66 98t-99 66t-122 24q-64 0 -121 -24t-99 -66q-41 -41 -67 -98q-25 -54 -25 -119t25 -119t68 -97q42 -42 99 -66t121 -24zM401 424v-2q25 0 51 -9q24 -9 45 -26q20 -17 32 -41t12 -55q0 -29 -12 -54q-12 -26 -31 -45
q-20 -20 -45 -30q-24 -10 -54 -10t-57 11q-25 10 -45 29q-19 18 -30 44q-10 24 -10 54q0 33 14 64q13 30 30 54l96 149h92zM401 240v-1q22 0 39 14t17 35q0 23 -16 36q-17 14 -42 14q-23 0 -39 -13q-17 -14 -17 -36t17 -36q16 -13 41 -13z" />
    <glyph glyph-name="uni2466" unicode="&#x2466;" horiz-adv-x="819" 
d="M409 731l-4 -4q77 0 146 -29q68 -28 118 -79q52 -52 80 -118q29 -69 29 -145q0 -75 -29 -144q-29 -67 -79 -118q-50 -50 -118 -79q-69 -29 -145 -29q-75 0 -144 29q-66 28 -118 80q-50 50 -79 119t-29 144q0 77 29 146q28 66 80 118t119 80q69 29 144 29zM405 48l-1 -1
q65 0 122 24t99 66t66 98t24 119q0 64 -24 119q-24 56 -66 98t-99 66t-122 24q-64 0 -121 -24t-99 -66q-41 -41 -67 -98q-25 -54 -25 -119t25 -119t68 -97q42 -42 99 -66t121 -24zM433 467h-154v90h252v-63l-147 -332h-87z" />
    <glyph glyph-name="uni2467" unicode="&#x2467;" horiz-adv-x="819" 
d="M409 731l-4 -4q77 0 146 -29q68 -28 118 -79q52 -52 80 -118q29 -69 29 -145q0 -75 -29 -144q-29 -67 -79 -118q-50 -50 -118 -79q-69 -29 -145 -29q-75 0 -144 29q-66 28 -118 80q-50 50 -79 119t-29 144q0 77 29 146q28 66 80 118t119 80q69 29 144 29zM405 48l-1 -1
q65 0 122 24t99 66t66 98t24 119q0 64 -24 119q-24 56 -66 98t-99 66t-122 24q-64 0 -121 -24t-99 -66q-41 -41 -67 -98q-25 -54 -25 -119t25 -119t68 -97q42 -42 99 -66t121 -24zM490 368l-1 -3q20 -13 35 -36q15 -24 15 -55q0 -25 -11 -49q-10 -23 -30 -39
q-21 -17 -45 -26q-25 -9 -55 -9q-28 0 -54 9q-24 9 -45 26q-19 16 -30 39q-11 24 -11 50q0 31 15 55t35 36q-15 10 -27 32q-12 21 -12 46q0 27 10 48q11 22 27 39q17 17 41 26t52 9q29 0 53 -9q26 -10 41 -25q17 -16 27 -39q10 -21 10 -48q0 -25 -12 -46t-28 -31zM399 474
v-2q-23 0 -34 -10q-12 -10 -12 -25q0 -13 12 -24q13 -11 34 -11q22 0 33 11t11 24q0 15 -11 26t-33 11zM399 236h-1q26 0 41 12t15 30t-15 30t-40 12t-40 -12t-15 -30t15 -30t40 -12z" />
    <glyph glyph-name="uni2468" unicode="&#x2468;" horiz-adv-x="819" 
d="M409 731l-4 -4q77 0 146 -29q68 -28 118 -79q52 -52 80 -118q29 -69 29 -145q0 -75 -29 -144q-29 -67 -79 -118q-50 -50 -118 -79q-69 -29 -145 -29q-75 0 -144 29q-66 28 -118 80q-50 50 -79 119t-29 144q0 77 29 146q28 66 80 118t119 80q69 29 144 29zM405 48l-1 -1
q65 0 122 24t99 66t66 98t24 119q0 64 -24 119q-24 56 -66 98t-99 66t-122 24q-64 0 -121 -24t-99 -66q-41 -41 -67 -98q-25 -54 -25 -119t25 -119t68 -97q42 -42 99 -66t121 -24zM410 295l-1 1q-25 0 -51 9q-24 9 -45 26q-20 17 -32 41t-12 55q0 29 12 54q12 26 31 45
q20 20 45 30q24 10 54 10q33 0 57 -10q25 -10 45 -29q19 -18 30 -44q10 -24 10 -54q0 -35 -13 -64q-14 -30 -30 -54l-96 -149h-92zM409 478v-1q-23 0 -39 -13q-17 -14 -17 -34q0 -23 16 -36q17 -14 42 -14q23 0 39 13q17 14 17 36t-17 36q-16 13 -41 13z" />
    <glyph glyph-name="lozenge" unicode="&#x25ca;" horiz-adv-x="571" 
d="M539 359l-198 -359h-111l-198 359l198 359h111zM422 359l-137 248l-136 -248l136 -249z" />
    <glyph glyph-name="circle" unicode="&#x25cb;" horiz-adv-x="819" 
d="M409 731l-4 -4q77 0 146 -29q68 -28 118 -79q52 -52 80 -118q29 -69 29 -145q0 -75 -29 -144q-29 -67 -79 -118q-50 -50 -118 -79q-69 -29 -145 -29q-75 0 -144 29q-66 28 -118 80q-50 50 -79 119t-29 144q0 77 29 146q28 66 80 118t119 80q69 29 144 29zM405 48l-1 -1
q65 0 122 24t99 66t66 98t24 119q0 64 -24 119q-24 56 -66 98t-99 66t-122 24q-64 0 -121 -24t-99 -66q-41 -41 -67 -98q-25 -54 -25 -119t25 -119t68 -97q42 -42 99 -66t121 -24z" />
    <glyph glyph-name="H18533" unicode="&#x25cf;" horiz-adv-x="819" 
d="M409 731l-4 -4q77 0 146 -29q68 -28 118 -79q52 -52 80 -118q29 -69 29 -145q0 -75 -29 -144q-29 -67 -79 -118q-50 -50 -118 -79q-69 -29 -145 -29q-75 0 -144 29q-66 28 -118 80q-50 50 -79 119t-29 144q0 77 29 146q28 66 80 118t119 80q69 29 144 29z" />
    <glyph glyph-name="a19" unicode="&#x2713;" horiz-adv-x="968" 
d="M956 649l-602 -649h-87l-255 287l82 78l218 -248l567 611z" />
    <glyph glyph-name="a21" unicode="&#x2715;" horiz-adv-x="823" 
d="M781 69l-80 -79l-289 290l-290 -290l-80 79l290 290l-290 290l80 79l290 -290l289 290l80 -79l-290 -290z" />
    <glyph glyph-name="uni2776" unicode="&#x2776;" horiz-adv-x="819" 
d="M409 731l-4 -4q77 0 146 -29q68 -28 118 -79q52 -52 80 -118q29 -69 29 -145q0 -75 -29 -144q-29 -67 -79 -118q-50 -50 -118 -79q-69 -29 -145 -29q-75 0 -144 29q-66 28 -118 80q-50 50 -79 119t-29 144q0 77 29 146q28 66 80 118t119 80q69 29 144 29zM296 394l81 50
v-281h83v395h-63l-101 -78v-86z" />
    <glyph glyph-name="uni2777" unicode="&#x2777;" horiz-adv-x="819" 
d="M409 731l-4 -4q77 0 146 -29q68 -28 118 -79q52 -52 80 -118q29 -69 29 -145q0 -75 -29 -144q-29 -67 -79 -118q-50 -50 -118 -79q-69 -29 -145 -29q-75 0 -144 29q-66 28 -118 80q-50 50 -79 119t-29 144q0 77 29 146q28 66 80 118t119 80q69 29 144 29zM394 477l1 -4
q23 0 35 -12t12 -29q0 -20 -12 -36t-36 -42l-119 -123v-70h265v89h-135l49 53q34 37 54 69t20 73q0 24 -7 45q-7 22 -24 39t-40 27t-55 10q-26 0 -48 -8q-21 -8 -36 -21t-25 -28q-11 -15 -15 -28l35 -59q14 22 33 38q20 17 48 17z" />
    <glyph glyph-name="uni2778" unicode="&#x2778;" horiz-adv-x="819" 
d="M409 731l-4 -4q77 0 146 -29q68 -28 118 -79q52 -52 80 -118q29 -69 29 -145q0 -75 -29 -144q-29 -67 -79 -118q-50 -50 -118 -79q-69 -29 -145 -29q-75 0 -144 29q-66 28 -118 80q-50 50 -79 119t-29 144q0 77 29 146q28 66 80 118t119 80q69 29 144 29zM394 243l1 -2
q-37 0 -63 14q-26 13 -42 36l-19 -75q7 -21 39 -42t81 -21q33 0 63 11q28 10 48 30q19 19 30 44t11 53q0 30 -9 51t-23 35t-31 21q-19 8 -34 12l75 83v64h-230v-90h119l-75 -85l14 -62q7 5 20 8t30 3q26 0 43 -11q16 -10 16 -30t-18 -34q-17 -13 -46 -13z" />
    <glyph glyph-name="uni2779" unicode="&#x2779;" horiz-adv-x="819" 
d="M409 731l-4 -4q77 0 146 -29q68 -28 118 -79q52 -52 80 -118q29 -69 29 -145q0 -75 -29 -144q-29 -67 -79 -118q-50 -50 -118 -79q-69 -29 -145 -29q-75 0 -144 29q-66 28 -118 80q-50 50 -79 119t-29 144q0 77 29 146q28 66 80 118t119 80q69 29 144 29zM246 339v-70
h155v-106h82v106h46v85h-46v204h-74zM336 354l65 86v-86h-65z" />
    <glyph glyph-name="uni277A" unicode="&#x277a;" horiz-adv-x="819" 
d="M409 731l-4 -4q77 0 146 -29q68 -28 118 -79q52 -52 80 -118q29 -69 29 -145q0 -75 -29 -144q-29 -67 -79 -118q-50 -50 -118 -79q-69 -29 -145 -29q-75 0 -144 29q-66 28 -118 80q-50 50 -79 119t-29 144q0 77 29 146q28 66 80 118t119 80q69 29 144 29zM454 291l-5 1
q0 -24 -19 -36q-20 -12 -45 -12q-31 0 -57 13q-27 13 -42 33l-19 -72q7 -22 39 -43t86 -21q30 0 56 9t45 27q20 18 32 44t12 57q0 29 -10 52q-11 26 -28 41q-18 16 -42 27q-23 10 -52 10q-12 0 -20 -1q-14 -2 -21 -4l5 52h143v90h-206l-22 -226l55 -16q11 10 27 15
q15 4 33 4q21 0 38 -12t17 -32z" />
    <glyph glyph-name="uni277B" unicode="&#x277b;" horiz-adv-x="819" 
d="M409 731l-4 -4q77 0 146 -29q68 -28 118 -79q52 -52 80 -118q29 -69 29 -145q0 -75 -29 -144q-29 -67 -79 -118q-50 -50 -118 -79q-69 -29 -145 -29q-75 0 -144 29q-66 28 -118 80q-50 50 -79 119t-29 144q0 77 29 146q28 66 80 118t119 80q69 29 144 29zM490 558l-95 -1
l-96 -149q-17 -24 -30 -54q-13 -29 -13 -64q0 -27 11 -54q11 -26 30 -44q20 -19 45 -29q24 -10 57 -10q27 0 54 11q25 10 45 30t32 45t12 54q0 32 -12 56t-32 41q-21 17 -45 26q-25 9 -51 9zM399 242v-2q-25 0 -41 13q-17 14 -17 36t17 36t39 14q25 0 42 -14q16 -13 16 -36
q0 -20 -17 -34q-16 -13 -39 -13z" />
    <glyph glyph-name="uni277C" unicode="&#x277c;" horiz-adv-x="819" 
d="M409 731l-4 -4q77 0 146 -29q68 -28 118 -79q52 -52 80 -118q29 -69 29 -145q0 -75 -29 -144q-29 -67 -79 -118q-50 -50 -118 -79q-69 -29 -145 -29q-75 0 -144 29q-66 28 -118 80q-50 50 -79 119t-29 144q0 77 29 146q28 66 80 118t119 80q69 29 144 29zM298 163h87
l147 332v63h-252v-90h154z" />
    <glyph glyph-name="uni277D" unicode="&#x277d;" horiz-adv-x="819" 
d="M409 731l-4 -4q77 0 146 -29q68 -28 118 -79q52 -52 80 -118q29 -69 29 -145q0 -75 -29 -144q-29 -67 -79 -118q-50 -50 -118 -79q-69 -29 -145 -29q-75 0 -144 29q-66 28 -118 80q-50 50 -79 119t-29 144q0 77 29 146q28 66 80 118t119 80q69 29 144 29zM491 369l-2 -3
q17 11 29 32t12 46q0 27 -10 48q-10 22 -27 39t-41 26t-52 9t-52 -9q-26 -10 -41 -25q-17 -16 -27 -39q-10 -21 -10 -48q0 -25 12 -46q12 -20 27 -31q-20 -12 -35 -36t-15 -55q0 -25 11 -49q10 -22 30 -39q21 -17 45 -26q25 -9 54 -9q31 0 56 9q24 9 45 26q20 17 30 39
q11 24 11 50q0 31 -15 55q-15 23 -35 36zM399 475v-2q23 0 33 -10q11 -11 11 -25q0 -13 -11 -24t-33 -11q-21 0 -34 11q-12 10 -12 24q0 15 12 26q13 11 34 11zM399 237h-1q-25 0 -40 12t-15 30t15 30t40 12q26 0 41 -12t15 -30t-15 -30t-40 -12z" />
    <glyph glyph-name="uni277E" unicode="&#x277e;" horiz-adv-x="819" 
d="M409 731l-4 -4q77 0 146 -29q68 -28 118 -79q52 -52 80 -118q29 -69 29 -145q0 -75 -29 -144q-29 -67 -79 -118q-50 -50 -118 -79q-69 -29 -145 -29q-75 0 -144 29q-66 28 -118 80q-50 50 -79 119t-29 144q0 77 29 146q28 66 80 118t119 80q69 29 144 29zM323 163l92 -3
l96 149q17 24 30 54q14 31 14 64q0 30 -10 54q-11 26 -30 44q-20 19 -45 29q-27 11 -57 11q-27 0 -54 -11q-25 -10 -45 -29q-18 -17 -31 -44q-12 -25 -12 -54q0 -31 12 -55t32 -41q21 -17 45 -26q26 -9 51 -9zM411 475v-1q25 0 41 -13q17 -14 17 -36t-17 -36
q-16 -13 -39 -13q-25 0 -42 14q-16 13 -16 36q0 21 17 35t39 14z" />
    <glyph glyph-name="uni27E6" unicode="&#x27e6;" horiz-adv-x="589" 
d="M104 -174v892h410v-113h-101v-666h101v-113h-410zM309 -61v666h-101v-666h101z" />
    <glyph glyph-name="uni27E7" unicode="&#x27e7;" horiz-adv-x="589" 
d="M75 -174v113h101v666h-101v113h410v-892h-410zM381 -61v666h-101v-666h101z" />
    <glyph glyph-name="uni2E28" unicode="&#x2e28;" horiz-adv-x="589" 
d="M333 713l-2 1q-77 -106 -109 -220q-31 -112 -31 -222q0 -105 32 -219q31 -111 110 -222l-98 -9q-80 95 -116 209t-36 240q0 128 36 242t116 209zM545 714l-2 1q-77 -106 -109 -220q-31 -112 -31 -222q0 -105 32 -219q31 -111 110 -222l-98 -9q-80 95 -116 209t-36 240
q0 128 36 242t116 209z" />
    <glyph glyph-name="uni2E29" unicode="&#x2e29;" horiz-adv-x="589" 
d="M42 714v-1l98 9q80 -95 116 -209t36 -242q0 -126 -36 -240t-116 -209l-98 9q77 108 109 222q31 111 31 219q0 110 -31 222q-32 114 -109 220zM256 715v-1l98 9q80 -95 116 -209t36 -242q0 -126 -36 -240t-116 -209l-98 9q77 108 109 222q31 111 31 219q0 110 -31 222
q-32 114 -109 220z" />
    <glyph glyph-name="anglebracketleft" unicode="&#x3008;" horiz-adv-x="402" 
d="M192 272l164 -446h-104l-184 446l184 446h104z" />
    <glyph glyph-name="anglebracketright" unicode="&#x3009;" horiz-adv-x="402" 
d="M46 -174l164 446l-164 446h104l184 -446l-184 -446h-104z" />
    <glyph glyph-name="Germandbls" unicode="&#xf485;" horiz-adv-x="965" 
d="M361 365l1 -3q44 -38 71 -80t27 -101q0 -44 -15 -80q-15 -37 -42 -62t-66 -39q-40 -14 -86 -14q-35 0 -73 11q-34 10 -66 29q-30 18 -51 39t-30 44l34 110q32 -50 83 -80t107 -30q43 0 66 19q24 20 24 54q0 26 -15 47q-16 22 -40 42q-17 14 -50.5 41t-47.5 39
q-41 33 -68 62q-31 33 -50 66q-20 35 -20 79q0 40 15 72q15 31 41 54q25 22 60 34q34 12 75 12q30 0 60 -8q29 -8 53 -21q25 -14 42 -31q20 -20 29 -37l-23 -109q-28 40 -74 63q-44 22 -88 22q-14 0 -27 -3t-24 -9t-18 -16t-7 -25q0 -22 18 -42q16 -18 35 -33q30 -26 50 -41
q34 -26 38 -30q24 -20 29 -24q16 -14 23 -21zM831 362l1 -3q44 -38 71 -80t27 -101q0 -44 -15 -80q-15 -37 -42 -62q-27 -26 -66 -39q-40 -14 -86 -14q-35 0 -73 11q-34 10 -66 29q-30 18 -51 39t-30 44l34 110q32 -50 83 -80t107 -30q43 0 66 19q24 19 24 54q0 26 -15 47
q-16 22 -40 42q-17 14 -50.5 41t-47.5 39q-41 33 -68 62q-31 33 -50 66q-20 35 -20 79q0 41 15 72t41 54q25 22 60 34q34 12 75 12q30 0 60 -8q29 -8 53 -21q25 -14 42 -31q20 -20 29 -37l-23 -109q-28 40 -74 63q-44 22 -88 22q-14 0 -27 -3t-24 -9t-18 -16t-7 -25
q0 -23 18 -42q16 -18 35 -33q30 -26 50 -41q34 -26 38 -30q24 -20 29 -24q16 -14 23 -21z" />
    <glyph glyph-name="commaaccent" unicode="&#xf6c3;" horiz-adv-x="220" 
d="M87 -185l-2 -1q-15 4 -31 20q-15 15 -15 41q0 29 21 48q20 19 51 19q30 0 50 -20t20 -48q0 -22 -9 -42q-6 -13 -20 -39l-46 -78h-68z" />
    <glyph glyph-name="fi" unicode="&#xfb01;" horiz-adv-x="677" 
d="M599 507v-507h-109v507h109zM400 391l-168 1v-391h-109v391h-91v116h91v63q0 81 42 126t124 45q38 0 68 -15q31 -15 45 -34l-15 -95q-17 14 -36 21q-21 8 -45 8q-28 0 -51 -18q-22 -18 -22 -58v-44h167v-116zM469 660l-1 -1q0 32 21 53t53 21t54 -21t22 -52
q0 -32 -22 -54t-54 -22q-31 0 -52 22t-21 54z" />
    <glyph glyph-name="fl" unicode="&#xfb02;" horiz-adv-x="678" 
d="M490 728h109v-728h-109v728zM400 391l-168 1v-391h-109v391h-91v116h91v63q0 81 42 126t124 45q38 0 68 -15q31 -15 45 -34l-15 -95q-17 14 -36 21q-21 8 -45 8q-28 0 -51 -18q-22 -18 -22 -58v-44h167v-116z" />
    <glyph glyph-name="uniFEFF" unicode="&#xfeff;" horiz-adv-x="0" 
 />
    <glyph glyph-name="percent.tnum" 
d="M541 479l-482 -341v105l482 341v-105zM330 579h-2q0 -29 -11 -57t-31 -48q-21 -21 -49 -33q-29 -12 -61 -12t-61 12q-28 12 -49 33q-20 20 -31 48t-11 57t11 57q10 26 32 48q21 21 49 33q29 12 61 12q33 0 61 -12t49 -33q22 -22 32 -48q11 -28 11 -57zM242 579
q0 25 -18 43t-48 18t-48 -18t-18 -43t18 -43t48 -18t48 18t18 43zM572 139h-2q0 -29 -11 -57t-31 -48q-21 -21 -49 -33q-29 -12 -61 -12t-61 12q-28 12 -49 33q-20 20 -31 48t-11 57t11 57q10 26 32 48q21 21 49 33t61 12t61 -12t49 -33q22 -22 32 -48q11 -28 11 -57z
M484 139q0 25 -18 43t-48 18t-48 -18t-18 -43t18 -43t48 -18t48 18t18 43z" />
    <glyph glyph-name="plus.tnum" 
d="M252 347v165h95v-165h169v-103h-169v-165h-95v165h-169v103h169z" />
    <glyph glyph-name="comma.tnum" 
d="M284 1l-1 2q-22 6 -39 25q-18 20 -18 54q0 35 25 59t63 24q36 0 60 -25q24 -26 24 -63q0 -31 -10 -54q-10 -24 -24 -48l-71 -124h-79z" />
    <glyph glyph-name="period.tnum" 
d="M227 76q0 38 25 63t63 25t63 -25t25 -63t-25 -63q-26 -26 -63 -26t-63 26q-25 25 -25 63z" />
    <glyph glyph-name="slash.case" horiz-adv-x="474" 
d="M109 -96h-109l365 892h109z" />
    <glyph glyph-name="less.tnum" 
d="M516 532v-111l-288 -125l288 -124v-111l-433 188v95z" />
    <glyph glyph-name="equal.tnum" 
d="M83 350v103h433v-103h-433zM83 138v103h433v-103h-433z" />
    <glyph glyph-name="greater.tnum" 
d="M83 421v111l433 -188v-95l-433 -188v111l288 124z" />
    <glyph glyph-name="at.case" horiz-adv-x="957" 
d="M563 307l-1 1q-8 12 -32 20q-26 8 -54 8q-43 0 -66 -13q-24 -13 -24 -36q0 -25 24 -39q23 -13 66 -13q30 0 54 10q26 11 33 27v35zM654 311h-7q0 -28 15 -49t45 -21q23 0 39 14q15 13 24 35q9 21 12 45t3 45q0 69 -25 123q-25 55 -68 96t-98 62q-56 21 -117 21
q-67 0 -123 -25t-100 -69q-43 -43 -67 -103t-24 -129q0 -71 22 -128q23 -58 63 -102t99 -69q57 -25 132 -25q54 0 96 12q43 12 80 42l18 -83q-30 -30 -83 -49q-51 -18 -111 -18q-86 0 -162 32q-74 31 -129 89t-86 134q-31 75 -31 167q0 89 31 164q31 76 86 134q54 57 128 90
t159 33q80 0 152 -30t128 -83q55 -52 88 -126t33 -160q0 -46 -9 -90t-28 -76q-20 -34 -51 -53q-32 -20 -80 -20q-42 0 -70 15t-51 41q-17 -23 -55 -39q-40 -17 -82 -17q-70 0 -114 36t-44 102q0 32 13 57t36 43t51 27t62 9q38 0 66 -9t40 -21v16q0 25 -9 42q-8 15 -23 25
q-14 9 -31 12q-18 3 -34 3q-36 0 -73 -17q-36 -17 -56 -41l-21 80q11 17 29 32q16 14 39 25q19 10 45 16q24 6 47 6q41 0 72 -10q33 -10 57 -30q25 -20 38 -51q14 -33 14 -72v-110z" />
    <glyph glyph-name="Q.ss02" horiz-adv-x="803" 
d="M401 731l-3 2q75 0 140 -28q67 -29 116 -78t79 -118t30 -148q0 -78 -27 -144q-26 -64 -74 -115l122 -156h-139l-70 89q-79 -46 -174 -46q-73 0 -140 29t-116 78t-79 117q-30 67 -30 147t30 147q30 68 79 117t116 78t140 29zM399 611l-2 -3q-53 0 -98 -18q-44 -18 -79 -51
t-54 -79q-19 -45 -19 -102t19 -101q20 -45 54 -78t80 -51q45 -18 98 -18q52 0 101 20l-123 159h139l73 -95q27 31 42 74q15 42 15 93q0 57 -19 102q-20 47 -52 79q-33 33 -78 51t-97 18z" />
    <glyph glyph-name="backslash.case" horiz-adv-x="474" 
d="M474 -96h-109l-365 892h109z" />
    <glyph glyph-name="asciitilde.tnum" 
d="M95 205l-3 -1q-14 39 -14 67q0 53 35 83t87 30q30 0 54 -10q21 -9 48 -23q8 -4 22 -12t20 -11q19 -10 38 -10q16 0 27 9t11 29q0 11 -6 29h87q14 -36 14 -69q0 -52 -33 -82t-84 -30q-27 0 -54 11q-21 9 -48 23q-8 4 -22 12t-20 11q-20 11 -36 11q-18 0 -30 -9t-12 -28
q0 -13 6 -30h-87z" />
    <glyph glyph-name="plusminus.tnum" 
d="M83 0v103h433v-103h-433zM252 431v160h95v-160h169v-104h-169v-160h-95v160h-169v104h169z" />
    <glyph glyph-name="multiply.tnum" 
d="M230 300l-141 140l67 67l140 -140l143 142l73 -72l-143 -143l141 -140l-68 -67l-140 141l-142 -143l-72 72z" />
    <glyph glyph-name="divide.tnum" 
d="M86 347h429v-103h-429v103zM226 492l-2 -1q0 32 23 53t54 21t54 -23t23 -54q0 -32 -22 -54t-54 -22t-54 24q-22 23 -22 56zM224 103l-2 -1q0 32 23 53t54 21t54 -23t23 -54q0 -32 -22 -54t-54 -22t-54 24q-22 23 -22 56z" />
    <glyph glyph-name="florin.tnum" 
d="M219 584v-1q14 76 57 116q44 41 114 41q45 0 80 -16q36 -16 52 -49l-23 -93q-17 20 -39 32t-54 12q-27 0 -51 -15t-31 -52l-23 -125h162v-113h-182l-95 -534h-108l95 534h-91v113h111z" />
    <glyph glyph-name="minus.tnum" 
d="M83 244v103h433v-103h-433z" />
    <glyph glyph-name="approxequal.tnum" 
d="M96 89l-3 -1q-14 39 -14 67q0 53 35 83q34 30 87 30q30 0 54 -10q21 -9 48 -23q8 -4 22 -12t20 -11q19 -10 38 -10q17 0 27 9q11 9 11 29q0 11 -6 29h87q14 -36 14 -69q0 -52 -33 -82t-84 -30q-27 0 -54 11q-21 9 -48 23q-8 4 -22 12t-20 11q-20 11 -36 11q-18 0 -30 -9
t-12 -28q0 -13 6 -30h-87zM93 320l-3 -1q-14 39 -14 67q0 53 35 83t87 30q30 0 54 -10q21 -9 48 -23q8 -4 22 -12t20 -11q19 -10 38 -10q16 0 27 9t11 29q0 11 -6 29h87q14 -36 14 -69q0 -52 -33 -82t-84 -30q-27 0 -54 11q-21 9 -48 23q-8 4 -22 12t-20 11q-20 11 -36 11
q-18 0 -30 -9t-12 -28q0 -14 6 -30h-87z" />
    <glyph glyph-name="notequal.tnum" 
d="M268 138l-55 -105h-104l55 105h-81v103h136l57 109h-193v103h248l56 105h103l-55 -105h81v-103h-136l-57 -109h193v-103h-248z" />
    <glyph glyph-name="lessequal.tnum" 
d="M83 0v103h433v-103h-433zM516 590v-111l-275 -99l275 -98v-111l-433 162v95z" />
    <glyph glyph-name="greaterequal.tnum" 
d="M516 103v-103h-433v103h433zM83 479v111l433 -162v-95l-433 -162v111l275 98z" />
    <glyph glyph-name="zero.tnum_onum" 
d="M563 253l-2 -1q0 -56 -21 -106q-21 -49 -57 -85q-35 -35 -84 -55t-100 -20t-100 20q-47 19 -84 56q-36 36 -57 85q-21 50 -21 106q0 57 21 106t57 85q37 37 84 56q49 20 101 20t101 -20q47 -19 84 -56q36 -36 57 -85q21 -50 21 -106zM146 252v-1q0 -34 12 -61
q12 -28 33 -47q21 -20 49 -30q30 -11 60 -11t60 11q28 10 49 30q21 19 33 47q12 27 12 60q0 34 -12 63t-33 48q-21 20 -49 30q-30 11 -60 11t-60 -11q-28 -10 -49 -30q-21 -19 -33 -48t-12 -61z" />
    <glyph glyph-name="one.tnum_onum" 
d="M115 378l167 129h90v-385h169v-122h-449v122h171v243l-148 -104v117z" />
    <glyph glyph-name="two.tnum_onum" 
d="M378 154l-1 -1q-2 -1 -4 -2.5t-5.5 -4t-5.5 -3.5l-19 -13q-12 -8 -17 -11q-8 -5 -9 -6h199v-113h-433v87q36 20 85 48q5 3 28.5 17t35.5 21q28 16 42 26q20 11 41 26q21 14 35 30q17 18 26 33q10 16 10 36q0 37 -29 57t-71 20q-49 0 -87 -23q-37 -22 -60 -62l-49 77
q8 23 24 45q15 21 41 40q25 19 59 29q36 11 76 11q50 0 87 -15q39 -16 65 -40q27 -25 40 -58q14 -34 14 -70q0 -33 -10 -59t-27 -49q-15 -20 -38 -40t-43 -33z" />
    <glyph glyph-name="three.tnum_onum" 
d="M283 -110h-4q61 0 98 33q38 33 38 87q0 24 -9 45q-9 20 -27 37q-17 16 -42 25q-24 9 -55 9q-25 0 -42 -4q-22 -5 -33 -10l-18 85l154 197h-232v113h375v-88l-146 -186q32 -3 65 -18t60 -42q28 -28 44 -67q17 -42 17 -93q0 -47 -18 -91q-18 -43 -51 -76q-32 -32 -78 -52
q-44 -19 -100 -19q-39 0 -73 9t-61 24t-47 35q-20 19 -27 39l29 100q28 -41 74 -67q44 -25 109 -25z" />
    <glyph glyph-name="four.tnum_onum" 
d="M350 507h101v-394h86v-113h-86v-213h-109v213h-281v92zM342 113v222l-154 -222h154z" />
    <glyph glyph-name="five.tnum_onum" 
d="M283 -226h-7q-38 0 -73 9t-62 24t-47 35t-27 39l29 100q28 -41 74 -67q44 -25 108 -25q58 0 95 33q38 33 38 90q0 30 -10 51q-11 23 -27 38q-17 16 -39 23q-24 8 -48 8q-65 0 -109 -37l-81 18l35 395h342v-113h-253l-14 -167q23 10 45 15q25 5 48 5q48 0 89 -18
q42 -19 71 -49q31 -32 47 -74q17 -43 17 -91q0 -52 -18 -95q-17 -42 -50 -76q-31 -33 -76 -52q-44 -19 -97 -19z" />
    <glyph glyph-name="six.tnum_onum" 
d="M268 463l-5 -1q10 2 17 2h20q50 0 93 -18t75 -50t50 -74t18 -90q0 -52 -19 -96q-20 -46 -52 -78q-33 -32 -76 -52q-42 -19 -91 -19q-52 0 -95 18t-75 51q-30 32 -49 77q-18 44 -18 95q0 62 22 113q25 57 49 98l169 279h123zM296 102l-2 -2q27 0 51 9q23 9 42 26
q17 16 28 39q10 21 10 48q0 26 -9 48t-27 39t-42 27q-23 10 -54 10q-27 0 -51 -9t-40 -25t-27 -39q-10 -21 -10 -51q0 -28 10 -49q11 -24 28 -38q18 -15 42 -24t51 -9z" />
    <glyph glyph-name="seven.tnum_onum" 
d="M382 394h-293v113h421v-81l-263 -639h-115z" />
    <glyph glyph-name="eight.tnum_onum" 
d="M440 375v-3q44 -27 68 -72t24 -99q0 -46 -18 -85q-19 -41 -49 -68q-31 -28 -74 -45q-41 -16 -92 -16q-49 0 -92 17q-41 16 -73 45q-30 27 -49 68q-18 39 -18 86q0 54 24 99t68 72q-28 19 -51 59q-22 38 -22 90q0 43 15 80t44 66q28 28 68 45t86 17q48 0 86 -16
q40 -17 68 -45q29 -28 45 -66q16 -36 16 -80q0 -52 -22 -90q-23 -40 -52 -59zM299 612v-1q-24 0 -45 -8q-20 -7 -33 -21t-21 -30q-7 -15 -7 -33q0 -19 7 -34q8 -17 21 -30t33 -21q21 -8 45 -8t45 8q20 8 33 21t21 30q7 15 7 35q0 18 -7 33q-8 17 -21 30t-33 21q-21 8 -45 8z
M299 99l-1 -1q28 0 50 9q21 9 39 23q17 14 26 33t9 42q0 47 -34 78t-90 31q-28 0 -50 -9t-39 -24q-16 -15 -25 -34t-9 -42t9 -42t26 -33q15 -13 39 -22q23 -9 50 -9z" />
    </font>
</defs>
</svg>
