<?xml version="1.0" standalone="no"?>
<!DOCTYPE svg PUBLIC "-//W3C//DTD SVG 1.1//EN" "http://www.w3.org/Graphics/SVG/1.1/DTD/svg11.dtd" >
<svg xmlns="http://www.w3.org/2000/svg" xmlns:xlink="http://www.w3.org/1999/xlink" version="1.1">
<metadata>
Created by FontForge 20170731 at Mon Aug 17 06:10:05 2015
 By Aleksey,,,
Copyright (c) 2014 by Vyacheslav Kirilenko, Gayane Bagdasaryan. All rights reserved.
</metadata>
<defs>
<font id="Gerbera" horiz-adv-x="600" >
  <font-face 
    font-family="Gerbera"
    font-weight="400"
    font-stretch="normal"
    units-per-em="1000"
    panose-1="2 0 5 0 0 0 0 0 0 0"
    ascent="767"
    descent="-233"
    x-height="499"
    cap-height="718"
    bbox="-170 -289 1472 1039"
    underline-thickness="50"
    underline-position="-200"
    unicode-range="U+000D-FEFF"
  />
<missing-glyph horiz-adv-x="571" 
d="M90 718h391v-718h-391v718zM390 96v526h-209v-526h209z" />
    <glyph glyph-name=".notdef" horiz-adv-x="571" 
d="M90 718h391v-718h-391v718zM390 96v526h-209v-526h209z" />
    <glyph glyph-name=".null" horiz-adv-x="0" 
 />
    <glyph glyph-name=".null" horiz-adv-x="0" 
 />
    <glyph glyph-name="nonmarkingreturn" unicode="&#xd;" horiz-adv-x="270" 
 />
    <glyph glyph-name="space" unicode=" " horiz-adv-x="270" 
 />
    <glyph glyph-name="exclam" unicode="!" horiz-adv-x="362" 
d="M144 230l-26 488h126l-26 -488h-74zM115 58q0 29 19 48t48 19t48 -19t19 -48t-19 -48t-48 -19t-48 19t-19 48z" />
    <glyph glyph-name="quotedbl" unicode="&#x22;" horiz-adv-x="408" 
d="M55 718h106l-17 -240h-72zM247 718h106l-17 -240h-72z" />
    <glyph glyph-name="numbersign" unicode="#" horiz-adv-x="650" 
d="M585 473h-108l-20 -111h99v-90h-115l-31 -176h-82l31 176h-116l-31 -176h-82l31 176h-96v90h112l20 111h-103v90h119l28 155h82l-28 -155h116l28 155h82l-28 -155h92v-90zM259 362h116l20 111h-116z" />
    <glyph glyph-name="dollar" unicode="$" horiz-adv-x="489" 
d="M353 356l-3 1q20 -17 40 -39q17 -19 30 -41q13 -23 20 -45t7 -52q0 -74 -43 -123q-44 -50 -115 -63v-103h-91v103q-29 6 -58 18q-27 11 -51 29q-23 17 -38 35q-14 17 -22 36l29 96q33 -52 84 -84q52 -32 108 -32q51 0 75 24t24 62q0 28 -17 54q-16 26 -42 45
q-86 72 -104 87q-43 37 -65 60q-32 34 -51 68q-18 33 -18 74q0 67 40 108q41 43 105 53v102h91v-106q44 -11 77 -36t51 -57l-21 -94q-28 37 -72 64q-43 27 -90 27q-35 0 -59 -15t-24 -50q0 -26 19 -49q19 -24 39 -39q12 -10 33 -26t29 -23q24 -19 39 -33q13 -12 26 -21
q11 -7 18 -15z" />
    <glyph glyph-name="percent" unicode="%" horiz-adv-x="889" 
d="M190 0l413 718h96l-413 -718h-96zM219 378l-2 -4q-36 0 -70 14q-32 13 -57 38q-23 23 -37 56q-13 30 -13 68t13 68q14 33 37 56q25 25 57 38q34 14 71 14t71 -14q32 -13 57 -38q24 -24 37 -55q13 -30 13 -67t-13 -67q-13 -31 -37 -55q-25 -25 -57 -38q-34 -14 -70 -14z
M217 636q-42 0 -66 -26t-24 -60t24 -60t66 -26t66 26t24 60t-24 60t-66 26zM668 -14l-2 -4q-36 0 -70 14q-32 13 -57 38q-23 23 -37 56q-13 30 -13 68t13 68q14 33 37 56q25 25 57 38q34 14 71 14t71 -14q32 -13 57 -38q23 -23 37 -55q13 -30 13 -67t-13 -67
q-14 -32 -37 -55q-25 -25 -57 -38q-34 -14 -70 -14zM666 244q-42 0 -66 -26t-24 -60t24 -60t66 -26t66 26t24 60t-24 60t-66 26z" />
    <glyph glyph-name="ampersand" unicode="&#x26;" horiz-adv-x="635" 
d="M638 0l-117 -2l-73 82q-37 -43 -89 -69q-50 -25 -118 -25q-47 0 -83 15t-62 41q-25 25 -39 59q-13 32 -13 71q0 34 10 61q11 31 28 53q18 24 42 45q22 19 50 39l16 12l-10 12q-38 48 -57 84q-19 35 -19 77q0 35 14 68q13 30 38 55q23 23 57 37t72 14q40 0 74 -14
q33 -14 56 -38q24 -25 35 -55q12 -31 12 -67q0 -25 -9 -49q-8 -22 -26 -46q-15 -21 -39 -43q-22 -21 -48 -39l-16 -12l124 -144q19 32 32 57q16 33 29 65l39 -86q-16 -51 -45 -99zM279 628v-2q-40 0 -63 -22q-24 -22 -24 -54q0 -29 15 -53t32 -44l24 -27l14 11q17 11 33 24
q18 15 29 27q13 14 20 29q8 16 8 31q0 38 -25 59q-26 21 -63 21zM249 84l-1 -2q38 0 73 15t69 48l-142 166l-13 -9l-36 -27q-18 -14 -32 -29q-12 -14 -22 -33q-9 -18 -9 -40q0 -41 30 -65t83 -24z" />
    <glyph glyph-name="quotesingle" unicode="'" horiz-adv-x="216" 
d="M55 718h106l-17 -240h-72z" />
    <glyph glyph-name="parenleft" unicode="(" horiz-adv-x="363" 
d="M318 714h-2q-76 -109 -106 -223t-30 -223q0 -106 30 -219q30 -111 107 -222l-83 -8q-80 96 -114 210q-34 112 -34 240q0 127 35 243q35 115 114 209z" />
    <glyph glyph-name="parenright" unicode=")" horiz-adv-x="363" 
d="M45 714l83 7q79 -94 114 -209q34 -112 34 -243q0 -128 -34 -240q-34 -114 -114 -210l-83 8q76 108 106 222q30 113 30 219q0 109 -30 223t-106 223z" />
    <glyph glyph-name="asterisk" unicode="*" horiz-adv-x="499" 
d="M90 352l90 126l-150 50l29 82l147 -47v155h85v-155l149 48l29 -83l-151 -50l91 -125l-67 -50l-93 127l-92 -126z" />
    <glyph glyph-name="plus" unicode="+" horiz-adv-x="539" 
d="M227 341v163h85v-163h167v-93h-167v-161h-85v161h-167v93h167z" />
    <glyph glyph-name="comma" unicode="," horiz-adv-x="299" 
d="M126 -3h-2q-16 5 -32 20q-15 15 -15 45t21 50q22 20 51 20t51 -20q21 -20 21 -51q0 -25 -9 -45q-6 -13 -20 -39l-65 -117h-64z" />
    <glyph glyph-name="hyphen" unicode="-" horiz-adv-x="466" 
d="M391 318v-87h-316v87h316z" />
    <glyph glyph-name="period" unicode="." horiz-adv-x="299" 
d="M78 61q0 31 21 52t52 21q30 0 51 -21t21 -52t-21 -52t-51 -21q-31 0 -52 21t-21 52z" />
    <glyph glyph-name="slash" unicode="/" horiz-adv-x="465" 
d="M99 -178h-99l367 896h98z" />
    <glyph glyph-name="zero" unicode="0" horiz-adv-x="606" 
d="M303 730h-2q56 0 101 -24t77 -71q31 -46 48 -116q17 -71 17 -159t-17 -159q-17 -70 -48 -116q-32 -48 -76 -71q-45 -24 -101 -24t-101 24q-44 23 -76 71q-31 46 -48 116q-17 71 -17 159t17 159q17 70 48 116q32 47 77 71t101 24zM301 90l-2 -2q65 0 107 69t42 200
t-42 200t-106 69t-106 -69t-42 -199t42 -199t107 -69z" />
    <glyph glyph-name="one" unicode="1" horiz-adv-x="411" 
d="M60 595l160 123h84v-718h-94v596l-150 -108v107z" />
    <glyph glyph-name="two" unicode="2" horiz-adv-x="524" 
d="M239 628h-3q-28 0 -52 -9q-25 -10 -42 -22q-17 -13 -31 -30q-12 -15 -22 -33l-42 71q7 25 26 48q18 22 43 40q24 17 57 28q30 10 68 10q51 0 87 -16q38 -17 63 -45t39 -66q14 -39 14 -79q0 -39 -9 -73t-27 -69q-17 -32 -44 -69q-21 -28 -59 -75l-119 -140h279v-101h-413
v82l190 223q47 56 78 107q30 50 30 104q0 25 -7 45q-8 22 -22 36q-15 15 -36 24t-46 9z" />
    <glyph glyph-name="three" unicode="3" horiz-adv-x="531" 
d="M246 90h1q64 0 102 35t38 95q0 27 -10 48q-11 22 -30 39q-20 17 -46 27t-60 10q-19 0 -35 -3q-20 -4 -30 -7l-17 81l159 200h-238v101h361v-78l-156 -195q33 -1 69 -17q34 -15 63 -44q28 -28 46 -69t18 -91q0 -45 -17 -90q-16 -44 -48 -75t-75 -51q-42 -19 -97 -19
q-36 0 -69 9q-30 8 -61 26q-28 16 -48 36q-19 19 -27 41l26 86q34 -50 80 -73q44 -22 101 -22z" />
    <glyph glyph-name="four" unicode="4" horiz-adv-x="523" 
d="M316 718h91v-403h86v-101h-86v-214h-94v214h-288v88zM313 315v256l-179 -256h179z" />
    <glyph glyph-name="five" unicode="5" horiz-adv-x="551" 
d="M261 90l-2 1q65 0 102 36q38 36 38 96q0 31 -12 55q-12 25 -30 41q-19 18 -43 26q-26 9 -52 9q-64 0 -111 -35l-76 16l34 384h334v-101h-262l-15 -189q27 14 51 20q26 6 58 6q47 0 87 -18t70 -48q29 -29 46 -72t17 -91q0 -46 -17 -91q-16 -43 -48 -76q-31 -32 -75 -52
q-42 -19 -97 -19q-36 0 -69 9q-30 8 -61 26q-28 17 -48 36q-19 19 -27 41l28 88q32 -50 78 -74q47 -24 102 -24z" />
    <glyph glyph-name="six" unicode="6" horiz-adv-x="568" 
d="M239 454v-1q14 2 19 2h24q57 0 99 -19q44 -20 74 -51q31 -32 47 -74q17 -43 17 -88q0 -51 -19 -93q-20 -44 -52 -75q-34 -32 -75 -50q-42 -18 -89 -18q-50 0 -93 18t-75 50q-31 31 -49 75t-18 93q0 59 21 113t48 99l170 283h110zM284 89l2 -5q30 0 54 10q27 11 44 28
q19 19 29 42q11 25 11 52q0 30 -10 53q-10 24 -30 42q-20 19 -45 29q-27 11 -57 11q-28 0 -54 -9q-25 -9 -43 -27q-19 -19 -29 -42t-10 -54q0 -29 11 -54q11 -24 29 -41q19 -17 44 -26q26 -9 54 -9z" />
    <glyph glyph-name="seven" unicode="7" horiz-adv-x="511" 
d="M351 617h-301v101h411v-80l-268 -638h-100z" />
    <glyph glyph-name="eight" unicode="8" horiz-adv-x="576" 
d="M421 376l2 -1q48 -28 72 -77q24 -48 24 -100q0 -45 -18 -84q-18 -38 -48 -67t-72 -45q-41 -16 -91 -16t-91 16q-42 16 -72 45t-48 67q-18 39 -18 84q0 52 24 100q24 49 72 77q-31 19 -54 60q-22 40 -22 93q0 41 15 77t42 63q28 28 66 44t85 16t85 -16q40 -17 66 -43
q27 -27 42 -63t15 -77q0 -53 -22 -93q-23 -40 -54 -60zM290 627l-2 -1q-27 0 -48 -9t-36 -24q-14 -14 -22 -33q-7 -17 -7 -37q0 -19 8 -38t22 -33q15 -15 36 -24t48 -9t48 9t36 24q14 14 22 33t8 38q0 21 -7 38q-8 19 -22 33q-15 15 -36 24t-48 9zM288 88v-3q29 0 53 9
q25 9 42 25q17 15 28 38q10 20 10 45q0 27 -10 47q-11 23 -28 38q-17 16 -42 25q-24 9 -53 9t-53 -9q-25 -9 -42 -25q-18 -16 -28 -37q-10 -20 -10 -46q0 -25 10 -45q10 -21 28 -37q17 -16 42 -25q24 -9 53 -9z" />
    <glyph glyph-name="nine" unicode="9" horiz-adv-x="568" 
d="M329 264h-1q-14 -2 -19 -2h-24q-57 0 -99 19q-44 20 -74 51q-31 32 -47 74q-16 41 -16 88q0 51 19 93q20 44 52 75q34 32 75 50q42 18 89 18q50 0 93 -18t75 -50q31 -31 49 -75q18 -43 18 -93q0 -58 -21 -112t-48 -99l-170 -283h-110zM283 628l-3 2q-30 0 -54 -10
q-27 -11 -44 -28q-19 -19 -29 -42q-11 -25 -11 -52q0 -29 10 -52q10 -24 30 -42q19 -17 45 -28q24 -10 57 -10q28 0 54 9q25 9 43 27q19 19 29 42q11 25 11 54t-11 54q-11 24 -29 41q-19 17 -44 26t-54 9z" />
    <glyph glyph-name="colon" unicode=":" horiz-adv-x="299" 
d="M78 61q0 31 21 52t52 21q30 0 51 -21t21 -52t-21 -52t-51 -21q-31 0 -52 21t-21 52zM78 405q0 31 21 52t52 21q30 0 51 -21t21 -52t-21 -52t-51 -21q-31 0 -52 21t-21 52z" />
    <glyph glyph-name="semicolon" unicode=";" horiz-adv-x="299" 
d="M126 -3h-2q-16 5 -32 20q-15 15 -15 45t21 50q22 20 51 20t51 -20q21 -20 21 -51q0 -25 -9 -45q-6 -13 -20 -39l-65 -117h-64zM76 405q0 31 21 52t52 21q30 0 51 -21t21 -52t-21 -52t-51 -21q-31 0 -52 21t-21 52z" />
    <glyph glyph-name="less" unicode="&#x3c;" horiz-adv-x="539" 
d="M176 296l303 -134v-96l-419 186v88l419 186v-96z" />
    <glyph glyph-name="equal" unicode="=" horiz-adv-x="539" 
d="M60 351v93h419v-93h-419zM60 145v93h419v-93h-419z" />
    <glyph glyph-name="greater" unicode="&#x3e;" horiz-adv-x="539" 
d="M363 299l-303 134v96l419 -186v-88l-419 -186v96z" />
    <glyph glyph-name="question" unicode="?" horiz-adv-x="469" 
d="M161 58q0 29 19 48t48 19t48 -19t19 -48t-19 -48t-48 -19t-48 19t-19 48zM65 635l-4 -6q9 20 25 37q15 17 39 31q23 13 48 21q27 8 53 8q39 0 72 -11q31 -10 52 -30q22 -20 32 -45q11 -27 11 -56q0 -30 -10 -51q-11 -23 -27 -42t-39 -36q-21 -15 -46 -31q-32 -21 -42 -28
q-15 -11 -25 -21q-9 -9 -12 -18t-3 -16q0 -19 15 -31t42 -12q54 0 105 54l15 -77q-14 -25 -46 -47q-34 -23 -85 -23q-33 0 -57 10q-26 11 -43 28q-18 18 -27 42t-9 51q0 20 6 39q6 18 20 39t36 41q23 21 57 42q44 27 63 45q20 18 20 41t-19 36q-20 14 -54 14q-43 0 -78 -19
q-36 -20 -63 -54z" />
    <glyph glyph-name="at" unicode="@" horiz-adv-x="939" 
d="M558 205l2 -3q-11 14 -37 21q-29 8 -57 8q-44 0 -69 -13t-25 -37q0 -25 24 -39q25 -14 69 -14q30 0 57 11q26 11 36 30v36zM641 205l2 -5q0 -32 15 -54t48 -22q26 0 41 15q16 16 23 37q8 25 11 48q3 26 3 47q0 71 -25 125q-26 57 -67 95q-42 39 -97 60t-117 21
q-66 0 -123 -24q-58 -24 -99 -67q-42 -44 -66 -103q-24 -60 -24 -130q0 -69 21 -129q20 -58 62 -103q41 -44 99 -68t132 -24q55 0 95 10q43 11 80 39l16 -75q-31 -29 -81 -47q-51 -18 -110 -18q-84 0 -159 32q-73 31 -127 87q-53 54 -85 131q-31 74 -31 164q0 86 30 161
q30 76 84 131q55 56 126 89q72 33 156 33q77 0 149 -29q71 -29 125 -81q55 -54 86 -124q32 -73 32 -157q0 -41 -8 -86q-8 -42 -27 -75q-20 -34 -51 -53q-32 -20 -78 -20q-40 0 -69 15q-27 14 -52 44q-8 -11 -24 -22q-15 -11 -33 -18t-39 -12q-19 -4 -42 -4q-69 0 -111 36
t-42 100q0 32 12 56q12 25 33 41q22 17 50 26q29 9 60 9q35 0 65 -9t47 -23v16q0 47 -30 69q-31 23 -74 23q-35 0 -70 -16t-58 -42l-18 72q23 35 66 56t89 21q41 0 72 -10q34 -11 57 -31t37 -51q13 -29 13 -70v-107z" />
    <glyph glyph-name="A" unicode="A" horiz-adv-x="678" 
d="M667 0h-100l-65 165h-324l-64 -165h-103l278 718h101zM217 266h246l-124 316z" />
    <glyph glyph-name="B" unicode="B" horiz-adv-x="578" 
d="M271 718l-2 -2q51 0 90 -13q41 -14 69 -37q29 -24 45 -61q16 -36 16 -85q0 -47 -17 -81t-45 -56q44 -21 72 -64t28 -109q0 -52 -16 -90q-17 -40 -46 -66t-70 -40q-42 -14 -88 -14h-217v718h181zM182 314l-2 -213h142q21 0 42 8q20 7 33 21q14 14 23 33t9 42q0 20 -8 41
q-8 20 -21 35q-14 15 -33 24q-20 9 -44 9h-141zM180 617v-201h110q46 0 74 27q29 27 29 73q0 44 -28 72q-29 29 -75 29h-110z" />
    <glyph glyph-name="C" unicode="C" horiz-adv-x="700" 
d="M665 124l-2 -9q-17 -29 -42 -54t-61 -43q-35 -17 -79 -28q-41 -10 -93 -10q-71 0 -134 27q-64 27 -111 76t-76 117q-28 66 -28 152q0 85 28 153q29 70 76 117q48 48 111 75t135 27q48 0 92 -11q41 -10 77 -29q34 -18 60 -42q25 -24 39 -50l-29 -84q-34 51 -94 83
q-62 33 -139 33q-58 0 -106 -18q-46 -17 -82 -53q-35 -35 -54 -84q-19 -48 -19 -113q0 -64 19 -112q19 -50 54 -84q35 -35 83 -53t106 -18q85 0 146 35t95 84z" />
    <glyph glyph-name="D" unicode="D" horiz-adv-x="737" 
d="M602 359l-3 1q0 56 -19 101q-20 47 -52 81q-33 34 -80 54q-48 20 -102 20h-163v-516h163q54 0 101 18q46 18 81 53t54 82q20 49 20 106zM309 719v-3q85 0 155 -24q71 -24 122 -69q52 -46 80 -112q29 -69 29 -153t-29 -151q-28 -65 -81 -112q-52 -46 -123 -70
q-70 -24 -153 -24h-222v718h222z" />
    <glyph glyph-name="E" unicode="E" horiz-adv-x="533" 
d="M90 718h383v-101h-289v-197h259v-101h-259v-218h289v-101h-383v718z" />
    <glyph glyph-name="F" unicode="F" horiz-adv-x="488" 
d="M90 718h348v-101h-254v-197h234v-101h-234v-319h-94v718z" />
    <glyph glyph-name="G" unicode="G" horiz-adv-x="734" 
d="M390 730l3 -2q48 0 90 -12q45 -13 77 -31q36 -20 60 -43q25 -24 39 -50l-29 -85q-15 21 -41 46q-24 23 -54 39q-32 17 -66 26q-36 9 -75 9q-59 0 -106 -19t-82 -54q-34 -34 -52 -84t-18 -111q0 -63 20 -114q20 -49 54 -84q35 -35 83 -53t107 -18q53 0 99 17t80 48v112
h-185v101h279v-242q-17 -29 -48 -55t-67 -45q-38 -20 -79 -30q-40 -10 -87 -10q-70 0 -135 27q-64 27 -112 75q-47 47 -76 116q-28 66 -28 152q0 85 28 153q29 69 76 118t111 76q63 27 134 27z" />
    <glyph glyph-name="H" unicode="H" horiz-adv-x="757" 
d="M90 718h94v-298h389v298h94v-718h-94v319h-389v-319h-94v718z" />
    <glyph glyph-name="I" unicode="I" horiz-adv-x="274" 
d="M90 718h94v-718h-94v718z" />
    <glyph glyph-name="J" unicode="J" horiz-adv-x="405" 
d="M320 179v-1q0 -92 -40 -141q-41 -50 -126 -50q-26 0 -47 6q-19 6 -39 17q-17 10 -30 23q-12 12 -18 24l11 89q23 -26 50 -41t60 -15q39 0 62 24q23 25 23 84v520h94v-539z" />
    <glyph glyph-name="K" unicode="K" horiz-adv-x="640" 
d="M90 718h94v-314l290 314h124l-321 -349l355 -369h-132l-316 325v-325h-94v718z" />
    <glyph glyph-name="L" unicode="L" horiz-adv-x="478" 
d="M90 718h94v-617h274v-101h-368v718z" />
    <glyph glyph-name="M" unicode="M" horiz-adv-x="947" 
d="M690 718h101l96 -718h-93l-75 548l-198 -548h-92l-202 548l-70 -548h-97l95 718h101l216 -581z" />
    <glyph glyph-name="N" unicode="N" horiz-adv-x="759" 
d="M90 718h102l383 -564v564h94v-718h-102l-383 561v-561h-94v718z" />
    <glyph glyph-name="O" unicode="O" horiz-adv-x="796" 
d="M398 730l1 -4q74 0 137 -28q64 -28 114 -78t78 -117q29 -69 29 -147t-29 -147q-28 -67 -78 -117t-114 -78q-63 -28 -135 -28t-139 29q-65 28 -115 78q-49 49 -78 117q-29 69 -29 147t29 148q28 68 78 118q49 49 114 78q66 29 137 29zM400 624l-1 -3q-55 0 -104 -20
q-47 -19 -84 -56q-36 -36 -57 -85q-21 -50 -21 -108t21 -108q21 -49 57 -85q35 -35 84 -55q47 -19 104 -19q54 0 103 20q50 20 83 55q36 37 56 85q21 50 21 110q0 59 -21 108q-21 50 -55 85q-35 36 -83 56q-49 20 -103 20z" />
    <glyph glyph-name="P" unicode="P" horiz-adv-x="546" 
d="M290 718h-2q48 0 90 -15q41 -15 72 -44q30 -29 48 -69t18 -90q0 -49 -16 -88q-17 -41 -46 -69q-30 -29 -72 -45q-41 -16 -91 -16h-107v-282h-94v718h200zM182 617v-235h122q49 0 82 33t33 85q0 24 -9 45q-9 22 -24 38q-14 16 -36 25q-21 9 -46 9h-122z" />
    <glyph glyph-name="Q" unicode="Q" horiz-adv-x="796" 
d="M398 730l-1 -3q74 0 137 -28q64 -29 114 -78t78 -117q29 -69 29 -147q0 -72 -24 -135q-24 -62 -65 -111t-96 -80q-56 -31 -117 -42q9 -65 83 -65q28 0 51 12t39 30l7 -83q-17 -23 -45 -39t-71 -16q-75 0 -114 42q-38 41 -43 117q-65 7 -124 39q-58 32 -102 81
q-43 49 -69 113q-25 62 -25 137q0 78 29 148q28 68 78 118q49 49 114 78q66 29 137 29zM398 625l-1 -3q-55 0 -104 -20q-47 -19 -84 -56q-36 -36 -57 -85t-21 -108t21 -108t57 -85q35 -35 84 -55q47 -19 104 -19q54 0 103 20q50 20 83 55q36 37 56 85q21 50 21 110
q0 58 -21 108t-55 85q-35 36 -83 56q-49 20 -103 20z" />
    <glyph glyph-name="R" unicode="R" horiz-adv-x="562" 
d="M90 718l199 -1q40 0 79 -12t70 -37q32 -26 50 -63t18 -90q0 -79 -42 -129t-111 -66l174 -320h-111l-167 308h-65v-308h-94v718zM184 616l-1 -208h124q45 0 74 28q30 28 30 75q0 46 -28 75q-29 30 -75 30h-124z" />
    <glyph glyph-name="S" unicode="S" horiz-adv-x="489" 
d="M353 356h-7q20 -17 40 -39q17 -19 30 -41q13 -23 20 -45t7 -52q0 -43 -15 -77t-42 -60t-64 -39q-39 -14 -84 -14q-36 0 -72 11q-33 10 -63 29q-27 17 -49 39q-20 20 -28 42l29 96q33 -52 84 -84q52 -32 108 -32q51 0 75 24t24 62q0 28 -17 54t-42 45q-86 72 -104 87
q-43 37 -65 60q-32 34 -51 68q-18 33 -18 74q0 37 14 68q13 29 38 51q24 21 59 33q34 12 75 12q28 0 58 -8q28 -7 52 -21q25 -14 42 -31q18 -18 29 -38l-21 -94q-28 37 -72 64q-43 27 -90 27q-35 0 -59 -15t-24 -50q0 -26 19 -49q19 -24 39 -39q12 -10 33 -26t29 -23
q24 -19 39 -33q13 -12 26 -21q11 -7 18 -15z" />
    <glyph glyph-name="T" unicode="T" horiz-adv-x="576" 
d="M15 718h546v-99h-226v-619h-94v619h-226v99z" />
    <glyph glyph-name="U" unicode="U" horiz-adv-x="735" 
d="M556 718l94 2v-431q0 -63 -20 -120q-19 -55 -56 -96q-36 -40 -89 -63q-51 -22 -117 -22q-62 0 -115 21t-90 60q-37 38 -58 94q-21 55 -21 123v432h94v-433q0 -44 14 -81q13 -35 39 -61q25 -25 60 -39q33 -13 77 -13q42 0 78 14q35 14 59 39q25 26 38 62q13 35 13 80v432z
" />
    <glyph glyph-name="V" unicode="V" horiz-adv-x="642" 
d="M11 718h103l207 -579l205 579h105l-258 -718h-104z" />
    <glyph glyph-name="W" unicode="W" horiz-adv-x="1020" 
d="M716 177l178 541h106l-238 -718h-94l-160 566l-156 -566h-94l-238 718h100l181 -541l154 541h102z" />
    <glyph glyph-name="X" unicode="X" horiz-adv-x="635" 
d="M140 0h-120l239 372l-224 346h115l166 -258l166 258h119l-224 -346l238 -372h-114l-181 281z" />
    <glyph glyph-name="Y" unicode="Y" horiz-adv-x="558" 
d="M8 718h106l163 -307l164 307h109l-223 -419v-299h-94v299z" />
    <glyph glyph-name="Z" unicode="Z" horiz-adv-x="503" 
d="M50 718h396v-79l-281 -538h283v-101h-398v77l276 540h-276v101z" />
    <glyph glyph-name="bracketleft" unicode="[" horiz-adv-x="375" 
d="M108 -178v896h192v-97h-101v-702h101v-97h-192z" />
    <glyph glyph-name="backslash" unicode="\" horiz-adv-x="465" 
d="M465 -178h-99l-366 896h98z" />
    <glyph glyph-name="bracketright" unicode="]" horiz-adv-x="375" 
d="M267 718v-896h-192v97h101v702h-101v97h192z" />
    <glyph glyph-name="asciicircum" unicode="^" horiz-adv-x="541" 
d="M45 341l174 344h104l173 -344h-98l-126 255l-128 -255h-99z" />
    <glyph glyph-name="underscore" unicode="_" horiz-adv-x="499" 
d="M-2 -72h503v-89h-503v89z" />
    <glyph glyph-name="grave" unicode="`" horiz-adv-x="347" 
d="M205 728l65 -148h-83l-110 148h128z" />
    <glyph glyph-name="a" unicode="a" horiz-adv-x="551" 
d="M383 177l1 -4q-12 22 -48 32q-38 11 -77 11q-57 0 -88 -18t-31 -49q0 -30 30 -48t89 -18q22 0 39 4q20 5 36 12t30 18q13 10 19 22v38zM75 420h-1q28 39 78 63q49 24 109 24q100 0 157 -51t57 -144v-315h-88v44q-9 -14 -25 -24q-16 -11 -36 -18q-20 -8 -40 -12
q-19 -4 -42 -4q-88 0 -142 42t-54 119q0 39 15 69t42 51q28 22 63 32q38 11 78 11q16 0 36 -3q26 -4 38 -7q19 -5 35 -12q15 -7 28 -18v24q0 30 -11 54q-10 21 -29 37q-17 14 -42 22q-22 7 -51 7q-49 0 -87 -19q-40 -20 -62 -51z" />
    <glyph glyph-name="b" unicode="b" horiz-adv-x="628" 
d="M580 250l2 -1q0 -58 -21 -106q-21 -49 -57 -83q-36 -35 -82 -54q-45 -19 -99 -19q-57 0 -99 18t-54 47v-53h-88v728h91v-283q12 28 53 48q39 19 98 19q53 0 98 -19q46 -20 81 -54q36 -36 56 -82q21 -48 21 -106zM491 247v2q0 76 -46 121q-47 45 -123 45q-52 0 -94 -24
q-41 -24 -55 -60v-163q14 -36 55 -60q42 -24 94 -24q76 0 123 44q46 43 46 119z" />
    <glyph glyph-name="c" unicode="c" horiz-adv-x="540" 
d="M492 75l-4 -6q-8 -17 -24 -32q-17 -16 -40 -27q-22 -11 -54 -19q-28 -7 -65 -7q-53 0 -98 19q-46 19 -82 54q-36 34 -57 83q-21 48 -21 107t21 107q21 49 57 83t83 54q45 19 98 19q36 0 64 -7q32 -8 54 -19q23 -11 40 -27q17 -15 24 -31l-24 -72q-21 24 -59 42
q-37 18 -81 18q-84 0 -135 -45t-51 -120q0 -36 14 -67q13 -29 38 -51q24 -21 58 -33t76 -12q46 0 84 18t59 42z" />
    <glyph glyph-name="d" unicode="d" horiz-adv-x="628" 
d="M48 250l1 -2q0 58 21 106t56 83q34 35 81 54q45 19 98 19q59 0 98 -19q41 -20 53 -48v283h91v-728h-87v53q-12 -28 -54 -46t-99 -18q-54 0 -99 19q-46 19 -82 54q-36 34 -57 83q-21 48 -21 107zM140 246v-2q0 -76 46 -119q47 -44 123 -44q52 0 94 24q41 24 55 60v163
q-14 36 -55 60q-42 24 -94 24q-77 0 -123 -45t-46 -121z" />
    <glyph glyph-name="e" unicode="e" horiz-adv-x="574" 
d="M312 85l-3 5q25 0 47 6q24 6 44 15q20 8 37 21q17 12 27 24l24 -71q-8 -17 -24 -33q-17 -17 -40 -30q-24 -14 -54 -21q-32 -8 -65 -8q-55 0 -103 18q-47 18 -82 51q-34 33 -54 81q-19 47 -19 108q0 51 17 100q16 48 48 84q31 36 77 57q45 21 102 21q53 0 97 -21t74 -57
q31 -37 47 -84t16 -100q0 -16 -3 -34h-382q8 -66 54 -99t118 -33zM426 313l-2 -3q-2 22 -12 42q-10 18 -29 34t-42 23q-26 8 -51 8t-52 -8q-26 -7 -45 -21t-33 -33q-13 -19 -16 -42h282z" />
    <glyph glyph-name="f" unicode="f" horiz-adv-x="429" 
d="M388 603v-3q-14 17 -36 29t-51 12q-34 0 -58 -21t-24 -64v-58h172v-97h-172v-402h-91v402h-92v97h92v70q0 38 9 69t29 54t49 36t69 13t72 -16q34 -17 47 -42z" />
    <glyph glyph-name="g" unicode="g" horiz-adv-x="628" 
d="M546 499l-6 -508q0 -48 -17 -90q-16 -40 -47 -69t-74 -44q-44 -15 -96 -15q-69 0 -126 27t-87 73l26 82q28 -38 75 -61q45 -22 98 -22q26 0 54 6t51 21t38 44t15 74v47q-14 -26 -52 -45t-96 -19q-52 0 -99 18q-46 18 -81 53t-56 81t-21 104t21 104q21 47 57 80
q37 34 82 53t99 19q58 0 99 -19t55 -45v51h88zM449 332v3q-14 35 -55 57q-43 23 -94 23q-38 0 -69 -12t-54 -33q-21 -20 -34 -50q-12 -28 -12 -65t12 -65t34 -49q23 -21 54 -33t69 -12q51 0 94 23q41 22 55 57v156z" />
    <glyph glyph-name="h" unicode="h" horiz-adv-x="598" 
d="M306 511l-3 -4q41 0 79 -13q37 -13 70 -41q31 -27 51 -71q19 -42 19 -103v-282h-91v280q0 33 -10 57q-11 26 -27 42q-17 17 -39 26q-23 9 -50 9q-25 0 -46 -7q-23 -8 -40 -19q-17 -12 -30 -29q-11 -15 -16 -36v-321h-91v728h91v-284q11 29 45 48q35 20 88 20z" />
    <glyph glyph-name="i" unicode="i" horiz-adv-x="253" 
d="M81 499h91v-499h-91v499zM60 661l-3 -3q0 28 20 48t47 20q29 0 48 -19q20 -20 20 -48q0 -27 -19 -46t-48 -19q-26 0 -46 20q-19 19 -19 47z" />
    <glyph glyph-name="j" unicode="j" horiz-adv-x="260" 
d="M88 499h93v-565q0 -159 -120 -159q-21 0 -46 9t-43 28l7 81q11 -9 24 -15t26 -6q35 0 47 21t12 62v544zM69 661l-3 -3q0 28 20 48t47 20q29 0 48 -19q20 -20 20 -48q0 -27 -19 -46t-48 -19q-26 0 -46 20q-19 19 -19 47z" />
    <glyph glyph-name="k" unicode="k" horiz-adv-x="542" 
d="M82 728h91v-432l218 203h125l-252 -234l275 -265h-131l-235 226v-226h-91v728z" />
    <glyph glyph-name="l" unicode="l" horiz-adv-x="255" 
d="M82 728h91v-728h-91v728z" />
    <glyph glyph-name="m" unicode="m" horiz-adv-x="925" 
d="M307 511l5 -5q49 0 90 -19t73 -63q27 38 69 60q41 22 104 22q39 0 75 -13q39 -14 68 -40q30 -27 48 -69t18 -100v-290h-91v286q0 31 -9 55q-8 22 -26 40q-16 16 -39 25q-22 9 -48 9q-24 0 -44 -7q-23 -8 -39 -19q-17 -12 -30 -29q-11 -15 -16 -36v-322h-91v286
q0 31 -9 55q-8 22 -26 40q-16 16 -39 25q-22 9 -48 9q-24 0 -44 -7q-23 -8 -39 -19q-17 -12 -30 -29q-11 -15 -16 -36v-321h-91v499h88v-55q10 28 47 48t90 20z" />
    <glyph glyph-name="n" unicode="n" horiz-adv-x="598" 
d="M306 511l-2 -3q41 0 79 -13q37 -13 70 -41q31 -27 51 -71q19 -42 19 -103v-282h-91v280q0 33 -10 57q-10 25 -27 42t-39 26q-23 9 -50 9q-25 0 -46 -7q-23 -8 -40 -19q-17 -12 -30 -29q-11 -15 -16 -36v-321h-91v499h88v-55q11 28 45 48q34 19 90 19z" />
    <glyph glyph-name="o" unicode="o" 
d="M552 249v-1q0 -56 -21 -104q-22 -50 -55 -83q-34 -34 -80 -54q-44 -19 -96 -19q-49 0 -97 20q-47 20 -81 54t-54 83t-20 104t20 104t54 83t81 54q48 20 97 20q50 0 96 -20t80 -54q33 -33 55 -83q21 -48 21 -104zM139 248v-3q0 -37 12 -67q12 -31 34 -51q23 -21 51 -33
t63 -12q34 0 64 12q29 12 52 33q22 20 34 51q12 30 12 67q0 38 -12 68q-13 32 -34 53q-22 22 -52 34t-64 12q-35 0 -63 -12q-29 -12 -51 -34t-34 -52t-12 -66z" />
    <glyph glyph-name="p" unicode="p" horiz-adv-x="628" 
d="M580 249l-1 -1q0 -58 -21 -106q-20 -46 -56 -82q-34 -34 -81 -54q-45 -19 -97 -19q-59 0 -98 19q-41 20 -53 48v-267h-91v712h88v-53q12 29 54 47t99 18q54 0 99 -19q46 -20 81 -54q35 -35 56 -83t21 -106zM488 250v2q0 76 -46 119q-47 44 -123 44q-52 0 -94 -24
q-41 -24 -55 -60v-163q14 -36 55 -60q42 -24 94 -24q77 0 123 45t46 121z" />
    <glyph glyph-name="q" unicode="q" horiz-adv-x="628" 
d="M48 249v-2q0 59 21 107t56 83t81 54q45 19 99 19q57 0 99 -18t54 -46v53h87v-712h-91v267q-12 -28 -53 -48q-39 -19 -98 -19q-52 0 -97 19q-46 20 -81 54q-35 35 -56 83t-21 106zM139 249v-2q0 -76 46 -121q47 -45 123 -45q52 0 94 24q41 24 55 60v163q-14 36 -55 60
q-42 24 -94 24q-76 0 -123 -44q-46 -43 -46 -119z" />
    <glyph glyph-name="r" unicode="r" horiz-adv-x="394" 
d="M353 390h1q-13 11 -29 17q-17 6 -39 6q-26 0 -45 -9q-20 -9 -33 -22q-12 -12 -22 -30q-8 -14 -13 -35v-317h-91v499h88v-65q12 32 39 54q28 23 74 23q27 0 51 -11q22 -10 33 -29z" />
    <glyph glyph-name="s" unicode="s" horiz-adv-x="424" 
d="M161 236l-2 -3q-52 27 -78 61q-27 34 -27 78q0 60 39 98q40 38 113 38q26 0 48 -6t41 -17t32 -24q14 -14 21 -25l-15 -81q-28 26 -60 41q-33 15 -68 15q-25 0 -43 -9t-18 -31q0 -21 15 -33q12 -10 41 -25l56 -30q58 -31 88 -64t30 -85q0 -32 -12 -59t-35 -47t-54 -30
q-33 -11 -72 -11q-30 0 -54 7q-26 8 -46 19t-36 29q-15 16 -24 36l22 75q29 -32 63 -50t84 -18q14 0 27 3t24 9q12 7 17 16q6 11 6 24q0 22 -19 38q-19 17 -51 33z" />
    <glyph glyph-name="t" unicode="t" horiz-adv-x="440" 
d="M392 51v-1q-14 -26 -45 -44t-76 -18q-150 0 -150 169v245h-90v28l153 195h28v-126h175v-97h-175v-229q0 -48 20 -68t60 -20q28 0 48 11q20 10 33 27z" />
    <glyph glyph-name="u" unicode="u" horiz-adv-x="594" 
d="M289 -12l-2 -1q-39 0 -79 14q-38 13 -69 41q-29 26 -49 71q-19 42 -19 104v282h91v-280q0 -65 36 -99q35 -34 90 -34q25 0 46 7q20 7 40 20q17 12 30 29q13 18 17 36v321h91v-499h-88v55q-10 -29 -45 -48q-34 -19 -90 -19z" />
    <glyph glyph-name="v" unicode="v" horiz-adv-x="536" 
d="M220 0l-202 499h98l151 -381l151 381h99l-202 -499h-95z" />
    <glyph glyph-name="w" unicode="w" horiz-adv-x="858" 
d="M593 126l143 373h103l-197 -499h-93l-120 377l-120 -377h-93l-197 499h97l143 -373l119 373h96z" />
    <glyph glyph-name="x" unicode="x" horiz-adv-x="519" 
d="M126 0h-112l188 265l-169 234h111l113 -158l114 158h113l-169 -235l190 -264h-110l-136 187z" />
    <glyph glyph-name="y" unicode="y" horiz-adv-x="547" 
d="M18 499h102l153 -367l152 367h101l-297 -712h-101l96 232z" />
    <glyph glyph-name="z" unicode="z" horiz-adv-x="459" 
d="M61 499h332v-79l-222 -323h234v-97h-351v79l219 323h-212v97z" />
    <glyph glyph-name="braceleft" unicode="{" horiz-adv-x="395" 
d="M319 619l-4 3q-24 0 -40 -4q-17 -4 -28 -15t-15 -27q-5 -17 0 -41l22 -142q4 -23 0 -42q-5 -20 -13 -34q-10 -16 -22 -27t-27 -19q15 -8 27 -19t22 -27q8 -14 13 -34q4 -19 0 -42l-22 -141q-4 -24 0 -42q4 -17 15 -28q10 -10 29 -15q18 -4 40 -3v-98q-43 -4 -79 6
q-35 10 -58 33t-33 55t-4 74l20 142q3 22 -3 39t-18 27q-13 12 -28 17q-17 6 -34 9v92q17 3 34 9q15 5 28 17q12 10 18 27t3 39l-20 141q-6 40 5 74q10 32 33 55q22 22 59 33q36 11 80 6v-98z" />
    <glyph glyph-name="bar" unicode="|" horiz-adv-x="291" 
d="M191 -178h-91v896h91v-896z" />
    <glyph glyph-name="braceright" unicode="}" horiz-adv-x="395" 
d="M76 622v-3v98q43 4 79 -6q35 -10 58 -33t33 -55t4 -74l-20 -141q-3 -22 3 -39t18 -27q13 -12 28 -17q17 -6 34 -9v-92q-17 -3 -34 -9q-15 -5 -28 -17q-12 -10 -18 -27t-3 -39l20 -142q6 -42 -4 -74t-33 -55t-58 -33q-36 -10 -79 -6v98q22 -1 40 3q17 4 28 15t15 28
q5 18 0 42l-22 141q-5 23 0 42q5 20 13 34q10 16 22 27t27 19q-15 8 -27 19t-22 27q-8 14 -13 34q-5 19 0 42l22 142q5 24 0 41q-5 16 -15 27q-11 11 -28 15q-16 4 -40 4z" />
    <glyph glyph-name="asciitilde" unicode="~" horiz-adv-x="552" 
d="M73 213h-3q-6 17 -9 30t-3 28q0 50 33 77t83 27q33 0 60 -13q28 -14 51 -27q24 -14 39 -20q19 -8 35 -8q21 0 35 12t14 34q0 11 -3 23h74q6 -16 9 -30q3 -13 3 -28q0 -50 -33 -77t-83 -27q-33 0 -60 13q-29 13 -51 27q-24 14 -39 20q-19 8 -34 8q-21 0 -34 -12t-13 -34
q0 -11 3 -23h-74z" />
    <glyph glyph-name="uni00A0" unicode="&#xa0;" horiz-adv-x="270" 
 />
    <glyph glyph-name="exclamdown" unicode="&#xa1;" horiz-adv-x="362" 
d="M218 272l26 -485h-126l26 485h74zM115 441q0 29 19 48t48 19t48 -19t19 -48t-19 -48t-48 -19t-48 19t-19 48z" />
    <glyph glyph-name="cent" unicode="&#xa2;" horiz-adv-x="540" 
d="M267 -117v104q-46 8 -85 28q-40 21 -70 54t-48 78t-18 98q0 52 18 97q18 44 48 79q31 36 70 56q42 22 85 29v119h80v-119q54 -8 90 -31q37 -24 51 -51l-24 -72q-20 21 -49 38q-32 18 -67 21v-326q41 1 72 20q29 18 48 41l24 -74q-15 -28 -54 -51t-91 -30v-108h-80z
M139 245v1q0 -61 35 -105q34 -43 93 -54v317q-59 -10 -94 -54q-34 -43 -34 -105z" />
    <glyph glyph-name="sterling" unicode="&#xa3;" horiz-adv-x="543" 
d="M493 101l-2 -103h-433v80q52 26 84 73q33 48 33 103q0 24 -4 39h-113v97h81q-13 33 -24 66q-11 35 -11 70q0 94 54 148t147 54q32 0 59 -9q28 -9 50 -24q23 -15 38 -35q16 -21 23 -42l-41 -70q-20 31 -49 54q-30 24 -79 24q-52 0 -79 -27t-27 -71q0 -32 12 -67
q8 -23 26 -69h145v-97h-115q4 -15 4 -38q0 -49 -17 -89q-16 -38 -48 -67h286z" />
    <glyph glyph-name="currency" unicode="&#xa4;" horiz-adv-x="632" 
d="M510 626l63 -63l-78 -78q17 -27 26 -54q9 -29 9 -60t-9 -61q-8 -28 -26 -55l78 -77l-62 -62l-79 78q-50 -34 -115 -34q-64 0 -116 34l-78 -78l-62 62l78 77q-17 27 -26 56q-9 30 -9 62q0 31 9 60q9 27 26 54l-78 78l62 61l78 -78q27 18 55 26q30 9 62 9t60 -9
q27 -9 54 -26zM317 479v-1q-24 0 -45 -9q-20 -9 -37 -24q-16 -15 -25 -34t-9 -44q0 -24 9 -45q9 -22 25 -36q17 -15 37 -24q21 -9 45 -9t45 9q20 9 37 24q16 14 25 36q9 21 9 45q0 25 -9 44q-10 21 -25 35q-17 15 -37 24q-21 9 -45 9z" />
    <glyph glyph-name="yen" unicode="&#xa5;" horiz-adv-x="520" 
d="M181 376h-116v75h83l-118 267h103l125 -298l126 298h106l-117 -267h86v-75h-119l-32 -76h151v-76h-151v-224h-94v224h-149v76h150z" />
    <glyph glyph-name="brokenbar" unicode="&#xa6;" horiz-adv-x="291" 
d="M191 -178h-91v334h91v-334zM191 384h-91v334h91v-334z" />
    <glyph glyph-name="section" unicode="&#xa7;" horiz-adv-x="575" 
d="M416 98l-8 4q23 -17 42 -46q20 -31 20 -75q0 -38 -15 -68q-15 -31 -40 -51q-26 -21 -61 -33q-36 -12 -78 -12q-30 0 -60 8q-28 7 -52 21q-25 14 -42 31t-30 38l23 93q25 -37 74 -63q47 -25 99 -25q16 0 33 3t29 9t20 17t8 27q0 14 -9 27q-10 14 -25 27q-16 14 -36 27
q-13 9 -41 27l-61 38q-26 16 -51 36q-24 18 -46 42q-19 21 -34 50q-13 26 -13 59q0 50 28 87q29 38 67 57q-23 17 -42 45t-19 72q0 36 14 67q13 29 38 51t59 32q36 11 77 11q33 0 60 -7q28 -7 52 -21q25 -14 42 -31q19 -19 30 -37l-24 -89q-28 34 -73 58t-93 24
q-36 0 -61 -13t-25 -43q0 -14 9 -27q8 -12 24 -25q14 -11 34 -25q13 -9 39 -25l62 -38q30 -20 53 -36q27 -20 48 -42q22 -24 35 -48q14 -26 14 -55q0 -53 -27 -90q-27 -38 -67 -63zM335 152h1q68 29 68 90q0 32 -25 56q-27 26 -66 50l-90 58q-31 -13 -49 -37t-18 -55
q0 -32 24 -54q25 -23 65 -50z" />
    <glyph glyph-name="dieresis" unicode="&#xa8;" horiz-adv-x="512" 
d="M91 655l-3 -3q0 28 20 48t47 20q29 0 48 -19q20 -20 20 -48q0 -27 -19 -46t-48 -19q-26 0 -46 20q-19 19 -19 47zM285 652l-3 -3q0 28 20 48t47 20q29 0 48 -19q20 -20 20 -48q0 -27 -19 -46t-48 -19q-26 0 -46 20q-19 19 -19 47z" />
    <glyph glyph-name="copyright" unicode="&#xa9;" horiz-adv-x="822" 
d="M411 730l-1 -2q75 0 144 -29q68 -29 118 -79q52 -52 80 -118q29 -69 29 -144t-29 -144q-28 -68 -79 -118t-118 -79q-69 -29 -144 -29t-144 29q-67 28 -117 80q-50 51 -78 118q-29 69 -29 144t29 144q28 67 78 118q50 52 117 80q69 29 144 29zM410 44l-1 -2q67 0 124 25
q58 25 102 68q43 42 69 99q25 56 25 121t-25 121t-69 100t-102 68q-59 24 -124 24t-123 -24q-59 -24 -102 -67q-44 -44 -69 -100t-25 -121q0 -63 26 -121q26 -57 69 -99q43 -41 102 -67q57 -25 123 -25zM566 230l2 -1q-21 -34 -65 -54q-45 -20 -99 -20q-43 0 -82 15
q-40 15 -69 43q-30 29 -48 67q-18 39 -18 87t18 87q18 40 48 68q29 28 69 43q39 15 82 15q28 0 53 -6q26 -6 46 -16q21 -10 36 -24q16 -14 24 -28l-22 -65q-17 23 -54 43q-35 19 -79 19q-68 0 -108 -36q-41 -36 -41 -98q0 -64 42 -100t109 -36q46 0 81 19q37 20 53 45z" />
    <glyph glyph-name="ordfeminine" unicode="&#xaa;" horiz-adv-x="396" 
d="M259 418l-3 -1q-6 10 -25 16t-45 6q-35 0 -52 -10q-18 -11 -18 -27q0 -38 71 -38q25 0 45 9t27 21v24zM53 576v-2q18 29 56 44q37 15 75 15q66 0 108 -33t42 -96v-208h-75v29q-12 -18 -39 -27t-55 -9q-57 0 -92 28q-36 29 -36 79q0 25 11 45q10 19 29 33q18 14 42 21
q22 7 51 7q33 0 54 -7q23 -8 30 -16v8q0 21 -7 32q-8 13 -19 20q-13 8 -26 11q-14 3 -27 3q-31 0 -60 -12t-42 -33z" />
    <glyph glyph-name="guillemotleft" unicode="&#xab;" horiz-adv-x="527" 
d="M472 88h-92l-133 178l133 178h92l-109 -178zM260 88h-92l-133 178l133 178h92l-109 -178z" />
    <glyph glyph-name="logicalnot" unicode="&#xac;" horiz-adv-x="559" 
d="M414 357h-354v93h439v-290h-85v197z" />
    <glyph glyph-name="uni00AD" unicode="&#xad;" horiz-adv-x="466" 
d="M391 318v-87h-316v87h316z" />
    <glyph glyph-name="registered" unicode="&#xae;" horiz-adv-x="822" 
d="M411 730l-1 -2q75 0 144 -29q68 -29 118 -79q52 -52 80 -118q29 -69 29 -144t-29 -144q-28 -68 -79 -118t-118 -79q-69 -29 -144 -29t-144 29q-67 28 -117 80q-50 51 -78 118q-29 69 -29 144t29 144q28 67 78 118q50 52 117 80q69 29 144 29zM410 44l-1 -2q67 0 124 25
q58 25 102 68q43 42 69 99q25 56 25 121t-25 121t-69 100t-102 68q-59 24 -124 24t-123 -24q-59 -24 -102 -67q-44 -44 -69 -100t-25 -121q0 -63 26 -121q26 -57 69 -99q43 -41 102 -67q57 -25 123 -25zM267 575l126 1q26 0 47 -7q24 -8 41 -22q18 -15 29 -38q11 -24 11 -53
q0 -42 -22 -71q-23 -30 -61 -42l101 -180h-81l-97 172h-22v-172h-72v412zM339 498l-1 -91h62q21 0 36 12t15 33q0 19 -14 33q-13 13 -36 13h-62z" />
    <glyph glyph-name="macron" unicode="&#xaf;" horiz-adv-x="451" 
d="M371 701v-86h-291v86h291z" />
    <glyph glyph-name="degree" unicode="&#xb0;" horiz-adv-x="418" 
d="M209 728q33 0 62 -12t50 -33t33 -50t12 -62t-12 -62t-33 -50t-50 -33q-28 -12 -62 -12q-33 0 -62 12t-50 33t-33 50q-12 28 -12 62q0 33 12 62t33 50t50 33q28 12 62 12zM209 494h-1q37 0 59 22q23 23 23 54q0 32 -23 53q-22 21 -59 21q-34 0 -58 -21t-24 -53t24 -54
q23 -22 59 -22z" />
    <glyph glyph-name="plusminus" unicode="&#xb1;" horiz-adv-x="539" 
d="M60 0v93h419v-93h-419zM227 414v163h85v-163h167v-93h-167v-162h-85v162h-167v93h167z" />
    <glyph glyph-name="twosuperior" unicode="&#xb2;" horiz-adv-x="332" 
d="M152 620h-4q-29 0 -48 -16q-20 -16 -33 -36l-33 53q4 13 15 28q10 14 26 27t35 20q21 8 45 8q32 0 55 -10q24 -10 39 -27q16 -18 23 -37q8 -22 8 -44q0 -43 -21 -76t-58 -73l-50 -55h140v-82h-257v65l116 122q27 27 40 48q12 19 12 39q0 19 -14 33q-13 13 -36 13z" />
    <glyph glyph-name="threesuperior" unicode="&#xb3;" horiz-adv-x="331" 
d="M151 374l-2 -5q31 0 49 15t18 39q0 21 -18 35q-19 14 -46 14q-16 0 -28 -3q-10 -2 -19 -8l-13 58l73 90h-116v83h222v-59l-77 -89q15 -3 35 -11q19 -8 33 -22q15 -15 24 -36t9 -51q0 -29 -10 -52q-11 -24 -30 -42q-21 -19 -46 -29q-26 -10 -60 -10q-25 0 -44 6
q-21 6 -35 15q-16 10 -26 21q-10 12 -15 23l17 72q34 -54 105 -54z" />
    <glyph glyph-name="acute" unicode="&#xb4;" horiz-adv-x="347" 
d="M270 728l-110 -148h-83l65 148h128z" />
    <glyph glyph-name="mu" unicode="&#xb5;" horiz-adv-x="603" 
d="M298 -12h-2q-34 0 -65 9t-60 27v-237h-91v712h91v-280q0 -65 36 -99q35 -34 90 -34q25 0 46 7q20 7 40 20q17 12 30 29q13 18 17 36v321h91v-499h-88v55q-11 -29 -45 -48t-90 -19z" />
    <glyph glyph-name="paragraph" unicode="&#xb6;" horiz-adv-x="684" 
d="M619 718l-1 -96h-83v-788h-90v788h-84v-788h-91v498q-46 0 -85 15t-67 40t-43 60q-15 34 -15 77q0 41 14 78q13 35 39 61q25 25 61 40t78 15h367z" />
    <glyph glyph-name="periodcentered" unicode="&#xb7;" horiz-adv-x="299" 
d="M78 261q0 31 21 52t52 21q30 0 51 -21t21 -52t-21 -52t-51 -21q-31 0 -52 21t-21 52z" />
    <glyph glyph-name="cedilla" unicode="&#xb8;" horiz-adv-x="384" 
d="M219 -124l-6 -2q0 13 -11 21t-27 8q-11 0 -16 -1q-10 -2 -16 -4l-19 33l25 84h64l-20 -61q24 -2 41 -7q22 -7 35 -16q14 -10 24 -26q9 -15 9 -34q0 -43 -32 -67t-81 -24q-34 0 -65 14q-29 13 -46 33l12 55q22 -19 44 -27q20 -7 44 -7q19 0 30 8t11 20z" />
    <glyph glyph-name="onesuperior" unicode="&#xb9;" horiz-adv-x="265" 
d="M41 619l98 76h59v-395h-76v290l-81 -52v81z" />
    <glyph glyph-name="ordmasculine" unicode="&#xba;" horiz-adv-x="435" 
d="M217 636q38 0 68 -13q32 -14 56 -36q25 -23 38 -54q14 -33 14 -69t-14 -69q-13 -31 -38 -54q-24 -22 -56 -36q-30 -13 -68 -13t-68 13q-32 14 -56 36q-25 23 -38 54q-14 33 -14 69t14 69q13 31 38 54q24 22 56 36q30 13 68 13zM316 464h-4q0 41 -28 65q-29 24 -70 24
q-42 0 -70 -24t-28 -65t29 -65q28 -24 71 -24q42 0 71 24t29 65z" />
    <glyph glyph-name="guillemotright" unicode="&#xbb;" horiz-adv-x="527" 
d="M359 88h-92l109 178l-109 178h92l133 -178zM147 88h-92l109 178l-109 178h92l133 -178z" />
    <glyph glyph-name="onequarter" unicode="&#xbc;" horiz-adv-x="712" 
d="M190 0h-85l428 718h85zM41 619l98 76h59v-395h-76v290l-81 -52v81zM573 395h69v-206h46v-80h-46v-109h-76v109h-157v65zM566 189v95l-70 -95h70z" />
    <glyph glyph-name="onehalf" unicode="&#xbd;" horiz-adv-x="767" 
d="M190 0h-85l428 718h85zM41 619l98 76h59v-395h-76v290l-81 -52v81zM587 320h-4q-29 0 -48 -16t-33 -36l-33 53q4 13 15 28q10 14 26 27t35 20q21 8 45 8q32 0 55 -10q24 -10 39 -27q16 -18 23 -37q8 -22 8 -44q0 -43 -21 -76t-58 -73l-50 -55h140v-82h-257v65l116 122
q27 27 40 48q12 19 12 39q0 19 -14 33q-13 13 -36 13z" />
    <glyph glyph-name="threequarters" unicode="&#xbe;" horiz-adv-x="763" 
d="M241 0h-85l428 718h85zM624 395h69v-206h46v-80h-46v-109h-76v109h-157v65zM617 189v95l-70 -95h70zM151 374l-2 -5q31 0 49 15t18 39q0 21 -18 35q-19 14 -46 14q-16 0 -28 -3q-10 -2 -19 -8l-13 58l73 90h-116v83h222v-59l-77 -89q15 -3 35 -11q19 -8 33 -22
q15 -15 24 -36t9 -51q0 -29 -10 -52q-11 -24 -30 -42q-21 -19 -46 -29q-26 -10 -60 -10q-25 0 -44 6q-21 6 -35 15q-16 10 -26 21q-10 12 -15 23l17 72q34 -54 105 -54z" />
    <glyph glyph-name="questiondown" unicode="&#xbf;" horiz-adv-x="469" 
d="M308 441q0 -29 -19 -48t-48 -19t-48 19t-19 48t19 48t48 19t48 -19t19 -48zM404 -130l-1 2q-9 -20 -25 -37q-15 -17 -39 -31q-23 -14 -48 -21q-24 -7 -52 -7q-39 0 -72 11q-31 10 -52 30q-22 20 -32 45q-11 27 -11 56t10 52t27 43q17 19 39 36q15 11 47 31q32 21 42 28
q15 11 25 21q9 9 12 17t3 15q0 19 -15 31t-42 12q-54 0 -105 -54l-15 77q14 25 46 47q34 23 85 23q33 0 57 -10q27 -11 44 -28q18 -18 27 -42t9 -51q0 -20 -6 -39q-6 -21 -19 -39t-36 -40q-23 -21 -57 -42q-44 -27 -63 -45q-20 -18 -20 -40t20 -36q19 -13 54 -13q43 0 78 19
q36 19 63 54z" />
    <glyph glyph-name="Agrave" unicode="&#xc0;" horiz-adv-x="678" 
d="M667 0h-100l-65 165h-324l-64 -165h-103l278 718h101zM217 266h246l-124 316zM318 910l65 -138h-87l-110 138h132z" />
    <glyph glyph-name="Aacute" unicode="&#xc1;" horiz-adv-x="678" 
d="M667 0h-100l-65 165h-324l-64 -165h-103l278 718h101zM217 266h246l-124 316zM498 910l-110 -138h-87l65 138h132z" />
    <glyph glyph-name="Acircumflex" unicode="&#xc2;" horiz-adv-x="678" 
d="M667 0h-100l-65 165h-324l-64 -165h-103l278 718h101zM217 266h246l-124 316zM400 910l75 -138h-77l-59 63l-59 -63h-77l75 138h122z" />
    <glyph glyph-name="Atilde" unicode="&#xc3;" horiz-adv-x="678" 
d="M667 0h-100l-65 165h-324l-64 -165h-103l278 718h101zM217 266h246l-124 316zM186 778l-3 -6q-10 27 -10 48q0 40 26 64q25 24 63 24q27 0 48 -10q25 -11 43 -22q18 -10 26 -14q12 -6 23 -6q14 0 23 9t9 25v10q0 3 -2 11h59q10 -23 10 -49q0 -40 -24 -63q-25 -23 -62 -23
q-24 0 -45 10q-22 10 -39 21q-26 14 -32 17q-12 6 -23 6q-15 0 -24 -9t-9 -25v-9q0 -3 2 -9h-59z" />
    <glyph glyph-name="Adieresis" unicode="&#xc4;" horiz-adv-x="678" 
d="M667 0h-100l-65 165h-324l-64 -165h-103l278 718h101zM217 266h246l-124 316zM170 846h-1q0 28 20 48t48 20t48 -20t20 -48t-20 -48t-48 -20t-48 20q-19 19 -19 48zM370 846h-1q0 28 20 48t48 20t48 -20t20 -48t-20 -48t-48 -20t-48 20q-19 19 -19 48z" />
    <glyph glyph-name="Aring" unicode="&#xc5;" horiz-adv-x="678" 
d="M667 0h-100l-65 165h-324l-64 -165h-103l278 718h101zM217 266h246l-124 316zM235 858q0 45 30 75t74 30t74 -30t30 -75q0 -44 -30 -74t-74 -30t-74 30t-30 74zM295 858h-2q0 -18 12 -30t32 -12t32 12t12 30q0 19 -12 31t-31 12t-31 -12t-12 -31z" />
    <glyph glyph-name="AE" unicode="&#xc6;" horiz-adv-x="914" 
d="M471 165h-272l-99 -165h-110l433 718h431v-101h-289v-197h259v-101h-259v-218h289v-101h-383v165zM471 266v350l-211 -350h211z" />
    <glyph glyph-name="Ccedilla" unicode="&#xc7;" horiz-adv-x="700" 
d="M411 -124l-7 -11q0 13 -11 21t-27 8q-11 0 -16 -1q-10 -2 -16 -4l-19 33l18 60q-63 9 -117 39q-53 29 -94 78q-40 48 -63 111q-23 64 -23 140q0 85 28 153q29 70 76 117q48 48 111 75t135 27q48 0 92 -11q41 -10 77 -29q35 -18 60 -42t39 -50l-29 -84q-34 51 -94 83
q-61 33 -139 33q-58 0 -106 -18q-46 -17 -82 -53q-34 -35 -54 -84q-19 -48 -19 -113q0 -64 19 -112q20 -50 54 -84q35 -35 83 -53t106 -18q85 0 146 35t95 84l28 -84q-16 -27 -42 -52q-26 -24 -60 -42q-36 -19 -75 -29q-40 -10 -89 -12l-11 -33q24 -2 41 -7q22 -7 35 -16
q14 -10 24 -26q9 -15 9 -34q0 -43 -32 -67t-81 -24q-34 0 -65 14q-29 13 -46 33l12 55q22 -19 44 -27q20 -7 44 -7q19 0 30 8t11 20z" />
    <glyph glyph-name="Egrave" unicode="&#xc8;" horiz-adv-x="533" 
d="M90 718h383v-101h-289v-197h259v-101h-259v-218h289v-101h-383v718zM287 910l65 -138h-87l-110 138h132z" />
    <glyph glyph-name="Eacute" unicode="&#xc9;" horiz-adv-x="533" 
d="M90 718h383v-101h-289v-197h259v-101h-259v-218h289v-101h-383v718zM416 910l-110 -138h-87l65 138h132z" />
    <glyph glyph-name="Ecircumflex" unicode="&#xca;" horiz-adv-x="533" 
d="M90 718h383v-101h-289v-197h259v-101h-259v-218h289v-101h-383v718zM344 910l75 -138h-77l-59 63l-59 -63h-77l75 138h122z" />
    <glyph glyph-name="Edieresis" unicode="&#xcb;" horiz-adv-x="533" 
d="M90 718h383v-101h-289v-197h259v-101h-259v-218h289v-101h-383v718zM116 846h-1q0 28 20 48t48 20t48 -20t20 -48t-20 -48t-48 -20t-48 20q-19 19 -19 48zM316 846h-1q0 28 20 48t48 20t48 -20t20 -48t-20 -48t-48 -20t-48 20q-19 19 -19 48z" />
    <glyph glyph-name="Igrave" unicode="&#xcc;" horiz-adv-x="274" 
d="M90 718h94v-718h-94v718zM116 910l65 -138h-87l-110 138h132z" />
    <glyph glyph-name="Iacute" unicode="&#xcd;" horiz-adv-x="274" 
d="M90 718h94v-718h-94v718zM293 910l-110 -138h-87l65 138h132z" />
    <glyph glyph-name="Icircumflex" unicode="&#xce;" horiz-adv-x="274" 
d="M90 718h94v-718h-94v718zM199 910l75 -138h-77l-59 63l-59 -63h-77l75 138h122z" />
    <glyph glyph-name="Idieresis" unicode="&#xcf;" horiz-adv-x="274" 
d="M90 718h94v-718h-94v718zM-31 846h-1q0 28 20 48t48 20t48 -20t20 -48t-20 -48t-48 -20t-48 20q-19 19 -19 48zM169 846h-1q0 28 20 48t48 20t48 -20t20 -48t-20 -48t-48 -20t-48 20q-19 19 -19 48z" />
    <glyph glyph-name="Eth" unicode="&#xd0;" horiz-adv-x="746" 
d="M9 420l90 -3v298h222q85 0 155 -24q71 -24 122 -69q52 -46 80 -112q29 -69 29 -153t-29 -151q-28 -65 -81 -112q-52 -46 -123 -70q-70 -24 -153 -24h-222v319h-90v101zM611 356l-3 1q0 56 -19 101q-20 47 -52 81q-33 34 -80 54q-48 20 -102 20h-163v-197h179v-101h-179
v-218h163q55 0 101 18t81 53t54 82q20 49 20 106z" />
    <glyph glyph-name="Ntilde" unicode="&#xd1;" horiz-adv-x="759" 
d="M90 718h102l383 -564v564h94v-718h-102l-383 561v-561h-94v718zM226 778l-3 -6q-10 27 -10 48q0 40 26 64q25 24 63 24q27 0 48 -10q25 -11 43 -22q18 -10 26 -14q12 -6 23 -6q14 0 23 9t9 25v10q0 3 -2 11h59q10 -23 10 -49q0 -40 -24 -63q-25 -23 -62 -23q-24 0 -45 10
q-22 10 -39 21q-26 14 -32 17q-12 6 -23 6q-15 0 -24 -9t-9 -25v-9q0 -3 2 -9h-59z" />
    <glyph glyph-name="Ograve" unicode="&#xd2;" horiz-adv-x="796" 
d="M398 730l1 -4q74 0 137 -28q64 -28 114 -78t78 -117q29 -69 29 -147t-29 -147q-28 -67 -78 -117t-114 -78q-63 -28 -135 -28t-139 29q-65 28 -115 78q-49 49 -78 117q-29 69 -29 147t29 148q28 68 78 118q49 49 114 78q66 29 137 29zM400 624l-1 -3q-55 0 -104 -20
q-47 -19 -84 -56q-36 -36 -57 -85q-21 -50 -21 -108t21 -108q21 -49 57 -85q35 -35 84 -55q47 -19 104 -19q54 0 103 20q50 20 83 55q36 37 56 85q21 50 21 110q0 59 -21 108q-21 50 -55 85q-35 36 -83 56q-49 20 -103 20zM387 903l65 -138h-87l-110 138h132z" />
    <glyph glyph-name="Oacute" unicode="&#xd3;" horiz-adv-x="796" 
d="M398 730l1 -4q74 0 137 -28q64 -28 114 -78t78 -117q29 -69 29 -147t-29 -147q-28 -67 -78 -117t-114 -78q-63 -28 -135 -28t-139 29q-65 28 -115 78q-49 49 -78 117q-29 69 -29 147t29 148q28 68 78 118q49 49 114 78q66 29 137 29zM400 624l-1 -3q-55 0 -104 -20
q-47 -19 -84 -56q-36 -36 -57 -85q-21 -50 -21 -108t21 -108q21 -49 57 -85q35 -35 84 -55q47 -19 104 -19q54 0 103 20q50 20 83 55q36 37 56 85q21 50 21 110q0 59 -21 108q-21 50 -55 85q-35 36 -83 56q-49 20 -103 20zM541 903l-110 -138h-87l65 138h132z" />
    <glyph glyph-name="Ocircumflex" unicode="&#xd4;" horiz-adv-x="796" 
d="M398 730l1 -4q74 0 137 -28q64 -28 114 -78t78 -117q29 -69 29 -147t-29 -147q-28 -67 -78 -117t-114 -78q-63 -28 -135 -28t-139 29q-65 28 -115 78q-49 49 -78 117q-29 69 -29 147t29 148q28 68 78 118q49 49 114 78q66 29 137 29zM400 624l-1 -3q-55 0 -104 -20
q-47 -19 -84 -56q-36 -36 -57 -85q-21 -50 -21 -108t21 -108q21 -49 57 -85q35 -35 84 -55q47 -19 104 -19q54 0 103 20q50 20 83 55q36 37 56 85q21 50 21 110q0 59 -21 108q-21 50 -55 85q-35 36 -83 56q-49 20 -103 20zM463 903l75 -138h-77l-59 63l-59 -63h-77l75 138
h122z" />
    <glyph glyph-name="Otilde" unicode="&#xd5;" horiz-adv-x="796" 
d="M398 730l1 -4q74 0 137 -28q64 -28 114 -78t78 -117q29 -69 29 -147t-29 -147q-28 -67 -78 -117t-114 -78q-63 -28 -135 -28t-139 29q-65 28 -115 78q-49 49 -78 117q-29 69 -29 147t29 148q28 68 78 118q49 49 114 78q66 29 137 29zM400 624l-1 -3q-55 0 -104 -20
q-47 -19 -84 -56q-36 -36 -57 -85q-21 -50 -21 -108t21 -108q21 -49 57 -85q35 -35 84 -55q47 -19 104 -19q54 0 103 20q50 20 83 55q36 37 56 85q21 50 21 110q0 59 -21 108q-21 50 -55 85q-35 36 -83 56q-49 20 -103 20zM249 771l-3 -6q-10 27 -10 48q0 40 26 64t63 24
q27 0 48 -10q25 -11 43 -22q18 -10 26 -14q12 -6 23 -6q14 0 23 9t9 25v10q0 3 -2 11h59q10 -23 10 -49q0 -41 -24 -63q-25 -23 -62 -23q-24 0 -45 10q-23 11 -39 21q-26 14 -32 17q-12 6 -23 6q-15 0 -24 -9t-9 -25v-9q0 -3 2 -9h-59z" />
    <glyph glyph-name="Odieresis" unicode="&#xd6;" horiz-adv-x="796" 
d="M398 730l1 -4q74 0 137 -28q64 -28 114 -78t78 -117q29 -69 29 -147t-29 -147q-28 -67 -78 -117t-114 -78q-63 -28 -135 -28t-139 29q-65 28 -115 78q-49 49 -78 117q-29 69 -29 147t29 148q28 68 78 118q49 49 114 78q66 29 137 29zM400 624l-1 -3q-55 0 -104 -20
q-47 -19 -84 -56q-36 -36 -57 -85q-21 -50 -21 -108t21 -108q21 -49 57 -85q35 -35 84 -55q47 -19 104 -19q54 0 103 20q50 20 83 55q36 37 56 85q21 50 21 110q0 59 -21 108q-21 50 -55 85q-35 36 -83 56q-49 20 -103 20zM233 839h-1q0 28 20 48t48 20t48 -20t20 -48
t-20 -48t-48 -20t-48 20q-19 19 -19 48zM433 839h-1q0 28 20 48t48 20t48 -20t20 -48t-20 -48t-48 -20t-48 20q-19 19 -19 48z" />
    <glyph glyph-name="multiply" unicode="&#xd7;" horiz-adv-x="524" 
d="M199 297l-137 137l61 60l136 -136l139 139l66 -66l-139 -139l136 -136l-61 -60l-135 136l-140 -140l-65 66z" />
    <glyph glyph-name="Oslash" unicode="&#xd8;" horiz-adv-x="806" 
d="M403 730v-4q57 0 106 -16q52 -17 95 -48l54 64h117l-104 -124q42 -48 66 -111t24 -136q0 -78 -29 -147q-28 -68 -78 -117t-114 -78q-63 -28 -135 -28q-55 0 -108 17q-51 16 -95 47l-53 -63h-117l104 123q-43 49 -67 112t-24 136q0 78 29 148q28 68 78 118q50 49 114 78
q66 29 137 29zM666 355l-1 -2q0 51 -15 95q-15 45 -43 78l-341 -406q31 -17 65 -26q35 -9 72 -9q54 0 103 20q50 20 83 55q36 37 56 85q21 50 21 110zM403 622l1 -2q-55 0 -104 -20q-47 -19 -84 -56q-36 -36 -57 -85t-21 -108q0 -51 15 -94q15 -45 43 -78l342 406
q-61 37 -135 37z" />
    <glyph glyph-name="Ugrave" unicode="&#xd9;" horiz-adv-x="735" 
d="M556 718l94 2v-431q0 -63 -20 -120q-19 -55 -56 -96q-36 -40 -89 -63q-51 -22 -117 -22q-62 0 -115 21t-90 60q-37 38 -58 94q-21 55 -21 123v432h94v-433q0 -44 14 -81q13 -35 39 -61q25 -25 60 -39q33 -13 77 -13q42 0 78 14q35 14 59 39q25 26 38 62q13 35 13 80v432z
M364 912l65 -138h-87l-110 138h132z" />
    <glyph glyph-name="Uacute" unicode="&#xda;" horiz-adv-x="735" 
d="M556 718l94 2v-431q0 -63 -20 -120q-19 -55 -56 -96q-36 -40 -89 -63q-51 -22 -117 -22q-62 0 -115 21t-90 60q-37 38 -58 94q-21 55 -21 123v432h94v-433q0 -44 14 -81q13 -35 39 -61q25 -25 60 -39q33 -13 77 -13q42 0 78 14q35 14 59 39q25 26 38 62q13 35 13 80v432z
M502 912l-110 -138h-87l65 138h132z" />
    <glyph glyph-name="Ucircumflex" unicode="&#xdb;" horiz-adv-x="735" 
d="M556 718l94 2v-431q0 -63 -20 -120q-19 -55 -56 -96q-36 -40 -89 -63q-51 -22 -117 -22q-62 0 -115 21t-90 60q-37 38 -58 94q-21 55 -21 123v432h94v-433q0 -44 14 -81q13 -35 39 -61q25 -25 60 -39q33 -13 77 -13q42 0 78 14q35 14 59 39q25 26 38 62q13 35 13 80v432z
M428 912l75 -138h-77l-59 63l-59 -63h-77l75 138h122z" />
    <glyph glyph-name="Udieresis" unicode="&#xdc;" horiz-adv-x="735" 
d="M556 718l94 2v-431q0 -63 -20 -120q-19 -55 -56 -96q-36 -40 -89 -63q-51 -22 -117 -22q-62 0 -115 21t-90 60q-37 38 -58 94q-21 55 -21 123v432h94v-433q0 -44 14 -81q13 -35 39 -61q25 -25 60 -39q33 -13 77 -13q42 0 78 14q35 14 59 39q25 26 38 62q13 35 13 80v432z
M198 848h-1q0 28 20 48t48 20t48 -20t20 -48t-20 -48t-48 -20t-48 20q-19 19 -19 48zM398 848h-1q0 28 20 48t48 20t48 -20t20 -48t-20 -48t-48 -20t-48 20q-19 19 -19 48z" />
    <glyph glyph-name="Yacute" unicode="&#xdd;" horiz-adv-x="558" 
d="M8 718h106l163 -307l164 307h109l-223 -419v-299h-94v299zM426 910l-110 -138h-87l65 138h132z" />
    <glyph glyph-name="Thorn" unicode="&#xde;" horiz-adv-x="546" 
d="M184 718l-2 -141h106q48 0 90 -15q41 -15 72 -44q30 -28 48 -69t18 -90t-16 -88q-17 -41 -46 -69q-30 -28 -72 -45q-41 -16 -91 -16h-107v-141h-94v718h94zM182 476v-235h122q49 0 82 33t33 85q0 24 -9 45q-9 22 -24 38q-14 16 -36 25q-21 9 -46 9h-122z" />
    <glyph glyph-name="germandbls" unicode="&#xdf;" horiz-adv-x="607" 
d="M435 413v1q55 -26 90 -78q34 -52 34 -118q0 -48 -16 -87q-17 -41 -46 -72q-30 -31 -70 -49q-41 -18 -88 -18q-39 0 -73 14q-32 13 -46 33l22 76q17 -14 41 -20t50 -6q29 0 55 9t44 27q19 19 29 42t10 51q0 32 -12 56q-12 25 -33 41q-22 18 -49 26q-29 9 -60 9h-48v92h15
q55 0 86 28q32 29 32 75q0 43 -30 71q-31 29 -80 29q-58 0 -88 -36t-30 -91v-517h-91v522q0 47 15 87t42 69t64 45q39 17 84 17q44 0 81 -15q38 -15 65 -42t42 -63t15 -76q0 -39 -14 -75q-13 -34 -42 -57z" />
    <glyph glyph-name="agrave" unicode="&#xe0;" horiz-adv-x="551" 
d="M383 177l1 -4q-12 22 -48 32q-38 11 -77 11q-57 0 -88 -18t-31 -49q0 -30 30 -48t89 -18q22 0 39 4q20 5 36 12t30 18q13 10 19 22v38zM75 420h-1q28 39 78 63q49 24 109 24q100 0 157 -51t57 -144v-315h-88v44q-9 -14 -25 -24q-16 -11 -36 -18q-20 -8 -40 -12
q-19 -4 -42 -4q-88 0 -142 42t-54 119q0 39 15 69t42 51q28 22 63 32q38 11 78 11q16 0 36 -3q26 -4 38 -7q19 -5 35 -12q15 -7 28 -18v24q0 30 -11 54q-10 21 -29 37q-17 14 -42 22q-22 7 -51 7q-49 0 -87 -19q-40 -20 -62 -51zM273 724l65 -148h-83l-110 148h128z" />
    <glyph glyph-name="aacute" unicode="&#xe1;" horiz-adv-x="551" 
d="M383 177l1 -4q-12 22 -48 32q-38 11 -77 11q-57 0 -88 -18t-31 -49q0 -30 30 -48t89 -18q22 0 39 4q20 5 36 12t30 18q13 10 19 22v38zM75 420h-1q28 39 78 63q49 24 109 24q100 0 157 -51t57 -144v-315h-88v44q-9 -14 -25 -24q-16 -11 -36 -18q-20 -8 -40 -12
q-19 -4 -42 -4q-88 0 -142 42t-54 119q0 39 15 69t42 51q28 22 63 32q38 11 78 11q16 0 36 -3q26 -4 38 -7q19 -5 35 -12q15 -7 28 -18v24q0 30 -11 54q-10 21 -29 37q-17 14 -42 22q-22 7 -51 7q-49 0 -87 -19q-40 -20 -62 -51zM407 724l-110 -148h-83l65 148h128z" />
    <glyph glyph-name="acircumflex" unicode="&#xe2;" horiz-adv-x="551" 
d="M383 177l1 -4q-12 22 -48 32q-38 11 -77 11q-57 0 -88 -18t-31 -49q0 -30 30 -48t89 -18q22 0 39 4q20 5 36 12t30 18q13 10 19 22v38zM75 420h-1q28 39 78 63q49 24 109 24q100 0 157 -51t57 -144v-315h-88v44q-9 -14 -25 -24q-16 -11 -36 -18q-20 -8 -40 -12
q-19 -4 -42 -4q-88 0 -142 42t-54 119q0 39 15 69t42 51q28 22 63 32q38 11 78 11q16 0 36 -3q26 -4 38 -7q19 -5 35 -12q15 -7 28 -18v24q0 30 -11 54q-10 21 -29 37q-17 14 -42 22q-22 7 -51 7q-49 0 -87 -19q-40 -20 -62 -51zM336 724l75 -148h-80l-59 73l-59 -73h-80
l75 148h128z" />
    <glyph glyph-name="atilde" unicode="&#xe3;" horiz-adv-x="551" 
d="M383 177l1 -4q-12 22 -48 32q-38 11 -77 11q-57 0 -88 -18t-31 -49q0 -30 30 -48t89 -18q22 0 39 4q20 5 36 12t30 18q13 10 19 22v38zM75 420h-1q28 39 78 63q49 24 109 24q100 0 157 -51t57 -144v-315h-88v44q-9 -14 -25 -24q-16 -11 -36 -18q-20 -8 -40 -12
q-19 -4 -42 -4q-88 0 -142 42t-54 119q0 39 15 69t42 51q28 22 63 32q38 11 78 11q16 0 36 -3q26 -4 38 -7q19 -5 35 -12q15 -7 28 -18v24q0 30 -11 54q-10 21 -29 37q-17 14 -42 22q-22 7 -51 7q-49 0 -87 -19q-40 -20 -62 -51zM119 582l-3 -6q-10 27 -10 48q0 40 26 64
t63 24q27 0 48 -10q25 -11 43 -22q18 -10 26 -14q12 -6 23 -6q14 0 23 9t9 25v10q0 3 -2 11h59q10 -23 10 -49q0 -40 -24 -63q-25 -23 -62 -23q-24 0 -45 10q-23 10 -39 21q-26 14 -32 17q-12 6 -23 6q-15 0 -24 -9t-9 -25v-9q0 -3 2 -9h-59z" />
    <glyph glyph-name="adieresis" unicode="&#xe4;" horiz-adv-x="551" 
d="M383 177l1 -4q-12 22 -48 32q-38 11 -77 11q-57 0 -88 -18t-31 -49q0 -30 30 -48t89 -18q22 0 39 4q20 5 36 12t30 18q13 10 19 22v38zM75 420h-1q28 39 78 63q49 24 109 24q100 0 157 -51t57 -144v-315h-88v44q-9 -14 -25 -24q-16 -11 -36 -18q-20 -8 -40 -12
q-19 -4 -42 -4q-88 0 -142 42t-54 119q0 39 15 69t42 51q28 22 63 32q38 11 78 11q16 0 36 -3q26 -4 38 -7q19 -5 35 -12q15 -7 28 -18v24q0 30 -11 54q-10 21 -29 37q-17 14 -42 22q-22 7 -51 7q-49 0 -87 -19q-40 -20 -62 -51zM107 651l-3 -3q0 28 20 48t47 20
q29 0 48 -19q20 -20 20 -48q0 -27 -19 -46t-48 -19q-26 0 -46 20q-19 19 -19 47zM301 648l-3 -3q0 28 20 48t47 20q29 0 48 -19q20 -20 20 -48q0 -27 -19 -46t-48 -19q-26 0 -46 20q-19 19 -19 47z" />
    <glyph glyph-name="aring" unicode="&#xe5;" horiz-adv-x="551" 
d="M383 177l1 -4q-12 22 -48 32q-38 11 -77 11q-57 0 -88 -18t-31 -49q0 -30 30 -48t89 -18q22 0 39 4q20 5 36 12t30 18q13 10 19 22v38zM75 420h-1q28 39 78 63q49 24 109 24q100 0 157 -51t57 -144v-315h-88v44q-9 -14 -25 -24q-16 -11 -36 -18q-20 -8 -40 -12
q-19 -4 -42 -4q-88 0 -142 42t-54 119q0 39 15 69t42 51q28 22 63 32q38 11 78 11q16 0 36 -3q26 -4 38 -7q19 -5 35 -12q15 -7 28 -18v24q0 30 -11 54q-10 21 -29 37q-17 14 -42 22q-22 7 -51 7q-49 0 -87 -19q-40 -20 -62 -51zM168 662q0 45 30 75t74 30t74 -30t30 -75
q0 -44 -30 -74t-74 -30t-74 30t-30 74zM229 662q0 -18 12 -30t30 -12t30 12t12 30t-12 30t-30 12t-30 -12t-12 -30z" />
    <glyph glyph-name="ae" unicode="&#xe6;" horiz-adv-x="906" 
d="M249 414l-6 -3q-49 0 -87 -19q-40 -20 -62 -51l-26 79q28 39 78 63t109 24q63 0 110 -21q48 -22 74 -61q31 37 77 60t104 23q54 0 97 -21q44 -21 74 -57q31 -37 47 -84t16 -100q0 -16 -3 -34h-382q7 -66 54 -99t118 -33q25 0 47 6q24 6 44 15q20 8 37 21q17 12 27 24
l24 -71q-8 -17 -24 -33q-17 -17 -40 -30q-24 -14 -54 -21q-32 -8 -65 -8q-65 0 -117 24t-87 69q-28 -43 -78 -67q-49 -24 -110 -24q-91 0 -145 42t-54 120q0 39 15 69t42 51q28 22 63 32q38 11 78 11q16 0 36 -3q26 -4 38 -7q19 -5 35 -12q18 -8 29 -18v25q0 35 -12 57
t-32 36q-21 14 -43 20q-24 6 -46 6zM377 174l1 -4q-12 22 -48 32q-38 11 -77 11q-57 0 -88 -18t-31 -49q0 -30 30 -48t89 -18q22 0 39 4q20 4 36 12t30 18q13 10 19 22v38zM756 301l-2 -3q-2 22 -12 42q-10 18 -29 34t-42 23q-26 8 -51 8t-52 -8q-26 -7 -45 -21t-33 -33
q-13 -19 -16 -42h282z" />
    <glyph glyph-name="ccedilla" unicode="&#xe7;" horiz-adv-x="540" 
d="M325 -124l-6 -6q0 13 -11 21t-27 8q-11 0 -16 -1q-10 -2 -16 -4l-19 33l18 62q-43 9 -79 31q-38 23 -66 55q-29 33 -45 76q-16 42 -16 94q0 59 21 107q21 49 57 83t83 54q45 19 98 19q36 0 64 -7q32 -8 54 -19q23 -11 40 -27q17 -15 24 -31l-24 -72q-21 24 -59 42t-81 18
q-84 0 -135 -45t-51 -120q0 -36 14 -67q13 -29 38 -51q24 -21 58 -33q35 -12 76 -12q47 0 84 18q38 18 59 42l25 -71q-7 -16 -24 -31t-39 -27q-21 -11 -51 -19q-29 -8 -63 -9l-11 -33q24 -2 41 -7q22 -7 35 -16q14 -10 24 -26q9 -15 9 -34q0 -43 -32 -67t-81 -24
q-34 0 -65 14q-29 13 -46 33l12 55q22 -19 44 -27q20 -7 44 -7q19 0 30 8t11 20z" />
    <glyph glyph-name="egrave" unicode="&#xe8;" horiz-adv-x="574" 
d="M312 85l-3 5q25 0 47 6q24 6 44 15q20 8 37 21q17 12 27 24l24 -71q-8 -17 -24 -33q-17 -17 -40 -30q-24 -14 -54 -21q-32 -8 -65 -8q-55 0 -103 18q-47 18 -82 51q-34 33 -54 81q-19 47 -19 108q0 51 17 100q16 48 48 84q31 36 77 57q45 21 102 21q53 0 97 -21t74 -57
q31 -37 47 -84t16 -100q0 -16 -3 -34h-382q8 -66 54 -99t118 -33zM426 313l-2 -3q-2 22 -12 42q-10 18 -29 34t-42 23q-26 8 -51 8t-52 -8q-26 -7 -45 -21t-33 -33q-13 -19 -16 -42h282zM266 730l65 -148h-83l-110 148h128z" />
    <glyph glyph-name="eacute" unicode="&#xe9;" horiz-adv-x="574" 
d="M312 85l-3 5q25 0 47 6q24 6 44 15q20 8 37 21q17 12 27 24l24 -71q-8 -17 -24 -33q-17 -17 -40 -30q-24 -14 -54 -21q-32 -8 -65 -8q-55 0 -103 18q-47 18 -82 51q-34 33 -54 81q-19 47 -19 108q0 51 17 100q16 48 48 84q31 36 77 57q45 21 102 21q53 0 97 -21t74 -57
q31 -37 47 -84t16 -100q0 -16 -3 -34h-382q8 -66 54 -99t118 -33zM426 313l-2 -3q-2 22 -12 42q-10 18 -29 34t-42 23q-26 8 -51 8t-52 -8q-26 -7 -45 -21t-33 -33q-13 -19 -16 -42h282zM428 730l-110 -148h-83l65 148h128z" />
    <glyph glyph-name="ecircumflex" unicode="&#xea;" horiz-adv-x="574" 
d="M312 85l-3 5q25 0 47 6q24 6 44 15q20 8 37 21q17 12 27 24l24 -71q-8 -17 -24 -33q-17 -17 -40 -30q-24 -14 -54 -21q-32 -8 -65 -8q-55 0 -103 18q-47 18 -82 51q-34 33 -54 81q-19 47 -19 108q0 51 17 100q16 48 48 84q31 36 77 57q45 21 102 21q53 0 97 -21t74 -57
q31 -37 47 -84t16 -100q0 -16 -3 -34h-382q8 -66 54 -99t118 -33zM426 313l-2 -3q-2 22 -12 42q-10 18 -29 34t-42 23q-26 8 -51 8t-52 -8q-26 -7 -45 -21t-33 -33q-13 -19 -16 -42h282zM347 730l75 -148h-80l-59 73l-59 -73h-80l75 148h128z" />
    <glyph glyph-name="edieresis" unicode="&#xeb;" horiz-adv-x="574" 
d="M312 85l-3 5q25 0 47 6q24 6 44 15q20 8 37 21q17 12 27 24l24 -71q-8 -17 -24 -33q-17 -17 -40 -30q-24 -14 -54 -21q-32 -8 -65 -8q-55 0 -103 18q-47 18 -82 51q-34 33 -54 81q-19 47 -19 108q0 51 17 100q16 48 48 84q31 36 77 57q45 21 102 21q53 0 97 -21t74 -57
q31 -37 47 -84t16 -100q0 -16 -3 -34h-382q8 -66 54 -99t118 -33zM426 313l-2 -3q-2 22 -12 42q-10 18 -29 34t-42 23q-26 8 -51 8t-52 -8q-26 -7 -45 -21t-33 -33q-13 -19 -16 -42h282zM124 657l-3 -3q0 28 20 48t47 20q29 0 48 -19q20 -20 20 -48q0 -27 -19 -46t-48 -19
q-26 0 -46 20q-19 19 -19 47zM318 654l-3 -3q0 28 20 48t47 20q29 0 48 -19q20 -20 20 -48q0 -27 -19 -46t-48 -19q-26 0 -46 20q-19 19 -19 47z" />
    <glyph glyph-name="igrave" unicode="&#xec;" horiz-adv-x="254" 
d="M82 499h91v-499h-91v499zM104 728l65 -148h-83l-110 148h128z" />
    <glyph glyph-name="iacute" unicode="&#xed;" horiz-adv-x="254" 
d="M82 499h91v-499h-91v499zM282 728l-110 -148h-83l65 148h128z" />
    <glyph glyph-name="icircumflex" unicode="&#xee;" horiz-adv-x="254" 
d="M82 499h91v-499h-91v499zM192 728l75 -148h-80l-59 73l-59 -73h-80l75 148h128z" />
    <glyph glyph-name="idieresis" unicode="&#xef;" horiz-adv-x="254" 
d="M82 499h91v-499h-91v499zM-37 655l-3 -3q0 28 20 48t47 20q29 0 48 -19q20 -20 20 -48q0 -27 -19 -46t-48 -19q-26 0 -46 20q-19 19 -19 47zM157 652l-3 -3q0 28 20 48t47 20q29 0 48 -19q20 -20 20 -48q0 -27 -19 -46t-48 -19q-26 0 -46 20q-19 19 -19 47z" />
    <glyph glyph-name="eth" unicode="&#xf0;" horiz-adv-x="609" 
d="M344 676l110 42l35 -69l-99 -44l90 -133q32 -49 57 -106t25 -124q0 -56 -19 -101q-19 -47 -54 -81t-81 -54q-48 -20 -102 -20q-52 0 -99 18q-46 18 -82 51t-57 80t-21 102q0 50 18 95q19 47 52 80q34 34 82 55t107 21q20 0 32 -1q22 -2 32 -4l-60 90l-119 -53l-37 74
l110 48l-57 86h103zM306 81v-2q37 0 67 12q29 12 52 33q22 21 34 49q12 29 12 61q0 34 -12 62q-12 29 -34 48q-24 21 -52 32q-30 12 -67 12q-38 0 -68 -12q-31 -12 -51 -31q-21 -19 -33 -48t-12 -61t12 -61q12 -28 33 -49t51 -33t68 -12z" />
    <glyph glyph-name="ntilde" unicode="&#xf1;" horiz-adv-x="598" 
d="M306 511l-2 -3q41 0 79 -13q37 -13 70 -41q31 -27 51 -71q19 -42 19 -103v-282h-91v280q0 33 -10 57q-10 25 -27 42t-39 26q-23 9 -50 9q-25 0 -46 -7q-23 -8 -40 -19q-17 -12 -30 -29q-11 -15 -16 -36v-321h-91v499h88v-55q11 28 45 48q34 19 90 19zM151 583l-3 -6
q-10 27 -10 48q0 40 26 64t63 24q27 0 48 -10q25 -11 43 -22q18 -10 26 -14q12 -6 23 -6q14 0 23 9t9 25v10q0 3 -2 11h59q10 -23 10 -49q0 -41 -24 -63q-25 -23 -62 -23q-24 0 -45 10q-23 11 -39 21q-26 14 -32 17q-12 6 -23 6q-15 0 -24 -9t-9 -25v-9q0 -3 2 -9h-59z" />
    <glyph glyph-name="ograve" unicode="&#xf2;" 
d="M552 249v-1q0 -56 -21 -104q-22 -50 -55 -83q-34 -34 -80 -54q-44 -19 -96 -19q-49 0 -97 20q-47 20 -81 54t-54 83t-20 104t20 104t54 83t81 54q48 20 97 20q50 0 96 -20t80 -54q33 -33 55 -83q21 -48 21 -104zM139 248v-3q0 -37 12 -67q12 -31 34 -51q23 -21 51 -33
t63 -12q34 0 64 12q29 12 52 33q22 20 34 51q12 30 12 67q0 38 -12 68q-13 32 -34 53q-22 22 -52 34t-64 12q-35 0 -63 -12q-29 -12 -51 -34t-34 -52t-12 -66zM284 724l65 -148h-83l-110 148h128z" />
    <glyph glyph-name="oacute" unicode="&#xf3;" 
d="M552 249v-1q0 -56 -21 -104q-22 -50 -55 -83q-34 -34 -80 -54q-44 -19 -96 -19q-49 0 -97 20q-47 20 -81 54t-54 83t-20 104t20 104t54 83t81 54q48 20 97 20q50 0 96 -20t80 -54q33 -33 55 -83q21 -48 21 -104zM139 248v-3q0 -37 12 -67q12 -31 34 -51q23 -21 51 -33
t63 -12q34 0 64 12q29 12 52 33q22 20 34 51q12 30 12 67q0 38 -12 68q-13 32 -34 53q-22 22 -52 34t-64 12q-35 0 -63 -12q-29 -12 -51 -34t-34 -52t-12 -66zM444 724l-110 -148h-83l65 148h128z" />
    <glyph glyph-name="ocircumflex" unicode="&#xf4;" 
d="M552 249v-1q0 -56 -21 -104q-22 -50 -55 -83q-34 -34 -80 -54q-44 -19 -96 -19q-49 0 -97 20q-47 20 -81 54t-54 83t-20 104t20 104t54 83t81 54q48 20 97 20q50 0 96 -20t80 -54q33 -33 55 -83q21 -48 21 -104zM139 248v-3q0 -37 12 -67q12 -31 34 -51q23 -21 51 -33
t63 -12q34 0 64 12q29 12 52 33q22 20 34 51q12 30 12 67q0 38 -12 68q-13 32 -34 53q-22 22 -52 34t-64 12q-35 0 -63 -12q-29 -12 -51 -34t-34 -52t-12 -66zM364 724l75 -148h-80l-59 73l-59 -73h-80l75 148h128z" />
    <glyph glyph-name="otilde" unicode="&#xf5;" 
d="M552 249v-1q0 -56 -21 -104q-22 -50 -55 -83q-34 -34 -80 -54q-44 -19 -96 -19q-49 0 -97 20q-47 20 -81 54t-54 83t-20 104t20 104t54 83t81 54q48 20 97 20q50 0 96 -20t80 -54q33 -33 55 -83q21 -48 21 -104zM139 248v-3q0 -37 12 -67q12 -31 34 -51q23 -21 51 -33
t63 -12q34 0 64 12q29 12 52 33q22 20 34 51q12 30 12 67q0 38 -12 68q-13 32 -34 53q-22 22 -52 34t-64 12q-35 0 -63 -12q-29 -12 -51 -34t-34 -52t-12 -66zM147 582l-3 -6q-10 27 -10 48q0 40 26 64t63 24q27 0 48 -10q25 -11 43 -22q18 -10 26 -14q12 -6 23 -6
q14 0 23 9t9 25v10q0 3 -2 11h59q10 -23 10 -49q0 -40 -24 -63q-25 -23 -62 -23q-24 0 -45 10q-23 10 -39 21q-26 14 -32 17q-12 6 -23 6q-15 0 -24 -9t-9 -25v-9q0 -3 2 -9h-59z" />
    <glyph glyph-name="odieresis" unicode="&#xf6;" 
d="M552 249v-1q0 -56 -21 -104q-22 -50 -55 -83q-34 -34 -80 -54q-44 -19 -96 -19q-49 0 -97 20q-47 20 -81 54t-54 83t-20 104t20 104t54 83t81 54q48 20 97 20q50 0 96 -20t80 -54q33 -33 55 -83q21 -48 21 -104zM139 248v-3q0 -37 12 -67q12 -31 34 -51q23 -21 51 -33
t63 -12q34 0 64 12q29 12 52 33q22 20 34 51q12 30 12 67q0 38 -12 68q-13 32 -34 53q-22 22 -52 34t-64 12q-35 0 -63 -12q-29 -12 -51 -34t-34 -52t-12 -66zM135 651l-3 -3q0 28 20 48t47 20q29 0 48 -19q20 -20 20 -48q0 -27 -19 -46t-48 -19q-26 0 -46 20q-19 19 -19 47
zM329 648l-3 -3q0 28 20 48t47 20q29 0 48 -19q20 -20 20 -48q0 -27 -19 -46t-48 -19q-26 0 -46 20q-19 19 -19 47z" />
    <glyph glyph-name="divide" unicode="&#xf7;" horiz-adv-x="539" 
d="M196 482q0 30 21 51t51 21t51 -21t21 -51t-21 -51t-51 -21t-51 21t-21 51zM196 107q0 30 21 51t51 21t51 -21t21 -51t-21 -51t-51 -21t-51 21t-21 51zM60 341h419v-93h-419v93z" />
    <glyph glyph-name="oslash" unicode="&#xf8;" horiz-adv-x="609" 
d="M556 249v1q0 -56 -21 -104q-22 -50 -55 -83q-34 -34 -80 -54q-44 -19 -96 -19q-73 0 -132 38l-32 -38h-115l82 97q-25 32 -40 75q-15 42 -15 90q0 55 20 104t54 83q34 35 81 54q48 20 97 20q38 0 69 -10q34 -11 62 -30l33 39h115l-83 -98q26 -34 41 -75q15 -42 15 -90z
M143 250v-2q0 -53 25 -93l206 243q-17 8 -34 12q-16 4 -37 4q-35 0 -63 -12q-29 -12 -51 -34t-34 -52t-12 -66zM465 247h-1q0 53 -25 93l-206 -242q34 -14 70 -14q34 0 64 12q29 12 52 33q22 20 34 51q12 30 12 67z" />
    <glyph glyph-name="ugrave" unicode="&#xf9;" horiz-adv-x="594" 
d="M289 -12l-2 -1q-39 0 -79 14q-38 13 -69 41q-29 26 -49 71q-19 42 -19 104v282h91v-280q0 -65 36 -99q35 -34 90 -34q25 0 46 7q20 7 40 20q17 12 30 29q13 18 17 36v321h91v-499h-88v55q-10 -29 -45 -48q-34 -19 -90 -19zM279 727l65 -148h-83l-110 148h128z" />
    <glyph glyph-name="uacute" unicode="&#xfa;" horiz-adv-x="594" 
d="M289 -12l-2 -1q-39 0 -79 14q-38 13 -69 41q-29 26 -49 71q-19 42 -19 104v282h91v-280q0 -65 36 -99q35 -34 90 -34q25 0 46 7q20 7 40 20q17 12 30 29q13 18 17 36v321h91v-499h-88v55q-10 -29 -45 -48q-34 -19 -90 -19zM430 727l-110 -148h-83l65 148h128z" />
    <glyph glyph-name="ucircumflex" unicode="&#xfb;" horiz-adv-x="594" 
d="M289 -12l-2 -1q-39 0 -79 14q-38 13 -69 41q-29 26 -49 71q-19 42 -19 104v282h91v-280q0 -65 36 -99q35 -34 90 -34q25 0 46 7q20 7 40 20q17 12 30 29q13 18 17 36v321h91v-499h-88v55q-10 -29 -45 -48q-34 -19 -90 -19zM356 727l75 -148h-80l-59 73l-59 -73h-80
l75 148h128z" />
    <glyph glyph-name="udieresis" unicode="&#xfc;" horiz-adv-x="594" 
d="M289 -12l-2 -1q-39 0 -79 14q-38 13 -69 41q-29 26 -49 71q-19 42 -19 104v282h91v-280q0 -65 36 -99q35 -34 90 -34q25 0 46 7q20 7 40 20q17 12 30 29q13 18 17 36v321h91v-499h-88v55q-10 -29 -45 -48q-34 -19 -90 -19zM128 654l-3 -3q0 28 20 48t47 20q29 0 48 -19
q20 -20 20 -48q0 -27 -19 -46t-48 -19q-26 0 -46 20q-19 19 -19 47zM322 651l-3 -3q0 28 20 48t47 20q29 0 48 -19q20 -20 20 -48q0 -27 -19 -46t-48 -19q-26 0 -46 20q-19 19 -19 47z" />
    <glyph glyph-name="yacute" unicode="&#xfd;" horiz-adv-x="547" 
d="M18 499h102l153 -367l152 367h101l-297 -712h-101l96 232zM406 728l-110 -148h-83l65 148h128z" />
    <glyph glyph-name="thorn" unicode="&#xfe;" horiz-adv-x="628" 
d="M580 249l1 -1q0 -58 -21 -106q-20 -46 -56 -82q-34 -34 -81 -54q-45 -19 -97 -19q-59 0 -98 19q-41 20 -53 48v-267h-91v941h86v-282q12 29 54 47t99 18q54 0 99 -19q46 -20 81 -54q35 -35 56 -83t21 -106zM490 250v2q0 76 -46 119q-47 44 -123 44q-52 0 -94 -24
q-41 -24 -55 -60v-163q14 -36 55 -60q42 -24 94 -24q77 0 123 45t46 121z" />
    <glyph glyph-name="ydieresis" unicode="&#xff;" horiz-adv-x="547" 
d="M18 499h102l153 -367l152 367h101l-297 -712h-101l96 232zM107 655l-3 -3q0 28 20 48t47 20q29 0 48 -19q20 -20 20 -48q0 -27 -19 -46t-48 -19q-26 0 -46 20q-19 19 -19 47zM301 652l-3 -3q0 28 20 48t47 20q29 0 48 -19q20 -20 20 -48q0 -27 -19 -46t-48 -19
q-26 0 -46 20q-19 19 -19 47z" />
    <glyph glyph-name="Amacron" unicode="&#x100;" horiz-adv-x="678" 
d="M667 0h-100l-65 165h-324l-64 -165h-103l278 718h101zM217 266h246l-124 316zM485 887v-86h-291v86h291z" />
    <glyph glyph-name="amacron" unicode="&#x101;" horiz-adv-x="551" 
d="M383 177l1 -4q-12 22 -48 32q-38 11 -77 11q-57 0 -88 -18t-31 -49q0 -30 30 -48t89 -18q22 0 39 4q20 5 36 12t30 18q13 10 19 22v38zM75 420h-1q28 39 78 63q49 24 109 24q100 0 157 -51t57 -144v-315h-88v44q-9 -14 -25 -24q-16 -11 -36 -18q-20 -8 -40 -12
q-19 -4 -42 -4q-88 0 -142 42t-54 119q0 39 15 69t42 51q28 22 63 32q38 11 78 11q16 0 36 -3q26 -4 38 -7q19 -5 35 -12q15 -7 28 -18v24q0 30 -11 54q-10 21 -29 37q-17 14 -42 22q-22 7 -51 7q-49 0 -87 -19q-40 -20 -62 -51zM418 697v-86h-291v86h291z" />
    <glyph glyph-name="Abreve" unicode="&#x102;" horiz-adv-x="678" 
d="M667 0h-100l-65 165h-324l-64 -165h-103l278 718h101zM217 266h246l-124 316zM484 914l-2 -2q-2 -30 -13 -54q-13 -27 -31 -44q-20 -19 -45 -29q-24 -10 -55 -10q-28 0 -55 11q-25 10 -45 29q-18 17 -31 44q-11 24 -13 54h85q3 -19 20 -33q16 -13 39 -13q22 0 41 14
q18 13 21 33h84z" />
    <glyph glyph-name="abreve" unicode="&#x103;" horiz-adv-x="551" 
d="M383 177l1 -4q-12 22 -48 32q-38 11 -77 11q-57 0 -88 -18t-31 -49q0 -30 30 -48t89 -18q22 0 39 4q20 5 36 12t30 18q13 10 19 22v38zM75 420h-1q28 39 78 63q49 24 109 24q100 0 157 -51t57 -144v-315h-88v44q-9 -14 -25 -24q-16 -11 -36 -18q-20 -8 -40 -12
q-19 -4 -42 -4q-88 0 -142 42t-54 119q0 39 15 69t42 51q28 22 63 32q38 11 78 11q16 0 36 -3q26 -4 38 -7q19 -5 35 -12q15 -7 28 -18v24q0 30 -11 54q-10 21 -29 37q-17 14 -42 22q-22 7 -51 7q-49 0 -87 -19q-40 -20 -62 -51zM417 718l-2 -2q-2 -30 -13 -54
q-13 -27 -31 -44q-20 -19 -45 -29q-24 -10 -55 -10q-28 0 -55 11q-25 10 -45 29q-18 17 -31 44q-11 24 -13 54h85q3 -19 20 -33q16 -13 39 -13q22 0 41 14q18 13 21 33h84z" />
    <glyph glyph-name="Aogonek" unicode="&#x104;" horiz-adv-x="678" 
d="M567 0l-64 163h-324l-64 -165h-103l278 718h101l277 -718q-12 -17 -20 -33q-9 -18 -9 -39q0 -26 15 -39q16 -14 38 -14q4 0 12 2q6 1 11 5l12 -73q-7 -9 -24 -18t-42 -9q-55 0 -85 31t-30 75q0 21 7 38q6 15 17 33q9 15 20 26q13 13 18 17h-41zM218 264h246l-124 316z
" />
    <glyph glyph-name="aogonek" unicode="&#x105;" horiz-adv-x="551" 
d="M386 0v42q-9 -14 -25 -24q-17 -10 -36 -18q-20 -8 -40 -12q-19 -4 -42 -4q-88 0 -142 42t-54 119q0 39 15 69t42 51q28 22 63 32q38 11 78 11q17 0 36 -3q26 -4 38 -7q19 -5 35 -12q15 -7 28 -18v24q0 30 -11 54q-10 21 -29 37q-17 14 -42 22q-22 7 -51 7q-49 0 -87 -19
q-40 -20 -62 -51l-26 79q28 39 78 63q49 24 109 24q100 0 157 -51t57 -144v-315q-12 -17 -20 -33q-9 -18 -9 -39q0 -26 15 -39q16 -14 38 -14q4 0 12 2q6 1 11 5l12 -73q-8 -9 -24 -18t-42 -9q-55 0 -85 31t-30 75q0 21 7 38q6 15 17 33q9 15 20 26q13 13 18 17h-29z
M383 175l1 -4q-12 22 -48 32q-38 11 -77 11q-57 0 -88 -18t-31 -49q0 -30 30 -48t89 -18q22 0 39 4q20 5 36 12t30 18q13 10 19 22v38z" />
    <glyph glyph-name="Cacute" unicode="&#x106;" horiz-adv-x="700" 
d="M665 124l-2 -9q-17 -29 -42 -54t-61 -43q-35 -17 -79 -28q-41 -10 -93 -10q-71 0 -134 27q-64 27 -111 76t-76 117q-28 66 -28 152q0 85 28 153q29 70 76 117q48 48 111 75t135 27q48 0 92 -11q41 -10 77 -29q34 -18 60 -42q25 -24 39 -50l-29 -84q-34 51 -94 83
q-62 33 -139 33q-58 0 -106 -18q-46 -17 -82 -53q-35 -35 -54 -84q-19 -48 -19 -113q0 -64 19 -112q19 -50 54 -84q35 -35 83 -53t106 -18q85 0 146 35t95 84zM534 901l-110 -138h-87l65 138h132z" />
    <glyph glyph-name="cacute" unicode="&#x107;" horiz-adv-x="540" 
d="M492 75l-4 -6q-8 -17 -24 -32q-17 -16 -40 -27q-22 -11 -54 -19q-28 -7 -65 -7q-53 0 -98 19q-46 19 -82 54q-36 34 -57 83q-21 48 -21 107t21 107q21 49 57 83t83 54q45 19 98 19q36 0 64 -7q32 -8 54 -19q23 -11 40 -27q17 -15 24 -31l-24 -72q-21 24 -59 42
q-37 18 -81 18q-84 0 -135 -45t-51 -120q0 -36 14 -67q13 -29 38 -51q24 -21 58 -33t76 -12q46 0 84 18t59 42zM436 722l-110 -148h-83l65 148h128z" />
    <glyph glyph-name="Ccircumflex" unicode="&#x108;" horiz-adv-x="700" 
d="M665 124l-2 -9q-17 -29 -42 -54t-61 -43q-35 -17 -79 -28q-41 -10 -93 -10q-71 0 -134 27q-64 27 -111 76t-76 117q-28 66 -28 152q0 85 28 153q29 70 76 117q48 48 111 75t135 27q48 0 92 -11q41 -10 77 -29q34 -18 60 -42q25 -24 39 -50l-29 -84q-34 51 -94 83
q-62 33 -139 33q-58 0 -106 -18q-46 -17 -82 -53q-35 -35 -54 -84q-19 -48 -19 -113q0 -64 19 -112q19 -50 54 -84q35 -35 83 -53t106 -18q85 0 146 35t95 84zM450 901l75 -138h-77l-59 63l-59 -63h-77l75 138h122z" />
    <glyph glyph-name="ccircumflex" unicode="&#x109;" horiz-adv-x="540" 
d="M492 75l-4 -6q-8 -17 -24 -32q-17 -16 -40 -27q-22 -11 -54 -19q-28 -7 -65 -7q-53 0 -98 19q-46 19 -82 54q-36 34 -57 83q-21 48 -21 107t21 107q21 49 57 83t83 54q45 19 98 19q36 0 64 -7q32 -8 54 -19q23 -11 40 -27q17 -15 24 -31l-24 -72q-21 24 -59 42
q-37 18 -81 18q-84 0 -135 -45t-51 -120q0 -36 14 -67q13 -29 38 -51q24 -21 58 -33t76 -12q46 0 84 18t59 42zM356 722l75 -148h-80l-59 73l-59 -73h-80l75 148h128z" />
    <glyph glyph-name="Cdotaccent" unicode="&#x10a;" horiz-adv-x="700" 
d="M665 124l-2 -9q-17 -29 -42 -54t-61 -43q-35 -17 -79 -28q-41 -10 -93 -10q-71 0 -134 27q-64 27 -111 76t-76 117q-28 66 -28 152q0 85 28 153q29 70 76 117q48 48 111 75t135 27q48 0 92 -11q41 -10 77 -29q34 -18 60 -42q25 -24 39 -50l-29 -84q-34 51 -94 83
q-62 33 -139 33q-58 0 -106 -18q-46 -17 -82 -53q-35 -35 -54 -84q-19 -48 -19 -113q0 -64 19 -112q19 -50 54 -84q35 -35 83 -53t106 -18q85 0 146 35t95 84zM316 837l-3 -3q0 28 20 48t47 20q29 0 48 -19q20 -20 20 -48q0 -27 -19 -46t-48 -19q-26 0 -46 20q-19 19 -19 47
z" />
    <glyph glyph-name="cdotaccent" unicode="&#x10b;" horiz-adv-x="540" 
d="M492 75l-4 -6q-8 -17 -24 -32q-17 -16 -40 -27q-22 -11 -54 -19q-28 -7 -65 -7q-53 0 -98 19q-46 19 -82 54q-36 34 -57 83q-21 48 -21 107t21 107q21 49 57 83t83 54q45 19 98 19q36 0 64 -7q32 -8 54 -19q23 -11 40 -27q17 -15 24 -31l-24 -72q-21 24 -59 42
q-37 18 -81 18q-84 0 -135 -45t-51 -120q0 -36 14 -67q13 -29 38 -51q24 -21 58 -33t76 -12q46 0 84 18t59 42zM226 649l-3 -3q0 28 20 48t47 20q29 0 48 -19q20 -20 20 -48q0 -27 -19 -46t-48 -19q-26 0 -46 20q-19 19 -19 47z" />
    <glyph glyph-name="Ccaron" unicode="&#x10c;" horiz-adv-x="700" 
d="M665 124l-2 -9q-17 -29 -42 -54t-61 -43q-35 -17 -79 -28q-41 -10 -93 -10q-71 0 -134 27q-64 27 -111 76t-76 117q-28 66 -28 152q0 85 28 153q29 70 76 117q48 48 111 75t135 27q48 0 92 -11q41 -10 77 -29q34 -18 60 -42q25 -24 39 -50l-29 -84q-34 51 -94 83
q-62 33 -139 33q-58 0 -106 -18q-46 -17 -82 -53q-35 -35 -54 -84q-19 -48 -19 -113q0 -64 19 -112q19 -50 54 -84q35 -35 83 -53t106 -18q85 0 146 35t95 84zM328 763l-75 138h77l59 -63l59 63h77l-75 -138h-122z" />
    <glyph glyph-name="ccaron" unicode="&#x10d;" horiz-adv-x="540" 
d="M492 75l-4 -6q-8 -17 -24 -32q-17 -16 -40 -27q-22 -11 -54 -19q-28 -7 -65 -7q-53 0 -98 19q-46 19 -82 54q-36 34 -57 83q-21 48 -21 107t21 107q21 49 57 83t83 54q45 19 98 19q36 0 64 -7q32 -8 54 -19q23 -11 40 -27q17 -15 24 -31l-24 -72q-21 24 -59 42
q-37 18 -81 18q-84 0 -135 -45t-51 -120q0 -36 14 -67q13 -29 38 -51q24 -21 58 -33t76 -12q46 0 84 18t59 42zM228 574l-75 148h80l59 -73l59 73h80l-75 -148h-128z" />
    <glyph glyph-name="Dcaron" unicode="&#x10e;" horiz-adv-x="737" 
d="M602 359l-3 1q0 56 -19 101q-20 47 -52 81q-33 34 -80 54q-48 20 -102 20h-163v-516h163q54 0 101 18q46 18 81 53t54 82q20 49 20 106zM309 719v-3q85 0 155 -24q71 -24 122 -69q52 -46 80 -112q29 -69 29 -153t-29 -151q-28 -65 -81 -112q-52 -46 -123 -70
q-70 -24 -153 -24h-222v718h222zM281 770l-75 138h77l59 -63l59 63h77l-75 -138h-122z" />
    <glyph glyph-name="dcaron" unicode="&#x10f;" horiz-adv-x="747" 
d="M48 250l1 -2q0 58 21 106t56 83q34 35 81 54q45 19 98 19q59 0 98 -19q41 -20 53 -48v283h91v-728h-87v53q-12 -28 -54 -46t-99 -18q-54 0 -99 19q-46 19 -82 54q-36 34 -57 83q-21 48 -21 107zM140 246v-2q0 -76 46 -119q47 -44 123 -44q52 0 94 24q41 24 55 60v163
q-14 36 -55 60q-42 24 -94 24q-77 0 -123 -45t-46 -121zM678 602l-3 -2q-16 7 -28 21q-12 13 -12 39q0 28 19 46q20 18 46 18q28 0 48 -18q19 -18 19 -47q0 -23 -9 -41q-6 -12 -20 -36l-45 -76h-61z" />
    <glyph glyph-name="Dcroat" unicode="&#x110;" horiz-adv-x="746" 
d="M9 420l90 -3v298h222q85 0 155 -24q71 -24 122 -69q52 -46 80 -112q29 -69 29 -153t-29 -151q-28 -65 -81 -112q-52 -46 -123 -70q-70 -24 -153 -24h-222v319h-90v101zM611 356l-3 1q0 56 -19 101q-20 47 -52 81q-33 34 -80 54q-48 20 -102 20h-163v-197h179v-101h-179
v-218h163q55 0 101 18t81 53t54 82q20 49 20 106z" />
    <glyph glyph-name="dcroat" unicode="&#x111;" horiz-adv-x="632" 
d="M48 248l-2 -3q0 58 21 106q20 46 56 82q35 35 81 54q45 19 98 19q59 0 98 -19q41 -20 53 -48v127h-147v92h147v68h91v-68h80v-92h-80v-568h-86v53q-12 -28 -54 -46t-99 -18q-54 0 -99 19q-46 20 -81 54q-36 36 -56 82q-21 48 -21 106zM137 243v-2q0 -75 46 -118t123 -43
q52 0 94 24q41 24 55 60v159q-14 36 -55 60q-42 24 -94 24q-76 0 -123 -44q-46 -43 -46 -120z" />
    <glyph glyph-name="Emacron" unicode="&#x112;" horiz-adv-x="533" 
d="M90 718h383v-101h-289v-197h259v-101h-259v-218h289v-101h-383v718zM429 887v-86h-291v86h291z" />
    <glyph glyph-name="emacron" unicode="&#x113;" horiz-adv-x="574" 
d="M312 85l-3 5q25 0 47 6q24 6 44 15q20 8 37 21q17 12 27 24l24 -71q-8 -17 -24 -33q-17 -17 -40 -30q-24 -14 -54 -21q-32 -8 -65 -8q-55 0 -103 18q-47 18 -82 51q-34 33 -54 81q-19 47 -19 108q0 51 17 100q16 48 48 84q31 36 77 57q45 21 102 21q53 0 97 -21t74 -57
q31 -37 47 -84t16 -100q0 -16 -3 -34h-382q8 -66 54 -99t118 -33zM426 313l-2 -3q-2 22 -12 42q-10 18 -29 34t-42 23q-26 8 -51 8t-52 -8q-26 -7 -45 -21t-33 -33q-13 -19 -16 -42h282zM429 703v-86h-291v86h291z" />
    <glyph glyph-name="Ebreve" unicode="&#x114;" horiz-adv-x="533" 
d="M90 718h383v-101h-289v-197h259v-101h-259v-218h289v-101h-383v718zM428 914l-2 -2q-2 -30 -13 -54q-13 -27 -31 -44q-20 -19 -45 -29q-24 -10 -55 -10q-28 0 -55 11q-25 10 -45 29q-18 17 -31 44q-11 24 -13 54h85q3 -19 20 -33q16 -13 39 -13q22 0 41 14q18 13 21 33
h84z" />
    <glyph glyph-name="ebreve" unicode="&#x115;" horiz-adv-x="574" 
d="M312 85l-3 5q25 0 47 6q24 6 44 15q20 8 37 21q17 12 27 24l24 -71q-8 -17 -24 -33q-17 -17 -40 -30q-24 -14 -54 -21q-32 -8 -65 -8q-55 0 -103 18q-47 18 -82 51q-34 33 -54 81q-19 47 -19 108q0 51 17 100q16 48 48 84q31 36 77 57q45 21 102 21q53 0 97 -21t74 -57
q31 -37 47 -84t16 -100q0 -16 -3 -34h-382q8 -66 54 -99t118 -33zM426 313l-2 -3q-2 22 -12 42q-10 18 -29 34t-42 23q-26 8 -51 8t-52 -8q-26 -7 -45 -21t-33 -33q-13 -19 -16 -42h282zM428 724l-2 -2q-2 -30 -13 -54q-13 -27 -31 -44q-20 -19 -45 -29q-24 -10 -55 -10
q-28 0 -55 11q-25 10 -45 29q-18 17 -31 44q-11 24 -13 54h85q3 -19 20 -33q16 -13 39 -13q22 0 41 14q18 13 21 33h84z" />
    <glyph glyph-name="Edotaccent" unicode="&#x116;" horiz-adv-x="533" 
d="M90 718h383v-101h-289v-197h259v-101h-259v-218h289v-101h-383v718zM216 846l-3 -3q0 28 20 48t47 20q29 0 48 -19q20 -20 20 -48q0 -27 -19 -46t-48 -19q-26 0 -46 20q-19 19 -19 47z" />
    <glyph glyph-name="edotaccent" unicode="&#x117;" horiz-adv-x="574" 
d="M312 85l-3 5q25 0 47 6q24 6 44 15q20 8 37 21q17 12 27 24l24 -71q-8 -17 -24 -33q-17 -17 -40 -30q-24 -14 -54 -21q-32 -8 -65 -8q-55 0 -103 18q-47 18 -82 51q-34 33 -54 81q-19 47 -19 108q0 51 17 100q16 48 48 84q31 36 77 57q45 21 102 21q53 0 97 -21t74 -57
q31 -37 47 -84t16 -100q0 -16 -3 -34h-382q8 -66 54 -99t118 -33zM426 313l-2 -3q-2 22 -12 42q-10 18 -29 34t-42 23q-26 8 -51 8t-52 -8q-26 -7 -45 -21t-33 -33q-13 -19 -16 -42h282zM217 657l-3 -3q0 28 20 48t47 20q29 0 48 -19q20 -20 20 -48q0 -27 -19 -46t-48 -19
q-26 0 -46 20q-19 19 -19 47z" />
    <glyph glyph-name="Eogonek" unicode="&#x118;" horiz-adv-x="533" 
d="M90 718l384 -2v-101h-289v-197h259v-101h-259v-218h289v-101q-12 -17 -20 -33q-9 -18 -9 -39q0 -26 15 -39q16 -14 38 -14q4 0 12 2q6 1 11 5l12 -73q-7 -9 -24 -18t-42 -9q-55 0 -85 31t-30 75q0 21 7 38q6 15 17 33q9 15 20 26q13 13 18 17h-324v718z" />
    <glyph glyph-name="eogonek" unicode="&#x119;" horiz-adv-x="574" 
d="M312 85v3q24 0 47 6q24 6 44 15q20 8 37 21q16 12 27 24l24 -71q-6 -11 -15 -21q-8 -10 -16 -22q-8 -13 -12 -25q-5 -15 -5 -30q0 -24 15 -39t38 -15q4 0 12 2q6 1 11 5l12 -73q-7 -9 -24 -18t-42 -9q-55 0 -85 31t-30 75q0 17 4 29q6 18 10 27q-18 -4 -28 -5
q-20 -2 -31 -2q-55 0 -103 18q-47 18 -82 51q-34 33 -54 81q-19 47 -19 108q0 51 17 100q16 48 48 84q31 36 77 57q45 21 102 21q53 0 97 -21t74 -57q31 -37 47 -84t16 -100q0 -16 -3 -34h-382q8 -66 54 -99t118 -33zM429 311l-2 -3q-1 22 -12 42q-10 18 -29 34t-42 23
q-26 8 -51 8t-52 -8q-25 -7 -45 -21t-33 -33t-16 -42h282z" />
    <glyph glyph-name="Ecaron" unicode="&#x11a;" horiz-adv-x="533" 
d="M90 718h383v-101h-289v-197h259v-101h-259v-218h289v-101h-383v718zM222 772l-75 138h77l59 -63l59 63h77l-75 -138h-122z" />
    <glyph glyph-name="ecaron" unicode="&#x11b;" horiz-adv-x="574" 
d="M312 85l-3 5q25 0 47 6q24 6 44 15q20 8 37 21q17 12 27 24l24 -71q-8 -17 -24 -33q-17 -17 -40 -30q-24 -14 -54 -21q-32 -8 -65 -8q-55 0 -103 18q-47 18 -82 51q-34 33 -54 81q-19 47 -19 108q0 51 17 100q16 48 48 84q31 36 77 57q45 21 102 21q53 0 97 -21t74 -57
q31 -37 47 -84t16 -100q0 -16 -3 -34h-382q8 -66 54 -99t118 -33zM426 313l-2 -3q-2 22 -12 42q-10 18 -29 34t-42 23q-26 8 -51 8t-52 -8q-26 -7 -45 -21t-33 -33q-13 -19 -16 -42h282zM219 582l-75 148h80l59 -73l59 73h80l-75 -148h-128z" />
    <glyph glyph-name="Gcircumflex" unicode="&#x11c;" horiz-adv-x="734" 
d="M390 730l3 -2q48 0 90 -12q45 -13 77 -31q36 -20 60 -43q25 -24 39 -50l-29 -85q-15 21 -41 46q-24 23 -54 39q-32 17 -66 26q-36 9 -75 9q-59 0 -106 -19t-82 -54q-34 -34 -52 -84t-18 -111q0 -63 20 -114q20 -49 54 -84q35 -35 83 -53t107 -18q53 0 99 17t80 48v112
h-185v101h279v-242q-17 -29 -48 -55t-67 -45q-38 -20 -79 -30q-40 -10 -87 -10q-70 0 -135 27q-64 27 -112 75q-47 47 -76 116q-28 66 -28 152q0 85 28 153q29 69 76 118t111 76q63 27 134 27zM455 908l75 -138h-77l-59 63l-59 -63h-77l75 138h122z" />
    <glyph glyph-name="gcircumflex" unicode="&#x11d;" horiz-adv-x="618" 
d="M537 499l-6 -508q0 -48 -17 -90q-16 -40 -47 -69t-74 -44t-96 -15q-69 0 -126 27t-87 73l26 82q28 -38 75 -61q45 -22 98 -22q25 0 54 6t51 21q23 15 38 44t15 74v47q-14 -26 -52 -45t-96 -19q-53 0 -99 18t-81 53t-56 81t-21 104t21 104q21 47 57 80q37 34 82 53t99 19
q58 0 99 -19t55 -45v51h88zM440 332v3q-14 35 -55 57q-43 23 -94 23q-37 0 -69 -12t-54 -33q-21 -20 -34 -50q-12 -28 -12 -65t12 -65t34 -49t54 -33t69 -12q51 0 94 23q41 22 55 57v156zM366 730l75 -148h-80l-59 73l-59 -73h-80l75 148h128z" />
    <glyph glyph-name="Gbreve" unicode="&#x11e;" horiz-adv-x="734" 
d="M390 730l3 -2q48 0 90 -12q45 -13 77 -31q36 -20 60 -43q25 -24 39 -50l-29 -85q-15 21 -41 46q-24 23 -54 39q-32 17 -66 26q-36 9 -75 9q-59 0 -106 -19t-82 -54q-34 -34 -52 -84t-18 -111q0 -63 20 -114q20 -49 54 -84q35 -35 83 -53t107 -18q53 0 99 17t80 48v112
h-185v101h279v-242q-17 -29 -48 -55t-67 -45q-38 -20 -79 -30q-40 -10 -87 -10q-70 0 -135 27q-64 27 -112 75q-47 47 -76 116q-28 66 -28 152q0 85 28 153q29 69 76 118t111 76q63 27 134 27zM539 912l-2 -2q-2 -30 -13 -54q-13 -27 -31 -44q-20 -19 -45 -29
q-24 -10 -55 -10q-28 0 -55 11q-25 10 -45 29q-18 17 -31 44q-11 24 -13 54h85q3 -19 20 -33q16 -13 39 -13q22 0 41 14q18 13 21 33h84z" />
    <glyph glyph-name="gbreve" unicode="&#x11f;" horiz-adv-x="618" 
d="M537 499l-6 -508q0 -48 -17 -90q-16 -40 -47 -69t-74 -44t-96 -15q-69 0 -126 27t-87 73l26 82q28 -38 75 -61q45 -22 98 -22q25 0 54 6t51 21q23 15 38 44t15 74v47q-14 -26 -52 -45t-96 -19q-53 0 -99 18t-81 53t-56 81t-21 104t21 104q21 47 57 80q37 34 82 53t99 19
q58 0 99 -19t55 -45v51h88zM440 332v3q-14 35 -55 57q-43 23 -94 23q-37 0 -69 -12t-54 -33q-21 -20 -34 -50q-12 -28 -12 -65t12 -65t34 -49t54 -33t69 -12q51 0 94 23q41 22 55 57v156zM446 724l-2 -2q-2 -30 -13 -54q-13 -27 -31 -44q-20 -19 -45 -29q-24 -10 -55 -10
q-28 0 -55 11q-25 10 -45 29q-18 17 -31 44q-11 24 -13 54h85q3 -19 20 -33q16 -13 39 -13q22 0 41 14q18 13 21 33h84z" />
    <glyph glyph-name="Gdotaccent" unicode="&#x120;" horiz-adv-x="734" 
d="M390 730l3 -2q48 0 90 -12q45 -13 77 -31q36 -20 60 -43q25 -24 39 -50l-29 -85q-15 21 -41 46q-24 23 -54 39q-32 17 -66 26q-36 9 -75 9q-59 0 -106 -19t-82 -54q-34 -34 -52 -84t-18 -111q0 -63 20 -114q20 -49 54 -84q35 -35 83 -53t107 -18q53 0 99 17t80 48v112
h-185v101h279v-242q-17 -29 -48 -55t-67 -45q-38 -20 -79 -30q-40 -10 -87 -10q-70 0 -135 27q-64 27 -112 75q-47 47 -76 116q-28 66 -28 152q0 85 28 153q29 69 76 118t111 76q63 27 134 27zM321 844l-3 -3q0 28 20 48t47 20q29 0 48 -19q20 -20 20 -48q0 -27 -19 -46
t-48 -19q-26 0 -46 20q-19 19 -19 47z" />
    <glyph glyph-name="gdotaccent" unicode="&#x121;" horiz-adv-x="618" 
d="M537 499l-6 -508q0 -48 -17 -90q-16 -40 -47 -69t-74 -44t-96 -15q-69 0 -126 27t-87 73l26 82q28 -38 75 -61q45 -22 98 -22q25 0 54 6t51 21q23 15 38 44t15 74v47q-14 -26 -52 -45t-96 -19q-53 0 -99 18t-81 53t-56 81t-21 104t21 104q21 47 57 80q37 34 82 53t99 19
q58 0 99 -19t55 -45v51h88zM440 332v3q-14 35 -55 57q-43 23 -94 23q-37 0 -69 -12t-54 -33q-21 -20 -34 -50q-12 -28 -12 -65t12 -65t34 -49t54 -33t69 -12q51 0 94 23q41 22 55 57v156zM236 657l-3 -3q0 28 20 48t47 20q29 0 48 -19q20 -20 20 -48q0 -27 -19 -46t-48 -19
q-26 0 -46 20q-19 19 -19 47z" />
    <glyph glyph-name="uni0122" unicode="&#x122;" horiz-adv-x="734" 
d="M390 730l3 -2q48 0 90 -12q45 -13 77 -31q36 -20 60 -43q25 -24 39 -50l-29 -85q-15 21 -41 46q-24 23 -54 39q-32 17 -66 26q-36 9 -75 9q-59 0 -106 -19t-82 -54q-34 -34 -52 -84t-18 -111q0 -63 20 -114q20 -49 54 -84q35 -35 83 -53t107 -18q53 0 99 17t80 48v112
h-185v101h279v-242q-17 -29 -48 -55t-67 -45q-38 -20 -79 -30q-40 -10 -87 -10q-70 0 -135 27q-64 27 -112 75q-47 47 -76 116q-28 66 -28 152q0 85 28 153q29 69 76 118t111 76q63 27 134 27zM374 -189l-3 -2q-16 7 -28 21t-12 39q0 28 19 46q20 18 46 18q28 0 48 -18
q19 -18 19 -47q0 -23 -9 -41q-6 -12 -20 -36l-45 -76h-61z" />
    <glyph glyph-name="uni0123" unicode="&#x123;" horiz-adv-x="618" 
d="M537 499l-6 -508q0 -48 -17 -90q-16 -40 -47 -69t-74 -44t-96 -15q-69 0 -126 27t-87 73l26 82q28 -38 75 -61q45 -22 98 -22q25 0 54 6t51 21q23 15 38 44t15 74v47q-14 -26 -52 -45t-96 -19q-53 0 -99 18t-81 53t-56 81t-21 104t21 104q21 47 57 80q37 34 82 53t99 19
q58 0 99 -19t55 -45v51h88zM440 332v3q-14 35 -55 57q-43 23 -94 23q-37 0 -69 -12t-54 -33q-21 -20 -34 -50q-12 -28 -12 -65t12 -65t34 -49t54 -33t69 -12q51 0 94 23q41 22 55 57v156zM317 715l3 2q16 -7 28 -21t12 -39q0 -28 -19 -46t-46 -18q-29 0 -48 18t-19 47
q0 23 9 41q6 12 20 36l45 76h61z" />
    <glyph glyph-name="Hcircumflex" unicode="&#x124;" horiz-adv-x="757" 
d="M90 718h94v-298h389v298h94v-718h-94v319h-389v-319h-94v718zM439 910l75 -138h-77l-59 63l-59 -63h-77l75 138h122z" />
    <glyph glyph-name="hcircumflex" unicode="&#x125;" horiz-adv-x="588" 
d="M297 511l-3 -4q41 0 79 -13q37 -13 70 -41q31 -27 51 -71q19 -42 19 -103v-282h-91v280q0 33 -10 57q-10 26 -27 42q-17 17 -39 26q-23 9 -50 9q-25 0 -46 -7q-23 -8 -40 -19q-17 -12 -30 -29q-11 -15 -16 -36v-321h-91v728h91v-284q10 29 45 48q35 20 88 20zM360 916
l75 -148h-80l-59 73l-59 -73h-80l75 148h128z" />
    <glyph glyph-name="Hbar" unicode="&#x126;" horiz-adv-x="786" 
d="M15 618h90v100h94v-100h389v100h94v-100h89v-92h-89v-526h-94v319h-389v-319h-94v526h-90v92zM588 420v106h-389v-106h389z" />
    <glyph glyph-name="hbar" unicode="&#x127;" horiz-adv-x="602" 
d="M437 0l-3 256q0 33 -10 57q-10 25 -27 42t-39 26t-50 9q-25 0 -46 -7q-23 -8 -40 -19q-17 -12 -30 -29q-11 -15 -16 -36v-301h-91v565h-80v92h80v71h91v-71h147v-92h-147v-141q10 28 45 48t88 20q41 0 79 -13q37 -13 70 -41q31 -27 51 -71q19 -42 19 -103v-262h-91z" />
    <glyph glyph-name="Itilde" unicode="&#x128;" horiz-adv-x="274" 
d="M90 718h94v-718h-94v718zM-15 778l-3 -6q-10 27 -10 48q0 40 26 64t63 24q27 0 48 -10q25 -11 43 -22q18 -10 26 -14q12 -6 23 -6q14 0 23 9t9 25v10q0 3 -2 11h59q10 -23 10 -49q0 -40 -24 -63q-25 -23 -62 -23q-24 0 -45 10q-23 10 -39 21q-26 14 -32 17q-12 6 -23 6
q-15 0 -24 -9t-9 -25v-9q0 -3 2 -9h-59z" />
    <glyph glyph-name="itilde" unicode="&#x129;" horiz-adv-x="254" 
d="M82 499h91v-499h-91v499zM-25 586l-3 -6q-10 27 -10 48q0 40 26 64t63 24q27 0 48 -10q25 -11 43 -22q18 -10 26 -14q12 -6 23 -6q14 0 23 9t9 25v10q0 3 -2 11h59q10 -23 10 -49q0 -40 -24 -63q-25 -23 -62 -23q-24 0 -45 10q-23 10 -39 21q-26 14 -32 17q-12 6 -23 6
q-15 0 -24 -9t-9 -25v-9q0 -3 2 -9h-59z" />
    <glyph glyph-name="Imacron" unicode="&#x12a;" horiz-adv-x="274" 
d="M90 718h94v-718h-94v718zM284 887v-86h-291v86h291z" />
    <glyph glyph-name="imacron" unicode="&#x12b;" horiz-adv-x="254" 
d="M82 499h91v-499h-91v499zM274 701v-86h-291v86h291z" />
    <glyph glyph-name="Ibreve" unicode="&#x12c;" horiz-adv-x="274" 
d="M90 718h94v-718h-94v718zM283 914l-2 -2q-2 -30 -13 -54q-13 -27 -31 -44q-20 -19 -45 -29q-24 -10 -55 -10q-28 0 -55 11q-25 10 -45 29q-18 17 -31 44q-11 24 -13 54h85q3 -19 20 -33q16 -13 39 -13q22 0 41 14q18 13 21 33h84z" />
    <glyph glyph-name="ibreve" unicode="&#x12d;" horiz-adv-x="254" 
d="M82 499h91v-499h-91v499zM273 722l-2 -2q-2 -30 -13 -54q-13 -27 -31 -44q-20 -19 -45 -29q-24 -10 -55 -10q-28 0 -55 11q-25 10 -45 29q-18 17 -31 44q-11 24 -13 54h85q3 -19 20 -33q16 -13 39 -13q22 0 41 14q18 13 21 33h84z" />
    <glyph glyph-name="Iogonek" unicode="&#x12e;" horiz-adv-x="274" 
d="M90 718l95 -2v-718q-12 -18 -20 -33q-9 -18 -9 -39q0 -26 15 -39q16 -14 38 -14q4 0 12 2q6 1 11 5l12 -73q-8 -9 -24 -18t-42 -9q-55 0 -85 31t-30 75q0 21 7 38q6 15 17 33q9 15 20 26q13 13 18 17h-35v718z" />
    <glyph glyph-name="iogonek" unicode="&#x12f;" horiz-adv-x="253" 
d="M81 499l92 -2v-499q-12 -18 -20 -33q-9 -18 -9 -39q0 -26 15 -39q16 -14 38 -14q4 0 12 2q6 1 11 5l12 -73q-8 -9 -24 -18t-42 -9q-55 0 -85 31t-30 75q0 21 7 38q6 15 17 33q9 15 20 26q13 13 18 17h-32v499zM61 659l-3 -3q0 28 20 48t47 20q29 0 48 -19q20 -20 20 -48
q0 -27 -19 -46t-48 -19q-26 0 -46 20q-19 19 -19 47z" />
    <glyph glyph-name="Idotaccent" unicode="&#x130;" horiz-adv-x="274" 
d="M90 718h94v-718h-94v718zM72 846l-3 -3q0 28 20 48t47 20q29 0 48 -19q20 -20 20 -48q0 -27 -19 -46t-48 -19q-26 0 -46 20q-19 19 -19 47z" />
    <glyph glyph-name="dotlessi" unicode="&#x131;" horiz-adv-x="254" 
d="M82 499h91v-499h-91v499z" />
    <glyph glyph-name="IJ" unicode="&#x132;" horiz-adv-x="546" 
d="M91 718h94v-423h-94v423zM461 198h1q0 -97 -51 -154t-160 -57q-28 0 -55 8q-26 8 -46 19q-19 11 -36 26q-16 14 -23 27l11 90q30 -34 68 -51q36 -16 83 -16q53 0 84 29q30 29 30 98v501h94v-520z" />
    <glyph glyph-name="ij" unicode="&#x133;" horiz-adv-x="515" 
d="M82 499h91v-499h-91v499zM61 661l-3 -3q0 28 20 48t47 20q29 0 48 -19q20 -20 20 -48q0 -27 -19 -46t-48 -19q-26 0 -46 20q-19 19 -19 47zM340 496h93v-565q0 -159 -120 -159q-21 0 -46 9t-43 28l7 81q11 -9 24 -15t26 -6q35 0 47 21t12 62v544zM321 658l-3 -3
q0 28 20 48t47 20q29 0 48 -19q20 -20 20 -48q0 -27 -19 -46t-48 -19q-26 0 -46 20q-19 19 -19 47z" />
    <glyph glyph-name="Jcircumflex" unicode="&#x134;" horiz-adv-x="405" 
d="M320 179v-1q0 -92 -40 -141q-41 -50 -126 -50q-26 0 -47 6q-19 6 -39 17q-17 10 -30 23q-12 12 -18 24l11 89q23 -26 50 -41t60 -15q39 0 62 24q23 25 23 84v520h94v-539zM334 909l75 -138h-77l-59 63l-59 -63h-77l75 138h122z" />
    <glyph glyph-name="jcircumflex" unicode="&#x135;" horiz-adv-x="260" 
d="M88 499h93v-565q0 -159 -120 -159q-21 0 -46 9t-43 28l7 81q11 -9 24 -15t26 -6q35 0 47 21t12 62v544zM200 709l75 -148h-80l-59 73l-59 -73h-80l75 148h128z" />
    <glyph glyph-name="uni0136" unicode="&#x136;" horiz-adv-x="640" 
d="M90 718h94v-314l290 314h124l-321 -349l355 -369h-132l-316 325v-325h-94v718zM310 -187l-3 -2q-16 7 -28 21t-12 39q0 28 19 46q20 18 46 18q28 0 48 -18q19 -18 19 -47q0 -23 -9 -41q-6 -12 -20 -36l-45 -76h-61z" />
    <glyph glyph-name="uni0137" unicode="&#x137;" horiz-adv-x="542" 
d="M82 728h91v-432l218 203h125l-252 -234l275 -265h-131l-235 226v-226h-91v728zM270 -187l-3 -2q-16 7 -28 21t-12 39q0 28 19 46q20 18 46 18q28 0 48 -18q19 -18 19 -47q0 -23 -9 -41q-6 -12 -20 -36l-45 -76h-61z" />
    <glyph glyph-name="kgreenlandic" unicode="&#x138;" horiz-adv-x="545" 
d="M82 499h91v-210l221 210h124l-252 -241l276 -258h-135l-234 220v-220h-91v499z" />
    <glyph glyph-name="Lacute" unicode="&#x139;" horiz-adv-x="478" 
d="M90 718h94v-617h274v-101h-368v718zM292 910l-110 -138h-87l65 138h132z" />
    <glyph glyph-name="lacute" unicode="&#x13a;" horiz-adv-x="255" 
d="M82 728h91v-728h-91v728zM283 910l-110 -138h-87l65 138h132z" />
    <glyph glyph-name="uni013B" unicode="&#x13b;" horiz-adv-x="478" 
d="M90 718h94v-617h274v-101h-368v718zM256 -187l-3 -2q-16 7 -28 21t-12 39q0 28 19 46q20 18 46 18q28 0 48 -18q19 -18 19 -47q0 -23 -9 -41q-6 -12 -20 -36l-45 -76h-61z" />
    <glyph glyph-name="uni013C" unicode="&#x13c;" horiz-adv-x="255" 
d="M82 728h91v-728h-91v728zM103 -187l-3 -2q-16 7 -28 21t-12 39q0 28 19 46t46 18q29 0 48 -18t19 -47q0 -23 -9 -41q-6 -12 -20 -36l-45 -76h-61z" />
    <glyph glyph-name="Lcaron" unicode="&#x13d;" horiz-adv-x="493" 
d="M90 718h94v-617h274v-101h-368v718zM346 606l-3 -2q-16 7 -28 21q-12 13 -12 39q0 28 19 46q20 18 46 18q28 0 48 -18q19 -18 19 -47q0 -23 -9 -41q-6 -12 -20 -36l-45 -76h-61z" />
    <glyph glyph-name="lcaron" unicode="&#x13e;" horiz-adv-x="374" 
d="M82 728h91v-728h-91v728zM304 606l-3 -2q-16 7 -28 21q-12 13 -12 39q0 28 19 46q20 18 46 18q28 0 48 -18q19 -18 19 -47q0 -23 -9 -41q-6 -12 -20 -36l-45 -76h-61z" />
    <glyph glyph-name="Ldot" unicode="&#x13f;" horiz-adv-x="521" 
d="M90 718h94v-617h274v-101h-368v718zM321 389l-3 -3q0 28 20 48t47 20q29 0 48 -19q20 -20 20 -48q0 -27 -19 -46t-48 -19q-26 0 -46 20q-19 19 -19 47z" />
    <glyph glyph-name="ldot" unicode="&#x140;" horiz-adv-x="405" 
d="M82 728h91v-728h-91v728zM262 358l-3 -3q0 28 20 48t47 20q29 0 48 -19q20 -20 20 -48q0 -27 -19 -46t-48 -19q-26 0 -46 20q-19 19 -19 47z" />
    <glyph glyph-name="Lslash" unicode="&#x141;" horiz-adv-x="492" 
d="M104 259l-95 -52v107l95 52v352h94v-300l188 104v-107l-188 -104v-210h274v-101h-368v259z" />
    <glyph glyph-name="lslash" unicode="&#x142;" horiz-adv-x="371" 
d="M140 309l-94 -51v107l94 51v312h91v-262l94 52v-107l-94 -52v-359h-91v309z" />
    <glyph glyph-name="Nacute" unicode="&#x143;" horiz-adv-x="759" 
d="M90 718h102l383 -564v564h94v-718h-102l-383 561v-561h-94v718zM518 910l-110 -138h-87l65 138h132z" />
    <glyph glyph-name="nacute" unicode="&#x144;" horiz-adv-x="598" 
d="M306 511l-2 -3q41 0 79 -13q37 -13 70 -41q31 -27 51 -71q19 -42 19 -103v-282h-91v280q0 33 -10 57q-10 25 -27 42t-39 26q-23 9 -50 9q-25 0 -46 -7q-23 -8 -40 -19q-17 -12 -30 -29q-11 -15 -16 -36v-321h-91v499h88v-55q11 28 45 48q34 19 90 19zM448 725l-110 -148
h-83l65 148h128z" />
    <glyph glyph-name="uni0145" unicode="&#x145;" horiz-adv-x="759" 
d="M90 718h102l383 -564v564h94v-718h-102l-383 561v-561h-94v718zM355 -187l-3 -2q-16 7 -28 21t-12 39q0 28 19 46t46 18q29 0 48 -18t19 -47q0 -23 -9 -41q-6 -12 -20 -36l-45 -76h-61z" />
    <glyph glyph-name="uni0146" unicode="&#x146;" horiz-adv-x="598" 
d="M306 511l-2 -3q41 0 79 -13q37 -13 70 -41q31 -27 51 -71q19 -42 19 -103v-282h-91v280q0 33 -10 57q-10 25 -27 42t-39 26q-23 9 -50 9q-25 0 -46 -7q-23 -8 -40 -19q-17 -12 -30 -29q-11 -15 -16 -36v-321h-91v499h88v-55q11 28 45 48q34 19 90 19zM281 -190l-3 -2
q-16 7 -28 21q-12 13 -12 39q0 28 19 46q20 18 46 18q29 0 48 -18t19 -47q0 -23 -9 -41q-6 -12 -20 -36l-45 -76h-61z" />
    <glyph glyph-name="Ncaron" unicode="&#x147;" horiz-adv-x="759" 
d="M90 718h102l383 -564v564h94v-718h-102l-383 561v-561h-94v718zM318 772l-75 138h77l59 -63l59 63h77l-75 -138h-122z" />
    <glyph glyph-name="ncaron" unicode="&#x148;" horiz-adv-x="598" 
d="M306 511l-2 -3q41 0 79 -13q37 -13 70 -41q31 -27 51 -71q19 -42 19 -103v-282h-91v280q0 33 -10 57q-10 25 -27 42t-39 26q-23 9 -50 9q-25 0 -46 -7q-23 -8 -40 -19q-17 -12 -30 -29q-11 -15 -16 -36v-321h-91v499h88v-55q11 28 45 48q34 19 90 19zM242 577l-75 148h80
l59 -73l59 73h80l-75 -148h-128z" />
    <glyph glyph-name="napostrophe" unicode="&#x149;" horiz-adv-x="598" 
d="M306 511l-2 -3q41 0 79 -13q37 -13 70 -41q31 -27 51 -71q19 -42 19 -103v-282h-91v280q0 33 -10 57q-10 25 -27 42t-39 26q-23 9 -50 9q-25 0 -46 -7q-23 -8 -40 -19q-17 -12 -30 -29q-11 -15 -16 -36v-321h-91v499h88v-55q11 28 45 48q34 19 90 19zM121 650l-3 -2
q-16 7 -28 21q-12 13 -12 39q0 28 19 46t46 18q29 0 48 -18t19 -47q0 -23 -9 -41q-6 -12 -20 -36l-45 -76h-61z" />
    <glyph glyph-name="Eng" unicode="&#x14a;" horiz-adv-x="759" 
d="M575 0l-391 560v-561h-94v718h102l383 -554v554h94v-752q0 -92 -40 -141q-41 -50 -126 -50q-26 0 -47 6q-19 6 -39 17q-17 10 -30 23q-12 12 -18 24l11 89q23 -26 50 -41t60 -15q40 0 62 24q23 25 23 84v15z" />
    <glyph glyph-name="eng" unicode="&#x14b;" horiz-adv-x="598" 
d="M433 280v-3q0 33 -10 57q-11 26 -27 42q-17 17 -39 26q-23 9 -50 9q-25 0 -46 -7q-23 -8 -40 -19q-17 -12 -30 -29q-11 -15 -16 -36v-321h-91v499h88v-55q10 29 45 48q34 19 90 19q41 0 79 -13q37 -13 70 -41q31 -27 51 -71q19 -42 19 -103v-348q0 -159 -120 -159
q-20 0 -46 9q-25 9 -43 28l7 81q10 -9 24 -15t26 -6q35 0 47 21t12 62v325z" />
    <glyph glyph-name="Omacron" unicode="&#x14c;" horiz-adv-x="796" 
d="M398 730l1 -4q74 0 137 -28q64 -28 114 -78t78 -117q29 -69 29 -147t-29 -147q-28 -67 -78 -117t-114 -78q-63 -28 -135 -28t-139 29q-65 28 -115 78q-49 49 -78 117q-29 69 -29 147t29 148q28 68 78 118q49 49 114 78q66 29 137 29zM400 624l-1 -3q-55 0 -104 -20
q-47 -19 -84 -56q-36 -36 -57 -85q-21 -50 -21 -108t21 -108q21 -49 57 -85q35 -35 84 -55q47 -19 104 -19q54 0 103 20q50 20 83 55q36 37 56 85q21 50 21 110q0 59 -21 108q-21 50 -55 85q-35 36 -83 56q-49 20 -103 20zM548 880v-86h-291v86h291z" />
    <glyph glyph-name="omacron" unicode="&#x14d;" 
d="M552 249v-1q0 -56 -21 -104q-22 -50 -55 -83q-34 -34 -80 -54q-44 -19 -96 -19q-49 0 -97 20q-47 20 -81 54t-54 83t-20 104t20 104t54 83t81 54q48 20 97 20q50 0 96 -20t80 -54q33 -33 55 -83q21 -48 21 -104zM139 248v-3q0 -37 12 -67q12 -31 34 -51q23 -21 51 -33
t63 -12q34 0 64 12q29 12 52 33q22 20 34 51q12 30 12 67q0 38 -12 68q-13 32 -34 53q-22 22 -52 34t-64 12q-35 0 -63 -12q-29 -12 -51 -34t-34 -52t-12 -66zM446 697v-86h-291v86h291z" />
    <glyph glyph-name="Obreve" unicode="&#x14e;" horiz-adv-x="796" 
d="M398 730l1 -4q74 0 137 -28q64 -28 114 -78t78 -117q29 -69 29 -147t-29 -147q-28 -67 -78 -117t-114 -78q-63 -28 -135 -28t-139 29q-65 28 -115 78q-49 49 -78 117q-29 69 -29 147t29 148q28 68 78 118q49 49 114 78q66 29 137 29zM400 624l-1 -3q-55 0 -104 -20
q-47 -19 -84 -56q-36 -36 -57 -85q-21 -50 -21 -108t21 -108q21 -49 57 -85q35 -35 84 -55q47 -19 104 -19q54 0 103 20q50 20 83 55q36 37 56 85q21 50 21 110q0 59 -21 108q-21 50 -55 85q-35 36 -83 56q-49 20 -103 20zM547 907l-2 -2q-2 -30 -13 -54q-13 -27 -31 -44
q-20 -19 -45 -29q-24 -10 -55 -10q-28 0 -55 11q-25 10 -45 29q-18 17 -31 44q-11 24 -13 54h85q3 -19 20 -33q16 -13 39 -13q22 0 41 14q18 14 21 33h84z" />
    <glyph glyph-name="obreve" unicode="&#x14f;" 
d="M552 249v-1q0 -56 -21 -104q-22 -50 -55 -83q-34 -34 -80 -54q-44 -19 -96 -19q-49 0 -97 20q-47 20 -81 54t-54 83t-20 104t20 104t54 83t81 54q48 20 97 20q50 0 96 -20t80 -54q33 -33 55 -83q21 -48 21 -104zM139 248v-3q0 -37 12 -67q12 -31 34 -51q23 -21 51 -33
t63 -12q34 0 64 12q29 12 52 33q22 20 34 51q12 30 12 67q0 38 -12 68q-13 32 -34 53q-22 22 -52 34t-64 12q-35 0 -63 -12q-29 -12 -51 -34t-34 -52t-12 -66zM445 718l-2 -2q-2 -30 -13 -54q-13 -27 -31 -44q-20 -19 -45 -29q-24 -10 -55 -10q-28 0 -55 11q-25 10 -45 29
q-18 17 -31 44q-11 24 -13 54h85q3 -19 20 -33q16 -13 39 -13q22 0 41 14q18 13 21 33h84z" />
    <glyph glyph-name="Ohungarumlaut" unicode="&#x150;" horiz-adv-x="796" 
d="M398 730l1 -4q74 0 137 -28q64 -28 114 -78t78 -117q29 -69 29 -147t-29 -147q-28 -67 -78 -117t-114 -78q-63 -28 -135 -28t-139 29q-65 28 -115 78q-49 49 -78 117q-29 69 -29 147t29 148q28 68 78 118q49 49 114 78q66 29 137 29zM400 624l-1 -3q-55 0 -104 -20
q-47 -19 -84 -56q-36 -36 -57 -85q-21 -50 -21 -108t21 -108q21 -49 57 -85q35 -35 84 -55q47 -19 104 -19q54 0 103 20q50 20 83 55q36 37 56 85q21 50 21 110q0 59 -21 108q-21 50 -55 85q-35 36 -83 56q-49 20 -103 20zM450 913l-110 -148h-77l65 148h122zM622 913
l-110 -148h-77l65 148h122z" />
    <glyph glyph-name="ohungarumlaut" unicode="&#x151;" horiz-adv-x="601" 
d="M552 249v-1q0 -56 -21 -104q-22 -50 -55 -83q-34 -34 -80 -54q-44 -19 -96 -19q-49 0 -97 20q-47 20 -81 54t-54 83t-20 104t20 104t54 83t81 54q48 20 97 20q50 0 96 -20t80 -54q33 -33 55 -83q21 -48 21 -104zM139 248v-3q0 -37 12 -67q12 -31 34 -51q23 -21 51 -33
t63 -12q34 0 64 12q29 12 52 33q22 20 34 51q12 30 12 67q0 38 -12 68q-13 32 -34 53q-22 22 -52 34t-64 12q-35 0 -63 -12q-29 -12 -51 -34t-34 -52t-12 -66zM357 724l-110 -148h-77l65 148h122zM529 724l-110 -148h-77l65 148h122z" />
    <glyph glyph-name="OE" unicode="&#x152;" horiz-adv-x="1104" 
d="M398 730l1 -4q75 0 144 -32q68 -32 119 -87v108h382v-101h-288v-197h258v-101h-258v-218h288v-101h-382v107q-50 -56 -117 -87q-66 -31 -144 -31q-72 0 -139 29q-65 28 -115 78q-49 49 -78 117q-29 69 -29 147t29 148q28 68 78 118q49 49 114 78q66 29 137 29zM400 624
l-1 -3q-55 0 -104 -20q-47 -19 -84 -56q-36 -36 -57 -85q-21 -50 -21 -108t21 -108q21 -49 57 -85q35 -35 84 -55q47 -19 104 -19q54 0 103 20q50 20 83 55q36 37 56 85q21 50 21 110q0 59 -21 108q-21 50 -55 85q-35 36 -83 56q-49 20 -103 20z" />
    <glyph glyph-name="oe" unicode="&#x153;" horiz-adv-x="983" 
d="M721 85l-4 -1q25 0 47 6q24 6 44 15q20 8 37 21q17 12 27 24l24 -71q-8 -17 -24 -33q-17 -17 -40 -30q-24 -14 -54 -21q-32 -8 -65 -8q-69 0 -124 27t-90 77q-35 -48 -87 -75t-114 -27q-49 0 -97 20q-47 19 -81 54q-34 34 -54 83t-20 104t20 104t54 83q34 35 81 54
q48 20 97 20q62 0 114 -28q53 -29 87 -76q32 48 83 77q52 29 118 29q54 0 97 -21q44 -21 74 -57q31 -37 47 -84t16 -100q0 -16 -3 -34h-382q7 -66 54 -99t118 -33zM135 248v-3q0 -37 12 -67q12 -31 34 -51q23 -21 51 -33t63 -12q34 0 64 12q29 12 52 33q22 20 34 51
q12 30 12 67q0 38 -12 68q-13 32 -34 53q-22 22 -52 34t-64 12q-35 0 -63 -12q-29 -12 -51 -34t-34 -52t-12 -66zM834 304l-2 -3q-2 23 -12 42q-10 18 -29 34t-42 23q-26 8 -51 8t-52 -8q-26 -8 -45 -21t-33 -33q-13 -19 -16 -42h282z" />
    <glyph glyph-name="Racute" unicode="&#x154;" horiz-adv-x="562" 
d="M90 718l199 -1q40 0 79 -12t70 -37q32 -26 50 -63t18 -90q0 -79 -42 -129t-111 -66l174 -320h-111l-167 308h-65v-308h-94v718zM184 616l-1 -208h124q45 0 74 28q30 28 30 75q0 46 -28 75q-29 30 -75 30h-124zM415 909l-110 -138h-87l65 138h132z" />
    <glyph glyph-name="racute" unicode="&#x155;" horiz-adv-x="394" 
d="M353 390h1q-13 11 -29 17q-17 6 -39 6q-26 0 -45 -9q-20 -9 -33 -22q-12 -12 -22 -30q-8 -14 -13 -35v-317h-91v499h88v-65q12 32 39 54q28 23 74 23q27 0 51 -11q22 -10 33 -29zM179 580l65 148h128l-110 -148h-83z" />
    <glyph glyph-name="uni0156" unicode="&#x156;" horiz-adv-x="562" 
d="M90 718l199 -1q40 0 79 -12t70 -37q32 -26 50 -63t18 -90q0 -79 -42 -129t-111 -66l174 -320h-111l-167 308h-65v-308h-94v718zM184 616l-1 -208h124q45 0 74 28q30 28 30 75q0 46 -28 75q-29 30 -75 30h-124zM277 -188l-3 -2q-16 7 -28 21q-12 13 -12 39q0 28 19 46
t46 18q29 0 48 -18t19 -47q0 -23 -9 -41q-6 -12 -20 -36l-45 -76h-61z" />
    <glyph glyph-name="uni0157" unicode="&#x157;" horiz-adv-x="394" 
d="M353 390h1q-13 11 -29 17q-17 6 -39 6q-26 0 -45 -9q-20 -9 -33 -22q-12 -12 -22 -30q-8 -14 -13 -35v-317h-91v499h88v-65q12 32 39 54q28 23 74 23q27 0 51 -11q22 -10 33 -29zM105 -187l-3 -2q-16 7 -28 21t-12 39q0 28 19 46t46 18q29 0 48 -18t19 -47q0 -23 -9 -41
q-6 -12 -20 -36l-45 -76h-61z" />
    <glyph glyph-name="Rcaron" unicode="&#x158;" horiz-adv-x="562" 
d="M90 718l199 -1q40 0 79 -12t70 -37q32 -26 50 -63t18 -90q0 -79 -42 -129t-111 -66l174 -320h-111l-167 308h-65v-308h-94v718zM184 616l-1 -208h124q45 0 74 28q30 28 30 75q0 46 -28 75q-29 30 -75 30h-124zM213 771l-75 138h77l59 -63l59 63h77l-75 -138h-122z" />
    <glyph glyph-name="rcaron" unicode="&#x159;" horiz-adv-x="401" 
d="M353 390h1q-13 11 -29 17q-17 6 -39 6q-26 0 -45 -9q-20 -9 -33 -22q-12 -12 -22 -30q-8 -14 -13 -35v-317h-91v499h88v-65q12 32 39 54q28 23 74 23q27 0 51 -11q22 -10 33 -29zM160 580l-75 148h80l59 -73l59 73h80l-75 -148h-128z" />
    <glyph glyph-name="Sacute" unicode="&#x15a;" horiz-adv-x="489" 
d="M353 356h-7q20 -17 40 -39q17 -19 30 -41q13 -23 20 -45t7 -52q0 -43 -15 -77t-42 -60t-64 -39q-39 -14 -84 -14q-36 0 -72 11q-33 10 -63 29q-27 17 -49 39q-20 20 -28 42l29 96q33 -52 84 -84q52 -32 108 -32q51 0 75 24t24 62q0 28 -17 54t-42 45q-86 72 -104 87
q-43 37 -65 60q-32 34 -51 68q-18 33 -18 74q0 37 14 68q13 29 38 51q24 21 59 33q34 12 75 12q28 0 58 -8q28 -7 52 -21q25 -14 42 -31q18 -18 29 -38l-21 -94q-28 37 -72 64q-43 27 -90 27q-35 0 -59 -15t-24 -50q0 -26 19 -49q19 -24 39 -39q12 -10 33 -26t29 -23
q24 -19 39 -33q13 -12 26 -21q11 -7 18 -15zM382 910l-110 -138h-87l65 138h132z" />
    <glyph glyph-name="sacute" unicode="&#x15b;" horiz-adv-x="424" 
d="M161 236l-2 -3q-52 27 -78 61q-27 34 -27 78q0 60 39 98q40 38 113 38q26 0 48 -6t41 -17t32 -24q14 -14 21 -25l-15 -81q-28 26 -60 41q-33 15 -68 15q-25 0 -43 -9t-18 -31q0 -21 15 -33q12 -10 41 -25l56 -30q58 -31 88 -64t30 -85q0 -32 -12 -59t-35 -47t-54 -30
q-33 -11 -72 -11q-30 0 -54 7q-26 8 -46 19t-36 29q-15 16 -24 36l22 75q29 -32 63 -50t84 -18q14 0 27 3t24 9q12 7 17 16q6 11 6 24q0 22 -19 38q-19 17 -51 33zM344 725l-110 -148h-83l65 148h128z" />
    <glyph glyph-name="Scircumflex" unicode="&#x15c;" horiz-adv-x="489" 
d="M353 356h-7q20 -17 40 -39q17 -19 30 -41q13 -23 20 -45t7 -52q0 -43 -15 -77t-42 -60t-64 -39q-39 -14 -84 -14q-36 0 -72 11q-33 10 -63 29q-27 17 -49 39q-20 20 -28 42l29 96q33 -52 84 -84q52 -32 108 -32q51 0 75 24t24 62q0 28 -17 54t-42 45q-86 72 -104 87
q-43 37 -65 60q-32 34 -51 68q-18 33 -18 74q0 37 14 68q13 29 38 51q24 21 59 33q34 12 75 12q28 0 58 -8q28 -7 52 -21q25 -14 42 -31q18 -18 29 -38l-21 -94q-28 37 -72 64q-43 27 -90 27q-35 0 -59 -15t-24 -50q0 -26 19 -49q19 -24 39 -39q12 -10 33 -26t29 -23
q24 -19 39 -33q13 -12 26 -21q11 -7 18 -15zM296 910l75 -138h-77l-59 63l-59 -63h-77l75 138h122z" />
    <glyph glyph-name="scircumflex" unicode="&#x15d;" horiz-adv-x="424" 
d="M161 236l-2 -3q-52 27 -78 61q-27 34 -27 78q0 60 39 98q40 38 113 38q26 0 48 -6t41 -17t32 -24q14 -14 21 -25l-15 -81q-28 26 -60 41q-33 15 -68 15q-25 0 -43 -9t-18 -31q0 -21 15 -33q12 -10 41 -25l56 -30q58 -31 88 -64t30 -85q0 -32 -12 -59t-35 -47t-54 -30
q-33 -11 -72 -11q-30 0 -54 7q-26 8 -46 19t-36 29q-15 16 -24 36l22 75q29 -32 63 -50t84 -18q14 0 27 3t24 9q12 7 17 16q6 11 6 24q0 22 -19 38q-19 17 -51 33zM273 725l75 -148h-80l-59 73l-59 -73h-80l75 148h128z" />
    <glyph glyph-name="Scedilla" unicode="&#x15e;" horiz-adv-x="489" 
d="M272 -124l-11 -4q0 13 -11 21t-27 8q-11 0 -16 -1q-10 -2 -16 -4l-19 33l18 60q-29 6 -58 18q-27 11 -51 29q-23 17 -38 35q-14 17 -22 36l29 96q33 -53 84 -84q52 -32 108 -32q51 0 75 24t24 62q0 28 -17 54q-16 25 -42 45q-86 72 -104 87q-43 37 -65 60q-32 34 -51 68
q-18 33 -18 74q0 37 14 68q13 29 38 51q24 21 59 33t75 12q28 0 58 -8q28 -7 52 -21q25 -14 42 -31q18 -19 29 -38l-21 -94q-28 37 -72 64t-90 27q-35 0 -59 -15t-24 -50q0 -26 19 -49q20 -24 39 -39q12 -10 33 -26t29 -23q24 -20 39 -33q13 -12 26 -21q10 -8 18 -15
q20 -17 40 -39q17 -19 30 -41q13 -23 20 -45t7 -52q0 -42 -13 -74q-14 -33 -39 -57t-60 -39t-76 -18l-11 -34q24 -2 41 -7q22 -7 35 -16q14 -10 24 -26q9 -15 9 -34q0 -43 -32 -67q-31 -24 -81 -24q-34 0 -65 14q-29 13 -46 33l12 55q22 -19 44 -27q20 -7 44 -7q19 0 30 8
t11 20z" />
    <glyph glyph-name="scedilla" unicode="&#x15f;" horiz-adv-x="424" 
d="M242 -124l-8 -2q0 13 -11 21t-27 8q-11 0 -16 -1q-10 -2 -16 -4l-19 33l17 59q-46 8 -78 31q-33 24 -47 56l22 75q29 -32 63 -50t84 -18q14 0 27 3t24 9q12 7 17 16q6 10 6 24q0 22 -19 38t-51 33l-53 28q-52 27 -78 61q-27 34 -27 78q0 60 39 98q40 38 113 38
q26 0 48 -6t41 -17t32 -24q14 -14 21 -25l-15 -81q-28 26 -60 41q-33 15 -68 15q-25 0 -43 -9t-18 -31q0 -21 15 -33q12 -10 41 -25l56 -30q58 -31 88 -64t30 -85q0 -58 -39 -99t-106 -48l-11 -35q24 -2 41 -7q22 -7 35 -16q14 -10 24 -26q9 -15 9 -34q0 -43 -32 -67
q-31 -24 -81 -24q-34 0 -65 14q-29 13 -46 33l12 55q22 -19 44 -27q20 -7 44 -7q19 0 30 8t11 20z" />
    <glyph glyph-name="Scaron" unicode="&#x160;" horiz-adv-x="489" 
d="M353 356h-7q20 -17 40 -39q17 -19 30 -41q13 -23 20 -45t7 -52q0 -43 -15 -77t-42 -60t-64 -39q-39 -14 -84 -14q-36 0 -72 11q-33 10 -63 29q-27 17 -49 39q-20 20 -28 42l29 96q33 -52 84 -84q52 -32 108 -32q51 0 75 24t24 62q0 28 -17 54t-42 45q-86 72 -104 87
q-43 37 -65 60q-32 34 -51 68q-18 33 -18 74q0 37 14 68q13 29 38 51q24 21 59 33q34 12 75 12q28 0 58 -8q28 -7 52 -21q25 -14 42 -31q18 -18 29 -38l-21 -94q-28 37 -72 64q-43 27 -90 27q-35 0 -59 -15t-24 -50q0 -26 19 -49q19 -24 39 -39q12 -10 33 -26t29 -23
q24 -19 39 -33q13 -12 26 -21q11 -7 18 -15zM174 772l-75 138h77l59 -63l59 63h77l-75 -138h-122z" />
    <glyph glyph-name="scaron" unicode="&#x161;" horiz-adv-x="424" 
d="M161 236l-2 -3q-52 27 -78 61q-27 34 -27 78q0 60 39 98q40 38 113 38q26 0 48 -6t41 -17t32 -24q14 -14 21 -25l-15 -81q-28 26 -60 41q-33 15 -68 15q-25 0 -43 -9t-18 -31q0 -21 15 -33q12 -10 41 -25l56 -30q58 -31 88 -64t30 -85q0 -32 -12 -59t-35 -47t-54 -30
q-33 -11 -72 -11q-30 0 -54 7q-26 8 -46 19t-36 29q-15 16 -24 36l22 75q29 -32 63 -50t84 -18q14 0 27 3t24 9q12 7 17 16q6 11 6 24q0 22 -19 38q-19 17 -51 33zM143 577l-75 148h80l59 -73l59 73h80l-75 -148h-128z" />
    <glyph glyph-name="uni0162" unicode="&#x162;" horiz-adv-x="576" 
d="M326 -124l-6 -2q0 13 -11 21t-27 8q-11 0 -16 -1q-10 -2 -16 -4l-19 33l20 68h-14v619h-226v99h546v-99h-226v-619h-16l-15 -45q24 -2 41 -7q22 -7 35 -16q14 -10 24 -26q9 -15 9 -34q0 -43 -32 -67q-31 -24 -81 -24q-34 0 -65 14q-29 13 -46 33l12 55q22 -19 44 -27
q20 -7 44 -7q19 0 30 8t11 20z" />
    <glyph glyph-name="uni0163" unicode="&#x163;" horiz-adv-x="440" 
d="M283 -124l-7 -2q0 13 -11 21t-27 8q-11 0 -16 -1q-10 -2 -16 -4l-19 33l19 65q-90 29 -90 160v245h-90v28l153 195h28v-126h175v-97h-175v-229q0 -48 20 -68t60 -20q28 0 48 11q19 11 33 27l19 -72q-14 -26 -44 -44q-29 -17 -75 -19l-11 -33q24 -2 41 -7q22 -7 35 -16
q14 -10 24 -26q9 -15 9 -34q0 -43 -32 -67t-81 -24q-34 0 -65 14q-29 13 -46 33l12 55q22 -19 44 -27q20 -7 44 -7q19 0 30 8t11 20z" />
    <glyph glyph-name="Tcaron" unicode="&#x164;" horiz-adv-x="576" 
d="M15 718h546v-99h-226v-619h-94v619h-226v99zM227 772l-75 138h77l59 -63l59 63h77l-75 -138h-122z" />
    <glyph glyph-name="tcaron" unicode="&#x165;" horiz-adv-x="590" 
d="M392 51v-1q-14 -26 -45 -44t-76 -18q-150 0 -150 169v245h-90v28l153 195h28v-126h175v-97h-175v-229q0 -48 20 -68t60 -20q28 0 48 11q20 10 33 27zM495 555l-3 -2q-16 7 -28 21t-12 39q0 28 19 46t46 18q29 0 48 -18t19 -47q0 -23 -9 -41q-6 -12 -20 -36l-45 -76h-61z
" />
    <glyph glyph-name="Tbar" unicode="&#x166;" horiz-adv-x="576" 
d="M15 718h546v-99h-226v-200h131v-99h-131v-320h-94v320h-130v99h130v200h-226v99z" />
    <glyph glyph-name="tbar" unicode="&#x167;" horiz-adv-x="440" 
d="M392 51v-1q-14 -26 -45 -44t-76 -18q-150 0 -150 169v73h-90v97h90v75h-90v28l153 195h28v-126h175v-97h-175v-75h175v-97h-175v-57q0 -48 20 -68t60 -20q28 0 48 11q20 10 33 27z" />
    <glyph glyph-name="Utilde" unicode="&#x168;" horiz-adv-x="735" 
d="M556 718l94 2v-431q0 -63 -20 -120q-19 -55 -56 -96q-36 -40 -89 -63q-51 -22 -117 -22q-62 0 -115 21t-90 60q-37 38 -58 94q-21 55 -21 123v432h94v-433q0 -44 14 -81q13 -35 39 -61q25 -25 60 -39q33 -13 77 -13q42 0 78 14q35 14 59 39q25 26 38 62q13 35 13 80v432z
M214 780l-3 -6q-10 27 -10 48q0 40 26 64q25 24 63 24q27 0 48 -10q25 -11 43 -22q18 -10 26 -14q12 -6 23 -6q14 0 23 9t9 25v10q0 3 -2 11h59q10 -23 10 -49q0 -40 -24 -63q-25 -23 -62 -23q-24 0 -45 10q-22 10 -39 21q-26 14 -32 17q-12 6 -23 6q-15 0 -24 -9t-9 -25v-9
q0 -3 2 -9h-59z" />
    <glyph glyph-name="utilde" unicode="&#x169;" horiz-adv-x="594" 
d="M289 -12l-2 -1q-39 0 -79 14q-38 13 -69 41q-29 26 -49 71q-19 42 -19 104v282h91v-280q0 -65 36 -99q35 -34 90 -34q25 0 46 7q20 7 40 20q17 12 30 29q13 18 17 36v321h91v-499h-88v55q-10 -29 -45 -48q-34 -19 -90 -19zM141 585l-3 -6q-10 27 -10 48q0 40 26 64t63 24
q27 0 48 -10q25 -11 43 -22q18 -10 26 -14q12 -6 23 -6q14 0 23 9t9 25v10q0 3 -2 11h59q10 -23 10 -49q0 -41 -24 -63q-25 -23 -62 -23q-24 0 -45 10q-23 11 -39 21q-26 14 -32 17q-12 6 -23 6q-15 0 -24 -9t-9 -25v-9q0 -3 2 -9h-59z" />
    <glyph glyph-name="Umacron" unicode="&#x16a;" horiz-adv-x="735" 
d="M556 718l94 2v-431q0 -63 -20 -120q-19 -55 -56 -96q-36 -40 -89 -63q-51 -22 -117 -22q-62 0 -115 21t-90 60q-37 38 -58 94q-21 55 -21 123v432h94v-433q0 -44 14 -81q13 -35 39 -61q25 -25 60 -39q33 -13 77 -13q42 0 78 14q35 14 59 39q25 26 38 62q13 35 13 80v432z
M513 889v-86h-291v86h291z" />
    <glyph glyph-name="umacron" unicode="&#x16b;" horiz-adv-x="594" 
d="M289 -12l-2 -1q-39 0 -79 14q-38 13 -69 41q-29 26 -49 71q-19 42 -19 104v282h91v-280q0 -65 36 -99q35 -34 90 -34q25 0 46 7q20 7 40 20q17 12 30 29q13 18 17 36v321h91v-499h-88v55q-10 -29 -45 -48q-34 -19 -90 -19zM439 700v-86h-291v86h291z" />
    <glyph glyph-name="Ubreve" unicode="&#x16c;" horiz-adv-x="735" 
d="M556 718l94 2v-431q0 -63 -20 -120q-19 -55 -56 -96q-36 -40 -89 -63q-51 -22 -117 -22q-62 0 -115 21t-90 60q-37 38 -58 94q-21 55 -21 123v432h94v-433q0 -44 14 -81q13 -35 39 -61q25 -25 60 -39q33 -13 77 -13q42 0 78 14q35 14 59 39q25 26 38 62q13 35 13 80v432z
M512 916l-2 -2q-2 -30 -13 -54q-13 -27 -31 -44q-20 -19 -45 -29q-24 -10 -55 -10q-28 0 -55 11q-25 10 -45 29q-18 17 -31 44q-11 24 -13 54h85q3 -19 20 -33q16 -13 39 -13q22 0 41 14q18 13 21 33h84z" />
    <glyph glyph-name="ubreve" unicode="&#x16d;" horiz-adv-x="594" 
d="M289 -12l-2 -1q-39 0 -79 14q-38 13 -69 41q-29 26 -49 71q-19 42 -19 104v282h91v-280q0 -65 36 -99q35 -34 90 -34q25 0 46 7q20 7 40 20q17 12 30 29q13 18 17 36v321h91v-499h-88v55q-10 -29 -45 -48q-34 -19 -90 -19zM438 721l-2 -2q-2 -30 -13 -54q-13 -27 -31 -44
q-20 -19 -45 -29q-24 -10 -55 -10q-28 0 -55 11q-25 10 -45 29q-18 17 -31 44q-11 24 -13 54h85q3 -19 20 -33q16 -13 39 -13q22 0 41 14q18 14 21 33h84z" />
    <glyph glyph-name="Uring" unicode="&#x16e;" horiz-adv-x="735" 
d="M556 718l94 2v-431q0 -63 -20 -120q-19 -55 -56 -96q-36 -40 -89 -63q-51 -22 -117 -22q-62 0 -115 21t-90 60q-37 38 -58 94q-21 55 -21 123v432h94v-433q0 -44 14 -81q13 -35 39 -61q25 -25 60 -39q33 -13 77 -13q42 0 78 14q35 14 59 39q25 26 38 62q13 35 13 80v432z
M263 860q0 45 30 75t74 30t74 -30t30 -75q0 -44 -30 -74t-74 -30t-74 30t-30 74zM323 860h-2q0 -18 12 -30t32 -12t32 12t12 30q0 19 -12 31t-31 12t-31 -12t-12 -31z" />
    <glyph glyph-name="uring" unicode="&#x16f;" horiz-adv-x="594" 
d="M289 -12l-2 -1q-39 0 -79 14q-38 13 -69 41q-29 26 -49 71q-19 42 -19 104v282h91v-280q0 -65 36 -99q35 -34 90 -34q25 0 46 7q20 7 40 20q17 12 30 29q13 18 17 36v321h91v-499h-88v55q-10 -29 -45 -48q-34 -19 -90 -19zM187 665q0 45 30 75t74 30t74 -30t30 -75
q0 -44 -30 -74t-74 -30t-74 30t-30 74zM248 665q0 -18 12 -30t30 -12t30 12t12 30t-12 30t-30 12t-30 -12t-12 -30z" />
    <glyph glyph-name="Uhungarumlaut" unicode="&#x170;" horiz-adv-x="735" 
d="M556 718l94 2v-431q0 -63 -20 -120q-19 -55 -56 -96q-36 -40 -89 -63q-51 -22 -117 -22q-62 0 -115 21t-90 60q-37 38 -58 94q-21 55 -21 123v432h94v-433q0 -44 14 -81q13 -35 39 -61q25 -25 60 -39q33 -13 77 -13q42 0 78 14q35 14 59 39q25 26 38 62q13 35 13 80v432z
M407 922l-110 -148h-77l65 148h122zM579 922l-110 -148h-77l65 148h122z" />
    <glyph glyph-name="uhungarumlaut" unicode="&#x171;" horiz-adv-x="594" 
d="M289 -12l-2 -1q-39 0 -79 14q-38 13 -69 41q-29 26 -49 71q-19 42 -19 104v282h91v-280q0 -65 36 -99q35 -34 90 -34q25 0 46 7q20 7 40 20q17 12 30 29q13 18 17 36v321h91v-499h-88v55q-10 -29 -45 -48q-34 -19 -90 -19zM340 727l-110 -148h-77l65 148h122zM512 727
l-110 -148h-77l65 148h122z" />
    <glyph glyph-name="Uogonek" unicode="&#x172;" horiz-adv-x="735" 
d="M556 718l95 -3v-431q0 -107 -50 -183q-49 -75 -135 -102q-13 -14 -22 -34q-9 -19 -9 -40q0 -25 15 -39q16 -14 38 -14q4 0 12 2q6 1 11 5l12 -73q-7 -9 -24 -18t-42 -9q-55 0 -85 31q-30 32 -30 75q0 32 17 60q16 26 33 43h-12h-12q-62 0 -115 21t-90 60q-37 38 -58 94
q-21 55 -21 123v432h94v-433q0 -44 14 -81q13 -35 39 -61q25 -25 60 -39q33 -13 77 -13q42 0 78 14q35 14 59 39q25 26 38 62q13 35 13 80v432z" />
    <glyph glyph-name="uogonek" unicode="&#x173;" horiz-adv-x="594" 
d="M424 0l-1 52q-11 -28 -45 -48q-34 -19 -90 -19q-39 0 -79 14q-38 13 -69 41q-29 26 -49 71q-19 42 -19 104v282h91v-280q0 -65 36 -99q35 -34 90 -34q25 0 46 7q20 7 40 20q17 12 30 29q13 18 17 36v321h91v-499q-12 -17 -20 -33q-9 -18 -9 -39q0 -26 15 -39
q16 -14 38 -14q4 0 12 2q6 1 11 5l12 -73q-8 -9 -24 -18t-42 -9q-55 0 -85 31t-30 75q0 21 7 38q6 15 17 33q9 15 20 26q13 13 18 17h-29z" />
    <glyph glyph-name="Wcircumflex" unicode="&#x174;" horiz-adv-x="1020" 
d="M716 177l178 541h106l-238 -718h-94l-160 566l-156 -566h-94l-238 718h100l181 -541l154 541h102zM569 910l75 -138h-77l-59 63l-59 -63h-77l75 138h122z" />
    <glyph glyph-name="wcircumflex" unicode="&#x175;" horiz-adv-x="858" 
d="M593 126l143 373h103l-197 -499h-93l-120 377l-120 -377h-93l-197 499h97l143 -373l119 373h96zM493 728l75 -148h-80l-59 73l-59 -73h-80l75 148h128z" />
    <glyph glyph-name="Ycircumflex" unicode="&#x176;" horiz-adv-x="558" 
d="M8 718h106l163 -307l164 307h109l-223 -419v-299h-94v299zM338 910l75 -138h-77l-59 63l-59 -63h-77l75 138h122z" />
    <glyph glyph-name="ycircumflex" unicode="&#x177;" horiz-adv-x="547" 
d="M18 499h102l153 -367l152 367h101l-297 -712h-101l96 232zM336 728l75 -148h-80l-59 73l-59 -73h-80l75 148h128z" />
    <glyph glyph-name="Ydieresis" unicode="&#x178;" horiz-adv-x="558" 
d="M8 718h106l163 -307l164 307h109l-223 -419v-299h-94v299zM110 846h-1q0 28 20 48t48 20t48 -20t20 -48t-20 -48t-48 -20t-48 20q-19 19 -19 48zM310 846h-1q0 28 20 48t48 20t48 -20t20 -48t-20 -48t-48 -20t-48 20q-19 19 -19 48z" />
    <glyph glyph-name="Zacute" unicode="&#x179;" horiz-adv-x="503" 
d="M50 718h396v-79l-281 -538h283v-101h-398v77l276 540h-276v101zM386 910l-110 -138h-87l65 138h132z" />
    <glyph glyph-name="zacute" unicode="&#x17a;" horiz-adv-x="459" 
d="M61 499h332v-79l-222 -323h234v-97h-351v79l219 323h-212v97zM362 728l-110 -148h-83l65 148h128z" />
    <glyph glyph-name="Zdotaccent" unicode="&#x17b;" horiz-adv-x="503" 
d="M50 718h396v-79l-281 -538h283v-101h-398v77l276 540h-276v101zM180 846l-3 -3q0 28 20 48t47 20q29 0 48 -19q20 -20 20 -48q0 -27 -19 -46t-48 -19q-26 0 -46 20q-19 19 -19 47z" />
    <glyph glyph-name="zdotaccent" unicode="&#x17c;" horiz-adv-x="459" 
d="M61 499h332v-79l-222 -323h234v-97h-351v79l219 323h-212v97zM159 655l-3 -3q0 28 20 48t47 20q29 0 48 -19q20 -20 20 -48q0 -27 -19 -46t-48 -19q-26 0 -46 20q-19 19 -19 47z" />
    <glyph glyph-name="Zcaron" unicode="&#x17d;" horiz-adv-x="503" 
d="M50 718h396v-79l-281 -538h283v-101h-398v77l276 540h-276v101zM187 772l-75 138h77l59 -63l59 63h77l-75 -138h-122z" />
    <glyph glyph-name="zcaron" unicode="&#x17e;" horiz-adv-x="459" 
d="M61 499h332v-79l-222 -323h234v-97h-351v79l219 323h-212v97zM161 580l-75 148h80l59 -73l59 73h80l-75 -148h-128z" />
    <glyph glyph-name="longs" unicode="&#x17f;" horiz-adv-x="363" 
d="M388 603l-1 -1q-14 17 -36 29q-23 12 -51 12q-33 0 -57 -21t-24 -64v-559h-91v402h-88v97h88v75q0 79 41 123t120 44q38 0 69 -16q32 -16 45 -42z" />
    <glyph glyph-name="uni018F" unicode="&#x18f;" horiz-adv-x="785" 
d="M643 413l-6 1q-10 57 -35 98q-23 39 -59 67q-35 27 -78 39t-91 12q-75 0 -141 -30t-108 -87l-29 84q18 32 47 56t66 42t81 27t90 9q74 0 139 -25q68 -26 116 -73q50 -49 80 -117q30 -69 30 -158q0 -80 -27 -147t-75 -117t-111 -78q-62 -28 -136 -28q-80 0 -147 29
q-66 28 -112 79q-47 51 -72 120q-25 68 -25 150v24q0 11 2 23h601zM389 91l1 1q43 0 83 12q39 12 75 38q35 26 59 68q25 43 32 104h-503q6 -66 31 -108q26 -44 61 -69q36 -25 78 -36q40 -10 83 -10z" />
    <glyph glyph-name="florin" unicode="&#x192;" horiz-adv-x="492" 
d="M188 589l1 -3q13 73 54 112t108 39q17 0 35 -3q17 -3 35 -11q15 -7 30 -20q14 -12 21 -31l-19 -77q-12 20 -34 33q-23 14 -54 14q-17 0 -30 -4q-16 -5 -27 -13q-11 -9 -21 -23q-9 -14 -12 -33l-25 -138h159v-97h-176l-97 -547h-91l98 547h-89v97h106z" />
    <glyph glyph-name="uni01B5" unicode="&#x1b5;" horiz-adv-x="503" 
d="M50 718h396v-79l-113 -215h89v-101h-141l-116 -222h283v-101h-398v77l125 246h-108v101h160l99 193h-276v101z" />
    <glyph glyph-name="uni01B6" unicode="&#x1b6;" horiz-adv-x="459" 
d="M61 499h332v-79l-83 -121h73v-93h-137l-75 -109h234v-97h-351v79l86 127h-75v93h138l70 103h-212v97z" />
    <glyph glyph-name="Aringacute" unicode="&#x1fa;" horiz-adv-x="678" 
d="M235 760h-2q0 45 30 75t74 30t74 -30t30 -75q0 -26 -10 -46q-11 -22 -27 -35l262 -679h-100l-65 165h-324l-64 -165h-103l263 678q-17 13 -28 35q-10 20 -10 47zM215 266h246l-124 316zM497 1039l-110 -138h-87l65 138h132zM293 760h-2q0 -18 12 -30t32 -12t32 12t12 30
q0 19 -12 31t-31 12t-31 -12t-12 -31z" />
    <glyph glyph-name="aringacute" unicode="&#x1fb;" horiz-adv-x="551" 
d="M383 177l1 -4q-12 22 -48 32q-38 11 -77 11q-57 0 -88 -18t-31 -49q0 -30 30 -48t89 -18q22 0 39 4q20 5 36 12t30 18q13 10 19 22v38zM75 420h-1q28 39 78 63q49 24 109 24q100 0 157 -51t57 -144v-315h-88v44q-9 -14 -25 -24q-16 -11 -36 -18q-20 -8 -40 -12
q-19 -4 -42 -4q-88 0 -142 42t-54 119q0 39 15 69t42 51q28 22 63 32q38 11 78 11q16 0 36 -3q26 -4 38 -7q19 -5 35 -12q15 -7 28 -18v24q0 30 -11 54q-10 21 -29 37q-17 14 -42 22q-22 7 -51 7q-49 0 -87 -19q-40 -20 -62 -51zM170 662q0 45 30 75t74 30t74 -30t30 -75
q0 -44 -30 -74t-74 -30t-74 30t-30 74zM231 662q0 -18 12 -30t30 -12t30 12t12 30t-12 30t-30 12t-30 -12t-12 -30zM422 962l-110 -148h-83l65 148h128z" />
    <glyph glyph-name="AEacute" unicode="&#x1fc;" horiz-adv-x="918" 
d="M471 165h-272l-99 -165h-110l433 718h431v-101h-289v-197h259v-101h-259v-218h289v-101h-383v165zM471 266v350l-211 -350h211zM722 910l-110 -138h-87l65 138h132z" />
    <glyph glyph-name="aeacute" unicode="&#x1fd;" horiz-adv-x="906" 
d="M249 414l-6 -3q-49 0 -87 -19q-40 -20 -62 -51l-26 79q28 39 78 63t109 24q63 0 110 -21q48 -22 74 -61q31 37 77 60t104 23q54 0 97 -21q44 -21 74 -57q31 -37 47 -84t16 -100q0 -16 -3 -34h-382q7 -66 54 -99t118 -33q25 0 47 6q24 6 44 15q20 8 37 21q17 12 27 24
l24 -71q-8 -17 -24 -33q-17 -17 -40 -30q-24 -14 -54 -21q-32 -8 -65 -8q-65 0 -117 24t-87 69q-28 -43 -78 -67q-49 -24 -110 -24q-91 0 -145 42t-54 120q0 39 15 69t42 51q28 22 63 32q38 11 78 11q16 0 36 -3q26 -4 38 -7q19 -5 35 -12q18 -8 29 -18v25q0 35 -12 57
t-32 36q-21 14 -43 20q-24 6 -46 6zM377 174l1 -4q-12 22 -48 32q-38 11 -77 11q-57 0 -88 -18t-31 -49q0 -30 30 -48t89 -18q22 0 39 4q20 4 36 12t30 18q13 10 19 22v38zM756 301l-2 -3q-2 22 -12 42q-10 18 -29 34t-42 23q-26 8 -51 8t-52 -8q-26 -7 -45 -21t-33 -33
q-13 -19 -16 -42h282zM588 718l-110 -148h-83l65 148h128z" />
    <glyph glyph-name="Oslashacute" unicode="&#x1fe;" horiz-adv-x="806" 
d="M403 730v-4q57 0 106 -16q52 -17 95 -48l54 64h117l-104 -124q42 -48 66 -111t24 -136q0 -78 -29 -147q-28 -68 -78 -117t-114 -78q-63 -28 -135 -28q-55 0 -108 17q-51 16 -95 47l-53 -63h-117l104 123q-43 49 -67 112t-24 136q0 78 29 148q28 68 78 118q50 49 114 78
q66 29 137 29zM666 355l-1 -2q0 51 -15 95q-15 45 -43 78l-341 -406q31 -17 65 -26q35 -9 72 -9q54 0 103 20q50 20 83 55q36 37 56 85q21 50 21 110zM403 622l1 -2q-55 0 -104 -20q-47 -19 -84 -56q-36 -36 -57 -85t-21 -108q0 -51 15 -94q15 -45 43 -78l342 406
q-61 37 -135 37zM546 902l-110 -138h-87l65 138h132z" />
    <glyph glyph-name="oslashacute" unicode="&#x1ff;" horiz-adv-x="609" 
d="M556 249v1q0 -56 -21 -104q-22 -50 -55 -83q-34 -34 -80 -54q-44 -19 -96 -19q-73 0 -132 38l-32 -38h-115l82 97q-25 32 -40 75q-15 42 -15 90q0 55 20 104t54 83q34 35 81 54q48 20 97 20q38 0 69 -10q34 -11 62 -30l33 39h115l-83 -98q26 -34 41 -75q15 -42 15 -90z
M143 250v-2q0 -53 25 -93l206 243q-17 8 -34 12q-16 4 -37 4q-35 0 -63 -12q-29 -12 -51 -34t-34 -52t-12 -66zM465 247h-1q0 53 -25 93l-206 -242q34 -14 70 -14q34 0 64 12q29 12 52 33q22 20 34 51q12 30 12 67zM447 727l-110 -148h-83l65 148h128z" />
    <glyph glyph-name="uni0218" unicode="&#x218;" horiz-adv-x="489" 
d="M353 356h-7q20 -17 40 -39q17 -19 30 -41q13 -23 20 -45t7 -52q0 -43 -15 -77t-42 -60t-64 -39q-39 -14 -84 -14q-36 0 -72 11q-33 10 -63 29q-27 17 -49 39q-20 20 -28 42l29 96q33 -52 84 -84q52 -32 108 -32q51 0 75 24t24 62q0 28 -17 54t-42 45q-86 72 -104 87
q-43 37 -65 60q-32 34 -51 68q-18 33 -18 74q0 37 14 68q13 29 38 51q24 21 59 33q34 12 75 12q28 0 58 -8q28 -7 52 -21q25 -14 42 -31q18 -18 29 -38l-21 -94q-28 37 -72 64q-43 27 -90 27q-35 0 -59 -15t-24 -50q0 -26 19 -49q19 -24 39 -39q12 -10 33 -26t29 -23
q24 -19 39 -33q13 -12 26 -21q11 -7 18 -15zM213 -187l-3 -2q-16 7 -28 21t-12 39q0 28 19 46t46 18q29 0 48 -18t19 -47q0 -23 -9 -41q-6 -12 -20 -36l-45 -76h-61z" />
    <glyph glyph-name="uni0219" unicode="&#x219;" horiz-adv-x="424" 
d="M161 236l-2 -3q-52 27 -78 61q-27 34 -27 78q0 60 39 98q40 38 113 38q26 0 48 -6t41 -17t32 -24q14 -14 21 -25l-15 -81q-28 26 -60 41q-33 15 -68 15q-25 0 -43 -9t-18 -31q0 -21 15 -33q12 -10 41 -25l56 -30q58 -31 88 -64t30 -85q0 -32 -12 -59t-35 -47t-54 -30
q-33 -11 -72 -11q-30 0 -54 7q-26 8 -46 19t-36 29q-15 16 -24 36l22 75q29 -32 63 -50t84 -18q14 0 27 3t24 9q12 7 17 16q6 11 6 24q0 22 -19 38q-19 17 -51 33zM186 -190l-3 -2q-16 7 -28 21q-12 13 -12 39q0 28 19 46q20 18 46 18q28 0 48 -18q19 -18 19 -47
q0 -23 -9 -41q-6 -12 -20 -36l-45 -76h-61z" />
    <glyph glyph-name="uni021A" unicode="&#x21a;" horiz-adv-x="579" 
d="M15 718h546v-99h-226v-619h-94v619h-226v99zM265 -187l-3 -2q-16 7 -28 21t-12 39q0 28 19 46t46 18q29 0 48 -18t19 -47q0 -23 -9 -41q-6 -12 -20 -36l-45 -76h-61z" />
    <glyph glyph-name="uni021B" unicode="&#x21b;" horiz-adv-x="440" 
d="M392 51v-1q-14 -26 -45 -44t-76 -18q-150 0 -150 169v245h-90v28l153 195h28v-126h175v-97h-175v-229q0 -48 20 -68t60 -20q28 0 48 11q20 10 33 27zM233 -188l-3 -2q-16 7 -28 21q-12 13 -12 39q0 28 19 46t46 18q29 0 48 -18t19 -47q0 -23 -9 -41q-6 -12 -20 -36
l-45 -76h-61z" />
    <glyph glyph-name="schwa" unicode="&#x259;" horiz-adv-x="574" 
d="M262 414v-5q-24 0 -47 -6q-21 -6 -43 -15q-20 -8 -37 -21q-17 -12 -27 -24l-24 71q8 16 24 33q17 17 40 30q24 13 54 21q32 8 65 8q55 0 103 -18q47 -18 82 -51q34 -33 54 -81q19 -47 19 -108q0 -51 -17 -100q-16 -48 -48 -84q-31 -36 -77 -57q-45 -21 -102 -21
q-53 0 -97 21q-43 21 -73 57q-29 35 -46 84q-16 47 -16 100q0 16 3 34h382q-8 66 -54 99t-118 33zM145 186l2 2q1 -22 12 -42q10 -18 29 -34q17 -14 42 -22q26 -8 51 -8t52 8q25 8 45 21t33 33q13 19 16 42h-282z" />
    <glyph glyph-name="circumflex" unicode="&#x2c6;" horiz-adv-x="432" 
d="M280 728l75 -148h-80l-59 73l-59 -73h-80l75 148h128z" />
    <glyph glyph-name="caron" unicode="&#x2c7;" horiz-adv-x="432" 
d="M152 580l-75 148h80l59 -73l59 73h80l-75 -148h-128z" />
    <glyph glyph-name="uni02C9" unicode="&#x2c9;" horiz-adv-x="451" 
d="M371 701v-86h-291v86h291z" />
    <glyph glyph-name="breve" unicode="&#x2d8;" horiz-adv-x="450" 
d="M370 722l-2 -2q-2 -30 -13 -54q-13 -27 -31 -44q-20 -19 -45 -29q-24 -10 -55 -10q-28 0 -55 11q-25 10 -45 29q-18 17 -31 44q-11 24 -13 54h85q3 -19 20 -33q16 -13 39 -13q22 0 41 14q18 13 21 33h84z" />
    <glyph glyph-name="dotaccent" unicode="&#x2d9;" horiz-adv-x="314" 
d="M91 655l-3 -3q0 28 20 48t47 20q29 0 48 -19q20 -20 20 -48q0 -27 -19 -46t-48 -19q-26 0 -46 20q-19 19 -19 47z" />
    <glyph glyph-name="ring" unicode="&#x2da;" horiz-adv-x="360" 
d="M80 666q0 45 30 75t74 30t74 -30t30 -75q0 -44 -30 -74t-74 -30t-74 30t-30 74zM141 666q0 -18 12 -30t30 -12t30 12t12 30t-12 30t-30 12t-30 -12t-12 -30z" />
    <glyph glyph-name="ogonek" unicode="&#x2db;" horiz-adv-x="340" 
d="M205 0l1 -2q-12 -18 -20 -33q-9 -18 -9 -39q0 -26 15 -39q16 -14 38 -14q4 0 12 2q6 1 11 5l12 -73q-7 -9 -24 -18t-42 -9q-55 0 -85 31t-30 75q0 21 7 38q6 15 17 33q9 15 20 26q13 13 18 17h59z" />
    <glyph glyph-name="tilde" unicode="&#x2dc;" horiz-adv-x="487" 
d="M90 586l-3 -6q-10 27 -10 48q0 40 26 64q25 24 63 24q27 0 48 -10q25 -11 43 -22q18 -10 26 -14q12 -6 23 -6q14 0 23 9t9 25v10q0 3 -2 11h59q10 -23 10 -49q0 -40 -24 -63q-25 -23 -62 -23q-24 0 -45 10q-22 10 -39 21q-26 14 -32 17q-12 6 -23 6q-15 0 -24 -9t-9 -25
v-9q0 -3 2 -9h-59z" />
    <glyph glyph-name="hungarumlaut" unicode="&#x2dd;" horiz-adv-x="519" 
d="M267 728l-110 -148h-77l65 148h122zM439 728l-110 -148h-77l65 148h122z" />
    <glyph glyph-name="uni0394" unicode="&#x394;" horiz-adv-x="645" 
d="M634 0h-625q11 28 33 89.5t34 92.5l66 177l66 177q12 31 34 92.5t33 89.5h95zM503 96l-181 502l-182 -502h363z" />
    <glyph glyph-name="uni03A9" unicode="&#x3a9;" horiz-adv-x="810" 
d="M405 730v-2q77 0 143 -29q64 -29 111 -78t72 -117q26 -69 26 -144q0 -50 -10 -90q-10 -41 -27 -76q-16 -33 -36 -58q-21 -26 -37 -35h117v-101h-272v81q35 17 67 45q31 26 54 62q23 34 36 78q13 42 13 93q0 57 -18 106q-19 51 -52 86q-35 36 -82 57q-48 21 -105 21
t-105 -21q-47 -21 -82 -57q-34 -35 -52 -85t-18 -106q0 -51 13 -93q13 -43 36 -78q23 -36 54 -62q32 -28 67 -45v-81h-272v101h117q-16 9 -37 35q-19 23 -36 59q-17 35 -27 76q-10 40 -10 90q0 75 26 144q25 68 72 117t111 78q66 29 143 29z" />
    <glyph glyph-name="uni03BC" unicode="&#x3bc;" horiz-adv-x="603" 
d="M298 -12h-2q-34 0 -65 9t-60 27v-237h-91v712h91v-280q0 -65 36 -99q35 -34 90 -34q25 0 46 7q20 7 40 20q17 12 30 29q13 18 17 36v321h91v-499h-88v55q-11 -29 -45 -48t-90 -19z" />
    <glyph glyph-name="pi" unicode="&#x3c0;" horiz-adv-x="643" 
d="M228 0h-91v402h-90v97h549v-97h-90v-402h-91v402h-187v-402z" />
    <glyph glyph-name="uni0401" unicode="&#x401;" horiz-adv-x="533" 
d="M90 718h383v-101h-289v-197h259v-101h-259v-218h289v-101h-383v718zM116 846h-1q0 28 20 48t48 20t48 -20t20 -48t-20 -48t-48 -20t-48 20q-19 19 -19 48zM316 846h-1q0 28 20 48t48 20t48 -20t20 -48t-20 -48t-48 -20t-48 20q-19 19 -19 48z" />
    <glyph glyph-name="uni0402" unicode="&#x402;" horiz-adv-x="644" 
d="M389 422l-4 4q43 0 84 -15t72 -43q32 -29 51 -70t19 -94q0 -47 -16 -85q-17 -40 -43 -66q-27 -27 -61 -42q-35 -15 -72 -15q-36 0 -64 14q-27 14 -39 30l19 83q13 -13 33 -19t42 -6q49 0 78 29t29 75q0 53 -40 86q-41 33 -106 33q-37 0 -60 -4q-25 -5 -51 -12v-304h-94
v619h-151v99h458v-99h-213v-213q32 9 63 12t66 3z" />
    <glyph glyph-name="uni0403" unicode="&#x403;" horiz-adv-x="488" 
d="M90 718h348v-101h-254v-617h-94v718zM396 910l-110 -138h-87l65 138h132z" />
    <glyph glyph-name="uni0404" unicode="&#x404;" horiz-adv-x="700" 
d="M394 91l3 -1q86 0 145 34t94 84l28 -84q-17 -30 -43 -54t-63 -43q-38 -19 -78 -29q-44 -11 -92 -11q-71 0 -134 27q-64 27 -111 76t-76 117q-28 66 -28 152q0 85 28 153q29 70 76 117q48 48 111 75t135 27q47 0 91 -11q39 -10 76 -29q34 -18 60 -42q25 -24 39 -50
l-29 -84q-33 49 -94 82t-139 33q-105 0 -172 -55t-84 -153h328v-101h-330q6 -56 27 -98q21 -43 55 -72q35 -30 79 -45q45 -15 98 -15z" />
    <glyph glyph-name="uni0405" unicode="&#x405;" horiz-adv-x="489" 
d="M353 356h-7q20 -17 40 -39q17 -19 30 -41q13 -23 20 -45t7 -52q0 -43 -15 -77t-42 -60t-64 -39q-39 -14 -84 -14q-36 0 -72 11q-33 10 -63 29q-27 17 -49 39q-20 20 -28 42l29 96q33 -52 84 -84q52 -32 108 -32q51 0 75 24t24 62q0 28 -17 54t-42 45q-86 72 -104 87
q-43 37 -65 60q-32 34 -51 68q-18 33 -18 74q0 37 14 68q13 29 38 51q24 21 59 33q34 12 75 12q28 0 58 -8q28 -7 52 -21q25 -14 42 -31q18 -18 29 -38l-21 -94q-28 37 -72 64q-43 27 -90 27q-35 0 -59 -15t-24 -50q0 -26 19 -49q19 -24 39 -39q12 -10 33 -26t29 -23
q24 -19 39 -33q13 -12 26 -21q11 -7 18 -15z" />
    <glyph glyph-name="uni0406" unicode="&#x406;" horiz-adv-x="274" 
d="M90 718h94v-718h-94v718z" />
    <glyph glyph-name="uni0407" unicode="&#x407;" horiz-adv-x="274" 
d="M90 718h94v-718h-94v718zM-31 846h-1q0 28 20 48t48 20t48 -20t20 -48t-20 -48t-48 -20t-48 20q-19 19 -19 48zM169 846h-1q0 28 20 48t48 20t48 -20t20 -48t-20 -48t-48 -20t-48 20q-19 19 -19 48z" />
    <glyph glyph-name="uni0408" unicode="&#x408;" horiz-adv-x="405" 
d="M320 179v-1q0 -92 -40 -141q-41 -50 -126 -50q-26 0 -47 6q-19 6 -39 17q-17 10 -30 23q-12 12 -18 24l11 89q23 -26 50 -41t60 -15q39 0 62 24q23 25 23 84v520h94v-539z" />
    <glyph glyph-name="uni0409" unicode="&#x409;" horiz-adv-x="924" 
d="M684 101v-1q25 0 46 9q22 9 36 25q15 16 24 38q9 21 9 45q0 52 -33 85t-82 33h-126v-234h126zM558 717l2 -280h111q50 0 91 -16q42 -17 72 -45q31 -29 47 -69q17 -42 17 -88q0 -49 -18 -90t-48 -69q-31 -29 -72 -44q-42 -15 -90 -15h-204v617h-182l-1 -29
q-6 -170 -22 -280q-17 -114 -45 -183t-69 -99t-93 -30q-6 0 -18 2q-10 2 -14 3l-16 87q25 3 52 11q23 7 43 29q19 20 34 60q16 41 26 104q11 70 17 159q7 112 11 226l1 39h368z" />
    <glyph glyph-name="uni040A" unicode="&#x40a;" horiz-adv-x="934" 
d="M474 0v319h-290v-319h-94v718h94v-297h290v297h94v-282h111q50 0 91 -16q42 -16 72 -45q31 -29 47 -69q17 -42 17 -88q0 -50 -18 -90t-48 -69q-31 -29 -72 -44q-42 -15 -90 -15h-204zM694 101v-1q25 0 46 9q22 9 36 25q15 16 24 38q9 21 9 45q0 52 -33 85t-82 33h-126
v-234h126z" />
    <glyph glyph-name="uni040B" unicode="&#x40b;" horiz-adv-x="661" 
d="M512 0l1 185q0 72 -34 102q-35 30 -103 30q-37 0 -60 -4q-26 -5 -54 -12v-303h-94v619h-151v99h458v-99h-213v-213q32 8 63 12q28 4 69 4t82 -11t68 -34q28 -24 45 -60q17 -37 17 -88v-227h-94z" />
    <glyph glyph-name="uni040C" unicode="&#x40c;" horiz-adv-x="640" 
d="M90 718h94v-314l290 314h124l-321 -349l355 -369h-132l-316 325v-325h-94v718zM460 910l-110 -138h-87l65 138h132z" />
    <glyph glyph-name="uni040E" unicode="&#x40e;" horiz-adv-x="575" 
d="M27 718h104l166 -373l150 373h105l-287 -718h-106l89 223zM449 897l2 -1q1 -32 -12 -57t-36 -45t-52 -30t-64 -10q-33 0 -64 11q-29 10 -52 30q-23 19 -36 45t-12 57l79 17q1 -28 24 -49q22 -21 60 -21t60 21q23 21 24 49z" />
    <glyph glyph-name="uni040F" unicode="&#x40f;" horiz-adv-x="746" 
d="M90 718h94v-617h378v617h94v-718h-238v-154h-90v154h-238v718z" />
    <glyph glyph-name="uni0410" unicode="&#x410;" horiz-adv-x="678" 
d="M667 0h-100l-65 165h-324l-64 -165h-103l278 718h101zM217 266h246l-124 316z" />
    <glyph glyph-name="uni0411" unicode="&#x411;" horiz-adv-x="561" 
d="M90 0v718h367v-101h-277v-181h111q50 0 91 -16q42 -16 72 -45q31 -29 47 -69q17 -42 17 -88q0 -50 -18 -90t-48 -69q-31 -29 -72 -44q-42 -15 -90 -15h-200zM306 101v-1q25 0 46 9q22 9 36 25q15 16 24 38q9 21 9 45q0 52 -33 85t-82 33h-126v-234h126z" />
    <glyph glyph-name="uni0412" unicode="&#x412;" horiz-adv-x="578" 
d="M271 718l-2 -2q51 0 90 -13q41 -14 69 -37q29 -24 45 -61q16 -36 16 -85q0 -47 -17 -81t-45 -56q44 -21 72 -64t28 -109q0 -52 -16 -90q-17 -40 -46 -66t-70 -40q-42 -14 -88 -14h-217v718h181zM182 314l-2 -213h142q21 0 42 8q20 7 33 21q14 14 23 33t9 42q0 20 -8 41
q-8 20 -21 35q-14 15 -33 24q-20 9 -44 9h-141zM180 617v-201h110q46 0 74 27q29 27 29 73q0 44 -28 72q-29 29 -75 29h-110z" />
    <glyph glyph-name="uni0413" unicode="&#x413;" horiz-adv-x="488" 
d="M90 718h348v-101h-254v-617h-94v718z" />
    <glyph glyph-name="uni0414" unicode="&#x414;" horiz-adv-x="780" 
d="M631 101h97v-255h-90v154h-520v-154h-90v255h57q36 62 62 117q27 56 49 128q21 68 33 144q12 77 12 167v61h390v-617zM535 101l-2 516h-204q0 -67 -11 -142q-10 -67 -29 -139q-18 -69 -42 -128q-26 -64 -52 -107h340z" />
    <glyph glyph-name="uni0415" unicode="&#x415;" horiz-adv-x="533" 
d="M90 718h383v-101h-289v-197h259v-101h-259v-218h289v-101h-383v718z" />
    <glyph glyph-name="uni0416" unicode="&#x416;" horiz-adv-x="936" 
d="M515 404l267 314h123l-300 -349l321 -369h-131l-280 325v-325h-94v325l-280 -325h-131l321 369l-300 349h123l267 -314v314h94v-314z" />
    <glyph glyph-name="uni0417" unicode="&#x417;" horiz-adv-x="525" 
d="M375 387h3q45 -25 72 -72t27 -111q0 -48 -17 -90q-16 -40 -47 -69q-29 -27 -71 -43q-40 -15 -89 -15q-42 0 -75 10q-34 11 -63 27q-27 16 -48 38q-19 20 -28 42l26 86q34 -49 83 -75q47 -25 104 -25q60 0 95 32t35 87q0 22 -9 43t-26 38t-42 26t-60 9h-61v102h63
q25 0 45 9q19 9 33 23q13 13 21 32q7 17 7 39q0 40 -27 69t-73 29q-53 0 -93 -25q-41 -26 -69 -64l-20 91q10 20 29 39t42 32q24 14 52 21q30 8 58 8q43 0 79 -15q38 -16 62 -40q25 -25 39 -60q14 -36 14 -77q0 -48 -19 -86q-20 -40 -52 -65z" />
    <glyph glyph-name="uni0418" unicode="&#x418;" horiz-adv-x="763" 
d="M673 0h-94v563l-387 -563h-102v718h94v-566l387 566h102v-718z" />
    <glyph glyph-name="uni0419" unicode="&#x419;" horiz-adv-x="763" 
d="M673 0h-94v563l-387 -563h-102v718h94v-566l387 566h102v-718zM543 897l2 -1q1 -32 -12 -57t-36 -45t-52 -30t-64 -10q-33 0 -64 11q-29 10 -52 30q-23 19 -36 45t-12 57l79 17q1 -28 24 -49q22 -21 60 -21t60 21q23 21 24 49z" />
    <glyph glyph-name="uni041A" unicode="&#x41a;" horiz-adv-x="640" 
d="M90 718h94v-314l290 314h124l-321 -349l355 -369h-132l-316 325v-325h-94v718z" />
    <glyph glyph-name="uni041B" unicode="&#x41b;" horiz-adv-x="696" 
d="M606 718l2 -716h-94v617h-230l-1 -29q-6 -170 -22 -280q-17 -114 -45 -183t-69 -99t-93 -30q-6 0 -18 2q-10 2 -14 3l-16 87q25 3 52 11q23 7 43 29q19 20 34 60q16 41 26 104q11 70 17 159q7 112 11 226l1 39h416z" />
    <glyph glyph-name="uni041C" unicode="&#x41c;" horiz-adv-x="952" 
d="M690 718h101l96 -718h-93l-75 548l-198 -548h-92l-202 548l-70 -548h-97l95 718h101l216 -581z" />
    <glyph glyph-name="uni041D" unicode="&#x41d;" horiz-adv-x="757" 
d="M90 718h94v-298h389v298h94v-718h-94v319h-389v-319h-94v718z" />
    <glyph glyph-name="uni041E" unicode="&#x41e;" horiz-adv-x="796" 
d="M398 730l1 -4q74 0 137 -28q64 -28 114 -78t78 -117q29 -69 29 -147t-29 -147q-28 -67 -78 -117t-114 -78q-63 -28 -135 -28t-139 29q-65 28 -115 78q-49 49 -78 117q-29 69 -29 147t29 148q28 68 78 118q49 49 114 78q66 29 137 29zM400 624l-1 -3q-55 0 -104 -20
q-47 -19 -84 -56q-36 -36 -57 -85q-21 -50 -21 -108t21 -108q21 -49 57 -85q35 -35 84 -55q47 -19 104 -19q54 0 103 20q50 20 83 55q36 37 56 85q21 50 21 110q0 59 -21 108q-21 50 -55 85q-35 36 -83 56q-49 20 -103 20z" />
    <glyph glyph-name="uni041F" unicode="&#x41f;" horiz-adv-x="747" 
d="M90 718h567v-718h-94v617h-379v-617h-94v718z" />
    <glyph glyph-name="uni0420" unicode="&#x420;" horiz-adv-x="546" 
d="M290 718h-2q48 0 90 -15q41 -15 72 -44q30 -29 48 -69t18 -90q0 -49 -16 -88q-17 -41 -46 -69q-30 -29 -72 -45q-41 -16 -91 -16h-107v-282h-94v718h200zM182 617v-235h122q49 0 82 33t33 85q0 24 -9 45q-9 22 -24 38q-14 16 -36 25q-21 9 -46 9h-122z" />
    <glyph glyph-name="uni0421" unicode="&#x421;" horiz-adv-x="700" 
d="M665 124l-2 -9q-17 -29 -42 -54t-61 -43q-35 -17 -79 -28q-41 -10 -93 -10q-71 0 -134 27q-64 27 -111 76t-76 117q-28 66 -28 152q0 85 28 153q29 70 76 117q48 48 111 75t135 27q48 0 92 -11q41 -10 77 -29q34 -18 60 -42q25 -24 39 -50l-29 -84q-34 51 -94 83
q-62 33 -139 33q-58 0 -106 -18q-46 -17 -82 -53q-35 -35 -54 -84q-19 -48 -19 -113q0 -64 19 -112q19 -50 54 -84q35 -35 83 -53t106 -18q85 0 146 35t95 84z" />
    <glyph glyph-name="uni0422" unicode="&#x422;" horiz-adv-x="576" 
d="M15 718h546v-99h-226v-619h-94v619h-226v99z" />
    <glyph glyph-name="uni0423" unicode="&#x423;" horiz-adv-x="575" 
d="M27 718h104l166 -373l150 373h105l-287 -718h-106l89 223z" />
    <glyph glyph-name="uni0424" unicode="&#x424;" horiz-adv-x="796" 
d="M351 74h-3q-68 2 -125 24q-58 23 -98 60t-64 90q-24 52 -24 117t24 117t65 90t98 59q58 22 125 23v76h94v-76q67 -1 125 -23q57 -21 98 -59t65 -90t24 -117t-24 -117q-24 -53 -64 -90t-98 -60q-57 -23 -124 -24v-85h-94v85zM658 365l-1 -2q0 47 -16 80q-17 35 -45 59
q-29 25 -69 38q-41 14 -87 15v-381q46 2 87 15q41 14 69 37q28 24 45 59q17 36 17 80zM131 363l-1 1q0 -44 17 -80q17 -35 45 -59q27 -23 68 -37q39 -13 86 -15v381q-47 -2 -86 -15q-41 -14 -68 -37q-28 -24 -45 -59q-16 -33 -16 -80z" />
    <glyph glyph-name="uni0425" unicode="&#x425;" horiz-adv-x="635" 
d="M140 0h-120l239 372l-224 346h115l166 -258l166 258h119l-224 -346l238 -372h-114l-181 281z" />
    <glyph glyph-name="uni0426" unicode="&#x426;" horiz-adv-x="797" 
d="M90 718h94v-617h370v617h94v-617h99v-255h-90v154h-567v718z" />
    <glyph glyph-name="uni0427" unicode="&#x427;" horiz-adv-x="587" 
d="M149 718l-2 -187q0 -72 35 -102q34 -30 104 -30q38 0 62 4q26 4 55 12v303h94v-718h-94v312q-32 -8 -64 -12q-29 -4 -70 -4t-82 11q-38 10 -69 35q-29 23 -46 60t-17 89v227h94z" />
    <glyph glyph-name="uni0428" unicode="&#x428;" horiz-adv-x="968" 
d="M90 718h94v-617h252v617h94v-617h254v617h94v-718h-788v718z" />
    <glyph glyph-name="uni0429" unicode="&#x429;" horiz-adv-x="1027" 
d="M90 718h94v-617h252v617h94v-617h254v617h94v-617h99v-255h-90v154h-797v718z" />
    <glyph glyph-name="uni042A" unicode="&#x42a;" horiz-adv-x="629" 
d="M169 0v617h-151v101h245v-282h111q50 0 91 -16q42 -16 72 -45q31 -29 47 -69q17 -42 17 -88q0 -50 -18 -90t-48 -69q-31 -29 -72 -44q-42 -15 -90 -15h-204zM389 101v-1q25 0 46 9q22 9 36 25q15 16 24 38q9 21 9 45q0 52 -33 85t-82 33h-126v-234h126z" />
    <glyph glyph-name="uni042B" unicode="&#x42b;" horiz-adv-x="794" 
d="M610 718h94v-718h-94v718zM290 0h-2q48 0 90 15q41 15 72 44q30 29 48 69t18 90q0 49 -16 88q-17 41 -46 69q-30 29 -72 45q-41 16 -91 16h-107v282h-94v-718h200zM182 101v234h122q49 0 82 -33t33 -85q0 -24 -9 -45q-9 -20 -24 -37q-14 -16 -36 -25q-21 -9 -46 -9h-122z
" />
    <glyph glyph-name="uni042C" unicode="&#x42c;" horiz-adv-x="546" 
d="M288 0h2h-200v718h94v-282h107q50 0 91 -16q42 -16 72 -45q29 -28 46 -69q16 -39 16 -88q0 -50 -18 -90t-48 -69q-31 -29 -72 -44q-42 -15 -90 -15zM182 335v-234h122q25 0 46 9q22 9 36 25q15 17 24 37q9 21 9 45q0 52 -33 85t-82 33h-122z" />
    <glyph glyph-name="uni042D" unicode="&#x42d;" horiz-adv-x="703" 
d="M306 90l-1 1q53 0 98 15q44 15 79 45q34 29 55 72q21 42 27 98h-330v101h328q-16 98 -84 153q-67 55 -172 55q-78 0 -139 -33t-94 -82l-29 84q14 26 39 50t60 42q36 19 77 29q44 11 92 11q72 0 135 -27t111 -75q47 -47 76 -117q28 -68 28 -153q0 -86 -28 -152
q-29 -68 -76 -117t-111 -76q-63 -27 -134 -27q-48 0 -92 11q-40 10 -78 29q-37 19 -63 43t-43 54l28 84q34 -49 95 -84q59 -34 146 -34z" />
    <glyph glyph-name="uni042E" unicode="&#x42e;" horiz-adv-x="1064" 
d="M666 730l-2 -2q74 0 137 -28q65 -28 114 -78t78 -117q29 -69 29 -147t-29 -147q-29 -67 -78 -117t-114 -78q-63 -28 -135 -28q-70 0 -130 25q-62 26 -110 69q-47 42 -79 104q-31 60 -39 132h-126v-319h-94v718h94v-298h129q10 67 42 124q31 56 80 99t108 65q61 23 125 23
zM665 626l-1 -3q-55 0 -104 -20q-47 -19 -84 -56q-36 -36 -57 -85q-21 -50 -21 -108t21 -108q21 -49 57 -85q35 -35 84 -55q47 -19 104 -19q54 0 103 20q50 20 83 55q36 37 56 85q21 49 21 110q0 59 -21 108q-21 50 -55 85q-35 36 -83 56q-49 20 -103 20z" />
    <glyph glyph-name="uni042F" unicode="&#x42f;" horiz-adv-x="558" 
d="M468 0l-95 -3v298h-69l-162 -298h-111l169 310q-67 19 -106 69t-39 129q0 53 18 92q18 38 50 66q33 28 70 41q40 14 80 14h195v-718zM258 614l-3 2q-25 0 -44 -9t-33 -24q-13 -15 -21 -35q-8 -21 -8 -44q0 -48 31 -78q32 -30 78 -30h115v218h-115z" />
    <glyph glyph-name="uni0430" unicode="&#x430;" horiz-adv-x="551" 
d="M383 177l1 -4q-12 22 -48 32q-38 11 -77 11q-57 0 -88 -18t-31 -49q0 -30 30 -48t89 -18q22 0 39 4q20 5 36 12t30 18q13 10 19 22v38zM75 420h-1q28 39 78 63q49 24 109 24q100 0 157 -51t57 -144v-315h-88v44q-9 -14 -25 -24q-16 -11 -36 -18q-20 -8 -40 -12
q-19 -4 -42 -4q-88 0 -142 42t-54 119q0 39 15 69t42 51q28 22 63 32q38 11 78 11q16 0 36 -3q26 -4 38 -7q19 -5 35 -12q15 -7 28 -18v24q0 30 -11 54q-10 21 -29 37q-17 14 -42 22q-22 7 -51 7q-49 0 -87 -19q-40 -20 -62 -51z" />
    <glyph glyph-name="uni0431" unicode="&#x431;" horiz-adv-x="621" 
d="M527 654l-4 -5q-21 -18 -50 -31q-24 -11 -57 -19q-40 -10 -60 -14t-58 -14q-45 -12 -72 -31q-29 -20 -45 -43t-22 -51q-6 -27 -6 -57q16 28 39 46q21 16 47 28q25 11 50 14t48 3q50 0 92 -18q44 -19 74 -49q31 -31 49 -75t18 -96q0 -54 -19 -99q-20 -47 -52 -81
q-33 -34 -78 -54q-46 -20 -97 -20q-59 0 -107 21q-49 21 -83 63t-54 105q-19 61 -19 147q0 65 10 116q10 52 32 96q21 41 56 72q35 30 84 48q29 10 62 18q21 5 65 15q35 8 65 18q31 11 60 27zM316 80v-2q34 0 65 11q30 11 51 30t33 47q12 27 12 62q0 32 -12 61t-33 48
t-51 30q-31 11 -66 11q-27 0 -51 -7q-27 -8 -48 -22q-22 -15 -40 -37t-27 -51q1 -43 15 -76t36 -57q23 -24 52 -36q30 -12 64 -12z" />
    <glyph glyph-name="uni0432" unicode="&#x432;" horiz-adv-x="513" 
d="M272 499h-3q73 0 120 -36t47 -99q0 -32 -9 -57q-9 -26 -34 -45q68 -33 68 -118q0 -32 -13 -58t-36 -46q-22 -20 -54 -30q-30 -10 -67 -10h-209v499h190zM306 95q28 0 44 15q17 15 17 41q0 25 -18 39q-19 14 -43 14h-136v-109h136zM286 298l-2 -2q26 0 42 15t16 38
q0 27 -17 41t-39 14h-116v-106h116z" />
    <glyph glyph-name="uni0433" unicode="&#x433;" horiz-adv-x="429" 
d="M394 499v-97h-221v-402h-91v499h312z" />
    <glyph glyph-name="uni0434" unicode="&#x434;" horiz-adv-x="633" 
d="M79 97v2q18 27 36 63t33 81t24 101t9 123v32h331v-402h83v-230h-87v133h-391v-133h-87v230h49zM421 99l-2 306h-156q-3 -54 -12 -102t-21 -87q-11 -35 -26 -69q-14 -30 -24 -48h241z" />
    <glyph glyph-name="uni0435" unicode="&#x435;" horiz-adv-x="574" 
d="M312 85l-3 5q25 0 47 6q24 6 44 15q20 8 37 21q17 12 27 24l24 -71q-8 -17 -24 -33q-17 -17 -40 -30q-24 -14 -54 -21q-32 -8 -65 -8q-55 0 -103 18q-47 18 -82 51q-34 33 -54 81q-19 47 -19 108q0 51 17 100q16 48 48 84q31 36 77 57q45 21 102 21q53 0 97 -21t74 -57
q31 -37 47 -84t16 -100q0 -16 -3 -34h-382q8 -66 54 -99t118 -33zM426 313l-2 -3q-2 22 -12 42q-10 18 -29 34t-42 23q-26 8 -51 8t-52 -8q-26 -7 -45 -21t-33 -33q-13 -19 -16 -42h282z" />
    <glyph glyph-name="uni0436" unicode="&#x436;" horiz-adv-x="779" 
d="M435 288l197 211h117l-224 -241l248 -258h-127l-211 222v-222h-91v222l-211 -222h-127l248 258l-224 241h117l197 -211v211h91v-211z" />
    <glyph glyph-name="uni0437" unicode="&#x437;" horiz-adv-x="476" 
d="M223 85l-5 -3q54 0 80 19q27 19 27 45q0 28 -24 44q-25 17 -69 17h-66v97h57q38 0 60 14q21 14 21 42q0 23 -22 38t-60 15q-36 0 -69 -13q-35 -14 -69 -45l-24 73q26 35 69 59t102 24q39 0 69 -10q33 -11 54 -28q24 -19 35 -43q12 -26 12 -57q0 -37 -15 -66t-42 -42
q80 -32 80 -125q0 -35 -16 -63q-17 -29 -43 -48q-27 -19 -63 -30q-38 -11 -75 -11q-61 0 -105 22q-46 23 -74 63l24 74q51 -62 151 -62z" />
    <glyph glyph-name="uni0438" unicode="&#x438;" horiz-adv-x="612" 
d="M173 499v-349l266 349h91v-499h-91v349l-266 -349h-91v499h91z" />
    <glyph glyph-name="uni0439" unicode="&#x439;" horiz-adv-x="612" 
d="M173 499v-349l266 349h91v-499h-91v349l-266 -349h-91v499h91zM466 699l-2 -2q0 -31 -12 -58q-12 -26 -33 -46q-21 -19 -51 -30q-31 -11 -63 -11t-63 11q-30 11 -51 30q-21 20 -33 46q-12 27 -12 59l79 13q1 -24 23 -46q21 -21 58 -21t58 21q22 21 23 47z" />
    <glyph glyph-name="uni043A" unicode="&#x43a;" horiz-adv-x="545" 
d="M82 499h91v-210l221 210h124l-252 -241l276 -258h-135l-234 220v-220h-91v499z" />
    <glyph glyph-name="uni043B" unicode="&#x43b;" horiz-adv-x="594" 
d="M17 85v-2q35 5 59 19q26 15 44 56q19 42 29 114q11 74 15 195l1 32h348v-499h-91v402h-171l-1 -24q-8 -194 -54 -288t-132 -94q-20 0 -31 4z" />
    <glyph glyph-name="uni043C" unicode="&#x43c;" horiz-adv-x="762" 
d="M535 499h94l78 -499h-90l-55 330l-139 -330h-84l-136 332l-55 -332h-93l78 499h92l155 -367z" />
    <glyph glyph-name="uni043D" unicode="&#x43d;" horiz-adv-x="608" 
d="M173 499v-193h262v193h91v-499h-91v209h-262v-209h-91v499h91z" />
    <glyph glyph-name="uni043E" unicode="&#x43e;" 
d="M552 249v-1q0 -56 -21 -104q-22 -50 -55 -83q-34 -34 -80 -54q-44 -19 -96 -19q-49 0 -97 20q-47 20 -81 54t-54 83t-20 104t20 104t54 83t81 54q48 20 97 20q50 0 96 -20t80 -54q33 -33 55 -83q21 -48 21 -104zM139 248v-3q0 -37 12 -67q12 -31 34 -51q23 -21 51 -33
t63 -12q34 0 64 12q29 12 52 33q22 20 34 51q12 30 12 67q0 38 -12 68q-13 32 -34 53q-22 22 -52 34t-64 12q-35 0 -63 -12q-29 -12 -51 -34t-34 -52t-12 -66z" />
    <glyph glyph-name="uni043F" unicode="&#x43f;" horiz-adv-x="602" 
d="M520 499v-499h-91v402h-256v-402h-91v499h438z" />
    <glyph glyph-name="uni0440" unicode="&#x440;" horiz-adv-x="628" 
d="M580 249l-1 -1q0 -58 -21 -106q-20 -46 -56 -82q-34 -34 -81 -54q-45 -19 -97 -19q-59 0 -98 19q-41 20 -53 48v-267h-91v712h88v-53q12 29 54 47t99 18q54 0 99 -19q46 -20 81 -54q35 -35 56 -83t21 -106zM488 250v2q0 76 -46 119q-47 44 -123 44q-52 0 -94 -24
q-41 -24 -55 -60v-163q14 -36 55 -60q42 -24 94 -24q77 0 123 45t46 121z" />
    <glyph glyph-name="uni0441" unicode="&#x441;" horiz-adv-x="540" 
d="M492 75l-4 -6q-8 -17 -24 -32q-17 -16 -40 -27q-22 -11 -54 -19q-28 -7 -65 -7q-53 0 -98 19q-46 19 -82 54q-36 34 -57 83q-21 48 -21 107t21 107q21 49 57 83t83 54q45 19 98 19q36 0 64 -7q32 -8 54 -19q23 -11 40 -27q17 -15 24 -31l-24 -72q-21 24 -59 42
q-37 18 -81 18q-84 0 -135 -45t-51 -120q0 -36 14 -67q13 -29 38 -51q24 -21 58 -33t76 -12q46 0 84 18t59 42z" />
    <glyph glyph-name="uni0442" unicode="&#x442;" horiz-adv-x="493" 
d="M458 402h-166v-402h-91v402h-166v97h423v-97z" />
    <glyph glyph-name="uni0443" unicode="&#x443;" horiz-adv-x="547" 
d="M18 499h102l153 -367l152 367h101l-297 -712h-101l96 232z" />
    <glyph glyph-name="uni0444" unicode="&#x444;" horiz-adv-x="739" 
d="M139 248l-1 -1q0 -81 51 -120t134 -39v319q-41 0 -75 -9q-33 -9 -58 -29q-24 -20 -38 -50q-13 -29 -13 -71zM414 510v-3q62 -2 112 -19q52 -18 87 -52q37 -36 56 -82q20 -49 20 -108t-20 -108q-19 -46 -56 -82q-35 -34 -87 -52q-50 -17 -112 -19v-201h-91v201
q-62 2 -112 19q-52 18 -87 52q-37 36 -56 82q-20 49 -20 108t20 108q20 48 56 83q37 35 87 53q53 19 112 20v217h91v-217zM599 244l-1 1q0 42 -13 71q-14 30 -38 50q-25 20 -58 29q-35 9 -75 9v-319q83 0 134 39t51 120z" />
    <glyph glyph-name="uni0445" unicode="&#x445;" horiz-adv-x="519" 
d="M126 0h-112l188 265l-169 234h111l113 -158l114 158h113l-169 -235l190 -264h-110l-136 187z" />
    <glyph glyph-name="uni0446" unicode="&#x446;" horiz-adv-x="638" 
d="M513 -133v133h-431v499h91v-402h253v402h91v-402h83v-230h-87z" />
    <glyph glyph-name="uni0447" unicode="&#x447;" horiz-adv-x="515" 
d="M55 499l85 -2v-112q0 -61 27 -85t77 -24q21 0 49 5q24 4 45 17v199h91v-499h-91v198q-18 -7 -41 -12q-20 -4 -54 -4q-39 0 -72 10q-35 10 -60 33q-26 23 -41 59t-15 87v130z" />
    <glyph glyph-name="uni0448" unicode="&#x448;" horiz-adv-x="815" 
d="M82 0v499h91v-402h189v402h91v-402h189v402h91v-499h-651z" />
    <glyph glyph-name="uni0449" unicode="&#x449;" horiz-adv-x="854" 
d="M453 499v-402h189v402h91v-402h83v-230h-87v133h-647v499h91v-402h189v402h91z" />
    <glyph glyph-name="uni044A" unicode="&#x44a;" horiz-adv-x="581" 
d="M154 0l-2 400h-129v97h220v-149h102q42 0 75 -13q35 -14 60 -37q25 -24 40 -55t15 -69q0 -40 -15 -71t-40 -55q-26 -24 -60 -36t-74 -12h-192zM357 95v-1q37 0 60 23t23 57q0 35 -24 56t-59 21h-114v-156h114z" />
    <glyph glyph-name="uni044B" unicode="&#x44b;" horiz-adv-x="702" 
d="M529 499h91v-499h-91v499zM82 0l-2 497h91v-149h92q42 0 75 -13q35 -14 60 -37q25 -24 40 -55t15 -69q0 -40 -15 -71t-40 -55q-26 -24 -60 -36t-74 -12h-182zM275 95v-1q37 0 60 23t23 57q0 35 -24 56t-59 21h-104v-156h104z" />
    <glyph glyph-name="uni044C" unicode="&#x44c;" horiz-adv-x="509" 
d="M82 0l-2 497h91v-149h102q42 0 75 -13q35 -14 60 -37q25 -24 40 -55t15 -69q0 -40 -15 -71t-40 -55q-26 -24 -60 -36t-74 -12h-192zM285 95v-1q37 0 60 23t23 57q0 35 -24 56t-59 21h-114v-156h114z" />
    <glyph glyph-name="uni044D" unicode="&#x44d;" horiz-adv-x="540" 
d="M72 147h-3q19 -24 56 -43q36 -18 84 -18q73 0 122 30t63 95h-208v95h203q-17 58 -63 83q-47 26 -112 26q-44 0 -81 -18q-38 -18 -59 -42l-24 72q8 17 24 32q16 14 41 27q22 11 54 19q28 7 64 7q57 0 102 -19q47 -19 81 -54q34 -34 54 -83t20 -106q0 -58 -20 -107
q-19 -47 -54 -82q-34 -35 -81 -54q-45 -19 -102 -19q-34 0 -62 7q-32 8 -54 19q-24 12 -42 27q-17 15 -27 32z" />
    <glyph glyph-name="uni044E" unicode="&#x44e;" horiz-adv-x="810" 
d="M762 249v-3q0 -56 -21 -104q-22 -50 -55 -83q-34 -34 -80 -54q-44 -19 -96 -19q-48 0 -89 16q-43 17 -75 46q-33 30 -55 70q-23 40 -30 90h-88v-209h-91v499h91v-193h91q9 45 32 83t56 65t74 42q40 15 84 15q50 0 96 -20t80 -54q33 -33 55 -83q21 -48 21 -104zM349 246
v-3q0 -37 12 -67q12 -31 34 -51q23 -21 51 -33t63 -12q34 0 64 12q29 12 52 33q22 20 34 51q12 30 12 67q0 38 -12 68q-13 32 -34 53q-22 22 -52 34t-64 12q-35 0 -63 -12q-29 -12 -51 -34t-34 -52t-12 -66z" />
    <glyph glyph-name="uni044F" unicode="&#x44f;" horiz-adv-x="506" 
d="M424 499l1 -499h-91v155h-87l-107 -155h-104l118 171q-46 19 -75 60q-28 40 -28 96q0 39 15 71t39 54q25 23 57 35q33 12 72 12h190zM220 402l-1 -1q-36 0 -57 -21t-21 -54q0 -36 22 -55t57 -19h114v150h-114z" />
    <glyph glyph-name="uni0451" unicode="&#x451;" horiz-adv-x="574" 
d="M312 85l-3 5q25 0 47 6q24 6 44 15q20 8 37 21q17 12 27 24l24 -71q-8 -17 -24 -33q-17 -17 -40 -30q-24 -14 -54 -21q-32 -8 -65 -8q-55 0 -103 18q-47 18 -82 51q-34 33 -54 81q-19 47 -19 108q0 51 17 100q16 48 48 84q31 36 77 57q45 21 102 21q53 0 97 -21t74 -57
q31 -37 47 -84t16 -100q0 -16 -3 -34h-382q8 -66 54 -99t118 -33zM426 313l-2 -3q-2 22 -12 42q-10 18 -29 34t-42 23q-26 8 -51 8t-52 -8q-26 -7 -45 -21t-33 -33q-13 -19 -16 -42h282zM124 657l-3 -3q0 28 20 48t47 20q29 0 48 -19q20 -20 20 -48q0 -27 -19 -46t-48 -19
q-26 0 -46 20q-19 19 -19 47zM318 654l-3 -3q0 28 20 48t47 20q29 0 48 -19q20 -20 20 -48q0 -27 -19 -46t-48 -19q-26 0 -46 20q-19 19 -19 47z" />
    <glyph glyph-name="uni0452" unicode="&#x452;" horiz-adv-x="602" 
d="M437 260l-1 -4q0 33 -10 57q-10 25 -27 42t-39 26t-50 9q-25 0 -46 -7q-23 -8 -40 -19q-17 -12 -30 -29q-11 -15 -16 -36v-301h-91v565h-80v92h80v71h91v-71h147v-92h-147v-141q10 28 45 48t88 20q41 0 79 -13q37 -13 70 -41q31 -27 51 -71q19 -42 19 -103v-328
q0 -159 -120 -159q-21 0 -46 9t-43 28l7 81q10 -9 24 -15t26 -6q35 0 47 21t12 62v305z" />
    <glyph glyph-name="uni0453" unicode="&#x453;" horiz-adv-x="429" 
d="M394 499v-97h-221v-402h-91v499h312zM361 728l-110 -148h-83l65 148h128z" />
    <glyph glyph-name="uni0454" unicode="&#x454;" horiz-adv-x="540" 
d="M469 147h-1l24 -74q-9 -17 -27 -32t-42 -27q-22 -11 -54 -19q-28 -7 -62 -7q-57 0 -102 19q-47 19 -81 54q-35 35 -54 82q-20 49 -20 107q0 57 20 106t54 83q34 35 81 54q45 19 102 19q36 0 64 -7q32 -8 54 -19q23 -11 40 -27q16 -15 24 -32l-24 -72q-21 24 -59 42
t-81 18q-65 0 -112 -26q-46 -25 -63 -83h203v-95h-208q14 -65 63 -95q50 -30 122 -30q48 0 84 18t55 43z" />
    <glyph glyph-name="uni0455" unicode="&#x455;" horiz-adv-x="424" 
d="M161 236l-2 -3q-52 27 -78 61q-27 34 -27 78q0 60 39 98q40 38 113 38q26 0 48 -6t41 -17t32 -24q14 -14 21 -25l-15 -81q-28 26 -60 41q-33 15 -68 15q-25 0 -43 -9t-18 -31q0 -21 15 -33q12 -10 41 -25l56 -30q58 -31 88 -64t30 -85q0 -32 -12 -59t-35 -47t-54 -30
q-33 -11 -72 -11q-30 0 -54 7q-26 8 -46 19t-36 29q-15 16 -24 36l22 75q29 -32 63 -50t84 -18q14 0 27 3t24 9q12 7 17 16q6 11 6 24q0 22 -19 38q-19 17 -51 33z" />
    <glyph glyph-name="uni0456" unicode="&#x456;" horiz-adv-x="254" 
d="M82 499h91v-499h-91v499zM61 661l-3 -3q0 28 20 48t47 20q29 0 48 -19q20 -20 20 -48q0 -27 -19 -46t-48 -19q-26 0 -46 20q-19 19 -19 47z" />
    <glyph glyph-name="uni0457" unicode="&#x457;" horiz-adv-x="254" 
d="M82 499h91v-499h-91v499zM-37 654l-3 -3q0 28 20 48t47 20q29 0 48 -19q20 -20 20 -48q0 -27 -19 -46t-48 -19q-26 0 -46 20q-19 19 -19 47zM157 651l-3 -3q0 28 20 48t47 20q29 0 48 -19q20 -20 20 -48q0 -27 -19 -46t-48 -19q-26 0 -46 20q-19 19 -19 47z" />
    <glyph glyph-name="uni0458" unicode="&#x458;" horiz-adv-x="260" 
d="M88 499h93v-565q0 -159 -120 -159q-21 0 -46 9t-43 28l7 81q11 -9 24 -15t26 -6q35 0 47 21t12 62v544zM69 661l-3 -3q0 28 20 48t47 20q29 0 48 -19q20 -20 20 -48q0 -27 -19 -46t-48 -19q-26 0 -46 20q-19 19 -19 47z" />
    <glyph glyph-name="uni0459" unicode="&#x459;" horiz-adv-x="798" 
d="M249 378l-2 -4q-7 -194 -54 -288q-46 -94 -132 -94q-20 0 -31 4l-16 85q35 5 59 19q26 15 44 56q19 42 29 114q10 74 15 195l1 32h312v-149h88q42 0 75 -13q35 -14 60 -37q25 -24 40 -55t15 -69q0 -40 -15 -71t-40 -55t-60 -36t-74 -12h-178v402h-135zM574 93v-1
q37 0 60 23t23 57q0 35 -24 56t-59 21h-100v-156h100z" />
    <glyph glyph-name="uni045A" unicode="&#x45a;" horiz-adv-x="814" 
d="M401 0l-2 206h-228v-208h-91v499h91v-192h228v192h91v-149h88q42 0 75 -13q35 -14 60 -37q25 -24 40 -55t15 -69q0 -40 -15 -71t-40 -55t-60 -36t-74 -12h-178zM590 95v-1q37 0 60 23t23 57q0 35 -24 56t-59 21h-100v-156h100z" />
    <glyph glyph-name="uni045B" unicode="&#x45b;" horiz-adv-x="602" 
d="M437 0l-3 256q0 33 -10 57q-10 25 -27 42t-39 26t-50 9q-25 0 -46 -7q-23 -8 -40 -19q-17 -12 -30 -29q-11 -15 -16 -36v-301h-91v565h-80v92h80v71h91v-71h147v-92h-147v-141q10 28 45 48t88 20q41 0 79 -13q37 -13 70 -41q31 -27 51 -71q19 -42 19 -103v-262h-91z" />
    <glyph glyph-name="uni045C" unicode="&#x45c;" horiz-adv-x="545" 
d="M82 499h91v-210l221 210h124l-252 -241l276 -258h-135l-234 220v-220h-91v499zM417 728l-110 -148h-83l65 148h128z" />
    <glyph glyph-name="uni045E" unicode="&#x45e;" horiz-adv-x="547" 
d="M18 499h102l153 -367l152 367h101l-297 -712h-101l96 232zM428 699l-2 -2q0 -31 -12 -58q-12 -26 -33 -46q-21 -19 -51 -30q-31 -11 -63 -11t-63 11q-30 11 -51 30q-21 20 -33 46q-12 27 -12 59l79 13q1 -24 23 -46q21 -21 58 -21t58 21q22 21 23 47z" />
    <glyph glyph-name="uni045F" unicode="&#x45f;" horiz-adv-x="599" 
d="M343 0v-133h-87v133h-174v499h91v-402h253v402h91v-499h-174z" />
    <glyph glyph-name="uni0490" unicode="&#x490;" horiz-adv-x="488" 
d="M90 718h258v154h90v-255h-254v-617h-94v718z" />
    <glyph glyph-name="uni0491" unicode="&#x491;" horiz-adv-x="429" 
d="M307 499v133h87v-230h-221v-402h-91v499h225z" />
    <glyph glyph-name="uni0492" unicode="&#x492;" horiz-adv-x="510" 
d="M112 309h-100v101h100v308h348v-101h-254v-207h197v-101h-197v-309h-94v309z" />
    <glyph glyph-name="uni0493" unicode="&#x493;" horiz-adv-x="451" 
d="M416 499v-97h-221v-117h163v-93h-163v-192h-91v192h-74v93h74v214h312z" />
    <glyph glyph-name="uni049A" unicode="&#x49a;" horiz-adv-x="671" 
d="M90 718h94v-314l290 314h124l-321 -349l258 -268h106v-255h-90v154h-51l-316 325v-325h-94v718z" />
    <glyph glyph-name="uni049B" unicode="&#x49b;" horiz-adv-x="559" 
d="M266 258l172 -161h92v-230h-87v133h-36l-234 220v-220h-91v499h91v-210l221 210h124z" />
    <glyph glyph-name="uni04A2" unicode="&#x4a2;" horiz-adv-x="816" 
d="M90 718h94v-298h389v298h94v-617h99v-255h-90v154h-103v319h-389v-319h-94v718z" />
    <glyph glyph-name="uni04A3" unicode="&#x4a3;" horiz-adv-x="647" 
d="M609 97v-230h-87v133h-87v209h-262v-209h-91v499h91v-193h262v193h91v-402h83z" />
    <glyph glyph-name="uni04AE" unicode="&#x4ae;" horiz-adv-x="558" 
d="M8 718h106l163 -307l164 307h109l-223 -419v-299h-94v299z" />
    <glyph glyph-name="uni04AF" unicode="&#x4af;" horiz-adv-x="539" 
d="M315 -213h-91v207l-204 505h97l151 -381l151 381h100l-204 -505v-207z" />
    <glyph glyph-name="uni04B0" unicode="&#x4b0;" horiz-adv-x="558" 
d="M90 312h136l-218 406h106l163 -307l164 307h109l-216 -406h133v-101h-140v-211h-94v211h-143v101z" />
    <glyph glyph-name="uni04B1" unicode="&#x4b1;" horiz-adv-x="539" 
d="M315 -213h-91v213h-135v97h93l-162 402h97l151 -381l151 381h100l-163 -402h94v-97h-135v-213z" />
    <glyph glyph-name="uni04BA" unicode="&#x4ba;" horiz-adv-x="587" 
d="M438 0l-1 185q0 72 -34 102q-35 30 -103 30q-37 0 -61 -4q-26 -4 -55 -12v-303h-94v718h94v-312q32 8 64 12q29 4 70 4t82 -11q40 -11 69 -34t46 -60t17 -88v-227h-94z" />
    <glyph glyph-name="uni04BB" unicode="&#x4bb;" horiz-adv-x="598" 
d="M306 511l-3 -4q41 0 79 -13q37 -13 70 -41q31 -27 51 -71q19 -42 19 -103v-282h-91v280q0 33 -10 57q-11 26 -27 42q-17 17 -39 26q-23 9 -50 9q-25 0 -46 -7q-23 -8 -40 -19q-17 -12 -30 -29q-11 -15 -16 -36v-321h-91v728h91v-284q11 29 45 48q35 20 88 20z" />
    <glyph glyph-name="uni04D8" unicode="&#x4d8;" horiz-adv-x="785" 
d="M643 413l-6 1q-10 57 -35 98q-23 39 -59 67q-35 27 -78 39t-91 12q-75 0 -141 -30t-108 -87l-29 84q18 32 47 56t66 42t81 27t90 9q74 0 139 -25q68 -26 116 -73q50 -49 80 -117q30 -69 30 -158q0 -80 -27 -147t-75 -117t-111 -78q-62 -28 -136 -28q-80 0 -147 29
q-66 28 -112 79q-47 51 -72 120q-25 68 -25 150v24q0 11 2 23h601zM389 91l1 1q43 0 83 12q39 12 75 38q35 26 59 68q25 43 32 104h-503q6 -66 31 -108q26 -44 61 -69q36 -25 78 -36q40 -10 83 -10z" />
    <glyph glyph-name="uni04D9" unicode="&#x4d9;" horiz-adv-x="574" 
d="M268 511l-1 -4q55 0 102 -18t81 -51t54 -81q20 -49 20 -108q0 -51 -17 -100q-17 -48 -48 -84t-77 -57q-45 -21 -102 -21q-51 0 -96 20q-43 19 -73 55q-31 37 -47 85q-17 51 -17 110q0 17 1 24q2 11 3 18h378q-10 55 -51 85q-40 30 -109 30q-101 0 -158 -66l-22 75
q9 19 27 36q17 15 42 28q24 12 53 18t57 6zM143 204v-2q0 -52 36 -87q37 -35 99 -35q32 0 59 9t47 26q19 16 31 39q13 23 14 50h-286z" />
    <glyph glyph-name="uni04E8" unicode="&#x4e8;" horiz-adv-x="796" 
d="M398 730l-3 -3q75 0 140 -28q66 -29 114 -78q49 -50 77 -117q28 -66 28 -147q0 -83 -28 -149q-29 -68 -76 -117q-48 -50 -113 -77t-138 -27q-76 0 -141 28q-66 29 -114 78q-47 49 -76 117q-28 66 -28 147t28 149q28 67 77 118q48 49 113 78q63 28 140 28zM396 87l-2 -3
q49 0 94 15q43 14 79 44q35 29 57 70q23 43 29 95h-519q8 -52 30 -93t57 -69q35 -29 80 -44t95 -15zM394 622l-2 -2q-50 0 -93 -15q-45 -15 -78 -43q-35 -29 -57 -67q-23 -39 -30 -88h516q-8 50 -30 89q-23 40 -57 68q-33 28 -78 43q-43 15 -91 15z" />
    <glyph glyph-name="uni04E9" unicode="&#x4e9;" 
d="M552 249v-3q0 -57 -20 -106q-19 -47 -54 -82q-34 -34 -81 -54q-45 -19 -99 -19t-99 19q-47 20 -81 54t-54 83t-20 106t20 106t54 83t81 54q48 20 99 20q54 0 99 -19q47 -19 81 -54q35 -35 54 -82q20 -49 20 -106zM300 82l-1 -2q60 0 104 32q43 31 54 92h-314
q10 -59 54 -91q43 -31 103 -31zM299 409q-57 0 -100 -30q-44 -30 -54 -85h308q-13 55 -55 85t-99 30z" />
    <glyph glyph-name="uni1E02" unicode="&#x1e02;" horiz-adv-x="578" 
d="M271 718l-2 -2q51 0 90 -13q41 -14 69 -37q29 -24 45 -61q16 -36 16 -85q0 -47 -17 -81t-45 -56q44 -21 72 -64t28 -109q0 -52 -16 -90q-17 -40 -46 -66t-70 -40q-42 -14 -88 -14h-217v718h181zM182 314l-2 -213h142q21 0 42 8q20 7 33 21q14 14 23 33t9 42q0 20 -8 41
q-8 20 -21 35q-14 15 -33 24q-20 9 -44 9h-141zM180 617v-201h110q46 0 74 27q29 27 29 73q0 44 -28 72q-29 29 -75 29h-110zM205 845l-3 -3q0 28 20 48t47 20q29 0 48 -19q20 -20 20 -48q0 -27 -19 -46t-48 -19q-26 0 -46 20q-19 19 -19 47z" />
    <glyph glyph-name="uni1E03" unicode="&#x1e03;" horiz-adv-x="656" 
d="M580 250l2 -1q0 -58 -21 -106q-21 -49 -57 -83q-36 -35 -82 -54q-45 -19 -99 -19q-57 0 -99 18t-54 47v-53h-88v728h91v-283q12 28 53 48q39 19 98 19q53 0 98 -19q46 -20 81 -54q36 -36 56 -82q21 -48 21 -106zM491 247v2q0 76 -46 121q-47 45 -123 45q-52 0 -94 -24
q-41 -24 -55 -60v-163q14 -36 55 -60q42 -24 94 -24q76 0 123 44q46 43 46 119zM272 814l-3 -3q0 28 20 48t47 20q29 0 48 -19q20 -20 20 -48q0 -27 -19 -46t-48 -19q-26 0 -46 20q-19 19 -19 47z" />
    <glyph glyph-name="uni1E0A" unicode="&#x1e0a;" horiz-adv-x="737" 
d="M602 359l-3 1q0 56 -19 101q-20 47 -52 81q-33 34 -80 54q-48 20 -102 20h-163v-516h163q54 0 101 18q46 18 81 53t54 82q20 49 20 106zM309 719v-3q85 0 155 -24q71 -24 122 -69q52 -46 80 -112q29 -69 29 -153t-29 -151q-28 -65 -81 -112q-52 -46 -123 -70
q-70 -24 -153 -24h-222v718h222zM270 844l-3 -3q0 28 20 48t47 20q29 0 48 -19q20 -20 20 -48q0 -27 -19 -46t-48 -19q-26 0 -46 20q-19 19 -19 47z" />
    <glyph glyph-name="uni1E0B" unicode="&#x1e0b;" horiz-adv-x="568" 
d="M37 250l1 -2q0 58 21 106t56 83t81 54q45 19 98 19q59 0 98 -19q41 -20 53 -48v283h91v-728h-87v53q-12 -28 -54 -46t-99 -18q-54 0 -99 19q-46 19 -82 54q-36 34 -57 83q-21 48 -21 107zM129 246v-2q0 -76 46 -119q47 -44 123 -44q52 0 94 24q41 24 55 60v163
q-14 36 -55 60q-42 24 -94 24q-76 0 -123 -45q-46 -45 -46 -121zM239 809l-3 -3q0 28 20 48t47 20q29 0 48 -19q20 -20 20 -48q0 -27 -19 -46t-48 -19q-26 0 -46 20q-19 19 -19 47z" />
    <glyph glyph-name="uni1E1E" unicode="&#x1e1e;" horiz-adv-x="488" 
d="M90 718h348v-101h-254v-197h234v-101h-234v-319h-94v718zM198 846l-3 -3q0 28 20 48t47 20q29 0 48 -19q20 -20 20 -48q0 -27 -19 -46t-48 -19q-26 0 -46 20q-19 19 -19 47z" />
    <glyph glyph-name="uni1E1F" unicode="&#x1e1f;" horiz-adv-x="429" 
d="M388 603v-3q-14 17 -36 29t-51 12q-34 0 -58 -21t-24 -64v-58h172v-97h-172v-402h-91v402h-92v97h92v70q0 38 9 69t29 54t49 36t69 13t72 -16q34 -17 47 -42zM206 849l-3 -3q0 28 20 48t47 20q29 0 48 -19q20 -20 20 -48q0 -27 -19 -46t-48 -19q-26 0 -46 20
q-19 19 -19 47z" />
    <glyph glyph-name="uni1E40" unicode="&#x1e40;" horiz-adv-x="947" 
d="M690 718h101l96 -718h-93l-75 548l-198 -548h-92l-202 548l-70 -548h-97l95 718h101l216 -581zM402 846l-3 -3q0 28 20 48t47 20q29 0 48 -19q20 -20 20 -48q0 -27 -19 -46t-48 -19q-26 0 -46 20q-19 19 -19 47z" />
    <glyph glyph-name="uni1E41" unicode="&#x1e41;" horiz-adv-x="925" 
d="M307 511l5 -5q49 0 90 -19t73 -63q27 38 69 60q41 22 104 22q39 0 75 -13q39 -14 68 -40q30 -27 48 -69t18 -100v-290h-91v286q0 31 -9 55q-8 22 -26 40q-16 16 -39 25q-22 9 -48 9q-24 0 -44 -7q-23 -8 -39 -19q-17 -12 -30 -29q-11 -15 -16 -36v-322h-91v286
q0 31 -9 55q-8 22 -26 40q-16 16 -39 25q-22 9 -48 9q-24 0 -44 -7q-23 -8 -39 -19q-17 -12 -30 -29q-11 -15 -16 -36v-321h-91v499h88v-55q10 28 47 48t90 20zM410 650l-3 -3q0 28 20 48t47 20q29 0 48 -19q20 -20 20 -48q0 -27 -19 -46t-48 -19q-26 0 -46 20
q-19 19 -19 47z" />
    <glyph glyph-name="uni1E56" unicode="&#x1e56;" horiz-adv-x="546" 
d="M290 718h-2q48 0 90 -15q41 -15 72 -44q30 -29 48 -69t18 -90q0 -49 -16 -88q-17 -41 -46 -69q-30 -29 -72 -45q-41 -16 -91 -16h-107v-282h-94v718h200zM182 617v-235h122q49 0 82 33t33 85q0 24 -9 45q-9 22 -24 38q-14 16 -36 25q-21 9 -46 9h-122zM207 845l-3 -3
q0 28 20 48t47 20q29 0 48 -19q20 -20 20 -48q0 -27 -19 -46t-48 -19q-26 0 -46 20q-19 19 -19 47z" />
    <glyph glyph-name="uni1E57" unicode="&#x1e57;" horiz-adv-x="656" 
d="M580 249l-1 -1q0 -58 -21 -106q-20 -46 -56 -82q-34 -34 -81 -54q-45 -19 -97 -19q-59 0 -98 19q-41 20 -53 48v-267h-91v712h88v-53q12 29 54 47t99 18q54 0 99 -19q46 -20 81 -54q35 -35 56 -83t21 -106zM488 250v2q0 76 -46 119q-47 44 -123 44q-52 0 -94 -24
q-41 -24 -55 -60v-163q14 -36 55 -60q42 -24 94 -24q77 0 123 45t46 121zM253 656l-3 -3q0 28 20 48t47 20q29 0 48 -19q20 -20 20 -48q0 -27 -19 -46t-48 -19q-26 0 -46 20q-19 19 -19 47z" />
    <glyph glyph-name="uni1E60" unicode="&#x1e60;" horiz-adv-x="489" 
d="M353 356h-7q20 -17 40 -39q17 -19 30 -41q13 -23 20 -45t7 -52q0 -43 -15 -77t-42 -60t-64 -39q-39 -14 -84 -14q-36 0 -72 11q-33 10 -63 29q-27 17 -49 39q-20 20 -28 42l29 96q33 -52 84 -84q52 -32 108 -32q51 0 75 24t24 62q0 28 -17 54t-42 45q-86 72 -104 87
q-43 37 -65 60q-32 34 -51 68q-18 33 -18 74q0 37 14 68q13 29 38 51q24 21 59 33q34 12 75 12q28 0 58 -8q28 -7 52 -21q25 -14 42 -31q18 -18 29 -38l-21 -94q-28 37 -72 64q-43 27 -90 27q-35 0 -59 -15t-24 -50q0 -26 19 -49q19 -24 39 -39q12 -10 33 -26t29 -23
q24 -19 39 -33q13 -12 26 -21q11 -7 18 -15zM168 846l-3 -3q0 28 20 48t47 20q29 0 48 -19q20 -20 20 -48q0 -27 -19 -46t-48 -19q-26 0 -46 20q-19 19 -19 47z" />
    <glyph glyph-name="uni1E61" unicode="&#x1e61;" horiz-adv-x="424" 
d="M161 236l-2 -3q-52 27 -78 61q-27 34 -27 78q0 60 39 98q40 38 113 38q26 0 48 -6t41 -17t32 -24q14 -14 21 -25l-15 -81q-28 26 -60 41q-33 15 -68 15q-25 0 -43 -9t-18 -31q0 -21 15 -33q12 -10 41 -25l56 -30q58 -31 88 -64t30 -85q0 -32 -12 -59t-35 -47t-54 -30
q-33 -11 -72 -11q-30 0 -54 7q-26 8 -46 19t-36 29q-15 16 -24 36l22 75q29 -32 63 -50t84 -18q14 0 27 3t24 9q12 7 17 16q6 11 6 24q0 22 -19 38q-19 17 -51 33zM138 652l-3 -3q0 28 20 48t47 20q29 0 48 -19q20 -20 20 -48q0 -27 -19 -46t-48 -19q-26 0 -46 20
q-19 19 -19 47z" />
    <glyph glyph-name="uni1E6A" unicode="&#x1e6a;" horiz-adv-x="576" 
d="M15 718h546v-99h-226v-619h-94v619h-226v99zM222 846l-3 -3q0 28 20 48t47 20q29 0 48 -19q20 -20 20 -48q0 -27 -19 -46t-48 -19q-26 0 -46 20q-19 19 -19 47z" />
    <glyph glyph-name="uni1E6B" unicode="&#x1e6b;" horiz-adv-x="440" 
d="M392 51v-1q-14 -26 -45 -44t-76 -18q-150 0 -150 169v245h-90v28l153 195h28v-126h175v-97h-175v-229q0 -48 20 -68t60 -20q28 0 48 11q20 10 33 27zM162 777l-3 -3q0 28 20 48t47 20q29 0 48 -19q20 -20 20 -48q0 -27 -19 -46t-48 -19q-26 0 -46 20q-19 19 -19 47z" />
    <glyph glyph-name="Wgrave" unicode="&#x1e80;" horiz-adv-x="1020" 
d="M716 177l178 541h106l-238 -718h-94l-160 566l-156 -566h-94l-238 718h100l181 -541l154 541h102zM483 910l65 -138h-87l-110 138h132z" />
    <glyph glyph-name="wgrave" unicode="&#x1e81;" horiz-adv-x="858" 
d="M593 126l143 373h103l-197 -499h-93l-120 377l-120 -377h-93l-197 499h97l143 -373l119 373h96zM410 728l65 -148h-83l-110 148h128z" />
    <glyph glyph-name="Wacute" unicode="&#x1e82;" horiz-adv-x="1020" 
d="M716 177l178 541h106l-238 -718h-94l-160 566l-156 -566h-94l-238 718h100l181 -541l154 541h102zM661 910l-110 -138h-87l65 138h132z" />
    <glyph glyph-name="wacute" unicode="&#x1e83;" horiz-adv-x="858" 
d="M593 126l143 373h103l-197 -499h-93l-120 377l-120 -377h-93l-197 499h97l143 -373l119 373h96zM581 728l-110 -148h-83l65 148h128z" />
    <glyph glyph-name="Wdieresis" unicode="&#x1e84;" horiz-adv-x="1020" 
d="M716 177l178 541h106l-238 -718h-94l-160 566l-156 -566h-94l-238 718h100l181 -541l154 541h102zM341 846h-1q0 28 20 48t48 20t48 -20t20 -48t-20 -48t-48 -20t-48 20q-19 19 -19 48zM541 846h-1q0 28 20 48t48 20t48 -20t20 -48t-20 -48t-48 -20t-48 20q-19 19 -19 48
z" />
    <glyph glyph-name="wdieresis" unicode="&#x1e85;" horiz-adv-x="858" 
d="M593 126l143 373h103l-197 -499h-93l-120 377l-120 -377h-93l-197 499h97l143 -373l119 373h96zM264 655l-3 -3q0 28 20 48t47 20q29 0 48 -19q20 -20 20 -48q0 -27 -19 -46t-48 -19q-26 0 -46 20q-19 19 -19 47zM458 652l-3 -3q0 28 20 48t47 20q29 0 48 -19
q20 -20 20 -48q0 -27 -19 -46t-48 -19q-26 0 -46 20q-19 19 -19 47z" />
    <glyph glyph-name="Ygrave" unicode="&#x1ef2;" horiz-adv-x="558" 
d="M8 718h106l163 -307l164 307h109l-223 -419v-299h-94v299zM265 910l65 -138h-87l-110 138h132z" />
    <glyph glyph-name="ygrave" unicode="&#x1ef3;" horiz-adv-x="547" 
d="M18 499h102l153 -367l152 367h101l-297 -712h-101l96 232zM253 728l65 -148h-83l-110 148h128z" />
    <glyph glyph-name="endash" unicode="&#x2013;" horiz-adv-x="603" 
d="M50 318h503v-87h-503v87z" />
    <glyph glyph-name="emdash" unicode="&#x2014;" horiz-adv-x="938" 
d="M50 318h838v-87h-838v87z" />
    <glyph glyph-name="quoteleft" unicode="&#x2018;" horiz-adv-x="289" 
d="M167 600l2 -2q17 -4 30 -18q14 -14 14 -42t-19 -46q-20 -18 -48 -18q-29 0 -48 19t-19 48q0 23 8 42q7 18 18 36l61 109h60z" />
    <glyph glyph-name="quoteright" unicode="&#x2019;" horiz-adv-x="289" 
d="M122 604l-3 1q-17 5 -30 18q-14 14 -14 42q0 29 19 47q20 18 48 18q29 0 48 -19q20 -20 20 -48q0 -26 -7 -41q-11 -23 -19 -38l-61 -108h-60z" />
    <glyph glyph-name="quotesinglbase" unicode="&#x201a;" horiz-adv-x="289" 
d="M122 -2l-3 1q-17 5 -30 18q-14 14 -14 42q0 29 19 47q20 18 48 18q29 0 48 -19q20 -20 20 -48q0 -26 -7 -41q-11 -23 -19 -38l-61 -108h-60z" />
    <glyph glyph-name="quotedblleft" unicode="&#x201c;" horiz-adv-x="472" 
d="M350 600v-2q16 -4 30 -18t14 -42t-19 -46t-48 -18t-48 19t-19 48q0 23 8 41q7 15 20 38l61 108h60zM167 598v-2q17 -4 30 -18q14 -14 14 -42t-19 -46q-20 -18 -48 -18q-29 0 -48 19t-19 48q0 23 8 41q7 15 20 38l61 108h60z" />
    <glyph glyph-name="quotedblright" unicode="&#x201d;" horiz-adv-x="472" 
d="M122 604l-3 1q-17 5 -30 18q-14 14 -14 42q0 29 19 47q20 18 48 18q29 0 48 -19q20 -20 20 -48q0 -26 -7 -41q-11 -23 -19 -38l-61 -108h-60zM302 605l-3 1q-17 4 -30 18q-14 14 -14 42q0 29 19 47q20 18 48 18q29 0 48 -19q20 -20 20 -48q0 -26 -7 -41q-11 -23 -19 -38
l-61 -108h-60z" />
    <glyph glyph-name="quotedblbase" unicode="&#x201e;" horiz-adv-x="472" 
d="M122 -2l-3 1q-17 5 -30 18q-14 14 -14 42q0 29 19 47q20 18 48 18q29 0 48 -19q20 -20 20 -48q0 -26 -7 -41q-11 -23 -19 -38l-61 -108h-60zM302 -1l-3 1q-17 4 -30 18q-14 14 -14 42q0 29 19 47q20 18 48 18q29 0 48 -19q20 -20 20 -48q0 -26 -7 -41q-11 -23 -19 -38
l-61 -108h-60z" />
    <glyph glyph-name="dagger" unicode="&#x2020;" horiz-adv-x="592" 
d="M75 513h175v205h91v-205h176v-97h-176v-594h-91v594h-175v97z" />
    <glyph glyph-name="daggerdbl" unicode="&#x2021;" horiz-adv-x="592" 
d="M341 718v-205h176v-97h-176v-292h176v-97h-176v-205h-91v205h-175v97h175v292h-175v97h175v205h91z" />
    <glyph glyph-name="bullet" unicode="&#x2022;" horiz-adv-x="397" 
d="M198 410l-4 -4q30 0 53 -10q25 -11 42 -28q19 -19 29 -42q11 -25 11 -52q0 -28 -10 -51q-11 -25 -28 -42q-19 -19 -42 -29t-52 -10q-26 0 -51 11q-23 10 -42 29t-29 42t-10 51t11 53q10 23 29 42t42 29q25 11 51 11z" />
    <glyph glyph-name="ellipsis" unicode="&#x2026;" horiz-adv-x="799" 
d="M78 61q0 31 21 52t52 21q30 0 51 -21t21 -52t-21 -52t-51 -21q-31 0 -52 21t-21 52zM328 61q0 31 21 52t52 21q30 0 51 -21t21 -52t-21 -52t-51 -21q-31 0 -52 21t-21 52zM578 61q0 31 21 52t52 21q30 0 51 -21t21 -52t-21 -52t-51 -21q-31 0 -52 21t-21 52z" />
    <glyph glyph-name="perthousand" unicode="&#x2030;" horiz-adv-x="1294" 
d="M190 0l413 718h96l-413 -718h-96zM219 378l-2 -4q-36 0 -70 14q-32 13 -57 38q-23 23 -37 56q-13 30 -13 68t13 68q14 33 37 56q25 25 57 38q34 14 71 14t71 -14q32 -13 57 -38q24 -24 37 -55q13 -30 13 -67t-13 -67q-13 -31 -37 -55q-25 -25 -57 -38q-34 -14 -70 -14z
M217 636q-42 0 -66 -26t-24 -60t24 -60t66 -26t66 26t24 60t-24 60t-66 26zM668 -14l-2 -4q-36 0 -70 14q-32 13 -57 38q-23 23 -37 56q-13 30 -13 68t13 68q14 33 37 56q25 25 57 38q34 14 71 14t71 -14q32 -13 57 -38q23 -23 37 -55q13 -30 13 -67t-13 -67
q-14 -32 -37 -55q-25 -25 -57 -38q-34 -14 -70 -14zM666 244q-42 0 -66 -26t-24 -60t24 -60t66 -26t66 26t24 60t-24 60t-66 26zM1071 -18l-2 -4q-36 0 -70 14q-32 13 -57 38q-23 23 -37 56q-13 30 -13 68t13 68q14 33 37 56q25 25 57 38q34 14 71 14t71 -14q32 -13 57 -38
q24 -23 37 -55q13 -30 13 -67t-13 -67q-13 -31 -37 -55q-25 -25 -57 -38q-34 -14 -70 -14zM1069 240q-42 0 -66 -26t-24 -60t24 -60t66 -26t66 26t24 60t-24 60t-66 26z" />
    <glyph glyph-name="guilsinglleft" unicode="&#x2039;" horiz-adv-x="315" 
d="M260 88h-92l-133 178l133 178h92l-109 -178z" />
    <glyph glyph-name="guilsinglright" unicode="&#x203a;" horiz-adv-x="315" 
d="M147 88h-92l109 178l-109 178h92l133 -178z" />
    <glyph glyph-name="uni2042" unicode="&#x2042;" horiz-adv-x="854" 
d="M296 437l73 97l-114 35l20 64l115 -37v122h71v-122l115 37l21 -64l-114 -35l73 -97l-59 -45l-72 100l-70 -100zM78 34l73 97l-114 35l20 64l115 -37v122h71v-122l115 37l21 -64l-114 -35l73 -97l-59 -45l-72 100l-70 -100zM516 34l73 97l-114 35l20 64l115 -37v122h71
v-122l115 37l21 -64l-114 -35l73 -97l-59 -45l-72 100l-70 -100z" />
    <glyph glyph-name="fraction" unicode="&#x2044;" horiz-adv-x="173" 
d="M-85 0h-85l428 718h85z" />
    <glyph glyph-name="uni2051" unicode="&#x2051;" horiz-adv-x="416" 
d="M78 437l73 97l-114 35l20 64l115 -37v122h71v-122l115 37l21 -64l-114 -35l73 -97l-59 -45l-72 100l-70 -100zM78 34l73 97l-114 35l20 64l115 -37v122h71v-122l115 37l21 -64l-114 -35l73 -97l-59 -45l-72 100l-70 -100z" />
    <glyph glyph-name="n.superior" unicode="&#x207f;" horiz-adv-x="428" 
d="M229 636l-2 2q25 0 51 -9t45 -27t33 -45q13 -26 13 -64v-192h-78v179q0 36 -21 55q-20 19 -53 19q-29 0 -51 -15q-23 -15 -27 -37v-202h-78v328h78v-34q7 18 30 30t60 12z" />
    <glyph glyph-name="Euro" unicode="&#x20ac;" horiz-adv-x="605" 
d="M41 461l67 -4q12 64 38 117q25 49 62 85q36 35 78 51q43 17 87 17q70 0 117 -25q49 -26 77 -72l-32 -81q-26 36 -65 56q-40 20 -82 20q-70 0 -117 -40q-48 -41 -66 -127h292l-30 -75h-271q-1 -23 -1 -49q0 -12 2 -26h237l-30 -75h-194q21 -76 69 -110q49 -35 113 -35
q44 0 85 23q40 22 66 59l27 -83q-67 -100 -196 -100q-44 0 -84 15t-75 47q-33 31 -61 78q-26 45 -40 108h-108l34 75h62q-1 7 -1 26q0 27 1 50h-95z" />
    <glyph glyph-name="uni20B4" unicode="&#x20b4;" horiz-adv-x="530" 
d="M46 481l271 -3q17 15 30 36q14 22 14 44q0 35 -24 50t-58 15q-44 0 -84 -22q-41 -23 -69 -60l-20 87q24 40 69 69q44 28 101 28q39 0 72 -12t57 -33q25 -22 38 -51q14 -31 14 -68q0 -23 -7 -43q-8 -22 -19 -40h39v-75h-106q-9 -10 -32 -31q-9 -9 -41 -36h179v-75h-261
q-18 -18 -31 -42q-12 -23 -12 -47q0 -37 24 -61t75 -24q50 0 100 26q49 25 81 77l29 -91q-11 -21 -28 -39q-17 -19 -44 -36q-25 -16 -59 -27q-31 -10 -73 -10q-43 0 -82 14q-37 13 -64 39t-42 60t-15 77q0 25 6 46q7 24 16 41h-44v75h107q24 22 35 32q17 16 41 35h-183v75z
" />
    <glyph glyph-name="uni20B8" unicode="&#x20b8;" horiz-adv-x="547" 
d="M50 566h447v-101h-176v-465h-94v465h-177v101zM50 718h447v-82h-447v82z" />
    <glyph glyph-name="uni20BD" unicode="&#x20bd;" horiz-adv-x="585" 
d="M35 383h83v335h204q48 0 90 -15q41 -15 72 -44q30 -29 48 -69t18 -90q0 -49 -16 -88q-17 -41 -46 -69q-30 -29 -72 -45q-41 -16 -91 -16h-111v-70h201v-82h-201v-130h-94v130h-85v82h85v70h-85v101zM212 617v-235h126q49 0 82 33t33 85q0 24 -9 45q-9 22 -24 38
q-14 16 -36 25q-21 9 -46 9h-126z" />
    <glyph glyph-name="uni2113" unicode="&#x2113;" horiz-adv-x="417" 
d="M253 85l-1 -1q28 0 48 11t35 26l18 -76q-13 -22 -43 -40t-76 -18q-78 0 -117 45t-39 126v408q0 86 42 129q42 44 111 44q33 0 60 -12t47 -35q19 -22 30 -53t11 -67q0 -43 -18 -91q-17 -46 -47 -96q-28 -46 -66 -91q-36 -42 -77 -75v-43q0 -46 22 -68q23 -23 60 -23z
M170 345l-1 -3q21 21 43 51q24 33 38 58q16 30 27 60q10 29 10 56q0 35 -15 54q-15 20 -41 20q-31 0 -46 -20q-15 -19 -15 -54v-222z" />
    <glyph glyph-name="uni2116" unicode="&#x2116;" horiz-adv-x="1159" 
d="M763 241v88h308v-88h-308zM917 728l-1 -3q39 0 69 -13q31 -14 54 -36q23 -23 35 -53t12 -64t-12 -64t-34 -52q-22 -23 -54 -36q-30 -13 -69 -13q-34 0 -67 14q-32 14 -54 36q-23 23 -35 53t-12 64q0 35 12 65t35 53q22 23 54 36q30 13 67 13zM916 481h-2q40 0 62 24
q23 25 23 55q0 32 -22 54q-23 23 -61 23q-37 0 -60 -23t-23 -54q0 -30 23 -55q22 -24 60 -24zM87 715h102l383 -564v564h94v-718h-102l-383 561v-561h-94v718z" />
    <glyph glyph-name="uni2117" unicode="&#x2117;" horiz-adv-x="822" 
d="M411 730l-1 -2q75 0 144 -29q68 -29 118 -79q52 -52 80 -118q29 -69 29 -144t-29 -144q-28 -68 -79 -118t-118 -79q-69 -29 -144 -29t-144 29q-67 28 -117 80q-50 51 -78 118q-29 69 -29 144t29 144q28 67 78 118q50 52 117 80q69 29 144 29zM410 44l-1 -2q67 0 124 25
q58 25 102 68q43 42 69 99q25 56 25 121t-25 121t-69 100t-102 68q-59 24 -124 24t-123 -24q-59 -24 -102 -67q-44 -44 -69 -100t-25 -121q0 -63 26 -121q26 -57 69 -99q43 -41 102 -67q57 -25 123 -25zM389 575v-1q29 0 55 -9q25 -9 44 -26q19 -18 29 -40q11 -25 11 -52
q0 -29 -10 -52q-10 -22 -29 -40q-19 -17 -44 -26t-56 -9h-50v-157h-72v412h122zM339 496v-101h61q24 0 40 13t16 37q0 21 -15 36t-41 15h-61z" />
    <glyph glyph-name="trademark" unicode="&#x2122;" horiz-adv-x="812" 
d="M19 718h281v-73h-106v-275h-68v275h-107v73zM646 718h70l48 -348h-67l-30 215l-83 -215h-63l-82 215l-29 -215h-72l49 348h69l96 -240z" />
    <glyph glyph-name="Omega" unicode="&#x2126;" horiz-adv-x="810" 
d="M405 730v-2q77 0 143 -29q64 -29 111 -78t72 -117q26 -69 26 -144q0 -50 -10 -90q-10 -41 -27 -76q-16 -33 -36 -58q-21 -26 -37 -35h117v-101h-272v81q35 17 67 45q31 26 54 62q23 34 36 78q13 42 13 93q0 57 -18 106q-19 51 -52 86q-35 36 -82 57q-48 21 -105 21
t-105 -21q-47 -21 -82 -57q-34 -35 -52 -85t-18 -106q0 -51 13 -93q13 -43 36 -78q23 -36 54 -62q32 -28 67 -45v-81h-272v101h117q-16 9 -37 35q-19 23 -36 59q-17 35 -27 76q-10 40 -10 90q0 75 26 144q25 68 72 117t111 78q66 29 143 29z" />
    <glyph glyph-name="estimated" unicode="&#x212e;" horiz-adv-x="785" 
d="M142 305l4 -4q10 -55 35 -97q23 -39 59 -67q34 -27 78 -39t91 -12q75 0 141 30t108 87l29 -84q-17 -30 -47 -55q-28 -24 -66 -42t-81 -27t-90 -9q-74 0 -139 25q-68 26 -116 73q-49 47 -79 117q-30 69 -30 158q0 79 27 147t75 117t111 78q62 28 136 28q82 0 147 -28
q66 -28 112 -79q47 -51 72 -120q25 -68 25 -150v-24q0 -17 -1 -23h-601zM394 624l-2 -3q-42 0 -83 -12q-39 -12 -75 -38q-33 -24 -58 -68q-25 -43 -32 -103h503q-6 66 -31 108q-26 44 -61 69q-36 25 -78 36q-44 11 -83 11z" />
    <glyph glyph-name="onethird" unicode="&#x2153;" horiz-adv-x="770" 
d="M190 0h-85l428 718h85zM41 625l98 76h59v-395h-76v290l-81 -52v81zM590 74l-2 -5q31 0 49 15t18 39q0 21 -18 35q-19 14 -46 14q-16 0 -28 -3q-10 -2 -19 -8l-13 58l73 90h-116v83h222v-59l-77 -89q15 -3 35 -11q19 -8 33 -22q15 -15 24 -36t9 -51q0 -29 -10 -52
q-10 -24 -30 -42q-21 -19 -46 -29q-26 -10 -60 -10q-24 0 -44 6q-21 6 -35 15q-16 10 -26 21q-10 12 -15 23l17 72q35 -54 105 -54z" />
    <glyph glyph-name="twothirds" unicode="&#x2154;" horiz-adv-x="840" 
d="M260 0h-85l428 718h85zM152 626h-4q-29 0 -48 -16q-20 -16 -33 -36l-33 53q4 13 15 28q10 14 26 27t35 20q21 8 45 8q32 0 55 -10q24 -10 39 -27q16 -18 23 -37q8 -22 8 -44q0 -43 -21 -76t-58 -73l-50 -55h140v-82h-257v65l116 122q27 27 40 48q12 19 12 39q0 19 -14 33
q-13 13 -36 13zM656 74l-2 -5q31 0 49 15t18 39q0 21 -18 35q-19 14 -46 14q-16 0 -28 -3q-10 -2 -19 -8l-13 58l73 90h-116v83h222v-59l-77 -89q15 -3 35 -11q19 -8 33 -22q15 -15 24 -36t9 -51q0 -29 -10 -52q-10 -24 -30 -42q-21 -19 -46 -29q-26 -10 -60 -10
q-24 0 -44 6q-21 6 -35 15q-16 10 -26 21q-10 12 -15 23l17 72q35 -54 105 -54z" />
    <glyph glyph-name="oneeighth" unicode="&#x215b;" horiz-adv-x="777" 
d="M190 0h-85l428 718h85zM41 625l98 76h59v-395h-76v290l-81 -52v81zM686 206l-2 -5q22 -14 36 -37q15 -24 15 -55q0 -27 -10 -48q-10 -22 -29 -39q-19 -18 -43 -26q-25 -9 -54 -9t-54 9q-24 8 -43 26q-19 17 -29 39q-10 21 -10 48q0 31 15 55q14 23 36 37q-15 10 -27 32
q-12 21 -12 47t9 47t26 38t39 26q23 9 51 9t51 -9t39 -25q18 -18 26 -37q9 -21 9 -46t-12 -46q-12 -20 -27 -31zM597 315h-1q-22 0 -36 -12q-13 -12 -13 -28q0 -15 14 -27q13 -12 36 -12t36 12t13 27q0 16 -13 28t-36 12zM596 69l-1 -2q25 0 42 14t17 33q0 20 -16 33
q-17 14 -42 14q-26 0 -42 -13q-17 -14 -17 -33t17 -33q16 -13 42 -13z" />
    <glyph glyph-name="threeeighths" unicode="&#x215c;" horiz-adv-x="828" 
d="M241 0h-85l428 718h85zM737 206l-2 -5q22 -14 36 -37q15 -24 15 -55q0 -27 -10 -48q-10 -22 -29 -39q-19 -18 -43 -26q-26 -9 -54 -9t-54 9q-24 8 -43 26q-19 17 -29 39q-10 21 -10 48q0 31 15 55q14 23 36 37q-15 10 -27 32q-12 21 -12 47t9 47t26 38t39 26t51 9t51 -9
q23 -9 39 -25q18 -18 26 -37q9 -21 9 -46t-12 -46q-12 -20 -27 -31zM648 315h-1q-23 0 -36 -12t-13 -28q0 -15 14 -27t36 -12t36 12q13 12 13 27q0 16 -13 28q-14 12 -36 12zM647 69l-1 -2q25 0 42 14t17 33q0 20 -16 33q-17 14 -42 14q-26 0 -42 -13q-17 -14 -17 -33
t17 -33q16 -13 42 -13zM147 373l-2 -5q31 0 49 15t18 39q0 21 -18 35q-19 14 -46 14q-16 0 -28 -3q-10 -2 -19 -8l-13 58l73 90h-116v83h222v-59l-77 -89q15 -3 35 -11q19 -8 33 -22q15 -15 24 -36t9 -51q0 -29 -10 -52q-11 -24 -30 -42q-21 -19 -46 -29q-26 -10 -60 -10
q-25 0 -44 6q-21 6 -35 15q-16 10 -26 21q-10 12 -15 23l17 72q34 -54 105 -54z" />
    <glyph glyph-name="fiveeighths" unicode="&#x215d;" horiz-adv-x="833" 
d="M246 0h-85l428 718h85zM223 431l-3 1q0 24 -18 36t-40 12q-16 0 -33 -3q-16 -3 -27 -14l-52 15l20 224h204v-83h-143l-6 -60q8 2 24 4q9 1 21 1q29 0 52 -10q24 -10 42 -27q17 -15 28 -41q10 -23 10 -52q0 -28 -11 -55q-10 -25 -30 -43q-19 -17 -45 -28q-24 -10 -55 -10
q-51 0 -82 21q-32 21 -39 43l19 72q13 -26 39 -39q26 -14 57 -14q26 0 47 12t21 38zM739 207l-2 -5q22 -14 36 -37q15 -24 15 -55q0 -27 -10 -48q-10 -22 -29 -39q-19 -18 -43 -26q-26 -9 -54 -9t-54 9q-24 8 -43 26q-19 17 -29 39q-10 21 -10 48q0 31 15 55q14 23 36 37
q-15 10 -27 32q-12 21 -12 47t9 47t26 38t39 26t51 9t51 -9q23 -9 39 -25q18 -18 26 -37q9 -21 9 -46t-12 -46q-12 -20 -27 -31zM650 316h-1q-23 0 -36 -12t-13 -28q0 -15 14 -27t36 -12t36 12q13 12 13 27q0 16 -13 28q-14 12 -36 12zM649 70l-1 -2q25 0 42 14t17 33
q0 20 -16 33q-17 14 -42 14q-26 0 -42 -13q-17 -14 -17 -33t17 -33q16 -13 42 -13z" />
    <glyph glyph-name="seveneighths" unicode="&#x215e;" horiz-adv-x="754" 
d="M167 0h-85l428 718h85zM663 206l-2 -5q22 -14 36 -37q15 -24 15 -55q0 -27 -10 -48q-10 -22 -29 -39q-19 -18 -43 -26q-26 -9 -54 -9t-54 9q-24 8 -43 26q-19 17 -29 39q-10 21 -10 48q0 31 15 55q14 23 36 37q-15 10 -27 32q-12 21 -12 47t9 47t26 38t39 26t51 9t51 -9
q23 -9 39 -25q18 -18 26 -37q9 -21 9 -46t-12 -46q-12 -20 -27 -31zM574 315h-1q-23 0 -36 -12t-13 -28q0 -15 14 -27t36 -12t36 12q13 12 13 27q0 16 -13 28q-14 12 -36 12zM573 69l-1 -2q25 0 42 14t17 33q0 20 -16 33q-17 14 -42 14q-26 0 -42 -13q-17 -14 -17 -33
t17 -33q16 -13 42 -13zM187 611h-156v83h246v-59l-147 -336h-80z" />
    <glyph glyph-name="arrowleft" unicode="&#x2190;" horiz-adv-x="713" 
d="M289 485v-170h364v-83h-364v-170l-249 211z" />
    <glyph glyph-name="arrowup" unicode="&#x2191;" horiz-adv-x="503" 
d="M463 386h-170v-362h-83v362h-170l212 250z" />
    <glyph glyph-name="arrowright" unicode="&#x2192;" horiz-adv-x="713" 
d="M424 315v170l249 -212l-249 -211v170h-364v83h364z" />
    <glyph glyph-name="arrowdown" unicode="&#x2193;" horiz-adv-x="503" 
d="M293 285h170l-211 -250l-212 250h170v362h83v-362z" />
    <glyph glyph-name="uni2196" unicode="&#x2196;" horiz-adv-x="577" 
d="M60 570l328 -26l-122 -122l256 -256l-58 -59l-257 257l-121 -120z" />
    <glyph glyph-name="uni2197" unicode="&#x2197;" horiz-adv-x="577" 
d="M189 544l328 26l-26 -326l-121 120l-257 -257l-58 59l256 256z" />
    <glyph glyph-name="uni2198" unicode="&#x2198;" horiz-adv-x="577" 
d="M388 127l-328 -26l26 326l121 -120l257 257l58 -59l-256 -256z" />
    <glyph glyph-name="uni2199" unicode="&#x2199;" horiz-adv-x="577" 
d="M517 101l-328 26l122 122l-256 256l58 59l257 -257l121 120z" />
    <glyph glyph-name="partialdiff" unicode="&#x2202;" horiz-adv-x="591" 
d="M250 730l-7 -1q63 0 115 -28q54 -29 89 -82q36 -54 57 -130q21 -77 21 -172q0 -81 -19 -141q-20 -62 -52 -103t-78 -64q-44 -22 -98 -22q-49 0 -91 18t-74 50t-50 75q-18 44 -18 93t18 90t48 69t72 45q41 16 91 16q46 0 90 -15t69 -45q-11 121 -63 186q-53 65 -128 65
q-37 0 -64 -12q-26 -11 -43 -24l-19 76q8 10 21 21q14 11 31 18q18 7 39 12q23 5 43 5zM278 84l-2 -3q30 0 57 12t47 35t32 53q13 31 14 68q-20 48 -61 71q-42 24 -88 24q-31 0 -58 -9q-26 -9 -46 -27q-19 -18 -30 -42q-11 -25 -11 -52q0 -29 11 -54t30 -41q21 -18 46 -26
q27 -9 59 -9z" />
    <glyph glyph-name="Delta" unicode="&#x2206;" horiz-adv-x="645" 
d="M634 0h-625q11 28 33 89.5t34 92.5l66 177l66 177q12 31 34 92.5t33 89.5h95zM503 96l-181 502l-182 -502h363z" />
    <glyph glyph-name="product" unicode="&#x220f;" horiz-adv-x="651" 
d="M561 718v-718h-94v619h-283v-619h-94v718h471z" />
    <glyph glyph-name="summation" unicode="&#x2211;" horiz-adv-x="563" 
d="M513 99v-99h-481v77l245 296l-235 268v77h453v-99h-315l215 -245l-232 -275h350z" />
    <glyph glyph-name="minus" unicode="&#x2212;" horiz-adv-x="539" 
d="M60 248v93h419v-93h-419z" />
    <glyph glyph-name="uni2215" unicode="&#x2215;" horiz-adv-x="513" 
d="M85 0h-85l428 718h85z" />
    <glyph glyph-name="uni2219" unicode="&#x2219;" horiz-adv-x="299" 
d="M78 325q0 31 21 52t52 21q30 0 51 -21t21 -52t-21 -52t-51 -21q-31 0 -52 21t-21 52z" />
    <glyph glyph-name="radical" unicode="&#x221a;" horiz-adv-x="681" 
d="M657 815l-263 -815h-93l-154 402h-119v97h177l137 -371l217 687h98z" />
    <glyph glyph-name="infinity" unicode="&#x221e;" horiz-adv-x="807" 
d="M575 142l-3 1q-32 0 -57 9t-47 23q-21 14 -38 32q-16 18 -30 36q-13 -20 -28 -36q-16 -18 -37 -31q-23 -15 -48 -23q-27 -9 -58 -9q-36 0 -66 13q-31 13 -55 36q-23 21 -37 56q-14 34 -14 73t14 73q13 32 38 57q24 23 55 37q30 13 66 13q32 0 57 -9q26 -9 47 -24
q22 -16 38 -33q16 -18 30 -36q13 20 28 36q18 20 37 32q23 15 48 23q27 9 59 9q36 0 66 -13q32 -13 55 -37q25 -25 38 -57q14 -34 14 -73t-14 -73q-14 -35 -37 -56q-24 -23 -55 -36q-30 -13 -66 -13zM230 232l-2 -2q20 0 39 8q17 7 33 20q12 10 28 29q14 17 24 33
q-12 18 -24 32q-18 20 -28 29q-15 13 -33 21q-19 8 -39 8q-19 0 -34 -7q-16 -8 -28 -19t-19 -28q-7 -15 -7 -34q0 -18 8 -36q7 -15 20 -28q12 -11 28 -19q15 -7 34 -7zM570 408l-1 -3q-20 0 -39 -8q-18 -7 -33 -21q-15 -13 -28 -28q-15 -16 -24 -31q11 -17 24 -33
q11 -14 29 -28q16 -13 33 -20q19 -8 39 -8q19 0 34 7q16 7 28 19q11 12 19 28q7 15 7 36q0 20 -7 35q-8 18 -19 29q-12 12 -28 19q-15 7 -34 7z" />
    <glyph glyph-name="integral" unicode="&#x222b;" horiz-adv-x="449" 
d="M174 575v-2q0 51 16 83q17 34 45 53q27 19 68 25q39 6 86 0v-96q-24 4 -48 1q-23 -3 -39 -13t-27 -30q-10 -19 -10 -46v-613q0 -51 -16 -83t-45 -52q-27 -19 -68 -25q-39 -6 -86 0v96q24 -4 48 -1q22 3 39 14q17 10 27 30q10 19 10 46v613z" />
    <glyph glyph-name="approxequal" unicode="&#x2248;" horiz-adv-x="552" 
d="M73 102h-3q-6 16 -9 30t-3 28q0 50 33 77t83 27q33 0 60 -13q28 -13 51 -27q24 -14 39 -20q19 -8 35 -8q21 0 35 12t14 34q0 11 -3 23h74q6 -17 9 -30q3 -14 3 -28q0 -50 -33 -77t-83 -27q-33 0 -60 13q-29 14 -51 27q-24 14 -39 20q-19 8 -34 8q-21 0 -34 -12t-13 -34
q0 -11 3 -23h-74zM70 325h-3q-6 17 -9 30t-3 28q0 50 33 77t83 27q33 0 60 -13q29 -14 51 -27q24 -14 39 -20q19 -8 35 -8q22 0 35 12q14 12 14 34q0 11 -3 23h74q6 -16 9 -30q3 -13 3 -28q0 -50 -33 -77t-83 -27q-33 0 -60 13q-28 13 -51 27q-24 14 -39 20q-19 8 -34 8
q-20 0 -34 -12q-13 -12 -13 -34q0 -11 3 -23h-74z" />
    <glyph glyph-name="notequal" unicode="&#x2260;" horiz-adv-x="539" 
d="M237 145l-57 -111h-92l57 111h-85v93h134l58 113h-192v93h241l58 112h92l-58 -112h86v-93h-135l-58 -113h193v-93h-242z" />
    <glyph glyph-name="equivalence" unicode="&#x2261;" horiz-adv-x="539" 
d="M60 341h419v-93h-419v93zM60 136h419v-93h-419v93zM60 546h419v-93h-419v93z" />
    <glyph glyph-name="lessequal" unicode="&#x2264;" horiz-adv-x="539" 
d="M60 0v93h419v-93h-419zM185 372l294 -109v-95l-419 158v92l419 158v-95z" />
    <glyph glyph-name="greaterequal" unicode="&#x2265;" horiz-adv-x="539" 
d="M60 0v93h419v-93h-419zM60 481v95l419 -158v-92l-419 -158v95l294 109z" />
    <glyph glyph-name="uni2460" unicode="&#x2460;" horiz-adv-x="822" 
d="M411 730l-1 -2q75 0 144 -29q68 -29 118 -79q52 -52 80 -118q29 -69 29 -144t-29 -144q-28 -68 -79 -118t-118 -79q-69 -29 -144 -29t-144 29q-67 28 -117 80q-50 51 -78 118q-29 69 -29 144t29 144q28 67 78 118q50 52 117 80q69 29 144 29zM410 44l-1 -2q67 0 124 25
q58 25 102 68q43 42 69 99q25 56 25 121t-25 121t-69 100t-102 68q-59 24 -124 24t-123 -24q-59 -24 -102 -67q-44 -44 -69 -100t-25 -121q0 -63 26 -121q26 -57 69 -99q43 -41 102 -67q57 -25 123 -25zM301 482l98 76h59v-395h-76v290l-81 -52v81z" />
    <glyph glyph-name="uni2461" unicode="&#x2461;" horiz-adv-x="822" 
d="M411 730l-1 -2q75 0 144 -29q68 -29 118 -79q52 -52 80 -118q29 -69 29 -144t-29 -144q-28 -68 -79 -118t-118 -79q-69 -29 -144 -29t-144 29q-67 28 -117 80q-50 51 -78 118q-29 69 -29 144t29 144q28 67 78 118q50 52 117 80q69 29 144 29zM410 44l-1 -2q67 0 124 25
q58 25 102 68q43 42 69 99q25 56 25 121t-25 121t-69 100t-102 68q-59 24 -124 24t-123 -24q-59 -24 -102 -67q-44 -44 -69 -100t-25 -121q0 -63 26 -121q26 -57 69 -99q43 -41 102 -67q57 -25 123 -25zM400 483h-4q-29 0 -48 -16q-20 -17 -33 -36l-33 53q4 13 15 28
q10 14 26 27t35 20q21 8 45 8q32 0 55 -10q24 -11 39 -27q16 -18 23 -37q8 -22 8 -44q0 -43 -21 -76t-58 -73l-50 -55h140v-82h-257v65l116 122q27 27 40 48q12 20 12 39t-14 33q-13 13 -36 13z" />
    <glyph glyph-name="uni2462" unicode="&#x2462;" horiz-adv-x="822" 
d="M411 730l-1 -2q75 0 144 -29q68 -29 118 -79q52 -52 80 -118q29 -69 29 -144t-29 -144q-28 -68 -79 -118t-118 -79q-69 -29 -144 -29t-144 29q-67 28 -117 80q-50 51 -78 118q-29 69 -29 144t29 144q28 67 78 118q50 52 117 80q69 29 144 29zM410 44l-1 -2q67 0 124 25
q58 25 102 68q43 42 69 99q25 56 25 121t-25 121t-69 100t-102 68q-59 24 -124 24t-123 -24q-59 -24 -102 -67q-44 -44 -69 -100t-25 -121q0 -63 26 -121q26 -57 69 -99q43 -41 102 -67q57 -25 123 -25zM400 237l-2 -5q31 0 49 15t18 39q0 22 -18 35q-19 14 -46 14
q-16 0 -28 -3q-10 -2 -19 -8l-13 58l73 90h-116v83h222v-59l-77 -89q15 -3 35 -11q19 -8 33 -22q15 -15 24 -36t9 -51q0 -29 -10 -52q-10 -24 -30 -42q-21 -19 -46 -29q-26 -10 -60 -10q-24 0 -44 6q-21 6 -35 15q-16 10 -26 21q-10 12 -15 23l17 72q35 -54 105 -54z" />
    <glyph glyph-name="uni2463" unicode="&#x2463;" horiz-adv-x="822" 
d="M411 730l-1 -2q75 0 144 -29q68 -29 118 -79q52 -52 80 -118q29 -69 29 -144t-29 -144q-28 -68 -79 -118t-118 -79q-69 -29 -144 -29t-144 29q-67 28 -117 80q-50 51 -78 118q-29 69 -29 144t29 144q28 67 78 118q50 52 117 80q69 29 144 29zM410 44l-1 -2q67 0 124 25
q58 25 102 68q43 42 69 99q25 56 25 121t-25 121t-69 100t-102 68q-59 24 -124 24t-123 -24q-59 -24 -102 -67q-44 -44 -69 -100t-25 -121q0 -63 26 -121q26 -57 69 -99q43 -41 102 -67q57 -25 123 -25zM412 558h69v-206h46v-80h-46v-109h-76v109h-157v65zM405 352v95
l-70 -95h70z" />
    <glyph glyph-name="uni2464" unicode="&#x2464;" horiz-adv-x="822" 
d="M411 730l-1 -2q75 0 144 -29q68 -29 118 -79q52 -52 80 -118q29 -69 29 -144t-29 -144q-28 -68 -79 -118t-118 -79q-69 -29 -144 -29t-144 29q-67 28 -117 80q-50 51 -78 118q-29 69 -29 144t29 144q28 67 78 118q50 52 117 80q69 29 144 29zM410 44l-1 -2q67 0 124 25
q58 25 102 68q43 42 69 99q25 56 25 121t-25 121t-69 100t-102 68q-59 24 -124 24t-123 -24q-59 -24 -102 -67q-44 -44 -69 -100t-25 -121q0 -63 26 -121q26 -57 69 -99q43 -41 102 -67q57 -25 123 -25zM465 288l-3 1q0 24 -18 36t-40 12q-16 0 -33 -3q-16 -3 -27 -14
l-52 15l20 224h204v-83h-143l-6 -60q8 2 24 4q9 1 21 1q29 0 52 -10q24 -11 42 -27q17 -15 28 -41q10 -23 10 -52q0 -28 -11 -55q-10 -25 -30 -43q-19 -17 -45 -28q-24 -10 -55 -10q-51 0 -82 21q-32 21 -39 43l19 72q13 -25 39 -39t57 -14q26 0 47 12t21 38z" />
    <glyph glyph-name="uni2465" unicode="&#x2465;" horiz-adv-x="822" 
d="M411 730l-1 -2q75 0 144 -29q68 -29 118 -79q52 -52 80 -118q29 -69 29 -144t-29 -144q-28 -68 -79 -118t-118 -79q-69 -29 -144 -29t-144 29q-67 28 -117 80q-50 51 -78 118q-29 69 -29 144t29 144q28 67 78 118q50 52 117 80q69 29 144 29zM410 44l-1 -2q67 0 124 25
q58 25 102 68q43 42 69 99q25 56 25 121t-25 121t-69 100t-102 68q-59 24 -124 24t-123 -24q-59 -24 -102 -67q-44 -44 -69 -100t-25 -121q0 -63 26 -121q26 -57 69 -99q43 -41 102 -67q57 -25 123 -25zM406 423v-3q28 0 53 -9q28 -10 47 -25q21 -16 33 -41q12 -24 12 -55
q0 -28 -12 -54q-12 -25 -31 -43q-20 -19 -45 -29q-24 -10 -54 -10q-28 0 -55 11q-26 11 -44 29q-19 19 -29 43t-10 54q0 36 13 63q14 30 30 53l96 151h85zM412 234q26 0 44 15t18 38q0 24 -17 39t-45 15q-26 0 -44 -15t-18 -39q0 -23 18 -38t44 -15z" />
    <glyph glyph-name="uni2466" unicode="&#x2466;" horiz-adv-x="822" 
d="M411 730l-1 -2q75 0 144 -29q68 -29 118 -79q52 -52 80 -118q29 -69 29 -144t-29 -144q-28 -68 -79 -118t-118 -79q-69 -29 -144 -29t-144 29q-67 28 -117 80q-50 51 -78 118q-29 69 -29 144t29 144q28 67 78 118q50 52 117 80q69 29 144 29zM410 44l-1 -2q67 0 124 25
q58 25 102 68q43 42 69 99q25 56 25 121t-25 121t-69 100t-102 68q-59 24 -124 24t-123 -24q-59 -24 -102 -67q-44 -44 -69 -100t-25 -121q0 -63 26 -121q26 -57 69 -99q43 -41 102 -67q57 -25 123 -25zM444 475h-156v83h246v-59l-147 -336h-80z" />
    <glyph glyph-name="uni2467" unicode="&#x2467;" horiz-adv-x="822" 
d="M411 730l-1 -2q75 0 144 -29q68 -29 118 -79q52 -52 80 -118q29 -69 29 -144t-29 -144q-28 -68 -79 -118t-118 -79q-69 -29 -144 -29t-144 29q-67 28 -117 80q-50 51 -78 118q-29 69 -29 144t29 144q28 67 78 118q50 52 117 80q69 29 144 29zM410 44l-1 -2q67 0 124 25
q58 25 102 68q43 42 69 99q25 56 25 121t-25 121t-69 100t-102 68q-59 24 -124 24t-123 -24q-59 -24 -102 -67q-44 -44 -69 -100t-25 -121q0 -63 26 -121q26 -57 69 -99q43 -41 102 -67q57 -25 123 -25zM487 369l-2 -5q22 -14 36 -37q15 -24 15 -55q0 -27 -10 -48
q-10 -22 -29 -39q-19 -18 -43 -26q-26 -9 -54 -9t-54 9q-24 8 -43 26q-19 17 -29 39q-10 21 -10 48q0 31 15 55q14 23 36 37q-15 10 -27 32q-12 21 -12 47t9 47t26 38t39 26t51 9t51 -9q23 -9 39 -25q18 -18 26 -37q9 -21 9 -46t-12 -46q-12 -20 -27 -31zM398 478h-1
q-23 0 -36 -12t-13 -28q0 -15 14 -27t36 -12t36 12q13 12 13 27q0 16 -13 28q-14 12 -36 12zM397 232l-1 -2q25 0 42 14t17 33q0 20 -16 33q-17 14 -42 14q-26 0 -42 -13q-17 -14 -17 -33t17 -33q16 -13 42 -13z" />
    <glyph glyph-name="uni2468" unicode="&#x2468;" horiz-adv-x="822" 
d="M411 730l-1 -2q75 0 144 -29q68 -29 118 -79q52 -52 80 -118q29 -69 29 -144t-29 -144q-28 -68 -79 -118t-118 -79q-69 -29 -144 -29t-144 29q-67 28 -117 80q-50 51 -78 118q-29 69 -29 144t29 144q28 67 78 118q50 52 117 80q69 29 144 29zM410 44l-1 -2q67 0 124 25
q58 25 102 68q43 42 69 99q25 56 25 121t-25 121t-69 100t-102 68q-59 24 -124 24t-123 -24q-59 -24 -102 -67q-44 -44 -69 -100t-25 -121q0 -63 26 -121q26 -57 69 -99q43 -41 102 -67q57 -25 123 -25zM416 298l-2 1q-27 0 -53 9t-46 25q-21 16 -33 41q-12 24 -12 55
q0 29 12 54t31 43q20 19 45 29q24 10 54 10q31 0 55 -10q27 -11 44 -28q19 -19 29 -43q11 -27 11 -54q0 -36 -13 -63q-14 -30 -30 -53l-96 -151h-85zM408 485h-1q-25 0 -43 -15t-18 -38q0 -24 17 -39t45 -15q26 0 44 15t18 39q0 23 -18 38t-44 15z" />
    <glyph glyph-name="lozenge" unicode="&#x25ca;" horiz-adv-x="566" 
d="M532 359l-199 -359h-100l-199 359l199 359h100zM434 359l-151 273l-151 -273l151 -274z" />
    <glyph glyph-name="circle" unicode="&#x25cb;" horiz-adv-x="822" 
d="M411 730l-1 -2q75 0 144 -29q68 -29 118 -79q52 -52 80 -118q29 -69 29 -144t-29 -144q-28 -68 -79 -118t-118 -79q-69 -29 -144 -29t-144 29q-67 28 -117 80q-50 51 -78 118q-29 69 -29 144t29 144q28 67 78 118q50 52 117 80q69 29 144 29zM410 44l-1 -2q67 0 124 25
q58 25 102 68q43 42 69 99q25 56 25 121t-25 121t-69 100t-102 68q-59 24 -124 24t-123 -24q-59 -24 -102 -67q-44 -44 -69 -100t-25 -121q0 -63 26 -121q26 -57 69 -99q43 -41 102 -67q57 -25 123 -25z" />
    <glyph glyph-name="H18533" unicode="&#x25cf;" horiz-adv-x="822" 
d="M411 730l-1 -2q75 0 144 -29q68 -29 118 -79q52 -52 80 -118q29 -69 29 -144t-29 -144q-28 -68 -79 -118t-118 -79q-69 -29 -144 -29t-144 29q-67 28 -117 80q-50 51 -78 118q-29 69 -29 144t29 144q28 67 78 118q50 52 117 80q69 29 144 29z" />
    <glyph glyph-name="a19" unicode="&#x2713;" horiz-adv-x="972" 
d="M957 656l-608 -656h-81l-253 285l71 67l224 -254l581 626z" />
    <glyph glyph-name="a21" unicode="&#x2715;" horiz-adv-x="821" 
d="M776 62l-68 -68l-297 298l-297 -298l-69 68l297 297l-297 298l69 67l297 -297l297 297l68 -67l-297 -298z" />
    <glyph glyph-name="uni2776" unicode="&#x2776;" horiz-adv-x="822" 
d="M411 730l-1 -2q75 0 144 -29q68 -29 118 -79q52 -52 80 -118q29 -69 29 -144t-29 -144q-28 -68 -79 -118t-118 -79q-69 -29 -144 -29t-144 29q-67 28 -117 80q-50 51 -78 118q-29 69 -29 144t29 144q28 67 78 118q50 52 117 80q69 29 144 29zM303 403l81 52v-290h76v395
h-59l-98 -76v-81z" />
    <glyph glyph-name="uni2777" unicode="&#x2777;" horiz-adv-x="822" 
d="M411 730l-1 -2q75 0 144 -29q68 -29 118 -79q52 -52 80 -118q29 -69 29 -144t-29 -144q-28 -68 -79 -118t-118 -79q-69 -29 -144 -29t-144 29q-67 28 -117 80q-50 51 -78 118q-29 69 -29 144t29 144q28 67 78 118q50 52 117 80q69 29 144 29zM402 485l1 -2q23 0 36 -13
q14 -14 14 -33t-12 -39q-13 -21 -40 -48l-116 -122v-65h257v82h-140l50 55q40 43 59 73q21 33 21 76q0 24 -7 44q-7 21 -23 38q-15 17 -39 27q-23 10 -55 10q-24 0 -45 -8q-19 -7 -35 -20q-14 -11 -25 -27q-11 -15 -15 -28l33 -53q13 20 33 36q20 17 48 17z" />
    <glyph glyph-name="uni2778" unicode="&#x2778;" horiz-adv-x="822" 
d="M411 730l-1 -2q75 0 144 -29q68 -29 118 -79q52 -52 80 -118q29 -69 29 -144t-29 -144q-28 -68 -79 -118t-118 -79q-69 -29 -144 -29t-144 29q-67 28 -117 80q-50 51 -78 118q-29 69 -29 144t29 144q28 67 78 118q50 52 117 80q69 29 144 29zM402 239l-2 -1
q-70 0 -105 54l-17 -72q4 -10 15 -22q10 -11 26 -21q14 -9 35 -15q19 -6 44 -6q32 0 60 11q27 10 47 29q19 18 30 42q11 25 11 53q0 30 -9 51t-24 36q-16 16 -33 23q-21 9 -34 11l77 89v59h-222v-83h116l-73 -90l13 -58q9 6 19 8q12 3 28 3q30 0 47 -13q18 -13 18 -34
q0 -24 -18 -39t-49 -15z" />
    <glyph glyph-name="uni2779" unicode="&#x2779;" horiz-adv-x="822" 
d="M411 730l-1 -2q75 0 144 -29q68 -29 118 -79q52 -52 80 -118q29 -69 29 -144t-29 -144q-28 -68 -79 -118t-118 -79q-69 -29 -144 -29t-144 29q-67 28 -117 80q-50 51 -78 118q-29 69 -29 144t29 144q28 67 78 118q50 52 117 80q69 29 144 29zM250 339v-65h157v-109h76
v109h46v80h-46v206h-69zM337 354l70 95v-95h-70z" />
    <glyph glyph-name="uni277A" unicode="&#x277a;" horiz-adv-x="822" 
d="M411 730l-1 -2q75 0 144 -29q68 -29 118 -79q52 -52 80 -118q29 -69 29 -144t-29 -144q-28 -68 -79 -118t-118 -79q-69 -29 -144 -29t-144 29q-67 28 -117 80q-50 51 -78 118q-29 69 -29 144t29 144q28 67 78 118q50 52 117 80q69 29 144 29zM467 290l1 -1q0 -26 -21 -38
t-47 -12q-31 0 -57 14q-25 13 -39 39l-19 -72q7 -22 39 -43t82 -21q32 0 56 10q26 11 45 28q20 18 30 43q11 27 11 55q0 29 -10 52q-11 26 -28 41q-18 17 -42 27q-23 10 -52 10q-12 0 -21 -1q-16 -2 -24 -4l6 60h143v83h-204l-20 -224l52 -15q11 11 27 14q17 3 33 3
q23 0 41 -12t18 -36z" />
    <glyph glyph-name="uni277B" unicode="&#x277b;" horiz-adv-x="822" 
d="M411 730l-1 -2q75 0 144 -29q68 -29 118 -79q52 -52 80 -118q29 -69 29 -144t-29 -144q-28 -68 -79 -118t-118 -79q-69 -29 -144 -29t-144 29q-67 28 -117 80q-50 51 -78 118q-29 69 -29 144t29 144q28 67 78 118q50 52 117 80q69 29 144 29zM497 560l-88 -3l-96 -151
q-16 -23 -30 -53q-13 -27 -13 -63q0 -27 11 -54q10 -24 29 -43q17 -17 44 -28q24 -10 56 -10q27 0 54 11q25 10 45 29q18 17 31 44q12 25 12 54q0 32 -12 56q-12 25 -33 41q-23 18 -46 26q-25 9 -53 9zM411 236h-1q-26 0 -44 15t-18 38q0 24 18 39t44 15q28 0 45 -15t17 -39
q0 -23 -18 -38t-43 -15z" />
    <glyph glyph-name="uni277C" unicode="&#x277c;" horiz-adv-x="822" 
d="M411 730l-1 -2q75 0 144 -29q68 -29 118 -79q52 -52 80 -118q29 -69 29 -144t-29 -144q-28 -68 -79 -118t-118 -79q-69 -29 -144 -29t-144 29q-67 28 -117 80q-50 51 -78 118q-29 69 -29 144t29 144q28 67 78 118q50 52 117 80q69 29 144 29zM309 165h80l147 336v59h-246
v-83h156z" />
    <glyph glyph-name="uni277D" unicode="&#x277d;" horiz-adv-x="822" 
d="M411 730l-1 -2q75 0 144 -29q68 -29 118 -79q52 -52 80 -118q29 -69 29 -144t-29 -144q-28 -68 -79 -118t-118 -79q-69 -29 -144 -29t-144 29q-67 28 -117 80q-50 51 -78 118q-29 69 -29 144t29 144q28 67 78 118q50 52 117 80q69 29 144 29zM489 371l-2 -5q15 10 27 32
q12 21 12 47t-9 47t-26 38t-39 26t-51 9t-51 -9q-23 -9 -39 -25q-18 -18 -26 -37q-9 -21 -9 -46t12 -46q12 -20 27 -31q-22 -14 -36 -37q-15 -24 -15 -55q0 -24 11 -48q10 -22 29 -39t44 -26q26 -9 54 -9t54 9q25 9 44 26t29 39q11 24 11 48q0 31 -15 55q-14 23 -36 37z
M400 480h-1q23 0 36 -12t13 -28q0 -15 -13 -27t-36 -12t-36 12t-13 27q0 16 14 28t36 12zM399 234l-1 -2q-25 0 -42 14t-17 33t17 33t42 14q26 0 42 -13q17 -14 17 -33q0 -20 -16 -33t-42 -13z" />
    <glyph glyph-name="uni277E" unicode="&#x277e;" horiz-adv-x="822" 
d="M411 730l-1 -2q75 0 144 -29q68 -29 118 -79q52 -52 80 -118q29 -69 29 -144t-29 -144q-28 -68 -79 -118t-118 -79q-69 -29 -144 -29t-144 29q-67 28 -117 80q-50 51 -78 118q-29 69 -29 144t29 144q28 67 78 118q50 52 117 80q69 29 144 29zM329 165l85 -3l96 151
q16 23 30 53q13 27 13 63q0 30 -10 54t-29 43q-18 18 -44 29q-27 11 -55 11q-30 0 -54 -10q-25 -10 -45 -29q-19 -18 -31 -43q-12 -26 -12 -54q0 -31 12 -55q12 -25 33 -41q19 -15 47 -25q26 -9 53 -9zM412 483q26 0 44 -15t18 -38q0 -24 -18 -39t-44 -15q-28 0 -45 15
t-17 39q0 23 18 38t44 15z" />
    <glyph glyph-name="uni27E6" unicode="&#x27e6;" horiz-adv-x="567" 
d="M108 -178v896h384v-97h-101v-702h101v-97h-384zM300 -81v702h-101v-702h101z" />
    <glyph glyph-name="uni27E7" unicode="&#x27e7;" horiz-adv-x="567" 
d="M75 -178v97h101v702h-101v97h384v-896h-384zM368 -81v702h-101v-702h101z" />
    <glyph glyph-name="uni2E28" unicode="&#x2e28;" horiz-adv-x="564" 
d="M318 714h-2q-76 -109 -106 -223t-30 -223q0 -106 30 -219q30 -111 107 -222l-83 -8q-80 96 -114 210q-34 112 -34 240q0 127 35 243q35 115 114 209zM517 714h-2q-76 -109 -106 -223t-30 -223q0 -106 30 -219q30 -111 107 -222l-83 -8q-79 96 -114 210q-34 112 -34 240
q0 127 35 243q35 115 114 209z" />
    <glyph glyph-name="uni2E29" unicode="&#x2e29;" horiz-adv-x="564" 
d="M45 714l83 7q79 -94 114 -209q34 -112 34 -243q0 -128 -34 -240q-34 -114 -114 -210l-83 8q76 108 106 222q30 113 30 219q0 109 -30 223t-106 223zM246 714l83 7q79 -94 114 -209q34 -112 34 -243q0 -128 -34 -240q-35 -114 -114 -210l-83 8q76 108 106 222
q30 113 30 219q0 109 -30 223t-106 223z" />
    <glyph glyph-name="anglebracketleft" unicode="&#x3008;" horiz-adv-x="396" 
d="M183 270l164 -448h-91l-184 448l184 448h91z" />
    <glyph glyph-name="anglebracketright" unicode="&#x3009;" horiz-adv-x="396" 
d="M49 -178l164 448l-164 448h91l184 -448l-184 -448h-91z" />
    <glyph glyph-name="Germandbls" unicode="&#xf485;" horiz-adv-x="958" 
d="M353 356h-7q20 -17 40 -39q17 -19 30 -41q13 -23 20 -45t7 -52q0 -43 -15 -77t-42 -60t-64 -39q-39 -14 -84 -14q-36 0 -72 11q-33 10 -63 29q-27 17 -49 39q-20 20 -28 42l29 96q33 -52 84 -84q52 -32 108 -32q51 0 75 24t24 62q0 28 -17 54t-42 45q-86 72 -104 87
q-43 37 -65 60q-32 34 -51 68q-18 33 -18 74q0 37 14 68q13 29 38 51q24 21 59 33q34 12 75 12q28 0 58 -8q28 -7 52 -21q25 -14 42 -31q18 -18 29 -38l-21 -94q-28 37 -72 64q-43 27 -90 27q-35 0 -59 -15t-24 -50q0 -26 19 -49q19 -24 39 -39q12 -10 33 -26t29 -23
q24 -19 39 -33q13 -12 26 -21q11 -7 18 -15zM815 356h-7q20 -17 40 -39q17 -19 30 -41q13 -23 20 -45t7 -52q0 -43 -15 -77t-42 -60t-64 -39q-39 -14 -84 -14q-36 0 -72 11q-33 10 -63 29q-27 17 -49 39q-20 20 -28 42l29 96q33 -52 84 -84q52 -32 108 -32q51 0 75 24t24 62
q0 28 -17 54t-42 45q-86 72 -104 87q-43 37 -65 60q-32 34 -51 68q-18 33 -18 74q0 37 14 68q13 29 38 51q24 21 59 33q34 12 75 12q28 0 58 -8q28 -7 52 -21q25 -14 42 -31q19 -18 29 -38l-21 -94q-28 37 -72 64q-43 27 -90 27q-35 0 -59 -15t-24 -50q0 -26 19 -49
q19 -24 39 -39q12 -10 33 -26t29 -23q24 -19 39 -33q13 -12 26 -21q11 -7 18 -15z" />
    <glyph glyph-name="commaaccent" unicode="&#xf6c3;" horiz-adv-x="220" 
d="M90 -187l-3 -2q-16 7 -28 21t-12 39q0 28 19 46q20 18 46 18q28 0 48 -18q19 -18 19 -47q0 -23 -9 -41q-6 -12 -20 -36l-45 -76h-61z" />
    <glyph glyph-name="fi" unicode="&#xfb01;" horiz-adv-x="660" 
d="M579 499v-499h-91v499h91zM467 661l-3 -3q0 28 20 48t47 20q29 0 48 -19q20 -20 20 -48q0 -27 -19 -46t-48 -19q-26 0 -46 20q-19 19 -19 47zM377 600v-3q-14 17 -36 29q-23 12 -51 12q-35 0 -56 -21t-21 -64v-58h172v-97h-172v-402h-91v402h-92v97h92v70q0 37 9 69
t27 54t47 36q27 13 68 13q40 0 72 -16q34 -17 47 -42z" />
    <glyph glyph-name="fl" unicode="&#xfb02;" horiz-adv-x="661" 
d="M488 728h91v-728h-91v728zM380 603v-3q-14 17 -36 29t-51 12q-35 0 -56 -21t-21 -64v-58h172v-97h-172v-402h-91v402h-92v97h92v70q0 38 9 69t27 54q18 22 47 36q27 13 68 13q40 0 72 -16q34 -17 47 -42z" />
    <glyph glyph-name="uniFEFF" unicode="&#xfeff;" horiz-adv-x="0" 
 />
    <glyph glyph-name="percent.tnum" 
d="M541 486l-481 -340v96l481 340v-96zM30 579h-2q0 30 12 57q12 26 32 48q19 21 47 33q27 12 60 12t60 -12q28 -12 47 -33q20 -22 32 -48q12 -27 12 -57t-12 -57q-12 -28 -31 -48q-19 -21 -47 -33q-27 -12 -60 -12t-60 12q-28 12 -47 33q-19 20 -31 48q-12 27 -12 57z
M254 579v-2q0 29 -21 50t-54 21t-54 -21t-21 -49t21 -49t54 -21t54 21t21 50zM266 137h-2q0 30 12 57q12 26 32 48q19 21 47 33q27 12 60 12t60 -12q28 -12 47 -33q20 -22 32 -48q12 -27 12 -57t-12 -57q-12 -28 -31 -48q-19 -21 -47 -33q-27 -12 -60 -12t-60 12
q-28 12 -47 33q-19 20 -31 48q-12 27 -12 57zM490 137v-2q0 29 -21 50t-54 21t-54 -21t-21 -49t21 -49t54 -21t54 21t21 50z" />
    <glyph glyph-name="plus.tnum" 
d="M258 341v163h85v-163h167v-93h-167v-161h-85v161h-167v93h167z" />
    <glyph glyph-name="comma.tnum" 
d="M288 1l-2 -1q-20 6 -36 24q-17 19 -17 51q0 33 23 56q22 22 56 22t57 -22q24 -22 24 -58q0 -30 -10 -50l-22 -44l-72 -131h-71z" />
    <glyph glyph-name="period.tnum" 
d="M237 72q0 35 23 60q22 24 57 24t57 -24q23 -25 23 -60t-23 -60q-22 -24 -57 -24t-57 24q-23 25 -23 60z" />
    <glyph glyph-name="slash.case" horiz-adv-x="465" 
d="M99 -100h-99l367 896h98z" />
    <glyph glyph-name="less.tnum" 
d="M207 296l303 -134v-96l-419 186v88l419 186v-96z" />
    <glyph glyph-name="equal.tnum" 
d="M91 351v93h419v-93h-419zM91 145v93h419v-93h-419z" />
    <glyph glyph-name="greater.tnum" 
d="M90 162l303 134l-303 134v96l419 -186v-88l-419 -186v96z" />
    </font>
</defs>
</svg>
