<?xml version="1.0" standalone="no"?>
<!DOCTYPE svg PUBLIC "-//W3C//DTD SVG 1.1//EN" "http://www.w3.org/Graphics/SVG/1.1/DTD/svg11.dtd" >
<svg xmlns="http://www.w3.org/2000/svg" xmlns:xlink="http://www.w3.org/1999/xlink" version="1.1">
<metadata>
Created by FontForge 20170731 at Mon Aug 17 06:10:04 2015
 By Aleksey,,,
Copyright (c) 2014 by Vyacheslav Kirilenko, Gayane Bagdasaryan. All rights reserved.
</metadata>
<defs>
<font id="Gerbera-Light" horiz-adv-x="600" >
  <font-face 
    font-family="Gerbera"
    font-weight="300"
    font-stretch="normal"
    units-per-em="1000"
    panose-1="2 0 3 0 0 0 0 0 0 0"
    ascent="767"
    descent="-233"
    x-height="492"
    cap-height="718"
    bbox="-171 -291 1502 1035"
    underline-thickness="50"
    underline-position="-200"
    unicode-range="U+000D-FEFF"
  />
<missing-glyph horiz-adv-x="569" 
d="M92 718h385v-718h-385v718zM399 83v552h-229v-552h229z" />
    <glyph glyph-name=".notdef" horiz-adv-x="569" 
d="M92 718h385v-718h-385v718zM399 83v552h-229v-552h229z" />
    <glyph glyph-name=".null" horiz-adv-x="0" 
 />
    <glyph glyph-name=".null" horiz-adv-x="0" 
 />
    <glyph glyph-name="nonmarkingreturn" unicode="&#xd;" horiz-adv-x="270" 
 />
    <glyph glyph-name="space" unicode=" " horiz-adv-x="270" 
 />
    <glyph glyph-name="exclam" unicode="!" horiz-adv-x="352" 
d="M145 235l-24 483h110l-24 -483h-62zM110 55l-4 -4q0 27 20 47t47 20q28 0 47 -19q20 -20 20 -46q0 -27 -19 -46t-46 -19q-26 0 -46 20q-19 19 -19 47z" />
    <glyph glyph-name="quotedbl" unicode="&#x22;" horiz-adv-x="370" 
d="M58 718h92l-17 -229h-58zM220 718h92l-17 -229h-58z" />
    <glyph glyph-name="numbersign" unicode="#" horiz-adv-x="650" 
d="M583 479h-109l-21 -121h100v-80h-115l-31 -180h-73l32 180h-126l-31 -180h-73l32 180h-101v80h115l22 121h-107v80h122l29 159h72l-29 -159h125l29 159h73l-29 -159h94v-80zM255 358h125l22 121h-126z" />
    <glyph glyph-name="dollar" unicode="$" horiz-adv-x="483" 
d="M346 349l-2 3q45 -42 68 -81q24 -40 24 -94q0 -74 -43 -121q-44 -49 -117 -59v-103h-78v104q-31 4 -59 17q-27 12 -50 29t-38 35t-21 36l23 80q34 -56 83 -87q48 -30 111 -30q55 0 84 27q28 27 28 69q0 35 -19 61t-45 49q-62 51 -109 93q-36 32 -63 59q-37 37 -52 69
q-15 31 -15 69q0 64 39 106q40 43 106 50v102h78v-106q43 -10 78 -36t53 -57l-19 -80q-28 40 -69 67t-91 27q-43 0 -69 -19q-27 -20 -27 -58q0 -14 6 -28q5 -12 15 -25q6 -8 20 -22q8 -8 20 -18q15 -13 38.5 -32t32.5 -26q27 -23 42 -36q20 -18 23 -21t7.5 -7t6.5 -6z" />
    <glyph glyph-name="percent" unicode="%" horiz-adv-x="871" 
d="M185 0l413 718h88l-413 -718h-88zM217 386v-2q-36 0 -69 14q-32 14 -54 37q-23 24 -36 55q-13 30 -13 66t13 66q13 31 36 55q22 23 54 37q33 14 69 14q39 0 69 -13q32 -14 54 -37q23 -24 36 -55q13 -30 13 -66t-13 -66q-13 -31 -36 -55q-22 -23 -54 -37q-30 -13 -69 -13z
M217 650h-2q-22 0 -41 -8q-17 -7 -31 -21q-13 -13 -21 -30q-7 -15 -7 -36t7 -36q8 -17 21 -30t32 -21t41 -8t41 8t32 21t21 30q7 15 7 36t-7 36q-8 17 -21 30t-32 21t-40 8zM652 -12v-2q-36 0 -69 14q-32 14 -54 37q-23 24 -36 55q-13 30 -13 66t13 66q13 31 36 55
q22 23 54 37q33 14 69 14q39 0 69 -13q32 -14 54 -37q23 -24 36 -55q13 -30 13 -66t-13 -66q-13 -31 -36 -55q-22 -23 -54 -37q-30 -13 -69 -13zM652 252h-2q-22 0 -41 -8q-17 -7 -31 -21q-14 -13 -21 -30q-7 -15 -7 -36t7 -36q7 -17 21 -30q13 -13 32 -21t41 -8t41 8t32 21
q14 13 21 30q7 15 7 36t-7 36q-7 17 -21 30q-13 13 -32 21t-40 8z" />
    <glyph glyph-name="ampersand" unicode="&#x26;" horiz-adv-x="630" 
d="M632 0l-103 -5l-79 87q-38 -45 -90 -72q-53 -27 -121 -27q-46 0 -82 15t-61 40q-26 26 -39 58t-13 69t14 68q13 30 35 56q22 27 48 47q36 28 53 41l-34 46q-15 20 -28 45q-11 20 -19 45q-7 21 -7 45q0 36 13 66q14 32 37 54q24 22 57 36q32 13 71 13t72 -14
q32 -14 54 -37q24 -25 35 -55q12 -31 12 -66q0 -31 -13 -56q-14 -27 -34 -48q-24 -25 -45 -44q-32 -28 -48 -41l135 -158q16 26 30 54q12 25 27 62l34 -70q-7 -26 -18 -51t-24 -48zM181 553l-3 -3q0 -35 19 -61q17 -24 39 -49l25 -27l14 12q13 11 30 24q18 15 32 30
q17 19 26 34q11 19 11 36q0 42 -28 66t-70 24q-44 0 -69 -25q-26 -26 -26 -61zM243 64l2 2q45 0 81 16q38 17 75 55l-154 180l-13 -8q-14 -9 -42 -29q-20 -14 -37 -33q-17 -18 -27 -39q-10 -20 -10 -46q0 -46 33 -72q34 -26 92 -26z" />
    <glyph glyph-name="quotesingle" unicode="'" horiz-adv-x="208" 
d="M58 718h92l-17 -229h-58z" />
    <glyph glyph-name="parenleft" unicode="(" horiz-adv-x="352" 
d="M304 715l-2 1q-74 -111 -104 -225q-30 -115 -30 -225q0 -106 30 -219t105 -225l-66 -7q-79 96 -114 210q-34 112 -34 241q0 127 35 244q34 116 114 210z" />
    <glyph glyph-name="parenright" unicode=")" horiz-adv-x="352" 
d="M49 716l-1 -1l66 5q80 -94 114 -210q34 -114 34 -244q0 -129 -34 -241q-34 -114 -114 -210l-66 7q75 112 105 225t30 219q0 110 -30 225q-30 114 -104 225z" />
    <glyph glyph-name="asterisk" unicode="*" horiz-adv-x="497" 
d="M306 485l97 -133l-58 -42l-97 134l-97 -134l-57 42l97 134l-157 51l22 67l157 -51v165h71v-165l157 51l22 -68z" />
    <glyph glyph-name="plus" unicode="+" horiz-adv-x="533" 
d="M231 331v166h71v-166h166v-77h-166v-166h-71v166h-166v77h166z" />
    <glyph glyph-name="comma" unicode="," horiz-adv-x="292" 
d="M124 -4l-1 1q-16 4 -31 18q-15 13 -15 42q0 28 20 46q19 18 47 18t47 -18q20 -18 20 -47q0 -23 -8 -42t-18 -35l-65 -119h-56z" />
    <glyph glyph-name="hyphen" unicode="-" horiz-adv-x="464" 
d="M387 312v-77h-310v77h310z" />
    <glyph glyph-name="period" unicode="." horiz-adv-x="296" 
d="M82 55l-4 -4q0 27 20 47t47 20q28 0 47 -19q20 -20 20 -46q0 -27 -19 -46t-46 -19q-26 0 -46 20q-19 19 -19 47z" />
    <glyph glyph-name="slash" unicode="/" horiz-adv-x="447" 
d="M80 -182h-80l368 900h79z" />
    <glyph glyph-name="zero" unicode="0" horiz-adv-x="604" 
d="M302 729q55 0 100 -24q44 -23 76 -71q31 -46 48 -116q17 -71 17 -159t-17 -159q-17 -70 -48 -116q-32 -48 -76 -71q-45 -24 -100 -24t-100 24q-44 23 -76 71q-31 46 -48 116q-17 71 -17 159t17 159q17 70 48 116q32 48 76 71q45 24 100 24zM302 645v-2q-36 0 -65 -19
q-30 -20 -51 -55q-21 -36 -33 -89q-12 -52 -12 -122q0 -69 12 -122t33 -89q21 -35 51 -55q29 -19 65 -19t65 19q30 19 51 56q21 36 33 89t12 122t-12 122t-33 89q-21 37 -51 56q-29 19 -65 19z" />
    <glyph glyph-name="one" unicode="1" horiz-adv-x="403" 
d="M62 600l155 118h76v-718h-78v624l-153 -112v88z" />
    <glyph glyph-name="two" unicode="2" horiz-adv-x="514" 
d="M450 83v-82h-397v71l187 223q50 60 81 114q31 53 31 112q0 24 -8 48q-7 22 -23 39t-36 26q-21 9 -48 9q-30 0 -54 -9q-25 -10 -42 -22q-17 -13 -31 -30q-12 -15 -22 -33l-36 60q8 24 24 45q17 21 41 38q25 17 54 26q30 9 65 9q47 0 82 -16q36 -16 61 -43q26 -28 38 -63
q12 -36 12 -76q0 -39 -9 -73t-27 -69t-43 -70q-19 -27 -59 -76l-132 -158h291z" />
    <glyph glyph-name="three" unicode="3" horiz-adv-x="524" 
d="M245 73l-3 1q70 0 110 39q41 39 41 105q0 27 -11 54q-11 26 -31 45q-21 19 -51 30q-31 11 -67 11q-19 0 -29 -1q-16 -2 -29 -6l-15 72l168 213h-247v83h348v-67l-167 -212q39 -2 75 -16t67 -44q30 -28 48 -69t18 -90q0 -47 -16 -88q-17 -42 -46 -73q-30 -32 -72 -51
q-41 -19 -94 -19q-33 0 -66 9t-60 24q-26 14 -48 35q-20 19 -28 42l24 67q37 -52 84 -73t97 -21z" />
    <glyph glyph-name="four" unicode="4" horiz-adv-x="519" 
d="M323 718h76v-412h88v-83h-88v-223h-78v223h-294v73zM321 306v286l-200 -286h200z" />
    <glyph glyph-name="five" unicode="5" horiz-adv-x="549" 
d="M261 73v-1q74 0 115 41q40 40 40 107q0 34 -12 61t-33 45q-22 19 -48 29t-57 10q-32 0 -61 -9t-54 -30l-70 12l34 379h326v-83h-265l-19 -217q25 17 54 24q30 8 67 8q45 0 85 -17q39 -17 68 -47q28 -30 45 -71q17 -42 17 -89q0 -46 -16 -87q-17 -43 -46 -75
q-31 -34 -73 -53q-45 -20 -97 -20q-32 0 -65 9q-32 9 -61 24q-26 14 -49 35q-21 19 -30 41l25 71q37 -52 81 -74q46 -23 99 -23z" />
    <glyph glyph-name="six" unicode="6" horiz-adv-x="564" 
d="M130 219l-2 -4q0 -30 12 -57q11 -25 32 -46q18 -18 47 -31q27 -12 60 -12t60 12t47 32t32 47t12 57t-12 57q-13 29 -31 47q-20 20 -47 32t-60 12t-60 -12q-29 -13 -47 -31q-19 -19 -31 -46t-12 -57zM216 439l-3 -4q13 4 26 5q20 2 30 2q59 0 103 -19q45 -19 75 -51
t45 -72t15 -84q0 -49 -18 -91t-50 -74q-31 -31 -73 -49t-88 -18q-49 0 -91 18q-43 18 -72 49q-31 32 -47 74q-17 43 -17 92q0 58 21 112q20 51 47 99l168 286h89z" />
    <glyph glyph-name="seven" unicode="7" horiz-adv-x="507" 
d="M365 635h-313v83h402v-70l-272 -648h-83z" />
    <glyph glyph-name="eight" unicode="8" horiz-adv-x="572" 
d="M286 -11l-2 -1q-50 0 -89 16q-40 16 -71 44q-30 27 -47 65q-17 39 -17 81q0 49 23 100q22 49 74 81q-33 21 -55 61t-22 96q0 40 15 76t42 63t65 42q37 15 83 15q45 0 83 -15t65 -42t42 -63t15 -76q0 -56 -22 -96t-55 -61q52 -32 74 -81q23 -51 23 -100q0 -42 -17 -81
q-17 -38 -47 -65q-29 -26 -71 -43q-39 -16 -89 -16zM284 72l-2 -1q33 0 59 10q27 11 46 28q19 18 30 42q11 25 11 51t-11 51q-11 24 -30 42q-19 17 -46 28q-28 11 -58 11q-32 0 -58 -10q-27 -11 -46 -28q-19 -18 -30 -42q-11 -25 -11 -51t11 -51q11 -24 30 -42
q19 -17 46 -28q26 -10 59 -10zM408 528q0 21 -9 42t-25 37q-17 17 -40 27t-54 10t-54 -10t-40 -27q-16 -16 -25 -37t-9 -42t9 -42t25 -37q17 -17 40 -27t54 -10t54 10t40 27q16 16 25 37t9 42z" />
    <glyph glyph-name="nine" unicode="9" horiz-adv-x="564" 
d="M434 499q0 30 -12 57t-31 46q-18 18 -47 31q-27 12 -60 12t-60 -12q-29 -13 -47 -31q-19 -19 -31 -46t-12 -57t12 -57t31 -46q18 -18 47 -31q27 -12 60 -12t60 12q29 13 47 31q19 19 31 46t12 57zM346 275h3q-8 -2 -26 -4q-10 -1 -30 -1q-59 0 -103 19q-45 19 -75 51
t-45 72t-15 84q0 49 18 91t50 74q31 31 73 49t88 18q49 0 91 -18q43 -18 72 -49q31 -33 47 -73q17 -43 17 -91q0 -58 -21 -112q-20 -51 -47 -99l-168 -286h-89z" />
    <glyph glyph-name="colon" unicode=":" horiz-adv-x="296" 
d="M82 55l-4 -4q0 27 20 47t47 20q28 0 47 -19q20 -20 20 -46q0 -27 -19 -46t-46 -19q-26 0 -46 20q-19 19 -19 47zM78 384l-4 -4q0 27 20 47t47 20q28 0 47 -19q20 -20 20 -46q0 -27 -19 -46t-46 -19q-26 0 -46 20q-19 19 -19 47z" />
    <glyph glyph-name="semicolon" unicode=";" horiz-adv-x="292" 
d="M124 -4l-1 1q-16 4 -31 18q-15 13 -15 42q0 28 20 46q19 18 47 18t47 -18q20 -18 20 -47q0 -23 -8 -42t-18 -35l-65 -119h-56zM79 389l-4 -4q0 27 20 47t47 20q28 0 47 -19q20 -20 20 -46q0 -27 -19 -46t-46 -19q-26 0 -46 20q-19 19 -19 47z" />
    <glyph glyph-name="less" unicode="&#x3c;" horiz-adv-x="533" 
d="M154 295l314 -144v-81l-403 184v83l403 184v-81z" />
    <glyph glyph-name="equal" unicode="=" horiz-adv-x="533" 
d="M65 351v77h403v-77h-403zM65 158v77h403v-77h-403z" />
    <glyph glyph-name="greater" unicode="&#x3e;" horiz-adv-x="533" 
d="M379 300l-314 144v81l403 -184v-83l-403 -184v81z" />
    <glyph glyph-name="question" unicode="?" horiz-adv-x="465" 
d="M158 55l-4 -4q0 27 20 47t47 20q28 0 47 -19q20 -20 20 -46q0 -27 -19 -46t-46 -19q-26 0 -46 20q-19 19 -19 47zM63 630l-5 -6q7 17 23 37q14 17 36 31q21 14 46 21q27 8 53 8q39 0 70 -11q30 -10 51 -30q20 -19 31 -45q11 -27 11 -54q0 -33 -10 -54q-11 -23 -27 -42
q-16 -18 -39 -34q-30 -20 -46 -30q-31 -20 -58 -42q-25 -21 -25 -48q0 -20 16 -33t45 -13q32 0 55 13t49 39l13 -70q-5 -11 -15 -23q-10 -11 -27 -22q-15 -10 -37 -16q-21 -6 -46 -6q-29 0 -54 11q-26 11 -41 28q-17 19 -26 41t-9 48q0 41 25 79t93 82q43 29 66 48
q22 19 22 45q0 25 -20 40q-19 15 -60 15q-39 0 -75 -18q-35 -18 -66 -56z" />
    <glyph glyph-name="at" unicode="@" horiz-adv-x="932" 
d="M469 667l-2 -8q78 0 146 -28q69 -28 122 -80q52 -51 84 -122q32 -72 32 -154q0 -46 -7 -84q-8 -41 -25 -73q-18 -32 -48 -52q-31 -20 -76 -20q-82 0 -118 51q-17 -20 -51 -35t-81 -15q-72 0 -114 36t-42 96q0 31 12 55q12 25 33 41q22 17 50 26t62 9q31 0 60 -7
q33 -8 50 -25v17q0 49 -30 75q-29 25 -81 25q-35 0 -67 -15q-31 -15 -49 -40l-20 63q23 32 61 51q40 20 87 20q39 0 69 -10q32 -10 54 -30q23 -20 36 -49t13 -67v-117q0 -29 17 -51q16 -21 51 -21q25 0 42 15q16 14 25 39q9 24 12 51t3 48q0 72 -25 128q-26 57 -69 96
t-99 60t-117 21q-67 0 -126 -24t-102 -67t-69 -104q-25 -59 -25 -132q0 -70 21 -130t63 -105q41 -44 102 -70q59 -25 135 -25q49 0 95 11q43 11 81 39l14 -65q-28 -28 -79 -46t-108 -18q-84 0 -155 31q-73 32 -125 87q-54 57 -83 130q-30 75 -30 162q0 85 30 158t83 129
t124 87q73 32 154 32zM554 197l-1 -2q-9 17 -38 26t-60 9q-44 0 -70 -14q-25 -13 -25 -39q0 -25 24 -40t72 -15q32 0 60 12q29 12 38 32v31z" />
    <glyph glyph-name="A" unicode="A" horiz-adv-x="668" 
d="M655 0h-84l-68 174h-338l-67 -174h-84l281 718h81zM198 257h273l-137 350z" />
    <glyph glyph-name="B" unicode="B" horiz-adv-x="578" 
d="M424 380l-1 -2q42 -18 72 -62t30 -108q0 -51 -16 -89q-17 -39 -45 -66q-29 -28 -69 -41q-42 -14 -88 -14h-216v718h179q49 0 88 -13q40 -13 69 -39t45 -61t16 -82q0 -49 -18 -84t-46 -57zM320 81l-1 -1q25 0 48 9q22 9 41 26q17 16 28 39q10 21 10 50q0 24 -9 46t-26 39
t-40 27t-51 10h-151v-245h151zM168 408l120 -1q50 0 85 30q34 30 34 81q0 24 -9 45t-24 36t-37 24q-23 9 -48 9h-121v-224z" />
    <glyph glyph-name="C" unicode="C" horiz-adv-x="698" 
d="M660 130l-3 2q-13 -28 -39 -54t-61 -45t-79 -31t-92 -12q-69 0 -133 26q-62 25 -111 74q-47 47 -76 117q-28 68 -28 153t28 153q29 70 76 117q49 49 111 74q64 26 133 26q48 0 91 -12q44 -12 79 -31t61 -45q25 -25 37 -51l-23 -71q-41 59 -102 92t-141 33q-60 0 -110 -21
q-49 -21 -85 -58q-35 -37 -55 -90q-19 -51 -19 -117q0 -63 20 -117q20 -53 55 -90q35 -36 86 -58q50 -21 110 -21q83 0 146 36q64 36 101 90z" />
    <glyph glyph-name="D" unicode="D" horiz-adv-x="738" 
d="M618 359l1 1q0 57 -20 108q-19 49 -56 87t-87 59q-51 21 -112 21h-174v-552h174q57 0 109 20q50 19 87 56q36 36 57 87t21 113zM314 719v-3q82 0 153 -24q70 -24 121 -69q52 -46 80 -112q29 -69 29 -153t-29 -151q-28 -64 -80 -112q-50 -46 -121 -70t-153 -24h-221v718
h221z" />
    <glyph glyph-name="E" unicode="E" horiz-adv-x="531" 
d="M92 718h379v-83h-301v-224h271v-83h-271v-245h301v-83h-379v718z" />
    <glyph glyph-name="F" unicode="F" horiz-adv-x="496" 
d="M92 718h354v-83h-276v-224h256v-83h-256v-328h-78v718z" />
    <glyph glyph-name="G" unicode="G" horiz-adv-x="727" 
d="M388 729l-3 2q47 0 91 -12t79 -31t61 -45q25 -25 37 -51l-23 -71q-41 59 -102 92q-62 33 -141 33q-60 0 -111 -20q-50 -20 -84 -57t-54 -90q-19 -51 -19 -117t20 -121q19 -52 56 -91q36 -38 87 -57q50 -19 111 -19q57 0 106 18t87 54v130h-198v83h277v-236
q-18 -30 -48 -54q-29 -23 -68 -42q-36 -17 -79 -28q-40 -10 -82 -10q-70 0 -134 26q-63 26 -110 74q-47 49 -74 116t-27 152q0 84 27 153q27 68 74 117q46 48 110 75q63 27 134 27z" />
    <glyph glyph-name="H" unicode="H" horiz-adv-x="753" 
d="M92 718h78v-307h413v307h78v-718h-78v328h-413v-328h-78v718z" />
    <glyph glyph-name="I" unicode="I" horiz-adv-x="262" 
d="M92 718h78v-718h-78v718z" />
    <glyph glyph-name="J" unicode="J" horiz-adv-x="395" 
d="M308 176l1 1q0 -89 -39 -138t-126 -49q-27 0 -48 6t-36 15q-14 8 -25 21q-10 12 -15 23l8 79q23 -28 51 -44q29 -17 63 -17q42 0 65 26t23 92v527h78v-542z" />
    <glyph glyph-name="K" unicode="K" horiz-adv-x="628" 
d="M92 718h78v-332l310 332h104l-327 -351l361 -367h-115l-333 337v-337h-78v718z" />
    <glyph glyph-name="L" unicode="L" horiz-adv-x="475" 
d="M92 718h78v-635h285v-83h-363v718z" />
    <glyph glyph-name="M" unicode="M" horiz-adv-x="942" 
d="M698 718h86l96 -718h-76l-81 586l-212 -586h-79l-217 586l-74 -586h-79l95 718h86l226 -612z" />
    <glyph glyph-name="N" unicode="N" horiz-adv-x="756" 
d="M92 718h89l405 -598v598h78v-718h-89l-405 595v-595h-78v718z" />
    <glyph glyph-name="O" unicode="O" horiz-adv-x="790" 
d="M395 -11l-4 -2q-69 0 -135 29q-64 28 -112 78q-49 50 -77 117q-28 66 -28 147q0 78 29 147q28 67 77 117q48 49 113 78q66 29 135 29q72 0 135 -28q65 -29 113 -78q49 -50 77 -117q29 -69 29 -147q0 -81 -28 -147q-28 -67 -77 -117q-48 -50 -112 -78q-63 -28 -135 -28z
M391 643q-58 0 -109 -21q-49 -20 -88 -59q-37 -37 -58 -90t-21 -114t21 -114t58 -90q39 -39 88 -59q51 -21 109 -21t109 21q49 20 88 59q37 37 58 90t21 114t-21 114t-58 90q-39 39 -88 59q-51 21 -109 21z" />
    <glyph glyph-name="P" unicode="P" horiz-adv-x="545" 
d="M290 718l-1 -3q47 0 87 -15q42 -16 71 -43q31 -30 47 -67q17 -40 17 -88q0 -49 -16 -87q-17 -40 -45 -68q-29 -29 -69 -44q-41 -15 -90 -15h-121v-288h-78v718h198zM169 632l-1 -266h135q27 0 52 11q24 11 41 29q17 19 26 42q9 24 9 51t-9 51q-9 23 -26 42q-18 19 -40 29
q-25 11 -52 11h-135z" />
    <glyph glyph-name="Q" unicode="Q" horiz-adv-x="790" 
d="M512 -159l-1 -2q-72 0 -109 40q-38 41 -42 111q-64 6 -123 36q-58 30 -102 80q-43 50 -69 114q-25 63 -25 138q0 78 29 147q28 67 77 117q48 49 113 78q66 29 135 29q72 0 135 -28q65 -29 113 -78q49 -50 77 -117q29 -69 29 -147q0 -72 -24 -135t-66 -111
q-43 -50 -97 -80q-54 -31 -118 -40q4 -37 27 -54q22 -16 57 -16q27 0 51 11q23 10 36 27l9 -71q-16 -22 -45 -36q-27 -13 -67 -13zM394 643q-58 0 -109 -21q-49 -20 -88 -59q-37 -37 -58 -90t-21 -114t21 -114t58 -90q39 -39 88 -59q51 -21 109 -21t109 21q49 20 88 59
q37 37 58 90t21 114t-21 114t-58 90q-39 39 -88 59q-51 21 -109 21z" />
    <glyph glyph-name="R" unicode="R" horiz-adv-x="558" 
d="M92 718h191q40 0 79 -12q38 -12 70 -36t50 -62t18 -88q0 -41 -12 -74q-12 -32 -33 -58t-51 -42t-65 -24l178 -322h-92l-172 313h-83v-313h-78v718zM168 635l-1 -240h122q24 0 50 8q23 7 42 23t29 37q11 24 11 51q0 52 -32 87q-31 34 -84 34h-137z" />
    <glyph glyph-name="S" unicode="S" horiz-adv-x="483" 
d="M346 349l-3 -1q45 -42 68 -81q24 -41 24 -94q0 -39 -14 -75q-13 -34 -39 -58q-24 -23 -62 -37q-35 -13 -81 -13q-37 0 -72 12q-36 12 -62 30q-28 19 -47 39q-20 21 -27 42l23 80q34 -56 83 -87q48 -30 111 -30q56 0 84 27t28 69q0 35 -19 61t-45 49q-62 51 -109 93
q-36 32 -63 59q-37 37 -52 69q-15 31 -15 69q0 72 48 115q47 43 128 43q59 0 106 -28q49 -29 71 -69l-19 -80q-28 40 -69 67t-91 27q-43 0 -69 -19q-27 -20 -27 -58q0 -14 6 -28q5 -12 15 -25q6 -8 20 -22q8 -8 20 -18q15 -13 38.5 -32t32.5 -26q27 -23 42 -36
q20 -18 23 -21t7.5 -7t6.5 -6z" />
    <glyph glyph-name="T" unicode="T" horiz-adv-x="575" 
d="M16 718h543v-81h-233v-637h-78v637h-232v81z" />
    <glyph glyph-name="U" unicode="U" horiz-adv-x="736" 
d="M571 718l79 3v-430q0 -66 -19 -120q-19 -55 -57 -96t-90 -63q-51 -22 -117 -22q-63 0 -115 21t-90 60t-57 94q-20 57 -20 123v431h78v-434q0 -48 15 -87t42 -66t65 -42q37 -15 83 -15t84 15t63 42q26 28 41 66q15 39 15 87v433z" />
    <glyph glyph-name="V" unicode="V" horiz-adv-x="628" 
d="M13 718h85l217 -610l214 610h86l-256 -718h-90z" />
    <glyph glyph-name="W" unicode="W" horiz-adv-x="1011" 
d="M714 144l187 574h88l-238 -718h-79l-169 601l-164 -601h-79l-238 718h82l191 -574l163 574h86z" />
    <glyph glyph-name="X" unicode="X" horiz-adv-x="624" 
d="M123 0h-101l240 373l-224 345h96l177 -273l177 273h100l-225 -344l239 -374h-94l-194 297z" />
    <glyph glyph-name="Y" unicode="Y" horiz-adv-x="542" 
d="M9 718h89l171 -325l171 325h92l-221 -420v-298h-78v298z" />
    <glyph glyph-name="Z" unicode="Z" horiz-adv-x="500" 
d="M56 718h386v-58l-296 -577h298v-83h-393v71l290 564h-285v83z" />
    <glyph glyph-name="bracketleft" unicode="[" horiz-adv-x="367" 
d="M111 -182v900h181v-83h-103v-734h103v-83h-181z" />
    <glyph glyph-name="backslash" unicode="\" horiz-adv-x="447" 
d="M451 -182h-80l-367 900h79z" />
    <glyph glyph-name="bracketright" unicode="]" horiz-adv-x="367" 
d="M256 718v-900h-181v83h103v734h-103v83h181z" />
    <glyph glyph-name="asciicircum" unicode="^" horiz-adv-x="534" 
d="M47 346l171 338h99l170 -338h-87l-131 265l-134 -265h-88z" />
    <glyph glyph-name="underscore" unicode="_" horiz-adv-x="496" 
d="M-2 -80h500v-77h-500v77z" />
    <glyph glyph-name="grave" unicode="`" horiz-adv-x="346" 
d="M200 723l63 -143h-75l-105 143h117z" />
    <glyph glyph-name="a" unicode="a" horiz-adv-x="544" 
d="M255 503v-1q45 0 84 -12t66 -36q28 -25 44 -60t16 -82v-312h-72v47q-19 -25 -60 -42q-39 -16 -87 -16q-92 0 -144 43t-52 118q0 36 15 65t42 50q26 20 63 31q38 11 78 11q8 0 32 -2q21 -2 38 -7q20 -6 39 -15q20 -9 33 -22v31q0 68 -40 99q-41 32 -100 32q-48 0 -87 -19
q-41 -20 -63 -48l-20 66q12 18 28 32q19 16 41 26q24 11 50 17q27 6 56 6zM390 174v2q-14 26 -52 38q-39 12 -85 12q-59 0 -94 -21q-34 -21 -34 -55t33 -58t97 -24q45 0 84 17q37 16 51 44v45z" />
    <glyph glyph-name="b" unicode="b" horiz-adv-x="619" 
d="M159 728l-1 -290q12 27 56 48t104 21q51 0 95 -19q46 -20 80 -54t55 -81t21 -104t-21 -104t-55 -81q-35 -35 -79 -54t-95 -19q-30 0 -57 6t-48 15t-36 21t-21 26v-59h-72v728h74zM493 251l-3 -2q0 42 -13 74q-14 35 -37 56q-25 23 -57 35q-33 12 -72 12q-57 0 -100 -24
t-55 -69v-166q12 -45 56 -69t101 -24q39 0 72 12q32 12 57 35q23 21 37 56q14 34 14 74z" />
    <glyph glyph-name="c" unicode="c" horiz-adv-x="536" 
d="M485 71l-1 6q-7 -14 -23 -30q-14 -14 -38 -27q-21 -11 -52 -19q-28 -7 -66 -7q-51 0 -97 18t-81 51q-35 34 -56 81q-21 48 -21 106t21 105q21 46 56 81t81 53t97 18q36 0 63 -7q30 -8 51 -19q24 -13 38 -27q16 -16 23 -30l-18 -60q-22 22 -60 42q-37 19 -84 19
q-43 0 -79 -12q-35 -12 -61 -36q-25 -23 -40 -57q-15 -33 -15 -73t15 -73q15 -32 41 -57q25 -24 62 -36q36 -12 80 -12q52 0 87 19q38 21 59 43z" />
    <glyph glyph-name="d" unicode="d" horiz-adv-x="618" 
d="M534 728l-1 -733h-72v59q-6 -14 -21 -26t-36 -21t-48 -15t-57 -6q-51 0 -95 19t-79 54q-34 34 -55 81q-21 46 -21 104t21 104q21 47 55 81t80 54q44 19 95 19q60 0 104 -21t56 -48v295h74zM124 241l-3 -2q0 -39 14 -73q13 -33 37 -55q25 -23 57 -35q33 -12 72 -12
q57 0 101 24t56 69v166q-12 45 -55 69q-44 24 -100 24q-39 0 -72 -12q-32 -12 -57 -35q-24 -22 -37 -55q-13 -32 -13 -73z" />
    <glyph glyph-name="e" unicode="e" horiz-adv-x="571" 
d="M520 255h2q0 -16 -3 -34h-391q7 -76 57 -112q49 -36 120 -36q55 0 93 16q39 17 69 48l14 -65q-8 -17 -24 -32q-18 -16 -40 -26q-25 -11 -52 -18t-60 -7q-53 0 -99 18t-81 51t-54 81q-19 47 -19 108q0 53 17 101q17 46 48 81t75 54q45 20 99 20q52 0 93 -19q42 -20 72 -54
q31 -36 47 -79q17 -46 17 -96zM293 423l-2 -1q-29 0 -53 -7t-48 -23q-22 -14 -37 -39q-15 -24 -21 -55h310q-8 59 -48 92q-41 33 -101 33z" />
    <glyph glyph-name="f" unicode="f" horiz-adv-x="421" 
d="M381 617l-3 -2q-14 17 -37 30t-52 13q-37 0 -61 -24t-24 -69v-74h177v-80h-177v-412h-74v412h-94v80h94v85q0 78 39 120t114 42q35 0 65 -15t44 -41z" />
    <glyph glyph-name="g" unicode="g" horiz-adv-x="614" 
d="M530 492l1 -512q0 -46 -16 -82q-16 -37 -46 -64t-72 -42t-91 -15q-62 0 -120 23q-56 22 -88 74l21 69q31 -42 78 -63t99 -21q28 0 57 6q28 6 51 23t38 47t15 78v56q-6 -13 -21 -25t-36 -21t-48 -15t-57 -6q-50 0 -95 18q-44 18 -79 51q-34 33 -55 79t-21 102t21 102
q22 48 55 80q34 33 80 51q45 18 95 18q30 0 57 -6q29 -6 48 -16q23 -11 36 -22q15 -12 21 -25v58h72zM457 333h-3q-12 44 -55 68t-100 24q-39 0 -72 -12q-34 -12 -57 -34t-37 -54q-13 -30 -13 -72q0 -39 14 -72q14 -32 37 -54t57 -34q33 -12 72 -12q58 0 101 24q44 24 56 68
v160z" />
    <glyph glyph-name="h" unicode="h" horiz-adv-x="587" 
d="M159 0l-73 -2v728h74v-296q11 29 48 50q38 21 93 21q41 0 77 -13q39 -14 68 -40q30 -27 48 -69t18 -100v-280h-74v277q0 70 -39 108q-40 38 -97 38q-27 0 -49 -7q-23 -7 -43 -21t-33 -31q-14 -18 -18 -40v-323z" />
    <glyph glyph-name="i" unicode="i" horiz-adv-x="240" 
d="M83 492h74v-492h-74v492zM61 655q0 25 17 42t42 17t42 -17t17 -42t-17 -42t-42 -17t-42 17t-17 42z" />
    <glyph glyph-name="j" unicode="j" horiz-adv-x="248" 
d="M91 492l74 1v-563q0 -153 -112 -153q-17 0 -43 6q-24 6 -40 26l7 65q10 -10 26 -15q13 -4 26 -4q38 0 50 24t12 68v545zM69 656q0 25 17 42t42 17t42 -17t17 -42t-17 -42t-42 -17t-42 17t-17 42z" />
    <glyph glyph-name="k" unicode="k" horiz-adv-x="528" 
d="M85 728h74v-442l227 206h108l-253 -230l279 -262h-113l-248 231v-231h-74v728z" />
    <glyph glyph-name="l" unicode="l" horiz-adv-x="244" 
d="M85 728h74v-728h-74v728z" />
    <glyph glyph-name="m" unicode="m" horiz-adv-x="918" 
d="M636 503l-5 1q39 0 75 -13q38 -14 66 -40q30 -28 47 -67q18 -40 18 -96v-286h-74v281q0 69 -37 105t-94 36q-26 0 -47 -7q-23 -8 -41 -21q-19 -14 -30 -31t-16 -40v-323h-74v281q0 69 -37 105t-94 36q-26 0 -47 -7q-23 -8 -41 -21q-19 -14 -30 -31t-16 -40v-323h-74v492
h72v-60q11 29 48 50t90 21q49 0 94 -22q47 -23 75 -66q23 35 67 60q46 26 105 26z" />
    <glyph glyph-name="n" unicode="n" horiz-adv-x="587" 
d="M299 503l2 -3q41 0 77 -13q37 -13 68 -41q30 -27 48 -69t18 -100v-279h-74v275q0 70 -38 110q-38 39 -98 39q-23 0 -49 -8q-23 -7 -43 -21t-33 -31q-13 -18 -18 -39v-323h-74v492h72v-60q11 29 49 50q39 21 93 21z" />
    <glyph glyph-name="o" unicode="o" 
d="M51 246l-2 -2q0 54 20 102q19 46 54 81q34 34 80 54t95 20q51 0 95 -19q46 -20 80 -54q35 -34 54 -81q20 -48 20 -102t-20 -102q-19 -47 -54 -81q-35 -35 -79 -54t-95 -19q-49 0 -95 20q-44 19 -79 54t-54 81q-20 48 -20 102zM298 421h-3q-39 0 -69 -13q-32 -14 -54 -37
q-22 -24 -36 -57q-13 -32 -13 -72q0 -38 14 -72q13 -33 36 -57q22 -23 54 -37q30 -13 69 -13q38 0 70 13q35 14 56 37q22 24 36 57q14 34 14 72q0 40 -13 72q-13 33 -36 57q-22 24 -55 37q-32 13 -70 13z" />
    <glyph glyph-name="p" unicode="p" horiz-adv-x="619" 
d="M85 -213l-3 707h72v-59q6 13 21 27q16 14 36 23q21 9 48 15t57 6q51 0 95 -19q46 -20 80 -54t55 -81q21 -46 21 -104t-21 -104q-21 -47 -55 -81q-35 -35 -79 -54t-95 -19q-59 0 -103 21q-43 21 -55 48v-272h-74zM491 248l-3 -2q0 42 -13 74q-14 35 -37 56q-25 23 -57 35
q-33 12 -72 12q-56 0 -100 -24q-43 -24 -55 -69v-166q12 -45 56 -69t101 -24q39 0 72 12q32 12 57 35q23 21 37 56q14 34 14 74z" />
    <glyph glyph-name="q" unicode="q" horiz-adv-x="618" 
d="M460 -213l-3 269q-12 -27 -55 -48q-44 -21 -103 -21q-51 0 -95 19t-79 54q-34 34 -55 81t-21 104t21 104t55 81t80 54q44 19 95 19q30 0 57 -6t48 -15q22 -9 36 -22q15 -14 21 -27v59h72v-705h-74zM122 243l-3 -2q0 -39 14 -73q13 -33 37 -55q25 -23 57 -35
q33 -12 72 -12q57 0 101 24t56 69v166q-12 45 -55 69t-100 24q-39 0 -72 -12q-32 -12 -57 -35q-24 -22 -37 -55q-13 -32 -13 -73z" />
    <glyph glyph-name="r" unicode="r" horiz-adv-x="384" 
d="M344 401h3q-25 22 -72 22q-45 0 -75 -31q-30 -32 -39 -75v-318h-74v492h72v-62q10 30 38 52q27 21 75 21q28 0 51 -9q22 -9 33 -26z" />
    <glyph glyph-name="s" unicode="s" horiz-adv-x="416" 
d="M155 240l-2 -3q-48 25 -72 60q-24 34 -24 74q0 57 37 93q38 36 111 36q27 0 48 -7q24 -8 41 -18t30 -23q12 -12 18 -24l-14 -67q-25 26 -57 43q-31 16 -69 16q-24 0 -48 -11q-22 -10 -22 -38q0 -23 19 -36t45 -27l60 -33q56 -30 83 -63t27 -82q0 -32 -12 -57t-33 -45
t-52 -30q-30 -10 -70 -10q-29 0 -51 7q-26 8 -45 19q-21 12 -36 27q-16 16 -23 31l16 68q30 -35 67 -51q36 -16 79 -16q15 0 30 3q16 3 27 10q13 8 20 18q8 11 8 27q0 24 -22 42q-23 18 -57 36z" />
    <glyph glyph-name="t" unicode="t" horiz-adv-x="432" 
d="M383 51l-1 -1q-11 -26 -42 -44q-32 -18 -76 -18q-66 0 -102 40t-36 126v259h-90v24l139 178h24v-124h182v-78h-181v-246q0 -51 21 -73t61 -22q32 0 51 13t33 30z" />
    <glyph glyph-name="u" unicode="u" horiz-adv-x="583" 
d="M286 -11h-2q-37 0 -76 14q-36 13 -67 41q-30 27 -48 69t-18 100v279h74v-275q0 -71 37 -109q38 -39 97 -39q23 0 49 8q23 7 43 21q19 13 33 32q14 18 18 39v323h74v-492h-72v60q-11 -29 -49 -50q-39 -21 -93 -21z" />
    <glyph glyph-name="v" unicode="v" horiz-adv-x="522" 
d="M216 0l-197 492h83l158 -399l157 399h84l-198 -492h-87z" />
    <glyph glyph-name="w" unicode="w" horiz-adv-x="833" 
d="M577 107l151 385h85l-194 -492h-79l-124 386l-121 -386h-81l-194 492h81l149 -386l126 386h79z" />
    <glyph glyph-name="x" unicode="x" horiz-adv-x="502" 
d="M111 0h-95l188 262l-169 230h94l121 -166l120 166h95l-168 -232l190 -260h-93l-142 195z" />
    <glyph glyph-name="y" unicode="y" horiz-adv-x="531" 
d="M18 492h85l164 -388l158 388h85l-293 -705h-85l93 225z" />
    <glyph glyph-name="z" unicode="z" horiz-adv-x="454" 
d="M64 492h322v-63l-234 -349h246v-80h-342v71l228 341h-220v80z" />
    <glyph glyph-name="braceleft" unicode="{" horiz-adv-x="386" 
d="M304 628l-1 -2q-44 0 -69 -20q-24 -20 -15 -74l21 -137q8 -49 -12 -81t-51 -48q31 -16 51 -48q19 -31 12 -79l-21 -137q-9 -54 15 -75t69 -21v-90q-84 -4 -127 39q-44 43 -33 129l19 140q3 23 -2 41t-16 29q-12 12 -28 18q-20 7 -36 11v86q20 5 36 12t28 19t17 29
q5 18 2 41l-19 140q-10 86 33 129t127 39v-90z" />
    <glyph glyph-name="bar" unicode="|" horiz-adv-x="288" 
d="M184 -182h-79v900h79v-900z" />
    <glyph glyph-name="braceright" unicode="}" horiz-adv-x="386" 
d="M82 626v2v90q84 4 127 -39t33 -129l-19 -140q-3 -23 2 -41t16 -29q12 -12 28 -19q17 -7 36 -12v-86q-16 -4 -36 -11q-16 -6 -28 -18q-11 -11 -16 -29t-2 -41l19 -140q10 -86 -33 -129t-127 -39v90q45 0 69 21t15 75l-21 137q-7 48 12 79q19 32 51 48q-32 16 -51 48
t-12 81l21 137q9 54 -15 74q-25 20 -69 20z" />
    <glyph glyph-name="asciitilde" unicode="~" horiz-adv-x="554" 
d="M77 218l-5 -1q-6 18 -8 26q-3 12 -3 27q0 49 32 75t80 26q27 0 54 -11q23 -9 50 -23l46 -23q24 -11 45 -11q23 0 36 13t13 37v9q0 6 -1 10h61q6 -15 9 -27t3 -26q0 -50 -31 -75t-78 -25q-29 0 -56 11q-17 7 -49 23q-5 3 -14.5 7.5t-17 8.5t-14.5 7q-24 11 -43 11
q-49 0 -49 -51v-9q0 -6 1 -9h-61z" />
    <glyph glyph-name="uni00A0" unicode="&#xa0;" horiz-adv-x="270" 
 />
    <glyph glyph-name="exclamdown" unicode="&#xa1;" horiz-adv-x="352" 
d="M207 257l24 -483h-110l24 483h62zM242 437q0 -27 -19 -46t-46 -19t-46 19t-19 46t19 46t46 19t46 -19t19 -46z" />
    <glyph glyph-name="cent" unicode="&#xa2;" horiz-adv-x="536" 
d="M338 627l-7 -127q55 -6 93 -30t51 -49l-18 -58q-19 19 -51 36t-72 21v-353q46 3 77 21q34 19 53 40l18 -59q-14 -26 -51 -50t-96 -30v-108h-75v110q-44 8 -82 28t-67 54q-29 33 -45 76q-16 42 -16 96q0 50 17 95q17 44 45 77q28 32 68 54q37 20 83 28v128h75zM118 245h-2
q0 -65 38 -111q37 -45 101 -60v341q-62 -13 -100 -59q-37 -44 -37 -111z" />
    <glyph glyph-name="sterling" unicode="&#xa3;" horiz-adv-x="536" 
d="M260 255q0 -55 -19 -97q-19 -44 -54 -75h300v-83h-427v70q28 14 50 33t39 44q16 23 25 51q9 27 9 56q0 25 -6 49h-115v83h87q-14 33 -27 71q-12 36 -12 75q0 92 51 144q51 53 143 53q30 0 56 -9t47 -24q22 -16 36 -34q16 -21 23 -42l-35 -55q-19 31 -49 55t-82 24
q-58 0 -86 -30q-29 -31 -29 -78q0 -36 14 -75q9 -25 29 -75h146v-83h-120q6 -24 6 -48z" />
    <glyph glyph-name="currency" unicode="&#xa4;" horiz-adv-x="629" 
d="M513 620l50 -50l-78 -78q17 -27 27 -57q11 -31 11 -62q0 -36 -10 -66q-11 -31 -27 -57l78 -77l-52 -52l-79 79q-24 -17 -56 -28q-29 -10 -63 -10q-35 0 -64 10q-32 11 -56 28l-79 -79l-51 52l78 77q-17 24 -28 57q-10 30 -10 66q0 33 10 62q11 32 28 57l-78 78l51 50
l79 -78q24 17 56 28q29 10 65 10q33 0 63 -10q33 -11 57 -28zM313 492v-2q-25 0 -48 -9t-39 -25t-27 -39q-10 -21 -10 -48q0 -28 10 -49q11 -22 27 -39q16 -16 39 -25t48 -9t48 9q22 9 39 26q16 16 27 39q10 21 10 49q0 27 -10 48q-11 22 -27 39q-17 17 -39 26q-23 9 -48 9z
" />
    <glyph glyph-name="yen" unicode="&#xa5;" horiz-adv-x="511" 
d="M64 374v72h88l-117 272h83l135 -319l137 319h86l-117 -272h92v-72h-123l-33 -78h156v-71h-156v-225h-78v225h-153v71h153l-34 78h-119z" />
    <glyph glyph-name="brokenbar" unicode="&#xa6;" horiz-adv-x="288" 
d="M184 -182h-79v326h79v-326zM184 392h-79v326h79v-326z" />
    <glyph glyph-name="section" unicode="&#xa7;" horiz-adv-x="570" 
d="M411 92l3 -2q12 -8 20 -16q13 -12 20 -25q9 -16 15 -34q6 -19 6 -42q0 -37 -13 -66q-14 -30 -39 -51q-25 -20 -60 -31q-36 -11 -75 -11q-29 0 -59 8q-29 8 -54 21q-24 13 -45 32q-20 18 -30 40l20 74q13 -19 31 -33q20 -16 43 -27q22 -11 51 -19q25 -7 53 -7q18 0 36 3
q16 3 31 11q12 7 22 20q9 12 9 32q0 17 -10 31q-11 16 -28 30q-21 17 -39 29l-42 27l-56 36q-30 20 -53 36q-27 20 -48 42q-22 23 -35 50q-13 26 -13 59q0 52 26 92t66 62q-6 5 -19 18q-9 9 -19 24q-9 13 -15 32q-6 18 -6 39q0 38 13 65q14 29 37 48q24 19 57 30
q35 11 73 11q59 0 109 -27t72 -69l-21 -72q-11 15 -30 31t-40 27q-20 11 -48 19q-24 7 -51 7q-39 0 -67 -17q-27 -17 -27 -51q0 -15 9 -30q8 -14 24 -28q13 -12 35 -27q13 -9 41 -27l62 -39q27 -17 56 -38q27 -19 48 -42t33 -48t12 -57q0 -51 -24 -87q-24 -37 -67 -63z
M347 135l-1 1q38 15 58 41q19 25 19 60q0 37 -27 63t-69 54l-97 62q-35 -13 -57 -41q-21 -27 -21 -61q0 -38 27 -63q28 -27 70 -54z" />
    <glyph glyph-name="dieresis" unicode="&#xa8;" horiz-adv-x="517" 
d="M107 652q0 24 17 41t41 17t41 -17t17 -41t-17 -41t-41 -17t-41 17t-17 41zM295 652q0 24 17 41t41 17t41 -17t17 -41t-17 -41t-41 -17t-41 17t-17 41z" />
    <glyph glyph-name="copyright" unicode="&#xa9;" horiz-adv-x="825" 
d="M412 729l-1 -1q75 0 144 -29q67 -28 118 -78q52 -50 80 -117q29 -69 29 -144t-29 -144q-29 -68 -79 -118t-118 -79q-69 -29 -144 -29t-144 29q-67 28 -117 80q-50 51 -78 118q-29 69 -29 144t29 144q29 67 78 117t117 78q69 29 144 29zM411 40l-4 -1q66 0 126 26
q59 26 104 69q44 42 70 101q26 58 26 122q0 66 -25 123q-26 59 -70 102q-45 44 -103 69q-57 25 -126 25q-67 0 -124 -25q-58 -25 -103 -69q-44 -43 -70 -102q-26 -60 -26 -123q0 -64 26 -122q26 -57 71 -101t103 -69q57 -25 125 -25zM564 234l3 5q-21 -34 -66 -55t-97 -21
q-43 0 -82 15t-69 42t-48 66t-18 87t18 87q18 38 48 67q29 28 69 43q39 15 82 15q28 0 53 -6q23 -5 46 -17q21 -10 36 -24q16 -14 24 -28l-20 -60q-9 12 -24 24t-33 21t-39 15t-42 6q-36 0 -63 -10q-28 -10 -48 -29q-20 -18 -30 -45q-11 -28 -11 -60q0 -70 42 -107
q43 -38 112 -38q21 0 42 6t39 15t33 21q14 11 22 27z" />
    <glyph glyph-name="ordfeminine" unicode="&#xaa;" horiz-adv-x="393" 
d="M262 415l-2 -1q-8 11 -28 18t-48 7q-34 0 -54 -11t-20 -27q0 -19 20 -30q19 -10 56 -10q25 0 47 8t29 21v25zM54 575l-1 2q20 27 55 41q36 15 74 15q65 0 107 -33t42 -96v-205h-69v29q-12 -17 -39 -26t-56 -9q-57 0 -93 27t-36 78q0 25 11 45q10 19 29 33q18 14 42 21
q22 7 51 7q31 0 53 -7q25 -8 35 -18v11q0 32 -21 50t-64 18q-32 0 -59 -12q-28 -12 -41 -33z" />
    <glyph glyph-name="guillemotleft" unicode="&#xab;" horiz-adv-x="519" 
d="M461 91h-81l-131 174l131 175h81l-107 -175zM249 91h-81l-131 174l131 175h81l-107 -175z" />
    <glyph glyph-name="logicalnot" unicode="&#xac;" horiz-adv-x="564" 
d="M426 365h-361v77h432v-280h-71v203z" />
    <glyph glyph-name="uni00AD" unicode="&#xad;" horiz-adv-x="464" 
d="M387 312v-77h-310v77h310z" />
    <glyph glyph-name="registered" unicode="&#xae;" horiz-adv-x="825" 
d="M412 729l-1 -1q75 0 144 -29q67 -28 118 -78q52 -50 80 -117q29 -69 29 -144t-29 -144q-29 -68 -79 -118t-118 -79q-69 -29 -144 -29t-144 29q-67 28 -117 80q-50 51 -78 118q-29 69 -29 144t29 144q29 67 78 117t117 78q69 29 144 29zM411 40l-4 -1q66 0 126 26
q59 26 104 69q44 42 70 101q26 58 26 122q0 66 -25 123q-26 59 -70 102q-45 44 -103 69q-57 25 -126 25q-67 0 -124 -25q-58 -25 -103 -69q-44 -43 -70 -102q-26 -60 -26 -123q0 -64 26 -122q26 -57 71 -101t103 -69q57 -25 125 -25zM266 577h124q25 0 46 -7q24 -8 41 -22
q19 -16 29 -37q11 -24 11 -53q0 -43 -23 -72q-22 -28 -63 -39l102 -182h-75l-98 174h-30v-174h-64v412zM331 506l-2 -101h68q24 0 40 13t16 37q0 21 -15 36t-39 15h-68z" />
    <glyph glyph-name="macron" unicode="&#xaf;" horiz-adv-x="447" 
d="M363 696v-78h-278v78h278z" />
    <glyph glyph-name="degree" unicode="&#xb0;" horiz-adv-x="413" 
d="M361 575h-2q0 -31 -12 -60q-12 -28 -33 -49t-49 -33q-29 -12 -60 -12t-60 12q-28 12 -49 33t-33 49q-12 29 -12 60t12 60q12 28 33 49t50 33q28 12 60 12t60 -12q29 -12 50 -33t33 -49q12 -29 12 -60zM292 575q0 35 -24 57q-25 23 -63 23t-63 -23q-24 -22 -24 -57t24 -57
q25 -23 63 -23t63 23q24 22 24 57z" />
    <glyph glyph-name="plusminus" unicode="&#xb1;" horiz-adv-x="533" 
d="M65 0v77h403v-77h-403zM231 395v166h71v-166h166v-77h-166v-166h-71v166h-166v77h166z" />
    <glyph glyph-name="twosuperior" unicode="&#xb2;" horiz-adv-x="326" 
d="M285 371l-2 -71h-250v56l116 123q33 36 44 52q15 21 15 47q0 22 -16 37t-45 15q-28 0 -49 -15t-34 -34l-28 45q4 14 15 27q10 13 26 24t34 18t42 7q31 0 54 -9q24 -10 38 -25q16 -18 23 -37q8 -22 8 -43q0 -42 -21 -78q-19 -33 -59 -76l-61 -63h150z" />
    <glyph glyph-name="threesuperior" unicode="&#xb3;" horiz-adv-x="326" 
d="M151 363l-1 -2q34 0 54 17t20 45q0 24 -19 40t-54 16q-13 0 -25 -3q-11 -3 -19 -6l-11 49l84 101h-129v72h216v-50l-82 -101q18 -1 36 -9q19 -8 33 -22t25 -36q10 -20 10 -50q0 -28 -10 -51q-11 -25 -28 -42t-45 -28q-26 -10 -58 -10q-20 0 -40 6q-21 6 -35 15
q-13 8 -27 20q-11 10 -16 21l14 57q33 -49 107 -49z" />
    <glyph glyph-name="acute" unicode="&#xb4;" horiz-adv-x="346" 
d="M263 723l-106 -143h-74l62 143h118z" />
    <glyph glyph-name="mu" unicode="&#xb5;" horiz-adv-x="591" 
d="M294 -11l-2 -1q-38 0 -72 12t-63 36v-249h-74v705h74v-275q0 -71 37 -109q37 -39 97 -39q23 0 49 8q23 7 43 21q19 13 33 32q14 18 18 39v323h74v-492h-72v60q-11 -29 -49 -50q-39 -21 -93 -21z" />
    <glyph glyph-name="paragraph" unicode="&#xb6;" horiz-adv-x="675" 
d="M608 718v-83h-86v-803h-78v803h-88v-803h-78v508q-46 0 -86 14t-68 39t-45 60q-16 33 -16 75q0 41 14 77q13 35 39 60t60 39q36 14 75 14h357z" />
    <glyph glyph-name="periodcentered" unicode="&#xb7;" horiz-adv-x="296" 
d="M82 255l-4 -4q0 27 20 47t47 20q28 0 47 -19q20 -20 20 -46q0 -27 -19 -46t-46 -19q-26 0 -46 20q-19 19 -19 47z" />
    <glyph glyph-name="cedilla" unicode="&#xb8;" horiz-adv-x="421" 
d="M208 -47l-2 1q21 -2 37 -7q20 -7 32 -16q14 -11 23 -26t9 -34q0 -42 -31 -66q-32 -24 -76 -24q-33 0 -62 13q-31 14 -47 33l11 52q40 -32 89 -32q19 0 32 8q12 7 12 21t-12 21q-13 8 -30 8q-12 0 -17 -1q-12 -2 -17 -4l-18 32l25 82h60z" />
    <glyph glyph-name="onesuperior" unicode="&#xb9;" horiz-adv-x="261" 
d="M45 621l96 74h52v-395h-65v307l-83 -55v69z" />
    <glyph glyph-name="ordmasculine" unicode="&#xba;" horiz-adv-x="430" 
d="M388 463h-2q0 -36 -14 -69q-13 -31 -38 -54q-24 -23 -55 -36q-30 -13 -66 -13t-66 13q-31 13 -55 36q-25 23 -38 54q-14 33 -14 69t14 69q13 31 38 54q24 22 56 36q30 13 66 13t66 -13q32 -14 56 -36q25 -23 38 -54q14 -33 14 -69zM315 463h-2q0 43 -30 68q-31 26 -73 26
t-73 -26q-30 -25 -30 -68t30 -68q31 -26 74 -26t74 26q30 25 30 68z" />
    <glyph glyph-name="guillemotright" unicode="&#xbb;" horiz-adv-x="529" 
d="M351 91h-81l107 174l-107 175h81l131 -175zM139 91h-81l107 174l-107 175h81l131 -175z" />
    <glyph glyph-name="onequarter" unicode="&#xbc;" horiz-adv-x="705" 
d="M180 0h-76l428 718h75zM45 621l96 74h52v-395h-65v307l-83 -55v69zM575 395h60v-214h46v-67h-46v-114h-66v114h-163v56zM569 181v117l-87 -117h87z" />
    <glyph glyph-name="onehalf" unicode="&#xbd;" horiz-adv-x="756" 
d="M180 0h-76l428 718h75zM45 621l96 74h52v-395h-65v307l-83 -55v69zM716 71l-2 -71h-250v56l116 123q33 36 44 52q15 21 15 47q0 22 -16 37q-17 15 -45 15t-49 -15t-34 -34l-28 45q5 14 15 27t26 24t34 18t42 7q32 0 54 -9q24 -10 38 -25q16 -18 23 -37q8 -22 8 -43
q0 -42 -21 -78q-19 -33 -59 -76l-61 -63h150z" />
    <glyph glyph-name="threequarters" unicode="&#xbe;" horiz-adv-x="756" 
d="M231 0h-76l428 718h75zM626 395h60v-214h46v-67h-46v-114h-66v114h-163v56zM620 181v117l-87 -117h87zM151 363l-1 -2q34 0 54 17t20 45q0 24 -19 40t-54 16q-13 0 -25 -3q-11 -3 -19 -6l-11 49l84 101h-129v72h216v-50l-82 -101q18 -1 36 -9q19 -8 33 -22t25 -36
q10 -20 10 -50q0 -28 -10 -51q-11 -25 -28 -42t-45 -28q-26 -10 -58 -10q-20 0 -40 6q-21 6 -35 15q-13 8 -27 20q-11 10 -16 21l14 57q33 -49 107 -49z" />
    <glyph glyph-name="questiondown" unicode="&#xbf;" horiz-adv-x="465" 
d="M307 437q0 -27 -19 -46t-46 -19t-46 19t-19 46t19 46t46 19t46 -19t19 -46zM398 -142l3 2q-7 -17 -23 -37q-14 -17 -36 -31q-21 -14 -46 -21q-24 -7 -52 -7q-39 0 -70 11q-30 11 -51 30q-20 19 -31 45q-10 24 -10 54q0 33 10 54q10 22 27 42q16 18 39 34q30 20 46 30
q31 20 58 42q25 21 25 48q0 20 -16 33q-17 14 -45 14q-32 0 -55 -13t-49 -39l-13 70q5 11 15 23q10 11 27 22q15 10 37 16q21 6 46 6q31 0 54 -10q26 -11 41 -28q18 -19 26 -40q9 -22 9 -48q0 -41 -25 -79t-93 -82q-44 -29 -66 -48t-22 -45q0 -25 20 -40t60 -15q39 0 75 18
q35 18 66 56z" />
    <glyph glyph-name="Agrave" unicode="&#xc0;" horiz-adv-x="668" 
d="M655 0h-84l-68 174h-338l-67 -174h-84l281 718h81zM198 257h273l-137 350zM311 905l63 -133h-81l-105 133h123z" />
    <glyph glyph-name="Aacute" unicode="&#xc1;" horiz-adv-x="668" 
d="M655 0h-84l-68 174h-338l-67 -174h-84l281 718h81zM198 257h273l-137 350zM490 905l-106 -133h-80l63 133h123z" />
    <glyph glyph-name="Acircumflex" unicode="&#xc2;" horiz-adv-x="668" 
d="M655 0h-84l-68 174h-338l-67 -174h-84l281 718h81zM198 257h273l-137 350zM390 905l71 -133h-71l-56 60l-56 -60h-71l71 133h112z" />
    <glyph glyph-name="Atilde" unicode="&#xc3;" horiz-adv-x="668" 
d="M655 0h-84l-68 174h-338l-67 -174h-84l281 718h81zM198 257h273l-137 350zM183 781v-1q-3 7 -7 23q-3 12 -3 24q0 37 24 60q25 23 59 23q22 0 42 -9q22 -10 36 -19q11 -7 33 -19q17 -9 33 -9q17 0 26 10t9 30v7q0 5 -1 8h49q9 -24 9 -46q0 -39 -24 -61q-23 -22 -58 -22
q-22 0 -42 9q-21 10 -37 19q-12 7 -34 19q-17 9 -31 9q-17 0 -26 -10t-9 -30v-7q0 -5 1 -8h-49z" />
    <glyph glyph-name="Adieresis" unicode="&#xc4;" horiz-adv-x="668" 
d="M655 0h-84l-68 174h-338l-67 -174h-84l281 718h81zM198 257h273l-137 350zM172 842q0 27 18 45t45 18t45 -18t18 -45t-18 -45t-45 -18t-45 18t-18 45zM371 842q0 27 18 45t45 18t45 -18t18 -45t-18 -45t-45 -18t-45 18t-18 45z" />
    <glyph glyph-name="Aring" unicode="&#xc5;" horiz-adv-x="668" 
d="M655 0h-84l-68 174h-338l-67 -174h-84l281 718h81zM198 257h273l-137 350zM233 860q0 22 8 41t21 32t32 21t39 8q42 0 73 -29q30 -29 30 -72t-30 -73t-73 -30q-20 0 -39 8t-32 21q-14 13 -21 33q-8 21 -8 40zM288 860h-1q0 -20 13 -32q14 -12 33 -12t33 12t14 32t-13 32
t-33 12t-33 -12t-13 -32z" />
    <glyph glyph-name="AE" unicode="&#xc6;" horiz-adv-x="906" 
d="M846 635h-301v-224h271v-83h-271v-245h301v-83h-379v174h-280l-103 -174h-92l430 718h424v-83zM467 257v383l-230 -383h230z" />
    <glyph glyph-name="Ccedilla" unicode="&#xc7;" horiz-adv-x="698" 
d="M380 -47l-9 3q21 -2 37 -7q20 -7 32 -16q14 -11 23 -26t9 -34q0 -42 -31 -66t-76 -24q-33 0 -62 13q-31 14 -47 33l11 52q40 -32 89 -32q19 0 32 8q12 7 12 21t-12 21q-13 8 -30 8q-12 0 -17 -1q-12 -2 -17 -4l-18 32l19 62q-61 9 -113 39q-53 30 -92 77q-40 47 -62 110
q-22 62 -22 139q0 85 28 153q29 70 76 117q49 49 111 74q64 26 133 26q48 0 91 -12q44 -12 79 -31t61 -45q25 -25 37 -51l-23 -71q-41 59 -102 92t-141 33q-60 0 -110 -21q-49 -21 -85 -58q-35 -37 -55 -90q-19 -51 -19 -117q0 -63 20 -117q20 -53 55 -90q35 -36 86 -58
q50 -21 110 -21q83 0 146 36q64 36 101 90l23 -69q-14 -29 -39 -54t-60 -45q-33 -19 -78 -31q-44 -12 -91 -12z" />
    <glyph glyph-name="Egrave" unicode="&#xc8;" horiz-adv-x="531" 
d="M92 718h379v-83h-301v-224h271v-83h-271v-245h301v-83h-379v718zM286 905l63 -133h-81l-105 133h123z" />
    <glyph glyph-name="Eacute" unicode="&#xc9;" horiz-adv-x="531" 
d="M92 718h379v-83h-301v-224h271v-83h-271v-245h301v-83h-379v718zM408 905l-106 -133h-80l63 133h123z" />
    <glyph glyph-name="Ecircumflex" unicode="&#xca;" horiz-adv-x="531" 
d="M92 718h379v-83h-301v-224h271v-83h-271v-245h301v-83h-379v718zM342 905l71 -133h-71l-56 60l-56 -60h-71l71 133h112z" />
    <glyph glyph-name="Edieresis" unicode="&#xcb;" horiz-adv-x="531" 
d="M92 718h379v-83h-301v-224h271v-83h-271v-245h301v-83h-379v718zM124 842q0 27 18 45t45 18t45 -18t18 -45t-18 -45t-45 -18t-45 18t-18 45zM323 842q0 27 18 45t45 18t45 -18t18 -45t-18 -45t-45 -18t-45 18t-18 45z" />
    <glyph glyph-name="Igrave" unicode="&#xcc;" horiz-adv-x="262" 
d="M92 718h78v-718h-78v718zM107 905l63 -133h-81l-105 133h123z" />
    <glyph glyph-name="Iacute" unicode="&#xcd;" horiz-adv-x="262" 
d="M92 718h78v-718h-78v718zM280 905l-106 -133h-80l63 133h123z" />
    <glyph glyph-name="Icircumflex" unicode="&#xce;" horiz-adv-x="262" 
d="M92 718h78v-718h-78v718zM188 905l71 -133h-71l-56 60l-56 -60h-71l71 133h112z" />
    <glyph glyph-name="Idieresis" unicode="&#xcf;" horiz-adv-x="262" 
d="M92 718h78v-718h-78v718zM-30 842q0 27 18 45t45 18t45 -18t18 -45t-18 -45t-45 -18t-45 18t-18 45zM169 842q0 27 18 45t45 18t45 -18t18 -45t-18 -45t-45 -18t-45 18t-18 45z" />
    <glyph glyph-name="Eth" unicode="&#xd0;" horiz-adv-x="741" 
d="M316 718v-3q82 0 153 -24q70 -24 121 -69q52 -46 80 -112q29 -69 29 -153t-29 -151q-28 -64 -80 -112q-50 -46 -121 -70t-153 -24h-221v328h-86v83h86v307h221zM621 356l1 1q0 57 -20 108q-19 49 -56 87t-87 59q-51 21 -112 21h-174v-224h188v-83h-188v-245h174
q57 0 109 20q50 19 87 56q36 36 57 87t21 113z" />
    <glyph glyph-name="Ntilde" unicode="&#xd1;" horiz-adv-x="756" 
d="M92 718h89l405 -598v598h78v-718h-89l-405 595v-595h-78v718zM227 781v-1q-3 7 -7 23q-3 12 -3 24q0 37 24 60q25 23 59 23q22 0 42 -9q22 -10 36 -19q11 -7 33 -19q17 -9 33 -9q17 0 26 10t9 30v7q0 5 -1 8h49q9 -24 9 -46q0 -39 -24 -61q-23 -22 -58 -22q-22 0 -42 9
q-21 10 -37 19q-12 7 -34 19q-17 9 -31 9q-17 0 -26 -10t-9 -30v-7q0 -5 1 -8h-49z" />
    <glyph glyph-name="Ograve" unicode="&#xd2;" horiz-adv-x="790" 
d="M395 -11l-4 -2q-69 0 -135 29q-64 28 -112 78q-49 50 -77 117q-28 66 -28 147q0 78 29 147q28 67 77 117q48 49 113 78q66 29 135 29q72 0 135 -28q65 -29 113 -78q49 -50 77 -117q29 -69 29 -147q0 -81 -28 -147q-28 -67 -77 -117q-48 -50 -112 -78q-63 -28 -135 -28z
M391 643q-58 0 -109 -21q-49 -20 -88 -59q-37 -37 -58 -90t-21 -114t21 -114t58 -90q39 -39 88 -59q51 -21 109 -21t109 21q49 20 88 59q37 37 58 90t21 114t-21 114t-58 90q-39 39 -88 59q-51 21 -109 21zM378 903l63 -133h-81l-105 133h123z" />
    <glyph glyph-name="Oacute" unicode="&#xd3;" horiz-adv-x="790" 
d="M395 -11l-4 -2q-69 0 -135 29q-64 28 -112 78q-49 50 -77 117q-28 66 -28 147q0 78 29 147q28 67 77 117q48 49 113 78q66 29 135 29q72 0 135 -28q65 -29 113 -78q49 -50 77 -117q29 -69 29 -147q0 -81 -28 -147q-28 -67 -77 -117q-48 -50 -112 -78q-63 -28 -135 -28z
M391 643q-58 0 -109 -21q-49 -20 -88 -59q-37 -37 -58 -90t-21 -114t21 -114t58 -90q39 -39 88 -59q51 -21 109 -21t109 21q49 20 88 59q37 37 58 90t21 114t-21 114t-58 90q-39 39 -88 59q-51 21 -109 21zM526 903l-106 -133h-80l63 133h123z" />
    <glyph glyph-name="Ocircumflex" unicode="&#xd4;" horiz-adv-x="790" 
d="M395 -11l-4 -2q-69 0 -135 29q-64 28 -112 78q-49 50 -77 117q-28 66 -28 147q0 78 29 147q28 67 77 117q48 49 113 78q66 29 135 29q72 0 135 -28q65 -29 113 -78q49 -50 77 -117q29 -69 29 -147q0 -81 -28 -147q-28 -67 -77 -117q-48 -50 -112 -78q-63 -28 -135 -28z
M391 643q-58 0 -109 -21q-49 -20 -88 -59q-37 -37 -58 -90t-21 -114t21 -114t58 -90q39 -39 88 -59q51 -21 109 -21t109 21q49 20 88 59q37 37 58 90t21 114t-21 114t-58 90q-39 39 -88 59q-51 21 -109 21zM447 903l71 -133h-71l-56 60l-56 -60h-71l71 133h112z" />
    <glyph glyph-name="Otilde" unicode="&#xd5;" horiz-adv-x="790" 
d="M395 -11l-4 -2q-69 0 -135 29q-64 28 -112 78q-49 50 -77 117q-28 66 -28 147q0 78 29 147q28 67 77 117q48 49 113 78q66 29 135 29q72 0 135 -28q65 -29 113 -78q49 -50 77 -117q29 -69 29 -147q0 -81 -28 -147q-28 -67 -77 -117q-48 -50 -112 -78q-63 -28 -135 -28z
M391 643q-58 0 -109 -21q-49 -20 -88 -59q-37 -37 -58 -90t-21 -114t21 -114t58 -90q39 -39 88 -59q51 -21 109 -21t109 21q49 20 88 59q37 37 58 90t21 114t-21 114t-58 90q-39 39 -88 59q-51 21 -109 21zM240 779v-1q-3 7 -7 23q-3 12 -3 24q0 37 24 60q25 23 59 23
q23 0 42 -9q22 -10 36 -19q11 -7 33 -19q16 -9 33 -9t26 10t9 30v7q0 5 -1 8h49q9 -24 9 -46q0 -39 -24 -61q-23 -22 -58 -22q-23 0 -42 9q-21 10 -37 19q-12 7 -34 19q-17 9 -31 9q-17 0 -26 -10t-9 -30v-7q0 -5 1 -8h-49z" />
    <glyph glyph-name="Odieresis" unicode="&#xd6;" horiz-adv-x="790" 
d="M395 -11l-4 -2q-69 0 -135 29q-64 28 -112 78q-49 50 -77 117q-28 66 -28 147q0 78 29 147q28 67 77 117q48 49 113 78q66 29 135 29q72 0 135 -28q65 -29 113 -78q49 -50 77 -117q29 -69 29 -147q0 -81 -28 -147q-28 -67 -77 -117q-48 -50 -112 -78q-63 -28 -135 -28z
M391 643q-58 0 -109 -21q-49 -20 -88 -59q-37 -37 -58 -90t-21 -114t21 -114t58 -90q39 -39 88 -59q51 -21 109 -21t109 21q49 20 88 59q37 37 58 90t21 114t-21 114t-58 90q-39 39 -88 59q-51 21 -109 21zM231 840q0 27 18 45t45 18t45 -18t18 -45t-18 -45t-45 -18t-45 18
t-18 45zM430 840q0 27 18 45t45 18t45 -18t18 -45t-18 -45t-45 -18t-45 18t-18 45z" />
    <glyph glyph-name="multiply" unicode="&#xd7;" horiz-adv-x="506" 
d="M253 344l136 136l52 -52l-136 -136l136 -136l-52 -52l-136 136l-136 -136l-52 52l136 136l-136 136l52 52z" />
    <glyph glyph-name="Oslash" unicode="&#xd8;" horiz-adv-x="800" 
d="M400 -11l-4 -2q-57 0 -108 18q-50 17 -96 50l-57 -68h-100l101 120q-44 50 -68 113t-24 137q0 78 29 147q28 67 77 117q48 49 113 78q66 29 135 29q57 0 108 -18t96 -51l58 69h99l-101 -120q44 -50 69 -112t25 -137q0 -81 -28 -147q-28 -67 -77 -117q-48 -50 -112 -78
q-63 -28 -135 -28zM396 643l2 -2q-58 0 -109 -21q-49 -20 -88 -59q-37 -37 -58 -90t-21 -114q0 -56 17 -105q16 -47 48 -85l363 430q-32 22 -72 34q-39 12 -82 12zM673 355v1q0 57 -18 105q-19 50 -49 86l-362 -431q68 -45 153 -45q58 0 109 21q49 20 88 59q37 37 58 90
t21 114z" />
    <glyph glyph-name="Ugrave" unicode="&#xd9;" horiz-adv-x="736" 
d="M571 718l79 3v-430q0 -66 -19 -120q-19 -55 -57 -96t-90 -63q-51 -22 -117 -22q-63 0 -115 21t-90 60t-57 94q-20 57 -20 123v431h78v-434q0 -48 15 -87t42 -66t65 -42q37 -15 83 -15t84 15t63 42q26 28 41 66q15 39 15 87v433zM366 908l63 -133h-81l-105 133h123z" />
    <glyph glyph-name="Uacute" unicode="&#xda;" horiz-adv-x="736" 
d="M571 718l79 3v-430q0 -66 -19 -120q-19 -55 -57 -96t-90 -63q-51 -22 -117 -22q-63 0 -115 21t-90 60t-57 94q-20 57 -20 123v431h78v-434q0 -48 15 -87t42 -66t65 -42q37 -15 83 -15t84 15t63 42q26 28 41 66q15 39 15 87v433zM495 908l-106 -133h-80l63 133h123z" />
    <glyph glyph-name="Ucircumflex" unicode="&#xdb;" horiz-adv-x="736" 
d="M571 718l79 3v-430q0 -66 -19 -120q-19 -55 -57 -96t-90 -63q-51 -22 -117 -22q-63 0 -115 21t-90 60t-57 94q-20 57 -20 123v431h78v-434q0 -48 15 -87t42 -66t65 -42q37 -15 83 -15t84 15t63 42q26 28 41 66q15 39 15 87v433zM425 908l71 -133h-71l-56 60l-56 -60h-71
l71 133h112z" />
    <glyph glyph-name="Udieresis" unicode="&#xdc;" horiz-adv-x="736" 
d="M571 718l79 3v-430q0 -66 -19 -120q-19 -55 -57 -96t-90 -63q-51 -22 -117 -22q-63 0 -115 21t-90 60t-57 94q-20 57 -20 123v431h78v-434q0 -48 15 -87t42 -66t65 -42q37 -15 83 -15t84 15t63 42q26 28 41 66q15 39 15 87v433zM207 845q0 27 18 45t45 18t45 -18t18 -45
t-18 -45t-45 -18t-45 18t-18 45zM406 845q0 27 18 45t45 18t45 -18t18 -45t-18 -45t-45 -18t-45 18t-18 45z" />
    <glyph glyph-name="Yacute" unicode="&#xdd;" horiz-adv-x="542" 
d="M9 718h89l171 -325l171 325h92l-221 -420v-298h-78v298zM410 905l-106 -133h-80l63 133h123z" />
    <glyph glyph-name="Thorn" unicode="&#xde;" horiz-adv-x="545" 
d="M170 718l-1 -147h120q47 0 87 -15q42 -16 71 -43q31 -30 47 -67q17 -40 17 -88q0 -49 -16 -87q-17 -40 -45 -68q-29 -29 -69 -44q-41 -15 -90 -15h-121v-144h-78v718h78zM169 488l-1 -266h135q27 0 52 11q24 11 41 29q17 19 26 42q9 24 9 51t-9 51q-9 23 -26 42
q-18 19 -40 29q-25 11 -52 11h-135z" />
    <glyph glyph-name="germandbls" unicode="&#xdf;" 
d="M420 413h-1q58 -27 93 -80q34 -52 34 -120q0 -48 -16 -87q-17 -42 -46 -71q-30 -30 -70 -48t-88 -18q-40 0 -75 15q-34 15 -46 36l19 59q16 -14 43 -22q25 -7 55 -7q31 0 59 11t47 30q20 19 30 45q11 27 11 57q0 34 -13 60q-14 27 -36 45q-24 19 -52 29q-29 10 -63 10
h-47v78h17q59 0 93 31q35 32 35 82q0 46 -32 78t-86 32q-65 0 -96 -39q-31 -38 -31 -99v-522h-74v524q0 45 14 85t39 68t62 45t83 17q43 0 79 -15t62 -41t41 -60q15 -35 15 -74q0 -41 -15 -75q-15 -35 -44 -59z" />
    <glyph glyph-name="agrave" unicode="&#xe0;" horiz-adv-x="544" 
d="M255 503v-1q45 0 84 -12t66 -36q28 -25 44 -60t16 -82v-312h-72v47q-19 -25 -60 -42q-39 -16 -87 -16q-92 0 -144 43t-52 118q0 36 15 65t42 50q26 20 63 31q38 11 78 11q8 0 32 -2q21 -2 38 -7q20 -6 39 -15q20 -9 33 -22v31q0 68 -40 99q-41 32 -100 32q-48 0 -87 -19
q-41 -20 -63 -48l-20 66q12 18 28 32q19 16 41 26q24 11 50 17q27 6 56 6zM390 174v2q-14 26 -52 38q-39 12 -85 12q-59 0 -94 -21q-34 -21 -34 -55t33 -58t97 -24q45 0 84 17q37 16 51 44v45zM268 724l63 -143h-75l-105 143h117z" />
    <glyph glyph-name="aacute" unicode="&#xe1;" horiz-adv-x="544" 
d="M255 503v-1q45 0 84 -12t66 -36q28 -25 44 -60t16 -82v-312h-72v47q-19 -25 -60 -42q-39 -16 -87 -16q-92 0 -144 43t-52 118q0 36 15 65t42 50q26 20 63 31q38 11 78 11q8 0 32 -2q21 -2 38 -7q20 -6 39 -15q20 -9 33 -22v31q0 68 -40 99q-41 32 -100 32q-48 0 -87 -19
q-41 -20 -63 -48l-20 66q12 18 28 32q19 16 41 26q24 11 50 17q27 6 56 6zM390 174v2q-14 26 -52 38q-39 12 -85 12q-59 0 -94 -21q-34 -21 -34 -55t33 -58t97 -24q45 0 84 17q37 16 51 44v45zM394 724l-106 -143h-74l62 143h118z" />
    <glyph glyph-name="acircumflex" unicode="&#xe2;" horiz-adv-x="544" 
d="M255 503v-1q45 0 84 -12t66 -36q28 -25 44 -60t16 -82v-312h-72v47q-19 -25 -60 -42q-39 -16 -87 -16q-92 0 -144 43t-52 118q0 36 15 65t42 50q26 20 63 31q38 11 78 11q8 0 32 -2q21 -2 38 -7q20 -6 39 -15q20 -9 33 -22v31q0 68 -40 99q-41 32 -100 32q-48 0 -87 -19
q-41 -20 -63 -48l-20 66q12 18 28 32q19 16 41 26q24 11 50 17q27 6 56 6zM390 174v2q-14 26 -52 38q-39 12 -85 12q-59 0 -94 -21q-34 -21 -34 -55t33 -58t97 -24q45 0 84 17q37 16 51 44v45zM327 724l71 -143h-74l-56 70l-56 -70h-74l71 143h118z" />
    <glyph glyph-name="atilde" unicode="&#xe3;" horiz-adv-x="544" 
d="M255 503v-1q45 0 84 -12t66 -36q28 -25 44 -60t16 -82v-312h-72v47q-19 -25 -60 -42q-39 -16 -87 -16q-92 0 -144 43t-52 118q0 36 15 65t42 50q26 20 63 31q38 11 78 11q8 0 32 -2q21 -2 38 -7q20 -6 39 -15q20 -9 33 -22v31q0 68 -40 99q-41 32 -100 32q-48 0 -87 -19
q-41 -20 -63 -48l-20 66q12 18 28 32q19 16 41 26q24 11 50 17q27 6 56 6zM390 174v2q-14 26 -52 38q-39 12 -85 12q-59 0 -94 -21q-34 -21 -34 -55t33 -58t97 -24q45 0 84 17q37 16 51 44v45zM123 584l-2 -2q-3 7 -7 23q-3 12 -3 24q0 38 24 62t59 24q22 0 42 -9
q22 -10 36 -19q11 -7 31 -19q15 -9 27 -9q31 0 31 39v7q0 5 -1 8h53q9 -24 9 -46q0 -39 -24 -62q-25 -23 -58 -23q-22 0 -42 9q-22 10 -36 19q-3 2 -14 9t-16 10q-14 9 -26 9q-31 0 -31 -39v-7q0 -5 1 -8h-53z" />
    <glyph glyph-name="adieresis" unicode="&#xe4;" horiz-adv-x="544" 
d="M255 503v-1q45 0 84 -12t66 -36q28 -25 44 -60t16 -82v-312h-72v47q-19 -25 -60 -42q-39 -16 -87 -16q-92 0 -144 43t-52 118q0 36 15 65t42 50q26 20 63 31q38 11 78 11q8 0 32 -2q21 -2 38 -7q20 -6 39 -15q20 -9 33 -22v31q0 68 -40 99q-41 32 -100 32q-48 0 -87 -19
q-41 -20 -63 -48l-20 66q12 18 28 32q19 16 41 26q24 11 50 17q27 6 56 6zM390 174v2q-14 26 -52 38q-39 12 -85 12q-59 0 -94 -21q-34 -21 -34 -55t33 -58t97 -24q45 0 84 17q37 16 51 44v45zM116 653q0 24 17 41t41 17t41 -17t17 -41t-17 -41t-41 -17t-41 17t-17 41z
M304 653q0 24 17 41t41 17t41 -17t17 -41t-17 -41t-41 -17t-41 17t-17 41z" />
    <glyph glyph-name="aring" unicode="&#xe5;" horiz-adv-x="544" 
d="M255 503v-1q45 0 84 -12t66 -36q28 -25 44 -60t16 -82v-312h-72v47q-19 -25 -60 -42q-39 -16 -87 -16q-92 0 -144 43t-52 118q0 36 15 65t42 50q26 20 63 31q38 11 78 11q8 0 32 -2q21 -2 38 -7q20 -6 39 -15q20 -9 33 -22v31q0 68 -40 99q-41 32 -100 32q-48 0 -87 -19
q-41 -20 -63 -48l-20 66q12 18 28 32q19 16 41 26q24 11 50 17q27 6 56 6zM390 174v2q-14 26 -52 38q-39 12 -85 12q-59 0 -94 -21q-34 -21 -34 -55t33 -58t97 -24q45 0 84 17q37 16 51 44v45zM166 661q0 43 29 72t72 29t72 -29t29 -72t-29 -72t-72 -29t-72 29t-29 72z
M267 705q-19 0 -33 -12q-13 -12 -13 -32t13 -32q14 -12 33 -12t33 12q13 12 13 32t-13 32q-14 12 -33 12z" />
    <glyph glyph-name="ae" unicode="&#xe6;" horiz-adv-x="910" 
d="M859 255l-3 -2q0 -16 -3 -34h-391q7 -76 57 -112q49 -36 120 -36q55 0 93 16q39 17 69 48l14 -65q-8 -17 -24 -32q-18 -16 -40 -26q-25 -11 -52 -18t-60 -7q-63 0 -115 24t-87 69q-37 -50 -87 -72q-48 -22 -102 -22q-94 0 -148 42t-54 118q0 37 15 67q15 31 42 50t63 30
q38 11 78 11q8 0 32 -2q19 -2 38 -6q22 -5 39 -13q20 -9 33 -22v30q0 37 -12 63q-12 25 -33 40t-46 21q-26 6 -52 6q-45 0 -84 -18q-38 -17 -61 -47l-19 64q12 18 28 32q19 16 41 26q24 11 50 17q27 6 56 6q60 0 111 -23q49 -22 75 -69q31 43 80 69q47 25 110 25
q52 0 93 -19q42 -20 72 -54q31 -36 47 -79q17 -46 17 -96zM387 174v-1q-14 26 -52 38q-39 12 -85 12q-60 0 -94 -21t-34 -60q0 -34 33 -55t97 -21q46 0 84 20q37 19 51 47v41zM627 420l-2 -1q-29 0 -53 -7t-48 -23q-22 -14 -37 -39q-15 -24 -21 -55h310q-8 59 -48 92
q-41 33 -101 33z" />
    <glyph glyph-name="ccedilla" unicode="&#xe7;" horiz-adv-x="536" 
d="M299 -47l-7 6q21 -2 37 -7q20 -7 32 -16q14 -11 23 -26t9 -34q0 -42 -31 -66q-32 -24 -76 -24q-33 0 -62 13q-31 14 -47 33l11 52q40 -32 89 -32q19 0 32 8q12 8 12 21t-12 21q-13 8 -30 8q-12 0 -17 -1q-13 -3 -17 -4l-18 32l19 63q-42 9 -78 30t-63 54t-42 75t-15 92
q0 59 21 105t56 81t81 53q47 18 97 18q36 0 63 -7q30 -8 51 -19q24 -13 38 -27q16 -16 23 -30l-18 -60q-22 23 -60 42q-37 19 -84 19q-43 0 -79 -12q-35 -12 -61 -36q-25 -23 -40 -57q-15 -33 -15 -73t15 -73q15 -32 41 -57q25 -24 62 -36q36 -12 80 -12q52 0 87 19
q38 21 59 43l18 -60q-7 -14 -23 -30t-37 -27t-51 -19q-27 -7 -63 -7z" />
    <glyph glyph-name="egrave" unicode="&#xe8;" horiz-adv-x="571" 
d="M520 255h2q0 -16 -3 -34h-391q7 -76 57 -112q49 -36 120 -36q55 0 93 16q39 17 69 48l14 -65q-8 -17 -24 -32q-18 -16 -40 -26q-25 -11 -52 -18t-60 -7q-53 0 -99 18t-81 51t-54 81q-19 47 -19 108q0 53 17 101q17 46 48 81t75 54q45 20 99 20q52 0 93 -19q42 -20 72 -54
q31 -36 47 -79q17 -46 17 -96zM293 423l-2 -1q-29 0 -53 -7t-48 -23q-22 -14 -37 -39q-15 -24 -21 -55h310q-8 59 -48 92q-41 33 -101 33zM280 722l63 -143h-75l-105 143h117z" />
    <glyph glyph-name="eacute" unicode="&#xe9;" horiz-adv-x="571" 
d="M520 255h2q0 -16 -3 -34h-391q7 -76 57 -112q49 -36 120 -36q55 0 93 16q39 17 69 48l14 -65q-8 -17 -24 -32q-18 -16 -40 -26q-25 -11 -52 -18t-60 -7q-53 0 -99 18t-81 51t-54 81q-19 47 -19 108q0 53 17 101q17 46 48 81t75 54q45 20 99 20q52 0 93 -19q42 -20 72 -54
q31 -36 47 -79q17 -46 17 -96zM293 423l-2 -1q-29 0 -53 -7t-48 -23q-22 -14 -37 -39q-15 -24 -21 -55h310q-8 59 -48 92q-41 33 -101 33zM423 722l-106 -143h-74l62 143h118z" />
    <glyph glyph-name="ecircumflex" unicode="&#xea;" horiz-adv-x="571" 
d="M520 255h2q0 -16 -3 -34h-391q7 -76 57 -112q49 -36 120 -36q55 0 93 16q39 17 69 48l14 -65q-8 -17 -24 -32q-18 -16 -40 -26q-25 -11 -52 -18t-60 -7q-53 0 -99 18t-81 51t-54 81q-19 47 -19 108q0 53 17 101q17 46 48 81t75 54q45 20 99 20q52 0 93 -19q42 -20 72 -54
q31 -36 47 -79q17 -46 17 -96zM293 423l-2 -1q-29 0 -53 -7t-48 -23q-22 -14 -37 -39q-15 -24 -21 -55h310q-8 59 -48 92q-41 33 -101 33zM346 722l71 -143h-74l-56 70l-56 -70h-74l71 143h118z" />
    <glyph glyph-name="edieresis" unicode="&#xeb;" horiz-adv-x="571" 
d="M520 255h2q0 -16 -3 -34h-391q7 -76 57 -112q49 -36 120 -36q55 0 93 16q39 17 69 48l14 -65q-8 -17 -24 -32q-18 -16 -40 -26q-25 -11 -52 -18t-60 -7q-53 0 -99 18t-81 51t-54 81q-19 47 -19 108q0 53 17 101q17 46 48 81t75 54q45 20 99 20q52 0 93 -19q42 -20 72 -54
q31 -36 47 -79q17 -46 17 -96zM293 423l-2 -1q-29 0 -53 -7t-48 -23q-22 -14 -37 -39q-15 -24 -21 -55h310q-8 59 -48 92q-41 33 -101 33zM137 651q0 24 17 41t41 17t41 -17t17 -41t-17 -41t-41 -17t-41 17t-17 41zM325 651q0 24 17 41t41 17t41 -17t17 -41t-17 -41t-41 -17
t-41 17t-17 41z" />
    <glyph glyph-name="igrave" unicode="&#xec;" horiz-adv-x="241" 
d="M84 492h75v-492h-75v492zM94 723l63 -143h-75l-105 143h117z" />
    <glyph glyph-name="iacute" unicode="&#xed;" horiz-adv-x="241" 
d="M84 492h75v-492h-75v492zM268 723l-106 -143h-74l62 143h118z" />
    <glyph glyph-name="icircumflex" unicode="&#xee;" horiz-adv-x="241" 
d="M84 492h75v-492h-75v492zM180 723l71 -143h-74l-56 70l-56 -70h-74l71 143h118z" />
    <glyph glyph-name="idieresis" unicode="&#xef;" horiz-adv-x="241" 
d="M84 492h75v-492h-75v492zM-31 652q0 24 17 41t41 17t41 -17t17 -41t-17 -41t-41 -17t-41 17t-17 41zM157 652q0 24 17 41t41 17t41 -17t17 -41t-17 -41t-41 -17t-41 17t-17 41z" />
    <glyph glyph-name="eth" unicode="&#xf0;" horiz-adv-x="599" 
d="M472 466l-5 3q31 -49 54 -104q22 -53 22 -120q0 -53 -18 -100t-51 -81t-78 -54q-44 -19 -99 -19q-50 0 -95 18q-44 18 -79 51t-54 78q-20 46 -20 99q0 47 18 90t51 78q33 34 79 55q47 21 104 21q25 0 45 -3q21 -3 37 -10l-70 108l-118 -54l-35 69l110 49l-58 88h86
l39 -59l111 46l33 -62l-103 -46zM295 72l-1 -1q40 0 71 12t54 35t35 53t12 66t-12 66q-11 28 -35 52q-22 22 -54 34q-31 12 -71 12q-39 0 -72 -12t-55 -34q-24 -24 -35 -52q-12 -30 -12 -66t12 -66q11 -28 35 -52q23 -23 56 -35t72 -12z" />
    <glyph glyph-name="ntilde" unicode="&#xf1;" horiz-adv-x="587" 
d="M299 503l2 -3q41 0 77 -13q37 -13 68 -41q30 -27 48 -69t18 -100v-279h-74v275q0 70 -38 110q-38 39 -98 39q-23 0 -49 -8q-23 -7 -43 -21t-33 -31q-13 -18 -18 -39v-323h-74v492h72v-60q11 29 49 50q39 21 93 21zM154 580l-2 -2q-3 7 -7 23q-3 12 -3 24q0 38 24 62
t59 24q23 0 42 -9q22 -10 36 -19q11 -7 31 -19q15 -9 27 -9q31 0 31 39v7q0 5 -1 8h53q9 -24 9 -46q0 -39 -24 -62q-25 -23 -58 -23q-23 0 -42 9q-22 10 -36 19q-3 2 -14 9t-16 10q-14 9 -26 9q-31 0 -31 -39v-7q0 -5 1 -8h-53z" />
    <glyph glyph-name="ograve" unicode="&#xf2;" 
d="M51 246l-2 -2q0 54 20 102q19 46 54 81q34 34 80 54t95 20q51 0 95 -19q46 -20 80 -54q35 -34 54 -81q20 -48 20 -102t-20 -102q-19 -47 -54 -81q-35 -35 -79 -54t-95 -19q-49 0 -95 20q-44 19 -79 54t-54 81q-20 48 -20 102zM298 421h-3q-39 0 -69 -13q-32 -14 -54 -37
q-22 -24 -36 -57q-13 -32 -13 -72q0 -38 14 -72q13 -33 36 -57q22 -23 54 -37q30 -13 69 -13q38 0 70 13q35 14 56 37q22 24 36 57q14 34 14 72q0 40 -13 72q-13 33 -36 57q-22 24 -55 37q-32 13 -70 13zM276 721l63 -143h-75l-105 143h117z" />
    <glyph glyph-name="oacute" unicode="&#xf3;" 
d="M51 246l-2 -2q0 54 20 102q19 46 54 81q34 34 80 54t95 20q51 0 95 -19q46 -20 80 -54q35 -34 54 -81q20 -48 20 -102t-20 -102q-19 -47 -54 -81q-35 -35 -79 -54t-95 -19q-49 0 -95 20q-44 19 -79 54t-54 81q-20 48 -20 102zM298 421h-3q-39 0 -69 -13q-32 -14 -54 -37
q-22 -24 -36 -57q-13 -32 -13 -72q0 -38 14 -72q13 -33 36 -57q22 -23 54 -37q30 -13 69 -13q38 0 70 13q35 14 56 37q22 24 36 57q14 34 14 72q0 40 -13 72q-13 33 -36 57q-22 24 -55 37q-32 13 -70 13zM431 721l-106 -143h-74l62 143h118z" />
    <glyph glyph-name="ocircumflex" unicode="&#xf4;" 
d="M51 246l-2 -2q0 54 20 102q19 46 54 81q34 34 80 54t95 20q51 0 95 -19q46 -20 80 -54q35 -34 54 -81q20 -48 20 -102t-20 -102q-19 -47 -54 -81q-35 -35 -79 -54t-95 -19q-49 0 -95 20q-44 19 -79 54t-54 81q-20 48 -20 102zM298 421h-3q-39 0 -69 -13q-32 -14 -54 -37
q-22 -24 -36 -57q-13 -32 -13 -72q0 -38 14 -72q13 -33 36 -57q22 -23 54 -37q30 -13 69 -13q38 0 70 13q35 14 56 37q22 24 36 57q14 34 14 72q0 40 -13 72q-13 33 -36 57q-22 24 -55 37q-32 13 -70 13zM352 721l71 -143h-74l-56 70l-56 -70h-74l71 143h118z" />
    <glyph glyph-name="otilde" unicode="&#xf5;" 
d="M51 246l-2 -2q0 54 20 102q19 46 54 81q34 34 80 54t95 20q51 0 95 -19q46 -20 80 -54q35 -34 54 -81q20 -48 20 -102t-20 -102q-19 -47 -54 -81q-35 -35 -79 -54t-95 -19q-49 0 -95 20q-44 19 -79 54t-54 81q-20 48 -20 102zM298 421h-3q-39 0 -69 -13q-32 -14 -54 -37
q-22 -24 -36 -57q-13 -32 -13 -72q0 -38 14 -72q13 -33 36 -57q22 -23 54 -37q30 -13 69 -13q38 0 70 13q35 14 56 37q22 24 36 57q14 34 14 72q0 40 -13 72q-13 33 -36 57q-22 24 -55 37q-32 13 -70 13zM147 581l-2 -2q-3 7 -7 23q-3 12 -3 24q0 38 24 62t59 24q22 0 42 -9
q22 -10 36 -19q11 -7 31 -19q15 -9 27 -9q31 0 31 39v7q0 5 -1 8h53q9 -24 9 -46q0 -40 -24 -62q-25 -23 -58 -23q-22 0 -42 9q-22 10 -36 19q-3 2 -14 8.5t-16 10.5q-14 9 -26 9q-31 0 -31 -39v-7q0 -5 1 -8h-53z" />
    <glyph glyph-name="odieresis" unicode="&#xf6;" 
d="M51 246l-2 -2q0 54 20 102q19 46 54 81q34 34 80 54t95 20q51 0 95 -19q46 -20 80 -54q35 -34 54 -81q20 -48 20 -102t-20 -102q-19 -47 -54 -81q-35 -35 -79 -54t-95 -19q-49 0 -95 20q-44 19 -79 54t-54 81q-20 48 -20 102zM298 421h-3q-39 0 -69 -13q-32 -14 -54 -37
q-22 -24 -36 -57q-13 -32 -13 -72q0 -38 14 -72q13 -33 36 -57q22 -23 54 -37q30 -13 69 -13q38 0 70 13q35 14 56 37q22 24 36 57q14 34 14 72q0 40 -13 72q-13 33 -36 57q-22 24 -55 37q-32 13 -70 13zM140 650q0 24 17 41t41 17t41 -17t17 -41t-17 -41t-41 -17t-41 17
t-17 41zM328 650q0 24 17 41t41 17t41 -17t17 -41t-17 -41t-41 -17t-41 17t-17 41z" />
    <glyph glyph-name="divide" unicode="&#xf7;" horiz-adv-x="533" 
d="M201 122l-4 -4q0 27 20 47t47 20q28 0 47 -19q20 -20 20 -46q0 -27 -19 -46t-46 -19q-26 0 -46 20q-19 19 -19 47zM197 461l-4 -4q0 27 20 47t47 20q28 0 47 -19q20 -20 20 -46q0 -27 -19 -46t-46 -19q-26 0 -46 20q-19 19 -19 47zM57 323h403v-77h-403v77z" />
    <glyph glyph-name="oslash" unicode="&#xf8;" horiz-adv-x="602" 
d="M52 246l-1 -2q0 54 20 102q19 46 54 81q34 34 80 54t95 20q36 0 72 -11q34 -10 63 -30l36 42h100l-80 -92q27 -33 42 -75t15 -90q0 -54 -20 -102q-20 -47 -54 -81q-35 -35 -79 -54t-95 -19q-36 0 -72 11q-34 10 -64 30l-35 -41h-100l79 92q-26 34 -41 75q-15 42 -15 90z
M475 244l1 -2q0 31 -9 58t-25 49l-227 -264q38 -20 84 -20q38 0 70 13q35 14 56 37q23 24 36 57q14 34 14 72zM301 419l-5 2q-39 0 -69 -13q-32 -14 -54 -37q-23 -24 -36 -57q-13 -32 -13 -72q0 -31 9 -58t25 -49l227 264q-38 20 -84 20z" />
    <glyph glyph-name="ugrave" unicode="&#xf9;" horiz-adv-x="583" 
d="M286 -11h-2q-37 0 -76 14q-36 13 -67 41q-30 27 -48 69t-18 100v279h74v-275q0 -71 37 -109q38 -39 97 -39q23 0 49 8q23 7 43 21q19 13 33 32q14 18 18 39v323h74v-492h-72v60q-11 -29 -49 -50q-39 -21 -93 -21zM276 723l63 -143h-75l-105 143h117z" />
    <glyph glyph-name="uacute" unicode="&#xfa;" horiz-adv-x="583" 
d="M286 -11h-2q-37 0 -76 14q-36 13 -67 41q-30 27 -48 69t-18 100v279h74v-275q0 -71 37 -109q38 -39 97 -39q23 0 49 8q23 7 43 21q19 13 33 32q14 18 18 39v323h74v-492h-72v60q-11 -29 -49 -50q-39 -21 -93 -21zM417 723l-106 -143h-74l62 143h118z" />
    <glyph glyph-name="ucircumflex" unicode="&#xfb;" horiz-adv-x="583" 
d="M286 -11h-2q-37 0 -76 14q-36 13 -67 41q-30 27 -48 69t-18 100v279h74v-275q0 -71 37 -109q38 -39 97 -39q23 0 49 8q23 7 43 21q19 13 33 32q14 18 18 39v323h74v-492h-72v60q-11 -29 -49 -50q-39 -21 -93 -21zM350 723l71 -143h-74l-56 70l-56 -70h-74l71 143h118z
" />
    <glyph glyph-name="udieresis" unicode="&#xfc;" horiz-adv-x="583" 
d="M286 -11h-2q-37 0 -76 14q-36 13 -67 41q-30 27 -48 69t-18 100v279h74v-275q0 -71 37 -109q38 -39 97 -39q23 0 49 8q23 7 43 21q19 13 33 32q14 18 18 39v323h74v-492h-72v60q-11 -29 -49 -50q-39 -21 -93 -21zM137 652q0 24 17 41t41 17t41 -17t17 -41t-17 -41
t-41 -17t-41 17t-17 41zM325 652q0 24 17 41t41 17t41 -17t17 -41t-17 -41t-41 -17t-41 17t-17 41z" />
    <glyph glyph-name="yacute" unicode="&#xfd;" horiz-adv-x="531" 
d="M18 492h85l164 -388l158 388h85l-293 -705h-85l93 225zM389 723l-106 -143h-74l62 143h118z" />
    <glyph glyph-name="thorn" unicode="&#xfe;" horiz-adv-x="619" 
d="M85 -213l-3 943h72v-295q6 13 21 27q16 14 36 23q21 9 48 15t57 6q51 0 95 -19q46 -20 80 -54t55 -81q21 -46 21 -104t-21 -104q-21 -47 -55 -81q-35 -35 -79 -54t-95 -19q-59 0 -103 21q-43 21 -55 48v-272h-74zM491 248l-3 -2q0 42 -13 74q-14 35 -37 56q-25 23 -57 35
q-33 12 -72 12q-56 0 -100 -24q-43 -24 -55 -69v-166q12 -45 56 -69t101 -24q39 0 72 12q32 12 57 35q23 21 37 56q14 34 14 74z" />
    <glyph glyph-name="ydieresis" unicode="&#xff;" horiz-adv-x="531" 
d="M18 492h85l164 -388l158 388h85l-293 -705h-85l93 225zM112 652q0 24 17 41t41 17t41 -17t17 -41t-17 -41t-41 -17t-41 17t-17 41zM300 652q0 24 17 41t41 17t41 -17t17 -41t-17 -41t-41 -17t-41 17t-17 41z" />
    <glyph glyph-name="Amacron" unicode="&#x100;" horiz-adv-x="668" 
d="M655 0h-84l-68 174h-338l-67 -174h-84l281 718h81zM198 257h273l-137 350zM473 886v-80h-278v80h278z" />
    <glyph glyph-name="amacron" unicode="&#x101;" horiz-adv-x="544" 
d="M255 503v-1q45 0 84 -12t66 -36q28 -25 44 -60t16 -82v-312h-72v47q-19 -25 -60 -42q-39 -16 -87 -16q-92 0 -144 43t-52 118q0 36 15 65t42 50q26 20 63 31q38 11 78 11q8 0 32 -2q21 -2 38 -7q20 -6 39 -15q20 -9 33 -22v31q0 68 -40 99q-41 32 -100 32q-48 0 -87 -19
q-41 -20 -63 -48l-20 66q12 18 28 32q19 16 41 26q24 11 50 17q27 6 56 6zM390 174v2q-14 26 -52 38q-39 12 -85 12q-59 0 -94 -21q-34 -21 -34 -55t33 -58t97 -24q45 0 84 17q37 16 51 44v45zM408 697v-78h-278v78h278z" />
    <glyph glyph-name="Abreve" unicode="&#x102;" horiz-adv-x="668" 
d="M655 0h-84l-68 174h-338l-67 -174h-84l281 718h81zM198 257h273l-137 350zM334 778v-2q-31 0 -55 10q-27 11 -44 28q-18 18 -30 42q-11 23 -13 53h78q4 -21 22 -34q17 -13 43 -13q24 0 43 14q17 13 22 35h78q-2 -30 -13 -53q-12 -25 -31 -42t-45 -28q-24 -10 -55 -10z
" />
    <glyph glyph-name="abreve" unicode="&#x103;" horiz-adv-x="544" 
d="M255 503v-1q45 0 84 -12t66 -36q28 -25 44 -60t16 -82v-312h-72v47q-19 -25 -60 -42q-39 -16 -87 -16q-92 0 -144 43t-52 118q0 36 15 65t42 50q26 20 63 31q38 11 78 11q8 0 32 -2q21 -2 38 -7q20 -6 39 -15q20 -9 33 -22v31q0 68 -40 99q-41 32 -100 32q-48 0 -87 -19
q-41 -20 -63 -48l-20 66q12 18 28 32q19 16 41 26q24 11 50 17q27 6 56 6zM390 174v2q-14 26 -52 38q-39 12 -85 12q-59 0 -94 -21q-34 -21 -34 -55t33 -58t97 -24q45 0 84 17q37 16 51 44v45zM267 582v-2q-31 0 -55 10q-27 11 -44 28q-18 18 -30 42q-11 23 -13 53h78
q4 -21 22 -34q17 -13 43 -13q24 0 43 14q17 13 22 35h78q-2 -30 -13 -53q-12 -25 -31 -42t-45 -28q-24 -10 -55 -10z" />
    <glyph glyph-name="Aogonek" unicode="&#x104;" horiz-adv-x="665" 
d="M569 0l-67 172h-338l-67 -174h-84l281 718h81l279 -718q-13 -13 -24 -35q-10 -20 -10 -42q0 -25 15 -40t38 -15q15 0 26 6l12 -58q-8 -9 -22 -15q-15 -6 -37 -6q-50 0 -76 30q-25 29 -25 71q0 18 5 36q4 16 12 30q7 12 17 24q7 8 17 16h-33zM197 255h273l-137 350z" />
    <glyph glyph-name="aogonek" unicode="&#x105;" horiz-adv-x="544" 
d="M392 0l1 44q-19 -26 -60 -42q-39 -16 -87 -16q-92 0 -144 43t-52 118q0 37 15 65q15 29 42 50q26 20 63 31q38 11 78 11q8 0 32 -2q21 -2 38 -7q20 -6 39 -15q20 -9 33 -22v31q0 68 -40 99q-41 32 -100 32q-48 0 -87 -19q-41 -19 -63 -48l-20 66q12 18 28 32q19 16 41 26
q24 11 50 17q27 6 56 6q45 0 84 -12t66 -36q28 -25 44 -60t16 -82v-312q-13 -13 -24 -35q-10 -20 -10 -42q0 -25 15 -40t38 -15q15 0 26 6l12 -58q-8 -9 -22 -15q-15 -6 -37 -6q-51 0 -76 30q-25 29 -25 71q0 18 5 36q5 16 12 30q7 12 17 24q7 8 17 16h-21zM391 172v2
q-14 26 -52 38q-39 12 -85 12q-60 0 -94 -21t-34 -55t33 -58t97 -24q45 0 84 17q37 16 51 44v45z" />
    <glyph glyph-name="Cacute" unicode="&#x106;" horiz-adv-x="698" 
d="M660 130l-3 2q-13 -28 -39 -54t-61 -45t-79 -31t-92 -12q-69 0 -133 26q-62 25 -111 74q-47 47 -76 117q-28 68 -28 153t28 153q29 70 76 117q49 49 111 74q64 26 133 26q48 0 91 -12q44 -12 79 -31t61 -45q25 -25 37 -51l-23 -71q-41 59 -102 92t-141 33q-60 0 -110 -21
q-49 -21 -85 -58q-35 -37 -55 -90q-19 -51 -19 -117q0 -63 20 -117q20 -53 55 -90q35 -36 86 -58q50 -21 110 -21q83 0 146 36q64 36 101 90zM525 907l-106 -133h-80l63 133h123z" />
    <glyph glyph-name="cacute" unicode="&#x107;" horiz-adv-x="536" 
d="M485 71l-1 6q-7 -14 -23 -30q-14 -14 -38 -27q-21 -11 -52 -19q-28 -7 -66 -7q-51 0 -97 18t-81 51q-35 34 -56 81q-21 48 -21 106t21 105q21 46 56 81t81 53t97 18q36 0 63 -7q30 -8 51 -19q24 -13 38 -27q16 -16 23 -30l-18 -60q-22 22 -60 42q-37 19 -84 19
q-43 0 -79 -12q-35 -12 -61 -36q-25 -23 -40 -57q-15 -33 -15 -73t15 -73q15 -32 41 -57q25 -24 62 -36q36 -12 80 -12q52 0 87 19q38 21 59 43zM430 729l-106 -143h-74l62 143h118z" />
    <glyph glyph-name="Ccircumflex" unicode="&#x108;" horiz-adv-x="698" 
d="M660 130l-3 2q-13 -28 -39 -54t-61 -45t-79 -31t-92 -12q-69 0 -133 26q-62 25 -111 74q-47 47 -76 117q-28 68 -28 153t28 153q29 70 76 117q49 49 111 74q64 26 133 26q48 0 91 -12q44 -12 79 -31t61 -45q25 -25 37 -51l-23 -71q-41 59 -102 92t-141 33q-60 0 -110 -21
q-49 -21 -85 -58q-35 -37 -55 -90q-19 -51 -19 -117q0 -63 20 -117q20 -53 55 -90q35 -36 86 -58q50 -21 110 -21q83 0 146 36q64 36 101 90zM444 907l71 -133h-71l-56 60l-56 -60h-71l71 133h112z" />
    <glyph glyph-name="ccircumflex" unicode="&#x109;" horiz-adv-x="536" 
d="M485 71l-1 6q-7 -14 -23 -30q-14 -14 -38 -27q-21 -11 -52 -19q-28 -7 -66 -7q-51 0 -97 18t-81 51q-35 34 -56 81q-21 48 -21 106t21 105q21 46 56 81t81 53t97 18q36 0 63 -7q30 -8 51 -19q24 -13 38 -27q16 -16 23 -30l-18 -60q-22 22 -60 42q-37 19 -84 19
q-43 0 -79 -12q-35 -12 -61 -36q-25 -23 -40 -57q-15 -33 -15 -73t15 -73q15 -32 41 -57q25 -24 62 -36q36 -12 80 -12q52 0 87 19q38 21 59 43zM354 729l71 -143h-74l-56 70l-56 -70h-74l71 143h118z" />
    <glyph glyph-name="Cdotaccent" unicode="&#x10a;" horiz-adv-x="698" 
d="M660 130l-3 2q-13 -28 -39 -54t-61 -45t-79 -31t-92 -12q-69 0 -133 26q-62 25 -111 74q-47 47 -76 117q-28 68 -28 153t28 153q29 70 76 117q49 49 111 74q64 26 133 26q48 0 91 -12q44 -12 79 -31t61 -45q25 -25 37 -51l-23 -71q-41 59 -102 92t-141 33q-60 0 -110 -21
q-49 -21 -85 -58q-35 -37 -55 -90q-19 -51 -19 -117q0 -63 20 -117q20 -53 55 -90q35 -36 86 -58q50 -21 110 -21q83 0 146 36q64 36 101 90zM317 848q0 26 18 44t43 18q26 0 44 -18t18 -44t-18 -44t-44 -18q-25 0 -43 18t-18 44z" />
    <glyph glyph-name="cdotaccent" unicode="&#x10b;" horiz-adv-x="536" 
d="M485 71l-1 6q-7 -14 -23 -30q-14 -14 -38 -27q-21 -11 -52 -19q-28 -7 -66 -7q-51 0 -97 18t-81 51q-35 34 -56 81q-21 48 -21 106t21 105q21 46 56 81t81 53t97 18q36 0 63 -7q30 -8 51 -19q24 -13 38 -27q16 -16 23 -30l-18 -60q-22 22 -60 42q-37 19 -84 19
q-43 0 -79 -12q-35 -12 -61 -36q-25 -23 -40 -57q-15 -33 -15 -73t15 -73q15 -32 41 -57q25 -24 62 -36q36 -12 80 -12q52 0 87 19q38 21 59 43zM236 661q0 25 17 42t42 17t42 -17t17 -42t-17 -42t-42 -17t-42 17t-17 42z" />
    <glyph glyph-name="Ccaron" unicode="&#x10c;" horiz-adv-x="698" 
d="M660 130l-3 2q-13 -28 -39 -54t-61 -45t-79 -31t-92 -12q-69 0 -133 26q-62 25 -111 74q-47 47 -76 117q-28 68 -28 153t28 153q29 70 76 117q49 49 111 74q64 26 133 26q48 0 91 -12q44 -12 79 -31t61 -45q25 -25 37 -51l-23 -71q-41 59 -102 92t-141 33q-60 0 -110 -21
q-49 -21 -85 -58q-35 -37 -55 -90q-19 -51 -19 -117q0 -63 20 -117q20 -53 55 -90q35 -36 86 -58q50 -21 110 -21q83 0 146 36q64 36 101 90zM333 774l-71 133h71l56 -60l56 60h71l-71 -133h-112z" />
    <glyph glyph-name="ccaron" unicode="&#x10d;" horiz-adv-x="536" 
d="M485 71l-1 6q-7 -14 -23 -30q-14 -14 -38 -27q-21 -11 -52 -19q-28 -7 -66 -7q-51 0 -97 18t-81 51q-35 34 -56 81q-21 48 -21 106t21 105q21 46 56 81t81 53t97 18q36 0 63 -7q30 -8 51 -19q24 -13 38 -27q16 -16 23 -30l-18 -60q-22 22 -60 42q-37 19 -84 19
q-43 0 -79 -12q-35 -12 -61 -36q-25 -23 -40 -57q-15 -33 -15 -73t15 -73q15 -32 41 -57q25 -24 62 -36q36 -12 80 -12q52 0 87 19q38 21 59 43zM236 586l-71 143h74l56 -70l56 70h74l-71 -143h-118z" />
    <glyph glyph-name="Dcaron" unicode="&#x10e;" horiz-adv-x="738" 
d="M618 359l1 1q0 57 -20 108q-19 49 -56 87t-87 59q-51 21 -112 21h-174v-552h174q57 0 109 20q50 19 87 56q36 36 57 87t21 113zM314 719v-3q82 0 153 -24q70 -24 121 -69q52 -46 80 -112q29 -69 29 -153t-29 -151q-28 -64 -80 -112q-50 -46 -121 -70t-153 -24h-221v718
h221zM290 770l-71 133h71l56 -60l56 60h71l-71 -133h-112z" />
    <glyph glyph-name="dcaron" unicode="&#x10f;" horiz-adv-x="730" 
d="M534 728l-1 -733h-72v59q-6 -14 -21 -26t-36 -21t-48 -15t-57 -6q-51 0 -95 19t-79 54q-34 34 -55 81q-21 46 -21 104t21 104q21 47 55 81t80 54q44 19 95 19q60 0 104 -21t56 -48v295h74zM124 241l-3 -2q0 -39 14 -73q13 -33 37 -55q25 -23 57 -35q33 -12 72 -12
q57 0 101 24t56 69v166q-12 45 -55 69q-44 24 -100 24q-39 0 -72 -12q-32 -12 -57 -35q-24 -22 -37 -55q-13 -32 -13 -73zM660 602l2 -1q-15 7 -27 21t-12 36q0 28 18 45q19 17 42 17q25 0 44 -17q18 -17 18 -45q0 -23 -10 -40q-7 -12 -21 -34l-43 -77h-56z" />
    <glyph glyph-name="Dcroat" unicode="&#x110;" horiz-adv-x="741" 
d="M316 718v-3q82 0 153 -24q70 -24 121 -69q52 -46 80 -112q29 -69 29 -153t-29 -151q-28 -64 -80 -112q-50 -46 -121 -70t-153 -24h-221v328h-86v83h86v307h221zM621 356l1 1q0 57 -20 108q-19 49 -56 87t-87 59q-51 21 -112 21h-174v-224h188v-83h-188v-245h174
q57 0 109 20q50 19 87 56q36 36 57 87t21 113z" />
    <glyph glyph-name="dcroat" unicode="&#x111;" horiz-adv-x="624" 
d="M534 573l-1 -578h-72v59q-6 -14 -21 -26t-36 -21t-48 -15t-57 -6q-51 0 -95 19t-79 54q-34 34 -55 81q-21 46 -21 104t21 104q21 47 55 81t80 54q44 19 95 19q60 0 104 -21t56 -48v140h-146v78h146v77h74v-77h82v-78h-82zM124 241l-3 -2q0 -39 14 -73q13 -33 37 -55
q25 -23 57 -35q33 -12 72 -12q57 0 101 24t56 69v166q-12 45 -55 69q-44 24 -100 24q-39 0 -72 -12q-32 -12 -57 -35q-24 -22 -37 -55q-13 -32 -13 -73z" />
    <glyph glyph-name="Emacron" unicode="&#x112;" horiz-adv-x="531" 
d="M92 718h379v-83h-301v-224h271v-83h-271v-245h301v-83h-379v718zM421 886v-80h-278v80h278z" />
    <glyph glyph-name="emacron" unicode="&#x113;" horiz-adv-x="571" 
d="M520 255h2q0 -16 -3 -34h-391q7 -76 57 -112q49 -36 120 -36q55 0 93 16q39 17 69 48l14 -65q-8 -17 -24 -32q-18 -16 -40 -26q-25 -11 -52 -18t-60 -7q-53 0 -99 18t-81 51t-54 81q-19 47 -19 108q0 53 17 101q17 46 48 81t75 54q45 20 99 20q52 0 93 -19q42 -20 72 -54
q31 -36 47 -79q17 -46 17 -96zM293 423l-2 -1q-29 0 -53 -7t-48 -23q-22 -14 -37 -39q-15 -24 -21 -55h310q-8 59 -48 92q-41 33 -101 33zM434 695v-78h-278v78h278z" />
    <glyph glyph-name="Ebreve" unicode="&#x114;" horiz-adv-x="531" 
d="M92 718h379v-83h-301v-224h271v-83h-271v-245h301v-83h-379v718zM281 778v-2q-31 0 -55 10q-27 11 -44 28q-18 18 -30 42q-11 23 -13 53h78q4 -21 22 -34q17 -13 43 -13q24 0 43 14q17 13 22 35h78q-2 -30 -13 -53q-12 -25 -31 -42t-45 -28q-24 -10 -55 -10z" />
    <glyph glyph-name="ebreve" unicode="&#x115;" horiz-adv-x="571" 
d="M520 255h2q0 -16 -3 -34h-391q7 -76 57 -112q49 -36 120 -36q55 0 93 16q39 17 69 48l14 -65q-8 -17 -24 -32q-18 -16 -40 -26q-25 -11 -52 -18t-60 -7q-53 0 -99 18t-81 51t-54 81q-19 47 -19 108q0 53 17 101q17 46 48 81t75 54q45 20 99 20q52 0 93 -19q42 -20 72 -54
q31 -36 47 -79q17 -46 17 -96zM293 423l-2 -1q-29 0 -53 -7t-48 -23q-22 -14 -37 -39q-15 -24 -21 -55h310q-8 59 -48 92q-41 33 -101 33zM291 580v-2q-31 0 -55 10q-27 11 -44 28q-18 18 -30 42q-11 23 -13 53h78q4 -21 22 -34q17 -13 43 -13q24 0 43 14q17 13 22 35h78
q-2 -30 -13 -53q-12 -25 -31 -42t-45 -28q-24 -10 -55 -10z" />
    <glyph glyph-name="Edotaccent" unicode="&#x116;" horiz-adv-x="531" 
d="M92 718h379v-83h-301v-224h271v-83h-271v-245h301v-83h-379v718zM220 846q0 26 18 44t43 18q26 0 44 -18t18 -44t-18 -44t-44 -18q-25 0 -43 18t-18 44z" />
    <glyph glyph-name="edotaccent" unicode="&#x117;" horiz-adv-x="571" 
d="M520 255h2q0 -16 -3 -34h-391q7 -76 57 -112q49 -36 120 -36q55 0 93 16q39 17 69 48l14 -65q-8 -17 -24 -32q-18 -16 -40 -26q-25 -11 -52 -18t-60 -7q-53 0 -99 18t-81 51t-54 81q-19 47 -19 108q0 53 17 101q17 46 48 81t75 54q45 20 99 20q52 0 93 -19q42 -20 72 -54
q31 -36 47 -79q17 -46 17 -96zM293 423l-2 -1q-29 0 -53 -7t-48 -23q-22 -14 -37 -39q-15 -24 -21 -55h310q-8 59 -48 92q-41 33 -101 33zM234 654q0 25 17 42t42 17t42 -17t17 -42t-17 -42t-42 -17t-42 17t-17 42z" />
    <glyph glyph-name="Eogonek" unicode="&#x118;" horiz-adv-x="531" 
d="M92 718l380 -2v-83h-301v-224h271v-83h-271v-245h301v-83q-13 -13 -24 -35q-10 -20 -10 -42q0 -25 15 -40t38 -15q15 0 26 6l12 -58q-8 -9 -22 -15q-15 -6 -37 -6q-50 0 -76 30q-25 29 -25 71q0 18 5 36q4 16 12 30q7 12 17 24q7 8 17 16h-328v718z" />
    <glyph glyph-name="eogonek" unicode="&#x119;" horiz-adv-x="563" 
d="M520 255l-2 -1q0 -16 -3 -34h-391q7 -76 57 -112q49 -36 120 -36q55 0 93 16q39 16 69 48l14 -65q-7 -10 -18.5 -27.5t-15.5 -22.5q-16 -23 -16 -54q0 -24 15 -39t38 -15q15 0 26 6l12 -58q-8 -9 -22 -15q-15 -6 -37 -6q-51 0 -76 30q-25 29 -25 71q0 30 13 57
q-31 -9 -66 -9q-53 0 -99 18t-81 51t-54 81q-19 47 -19 108q0 53 17 101q17 46 48 81t75 54q45 20 99 20q52 0 93 -19q42 -20 72 -54q31 -36 47 -79q17 -46 17 -96zM289 422l-2 -1q-29 0 -53 -7t-48 -23q-22 -14 -37 -39q-15 -24 -21 -55h310q-8 59 -48 92t-101 33z" />
    <glyph glyph-name="Ecaron" unicode="&#x11a;" horiz-adv-x="531" 
d="M92 718h379v-83h-301v-224h271v-83h-271v-245h301v-83h-379v718zM226 772l-71 133h71l56 -60l56 60h71l-71 -133h-112z" />
    <glyph glyph-name="ecaron" unicode="&#x11b;" horiz-adv-x="571" 
d="M520 255h2q0 -16 -3 -34h-391q7 -76 57 -112q49 -36 120 -36q55 0 93 16q39 17 69 48l14 -65q-8 -17 -24 -32q-18 -16 -40 -26q-25 -11 -52 -18t-60 -7q-53 0 -99 18t-81 51t-54 81q-19 47 -19 108q0 53 17 101q17 46 48 81t75 54q45 20 99 20q52 0 93 -19q42 -20 72 -54
q31 -36 47 -79q17 -46 17 -96zM293 423l-2 -1q-29 0 -53 -7t-48 -23q-22 -14 -37 -39q-15 -24 -21 -55h310q-8 59 -48 92q-41 33 -101 33zM233 579l-71 143h74l56 -70l56 70h74l-71 -143h-118z" />
    <glyph glyph-name="Gcircumflex" unicode="&#x11c;" horiz-adv-x="727" 
d="M388 729l-3 2q47 0 91 -12t79 -31t61 -45q25 -25 37 -51l-23 -71q-41 59 -102 92q-62 33 -141 33q-60 0 -111 -20q-50 -20 -84 -57t-54 -90q-19 -51 -19 -117t20 -121q19 -52 56 -91q36 -38 87 -57q50 -19 111 -19q57 0 106 18t87 54v130h-198v83h277v-236
q-18 -30 -48 -54q-29 -23 -68 -42q-36 -17 -79 -28q-40 -10 -82 -10q-70 0 -134 26q-63 26 -110 74q-47 49 -74 116t-27 152q0 84 27 153q27 68 74 117q46 48 110 75q63 27 134 27zM442 907l71 -133h-71l-56 60l-56 -60h-71l71 133h112z" />
    <glyph glyph-name="gcircumflex" unicode="&#x11d;" horiz-adv-x="604" 
d="M521 492l1 -512q0 -46 -16 -82q-16 -37 -46 -64t-72 -42t-91 -15q-62 0 -120 23q-56 22 -88 74l21 69q32 -42 78 -63t99 -21q29 0 57 6t51 23t38 47t15 78v56q-6 -13 -21 -25t-36 -21t-48 -15t-57 -6q-50 0 -95 18q-44 18 -79 51q-34 33 -55 79t-21 102t21 102
q22 48 55 80q34 33 80 51q45 18 95 18q30 0 57 -6q29 -6 48 -16q23 -11 36 -22q15 -12 21 -25v58h72zM448 333h-3q-12 44 -55 68t-100 24q-39 0 -72 -12q-34 -12 -57 -34t-37 -54q-13 -30 -13 -72q0 -39 14 -72q14 -32 37 -54t57 -34q33 -12 72 -12q57 0 101 24t56 68v160z
M359 725l71 -143h-74l-56 70l-56 -70h-74l71 143h118z" />
    <glyph glyph-name="Gbreve" unicode="&#x11e;" horiz-adv-x="727" 
d="M388 729l-3 2q47 0 91 -12t79 -31t61 -45q25 -25 37 -51l-23 -71q-41 59 -102 92q-62 33 -141 33q-60 0 -111 -20q-50 -20 -84 -57t-54 -90q-19 -51 -19 -117t20 -121q19 -52 56 -91q36 -38 87 -57q50 -19 111 -19q57 0 106 18t87 54v130h-198v83h277v-236
q-18 -30 -48 -54q-29 -23 -68 -42q-36 -17 -79 -28q-40 -10 -82 -10q-70 0 -134 26q-63 26 -110 74q-47 49 -74 116t-27 152q0 84 27 153q27 68 74 117q46 48 110 75q63 27 134 27zM387 780v-2q-31 0 -55 10q-27 11 -44 28q-18 18 -30 42q-11 23 -13 53h78q4 -21 22 -34
q17 -13 43 -13q24 0 43 14q17 13 22 35h78q-2 -30 -13 -53q-12 -25 -31 -42t-45 -28q-24 -10 -55 -10z" />
    <glyph glyph-name="gbreve" unicode="&#x11f;" horiz-adv-x="604" 
d="M521 492l1 -512q0 -46 -16 -82q-16 -37 -46 -64t-72 -42t-91 -15q-62 0 -120 23q-56 22 -88 74l21 69q32 -42 78 -63t99 -21q29 0 57 6t51 23t38 47t15 78v56q-6 -13 -21 -25t-36 -21t-48 -15t-57 -6q-50 0 -95 18q-44 18 -79 51q-34 33 -55 79t-21 102t21 102
q22 48 55 80q34 33 80 51q45 18 95 18q30 0 57 -6q29 -6 48 -16q23 -11 36 -22q15 -12 21 -25v58h72zM448 333h-3q-12 44 -55 68t-100 24q-39 0 -72 -12q-34 -12 -57 -34t-37 -54q-13 -30 -13 -72q0 -39 14 -72q14 -32 37 -54t57 -34q33 -12 72 -12q57 0 101 24t56 68v160z
M298 583v-2q-31 0 -55 10q-27 11 -44 28q-18 18 -30 42q-11 23 -13 53h78q4 -21 22 -34q17 -13 43 -13q24 0 43 14q17 13 22 35h78q-2 -30 -13 -53q-12 -25 -31 -42t-45 -28q-24 -10 -55 -10z" />
    <glyph glyph-name="Gdotaccent" unicode="&#x120;" horiz-adv-x="727" 
d="M388 729l-3 2q47 0 91 -12t79 -31t61 -45q25 -25 37 -51l-23 -71q-41 59 -102 92q-62 33 -141 33q-60 0 -111 -20q-50 -20 -84 -57t-54 -90q-19 -51 -19 -117t20 -121q19 -52 56 -91q36 -38 87 -57q50 -19 111 -19q57 0 106 18t87 54v130h-198v83h277v-236
q-18 -30 -48 -54q-29 -23 -68 -42q-36 -17 -79 -28q-40 -10 -82 -10q-70 0 -134 26q-63 26 -110 74q-47 49 -74 116t-27 152q0 84 27 153q27 68 74 117q46 48 110 75q63 27 134 27zM317 848q0 26 18 44t43 18q26 0 44 -18t18 -44t-18 -44t-44 -18q-25 0 -43 18t-18 44z" />
    <glyph glyph-name="gdotaccent" unicode="&#x121;" horiz-adv-x="604" 
d="M521 492l1 -512q0 -46 -16 -82q-16 -37 -46 -64t-72 -42t-91 -15q-62 0 -120 23q-56 22 -88 74l21 69q32 -42 78 -63t99 -21q29 0 57 6t51 23t38 47t15 78v56q-6 -13 -21 -25t-36 -21t-48 -15t-57 -6q-50 0 -95 18q-44 18 -79 51q-34 33 -55 79t-21 102t21 102
q22 48 55 80q34 33 80 51q45 18 95 18q30 0 57 -6q29 -6 48 -16q23 -11 36 -22q15 -12 21 -25v58h72zM448 333h-3q-12 44 -55 68t-100 24q-39 0 -72 -12q-34 -12 -57 -34t-37 -54q-13 -30 -13 -72q0 -39 14 -72q14 -32 37 -54t57 -34q33 -12 72 -12q57 0 101 24t56 68v160z
M241 657q0 25 17 42t42 17t42 -17t17 -42t-17 -42t-42 -17t-42 17t-17 42z" />
    <glyph glyph-name="uni0122" unicode="&#x122;" horiz-adv-x="727" 
d="M388 729l-3 2q47 0 91 -12t79 -31t61 -45q25 -25 37 -51l-23 -71q-41 59 -102 92q-62 33 -141 33q-60 0 -111 -20q-50 -20 -84 -57t-54 -90q-19 -51 -19 -117t20 -121q19 -52 56 -91q36 -38 87 -57q50 -19 111 -19q57 0 106 18t87 54v130h-198v83h277v-236
q-18 -30 -48 -54q-29 -23 -68 -42q-36 -17 -79 -28q-40 -10 -82 -10q-70 0 -134 26q-63 26 -110 74q-47 49 -74 116t-27 152q0 84 27 153q27 68 74 117q46 48 110 75q63 27 134 27zM368 -185l2 -1q-15 8 -27 21t-12 36q0 29 18 45q19 17 42 17q25 0 44 -17q18 -16 18 -45
q0 -23 -10 -40q-7 -12 -21 -34l-43 -77h-56z" />
    <glyph glyph-name="uni0123" unicode="&#x123;" horiz-adv-x="604" 
d="M521 492l1 -512q0 -46 -16 -82q-16 -37 -46 -64t-72 -42t-91 -15q-62 0 -120 23q-56 22 -88 74l21 69q32 -42 78 -63t99 -21q29 0 57 6t51 23t38 47t15 78v56q-6 -13 -21 -25t-36 -21t-48 -15t-57 -6q-50 0 -95 18q-44 18 -79 51q-34 33 -55 79t-21 102t21 102
q22 48 55 80q34 33 80 51q45 18 95 18q30 0 57 -6q29 -6 48 -16q23 -11 36 -22q15 -12 21 -25v58h72zM448 333h-3q-12 44 -55 68t-100 24q-39 0 -72 -12q-34 -12 -57 -34t-37 -54q-13 -30 -13 -72q0 -39 14 -72q14 -32 37 -54t57 -34q33 -12 72 -12q57 0 101 24t56 68v160z
M313 714l-2 1q15 -7 27 -21t12 -36q0 -28 -18 -45q-19 -17 -42 -17q-25 0 -44 17q-18 17 -18 45q0 23 10 40q7 12 21 34l43 77h56z" />
    <glyph glyph-name="Hcircumflex" unicode="&#x124;" horiz-adv-x="753" 
d="M92 718h78v-307h413v307h78v-718h-78v328h-413v-328h-78v718zM432 905l71 -133h-71l-56 60l-56 -60h-71l71 133h112z" />
    <glyph glyph-name="hcircumflex" unicode="&#x125;" horiz-adv-x="587" 
d="M159 0l-73 -2v728h74v-296q11 29 48 50q38 21 93 21q41 0 77 -13q39 -14 68 -40q30 -27 48 -69t18 -100v-280h-74v277q0 70 -39 108q-40 38 -97 38q-27 0 -49 -7q-23 -7 -43 -21t-33 -31q-14 -18 -18 -40v-323zM361 913l71 -143h-74l-56 70l-56 -70h-74l71 143h118z" />
    <glyph glyph-name="Hbar" unicode="&#x126;" horiz-adv-x="773" 
d="M17 614h86v104h78v-104h413v104h78v-104h84v-83h-84v-531h-78v328h-413v-328h-78v531h-86v83zM594 411v120h-413v-120h413z" />
    <glyph glyph-name="hbar" unicode="&#x127;" horiz-adv-x="591" 
d="M440 0l1 260q0 70 -39 108q-40 38 -97 38q-27 0 -49 -7q-23 -7 -43 -21t-33 -31q-14 -18 -18 -40v-308h-74v573h-81v78h81v77h74v-77h147v-78h-147v-156q11 29 48 50q38 21 93 21q41 0 77 -13q39 -14 68 -40q30 -27 48 -69t18 -100v-265h-74z" />
    <glyph glyph-name="Itilde" unicode="&#x128;" horiz-adv-x="262" 
d="M92 718h78v-718h-78v718zM-19 781v-1q-3 7 -7 23q-3 12 -3 24q0 37 24 60q25 23 59 23q22 0 42 -9q22 -10 36 -19q11 -7 33 -19q17 -9 33 -9q17 0 26 10t9 30v7q0 5 -1 8h49q9 -24 9 -46q0 -39 -24 -61q-23 -22 -58 -22q-22 0 -42 9q-21 10 -37 19q-12 7 -34 19
q-17 9 -31 9q-17 0 -26 -10t-9 -30v-7q0 -5 1 -8h-49z" />
    <glyph glyph-name="itilde" unicode="&#x129;" horiz-adv-x="241" 
d="M84 492h75v-492h-75v492zM-25 583l-2 -2q-3 7 -7 23q-3 12 -3 24q0 38 24 62t59 24q22 0 42 -9q22 -10 36 -19q11 -7 31 -19q15 -9 27 -9q31 0 31 39v7q0 5 -1 8h53q9 -24 9 -46q0 -40 -24 -62q-25 -23 -58 -23q-22 0 -42 9q-22 10 -36 19q-3 2 -14 8.5t-16 10.5
q-14 9 -26 9q-31 0 -31 -39v-7q0 -5 1 -8h-53z" />
    <glyph glyph-name="Imacron" unicode="&#x12a;" horiz-adv-x="262" 
d="M92 718h78v-718h-78v718zM271 886v-80h-278v80h278z" />
    <glyph glyph-name="imacron" unicode="&#x12b;" horiz-adv-x="241" 
d="M84 492h75v-492h-75v492zM260 696v-78h-278v78h278z" />
    <glyph glyph-name="Ibreve" unicode="&#x12c;" horiz-adv-x="262" 
d="M92 718h78v-718h-78v718zM132 778v-2q-31 0 -55 10q-27 11 -44 28q-18 18 -30 42q-11 23 -13 53h78q4 -21 22 -34q17 -13 43 -13q24 0 43 14q17 13 22 35h78q-2 -30 -13 -53q-12 -25 -31 -42t-45 -28q-24 -10 -55 -10z" />
    <glyph glyph-name="ibreve" unicode="&#x12d;" horiz-adv-x="241" 
d="M84 492h75v-492h-75v492zM121 581v-2q-31 0 -55 10q-27 11 -44 28q-18 18 -30 42q-11 23 -13 53h78q4 -21 22 -34q17 -13 43 -13q24 0 43 14q17 13 22 35h78q-2 -30 -13 -53q-12 -25 -31 -42t-45 -28q-24 -10 -55 -10z" />
    <glyph glyph-name="Iogonek" unicode="&#x12e;" horiz-adv-x="262" 
d="M92 718l79 -2v-718q-13 -13 -24 -35q-10 -20 -10 -42q0 -25 15 -40t38 -15q16 0 26 6l12 -58q-8 -9 -22 -15q-15 -6 -37 -6q-50 0 -76 30q-25 29 -25 71q0 18 5 36q5 16 12 30q7 12 17 24q7 8 17 16h-27v718z" />
    <glyph glyph-name="iogonek" unicode="&#x12f;" horiz-adv-x="240" 
d="M83 492l75 -2v-492q-13 -13 -24 -35q-10 -20 -10 -42q0 -25 15 -40t38 -15q15 0 26 6l12 -58q-8 -9 -22 -15q-15 -6 -37 -6q-50 0 -76 30q-25 29 -25 71q0 18 5 36q4 16 12 30q7 12 17 24q7 8 17 16h-23v492zM62 653q0 25 17 42t42 17t42 -17t17 -42t-17 -42t-42 -17
t-42 17t-17 42z" />
    <glyph glyph-name="Idotaccent" unicode="&#x130;" horiz-adv-x="262" 
d="M92 718h78v-718h-78v718zM71 846q0 26 18 44t43 18q26 0 44 -18t18 -44t-18 -44t-44 -18q-25 0 -43 18t-18 44z" />
    <glyph glyph-name="dotlessi" unicode="&#x131;" horiz-adv-x="241" 
d="M84 492h75v-492h-75v492z" />
    <glyph glyph-name="IJ" unicode="&#x132;" horiz-adv-x="539" 
d="M92 718h78v-416h-78v416zM452 193l-1 -1q0 -45 -11 -84q-10 -36 -35 -64q-24 -27 -62 -42q-37 -15 -90 -15q-35 0 -60 7q-28 8 -47 18q-20 10 -33 24q-14 14 -21 25l9 77q30 -36 68 -51t83 -15q58 0 90 33q32 34 32 107v506h78v-525z" />
    <glyph glyph-name="ij" unicode="&#x133;" horiz-adv-x="493" 
d="M85 492h74v-492h-74v492zM63 655q0 25 17 42t42 17t42 -17t17 -42t-17 -42t-42 -17t-42 17t-17 42zM336 492l74 1v-563q0 -153 -112 -153q-18 0 -43 6q-24 6 -40 26l7 65q10 -10 26 -15q13 -4 26 -4q38 0 50 24t12 68v545zM314 656q0 25 17 42t42 17t42 -17t17 -42
t-17 -42t-42 -17t-42 17t-17 42z" />
    <glyph glyph-name="Jcircumflex" unicode="&#x134;" horiz-adv-x="395" 
d="M308 176l1 1q0 -89 -39 -138t-126 -49q-27 0 -48 6t-36 15q-14 8 -25 21q-10 12 -15 23l8 79q23 -28 51 -44q29 -17 63 -17q42 0 65 26t23 92v527h78v-542zM325 906l71 -133h-71l-56 60l-56 -60h-71l71 133h112z" />
    <glyph glyph-name="jcircumflex" unicode="&#x135;" horiz-adv-x="248" 
d="M90 492h76v-563q0 -153 -112 -153q-16 0 -40 9q-25 9 -42 28l5 63q9 -6 24 -13q13 -6 24 -6q37 0 51 24q14 25 14 66v545zM188 698l71 -142h-73l-57 69l-56 -69h-73l70 142h118z" />
    <glyph glyph-name="uni0136" unicode="&#x136;" horiz-adv-x="628" 
d="M92 718h78v-332l310 332h104l-327 -351l361 -367h-115l-333 337v-337h-78v718zM305 -187l2 -1q-15 8 -27 21t-12 36q0 29 18 45q19 17 42 17q25 0 44 -17q18 -16 18 -45q0 -23 -10 -40q-7 -12 -21 -34l-43 -77h-56z" />
    <glyph glyph-name="uni0137" unicode="&#x137;" horiz-adv-x="528" 
d="M85 728h74v-442l227 206h108l-253 -230l279 -262h-113l-248 231v-231h-74v728zM265 -187l2 -1q-15 8 -27 21t-12 36q0 29 18 45q19 17 42 17q25 0 44 -17q18 -16 18 -45q0 -23 -10 -40q-7 -12 -21 -34l-43 -77h-56z" />
    <glyph glyph-name="kgreenlandic" unicode="&#x138;" horiz-adv-x="531" 
d="M85 492h74v-216l234 216h107l-260 -239l283 -253h-120l-244 222v-222h-74v492z" />
    <glyph glyph-name="Lacute" unicode="&#x139;" horiz-adv-x="475" 
d="M92 718h78v-635h285v-83h-363v718zM279 905l-106 -133h-80l63 133h123z" />
    <glyph glyph-name="lacute" unicode="&#x13a;" horiz-adv-x="244" 
d="M85 728h74v-728h-74v728zM272 905l-106 -133h-80l63 133h123z" />
    <glyph glyph-name="uni013B" unicode="&#x13b;" horiz-adv-x="475" 
d="M92 718h78v-635h285v-83h-363v718zM259 -187l2 -1q-15 8 -27 21t-12 36q0 29 18 45q19 17 42 17q25 0 44 -17q18 -16 18 -45q0 -23 -10 -40q-7 -12 -21 -34l-43 -77h-56z" />
    <glyph glyph-name="uni013C" unicode="&#x13c;" horiz-adv-x="244" 
d="M85 728h74v-728h-74v728zM99 -187l2 -1q-15 8 -27 21t-12 36q0 29 18 45q19 17 42 17q25 0 44 -17q18 -16 18 -45q0 -23 -10 -40q-7 -12 -21 -34l-43 -77h-56z" />
    <glyph glyph-name="Lcaron" unicode="&#x13d;" horiz-adv-x="489" 
d="M92 718h78v-635h285v-83h-363v718zM345 609l2 -1q-15 8 -27 21t-12 36q0 29 18 45q19 17 42 17q25 0 44 -17q18 -16 18 -45q0 -23 -10 -40q-7 -12 -21 -34l-43 -77h-56z" />
    <glyph glyph-name="lcaron" unicode="&#x13e;" horiz-adv-x="355" 
d="M85 728h74v-728h-74v728zM289 609l2 -1q-15 8 -27 21t-12 36q0 29 18 45q19 17 42 17q25 0 44 -17q18 -16 18 -45q0 -23 -10 -40q-7 -12 -21 -34l-43 -77h-56z" />
    <glyph glyph-name="Ldot" unicode="&#x13f;" horiz-adv-x="523" 
d="M92 718h78v-635h285v-83h-363v718zM326 389q0 26 18 44t43 18q26 0 44 -18t18 -44t-18 -44t-44 -18q-25 0 -43 18t-18 44z" />
    <glyph glyph-name="ldot" unicode="&#x140;" horiz-adv-x="386" 
d="M85 728h74v-728h-74v728zM257 358q0 25 17 42t42 17t42 -17t17 -42t-17 -42t-42 -17t-42 17t-17 42z" />
    <glyph glyph-name="Lslash" unicode="&#x141;" horiz-adv-x="483" 
d="M100 270l-90 -48v93l90 49v354h78v-311l193 107v-94l-193 -107v-230h285v-83h-363v270z" />
    <glyph glyph-name="lslash" unicode="&#x142;" horiz-adv-x="371" 
d="M148 321l-95 -51v91l95 52v315h74v-274l95 52v-92l-95 -52v-362h-74v321z" />
    <glyph glyph-name="Nacute" unicode="&#x143;" horiz-adv-x="756" 
d="M92 718h89l405 -598v598h78v-718h-89l-405 595v-595h-78v718zM509 905l-106 -133h-80l63 133h123z" />
    <glyph glyph-name="nacute" unicode="&#x144;" horiz-adv-x="587" 
d="M299 503l2 -3q41 0 77 -13q37 -13 68 -41q30 -27 48 -69t18 -100v-279h-74v275q0 70 -38 110q-38 39 -98 39q-23 0 -49 -8q-23 -7 -43 -21t-33 -31q-13 -18 -18 -39v-323h-74v492h72v-60q11 29 49 50q39 21 93 21zM431 720l-106 -143h-74l62 143h118z" />
    <glyph glyph-name="uni0145" unicode="&#x145;" horiz-adv-x="756" 
d="M92 718h89l405 -598v598h78v-718h-89l-405 595v-595h-78v718zM355 -187l2 -1q-15 8 -27 21t-12 36q0 29 18 45q19 17 42 17q25 0 44 -17q18 -16 18 -45q0 -23 -10 -40q-7 -12 -21 -34l-43 -77h-56z" />
    <glyph glyph-name="uni0146" unicode="&#x146;" horiz-adv-x="587" 
d="M299 503l2 -3q41 0 77 -13q37 -13 68 -41q30 -27 48 -69t18 -100v-279h-74v275q0 70 -38 110q-38 39 -98 39q-23 0 -49 -8q-23 -7 -43 -21t-33 -31q-13 -18 -18 -39v-323h-74v492h72v-60q11 29 49 50q39 21 93 21zM281 -190l2 -1q-15 7 -27 21t-12 36q0 28 18 45
q19 17 42 17q25 0 44 -17q18 -17 18 -45q0 -23 -10 -40q-7 -12 -21 -34l-43 -77h-56z" />
    <glyph glyph-name="Ncaron" unicode="&#x147;" horiz-adv-x="756" 
d="M92 718h89l405 -598v598h78v-718h-89l-405 595v-595h-78v718zM322 772l-71 133h71l56 -60l56 60h71l-71 -133h-112z" />
    <glyph glyph-name="ncaron" unicode="&#x148;" horiz-adv-x="587" 
d="M299 503l2 -3q41 0 77 -13q37 -13 68 -41q30 -27 48 -69t18 -100v-279h-74v275q0 70 -38 110q-38 39 -98 39q-23 0 -49 -8q-23 -7 -43 -21t-33 -31q-13 -18 -18 -39v-323h-74v492h72v-60q11 29 49 50q39 21 93 21zM242 577l-71 143h74l56 -70l56 70h74l-71 -143h-118z
" />
    <glyph glyph-name="napostrophe" unicode="&#x149;" horiz-adv-x="587" 
d="M299 503l2 -3q41 0 77 -13q37 -13 68 -41q30 -27 48 -69t18 -100v-279h-74v275q0 70 -38 110q-38 39 -98 39q-23 0 -49 -8q-23 -7 -43 -21t-33 -31q-13 -18 -18 -39v-323h-74v492h72v-60q11 29 49 50q39 21 93 21zM129 650l2 -1q-15 7 -27 21t-12 36q0 28 18 45
q19 17 42 17q25 0 44 -17q18 -17 18 -45q0 -23 -10 -40q-7 -12 -21 -34l-43 -77h-56z" />
    <glyph glyph-name="Eng" unicode="&#x14a;" horiz-adv-x="756" 
d="M92 718l90 1l405 -583v583h78v-755q0 -88 -39 -138q-39 -49 -126 -49q-27 0 -48 6t-36 15q-14 8 -25 21q-10 12 -15 23l8 79q23 -28 51 -44q29 -17 63 -17q42 0 65 26t23 92v22l-416 595v-595h-78v718z" />
    <glyph glyph-name="eng" unicode="&#x14b;" horiz-adv-x="587" 
d="M436 275l2 -2q0 70 -38 110q-38 39 -98 39q-23 0 -49 -8q-23 -7 -43 -21t-33 -31q-13 -18 -18 -39v-323h-74v492h72v-60q11 29 49 50q39 21 93 21q41 0 77 -13q37 -13 68 -41q30 -27 48 -69t18 -100v-350q0 -153 -112 -153q-18 0 -43 6q-24 6 -40 26l7 65q10 -10 26 -15
q13 -4 26 -4q38 0 50 24t12 68v328z" />
    <glyph glyph-name="Omacron" unicode="&#x14c;" horiz-adv-x="790" 
d="M395 -11l-4 -2q-69 0 -135 29q-64 28 -112 78q-49 50 -77 117q-28 66 -28 147q0 78 29 147q28 67 77 117q48 49 113 78q66 29 135 29q72 0 135 -28q65 -29 113 -78q49 -50 77 -117q29 -69 29 -147q0 -81 -28 -147q-28 -67 -77 -117q-48 -50 -112 -78q-63 -28 -135 -28z
M391 643q-58 0 -109 -21q-49 -20 -88 -59q-37 -37 -58 -90t-21 -114t21 -114t58 -90q39 -39 88 -59q51 -21 109 -21t109 21q49 20 88 59q37 37 58 90t21 114t-21 114t-58 90q-39 39 -88 59q-51 21 -109 21zM530 884v-80h-278v80h278z" />
    <glyph glyph-name="omacron" unicode="&#x14d;" 
d="M51 246l-2 -2q0 54 20 102q19 46 54 81q34 34 80 54t95 20q51 0 95 -19q46 -20 80 -54q35 -34 54 -81q20 -48 20 -102t-20 -102q-19 -47 -54 -81q-35 -35 -79 -54t-95 -19q-49 0 -95 20q-44 19 -79 54t-54 81q-20 48 -20 102zM298 421h-3q-39 0 -69 -13q-32 -14 -54 -37
q-22 -24 -36 -57q-13 -32 -13 -72q0 -38 14 -72q13 -33 36 -57q22 -23 54 -37q30 -13 69 -13q38 0 70 13q35 14 56 37q22 24 36 57q14 34 14 72q0 40 -13 72q-13 33 -36 57q-22 24 -55 37q-32 13 -70 13zM434 694v-78h-278v78h278z" />
    <glyph glyph-name="Obreve" unicode="&#x14e;" horiz-adv-x="790" 
d="M395 -11l-4 -2q-69 0 -135 29q-64 28 -112 78q-49 50 -77 117q-28 66 -28 147q0 78 29 147q28 67 77 117q48 49 113 78q66 29 135 29q72 0 135 -28q65 -29 113 -78q49 -50 77 -117q29 -69 29 -147q0 -81 -28 -147q-28 -67 -77 -117q-48 -50 -112 -78q-63 -28 -135 -28z
M391 643q-58 0 -109 -21q-49 -20 -88 -59q-37 -37 -58 -90t-21 -114t21 -114t58 -90q39 -39 88 -59q51 -21 109 -21t109 21q49 20 88 59q37 37 58 90t21 114t-21 114t-58 90q-39 39 -88 59q-51 21 -109 21zM391 776v-2q-31 0 -55 10q-27 11 -44 28q-18 18 -30 42
q-11 23 -13 53h78q4 -21 22 -34q17 -13 43 -13q24 0 43 14q17 13 22 35h78q-2 -30 -13 -53q-12 -25 -31 -42t-45 -28q-24 -10 -55 -10z" />
    <glyph glyph-name="obreve" unicode="&#x14f;" 
d="M51 246l-2 -2q0 54 20 102q19 46 54 81q34 34 80 54t95 20q51 0 95 -19q46 -20 80 -54q35 -34 54 -81q20 -48 20 -102t-20 -102q-19 -47 -54 -81q-35 -35 -79 -54t-95 -19q-49 0 -95 20q-44 19 -79 54t-54 81q-20 48 -20 102zM298 421h-3q-39 0 -69 -13q-32 -14 -54 -37
q-22 -24 -36 -57q-13 -32 -13 -72q0 -38 14 -72q13 -33 36 -57q22 -23 54 -37q30 -13 69 -13q38 0 70 13q35 14 56 37q22 24 36 57q14 34 14 72q0 40 -13 72q-13 33 -36 57q-22 24 -55 37q-32 13 -70 13zM295 579v-2q-31 0 -55 10q-27 11 -44 28q-18 18 -30 42
q-11 23 -13 53h78q4 -21 22 -34q17 -13 43 -13q24 0 43 14q17 13 22 35h78q-2 -30 -13 -53q-12 -25 -31 -42t-45 -28q-24 -10 -55 -10z" />
    <glyph glyph-name="Ohungarumlaut" unicode="&#x150;" horiz-adv-x="790" 
d="M395 -11l-4 -2q-69 0 -135 29q-64 28 -112 78q-49 50 -77 117q-28 66 -28 147q0 78 29 147q28 67 77 117q48 49 113 78q66 29 135 29q72 0 135 -28q65 -29 113 -78q49 -50 77 -117q29 -69 29 -147q0 -81 -28 -147q-28 -67 -77 -117q-48 -50 -112 -78q-63 -28 -135 -28z
M391 643q-58 0 -109 -21q-49 -20 -88 -59q-37 -37 -58 -90t-21 -114t21 -114t58 -90q39 -39 88 -59q51 -21 109 -21t109 21q49 20 88 59q37 37 58 90t21 114t-21 114t-58 90q-39 39 -88 59q-51 21 -109 21zM442 917l-106 -147h-70l63 147h113zM601 917l-105 -147h-71l63 147
h113z" />
    <glyph glyph-name="ohungarumlaut" unicode="&#x151;" horiz-adv-x="594" 
d="M51 246l-2 -2q0 54 20 102q19 46 54 81q34 34 80 54t95 20q51 0 95 -19q46 -20 80 -54q35 -34 54 -81q20 -48 20 -102t-20 -102q-19 -47 -54 -81q-35 -35 -79 -54t-95 -19q-49 0 -95 20q-44 19 -79 54t-54 81q-20 48 -20 102zM298 421h-3q-39 0 -69 -13q-32 -14 -54 -37
q-22 -24 -36 -57q-13 -32 -13 -72q0 -38 14 -72q13 -33 36 -57q22 -23 54 -37q30 -13 69 -13q38 0 70 13q35 14 56 37q22 24 36 57q14 34 14 72q0 40 -13 72q-13 33 -36 57q-22 24 -55 37q-32 13 -70 13zM350 721l-106 -143h-70l63 143h113zM509 721l-105 -143h-71l63 143
h113z" />
    <glyph glyph-name="OE" unicode="&#x152;" horiz-adv-x="1109" 
d="M670 127h-2q-49 -64 -122 -102q-71 -37 -153 -37q-69 0 -135 29q-64 28 -112 78q-49 50 -77 117q-28 66 -28 147q0 78 29 147q28 67 77 117q48 49 113 78q66 29 135 29q82 0 153 -37q73 -38 122 -102v127h379v-83h-301v-224h271v-83h-271v-245h301v-83h-379v127zM393 645
l-1 -3q-58 0 -109 -21q-49 -20 -88 -59q-37 -37 -58 -90q-21 -52 -21 -114t21 -114q21 -53 58 -90q39 -39 88 -59q51 -21 109 -21q56 0 106 21t87 57t60 86q22 49 24 110v13q0 61 -21 114t-58 90q-39 39 -88 59q-51 21 -109 21z" />
    <glyph glyph-name="oe" unicode="&#x153;" horiz-adv-x="995" 
d="M51 246l-2 -1q0 54 20 102q19 47 54 81q34 34 80 54t95 20q64 0 120 -32q55 -31 90 -86q30 54 83 86t123 32q52 0 93 -19q42 -19 72 -54q31 -36 47 -79q17 -46 17 -96q0 -16 -3 -34h-391q7 -76 57 -112t120 -36q55 0 93 16q39 16 69 48l14 -65q-8 -17 -24 -32
q-18 -16 -40 -26q-25 -11 -52 -18t-60 -7q-71 0 -128 30q-58 30 -89 87q-34 -53 -90 -85q-55 -31 -120 -31q-49 0 -95 20q-44 19 -79 54t-54 81q-20 48 -20 102zM298 422h-3q-39 0 -69 -13q-32 -14 -54 -37q-22 -24 -36 -57q-13 -32 -13 -72q0 -38 14 -72q13 -33 36 -57
q22 -23 54 -37q30 -13 69 -13q38 0 70 13q35 14 56 37q22 24 36 57q14 34 14 72q0 40 -13 72q-13 33 -36 57q-22 24 -55 37q-32 13 -70 13zM710 422l-2 -1q-29 0 -53 -7t-48 -23q-22 -14 -37 -39q-15 -24 -21 -55h310q-8 59 -48 92q-41 33 -101 33z" />
    <glyph glyph-name="Racute" unicode="&#x154;" horiz-adv-x="558" 
d="M92 718h191q40 0 79 -12q38 -12 70 -36t50 -62t18 -88q0 -41 -12 -74q-12 -32 -33 -58t-51 -42t-65 -24l178 -322h-92l-172 313h-83v-313h-78v718zM168 635l-1 -240h122q24 0 50 8q23 7 42 23t29 37q11 24 11 51q0 52 -32 87q-31 34 -84 34h-137zM403 904l-106 -133h-80
l63 133h123z" />
    <glyph glyph-name="racute" unicode="&#x155;" horiz-adv-x="393" 
d="M344 401h3q-25 22 -72 22q-45 0 -75 -31q-30 -32 -39 -75v-318h-74v492h72v-62q10 30 38 52q27 21 75 21q28 0 51 -9q22 -9 33 -26zM182 580l63 143h117l-105 -143h-75z" />
    <glyph glyph-name="uni0156" unicode="&#x156;" horiz-adv-x="558" 
d="M92 718h191q40 0 79 -12q38 -12 70 -36t50 -62t18 -88q0 -41 -12 -74q-12 -32 -33 -58t-51 -42t-65 -24l178 -322h-92l-172 313h-83v-313h-78v718zM168 635l-1 -240h122q24 0 50 8q23 7 42 23t29 37q11 24 11 51q0 52 -32 87q-31 34 -84 34h-137zM270 -188l2 -1
q-15 7 -27 21t-12 36q0 28 18 45q19 17 42 17q25 0 44 -17q18 -17 18 -45q0 -23 -10 -40q-7 -12 -21 -34l-43 -77h-56z" />
    <glyph glyph-name="uni0157" unicode="&#x157;" horiz-adv-x="384" 
d="M344 401h3q-25 22 -72 22q-45 0 -75 -31q-30 -32 -39 -75v-318h-74v492h72v-62q10 30 38 52q27 21 75 21q28 0 51 -9q22 -9 33 -26zM104 -187l2 -1q-15 8 -27 21t-12 36q0 29 18 45q19 17 42 17q25 0 44 -17q18 -16 18 -45q0 -23 -10 -40q-7 -12 -21 -34l-43 -77h-56z
" />
    <glyph glyph-name="Rcaron" unicode="&#x158;" horiz-adv-x="558" 
d="M92 718h191q40 0 79 -12q38 -12 70 -36t50 -62t18 -88q0 -41 -12 -74q-12 -32 -33 -58t-51 -42t-65 -24l178 -322h-92l-172 313h-83v-313h-78v718zM168 635l-1 -240h122q24 0 50 8q23 7 42 23t29 37q11 24 11 51q0 52 -32 87q-31 34 -84 34h-137zM212 771l-71 133h71
l56 -60l56 60h71l-71 -133h-112z" />
    <glyph glyph-name="rcaron" unicode="&#x159;" horiz-adv-x="393" 
d="M344 401h3q-25 22 -72 22q-45 0 -75 -31q-30 -32 -39 -75v-318h-74v492h72v-62q10 30 38 52q27 21 75 21q28 0 51 -9q22 -9 33 -26zM163 580l-71 143h74l56 -70l56 70h74l-71 -143h-118z" />
    <glyph glyph-name="Sacute" unicode="&#x15a;" horiz-adv-x="483" 
d="M346 349l-3 -1q45 -42 68 -81q24 -41 24 -94q0 -39 -14 -75q-13 -34 -39 -58q-24 -23 -62 -37q-35 -13 -81 -13q-37 0 -72 12q-36 12 -62 30q-28 19 -47 39q-20 21 -27 42l23 80q34 -56 83 -87q48 -30 111 -30q56 0 84 27t28 69q0 35 -19 61t-45 49q-62 51 -109 93
q-36 32 -63 59q-37 37 -52 69q-15 31 -15 69q0 72 48 115q47 43 128 43q59 0 106 -28q49 -29 71 -69l-19 -80q-28 40 -69 67t-91 27q-43 0 -69 -19q-27 -20 -27 -58q0 -14 6 -28q5 -12 15 -25q6 -8 20 -22q8 -8 20 -18q15 -13 38.5 -32t32.5 -26q27 -23 42 -36
q20 -18 23 -21t7.5 -7t6.5 -6zM375 904l-106 -133h-80l63 133h123z" />
    <glyph glyph-name="sacute" unicode="&#x15b;" horiz-adv-x="416" 
d="M155 240l-2 -3q-48 25 -72 60q-24 34 -24 74q0 57 37 93q38 36 111 36q27 0 48 -7q24 -8 41 -18t30 -23q12 -12 18 -24l-14 -67q-25 26 -57 43q-31 16 -69 16q-24 0 -48 -11q-22 -10 -22 -38q0 -23 19 -36t45 -27l60 -33q56 -30 83 -63t27 -82q0 -32 -12 -57t-33 -45
t-52 -30q-30 -10 -70 -10q-29 0 -51 7q-26 8 -45 19q-21 12 -36 27q-16 16 -23 31l16 68q30 -35 67 -51q36 -16 79 -16q15 0 30 3q16 3 27 10q13 8 20 18q8 11 8 27q0 24 -22 42q-23 18 -57 36zM331 720l-106 -143h-74l62 143h118z" />
    <glyph glyph-name="Scircumflex" unicode="&#x15c;" horiz-adv-x="483" 
d="M346 349l-3 -1q45 -42 68 -81q24 -41 24 -94q0 -39 -14 -75q-13 -34 -39 -58q-24 -23 -62 -37q-35 -13 -81 -13q-37 0 -72 12q-36 12 -62 30q-28 19 -47 39q-20 21 -27 42l23 80q34 -56 83 -87q48 -30 111 -30q56 0 84 27t28 69q0 35 -19 61t-45 49q-62 51 -109 93
q-36 32 -63 59q-37 37 -52 69q-15 31 -15 69q0 72 48 115q47 43 128 43q59 0 106 -28q49 -29 71 -69l-19 -80q-28 40 -69 67t-91 27q-43 0 -69 -19q-27 -20 -27 -58q0 -14 6 -28q5 -12 15 -25q6 -8 20 -22q8 -8 20 -18q15 -13 38.5 -32t32.5 -26q27 -23 42 -36
q20 -18 23 -21t7.5 -7t6.5 -6zM290 904l71 -133h-71l-56 60l-56 -60h-71l71 133h112z" />
    <glyph glyph-name="scircumflex" unicode="&#x15d;" horiz-adv-x="416" 
d="M155 240l-2 -3q-48 25 -72 60q-24 34 -24 74q0 57 37 93q38 36 111 36q27 0 48 -7q24 -8 41 -18t30 -23q12 -12 18 -24l-14 -67q-25 26 -57 43q-31 16 -69 16q-24 0 -48 -11q-22 -10 -22 -38q0 -23 19 -36t45 -27l60 -33q56 -30 83 -63t27 -82q0 -32 -12 -57t-33 -45
t-52 -30q-30 -10 -70 -10q-29 0 -51 7q-26 8 -45 19q-21 12 -36 27q-16 16 -23 31l16 68q30 -35 67 -51q36 -16 79 -16q15 0 30 3q16 3 27 10q13 8 20 18q8 11 8 27q0 24 -22 42q-23 18 -57 36zM263 720l71 -143h-74l-56 70l-56 -70h-74l71 143h118z" />
    <glyph glyph-name="Scedilla" unicode="&#x15e;" horiz-adv-x="483" 
d="M248 -47l-3 4q21 -2 37 -7q20 -7 32 -16q14 -11 23 -26t9 -34q0 -42 -31 -66t-76 -24q-33 0 -62 13q-31 14 -47 33l11 52q40 -32 89 -32q19 0 32 8q12 8 12 21t-12 21q-13 8 -30 8q-12 0 -17 -1q-12 -3 -17 -4l-18 32l18 61q-29 4 -58 17q-24 11 -49 29q-20 15 -37 35
q-15 18 -21 36l23 80q34 -56 83 -87q48 -30 111 -30q56 0 84 27t28 69q0 35 -19 61t-45 49q-62 51 -109 93q-36 32 -63 59q-37 37 -52 69q-15 31 -15 69q0 72 48 115q47 43 128 43q59 0 106 -28q49 -29 71 -69l-19 -80q-28 40 -69 67q-40 27 -91 27q-43 0 -69 -19
q-27 -20 -27 -58q0 -14 6 -28q5 -12 15 -25q6 -8 20 -22q8 -8 20 -18q15 -13 38.5 -32t32.5 -26q27 -23 42 -36q20 -18 23 -21t7.5 -7t6.5 -6q45 -42 68 -81q24 -41 24 -94q0 -40 -13 -72q-14 -34 -37 -57q-25 -25 -57 -38q-34 -14 -74 -17z" />
    <glyph glyph-name="scedilla" unicode="&#x15f;" horiz-adv-x="416" 
d="M216 -47h-3q21 -2 37 -7q20 -7 32 -16q14 -11 23 -26t9 -34q0 -42 -31 -66q-32 -24 -76 -24q-33 0 -62 13q-31 14 -47 33l11 52q40 -32 89 -32q19 0 32 8q12 8 12 21t-12 21q-13 8 -30 8q-12 0 -17 -1q-12 -3 -17 -4l-18 32l18 60q-44 8 -77 30q-34 23 -47 51l16 68
q30 -35 67 -51q36 -16 79 -16q15 0 30 3q16 3 27 10q13 8 20 18q8 11 8 27q0 24 -22 42q-23 18 -57 36l-57 31q-48 26 -72 60t-24 74q0 57 37 93q38 36 111 36q27 0 48 -7q24 -8 41 -18t30 -23q12 -12 18 -24l-14 -67q-25 26 -57 43q-31 16 -69 16q-24 0 -48 -11
q-22 -10 -22 -38q0 -23 19 -36q19 -14 45 -27l60 -33q56 -30 83 -63t27 -82q0 -58 -37 -96t-102 -46z" />
    <glyph glyph-name="Scaron" unicode="&#x160;" horiz-adv-x="483" 
d="M346 349l-3 -1q45 -42 68 -81q24 -41 24 -94q0 -39 -14 -75q-13 -34 -39 -58q-24 -23 -62 -37q-35 -13 -81 -13q-37 0 -72 12q-36 12 -62 30q-28 19 -47 39q-20 21 -27 42l23 80q34 -56 83 -87q48 -30 111 -30q56 0 84 27t28 69q0 35 -19 61t-45 49q-62 51 -109 93
q-36 32 -63 59q-37 37 -52 69q-15 31 -15 69q0 72 48 115q47 43 128 43q59 0 106 -28q49 -29 71 -69l-19 -80q-28 40 -69 67t-91 27q-43 0 -69 -19q-27 -20 -27 -58q0 -14 6 -28q5 -12 15 -25q6 -8 20 -22q8 -8 20 -18q15 -13 38.5 -32t32.5 -26q27 -23 42 -36
q20 -18 23 -21t7.5 -7t6.5 -6zM178 771l-71 133h71l56 -60l56 60h71l-71 -133h-112z" />
    <glyph glyph-name="scaron" unicode="&#x161;" horiz-adv-x="416" 
d="M155 240l-2 -3q-48 25 -72 60q-24 34 -24 74q0 57 37 93q38 36 111 36q27 0 48 -7q24 -8 41 -18t30 -23q12 -12 18 -24l-14 -67q-25 26 -57 43q-31 16 -69 16q-24 0 -48 -11q-22 -10 -22 -38q0 -23 19 -36t45 -27l60 -33q56 -30 83 -63t27 -82q0 -32 -12 -57t-33 -45
t-52 -30q-30 -10 -70 -10q-29 0 -51 7q-26 8 -45 19q-21 12 -36 27q-16 16 -23 31l16 68q30 -35 67 -51q36 -16 79 -16q15 0 30 3q16 3 27 10q13 8 20 18q8 11 8 27q0 24 -22 42q-23 18 -57 36zM144 577l-71 143h74l56 -70l56 70h74l-71 -143h-118z" />
    <glyph glyph-name="uni0162" unicode="&#x162;" horiz-adv-x="575" 
d="M304 -47l-2 1q21 -2 37 -7q20 -7 32 -16q14 -11 23 -26t9 -34q0 -42 -31 -66q-32 -24 -76 -24q-33 0 -62 13q-31 14 -47 33l11 52q40 -32 89 -32q19 0 32 8q12 7 12 21t-12 21q-13 8 -30 8q-12 0 -17 -1q-12 -2 -17 -4l-18 32l20 68h-9v637h-232v81h543v-81h-233v-637h-8
z" />
    <glyph glyph-name="uni0163" unicode="&#x163;" horiz-adv-x="432" 
d="M254 -47l-2 1q21 -2 37 -7q20 -7 32 -16q14 -11 23 -26t9 -34q0 -42 -31 -66q-32 -24 -76 -24q-33 0 -62 13q-31 14 -47 33l11 52q40 -32 89 -32q19 0 32 8q12 7 12 21t-12 21q-13 8 -30 8q-12 0 -17 -1q-13 -2 -17 -4l-18 32l20 66q-82 28 -82 156v259h-90v24l139 178
h24v-124h182v-78h-181v-246q0 -51 21 -73t61 -22q32 0 51 13q20 13 33 30l17 -64q-11 -26 -42 -44q-32 -18 -76 -18z" />
    <glyph glyph-name="Tcaron" unicode="&#x164;" horiz-adv-x="575" 
d="M16 718h543v-81h-233v-637h-78v637h-232v81zM231 772l-71 133h71l56 -60l56 60h71l-71 -133h-112z" />
    <glyph glyph-name="tcaron" unicode="&#x165;" horiz-adv-x="581" 
d="M383 51l-1 -1q-11 -26 -42 -44q-32 -18 -76 -18q-66 0 -102 40t-36 126v259h-90v24l139 178h24v-124h182v-78h-181v-246q0 -51 21 -73t61 -22q32 0 51 13t33 30zM489 555l2 -1q-15 8 -27 21t-12 36q0 29 18 45q19 17 42 17q25 0 44 -17q18 -16 18 -45q0 -23 -10 -40
q-7 -12 -21 -34l-43 -77h-56z" />
    <glyph glyph-name="Tbar" unicode="&#x166;" horiz-adv-x="575" 
d="M16 718h543v-81h-233v-227h135v-81h-135v-329h-78v329h-134v81h134v227h-232v81z" />
    <glyph glyph-name="tbar" unicode="&#x167;" horiz-adv-x="432" 
d="M35 316l89 -1v98h-90v24l139 178h24v-124h182v-78h-181v-98h181v-78h-181v-70q0 -51 21 -73t61 -22q32 0 51 13t33 30l17 -64q-11 -26 -42 -44t-76 -18q-66 0 -102 40q-36 41 -36 126v83h-90v78z" />
    <glyph glyph-name="Utilde" unicode="&#x168;" horiz-adv-x="736" 
d="M571 718l79 3v-430q0 -66 -19 -120q-19 -55 -57 -96t-90 -63q-51 -22 -117 -22q-63 0 -115 21t-90 60t-57 94q-20 57 -20 123v431h78v-434q0 -48 15 -87t42 -66t65 -42q37 -15 83 -15t84 15t63 42q26 28 41 66q15 39 15 87v433zM218 784v-1q-3 7 -7 23q-3 12 -3 24
q0 38 24 60q25 23 59 23q23 0 42 -9q22 -10 36 -19q11 -7 33 -19q16 -9 33 -9t26 10q9 11 9 30v7q0 5 -1 8h49q9 -24 9 -46q0 -38 -24 -61q-23 -22 -58 -22q-23 0 -42 9q-21 10 -37 19q-12 7 -34 19q-17 9 -31 9q-17 0 -26 -10q-9 -11 -9 -30v-7q0 -5 1 -8h-49z" />
    <glyph glyph-name="utilde" unicode="&#x169;" horiz-adv-x="583" 
d="M286 -11h-2q-37 0 -76 14q-36 13 -67 41q-30 27 -48 69t-18 100v279h74v-275q0 -71 37 -109q38 -39 97 -39q23 0 49 8q23 7 43 21q19 13 33 32q14 18 18 39v323h74v-492h-72v60q-11 -29 -49 -50q-39 -21 -93 -21zM143 583l-2 -2q-3 7 -7 23q-3 12 -3 24q0 38 24 62t59 24
q22 0 42 -9q22 -10 36 -19q11 -7 31 -19q15 -9 27 -9q31 0 31 39v7q0 5 -1 8h53q9 -24 9 -46q0 -40 -24 -62q-25 -23 -58 -23q-22 0 -42 9q-22 10 -36 19q-3 2 -14 8.5t-16 10.5q-14 9 -26 9q-31 0 -31 -39v-7q0 -5 1 -8h-53z" />
    <glyph glyph-name="Umacron" unicode="&#x16a;" horiz-adv-x="736" 
d="M571 718l79 3v-430q0 -66 -19 -120q-19 -55 -57 -96t-90 -63q-51 -22 -117 -22q-63 0 -115 21t-90 60t-57 94q-20 57 -20 123v431h78v-434q0 -48 15 -87t42 -66t65 -42q37 -15 83 -15t84 15t63 42q26 28 41 66q15 39 15 87v433zM508 889v-80h-278v80h278z" />
    <glyph glyph-name="umacron" unicode="&#x16b;" horiz-adv-x="583" 
d="M286 -11h-2q-37 0 -76 14q-36 13 -67 41q-30 27 -48 69t-18 100v279h74v-275q0 -71 37 -109q38 -39 97 -39q23 0 49 8q23 7 43 21q19 13 33 32q14 18 18 39v323h74v-492h-72v60q-11 -29 -49 -50q-39 -21 -93 -21zM427 696v-78h-278v78h278z" />
    <glyph glyph-name="Ubreve" unicode="&#x16c;" horiz-adv-x="736" 
d="M571 718l79 3v-430q0 -66 -19 -120q-19 -55 -57 -96t-90 -63q-51 -22 -117 -22q-63 0 -115 21t-90 60t-57 94q-20 57 -20 123v431h78v-434q0 -48 15 -87t42 -66t65 -42q37 -15 83 -15t84 15t63 42q26 28 41 66q15 39 15 87v433zM369 781v-2q-31 0 -55 10q-27 11 -44 28
q-18 18 -30 42q-11 23 -13 53h78q4 -21 22 -34q17 -13 43 -13q24 0 43 14q17 13 22 35h78q-2 -30 -13 -53q-12 -25 -31 -42t-45 -28q-24 -10 -55 -10z" />
    <glyph glyph-name="ubreve" unicode="&#x16d;" horiz-adv-x="583" 
d="M286 -11h-2q-37 0 -76 14q-36 13 -67 41q-30 27 -48 69t-18 100v279h74v-275q0 -71 37 -109q38 -39 97 -39q23 0 49 8q23 7 43 21q19 13 33 32q14 18 18 39v323h74v-492h-72v60q-11 -29 -49 -50q-39 -21 -93 -21zM288 581v-2q-31 0 -55 10q-27 11 -44 28q-18 18 -30 42
q-11 23 -13 53h78q4 -21 22 -34q17 -13 43 -13q24 0 43 14q17 13 22 35h78q-2 -30 -13 -53q-12 -25 -31 -42t-45 -28q-24 -10 -55 -10z" />
    <glyph glyph-name="Uring" unicode="&#x16e;" horiz-adv-x="736" 
d="M571 718l79 3v-430q0 -66 -19 -120q-19 -55 -57 -96t-90 -63q-51 -22 -117 -22q-63 0 -115 21t-90 60t-57 94q-20 57 -20 123v431h78v-434q0 -48 15 -87t42 -66t65 -42q37 -15 83 -15t84 15t63 42q26 28 41 66q15 39 15 87v433zM267 863q0 22 8 41t21 32t32 21t39 8
q42 0 73 -29q30 -28 30 -72q0 -43 -30 -73t-73 -30q-20 0 -39 8t-32 21q-14 14 -21 33q-8 21 -8 40zM322 863h-1q0 -20 13 -32q14 -12 33 -12t33 12t14 32t-13 32t-33 12t-33 -12t-13 -32z" />
    <glyph glyph-name="uring" unicode="&#x16f;" horiz-adv-x="583" 
d="M286 -11h-2q-37 0 -76 14q-36 13 -67 41q-30 27 -48 69t-18 100v279h74v-275q0 -71 37 -109q38 -39 97 -39q23 0 49 8q23 7 43 21q19 13 33 32q14 18 18 39v323h74v-492h-72v60q-11 -29 -49 -50q-39 -21 -93 -21zM189 660q0 43 29 72t72 29t72 -29t29 -72t-29 -72
t-72 -29t-72 29t-29 72zM290 704q-20 0 -33 -12t-13 -32t13 -32t33 -12t33 12t13 32t-13 32t-33 12z" />
    <glyph glyph-name="Uhungarumlaut" unicode="&#x170;" horiz-adv-x="736" 
d="M571 718l79 3v-430q0 -66 -19 -120q-19 -55 -57 -96t-90 -63q-51 -22 -117 -22q-63 0 -115 21t-90 60t-57 94q-20 57 -20 123v431h78v-434q0 -48 15 -87t42 -66t65 -42q37 -15 83 -15t84 15t63 42q26 28 41 66q15 39 15 87v433zM407 922l-106 -147h-70l63 147h113z
M566 922l-105 -147h-71l63 147h113z" />
    <glyph glyph-name="uhungarumlaut" unicode="&#x171;" horiz-adv-x="583" 
d="M286 -11h-2q-37 0 -76 14q-36 13 -67 41q-30 27 -48 69t-18 100v279h74v-275q0 -71 37 -109q38 -39 97 -39q23 0 49 8q23 7 43 21q19 13 33 32q14 18 18 39v323h74v-492h-72v60q-11 -29 -49 -50q-39 -21 -93 -21zM335 723l-106 -143h-70l63 143h113zM494 723l-105 -143
h-71l63 143h113z" />
    <glyph glyph-name="Uogonek" unicode="&#x172;" horiz-adv-x="736" 
d="M571 718l74 -2v-430q0 -110 -51 -186t-141 -102q-13 -13 -24 -35q-10 -20 -10 -42q0 -25 15 -40t38 -15q16 0 26 6l12 -58q-8 -9 -22 -15q-15 -6 -37 -6q-51 0 -76 30q-25 29 -25 71q0 32 13 57q14 26 28 39h-12h-12q-63 0 -115 21t-90 60t-57 94q-20 57 -20 123v431h78
v-434q0 -48 15 -87t42 -66t65 -42q37 -15 83 -15t84 15t63 42q26 28 41 66q15 39 15 87v433z" />
    <glyph glyph-name="uogonek" unicode="&#x173;" horiz-adv-x="583" 
d="M427 0l-1 58q-11 -29 -49 -50q-39 -21 -93 -21q-37 0 -76 14q-36 13 -67 41q-30 27 -48 69t-18 100v279h74v-275q0 -71 37 -109q38 -39 97 -39q23 0 49 8q23 7 43 21q19 13 33 32q14 18 18 39v323h74v-492q-13 -13 -24 -35q-10 -20 -10 -42q0 -25 15 -40t38 -15
q15 0 26 6l12 -58q-8 -9 -22 -15q-15 -6 -37 -6q-50 0 -76 30q-25 29 -25 71q0 18 5 36q4 16 12 30q7 12 17 24q7 8 17 16h-21z" />
    <glyph glyph-name="Wcircumflex" unicode="&#x174;" horiz-adv-x="1011" 
d="M714 144l187 574h88l-238 -718h-79l-169 601l-164 -601h-79l-238 718h82l191 -574l163 574h86zM565 905l71 -133h-71l-56 60l-56 -60h-71l71 133h112z" />
    <glyph glyph-name="wcircumflex" unicode="&#x175;" horiz-adv-x="833" 
d="M577 107l151 385h85l-194 -492h-79l-124 386l-121 -386h-81l-194 492h81l149 -386l126 386h79zM475 723l71 -143h-74l-56 70l-56 -70h-74l71 143h118z" />
    <glyph glyph-name="Ycircumflex" unicode="&#x176;" horiz-adv-x="542" 
d="M9 718h89l171 -325l171 325h92l-221 -420v-298h-78v298zM327 905l71 -133h-71l-56 60l-56 -60h-71l71 133h112z" />
    <glyph glyph-name="ycircumflex" unicode="&#x177;" horiz-adv-x="531" 
d="M18 492h85l164 -388l158 388h85l-293 -705h-85l93 225zM324 723l71 -143h-74l-56 70l-56 -70h-74l71 143h118z" />
    <glyph glyph-name="Ydieresis" unicode="&#x178;" horiz-adv-x="542" 
d="M9 718h89l171 -325l171 325h92l-221 -420v-298h-78v298zM108 842q0 27 18 45t45 18t45 -18t18 -45t-18 -45t-45 -18t-45 18t-18 45zM307 842q0 27 18 45t45 18t45 -18t18 -45t-18 -45t-45 -18t-45 18t-18 45z" />
    <glyph glyph-name="Zacute" unicode="&#x179;" horiz-adv-x="500" 
d="M56 718h386v-58l-296 -577h298v-83h-393v71l290 564h-285v83zM375 905l-106 -133h-80l63 133h123z" />
    <glyph glyph-name="zacute" unicode="&#x17a;" horiz-adv-x="454" 
d="M64 492h322v-63l-234 -349h246v-80h-342v71l228 341h-220v80zM351 723l-106 -143h-74l62 143h118z" />
    <glyph glyph-name="Zdotaccent" unicode="&#x17b;" horiz-adv-x="500" 
d="M56 718h386v-58l-296 -577h298v-83h-393v71l290 564h-285v83zM184 846q0 26 18 44t43 18q26 0 44 -18t18 -44t-18 -44t-44 -18q-25 0 -43 18t-18 44z" />
    <glyph glyph-name="zdotaccent" unicode="&#x17c;" horiz-adv-x="454" 
d="M64 492h322v-63l-234 -349h246v-80h-342v71l228 341h-220v80zM163 655q0 25 17 42t42 17t42 -17t17 -42t-17 -42t-42 -17t-42 17t-17 42z" />
    <glyph glyph-name="Zcaron" unicode="&#x17d;" horiz-adv-x="500" 
d="M56 718h386v-58l-296 -577h298v-83h-393v71l290 564h-285v83zM188 772l-71 133h71l56 -60l56 60h71l-71 -133h-112z" />
    <glyph glyph-name="zcaron" unicode="&#x17e;" horiz-adv-x="454" 
d="M64 492h322v-63l-234 -349h246v-80h-342v71l228 341h-220v80zM163 580l-71 143h74l56 -70l56 70h74l-71 -143h-118z" />
    <glyph glyph-name="longs" unicode="&#x17f;" horiz-adv-x="358" 
d="M381 617l-3 -2q-14 17 -37 30t-52 13q-37 0 -61 -24t-24 -69v-566h-74v408h-90v84h90v85q0 78 39 120t114 42q35 0 65 -15t44 -41z" />
    <glyph glyph-name="uni018F" unicode="&#x18f;" horiz-adv-x="782" 
d="M656 403l1 -3q-11 64 -36 111t-63 75t-84 42q-48 14 -97 14q-37 0 -73 -10q-40 -11 -72 -28q-34 -18 -63 -42q-28 -24 -49 -52l-20 77q16 31 45 57q28 25 65 45q36 19 78 30q44 11 86 11q74 0 139 -25q68 -26 116 -73q50 -49 80 -117q30 -69 30 -158q0 -79 -27 -147
t-75 -117t-111 -78q-62 -28 -135 -28q-78 0 -144 29t-110 79t-70 120q-25 68 -25 150v20q0 13 1 18h613zM394 70l-1 -1q45 0 87 13q44 14 80 42q36 29 62 77q26 49 35 116h-532q8 -74 34 -121q26 -46 65 -76q37 -28 83 -39q47 -11 87 -11z" />
    <glyph glyph-name="florin" unicode="&#x192;" horiz-adv-x="484" 
d="M194 594h-2q12 70 51 108q38 37 105 37q14 0 30 -3q18 -3 33 -10q17 -8 30 -21t21 -33l-14 -61q-9 17 -33 32t-55 15q-40 0 -63 -19q-25 -20 -32 -64l-26 -149h156v-80h-171l-100 -559h-74l100 559h-88v80h103z" />
    <glyph glyph-name="uni01B5" unicode="&#x1b5;" horiz-adv-x="491" 
d="M54 718h386v-58l-126 -246h98v-83h-141l-127 -248h298v-83h-393v71l133 260h-113v83h156l114 221h-285v83z" />
    <glyph glyph-name="uni01B6" unicode="&#x1b6;" horiz-adv-x="454" 
d="M64 492h322v-63l-94 -140h84v-80h-138l-86 -129h246v-80h-342v71l92 138h-82v80h136l82 123h-220v80z" />
    <glyph glyph-name="Aringacute" unicode="&#x1fa;" horiz-adv-x="668" 
d="M233 763l-2 -2q0 22 8 41t21 32t32 21t39 8q42 0 73 -29q30 -28 30 -72q0 -26 -12 -49q-12 -22 -32 -36l264 -678h-84l-68 174h-338l-67 -174h-84l265 677q-21 14 -33 36t-12 51zM196 255h273l-137 350zM485 1035l-106 -133h-80l63 133h123zM286 761h-1q0 -20 13 -32
q14 -12 33 -12t33 12t14 32t-13 32t-33 12t-33 -12t-13 -32z" />
    <glyph glyph-name="aringacute" unicode="&#x1fb;" horiz-adv-x="544" 
d="M255 503v-1q45 0 84 -12t66 -36q28 -25 44 -60t16 -82v-312h-72v47q-19 -25 -60 -42q-39 -16 -87 -16q-92 0 -144 43t-52 118q0 36 15 65t42 50q26 20 63 31q38 11 78 11q8 0 32 -2q21 -2 38 -7q20 -6 39 -15q20 -9 33 -22v31q0 68 -40 99q-41 32 -100 32q-48 0 -87 -19
q-41 -20 -63 -48l-20 66q12 18 28 32q19 16 41 26q24 11 50 17q27 6 56 6zM390 174v2q-14 26 -52 38q-39 12 -85 12q-59 0 -94 -21q-34 -21 -34 -55t33 -58t97 -24q45 0 84 17q37 16 51 44v45zM168 661q0 43 29 72t72 29t72 -29t29 -72t-29 -72t-72 -29t-72 29t-29 72z
M269 705q-19 0 -33 -12q-13 -12 -13 -32t13 -32q14 -12 33 -12t33 12q13 12 13 32t-13 32q-14 12 -33 12zM408 958l-106 -143h-74l62 143h118z" />
    <glyph glyph-name="AEacute" unicode="&#x1fc;" horiz-adv-x="912" 
d="M846 635h-301v-224h271v-83h-271v-245h301v-83h-379v174h-280l-103 -174h-92l430 718h424v-83zM467 257v383l-230 -383h230zM705 905l-106 -133h-80l63 133h123z" />
    <glyph glyph-name="aeacute" unicode="&#x1fd;" horiz-adv-x="910" 
d="M859 255l-3 -2q0 -16 -3 -34h-391q7 -76 57 -112q49 -36 120 -36q55 0 93 16q39 17 69 48l14 -65q-8 -17 -24 -32q-18 -16 -40 -26q-25 -11 -52 -18t-60 -7q-63 0 -115 24t-87 69q-37 -50 -87 -72q-48 -22 -102 -22q-94 0 -148 42t-54 118q0 37 15 67q15 31 42 50t63 30
q38 11 78 11q8 0 32 -2q19 -2 38 -6q22 -5 39 -13q20 -9 33 -22v30q0 37 -12 63q-12 25 -33 40t-46 21q-26 6 -52 6q-45 0 -84 -18q-38 -17 -61 -47l-19 64q12 18 28 32q19 16 41 26q24 11 50 17q27 6 56 6q60 0 111 -23q49 -22 75 -69q31 43 80 69q47 25 110 25
q52 0 93 -19q42 -20 72 -54q31 -36 47 -79q17 -46 17 -96zM387 174v-1q-14 26 -52 38q-39 12 -85 12q-60 0 -94 -21t-34 -60q0 -34 33 -55t97 -21q46 0 84 20q37 19 51 47v41zM627 420l-2 -1q-29 0 -53 -7t-48 -23q-22 -14 -37 -39q-15 -24 -21 -55h310q-8 59 -48 92
q-41 33 -101 33zM585 719l-106 -143h-74l62 143h118z" />
    <glyph glyph-name="Oslashacute" unicode="&#x1fe;" horiz-adv-x="800" 
d="M400 -11l-4 -2q-57 0 -108 18q-50 17 -96 50l-57 -68h-100l101 120q-44 50 -68 113t-24 137q0 78 29 147q28 67 77 117q48 49 113 78q66 29 135 29q57 0 108 -18t96 -51l58 69h99l-101 -120q44 -50 69 -112t25 -137q0 -81 -28 -147q-28 -67 -77 -117q-48 -50 -112 -78
q-63 -28 -135 -28zM396 643l2 -2q-58 0 -109 -21q-49 -20 -88 -59q-37 -37 -58 -90t-21 -114q0 -56 17 -105q16 -47 48 -85l363 430q-32 22 -72 34q-39 12 -82 12zM673 355v1q0 57 -18 105q-19 50 -49 86l-362 -431q68 -45 153 -45q58 0 109 21q49 20 88 59q37 37 58 90
t21 114zM533 902l-106 -133h-80l63 133h123z" />
    <glyph glyph-name="oslashacute" unicode="&#x1ff;" horiz-adv-x="602" 
d="M52 246l-1 -2q0 54 20 102q19 46 54 81q34 34 80 54t95 20q36 0 72 -11q34 -10 63 -30l36 42h100l-80 -92q27 -33 42 -75t15 -90q0 -54 -20 -102q-20 -47 -54 -81q-35 -35 -79 -54t-95 -19q-36 0 -72 11q-34 10 -64 30l-35 -41h-100l79 92q-26 34 -41 75q-15 42 -15 90z
M475 244l1 -2q0 31 -9 58t-25 49l-227 -264q38 -20 84 -20q38 0 70 13q35 14 56 37q23 24 36 57q14 34 14 72zM301 419l-5 2q-39 0 -69 -13q-32 -14 -54 -37q-23 -24 -36 -57q-13 -32 -13 -72q0 -31 9 -58t25 -49l227 264q-38 20 -84 20zM432 721l-106 -143h-74l62 143h118z
" />
    <glyph glyph-name="uni0218" unicode="&#x218;" horiz-adv-x="483" 
d="M346 349l-3 -1q45 -42 68 -81q24 -41 24 -94q0 -39 -14 -75q-13 -34 -39 -58q-24 -23 -62 -37q-35 -13 -81 -13q-37 0 -72 12q-36 12 -62 30q-28 19 -47 39q-20 21 -27 42l23 80q34 -56 83 -87q48 -30 111 -30q56 0 84 27t28 69q0 35 -19 61t-45 49q-62 51 -109 93
q-36 32 -63 59q-37 37 -52 69q-15 31 -15 69q0 72 48 115q47 43 128 43q59 0 106 -28q49 -29 71 -69l-19 -80q-28 40 -69 67t-91 27q-43 0 -69 -19q-27 -20 -27 -58q0 -14 6 -28q5 -12 15 -25q6 -8 20 -22q8 -8 20 -18q15 -13 38.5 -32t32.5 -26q27 -23 42 -36
q20 -18 23 -21t7.5 -7t6.5 -6zM216 -188l2 -1q-15 7 -27 21t-12 36q0 28 18 45q19 17 42 17q25 0 44 -17q18 -17 18 -45q0 -23 -10 -40q-7 -12 -21 -34l-43 -77h-56z" />
    <glyph glyph-name="uni0219" unicode="&#x219;" horiz-adv-x="416" 
d="M155 240l-2 -3q-48 25 -72 60q-24 34 -24 74q0 57 37 93q38 36 111 36q27 0 48 -7q24 -8 41 -18t30 -23q12 -12 18 -24l-14 -67q-25 26 -57 43q-31 16 -69 16q-24 0 -48 -11q-22 -10 -22 -38q0 -23 19 -36t45 -27l60 -33q56 -30 83 -63t27 -82q0 -32 -12 -57t-33 -45
t-52 -30q-30 -10 -70 -10q-29 0 -51 7q-26 8 -45 19q-21 12 -36 27q-16 16 -23 31l16 68q30 -35 67 -51q36 -16 79 -16q15 0 30 3q16 3 27 10q13 8 20 18q8 11 8 27q0 24 -22 42q-23 18 -57 36zM184 -190l2 -1q-15 7 -27 21t-12 36q0 28 18 45q19 17 42 17q25 0 44 -17
q18 -17 18 -45q0 -23 -10 -40q-7 -12 -21 -34l-43 -77h-56z" />
    <glyph glyph-name="uni021A" unicode="&#x21a;" horiz-adv-x="579" 
d="M16 718h543v-81h-233v-637h-78v637h-232v81zM267 -187l2 -1q-15 8 -27 21t-12 36q0 29 18 45q19 17 42 17q25 0 44 -17q18 -16 18 -45q0 -23 -10 -40q-7 -12 -21 -34l-43 -77h-56z" />
    <glyph glyph-name="uni021B" unicode="&#x21b;" horiz-adv-x="432" 
d="M383 51l-1 -1q-11 -26 -42 -44q-32 -18 -76 -18q-66 0 -102 40t-36 126v259h-90v24l139 178h24v-124h182v-78h-181v-246q0 -51 21 -73t61 -22q32 0 51 13t33 30zM236 -188l2 -1q-15 7 -27 21t-12 36q0 28 18 45q19 17 42 17q25 0 44 -17q18 -17 18 -45q0 -23 -10 -40
q-7 -12 -21 -34l-43 -77h-56z" />
    <glyph glyph-name="schwa" unicode="&#x259;" horiz-adv-x="563" 
d="M43 237l-4 -1q0 16 3 34h391q-7 76 -57 112t-120 36q-55 0 -93 -16q-39 -16 -69 -48l-14 65q8 17 24 32q18 16 40 26q25 11 52 18t60 7q52 0 99 -18t81 -51t54 -81q19 -47 19 -108q0 -52 -17 -100q-16 -46 -48 -81t-75 -54q-45 -20 -99 -20q-52 0 -93 19q-42 20 -72 54
q-29 34 -46 79q-16 44 -16 96zM268 68h2q29 0 53 7t48 23q22 14 37 39q15 24 21 55h-310q7 -58 48 -91t101 -33z" />
    <glyph glyph-name="circumflex" unicode="&#x2c6;" horiz-adv-x="424" 
d="M271 723l71 -143h-74l-56 70l-56 -70h-74l71 143h118z" />
    <glyph glyph-name="caron" unicode="&#x2c7;" horiz-adv-x="424" 
d="M153 580l-71 143h74l56 -70l56 70h74l-71 -143h-118z" />
    <glyph glyph-name="uni02C9" unicode="&#x2c9;" horiz-adv-x="447" 
d="M363 696v-78h-278v78h278z" />
    <glyph glyph-name="breve" unicode="&#x2d8;" horiz-adv-x="455" 
d="M227 581v-2q-31 0 -55 10q-27 11 -44 28q-18 18 -30 42q-11 23 -13 53h78q4 -21 22 -34q17 -13 43 -13q24 0 43 14q17 13 22 35h78q-2 -30 -13 -53q-12 -25 -31 -42t-45 -28q-24 -10 -55 -10z" />
    <glyph glyph-name="dotaccent" unicode="&#x2d9;" horiz-adv-x="316" 
d="M99 655q0 25 17 42t42 17t42 -17t17 -42t-17 -42t-42 -17t-42 17t-17 42z" />
    <glyph glyph-name="ring" unicode="&#x2da;" horiz-adv-x="361" 
d="M84 660q0 43 29 72t72 29t72 -29t29 -72t-29 -72t-72 -29t-72 29t-29 72zM185 704q-19 0 -33 -12q-13 -12 -13 -32t13 -32q14 -12 33 -12t33 12q13 12 13 32t-13 32q-14 12 -33 12z" />
    <glyph glyph-name="ogonek" unicode="&#x2db;" horiz-adv-x="340" 
d="M196 0l1 -2q-13 -13 -24 -35q-10 -20 -10 -42q0 -25 15 -40t38 -15q16 0 26 6l12 -58q-8 -9 -22 -15q-15 -6 -37 -6q-51 0 -76 30q-25 29 -25 71q0 18 5 36q5 16 12 30q7 12 17 24q7 8 17 16h51z" />
    <glyph glyph-name="tilde" unicode="&#x2dc;" horiz-adv-x="486" 
d="M97 583l-2 -2q-3 7 -7 23q-3 12 -3 24q0 38 24 62t59 24q22 0 42 -9q22 -10 36 -19q11 -7 31 -19q15 -9 27 -9q31 0 31 39v7q0 5 -1 8h53q9 -24 9 -46q0 -40 -24 -62q-25 -23 -58 -23q-22 0 -42 9q-22 10 -36 19q-3 2 -14 8.5t-16 10.5q-14 9 -26 9q-31 0 -31 -39v-7
q0 -5 1 -8h-53z" />
    <glyph glyph-name="hungarumlaut" unicode="&#x2dd;" horiz-adv-x="505" 
d="M261 723l-106 -143h-70l63 143h113zM420 723l-105 -143h-71l63 143h113z" />
    <glyph glyph-name="uni0394" unicode="&#x394;" horiz-adv-x="641" 
d="M628 0h-617q13 35 37 98.5t31 83.5l66 177l66 177q12 31 34 92.5t33 89.5h86zM518 79l-198 548l-199 -548h397z" />
    <glyph glyph-name="uni03A9" unicode="&#x3a9;" horiz-adv-x="804" 
d="M402 729l-6 -2q76 0 142 -29q64 -28 111 -78t72 -117q25 -66 25 -144q0 -53 -12 -100q-13 -49 -31 -83q-19 -36 -42 -60t-42 -33h134v-83h-262v70q39 19 69 46q32 29 56 65q25 37 38 81q14 47 14 98q0 63 -19 114q-20 53 -55 90q-36 38 -85 60q-48 22 -110 22t-110 -22
q-49 -22 -85 -60q-35 -37 -55 -90q-19 -51 -19 -114q0 -51 14 -98q13 -44 38 -81q22 -34 56 -64q30 -27 69 -46v-70h-262v83h134q-19 9 -42 33t-42 60q-18 34 -31 83q-12 46 -12 101q0 78 25 144q25 67 72 117t111 78q66 29 142 29z" />
    <glyph glyph-name="uni03BC" unicode="&#x3bc;" horiz-adv-x="591" 
d="M294 -11l-2 -1q-38 0 -72 12t-63 36v-249h-74v705h74v-275q0 -71 37 -109q37 -39 97 -39q23 0 49 8q23 7 43 21q19 13 33 32q14 18 18 39v323h74v-492h-72v60q-11 -29 -49 -50q-39 -21 -93 -21z" />
    <glyph glyph-name="pi" unicode="&#x3c0;" horiz-adv-x="639" 
d="M216 0h-74v412h-92v80h539v-80h-92v-412h-74v412h-207v-412z" />
    <glyph glyph-name="uni0401" unicode="&#x401;" horiz-adv-x="531" 
d="M92 718h379v-83h-301v-224h271v-83h-271v-245h301v-83h-379v718zM125 842q0 27 18 45t45 18t45 -18t18 -45t-18 -45t-45 -18t-45 18t-18 45zM324 842q0 27 18 45t45 18t45 -18t18 -45t-18 -45t-45 -18t-45 18t-18 45z" />
    <glyph glyph-name="uni0402" unicode="&#x402;" horiz-adv-x="637" 
d="M384 413h-1q42 0 81 -15q40 -15 69 -43q31 -29 50 -69q19 -39 19 -93q0 -48 -16 -84q-17 -38 -43 -63t-63 -40q-36 -15 -77 -15q-35 0 -60 12t-36 26l19 69q13 -11 33 -17q21 -6 45 -6q56 0 89 34t33 85q0 29 -12 53t-33 42q-22 19 -50 29q-30 11 -63 11q-37 0 -69 -5
q-29 -4 -54 -12v-313h-78v637h-152v81h445v-81h-215v-240q24 7 59 12q38 5 80 5z" />
    <glyph glyph-name="uni0403" unicode="&#x403;" horiz-adv-x="490" 
d="M97 718h343v-83h-265v-635h-78v718zM395 905l-106 -133h-80l63 133h123z" />
    <glyph glyph-name="uni0404" unicode="&#x404;" horiz-adv-x="699" 
d="M390 636l-4 9q-111 0 -180 -63q-70 -64 -83 -172h343v-83h-344q4 -59 26 -108q21 -47 56 -81q36 -34 82 -50q49 -17 105 -17q84 0 147 36t100 91l25 -71q-13 -29 -39 -54q-25 -25 -62 -45q-34 -18 -80 -31q-44 -12 -92 -12q-72 0 -134 25q-65 26 -110 73q-47 49 -74 117
q-27 69 -27 154t27 154t75 117q47 47 111 73q62 25 133 25q47 0 91 -12t79 -31t61 -45q25 -25 37 -51l-23 -73q-40 55 -102 90t-144 35z" />
    <glyph glyph-name="uni0405" unicode="&#x405;" horiz-adv-x="483" 
d="M346 349l-3 -1q45 -42 68 -81q24 -41 24 -94q0 -39 -14 -75q-13 -34 -39 -58q-24 -23 -62 -37q-35 -13 -81 -13q-37 0 -72 12q-36 12 -62 30q-28 19 -47 39q-20 21 -27 42l23 80q34 -56 83 -87q48 -30 111 -30q56 0 84 27t28 69q0 35 -19 61t-45 49q-62 51 -109 93
q-36 32 -63 59q-37 37 -52 69q-15 31 -15 69q0 72 48 115q47 43 128 43q59 0 106 -28q49 -29 71 -69l-19 -80q-28 40 -69 67t-91 27q-43 0 -69 -19q-27 -20 -27 -58q0 -14 6 -28q5 -12 15 -25q6 -8 20 -22q8 -8 20 -18q15 -13 38.5 -32t32.5 -26q27 -23 42 -36
q20 -18 23 -21t7.5 -7t6.5 -6z" />
    <glyph glyph-name="uni0406" unicode="&#x406;" horiz-adv-x="262" 
d="M92 718h78v-718h-78v718z" />
    <glyph glyph-name="uni0407" unicode="&#x407;" horiz-adv-x="262" 
d="M92 718h78v-718h-78v718zM-30 842q0 27 18 45t45 18t45 -18t18 -45t-18 -45t-45 -18t-45 18t-18 45zM169 842q0 27 18 45t45 18t45 -18t18 -45t-18 -45t-45 -18t-45 18t-18 45z" />
    <glyph glyph-name="uni0408" unicode="&#x408;" horiz-adv-x="395" 
d="M308 176l1 1q0 -89 -39 -138t-126 -49q-27 0 -48 6t-36 15q-14 8 -25 21q-10 12 -15 23l8 79q23 -28 51 -44q29 -17 63 -17q42 0 65 26t23 92v527h78v-542z" />
    <glyph glyph-name="uni0409" unicode="&#x409;" horiz-adv-x="930" 
d="M470 0l-2 630h-198v-17q-6 -179 -23 -304q-16 -119 -45 -190q-28 -70 -68 -99q-38 -28 -91 -28q-13 0 -22 3l-12 77q28 2 50 9t42 29q19 20 34 61t27 108q11 62 19 167q7 99 12 239l1 30h353v-288h128q49 0 90 -15q40 -15 69 -44q28 -28 45 -68t17 -87q0 -48 -17 -88
q-16 -37 -47 -67q-29 -28 -70 -43q-40 -15 -87 -15h-205zM688 78l-1 -2q27 0 52 11q24 11 41 29q17 19 26 42q9 24 9 51t-9 51q-9 23 -26 42q-18 19 -40 29q-25 11 -52 11h-142v-264h142z" />
    <glyph glyph-name="uni040A" unicode="&#x40a;" horiz-adv-x="945" 
d="M485 0l-1 322h-315v-325h-78v718h78v-308h315v308h78v-288h128q50 0 90 -15t69 -44q28 -28 45 -68t17 -87q0 -48 -17 -88q-16 -37 -47 -67q-29 -28 -70 -43t-87 -15h-205zM704 80l-1 -2q27 0 52 11q24 11 41 29q17 19 26 42q9 24 9 51t-9 51q-9 23 -26 42q-18 19 -40 29
q-25 11 -52 11h-142v-264h142z" />
    <glyph glyph-name="uni040B" unicode="&#x40b;" horiz-adv-x="657" 
d="M522 0l-1 182q0 78 -37 111t-112 33q-34 0 -66 -5q-28 -5 -60 -12v-310h-78v637h-152v81h445v-81h-215v-243q34 7 71 12q40 5 74 5q45 0 81 -10q38 -10 66 -33q29 -23 45 -58q17 -37 17 -87v-222h-78z" />
    <glyph glyph-name="uni040C" unicode="&#x40c;" horiz-adv-x="628" 
d="M92 718h78v-332l310 332h104l-327 -351l361 -367h-115l-333 337v-337h-78v718zM445 905l-106 -133h-80l63 133h123z" />
    <glyph glyph-name="uni040E" unicode="&#x40e;" horiz-adv-x="564" 
d="M30 718h87l177 -394l158 394h86l-287 -718h-86l89 220zM440 893h2q0 -31 -12 -57q-12 -25 -33 -43q-20 -17 -51 -28q-29 -10 -63 -10q-35 0 -62 10q-30 11 -51 28q-22 18 -34 43q-12 26 -12 57l70 18q2 -30 24 -51t63 -21t63 21t24 51z" />
    <glyph glyph-name="uni040F" unicode="&#x40f;" horiz-adv-x="741" 
d="M92 718h78v-635h402v635h77v-718h-241v-154h-74v154h-242v718z" />
    <glyph glyph-name="uni0410" unicode="&#x410;" horiz-adv-x="668" 
d="M655 0h-84l-68 174h-338l-67 -174h-84l281 718h81zM198 257h273l-137 350z" />
    <glyph glyph-name="uni0411" unicode="&#x411;" horiz-adv-x="560" 
d="M92 0l-1 718h362v-83h-284v-204h121q50 0 90 -15t69 -44q28 -28 45 -68t17 -87q0 -48 -17 -90q-16 -40 -47 -69q-29 -28 -70 -43t-87 -15h-198zM305 84l-1 2q27 0 51 9q25 9 41 27t27 42q10 23 10 53t-10 53q-11 24 -27 42q-17 18 -40 27q-24 9 -51 9h-136v-264h136z" />
    <glyph glyph-name="uni0412" unicode="&#x412;" horiz-adv-x="578" 
d="M424 380l-1 -2q42 -18 72 -62t30 -108q0 -51 -16 -89q-17 -39 -45 -66q-29 -28 -69 -41q-42 -14 -88 -14h-216v718h179q49 0 88 -13q40 -13 69 -39t45 -61t16 -82q0 -49 -18 -84t-46 -57zM320 81l-1 -1q25 0 48 9q22 9 41 26q17 16 28 39q10 21 10 50q0 24 -9 46t-26 39
t-40 27t-51 10h-151v-245h151zM168 408l120 -1q50 0 85 30q34 30 34 81q0 24 -9 45t-24 36t-37 24q-23 9 -48 9h-121v-224z" />
    <glyph glyph-name="uni0413" unicode="&#x413;" horiz-adv-x="485" 
d="M92 718h343v-83h-265v-635h-78v718z" />
    <glyph glyph-name="uni0414" unicode="&#x414;" horiz-adv-x="780" 
d="M626 83l101 -2v-237h-75v154h-548v-154h-75v237h56q32 54 64 120q29 59 52 130t35 149q12 79 12 176v62h378v-635zM547 81l1 553h-222q2 -78 -10 -153q-12 -77 -33 -151t-48 -138q-26 -62 -56 -111h368z" />
    <glyph glyph-name="uni0415" unicode="&#x415;" horiz-adv-x="531" 
d="M92 718h379v-83h-301v-224h271v-83h-271v-245h301v-83h-379v718z" />
    <glyph glyph-name="uni0416" unicode="&#x416;" horiz-adv-x="918" 
d="M498 387l281 331h104l-302 -352l325 -366h-110l-298 338v-338h-78v338l-298 -338h-110l325 366l-302 352h104l281 -331v331h78v-331z" />
    <glyph glyph-name="uni0417" unicode="&#x417;" horiz-adv-x="517" 
d="M363 384l-7 -1q48 -26 74 -70q27 -45 27 -108q0 -51 -16 -90q-17 -41 -45 -69q-29 -29 -68 -44t-85 -15q-35 0 -69 9t-63 24q-26 14 -49 35q-20 19 -28 42l24 67q37 -52 81 -73q43 -21 99 -21q66 0 104 36t38 96q0 24 -9 48q-9 25 -28 42q-19 18 -48 30t-66 12h-56v83h64
q30 0 51 10q22 10 37 27q16 18 23 37q8 22 8 43t-8 42q-8 20 -21 35q-14 15 -34 24q-21 9 -46 9q-51 0 -88 -23q-35 -22 -64 -63l-25 67q10 21 27 39q18 19 39 32q24 15 51 23q29 9 63 9q44 0 78 -15t58 -40t36 -60t12 -73q0 -46 -18 -87q-18 -40 -53 -69z" />
    <glyph glyph-name="uni0418" unicode="&#x418;" horiz-adv-x="759" 
d="M667 0h-78v598l-408 -598h-89v718h78v-601l408 601h89v-718z" />
    <glyph glyph-name="uni0419" unicode="&#x419;" horiz-adv-x="759" 
d="M667 0h-78v598l-408 -598h-89v718h78v-601l408 601h89v-718zM539 893h2q0 -31 -12 -57q-12 -25 -33 -43q-20 -17 -51 -28q-29 -10 -63 -10q-35 0 -62 10q-30 11 -51 28q-22 18 -34 43q-12 26 -12 57l70 18q1 -30 24 -51t63 -21t63 21t24 51z" />
    <glyph glyph-name="uni041A" unicode="&#x41a;" horiz-adv-x="628" 
d="M92 718h78v-332l310 332h104l-327 -351l361 -367h-115l-333 337v-337h-78v718z" />
    <glyph glyph-name="uni041B" unicode="&#x41b;" horiz-adv-x="688" 
d="M596 718l-1 -720h-78v635h-246v-17q-6 -179 -23 -304q-16 -119 -45 -190q-28 -70 -68 -99q-38 -28 -91 -28q-13 0 -22 3l-12 77q28 2 50 9t42 29q19 20 34 61q15 40 27 108q11 62 19 167q7 99 12 239l1 30h401z" />
    <glyph glyph-name="uni041C" unicode="&#x41c;" horiz-adv-x="952" 
d="M698 718h86l96 -718h-76l-81 586l-212 -586h-79l-217 586l-74 -586h-79l95 718h86l226 -612z" />
    <glyph glyph-name="uni041D" unicode="&#x41d;" horiz-adv-x="753" 
d="M92 718h78v-307h413v307h78v-718h-78v328h-413v-328h-78v718z" />
    <glyph glyph-name="uni041E" unicode="&#x41e;" horiz-adv-x="790" 
d="M395 -11l-4 -2q-69 0 -135 29q-64 28 -112 78q-49 50 -77 117q-28 66 -28 147q0 78 29 147q28 67 77 117q48 49 113 78q66 29 135 29q72 0 135 -28q65 -29 113 -78q49 -50 77 -117q29 -69 29 -147q0 -81 -28 -147q-28 -67 -77 -117q-48 -50 -112 -78q-63 -28 -135 -28z
M391 643q-58 0 -109 -21q-49 -20 -88 -59q-37 -37 -58 -90t-21 -114t21 -114t58 -90q39 -39 88 -59q51 -21 109 -21t109 21q49 20 88 59q37 37 58 90t21 114t-21 114t-58 90q-39 39 -88 59q-51 21 -109 21z" />
    <glyph glyph-name="uni041F" unicode="&#x41f;" horiz-adv-x="744" 
d="M92 718h560v-718h-77v635h-405v-635h-78v718z" />
    <glyph glyph-name="uni0420" unicode="&#x420;" horiz-adv-x="545" 
d="M290 718l-1 -3q47 0 87 -15q42 -16 71 -43q31 -30 47 -67q17 -40 17 -88q0 -49 -16 -87q-17 -40 -45 -68q-29 -29 -69 -44q-41 -15 -90 -15h-121v-288h-78v718h198zM169 632l-1 -266h135q27 0 52 11q24 11 41 29q17 19 26 42q9 24 9 51t-9 51q-9 23 -26 42q-18 19 -40 29
q-25 11 -52 11h-135z" />
    <glyph glyph-name="uni0421" unicode="&#x421;" horiz-adv-x="698" 
d="M660 130l-3 2q-13 -28 -39 -54t-61 -45t-79 -31t-92 -12q-69 0 -133 26q-62 25 -111 74q-47 47 -76 117q-28 68 -28 153t28 153q29 70 76 117q49 49 111 74q64 26 133 26q48 0 91 -12q44 -12 79 -31t61 -45q25 -25 37 -51l-23 -71q-41 59 -102 92t-141 33q-60 0 -110 -21
q-49 -21 -85 -58q-35 -37 -55 -90q-19 -51 -19 -117q0 -63 20 -117q20 -53 55 -90q35 -36 86 -58q50 -21 110 -21q83 0 146 36q64 36 101 90z" />
    <glyph glyph-name="uni0422" unicode="&#x422;" horiz-adv-x="575" 
d="M16 718h543v-81h-233v-637h-78v637h-232v81z" />
    <glyph glyph-name="uni0423" unicode="&#x423;" horiz-adv-x="564" 
d="M30 718h87l177 -394l158 394h86l-287 -718h-86l89 220z" />
    <glyph glyph-name="uni0424" unicode="&#x424;" horiz-adv-x="788" 
d="M355 -12l-2 87q-66 1 -124 23q-56 21 -99 59q-42 37 -66 90t-24 117t24 117t66 90q43 38 99 59q58 22 125 23v78h78v-78q67 -1 125 -23q56 -21 99 -59q42 -37 66 -90t24 -117t-24 -117t-66 -90q-43 -38 -99 -59q-58 -22 -124 -23v-87h-78zM666 366l-1 4q0 48 -18 86
t-49 63q-32 25 -75 39t-93 15v-411q50 2 93 15t75 39t50 63t18 87zM117 370l-1 -4q0 -50 18 -87t50 -63t75 -39t93 -15v411q-50 -1 -93 -15t-75 -39q-31 -25 -49 -63t-18 -86z" />
    <glyph glyph-name="uni0425" unicode="&#x425;" horiz-adv-x="624" 
d="M123 0h-101l240 373l-224 345h96l177 -273l177 273h100l-225 -344l239 -374h-94l-194 297z" />
    <glyph glyph-name="uni0426" unicode="&#x426;" horiz-adv-x="792" 
d="M92 718h78v-635h390v635h78v-635h102v-237h-75v154h-573v718z" />
    <glyph glyph-name="uni0427" unicode="&#x427;" horiz-adv-x="585" 
d="M135 718l-2 -185q0 -78 38 -111t113 -33q35 0 68 5q29 4 61 12v310h78v-718h-78v324q-34 -7 -71 -12q-32 -4 -74 -4q-41 0 -82 11q-38 10 -67 33q-28 22 -45 59t-17 87v222h78z" />
    <glyph glyph-name="uni0428" unicode="&#x428;" horiz-adv-x="970" 
d="M92 718h78v-635h275v635h78v-635h277v635h78v-718h-786v718z" />
    <glyph glyph-name="uni0429" unicode="&#x429;" horiz-adv-x="1032" 
d="M92 718h78v-635h275v635h78v-635h277v635h78v-635h102v-237h-75v154h-813v718z" />
    <glyph glyph-name="uni042A" unicode="&#x42a;" horiz-adv-x="628" 
d="M168 0l-1 632h-151v83h229v-288h128q49 0 90 -15q40 -15 69 -44q28 -28 45 -68t17 -87q0 -48 -17 -88q-16 -37 -47 -67q-29 -28 -70 -43q-40 -15 -87 -15h-205zM387 80l-1 -2q27 0 52 11q24 11 41 29q17 19 26 42q9 24 9 51t-9 51q-9 23 -26 42q-18 19 -40 29
q-25 11 -52 11h-142v-264h142z" />
    <glyph glyph-name="uni042B" unicode="&#x42b;" horiz-adv-x="782" 
d="M612 718h78v-718h-78v718zM290 0l-1 3q47 0 87 15q42 16 71 43q31 30 47 67q17 40 17 88q0 49 -16 87q-17 40 -45 68q-29 29 -69 44q-41 15 -90 15h-121v288h-78v-718h198zM169 86l-1 262h135q29 0 52 -10q26 -11 41 -28q17 -19 26 -42q9 -24 9 -51t-9 -51
q-9 -23 -26 -42q-16 -18 -40 -28q-23 -10 -52 -10h-135z" />
    <glyph glyph-name="uni042C" unicode="&#x42c;" horiz-adv-x="545" 
d="M289 3l1 -3h-198v718h78v-288h121q49 0 90 -15q40 -15 69 -44q28 -28 45 -68q16 -38 16 -87q0 -48 -17 -88q-16 -37 -47 -67q-29 -27 -71 -43q-40 -15 -87 -15zM168 348l1 -262h135q29 0 52 10q24 10 40 28q17 19 26 42q9 24 9 51t-9 51q-9 23 -26 42q-15 17 -41 28
q-23 10 -52 10h-135z" />
    <glyph glyph-name="uni042D" unicode="&#x42d;" horiz-adv-x="701" 
d="M315 645l-5 -9q-82 0 -144 -35t-102 -90l-23 73q12 26 37 51q26 26 61 45t79 31t91 12q71 0 133 -25q64 -26 111 -73q48 -48 75 -117t27 -154t-27 -154q-27 -68 -74 -117q-45 -47 -110 -73q-62 -25 -134 -25q-48 0 -92 12q-46 13 -80 31q-37 20 -62 45q-26 25 -39 54
l25 71q37 -55 100 -91t147 -36q56 0 105 17q48 16 83 50t56 81q22 49 26 108h-344v83h343q-13 108 -83 172q-69 63 -180 63z" />
    <glyph glyph-name="uni042E" unicode="&#x42e;" horiz-adv-x="1052" 
d="M657 -11l-2 -1q-66 0 -129 26q-60 25 -109 71q-48 45 -78 107t-36 135h-135v-328h-78v718h78v-307h137q9 68 41 128t79 101q48 42 107 66q58 24 123 24q72 0 135 -28q65 -29 113 -78q49 -50 77 -117q29 -69 29 -147q0 -81 -28 -147q-28 -67 -77 -117q-48 -50 -112 -78
q-63 -28 -135 -28zM655 644q-58 0 -109 -21q-49 -20 -88 -59q-37 -37 -58 -90q-21 -52 -21 -114t21 -114q21 -53 58 -90q39 -39 88 -59q51 -21 109 -21t109 21q49 20 88 59q37 37 58 90q21 52 21 114t-21 114q-21 53 -58 90q-39 39 -88 59q-51 21 -109 21z" />
    <glyph glyph-name="uni042F" unicode="&#x42f;" horiz-adv-x="553" 
d="M461 0l-79 -2v302h-88l-170 -302h-92l175 313q-68 16 -111 68q-42 51 -42 132q0 53 18 92t50 65q33 27 70 38q39 12 80 12h189v-718zM256 633l-2 1q-55 0 -88 -36t-33 -91q0 -29 11 -53q11 -23 30 -38q20 -15 45 -24q26 -9 52 -9h111v250h-126z" />
    <glyph glyph-name="uni0430" unicode="&#x430;" horiz-adv-x="544" 
d="M255 503v-1q45 0 84 -12t66 -36q28 -25 44 -60t16 -82v-312h-72v47q-19 -25 -60 -42q-39 -16 -87 -16q-92 0 -144 43t-52 118q0 36 15 65t42 50q26 20 63 31q38 11 78 11q8 0 32 -2q21 -2 38 -7q20 -6 39 -15q20 -9 33 -22v31q0 68 -40 99q-41 32 -100 32q-48 0 -87 -19
q-41 -20 -63 -48l-20 66q12 18 28 32q19 16 41 26q24 11 50 17q27 6 56 6zM390 174v2q-14 26 -52 38q-39 12 -85 12q-59 0 -94 -21q-34 -21 -34 -55t33 -58t97 -24q45 0 84 17q37 16 51 44v45z" />
    <glyph glyph-name="uni0431" unicode="&#x431;" horiz-adv-x="616" 
d="M518 663l-2 -2q-24 -18 -54 -31q-26 -11 -58 -19q-40 -10 -61 -14q-35 -7 -63 -16q-41 -14 -67 -34q-25 -20 -43 -47q-17 -26 -24 -55q-7 -28 -7 -58q18 27 42 45q22 16 50 28q25 10 51 15q23 4 48 4q50 0 92 -18q44 -19 74 -49q31 -31 49 -75q18 -43 18 -96t-18 -99
t-51 -81t-78 -54q-44 -19 -96 -19q-57 0 -105 21q-47 21 -82 63t-54 105q-19 61 -19 148q0 125 39 206q39 82 120 116q27 12 65 22q23 6 71 18t71 19q36 11 65 27zM317 67l-3 3q75 0 124 44q48 44 48 120q0 36 -12 66q-12 31 -34 51q-22 21 -54 33t-69 12q-27 0 -55 -9
q-29 -9 -52 -25q-24 -16 -43 -40q-19 -23 -28 -55q1 -47 15 -84q13 -37 38 -63q24 -25 56 -39q33 -14 69 -14z" />
    <glyph glyph-name="uni0432" unicode="&#x432;" horiz-adv-x="504" 
d="M264 492l-1 -2q36 0 66 -9q29 -9 52 -27q22 -17 34 -42q12 -24 12 -55q0 -68 -43 -102q32 -17 50 -45t18 -70q0 -32 -13 -57q-14 -26 -36 -44q-24 -19 -54 -29t-67 -10h-197v492h179zM158 207v-131h146q30 0 51 18t21 47q0 30 -21 48t-51 18h-146zM158 408l-1 -124h125
q28 0 50 17q21 17 21 45t-21 45q-22 17 -49 17h-125z" />
    <glyph glyph-name="uni0433" unicode="&#x433;" horiz-adv-x="424" 
d="M387 492v-80h-228v-412h-74v492h302z" />
    <glyph glyph-name="uni0434" unicode="&#x434;" horiz-adv-x="630" 
d="M81 80l-2 2q19 27 39 63q20 38 35 83q16 50 26 105q10 56 10 129v30h313v-412h88v-211h-71v131h-416v-131h-71v211h49zM426 82l-1 330h-169q-3 -62 -13 -111q-11 -53 -24 -96q-14 -47 -28 -75q-16 -35 -25 -48h260z" />
    <glyph glyph-name="uni0435" unicode="&#x435;" horiz-adv-x="571" 
d="M520 255h2q0 -16 -3 -34h-391q7 -76 57 -112q49 -36 120 -36q55 0 93 16q39 17 69 48l14 -65q-8 -17 -24 -32q-18 -16 -40 -26q-25 -11 -52 -18t-60 -7q-53 0 -99 18t-81 51t-54 81q-19 47 -19 108q0 53 17 101q17 46 48 81t75 54q45 20 99 20q52 0 93 -19q42 -20 72 -54
q31 -36 47 -79q17 -46 17 -96zM293 423l-2 -1q-29 0 -53 -7t-48 -23q-22 -14 -37 -39q-15 -24 -21 -55h310q-8 59 -48 92q-41 33 -101 33z" />
    <glyph glyph-name="uni0436" unicode="&#x436;" horiz-adv-x="767" 
d="M420 274l212 218h101l-230 -239l257 -253h-112l-228 226v-226h-74v226l-228 -226h-113l258 253l-230 239h101l212 -218v218h74v-218z" />
    <glyph glyph-name="uni0437" unicode="&#x437;" horiz-adv-x="468" 
d="M219 69l-1 -4q58 0 89 23q30 22 30 54t-25 51t-76 19h-64v80h59q45 0 66 18t21 47q0 28 -24 46t-64 18q-39 0 -75 -14q-34 -13 -67 -45l-20 58q23 37 66 59q44 23 102 23q34 0 63 -9q28 -9 50 -26q21 -17 33 -42t12 -55q0 -38 -16 -66q-17 -29 -43 -42q37 -14 60 -45
q22 -31 22 -76q0 -33 -15 -61q-15 -29 -40 -48q-24 -19 -60 -31q-34 -12 -73 -12q-59 0 -106 21t-72 60l19 60q25 -30 65 -46q39 -15 84 -15z" />
    <glyph glyph-name="uni0438" unicode="&#x438;" 
d="M159 492v-368l282 368h74v-492h-74v368l-282 -368h-74v492h74z" />
    <glyph glyph-name="uni0439" unicode="&#x439;" 
d="M159 492v-368l282 368h74v-492h-74v368l-282 -368h-74v492h74zM455 683h-1q-2 -60 -45 -96t-109 -36t-109 36t-45 96l70 17q1 -27 23 -49q21 -21 62 -21q39 0 60 21q22 22 23 49z" />
    <glyph glyph-name="uni043A" unicode="&#x43a;" horiz-adv-x="531" 
d="M85 492h74v-216l234 216h107l-260 -239l283 -253h-120l-244 222v-222h-74v492z" />
    <glyph glyph-name="uni043B" unicode="&#x43b;" horiz-adv-x="583" 
d="M20 74l1 -2q34 4 61 21q27 16 45 59q19 44 29 117q10 75 15 197l1 26h328v-492h-74v412h-182l-1 -21q-9 -199 -54 -297t-133 -98h-11q-7 0 -12 1z" />
    <glyph glyph-name="uni043C" unicode="&#x43c;" horiz-adv-x="750" 
d="M534 492h79l82 -492h-77l-59 352l-146 -352h-72l-146 352l-59 -352h-81l82 492h79l159 -381z" />
    <glyph glyph-name="uni043D" unicode="&#x43d;" horiz-adv-x="596" 
d="M159 492v-198h278v198h74v-492h-74v214h-278v-214h-74v492h74z" />
    <glyph glyph-name="uni043E" unicode="&#x43e;" 
d="M51 246l-2 -2q0 54 20 102q19 46 54 81q34 34 80 54t95 20q51 0 95 -19q46 -20 80 -54q35 -34 54 -81q20 -48 20 -102t-20 -102q-19 -47 -54 -81q-35 -35 -79 -54t-95 -19q-49 0 -95 20q-44 19 -79 54t-54 81q-20 48 -20 102zM298 421h-3q-39 0 -69 -13q-32 -14 -54 -37
q-22 -24 -36 -57q-13 -32 -13 -72q0 -38 14 -72q13 -33 36 -57q22 -23 54 -37q30 -13 69 -13q38 0 70 13q35 14 56 37q22 24 36 57q14 34 14 72q0 40 -13 72q-13 33 -36 57q-22 24 -55 37q-32 13 -70 13z" />
    <glyph glyph-name="uni043F" unicode="&#x43f;" horiz-adv-x="589" 
d="M504 492v-492h-74v412h-271v-412h-74v492h419z" />
    <glyph glyph-name="uni0440" unicode="&#x440;" horiz-adv-x="619" 
d="M85 -213l-3 707h72v-59q6 13 21 27q16 14 36 23q21 9 48 15t57 6q51 0 95 -19q46 -20 80 -54t55 -81q21 -46 21 -104t-21 -104q-21 -47 -55 -81q-35 -35 -79 -54t-95 -19q-59 0 -103 21q-43 21 -55 48v-272h-74zM491 248l-3 -2q0 42 -13 74q-14 35 -37 56q-25 23 -57 35
q-33 12 -72 12q-56 0 -100 -24q-43 -24 -55 -69v-166q12 -45 56 -69t101 -24q39 0 72 12q32 12 57 35q23 21 37 56q14 34 14 74z" />
    <glyph glyph-name="uni0441" unicode="&#x441;" horiz-adv-x="536" 
d="M485 71l-1 6q-7 -14 -23 -30q-14 -14 -38 -27q-21 -11 -52 -19q-28 -7 -66 -7q-51 0 -97 18t-81 51q-35 34 -56 81q-21 48 -21 106t21 105q21 46 56 81t81 53t97 18q36 0 63 -7q30 -8 51 -19q24 -13 38 -27q16 -16 23 -30l-18 -60q-22 22 -60 42q-37 19 -84 19
q-43 0 -79 -12q-35 -12 -61 -36q-25 -23 -40 -57q-15 -33 -15 -73t15 -73q15 -32 41 -57q25 -24 62 -36q36 -12 80 -12q52 0 87 19q38 21 59 43z" />
    <glyph glyph-name="uni0442" unicode="&#x442;" horiz-adv-x="486" 
d="M449 412h-169v-412h-74v412h-169v80h412v-80z" />
    <glyph glyph-name="uni0443" unicode="&#x443;" horiz-adv-x="531" 
d="M18 492h85l164 -388l158 388h85l-293 -705h-85l93 225z" />
    <glyph glyph-name="uni0444" unicode="&#x444;" horiz-adv-x="730" 
d="M328 -11v-2q-59 1 -112 20q-51 18 -87 51t-57 80q-21 46 -21 105q0 58 21 106t57 81t87 51q53 19 112 20v225h74v-225q62 -2 112 -19q51 -18 87 -51t57 -81t21 -106t-21 -105t-57 -80t-87 -51q-50 -17 -112 -19v-202h-74v202zM605 244l-2 -1q0 91 -56 135q-55 43 -147 43
v-354q44 0 83 11q37 10 65 32q27 21 42 54t15 80zM123 243l-2 -1q0 -46 15 -79t42 -54q28 -22 65 -32q36 -10 83 -10v354q-92 0 -147 -43q-56 -44 -56 -135z" />
    <glyph glyph-name="uni0445" unicode="&#x445;" horiz-adv-x="502" 
d="M111 0h-95l188 262l-169 230h94l121 -166l120 166h95l-168 -232l190 -260h-93l-142 195z" />
    <glyph glyph-name="uni0446" unicode="&#x446;" horiz-adv-x="629" 
d="M518 -131v131h-433v492h74v-412h268v412h74v-412h88v-211h-71z" />
    <glyph glyph-name="uni0447" unicode="&#x447;" horiz-adv-x="501" 
d="M57 492l72 1v-111q0 -34 9 -57t24 -36q14 -13 36 -19q21 -6 48 -6q58 0 96 24v203h74v-492h-74v202q-18 -7 -42 -12q-21 -4 -55 -4q-37 0 -72 9q-34 9 -60 32q-27 23 -41 58q-15 36 -15 89v119z" />
    <glyph glyph-name="uni0448" unicode="&#x448;" horiz-adv-x="843" 
d="M85 0v492h74v-412h225v412h74v-412h226v412h74v-492h-673z" />
    <glyph glyph-name="uni0449" unicode="&#x449;" horiz-adv-x="886" 
d="M85 0v492h74v-412h225v412h74v-412h226v412h74v-412h88v-211h-71v131h-690z" />
    <glyph glyph-name="uni044A" unicode="&#x44a;" horiz-adv-x="575" 
d="M154 0l-1 414h-130v80h204v-152h113q39 0 72 -13q34 -13 60 -36q25 -22 40 -54q15 -31 15 -67q0 -38 -15 -69q-15 -32 -40 -54q-26 -23 -60 -36q-33 -13 -72 -13h-186zM356 82l-1 -1q41 0 69 26q27 25 27 66t-28 65t-67 24h-129v-180h129z" />
    <glyph glyph-name="uni044B" unicode="&#x44b;" horiz-adv-x="676" 
d="M518 492h74v-492h-74v492zM85 0l-1 494h74v-152h99q39 0 72 -13q35 -13 60 -36q25 -22 40 -54q15 -31 15 -67q0 -38 -15 -69q-15 -32 -40 -54q-25 -23 -60 -36q-33 -13 -72 -13h-172zM273 82l-1 -1q41 0 69 26q27 25 27 66t-28 65q-29 24 -67 24h-115v-180h115z" />
    <glyph glyph-name="uni044C" unicode="&#x44c;" horiz-adv-x="506" 
d="M85 0l-1 494h74v-152h113q39 0 72 -13q35 -13 60 -36q25 -22 40 -54q15 -31 15 -67q0 -38 -15 -69q-15 -32 -40 -54q-25 -23 -60 -36q-33 -13 -72 -13h-186zM287 82l-1 -1q41 0 69 26q27 25 27 66t-28 65t-67 24h-129v-180h129z" />
    <glyph glyph-name="uni044D" unicode="&#x44d;" horiz-adv-x="536" 
d="M69 130l-1 -7q22 -22 59 -42q35 -19 87 -19q80 0 132 37q53 38 63 109h-219v80h215q-17 63 -67 96q-51 33 -124 33q-47 0 -83 -18q-34 -17 -58 -41l-18 58q7 14 23 30q14 14 38 27q21 11 51 19q27 7 63 7q50 0 97 -18t81 -52q35 -35 56 -81t21 -105q0 -58 -21 -106
q-21 -47 -56 -81q-34 -33 -81 -51t-97 -18q-34 0 -66 8q-31 8 -52 19q-24 13 -38 27q-16 16 -23 30z" />
    <glyph glyph-name="uni044E" unicode="&#x44e;" horiz-adv-x="800" 
d="M159 294l92 -4q7 46 30 84q22 37 56 66t74 44t86 15q51 0 95 -19q46 -20 80 -54t54 -81q20 -48 20 -102t-20 -102q-20 -47 -54 -81q-35 -35 -79 -54t-95 -19q-46 0 -89 17q-41 16 -75 47q-33 30 -54 72t-27 91h-94v-214h-74v492h74v-198zM496 419h-3q-39 0 -69 -13
q-32 -14 -54 -37q-22 -24 -36 -57q-13 -32 -13 -72q0 -38 14 -72q13 -33 36 -57q22 -23 54 -37q30 -13 69 -13q38 0 70 13q35 14 56 37q22 24 36 57q14 34 14 72q0 40 -13 72q-13 33 -36 57q-22 24 -55 37q-32 13 -70 13z" />
    <glyph glyph-name="uni044F" unicode="&#x44f;" horiz-adv-x="505" 
d="M421 492l-1 -494h-74v157h-110l-108 -157h-87l118 172q-46 19 -75 59q-28 38 -28 93q0 36 14 69q13 31 38 54t57 35q33 12 71 12h185zM225 410l1 -1q-43 0 -69 -25q-27 -26 -27 -63q0 -41 28 -63q29 -23 67 -23h121v175h-121z" />
    <glyph glyph-name="uni0451" unicode="&#x451;" horiz-adv-x="571" 
d="M520 255h2q0 -16 -3 -34h-391q7 -76 57 -112q49 -36 120 -36q55 0 93 16q39 17 69 48l14 -65q-8 -17 -24 -32q-18 -16 -40 -26q-25 -11 -52 -18t-60 -7q-53 0 -99 18t-81 51t-54 81q-19 47 -19 108q0 53 17 101q17 46 48 81t75 54q45 20 99 20q52 0 93 -19q42 -20 72 -54
q31 -36 47 -79q17 -46 17 -96zM293 423l-2 -1q-29 0 -53 -7t-48 -23q-22 -14 -37 -39q-15 -24 -21 -55h310q-8 59 -48 92q-41 33 -101 33zM137 651q0 24 17 41t41 17t41 -17t17 -41t-17 -41t-41 -17t-41 17t-17 41zM325 651q0 24 17 41t41 17t41 -17t17 -41t-17 -41t-41 -17
t-41 17t-17 41z" />
    <glyph glyph-name="uni0452" unicode="&#x452;" horiz-adv-x="591" 
d="M440 262l1 -1q0 71 -39 108q-40 38 -97 38q-27 0 -49 -7q-23 -7 -43 -21t-33 -31q-14 -18 -18 -40v-308h-74v573h-81v78h81v77h74v-77h147v-78h-147v-156q11 29 48 50q38 21 93 21q41 0 77 -13q39 -14 68 -40q30 -27 48 -69t18 -100v-336q0 -153 -112 -153q-18 0 -43 6
q-24 6 -40 26l7 65q10 -10 26 -15q13 -4 26 -4q38 0 50 24t12 68v315z" />
    <glyph glyph-name="uni0453" unicode="&#x453;" horiz-adv-x="424" 
d="M387 492v-80h-228v-412h-74v492h302zM352 723l-106 -143h-74l62 143h118z" />
    <glyph glyph-name="uni0454" unicode="&#x454;" horiz-adv-x="536" 
d="M467 123v7l18 -59q-7 -14 -23 -30q-14 -14 -38 -27q-21 -11 -52 -19q-32 -8 -66 -8q-50 0 -97 18t-81 51q-35 34 -56 81q-21 48 -21 106q0 59 21 105t56 81q34 34 81 52q46 18 97 18q36 0 63 -7q30 -8 51 -19q24 -13 38 -27q16 -16 23 -30l-18 -58q-24 24 -58 41
q-36 18 -83 18q-73 0 -124 -33q-50 -33 -67 -96h215v-80h-219q10 -71 63 -109q52 -37 132 -37q52 0 87 19t58 42z" />
    <glyph glyph-name="uni0455" unicode="&#x455;" horiz-adv-x="416" 
d="M155 240l-2 -3q-48 25 -72 60q-24 34 -24 74q0 57 37 93q38 36 111 36q27 0 48 -7q24 -8 41 -18t30 -23q12 -12 18 -24l-14 -67q-25 26 -57 43q-31 16 -69 16q-24 0 -48 -11q-22 -10 -22 -38q0 -23 19 -36t45 -27l60 -33q56 -30 83 -63t27 -82q0 -32 -12 -57t-33 -45
t-52 -30q-30 -10 -70 -10q-29 0 -51 7q-26 8 -45 19q-21 12 -36 27q-16 16 -23 31l16 68q30 -35 67 -51q36 -16 79 -16q15 0 30 3q16 3 27 10q13 8 20 18q8 11 8 27q0 24 -22 42q-23 18 -57 36z" />
    <glyph glyph-name="uni0456" unicode="&#x456;" horiz-adv-x="240" 
d="M83 492h74v-492h-74v492zM61 655q0 25 17 42t42 17t42 -17t17 -42t-17 -42t-42 -17t-42 17t-17 42z" />
    <glyph glyph-name="uni0457" unicode="&#x457;" horiz-adv-x="241" 
d="M84 492h75v-492h-75v492zM-31 651q0 24 17 41t41 17t41 -17t17 -41t-17 -41t-41 -17t-41 17t-17 41zM157 651q0 24 17 41t41 17t41 -17t17 -41t-17 -41t-41 -17t-41 17t-17 41z" />
    <glyph glyph-name="uni0458" unicode="&#x458;" horiz-adv-x="248" 
d="M91 492l74 1v-563q0 -153 -112 -153q-17 0 -43 6q-24 6 -40 26l7 65q10 -10 26 -15q13 -4 26 -4q38 0 50 24t12 68v545zM69 656q0 25 17 42t42 17t42 -17t17 -42t-17 -42t-42 -17t-42 17t-17 42z" />
    <glyph glyph-name="uni0459" unicode="&#x459;" horiz-adv-x="795" 
d="M466 492v-152h95q39 0 72 -13q35 -13 60 -36q25 -22 40 -54q15 -31 15 -67q0 -38 -15 -69q-15 -32 -40 -54q-25 -23 -60 -36q-33 -13 -72 -13h-169v412h-148l-1 -21q-9 -199 -54 -297t-133 -98h-11q-7 0 -12 1l-13 77q34 4 61 21q27 16 45 59q19 44 29 117q10 75 15 197
l1 26h295zM572 80l-1 -1q41 0 69 26q27 25 27 66t-28 65q-29 24 -67 24h-106v-180h106z" />
    <glyph glyph-name="uni045A" unicode="&#x45a;" horiz-adv-x="807" 
d="M402 0v216h-242v-214h-75v492h75v-198h242v198h75v-152h95q40 0 72 -13q34 -14 59 -36t40 -54q15 -31 15 -67q0 -38 -15 -69q-15 -32 -40 -54q-25 -23 -60 -36q-33 -13 -72 -13h-169zM584 82l-1 -1q41 0 69 26q27 25 27 66t-28 65q-29 24 -67 24h-107v-180h107z" />
    <glyph glyph-name="uni045B" unicode="&#x45b;" horiz-adv-x="591" 
d="M440 0l1 260q0 70 -39 108q-40 38 -97 38q-27 0 -49 -7q-23 -7 -43 -21t-33 -31q-14 -18 -18 -40v-308h-74v573h-81v78h81v77h74v-77h147v-78h-147v-156q11 29 48 50q38 21 93 21q41 0 77 -13q39 -14 68 -40q30 -27 48 -69t18 -100v-265h-74z" />
    <glyph glyph-name="uni045C" unicode="&#x45c;" horiz-adv-x="531" 
d="M85 492h74v-216l234 216h107l-260 -239l283 -253h-120l-244 222v-222h-74v492zM404 723l-106 -143h-74l62 143h118z" />
    <glyph glyph-name="uni045E" unicode="&#x45e;" horiz-adv-x="531" 
d="M18 492h85l164 -388l158 388h85l-293 -705h-85l93 225zM420 683h-1q-1 -60 -45 -96t-109 -36t-109 36t-45 96l70 17q1 -27 23 -49q21 -21 62 -21q39 0 60 21q22 22 23 49z" />
    <glyph glyph-name="uni045F" unicode="&#x45f;" horiz-adv-x="586" 
d="M329 0v-131h-71v131h-173v492h74v-413h268v413h74v-492h-172z" />
    <glyph glyph-name="uni0490" unicode="&#x490;" horiz-adv-x="496" 
d="M97 718h276v154h73v-237h-271v-635h-78v718z" />
    <glyph glyph-name="uni0491" unicode="&#x491;" horiz-adv-x="424" 
d="M315 492v131h72v-211h-228v-412h-74v492h230z" />
    <glyph glyph-name="uni0492" unicode="&#x492;" horiz-adv-x="516" 
d="M117 318h-99v83h99v317h349v-83h-271v-234h206v-83h-206v-318h-78v318z" />
    <glyph glyph-name="uni0493" unicode="&#x493;" horiz-adv-x="442" 
d="M405 492v-80h-228v-134h164v-80h-164v-198h-74v198h-72v80h72v214h302z" />
    <glyph glyph-name="uni049A" unicode="&#x49a;" horiz-adv-x="663" 
d="M92 718h78v-332l310 332h104l-328 -351l278 -284h98v-237h-75v154h-51l-336 337v-337h-78v718z" />
    <glyph glyph-name="uni049B" unicode="&#x49b;" horiz-adv-x="544" 
d="M85 492h74v-216l234 216h107l-260 -239l193 -173h82v-211h-71v131h-41l-244 222v-222h-74v492z" />
    <glyph glyph-name="uni04A2" unicode="&#x4a2;" horiz-adv-x="815" 
d="M92 718h78v-307h413v307h78v-635h102v-237h-75v154h-105v328h-413v-328h-78v718z" />
    <glyph glyph-name="uni04A3" unicode="&#x4a3;" horiz-adv-x="639" 
d="M159 492v-198h278v198h74v-412h88v-211h-71v131h-91v214h-278v-214h-74v492h74z" />
    <glyph glyph-name="uni04AE" unicode="&#x4ae;" horiz-adv-x="542" 
d="M9 718h89l171 -325l171 325h92l-221 -420v-298h-78v298z" />
    <glyph glyph-name="uni04AF" unicode="&#x4af;" horiz-adv-x="522" 
d="M298 -213h-74v202l-204 503h80l160 -401l158 401h83l-203 -503v-202z" />
    <glyph glyph-name="uni04B0" unicode="&#x4b0;" horiz-adv-x="542" 
d="M88 307h140l-219 411h89l171 -325l171 325h92l-217 -411h139v-83h-143v-224h-78v224h-145v83z" />
    <glyph glyph-name="uni04B1" unicode="&#x4b1;" horiz-adv-x="522" 
d="M298 -213h-74v213h-140v80h103l-167 412h80l160 -401l158 401h83l-167 -412h101v-80h-137v-213z" />
    <glyph glyph-name="uni04BA" unicode="&#x4ba;" horiz-adv-x="585" 
d="M450 0l2 183q0 78 -38 111t-113 33q-35 0 -68 -5q-29 -4 -61 -12v-310h-78v718h78v-324q34 7 71 12q32 4 74 4q45 0 82 -10q38 -10 67 -33t45 -58q17 -37 17 -87v-222h-78z" />
    <glyph glyph-name="uni04BB" unicode="&#x4bb;" horiz-adv-x="587" 
d="M159 0l-73 -2v728h74v-296q11 29 48 50q38 21 93 21q41 0 77 -13q39 -14 68 -40q30 -27 48 -69t18 -100v-280h-74v277q0 70 -39 108q-40 38 -97 38q-27 0 -49 -7q-23 -7 -43 -21t-33 -31q-14 -18 -18 -40v-323z" />
    <glyph glyph-name="uni04D8" unicode="&#x4d8;" horiz-adv-x="782" 
d="M656 403l1 -3q-11 64 -36 111t-63 75t-84 42q-48 14 -97 14q-37 0 -73 -10q-40 -11 -72 -28q-34 -18 -63 -42q-28 -24 -49 -52l-20 77q16 31 45 57q28 25 65 45q36 19 78 30q44 11 86 11q74 0 139 -25q68 -26 116 -73q50 -49 80 -117q30 -69 30 -158q0 -79 -27 -147
t-75 -117t-111 -78q-62 -28 -135 -28q-78 0 -144 29t-110 79t-70 120q-25 68 -25 150v20q0 13 1 18h613zM394 70l-1 -1q45 0 87 13q44 14 80 42q36 29 62 77q26 49 35 116h-532q8 -74 34 -121q26 -46 65 -76q37 -28 83 -39q47 -11 87 -11z" />
    <glyph glyph-name="uni04D9" unicode="&#x4d9;" horiz-adv-x="563" 
d="M261 503l-3 -4q53 0 100 -18t80 -51q34 -34 53 -81t19 -106q0 -51 -15 -98t-45 -81q-31 -36 -73 -56q-43 -21 -99 -21q-50 0 -92 18q-43 18 -72 52q-31 35 -47 83q-17 49 -17 110q0 15 1 22q1 10 3 18h378q-23 128 -171 128q-51 0 -88 -19t-67 -52l-15 63q8 20 25 36
q19 17 41 29q24 13 50 20q29 8 54 8zM129 207v-1q0 -27 11 -54q10 -26 30 -45q20 -20 46 -30t61 -10q33 0 63 11q28 10 48 30t30 45t12 54h-301z" />
    <glyph glyph-name="uni04E8" unicode="&#x4e8;" horiz-adv-x="790" 
d="M395 -11l-4 -2q-69 0 -135 29q-64 28 -112 78q-49 50 -77 117q-28 66 -28 147q0 78 29 147q28 67 77 117q48 49 113 78q66 29 135 29q72 0 135 -28q65 -29 113 -78q49 -50 77 -117q29 -69 29 -147q0 -81 -28 -147q-28 -67 -77 -117q-48 -50 -112 -78q-63 -28 -135 -28z
M391 71h-2q54 0 101 18t83 51t60 79q24 47 30 102h-546q6 -55 30 -102q24 -46 60 -79t83 -51q46 -18 101 -18zM389 643v-1q-53 0 -99 -18q-47 -18 -82 -49q-36 -32 -60 -76q-23 -44 -31 -97h544q-8 54 -31 98q-24 44 -60 76q-35 31 -82 49q-46 18 -99 18z" />
    <glyph glyph-name="uni04E9" unicode="&#x4e9;" 
d="M51 246l-2 -2q0 54 20 102q19 46 54 81q34 34 80 54t95 20q51 0 95 -19q46 -20 80 -54q35 -34 54 -81q20 -48 20 -102t-20 -102q-19 -47 -54 -81q-35 -35 -79 -54t-95 -19q-49 0 -95 20q-44 19 -79 54t-54 81q-20 48 -20 102zM298 67q35 0 62 10q28 11 51 30q24 20 38 45
q15 26 21 57h-344q6 -31 21 -57q14 -25 38 -45q23 -19 51 -30q27 -10 62 -10zM298 421h2q-64 0 -111 -36t-60 -96h340q-13 60 -60 96t-111 36z" />
    <glyph glyph-name="uni1E02" unicode="&#x1e02;" horiz-adv-x="578" 
d="M424 380l-1 -2q42 -18 72 -62t30 -108q0 -51 -16 -89q-17 -39 -45 -66q-29 -28 -69 -41q-42 -14 -88 -14h-216v718h179q49 0 88 -13q40 -13 69 -39t45 -61t16 -82q0 -49 -18 -84t-46 -57zM320 81l-1 -1q25 0 48 9q22 9 41 26q17 16 28 39q10 21 10 50q0 24 -9 46t-26 39
t-40 27t-51 10h-151v-245h151zM168 408l120 -1q50 0 85 30q34 30 34 81q0 24 -9 45t-24 36t-37 24q-23 9 -48 9h-121v-224zM209 842q0 26 18 44t43 18q26 0 44 -18t18 -44t-18 -44t-44 -18q-25 0 -43 18t-18 44z" />
    <glyph glyph-name="uni1E03" unicode="&#x1e03;" horiz-adv-x="620" 
d="M160 728l-1 -290q12 27 56 48q43 21 104 21q51 0 95 -19q46 -20 80 -54t55 -81t21 -104t-21 -104t-55 -81q-35 -35 -79 -54t-95 -19q-30 0 -57 6t-48 15t-36 21t-21 26v-59h-72v728h74zM494 251l-3 -2q0 42 -13 74q-14 35 -37 56q-25 23 -57 35q-33 12 -72 12
q-56 0 -100 -24q-43 -24 -55 -69v-166q12 -45 56 -69q43 -24 101 -24q39 0 72 12q32 12 57 35q23 21 37 56q14 34 14 74zM270 816q0 25 17 42t42 17t42 -17t17 -42t-17 -42t-42 -17t-42 17t-17 42z" />
    <glyph glyph-name="uni1E0A" unicode="&#x1e0a;" horiz-adv-x="738" 
d="M618 359l1 1q0 57 -20 108q-19 49 -56 87t-87 59q-51 21 -112 21h-174v-552h174q57 0 109 20q50 19 87 56q36 36 57 87t21 113zM314 719v-3q82 0 153 -24q70 -24 121 -69q52 -46 80 -112q29 -69 29 -153t-29 -151q-28 -64 -80 -112q-50 -46 -121 -70t-153 -24h-221v718
h221zM283 844q0 26 18 44t43 18q26 0 44 -18t18 -44t-18 -44t-44 -18q-25 0 -43 18t-18 44z" />
    <glyph glyph-name="uni1E0B" unicode="&#x1e0b;" horiz-adv-x="619" 
d="M534 728l-1 -733h-72v59q-6 -14 -21 -26t-36 -21t-48 -15t-57 -6q-51 0 -95 19t-79 54q-34 34 -55 81q-21 46 -21 104t21 104q21 47 55 81t80 54q44 19 95 19q60 0 104 -21t56 -48v295h74zM124 241l-3 -2q0 -39 14 -73q13 -33 37 -55q25 -23 57 -35q33 -12 72 -12
q57 0 101 24t56 69v166q-12 45 -55 69q-44 24 -100 24q-39 0 -72 -12q-32 -12 -57 -35q-24 -22 -37 -55q-13 -32 -13 -73zM258 806q0 25 17 42t42 17t42 -17t17 -42t-17 -42t-42 -17t-42 17t-17 42z" />
    <glyph glyph-name="uni1E1E" unicode="&#x1e1e;" horiz-adv-x="496" 
d="M92 718h354v-83h-276v-224h256v-83h-256v-328h-78v718zM203 846q0 26 18 44t43 18q26 0 44 -18t18 -44t-18 -44t-44 -18q-25 0 -43 18t-18 44z" />
    <glyph glyph-name="uni1E1F" unicode="&#x1e1f;" horiz-adv-x="421" 
d="M381 617l-3 -2q-14 17 -37 30t-52 13q-37 0 -61 -24t-24 -69v-74h177v-80h-177v-412h-74v412h-94v80h94v85q0 78 39 120t114 42q35 0 65 -15t44 -41zM212 850q0 25 17 42t42 17t42 -17t17 -42t-17 -42t-42 -17t-42 17t-17 42z" />
    <glyph glyph-name="uni1E40" unicode="&#x1e40;" horiz-adv-x="942" 
d="M698 718h86l96 -718h-76l-81 586l-212 -586h-79l-217 586l-74 -586h-79l95 718h86l226 -612zM410 846q0 26 18 44t43 18q26 0 44 -18t18 -44t-18 -44t-44 -18q-25 0 -43 18t-18 44z" />
    <glyph glyph-name="uni1E41" unicode="&#x1e41;" horiz-adv-x="918" 
d="M636 503l-5 1q39 0 75 -13q38 -14 66 -40q30 -28 47 -67q18 -40 18 -96v-286h-74v281q0 69 -37 105t-94 36q-26 0 -47 -7q-23 -8 -41 -21q-19 -14 -30 -31t-16 -40v-323h-74v281q0 69 -37 105t-94 36q-26 0 -47 -7q-23 -8 -41 -21q-19 -14 -30 -31t-16 -40v-323h-74v492
h72v-60q11 29 48 50t90 21q49 0 94 -22q47 -23 75 -66q23 35 67 60q46 26 105 26zM395 656q0 25 17 42t42 17t42 -17t17 -42t-17 -42t-42 -17t-42 17t-17 42z" />
    <glyph glyph-name="uni1E56" unicode="&#x1e56;" horiz-adv-x="545" 
d="M290 718l-1 -3q47 0 87 -15q42 -16 71 -43q31 -30 47 -67q17 -40 17 -88q0 -49 -16 -87q-17 -40 -45 -68q-29 -29 -69 -44q-41 -15 -90 -15h-121v-288h-78v718h198zM169 632l-1 -266h135q27 0 52 11q24 11 41 29q17 19 26 42q9 24 9 51t-9 51q-9 23 -26 42q-18 19 -40 29
q-25 11 -52 11h-135zM213 841q0 26 18 44t43 18q26 0 44 -18t18 -44t-18 -44t-44 -18q-25 0 -43 18t-18 44z" />
    <glyph glyph-name="uni1E57" unicode="&#x1e57;" horiz-adv-x="615" 
d="M85 -213l-3 707h72v-59q6 13 21 27q16 14 36 23q21 9 48 15t57 6q51 0 95 -19q46 -20 80 -54t55 -81q21 -46 21 -104t-21 -104q-21 -47 -55 -81q-35 -35 -79 -54t-95 -19q-59 0 -103 21q-43 21 -55 48v-272h-74zM491 248l-3 -2q0 42 -13 74q-14 35 -37 56q-25 23 -57 35
q-33 12 -72 12q-56 0 -100 -24q-43 -24 -55 -69v-166q12 -45 56 -69t101 -24q39 0 72 12q32 12 57 35q23 21 37 56q14 34 14 74zM245 655q0 25 17 42t42 17t42 -17t17 -42t-17 -42t-42 -17t-42 17t-17 42z" />
    <glyph glyph-name="uni1E60" unicode="&#x1e60;" horiz-adv-x="483" 
d="M346 349l-3 -1q45 -42 68 -81q24 -41 24 -94q0 -39 -14 -75q-13 -34 -39 -58q-24 -23 -62 -37q-35 -13 -81 -13q-37 0 -72 12q-36 12 -62 30q-28 19 -47 39q-20 21 -27 42l23 80q34 -56 83 -87q48 -30 111 -30q56 0 84 27t28 69q0 35 -19 61t-45 49q-62 51 -109 93
q-36 32 -63 59q-37 37 -52 69q-15 31 -15 69q0 72 48 115q47 43 128 43q59 0 106 -28q49 -29 71 -69l-19 -80q-28 40 -69 67t-91 27q-43 0 -69 -19q-27 -20 -27 -58q0 -14 6 -28q5 -12 15 -25q6 -8 20 -22q8 -8 20 -18q15 -13 38.5 -32t32.5 -26q27 -23 42 -36
q20 -18 23 -21t7.5 -7t6.5 -6zM172 845q0 26 18 44t43 18q26 0 44 -18t18 -44t-18 -44t-44 -18q-25 0 -43 18t-18 44z" />
    <glyph glyph-name="uni1E61" unicode="&#x1e61;" horiz-adv-x="416" 
d="M155 240l-2 -3q-48 25 -72 60q-24 34 -24 74q0 57 37 93q38 36 111 36q27 0 48 -7q24 -8 41 -18t30 -23q12 -12 18 -24l-14 -67q-25 26 -57 43q-31 16 -69 16q-24 0 -48 -11q-22 -10 -22 -38q0 -23 19 -36t45 -27l60 -33q56 -30 83 -63t27 -82q0 -32 -12 -57t-33 -45
t-52 -30q-30 -10 -70 -10q-29 0 -51 7q-26 8 -45 19q-21 12 -36 27q-16 16 -23 31l16 68q30 -35 67 -51q36 -16 79 -16q15 0 30 3q16 3 27 10q13 8 20 18q8 11 8 27q0 24 -22 42q-23 18 -57 36zM141 652q0 25 17 42t42 17t42 -17t17 -42t-17 -42t-42 -17t-42 17t-17 42z" />
    <glyph glyph-name="uni1E6A" unicode="&#x1e6a;" horiz-adv-x="575" 
d="M16 718h543v-81h-233v-637h-78v637h-232v81zM226 846q0 26 18 44t43 18q26 0 44 -18t18 -44t-18 -44t-44 -18q-25 0 -43 18t-18 44z" />
    <glyph glyph-name="uni1E6B" unicode="&#x1e6b;" horiz-adv-x="432" 
d="M383 51l-1 -1q-11 -26 -42 -44q-32 -18 -76 -18q-66 0 -102 40t-36 126v259h-90v24l139 178h24v-124h182v-78h-181v-246q0 -51 21 -73t61 -22q32 0 51 13t33 30zM152 777q0 25 17 42t42 17t42 -17t17 -42t-17 -42t-42 -17t-42 17t-17 42z" />
    <glyph glyph-name="Wgrave" unicode="&#x1e80;" horiz-adv-x="1011" 
d="M714 144l187 574h88l-238 -718h-79l-169 601l-164 -601h-79l-238 718h82l191 -574l163 574h86zM479 905l63 -133h-81l-105 133h123z" />
    <glyph glyph-name="wgrave" unicode="&#x1e81;" horiz-adv-x="833" 
d="M577 107l151 385h85l-194 -492h-79l-124 386l-121 -386h-81l-194 492h81l149 -386l126 386h79zM389 723l63 -143h-75l-105 143h117z" />
    <glyph glyph-name="Wacute" unicode="&#x1e82;" horiz-adv-x="1011" 
d="M714 144l187 574h88l-238 -718h-79l-169 601l-164 -601h-79l-238 718h82l191 -574l163 574h86zM653 905l-106 -133h-80l63 133h123z" />
    <glyph glyph-name="wacute" unicode="&#x1e83;" horiz-adv-x="833" 
d="M577 107l151 385h85l-194 -492h-79l-124 386l-121 -386h-81l-194 492h81l149 -386l126 386h79zM569 723l-106 -143h-74l62 143h118z" />
    <glyph glyph-name="Wdieresis" unicode="&#x1e84;" horiz-adv-x="1011" 
d="M714 144l187 574h88l-238 -718h-79l-169 601l-164 -601h-79l-238 718h82l191 -574l163 574h86zM347 842q0 27 18 45t45 18t45 -18t18 -45t-18 -45t-45 -18t-45 18t-18 45zM546 842q0 27 18 45t45 18t45 -18t18 -45t-18 -45t-45 -18t-45 18t-18 45z" />
    <glyph glyph-name="wdieresis" unicode="&#x1e85;" horiz-adv-x="833" 
d="M577 107l151 385h85l-194 -492h-79l-124 386l-121 -386h-81l-194 492h81l149 -386l126 386h79zM264 652q0 24 17 41t41 17t41 -17t17 -41t-17 -41t-41 -17t-41 17t-17 41zM452 652q0 24 17 41t41 17t41 -17t17 -41t-17 -41t-41 -17t-41 17t-17 41z" />
    <glyph glyph-name="Ygrave" unicode="&#x1ef2;" horiz-adv-x="542" 
d="M9 718h89l171 -325l171 325h92l-221 -420v-298h-78v298zM257 905l63 -133h-81l-105 133h123z" />
    <glyph glyph-name="ygrave" unicode="&#x1ef3;" horiz-adv-x="531" 
d="M18 492h85l164 -388l158 388h85l-293 -705h-85l93 225zM243 723l63 -143h-75l-105 143h117z" />
    <glyph glyph-name="endash" unicode="&#x2013;" horiz-adv-x="604" 
d="M52 312h500v-77h-500v77z" />
    <glyph glyph-name="emdash" unicode="&#x2014;" horiz-adv-x="944" 
d="M52 312h840v-77h-840v77z" />
    <glyph glyph-name="quoteleft" unicode="&#x2018;" horiz-adv-x="282" 
d="M162 601l-2 -2q15 -4 29 -17q14 -12 14 -38t-18 -42q-19 -17 -44 -17q-24 0 -43 17q-18 16 -18 45q0 21 8 39q5 11 17 33l61 109h52z" />
    <glyph glyph-name="quoteright" unicode="&#x2019;" horiz-adv-x="282" 
d="M120 613l-2 1q-13 4 -28 17q-13 12 -13 38q0 25 18 42q19 17 44 17q26 0 43 -16q18 -16 18 -45q0 -24 -7 -39q-10 -22 -16 -33l-61 -109h-52z" />
    <glyph glyph-name="quotesinglbase" unicode="&#x201a;" horiz-adv-x="282" 
d="M120 -3l-2 1q-13 4 -28 17q-13 12 -13 38q0 25 18 42q19 17 44 17q26 0 43 -16q18 -16 18 -45q0 -24 -7 -39q-10 -22 -16 -33l-61 -109h-52z" />
    <glyph glyph-name="quotedblleft" unicode="&#x201c;" horiz-adv-x="451" 
d="M162 601l-2 -2q15 -4 29 -17q14 -12 14 -38t-18 -42q-19 -17 -44 -17q-24 0 -43 17q-18 16 -18 45q0 21 8 39q5 11 17 33l61 109h52zM329 599l-2 -2q15 -4 29 -17q14 -12 14 -38t-18 -42q-19 -17 -44 -17q-24 0 -43 17q-18 16 -18 45q0 21 8 39q5 11 17 33l61 109h52z
" />
    <glyph glyph-name="quotedblright" unicode="&#x201d;" horiz-adv-x="450" 
d="M120 613l-2 1q-13 4 -28 17q-13 12 -13 38q0 25 18 42q19 17 44 17q26 0 43 -16q18 -16 18 -45q0 -24 -7 -39q-10 -22 -16 -33l-61 -109h-52zM286 614l-2 1q-13 4 -28 17q-13 12 -13 38t18 42q19 17 44 17q26 0 43 -16q18 -17 18 -45q0 -24 -7 -39q-10 -22 -16 -33
l-61 -109h-52z" />
    <glyph glyph-name="quotedblbase" unicode="&#x201e;" horiz-adv-x="450" 
d="M120 -3l-2 1q-13 4 -28 17q-13 12 -13 38q0 25 18 42q19 17 44 17q26 0 43 -16q18 -16 18 -45q0 -24 -7 -39q-10 -22 -16 -33l-61 -109h-52zM286 -2l-2 1q-13 4 -28 17q-13 12 -13 38t18 42q19 17 44 17q26 0 43 -16q18 -17 18 -45q0 -24 -7 -39q-10 -22 -16 -33
l-61 -109h-52z" />
    <glyph glyph-name="dagger" unicode="&#x2020;" horiz-adv-x="591" 
d="M332 718v-211h180v-80h-180v-609h-74v609h-179v80h179v211h74z" />
    <glyph glyph-name="daggerdbl" unicode="&#x2021;" horiz-adv-x="591" 
d="M332 718v-211h180v-80h-180v-317h180v-80h-180v-212h-74v212h-179v80h179v317h-179v80h179v211h74z" />
    <glyph glyph-name="bullet" unicode="&#x2022;" horiz-adv-x="395" 
d="M67 275l-1 -1q0 28 10 51q11 25 28 42t42 28t51 11q28 0 51 -10q25 -11 42 -28t28 -42t11 -51q0 -28 -10 -51q-11 -25 -28 -42t-42 -28q-23 -10 -51 -10t-51 10q-25 11 -42 28t-28 42q-10 23 -10 51z" />
    <glyph glyph-name="ellipsis" unicode="&#x2026;" horiz-adv-x="778" 
d="M82 55l-4 -4q0 27 20 47t47 20q28 0 47 -19q20 -20 20 -46q0 -27 -19 -46t-46 -19q-26 0 -46 20q-19 19 -19 47zM319 51l-4 -4q0 27 20 47t47 20q28 0 47 -19q20 -20 20 -46q0 -27 -19 -46t-46 -19q-26 0 -46 20q-19 19 -19 47zM556 47l-4 -4q0 27 20 47t47 20
q28 0 47 -19q20 -20 20 -46q0 -27 -19 -46t-46 -19q-26 0 -46 20q-19 19 -19 47z" />
    <glyph glyph-name="perthousand" unicode="&#x2030;" horiz-adv-x="1271" 
d="M185 0l413 718h88l-413 -718h-88zM217 386v-2q-36 0 -69 14q-32 14 -54 37q-23 24 -36 55q-13 30 -13 66t13 66q13 31 36 55q22 23 54 37q33 14 69 14q39 0 69 -13q32 -14 54 -37q23 -24 36 -55q13 -30 13 -66t-13 -66q-13 -31 -36 -55q-22 -23 -54 -37q-30 -13 -69 -13z
M217 650h-2q-22 0 -41 -8q-17 -7 -31 -21q-13 -13 -21 -30q-7 -15 -7 -36t7 -36q8 -17 21 -30t32 -21t41 -8t41 8t32 21t21 30q7 15 7 36t-7 36q-8 17 -21 30t-32 21t-40 8zM652 -12v-2q-36 0 -69 14q-32 14 -54 37q-23 24 -36 55q-13 30 -13 66t13 66q13 31 36 55
q22 23 54 37q33 14 69 14q39 0 69 -13q32 -14 54 -37q23 -24 36 -55q13 -30 13 -66t-13 -66q-13 -31 -36 -55q-22 -23 -54 -37q-30 -13 -69 -13zM652 252h-2q-22 0 -41 -8q-17 -7 -31 -21q-14 -13 -21 -30q-7 -15 -7 -36t7 -36q7 -17 21 -30q13 -13 32 -21t41 -8t41 8t32 21
q14 13 21 30q7 15 7 36t-7 36q-7 17 -21 30q-13 13 -32 21t-40 8zM1050 -14v-2q-36 0 -69 14q-32 14 -54 37q-23 24 -36 55q-13 30 -13 66t13 66q13 31 36 55q22 23 54 37q33 14 69 14q39 0 69 -13q32 -14 54 -37q23 -24 36 -55q13 -30 13 -66t-13 -66q-13 -31 -36 -55
q-22 -23 -54 -37q-30 -13 -69 -13zM1050 250h-2q-22 0 -41 -8q-17 -7 -31 -21q-14 -13 -21 -30q-7 -15 -7 -36t7 -36q7 -17 21 -30q13 -13 32 -21t41 -8t41 8t32 21q14 13 21 30q7 15 7 36t-7 36q-7 17 -21 30q-13 13 -32 21t-40 8z" />
    <glyph glyph-name="guilsinglleft" unicode="&#x2039;" horiz-adv-x="307" 
d="M249 91h-81l-131 174l131 175h81l-107 -175z" />
    <glyph glyph-name="guilsinglright" unicode="&#x203a;" horiz-adv-x="307" 
d="M139 91h-81l107 174l-107 175h81l131 -175z" />
    <glyph glyph-name="uni2042" unicode="&#x2042;" horiz-adv-x="861" 
d="M260 126l72 -99l-49 -36l-74 100l-72 -100l-50 36l72 99l-119 40l22 60l116 -37v122h62v-122l118 38l22 -61zM480 533l72 -99l-49 -36l-74 100l-72 -100l-50 36l72 99l-119 40l22 60l116 -37v122h62v-122l118 38l22 -61zM701 126l72 -99l-49 -36l-74 100l-72 -100l-50 36
l72 99l-119 40l22 60l116 -37v122h62v-122l118 38l22 -61z" />
    <glyph glyph-name="fraction" unicode="&#x2044;" horiz-adv-x="162" 
d="M-95 0h-76l428 718h75z" />
    <glyph glyph-name="uni2051" unicode="&#x2051;" horiz-adv-x="420" 
d="M260 126l72 -99l-49 -36l-74 100l-72 -100l-50 36l72 99l-119 40l22 60l116 -37v122h62v-122l118 38l22 -61zM260 533l72 -99l-49 -36l-74 100l-72 -100l-50 36l72 99l-119 40l22 60l116 -37v122h62v-122l118 38l22 -61z" />
    <glyph glyph-name="n.superior" unicode="&#x207f;" horiz-adv-x="424" 
d="M223 633v2q25 0 51 -9t45 -27t33 -45q13 -26 13 -64v-190h-70v180q0 38 -24 57q-25 20 -55 20t-53 -16q-25 -17 -29 -39v-202h-71v326h71v-37q8 20 30 32q23 12 59 12z" />
    <glyph glyph-name="Euro" unicode="&#x20ac;" 
d="M38 460l69 -5q10 63 35 114q24 49 59 84t77 53t89 18q71 0 117 -26t74 -63l-27 -67q-27 35 -67 54q-39 19 -82 19q-80 0 -129 -45q-50 -45 -69 -139h303l-28 -72h-283q-2 -29 0 -47t3 -30h249l-28 -71h-214q21 -85 72 -126q50 -40 127 -40q50 0 90 23q39 22 66 54l16 -70
q-34 -45 -79 -67q-44 -22 -110 -22q-44 0 -86 17q-40 16 -75 48q-34 31 -58 78q-24 46 -36 108h-105l29 71h64q-1 8 -1 30q0 28 1 47h-92z" />
    <glyph glyph-name="uni20B4" unicode="&#x20b4;" horiz-adv-x="524" 
d="M49 482h274q16 18 29 39q14 23 14 48q0 39 -26 57t-65 18q-47 0 -84 -24q-39 -25 -68 -61l-20 79q25 37 71 63t99 26q39 0 72 -12q34 -12 56 -33t36 -50q13 -27 13 -65q0 -25 -8 -47t-21 -41h35v-72h-102q-23 -23 -37 -36q-30 -28 -46 -41h185v-71h-265q-19 -20 -30 -44
t-11 -50q0 -39 26 -67q26 -27 83 -27q55 0 104 28q49 29 81 81l23 -82q-9 -20 -27 -39q-19 -20 -43 -36q-26 -17 -58 -27q-31 -10 -73 -10q-43 0 -80 14q-36 13 -62 38q-25 23 -40 57q-15 33 -15 71q0 30 6 51q6 22 19 43h-46v71h106q28 26 41 38q23 21 48 41h-194v72z" />
    <glyph glyph-name="uni20B8" unicode="&#x20b8;" horiz-adv-x="544" 
d="M50 568h444v-83h-182v-485h-78v485h-184v83zM50 718h444v-72h-444v72z" />
    <glyph glyph-name="uni20BD" unicode="&#x20bd;" horiz-adv-x="591" 
d="M126 371l-1 344h205q46 0 87 -15q42 -16 71 -43q31 -30 47 -67q17 -40 17 -88q0 -49 -16 -87q-17 -40 -45 -68q-29 -29 -69 -44t-90 -15h-128v-78h206v-72h-206v-138h-78v138h-89v72h89v78h-89v83h89zM203 632l-1 -266h142q27 0 52 11q24 11 41 29q17 19 26 42q9 24 9 51
t-9 51q-9 23 -26 42q-18 19 -40 29q-25 11 -52 11h-142z" />
    <glyph glyph-name="uni2113" unicode="&#x2113;" horiz-adv-x="418" 
d="M253 73l-1 -5q31 0 50 11q18 11 33 27l17 -65q-15 -26 -45 -41t-75 -15q-75 0 -111 45t-36 124v410q0 86 39 129t107 43q33 0 60 -12t46 -34q20 -23 30 -52q11 -31 11 -66q0 -44 -19 -91q-20 -50 -49 -96t-69 -91q-39 -43 -79 -76v-48q0 -53 25 -75t66 -22zM161 310
q25 26 51 57t45 66t33 69q13 33 13 66q0 40 -18 63t-48 23q-37 0 -56 -24q-20 -25 -20 -64v-256z" />
    <glyph glyph-name="uni2116" unicode="&#x2116;" horiz-adv-x="1143" 
d="M760 256v77h299v-77h-299zM910 728h-2q37 0 66 -13t52 -36q24 -24 35 -52q12 -30 12 -64t-12 -64t-34 -52q-23 -23 -52 -36t-66 -13t-66 13t-52 36q-22 22 -34 52t-12 64t12 64q11 28 35 52q23 23 52 36t66 13zM1000 565v-2q0 35 -25 60q-26 26 -67 26q-42 0 -67 -25
t-25 -60t25 -60t67 -25q41 0 67 26q25 25 25 60zM90 716h89l405 -598v598h78v-718h-89l-405 595v-595h-78v718z" />
    <glyph glyph-name="uni2117" unicode="&#x2117;" horiz-adv-x="825" 
d="M412 729l-1 -1q75 0 144 -29q67 -28 118 -78q52 -50 80 -117q29 -69 29 -144t-29 -144q-29 -68 -79 -118t-118 -79q-69 -29 -144 -29t-144 29q-67 28 -117 80q-50 51 -78 118q-29 69 -29 144t29 144q29 67 78 117t117 78q69 29 144 29zM411 40l-4 -1q66 0 126 26
q59 26 104 69q44 42 70 101q26 58 26 122q0 66 -25 123q-26 59 -70 102q-45 44 -103 69q-57 25 -126 25q-67 0 -124 -25q-58 -25 -103 -69q-44 -43 -70 -102q-26 -60 -26 -123q0 -64 26 -122q26 -57 71 -101t103 -69q57 -25 125 -25zM387 577l-1 -1q30 0 55 -9q24 -8 43 -26
t29 -40q10 -23 10 -52q0 -56 -38 -91q-37 -34 -99 -34h-57v-159h-64v412h122zM329 505v-112h68q27 0 45 15t18 41q0 23 -18 40q-17 16 -45 16h-68z" />
    <glyph glyph-name="trademark" unicode="&#x2122;" horiz-adv-x="813" 
d="M20 718h281v-67h-108v-281h-64v281h-109v67zM649 718h66l48 -348h-62l-31 226l-87 -226h-59l-87 226l-29 -226h-67l49 348h65l99 -249z" />
    <glyph glyph-name="Omega" unicode="&#x2126;" horiz-adv-x="804" 
d="M402 729l-6 -2q76 0 142 -29q64 -28 111 -78t72 -117q25 -66 25 -144q0 -53 -12 -100q-13 -49 -31 -83q-19 -36 -42 -60t-42 -33h134v-83h-262v70q39 19 69 46q32 29 56 65q25 37 38 81q14 47 14 98q0 63 -19 114q-20 53 -55 90q-36 38 -85 60q-48 22 -110 22t-110 -22
q-49 -22 -85 -60q-35 -37 -55 -90q-19 -51 -19 -114q0 -51 14 -98q13 -44 38 -81q22 -34 56 -64q30 -27 69 -46v-70h-262v83h134q-19 9 -42 33t-42 60q-18 34 -31 83q-12 46 -12 101q0 78 25 144q25 67 72 117t111 78q66 29 142 29z" />
    <glyph glyph-name="estimated" unicode="&#x212e;" horiz-adv-x="782" 
d="M126 315l-2 -1q10 -64 36 -111t63 -75t84 -42q45 -13 97 -13q34 0 73 11q40 11 72 28q35 18 63 42t49 52l20 -77q-17 -31 -45 -57q-28 -25 -65 -45q-36 -19 -78 -30q-40 -10 -86 -10q-74 0 -139 25q-68 26 -116 73q-49 47 -79 117q-30 69 -30 158q0 80 27 147t75 117
t111 78q62 28 135 28q81 0 144 -28q66 -29 110 -79t70 -120q25 -68 25 -150v-20q0 -13 -1 -18h-613zM387 644l-1 -1q-45 0 -87 -13q-43 -13 -79 -42q-37 -30 -62 -76q-26 -49 -35 -115h532q-8 74 -34 121q-26 46 -65 76q-38 29 -82 39q-47 11 -87 11z" />
    <glyph glyph-name="onethird" unicode="&#x2153;" horiz-adv-x="756" 
d="M180 0h-76l428 718h75zM45 627l96 74h52v-395h-65v307l-83 -55v69zM581 63l-1 -2q34 0 54 17t20 45q0 24 -19 40t-54 16q-13 0 -25 -3q-11 -3 -19 -6l-11 49l84 101h-129v72h216v-50l-82 -101q18 -1 36 -9q19 -8 33 -22t25 -36q10 -20 10 -50q0 -28 -10 -51
q-11 -25 -28 -42t-45 -28q-26 -10 -58 -10q-20 0 -40 6q-21 6 -35 15q-13 8 -27 20q-11 10 -16 21l14 57q33 -49 107 -49z" />
    <glyph glyph-name="twothirds" unicode="&#x2154;" horiz-adv-x="826" 
d="M250 0h-76l428 718h75zM285 377l-2 -71h-250v56l116 123q33 36 44 52q15 21 15 47q0 22 -16 37t-45 15q-28 0 -49 -15t-34 -34l-28 45q4 14 15 27q10 13 26 24t34 18t42 7q31 0 54 -9q24 -10 38 -25q16 -18 23 -37q8 -22 8 -43q0 -42 -21 -78q-19 -33 -59 -76l-61 -63
h150zM649 63l-1 -2q34 0 54 17t20 45q0 24 -19 40t-54 16q-13 0 -25 -3q-11 -3 -19 -6l-11 49l84 101h-129v72h216v-50l-82 -101q18 -1 36 -9q19 -8 33 -22t25 -36q10 -20 10 -50q0 -28 -10 -51q-11 -25 -28 -42t-45 -28q-26 -10 -58 -10q-20 0 -40 6q-21 6 -35 15
q-13 8 -27 20q-11 10 -16 21l14 57q33 -49 107 -49z" />
    <glyph glyph-name="oneeighth" unicode="&#x215b;" horiz-adv-x="768" 
d="M180 0h-76l428 718h75zM45 627l96 74h52v-395h-65v307l-83 -55v69zM593 402l-3 -1q28 0 50 -9q23 -9 39 -25q18 -18 26 -37q9 -21 9 -45q0 -26 -13 -48q-14 -23 -31 -33q24 -14 39 -39q15 -26 15 -55q0 -27 -10 -47q-10 -21 -28 -37q-17 -16 -42 -25q-24 -9 -52 -9t-52 9
q-25 9 -42 25q-18 17 -29 38q-10 20 -10 47q0 29 15 55t39 39q-17 10 -31 33q-13 22 -13 48q0 24 9 45q8 19 26 37q16 16 39 25t50 9zM590 329l-1 -2q-26 0 -42 -13t-16 -33q0 -19 17 -33q16 -13 42 -13q25 0 42 14q16 13 16 33t-16 33q-17 14 -42 14zM589 61h-1q28 0 48 15
t20 40q0 23 -19 38t-48 15t-48 -15q-20 -15 -20 -38q0 -25 20 -40q19 -15 48 -15z" />
    <glyph glyph-name="threeeighths" unicode="&#x215c;" horiz-adv-x="819" 
d="M231 0h-76l428 718h75zM645 402l-3 -1q28 0 50 -9q23 -9 39 -25q18 -18 26 -37q9 -21 9 -45q0 -26 -13 -48q-14 -23 -31 -33q24 -14 39 -39q15 -26 15 -55q0 -27 -10 -47q-10 -21 -28 -37q-17 -16 -42 -25q-24 -9 -52 -9t-52 9q-25 9 -42 25q-18 17 -29 38q-10 20 -10 47
q0 29 15 55t39 39q-17 10 -31 33q-13 22 -13 48q0 24 9 45q8 19 26 37q16 16 39 25t50 9zM642 329l-1 -2q-26 0 -42 -13t-16 -33q0 -19 17 -33q16 -13 42 -13q25 0 42 14q16 13 16 33t-16 33q-17 14 -42 14zM641 61h-1q28 0 48 15t20 40q0 23 -19 38t-48 15t-48 -15
q-20 -15 -20 -38q0 -25 20 -40q19 -15 48 -15zM146 366l-1 -2q34 0 54 17t20 45q0 24 -19 40t-54 16q-13 0 -25 -3q-11 -3 -19 -6l-11 49l84 101h-129v72h216v-50l-82 -101q18 -2 36 -9q19 -8 33 -22t25 -36q10 -20 10 -50q0 -28 -10 -51q-11 -25 -28 -42t-45 -28
q-26 -10 -58 -10q-21 0 -40 6q-21 6 -35 15q-13 8 -27 20q-11 10 -16 21l14 57q33 -49 107 -49z" />
    <glyph glyph-name="fiveeighths" unicode="&#x215d;" horiz-adv-x="824" 
d="M236 0h-76l428 718h75zM232 428l-6 -4q0 29 -21 44t-46 15q-19 0 -36 -4q-20 -5 -30 -13l-45 11l19 221h199v-72h-145l-8 -79q13 4 29 6q10 1 23 1q27 0 51 -9q26 -10 41 -25q17 -16 27 -39q10 -21 10 -51t-10 -53t-29 -42q-17 -17 -44 -28q-24 -10 -54 -10q-43 0 -75 21
t-42 42l14 58q15 -23 43 -36q27 -13 58 -13t54 15t23 44zM644 398l-3 -1q27 0 50 -9t39 -25q18 -18 26 -37q9 -21 9 -45q0 -26 -13 -48q-14 -23 -31 -33q24 -14 39 -39t15 -55q0 -27 -10 -47q-10 -21 -28 -37q-17 -16 -42 -25q-24 -9 -52 -9t-52 9q-25 9 -42 25
q-18 17 -29 38q-10 20 -10 47q0 29 15 55t39 39q-17 10 -31 33q-13 22 -13 48q0 24 9 45q8 19 26 37q16 16 39 25q22 9 50 9zM641 325l-1 -2q-26 0 -42 -13t-16 -33q0 -19 17 -33q16 -13 42 -13q25 0 42 14q16 13 16 33t-16 33q-17 14 -42 14zM640 57h-1q29 0 48 15
q20 15 20 40q0 23 -19 38q-20 15 -48 15t-48 -15t-20 -38q0 -25 20 -40t48 -15z" />
    <glyph glyph-name="seveneighths" unicode="&#x215e;" horiz-adv-x="745" 
d="M157 0h-76l428 718h75zM571 402l-3 -1q28 0 50 -9q23 -9 39 -25q18 -18 26 -37q9 -21 9 -45q0 -26 -13 -48q-14 -23 -31 -33q24 -14 39 -39q15 -26 15 -55q0 -27 -10 -47q-10 -21 -28 -37q-17 -16 -42 -25q-24 -9 -52 -9t-52 9q-25 9 -42 25q-18 17 -29 38q-10 20 -10 47
q0 29 15 55t39 39q-17 10 -31 33q-13 22 -13 48q0 24 9 45q8 19 26 37q16 16 39 25t50 9zM568 329l-1 -2q-26 0 -42 -13t-16 -33q0 -19 17 -33q16 -13 42 -13q25 0 42 14q16 13 16 33t-16 33q-17 14 -42 14zM567 61h-1q28 0 48 15t20 40q0 23 -19 38t-48 15t-48 -15
q-20 -15 -20 -38q0 -25 20 -40q19 -15 48 -15zM196 626h-165v72h240v-53l-151 -342h-68z" />
    <glyph glyph-name="arrowleft" unicode="&#x2190;" horiz-adv-x="711" 
d="M276 473v-164h373v-69h-373v-164l-234 198z" />
    <glyph glyph-name="arrowup" unicode="&#x2191;" horiz-adv-x="481" 
d="M439 395h-164v-370h-69v370h-164l199 235z" />
    <glyph glyph-name="arrowright" unicode="&#x2192;" horiz-adv-x="711" 
d="M435 309v164l234 -199l-234 -198v164h-373v69h373z" />
    <glyph glyph-name="arrowdown" unicode="&#x2193;" horiz-adv-x="481" 
d="M275 276h164l-198 -235l-199 235h164v370h69v-370z" />
    <glyph glyph-name="uni2196" unicode="&#x2196;" horiz-adv-x="572" 
d="M62 567l310 -25l-119 -119l262 -261l-48 -49l-263 263l-117 -116z" />
    <glyph glyph-name="uni2197" unicode="&#x2197;" horiz-adv-x="572" 
d="M200 542l310 25l-25 -307l-117 116l-263 -263l-48 49l262 261z" />
    <glyph glyph-name="uni2198" unicode="&#x2198;" horiz-adv-x="572" 
d="M372 129l-310 -25l25 307l117 -116l263 263l48 -49l-262 -261z" />
    <glyph glyph-name="uni2199" unicode="&#x2199;" horiz-adv-x="572" 
d="M510 104l-310 25l119 119l-262 261l48 49l263 -263l117 116z" />
    <glyph glyph-name="partialdiff" unicode="&#x2202;" horiz-adv-x="590" 
d="M250 729l-5 -7q64 0 114 -28q52 -29 87 -82q37 -56 56 -130q20 -78 20 -172q0 -79 -19 -139q-20 -62 -52 -103q-33 -42 -78 -63t-97 -21q-48 0 -90 18q-43 18 -72 49q-30 32 -48 73q-18 42 -18 91q0 47 17 89q16 40 47 69q30 29 72 45q41 16 91 16q26 0 47 -4
q27 -5 47 -13q24 -10 42 -22q19 -13 33 -30q-1 69 -20 123q-18 52 -45 88t-63 54t-73 18q-42 0 -66 -10q-25 -10 -42 -24l-15 65q14 20 50 35t80 15zM276 62l-1 -1q34 0 65 14q29 13 51 38q21 24 33 57q13 34 14 74q-21 52 -66 79t-94 27q-35 0 -64 -10q-30 -10 -51 -30
t-33 -45t-12 -57q0 -33 12 -60q12 -26 33 -46q21 -19 50 -30q27 -10 63 -10z" />
    <glyph glyph-name="Delta" unicode="&#x2206;" horiz-adv-x="641" 
d="M628 0h-617q13 35 37 98.5t31 83.5l66 177l66 177q12 31 34 92.5t33 89.5h86zM518 79l-198 548l-199 -548h397z" />
    <glyph glyph-name="product" unicode="&#x220f;" horiz-adv-x="646" 
d="M554 718v-718h-78v635h-306v-635h-78v718h462z" />
    <glyph glyph-name="summation" unicode="&#x2211;" horiz-adv-x="562" 
d="M510 79v-79h-473v63l250 311l-240 281v63h445v-79h-333l227 -264l-241 -296h365z" />
    <glyph glyph-name="minus" unicode="&#x2212;" horiz-adv-x="533" 
d="M65 254v77h403v-77h-403z" />
    <glyph glyph-name="uni2215" unicode="&#x2215;" horiz-adv-x="502" 
d="M75 0h-76l428 718h75z" />
    <glyph glyph-name="uni2219" unicode="&#x2219;" horiz-adv-x="292" 
d="M81 319l-4 -4q0 27 20 47t47 20q28 0 47 -19q20 -20 20 -46q0 -27 -19 -46t-46 -19q-26 0 -46 20q-19 19 -19 47z" />
    <glyph glyph-name="radical" unicode="&#x221a;" horiz-adv-x="681" 
d="M654 815l-263 -815h-83l-157 409h-120v83h167l147 -396l227 719h82z" />
    <glyph glyph-name="infinity" unicode="&#x221e;" horiz-adv-x="813" 
d="M580 496l-4 -4q35 0 65 -12t54 -36q23 -23 37 -57t14 -72q0 -40 -13 -72q-14 -34 -37 -57q-24 -24 -54 -36t-64 -12q-33 0 -59 10q-25 10 -48 26q-21 15 -38 35q-17 19 -27 36q-10 -17 -27 -36q-16 -18 -39 -34q-21 -14 -49 -25q-26 -10 -59 -10q-34 0 -64 12t-54 36
q-23 23 -37 57q-13 32 -13 72q0 38 14 72t37 57q24 24 54 36t65 12q33 0 59 -10q28 -11 49 -25q23 -16 39 -34q17 -19 27 -36q10 17 27 36q17 20 38 35q23 16 48 26q26 10 59 10zM230 218l-1 -4q25 0 44 9q18 8 36 23q16 13 30 32q18 24 26 36q-8 12 -26 36q-14 19 -30 32
q-18 15 -36 23q-19 9 -43 9q-41 0 -68 -28t-27 -70t27 -70t68 -28zM575 214q42 0 69 28t27 70t-27 70t-69 28q-23 0 -42 -9q-21 -10 -36 -22q-17 -14 -30 -31q-18 -24 -26 -36q8 -12 26 -36q13 -17 30 -31q15 -12 36 -22q19 -9 42 -9z" />
    <glyph glyph-name="integral" unicode="&#x222b;" horiz-adv-x="445" 
d="M180 578l3 -2q0 44 12 74q12 29 35 48q22 18 53 27q30 9 65 9h18q12 0 18 -1v-80q-10 2 -15 2h-15q-41 0 -70 -22q-30 -23 -30 -75v-639q0 -45 -13 -74t-36 -49q-22 -19 -52 -28t-65 -9h-18q-6 0 -18 2v80q3 -1 12 -1h14q20 0 38 6q19 6 32 18q14 13 23 30q9 18 9 45v639
z" />
    <glyph glyph-name="approxequal" unicode="&#x2248;" horiz-adv-x="554" 
d="M77 112l-5 -1q-6 18 -8 26q-3 12 -3 27q0 49 32 75t80 26q27 0 54 -11q23 -9 50 -23l46 -23q24 -11 45 -11q23 0 36 13t13 37v9q0 6 -1 10h61q6 -15 9 -27t3 -26q0 -50 -31 -75t-78 -25q-29 0 -56 11q-17 7 -49 23q-5 3 -14.5 7.5t-17 8.5t-14.5 7q-24 11 -43 11
q-49 0 -49 -51v-9q0 -6 1 -9h-61zM72 323l-5 -1q-6 18 -8 26q-3 12 -3 27q0 49 32 75t80 26q27 0 54 -11q23 -9 50 -23q5 -3 14.5 -7.5t17 -8.5t14.5 -7q24 -11 45 -11q23 0 36 13t13 37v9q0 6 -1 10h61q6 -15 9 -27t3 -26q0 -50 -31 -75t-78 -25q-29 0 -56 11q-17 7 -49 23
q-5 3 -14.5 7.5t-17 8.5t-14.5 7q-24 11 -43 11q-49 0 -49 -51v-9q0 -6 1 -9h-61z" />
    <glyph glyph-name="notequal" unicode="&#x2260;" horiz-adv-x="533" 
d="M95 35l62 123h-92v77h131l58 116h-189v77h228l64 126h79l-64 -126h96v-77h-135l-58 -116h193v-77h-232l-62 -123h-79z" />
    <glyph glyph-name="equivalence" unicode="&#x2261;" horiz-adv-x="535" 
d="M65 331h403v-77h-403v77zM65 124h403v-77h-403v77zM65 538h403v-77h-403v77z" />
    <glyph glyph-name="lessequal" unicode="&#x2264;" horiz-adv-x="533" 
d="M65 0v77h403v-77h-403zM159 363l309 -120v-81l-403 160v83l403 160v-81z" />
    <glyph glyph-name="greaterequal" unicode="&#x2265;" horiz-adv-x="533" 
d="M65 0v77h403v-77h-403zM65 484v81l403 -160v-83l-403 -160v81l309 120z" />
    <glyph glyph-name="uni2460" unicode="&#x2460;" horiz-adv-x="825" 
d="M412 729l-1 -1q75 0 144 -29q67 -28 118 -78q52 -50 80 -117q29 -69 29 -144t-29 -144q-29 -68 -79 -118t-118 -79q-69 -29 -144 -29t-144 29q-67 28 -117 80q-50 51 -78 118q-29 69 -29 144t29 144q29 67 78 117t117 78q69 29 144 29zM411 40l-4 -1q66 0 126 26
q59 26 104 69q44 42 70 101q26 58 26 122q0 66 -25 123q-26 59 -70 102q-45 44 -103 69q-57 25 -126 25q-67 0 -124 -25q-58 -25 -103 -69q-44 -43 -70 -102q-26 -60 -26 -123q0 -64 26 -122q26 -57 71 -101t103 -69q57 -25 125 -25zM304 486l96 74h52v-395h-65v307l-83 -55
v69z" />
    <glyph glyph-name="uni2461" unicode="&#x2461;" horiz-adv-x="825" 
d="M412 729l-1 -1q75 0 144 -29q67 -28 118 -78q52 -50 80 -117q29 -69 29 -144t-29 -144q-29 -68 -79 -118t-118 -79q-69 -29 -144 -29t-144 29q-67 28 -117 80q-50 51 -78 118q-29 69 -29 144t29 144q29 67 78 117t117 78q69 29 144 29zM411 40l-4 -1q66 0 126 26
q59 26 104 69q44 42 70 101q26 58 26 122q0 66 -25 123q-26 59 -70 102q-45 44 -103 69q-57 25 -126 25q-67 0 -124 -25q-58 -25 -103 -69q-44 -43 -70 -102q-26 -60 -26 -123q0 -64 26 -122q26 -57 71 -101t103 -69q57 -25 125 -25zM535 236l-2 -71h-250v56l116 123
q33 36 44 52q15 21 15 47q0 22 -16 37t-45 15q-28 0 -49 -15t-34 -34l-28 45q4 13 15 27q10 13 26 24t34 18t42 7q31 0 54 -9q24 -10 38 -25q16 -18 23 -37q8 -22 8 -43q0 -42 -21 -78q-19 -33 -59 -76l-61 -63h150z" />
    <glyph glyph-name="uni2462" unicode="&#x2462;" horiz-adv-x="825" 
d="M412 729l-1 -1q75 0 144 -29q67 -28 118 -78q52 -50 80 -117q29 -69 29 -144t-29 -144q-29 -68 -79 -118t-118 -79q-69 -29 -144 -29t-144 29q-67 28 -117 80q-50 51 -78 118q-29 69 -29 144t29 144q29 67 78 117t117 78q69 29 144 29zM411 40l-4 -1q66 0 126 26
q59 26 104 69q44 42 70 101q26 58 26 122q0 66 -25 123q-26 59 -70 102q-45 44 -103 69q-57 25 -126 25q-67 0 -124 -25q-58 -25 -103 -69q-44 -43 -70 -102q-26 -60 -26 -123q0 -64 26 -122q26 -57 71 -101t103 -69q57 -25 125 -25zM402 228l-1 -2q34 0 54 17t20 45
q0 24 -19 40t-54 16q-13 0 -25 -3q-11 -3 -19 -6l-11 49l84 101h-129v72h216v-50l-82 -101q18 -2 36 -9q19 -8 33 -22t25 -36q10 -20 10 -50q0 -28 -10 -51q-11 -25 -28 -42t-45 -28q-26 -10 -58 -10q-21 0 -40 6q-21 6 -35 15q-13 8 -27 20q-11 10 -16 21l14 57
q33 -49 107 -49z" />
    <glyph glyph-name="uni2463" unicode="&#x2463;" horiz-adv-x="825" 
d="M412 729l-1 -1q75 0 144 -29q67 -28 118 -78q52 -50 80 -117q29 -69 29 -144t-29 -144q-29 -68 -79 -118t-118 -79q-69 -29 -144 -29t-144 29q-67 28 -117 80q-50 51 -78 118q-29 69 -29 144t29 144q29 67 78 117t117 78q69 29 144 29zM411 40l-4 -1q66 0 126 26
q59 26 104 69q44 42 70 101q26 58 26 122q0 66 -25 123q-26 59 -70 102q-45 44 -103 69q-57 25 -126 25q-67 0 -124 -25q-58 -25 -103 -69q-44 -43 -70 -102q-26 -60 -26 -123q0 -64 26 -122q26 -57 71 -101t103 -69q57 -25 125 -25zM415 560h60v-214h46v-67h-46v-114h-66
v114h-163v56zM409 346v117l-87 -117h87z" />
    <glyph glyph-name="uni2464" unicode="&#x2464;" horiz-adv-x="825" 
d="M412 729l-1 -1q75 0 144 -29q67 -28 118 -78q52 -50 80 -117q29 -69 29 -144t-29 -144q-29 -68 -79 -118t-118 -79q-69 -29 -144 -29t-144 29q-67 28 -117 80q-50 51 -78 118q-29 69 -29 144t29 144q29 67 78 117t117 78q69 29 144 29zM411 40l-4 -1q66 0 126 26
q59 26 104 69q44 42 70 101q26 58 26 122q0 66 -25 123q-26 59 -70 102q-45 44 -103 69q-57 25 -126 25q-67 0 -124 -25q-58 -25 -103 -69q-44 -43 -70 -102q-26 -60 -26 -123q0 -64 26 -122q26 -57 71 -101t103 -69q57 -25 125 -25zM476 287l-6 -4q0 29 -21 44t-46 15
q-19 0 -36 -4q-20 -5 -30 -13l-45 11l19 221h199v-72h-145l-8 -79q13 4 29 6q10 1 23 1q27 0 51 -9q26 -10 41 -25q17 -17 27 -39q10 -21 10 -51t-10 -53t-29 -42q-17 -17 -44 -28q-24 -10 -54 -10q-43 0 -75 21t-42 42l14 58q15 -23 43 -36q27 -13 58 -13t54 15t23 44z" />
    <glyph glyph-name="uni2465" unicode="&#x2465;" horiz-adv-x="825" 
d="M412 729l-1 -1q75 0 144 -29q67 -28 118 -78q52 -50 80 -117q29 -69 29 -144t-29 -144q-29 -68 -79 -118t-118 -79q-69 -29 -144 -29t-144 29q-67 28 -117 80q-50 51 -78 118q-29 69 -29 144t29 144q29 67 78 117t117 78q69 29 144 29zM411 40l-4 -1q66 0 126 26
q59 26 104 69q44 42 70 101q26 58 26 122q0 66 -25 123q-26 59 -70 102q-45 44 -103 69q-57 25 -126 25q-67 0 -124 -25q-58 -25 -103 -69q-44 -43 -70 -102q-26 -60 -26 -123q0 -64 26 -122q26 -57 71 -101t103 -69q57 -25 125 -25zM401 420l-1 -1q27 0 56 -8q27 -7 48 -24
t33 -40q12 -24 12 -56q0 -28 -11 -53q-10 -23 -29 -42q-17 -18 -43 -28q-24 -10 -52 -10q-30 0 -54 10q-26 11 -43 28t-28 42q-10 23 -10 53q0 33 13 60q14 29 30 54l96 155h74zM417 352q-28 0 -49 -18t-21 -45q0 -28 21 -46t49 -18t49 18t21 46q0 27 -21 45t-49 18z" />
    <glyph glyph-name="uni2466" unicode="&#x2466;" horiz-adv-x="825" 
d="M412 729l-1 -1q75 0 144 -29q67 -28 118 -78q52 -50 80 -117q29 -69 29 -144t-29 -144q-29 -68 -79 -118t-118 -79q-69 -29 -144 -29t-144 29q-67 28 -117 80q-50 51 -78 118q-29 69 -29 144t29 144q29 67 78 117t117 78q69 29 144 29zM411 40l-4 -1q66 0 126 26
q59 26 104 69q44 42 70 101q26 58 26 122q0 66 -25 123q-26 59 -70 102q-45 44 -103 69q-57 25 -126 25q-67 0 -124 -25q-58 -25 -103 -69q-44 -43 -70 -102q-26 -60 -26 -123q0 -64 26 -122q26 -57 71 -101t103 -69q57 -25 125 -25zM456 488h-165v72h240v-53l-151 -342h-68
z" />
    <glyph glyph-name="uni2467" unicode="&#x2467;" horiz-adv-x="825" 
d="M412 729l-1 -1q75 0 144 -29q67 -28 118 -78q52 -50 80 -117q29 -69 29 -144t-29 -144q-29 -68 -79 -118t-118 -79q-69 -29 -144 -29t-144 29q-67 28 -117 80q-50 51 -78 118q-29 69 -29 144t29 144q29 67 78 117t117 78q69 29 144 29zM411 40l-4 -1q66 0 126 26
q59 26 104 69q44 42 70 101q26 58 26 122q0 66 -25 123q-26 59 -70 102q-45 44 -103 69q-57 25 -126 25q-67 0 -124 -25q-58 -25 -103 -69q-44 -43 -70 -102q-26 -60 -26 -123q0 -64 26 -122q26 -57 71 -101t103 -69q57 -25 125 -25zM396 567l-3 -1q27 0 50 -9t39 -25
q18 -18 26 -37q9 -21 9 -45q0 -26 -13 -48q-14 -23 -31 -33q24 -13 39 -39t15 -55q0 -27 -10 -47q-10 -21 -28 -37q-17 -16 -42 -25q-24 -9 -52 -9t-52 9q-25 9 -42 25q-18 17 -29 38q-10 20 -10 47q0 30 15 55t39 39q-17 10 -31 33q-13 22 -13 48q0 24 9 45q8 19 26 37
q16 16 39 25q22 9 50 9zM393 494l-1 -2q-26 0 -42 -13t-16 -33q0 -19 17 -33q16 -13 42 -13q25 0 42 14q16 13 16 33t-16 33q-17 14 -42 14zM392 226h-1q29 0 48 15q20 15 20 40q0 23 -19 38q-20 15 -48 15t-48 -15t-20 -38q0 -25 20 -40t48 -15z" />
    <glyph glyph-name="uni2468" unicode="&#x2468;" horiz-adv-x="825" 
d="M412 729l-1 -1q75 0 144 -29q67 -28 118 -78q52 -50 80 -117q29 -69 29 -144t-29 -144q-29 -68 -79 -118t-118 -79q-69 -29 -144 -29t-144 29q-67 28 -117 80q-50 51 -78 118q-29 69 -29 144t29 144q29 67 78 117t117 78q69 29 144 29zM411 40l-4 -1q66 0 126 26
q59 26 104 69q44 42 70 101q26 58 26 122q0 66 -25 123q-26 59 -70 102q-45 44 -103 69q-57 25 -126 25q-67 0 -124 -25q-58 -25 -103 -69q-44 -43 -70 -102q-26 -60 -26 -123q0 -64 26 -122q26 -57 71 -101t103 -69q57 -25 125 -25zM420 305l1 1q-27 0 -56 8q-27 8 -48 24
q-21 17 -33 40q-12 24 -12 56q0 28 11 53q10 23 29 42q18 17 43 28q24 10 52 10q30 0 54 -10q26 -11 43 -28t28 -42q10 -23 10 -53q0 -33 -13 -60q-13 -28 -30 -54l-96 -155h-74zM404 373q28 0 49 18t21 45q0 28 -21 46t-49 18t-49 -18t-21 -46q0 -27 21 -45t49 -18z" />
    <glyph glyph-name="lozenge" unicode="&#x25ca;" horiz-adv-x="562" 
d="M526 359l-200 -359h-90l-200 359l200 359h90zM444 359l-163 292l-163 -292l163 -294z" />
    <glyph glyph-name="circle" unicode="&#x25cb;" horiz-adv-x="825" 
d="M412 729l-1 -1q75 0 144 -29q67 -28 118 -78q52 -50 80 -117q29 -69 29 -144t-29 -144q-29 -68 -79 -118t-118 -79q-69 -29 -144 -29t-144 29q-67 28 -117 80q-50 51 -78 118q-29 69 -29 144t29 144q29 67 78 117t117 78q69 29 144 29zM411 40l-4 -1q66 0 126 26
q59 26 104 69q44 42 70 101q26 58 26 122q0 66 -25 123q-26 59 -70 102q-45 44 -103 69q-57 25 -126 25q-67 0 -124 -25q-58 -25 -103 -69q-44 -43 -70 -102q-26 -60 -26 -123q0 -64 26 -122q26 -57 71 -101t103 -69q57 -25 125 -25z" />
    <glyph glyph-name="H18533" unicode="&#x25cf;" horiz-adv-x="825" 
d="M412 729l-1 -1q75 0 144 -29q67 -28 118 -78q52 -50 80 -117q29 -69 29 -144t-29 -144q-29 -68 -79 -118t-118 -79q-69 -29 -144 -29t-144 29q-67 28 -117 80q-50 51 -78 118q-29 69 -29 144t29 144q29 67 78 117t117 78q69 29 144 29z" />
    <glyph glyph-name="a19" unicode="&#x2713;" horiz-adv-x="975" 
d="M958 662l-614 -662h-75l-252 283l62 58l229 -260l594 640z" />
    <glyph glyph-name="a21" unicode="&#x2715;" horiz-adv-x="819" 
d="M772 55l-58 -58l-304 305l-303 -305l-60 58l304 304l-304 305l60 57l303 -304l304 304l58 -57l-304 -305z" />
    <glyph glyph-name="uni2776" unicode="&#x2776;" horiz-adv-x="825" 
d="M412 729l-1 -1q75 0 144 -29q67 -28 118 -78q52 -50 80 -117q29 -69 29 -144t-29 -144q-29 -68 -79 -118t-118 -79q-69 -29 -144 -29t-144 29q-67 28 -117 80q-50 51 -78 118q-29 69 -29 144t29 144q29 67 78 117t117 78q69 29 144 29zM310 418l83 55v-307h65v395h-52
l-96 -74v-69z" />
    <glyph glyph-name="uni2777" unicode="&#x2777;" horiz-adv-x="825" 
d="M412 729l-1 -1q75 0 144 -29q67 -28 118 -78q52 -50 80 -117q29 -69 29 -144t-29 -144q-29 -68 -79 -118t-118 -79q-69 -29 -144 -29t-144 29q-67 28 -117 80q-50 51 -78 118q-29 69 -29 144t29 144q29 67 78 117t117 78q69 29 144 29zM391 237l58 61q40 43 59 76
q21 36 21 78q0 23 -7 43q-8 21 -22 37q-15 17 -38 26q-22 9 -54 9q-24 0 -42 -7t-34 -18q-14 -10 -25 -24t-15 -27l28 -45q14 20 35 35t50 15t45 -15t16 -37q0 -26 -15 -47q-11 -16 -44 -52l-116 -123v-56h250v71h-150z" />
    <glyph glyph-name="uni2778" unicode="&#x2778;" horiz-adv-x="825" 
d="M412 729l-1 -1q75 0 144 -29q67 -28 118 -78q52 -50 80 -117q29 -69 29 -144t-29 -144q-29 -68 -79 -118t-118 -79q-69 -29 -144 -29t-144 29q-67 28 -117 80q-50 51 -78 118q-29 69 -29 144t29 144q29 67 78 117t117 78q69 29 144 29zM407 229l-6 -2q-74 0 -107 49
l-14 -57q4 -10 17 -21q14 -12 27 -20q14 -9 35 -15q19 -6 41 -6q31 0 59 11q26 10 45 29t29 42t10 51q0 30 -10 50q-11 22 -25 36q-16 16 -33 23q-18 7 -36 9l82 101v50h-216v-72h129l-84 -101l11 -49q7 3 20 6q12 3 25 3q35 0 54 -16q20 -17 20 -40q0 -29 -19 -45t-54 -16z
" />
    <glyph glyph-name="uni2779" unicode="&#x2779;" horiz-adv-x="825" 
d="M412 729l-1 -1q75 0 144 -29q67 -28 118 -78q52 -50 80 -117q29 -69 29 -144t-29 -144q-29 -68 -79 -118t-118 -79q-69 -29 -144 -29t-144 29q-67 28 -117 80q-50 51 -78 118q-29 69 -29 144t29 144q29 67 78 117t117 78q69 29 144 29zM251 336v-56h163v-114h66v114h46
v67h-46v214h-60zM327 347l87 117v-117h-87z" />
    <glyph glyph-name="uni277A" unicode="&#x277a;" horiz-adv-x="825" 
d="M412 729l-1 -1q75 0 144 -29q67 -28 118 -78q52 -50 80 -117q29 -69 29 -144t-29 -144q-29 -68 -79 -118t-118 -79q-69 -29 -144 -29t-144 29q-67 28 -117 80q-50 51 -78 118q-29 69 -29 144t29 144q29 67 78 117t117 78q69 29 144 29zM481 288l2 1q0 -29 -22 -44
q-23 -15 -54 -15q-28 0 -58 14q-28 13 -43 36l-14 -58q10 -21 42 -42t75 -21q30 0 54 10q27 11 44 28q19 19 29 42q11 25 11 53q0 30 -10 51q-11 23 -27 39q-18 18 -40 26q-24 9 -51 9q-12 0 -22 -1q-16 -2 -29 -6l8 79h145v72h-199l-19 -221l45 -11q10 8 30 13q17 4 36 4
q25 0 46 -15t21 -43z" />
    <glyph glyph-name="uni277B" unicode="&#x277b;" horiz-adv-x="825" 
d="M412 729l-1 -1q75 0 144 -29q67 -28 118 -78q52 -50 80 -117q29 -69 29 -144t-29 -144q-29 -68 -79 -118t-118 -79q-69 -29 -144 -29t-144 29q-67 28 -117 80q-50 51 -78 118q-29 69 -29 144t29 144q29 67 78 117t117 78q69 29 144 29zM497 561l-76 1l-96 -155
q-17 -25 -30 -54q-13 -27 -13 -60q0 -28 11 -53q10 -23 29 -42q18 -18 43 -28q24 -10 54 -10q28 0 52 10q27 11 44 28q19 19 29 42q11 25 11 53q0 32 -12 56q-12 23 -33 40t-48 24q-29 8 -56 8zM421 355q28 0 49 -18t21 -45q0 -28 -21 -46t-49 -18t-49 18t-21 46q0 27 21 45
t49 18z" />
    <glyph glyph-name="uni277C" unicode="&#x277c;" horiz-adv-x="825" 
d="M412 729l-1 -1q75 0 144 -29q67 -28 118 -78q52 -50 80 -117q29 -69 29 -144t-29 -144q-29 -68 -79 -118t-118 -79q-69 -29 -144 -29t-144 29q-67 28 -117 80q-50 51 -78 118q-29 69 -29 144t29 144q29 67 78 117t117 78q69 29 144 29zM317 166h68l151 342v53h-240v-72
h165z" />
    <glyph glyph-name="uni277D" unicode="&#x277d;" horiz-adv-x="825" 
d="M412 729l-1 -1q75 0 144 -29q67 -28 118 -78q52 -50 80 -117q29 -69 29 -144t-29 -144q-29 -68 -79 -118t-118 -79q-69 -29 -144 -29t-144 29q-67 28 -117 80q-50 51 -78 118q-29 69 -29 144t29 144q29 67 78 117t117 78q69 29 144 29zM401 568l-7 -1q-28 0 -50 -9
q-23 -9 -39 -25q-18 -18 -26 -37q-9 -21 -9 -45q0 -25 14 -48q13 -22 32 -33q-24 -14 -39 -39t-15 -55q0 -25 11 -47q10 -19 29 -37q17 -16 42 -25q24 -9 53 -9t53 9q25 9 42 25q18 17 29 38q11 22 11 47q0 29 -15 55t-39 39q19 11 32 33q14 23 14 48q0 24 -9 45
q-8 19 -26 37q-16 16 -39 25q-22 9 -49 9zM394 495l-1 -2q26 0 42 -13t16 -33t-16 -33t-42 -13q-25 0 -42 14q-16 13 -16 33q0 19 17 33t42 14zM393 227h-1q-28 0 -48 15t-20 40q0 23 20 38t48 15t48 -15t20 -38q0 -25 -19 -40t-48 -15z" />
    <glyph glyph-name="uni277E" unicode="&#x277e;" horiz-adv-x="825" 
d="M412 729l-1 -1q75 0 144 -29q67 -28 118 -78q52 -50 80 -117q29 -69 29 -144t-29 -144q-29 -68 -79 -118t-118 -79q-69 -29 -144 -29t-144 29q-67 28 -117 80q-50 51 -78 118q-29 69 -29 144t29 144q29 67 78 117t117 78q69 29 144 29zM334 166l73 -1l96 155q17 26 30 54
q13 27 13 60q0 30 -10 53q-11 25 -28 42q-18 17 -43 28q-24 10 -54 10q-28 0 -52 -10q-25 -11 -43 -28q-19 -19 -29 -42q-11 -25 -11 -53q0 -32 12 -56q12 -23 33 -40q21 -16 48 -24q29 -8 56 -8zM407 372q-28 0 -49 18t-21 45q0 28 21 46t49 18t49 -18t21 -46
q0 -27 -21 -45t-49 -18z" />
    <glyph glyph-name="uni27E6" unicode="&#x27e6;" horiz-adv-x="548" 
d="M111 -182v900h362v-83h-103v-734h103v-83h-362zM292 -99v734h-103v-734h103z" />
    <glyph glyph-name="uni27E7" unicode="&#x27e7;" horiz-adv-x="548" 
d="M75 -182v83h103v734h-103v83h362v-900h-362zM359 -99v734h-103v-734h103z" />
    <glyph glyph-name="uni2E28" unicode="&#x2e28;" horiz-adv-x="542" 
d="M304 715l-2 1q-74 -111 -104 -225q-30 -115 -30 -225q0 -106 30 -219t105 -225l-66 -7q-79 96 -114 210q-34 112 -34 241q0 127 35 244q34 116 114 210zM492 716l-2 1q-74 -111 -104 -225q-30 -116 -30 -225q0 -107 30 -219t105 -225l-66 -7q-79 96 -114 210
q-34 112 -34 241q0 127 35 244q34 115 114 210z" />
    <glyph glyph-name="uni2E29" unicode="&#x2e29;" horiz-adv-x="542" 
d="M49 716l-1 -1l66 5q80 -94 114 -210q34 -114 34 -244q0 -129 -34 -241q-34 -114 -114 -210l-66 7q75 112 105 225t30 219q0 110 -30 225q-30 114 -104 225zM240 717l-1 -1l66 5q79 -95 114 -210q34 -114 34 -244q0 -129 -34 -241q-35 -114 -114 -210l-66 7
q75 113 105 225t30 219q0 109 -30 225q-30 114 -104 225z" />
    <glyph glyph-name="anglebracketleft" unicode="&#x3008;" horiz-adv-x="391" 
d="M175 268l164 -450h-80l-184 450l184 450h80z" />
    <glyph glyph-name="anglebracketright" unicode="&#x3009;" horiz-adv-x="391" 
d="M52 -182l164 450l-164 450h80l184 -450l-184 -450h-80z" />
    <glyph glyph-name="Germandbls" unicode="&#xf485;" horiz-adv-x="918" 
d="M346 349l-3 -1q45 -42 68 -81q24 -41 24 -94q0 -39 -14 -75q-13 -34 -39 -58q-24 -23 -62 -37q-35 -13 -81 -13q-37 0 -72 12q-36 12 -62 30q-28 19 -47 39q-20 21 -27 42l23 80q34 -56 83 -87q48 -30 111 -30q56 0 84 27t28 69q0 35 -19 61t-45 49q-62 51 -109 93
q-36 32 -63 59q-37 37 -52 69q-15 31 -15 69q0 72 48 115q47 43 128 43q59 0 106 -28q49 -29 71 -69l-19 -80q-28 40 -69 67t-91 27q-43 0 -69 -19q-27 -20 -27 -58q0 -14 6 -28q5 -12 15 -25q6 -8 20 -22q8 -8 20 -18q15 -13 38.5 -32t32.5 -26q27 -23 42 -36
q20 -18 23 -21t7.5 -7t6.5 -6zM778 348l-3 -1q45 -42 68 -81q24 -41 24 -94q0 -39 -14 -75q-13 -34 -39 -58q-24 -23 -62 -37q-35 -13 -81 -13q-37 0 -72 12q-36 12 -62 30q-28 19 -47 39q-20 21 -27 42l23 80q34 -56 83 -87q48 -30 111 -30q56 0 84 27t28 69q0 35 -19 61
t-45 49q-62 51 -109 93q-36 32 -63 59q-37 37 -52 69t-15 69q0 71 48 115q47 43 128 43q59 0 106 -28q49 -29 71 -69l-19 -80q-28 40 -69 67t-91 27q-43 0 -69 -19q-27 -19 -27 -58q0 -15 6 -28q5 -12 15 -25q6 -8 20 -22q8 -8 20 -18q15 -13 38.5 -32t32.5 -26
q27 -22 42 -36q20 -18 23 -21t7.5 -7t6.5 -6z" />
    <glyph glyph-name="commaaccent" unicode="&#xf6c3;" horiz-adv-x="220" 
d="M94 -187l2 -1q-15 8 -27 21t-12 36q0 29 18 45q19 17 42 17q25 0 44 -17q18 -16 18 -45q0 -23 -10 -40q-7 -12 -21 -34l-43 -77h-56z" />
    <glyph glyph-name="fi" unicode="&#xfb01;" horiz-adv-x="652" 
d="M494 492h75v-492h-75v492zM381 617l-3 -2q-14 17 -37 30t-52 13q-37 0 -61 -24t-24 -69v-74h177v-78h-177v-414h-74v414h-94v78h94v85q0 78 39 120t114 42q35 0 65 -15t44 -41zM470 653q0 25 17 42t42 17t42 -17t17 -42t-17 -42t-42 -17t-42 17t-17 42z" />
    <glyph glyph-name="fl" unicode="&#xfb02;" horiz-adv-x="653" 
d="M381 617l-3 -2q-14 17 -37 30t-52 13q-37 0 -61 -24t-24 -69v-74h177v-78h-177v-414h-74v414h-94v78h94v85q0 78 39 120t114 42q35 0 65 -15t44 -41zM491 726h75v-728h-75v728z" />
    <glyph glyph-name="uniFEFF" unicode="&#xfeff;" horiz-adv-x="0" 
 />
    <glyph glyph-name="percent.tnum" 
d="M541 491l-481 -339v88l481 339v-88zM183 728q32 0 59 -12t47 -32q19 -19 30 -47t11 -57t-11 -57t-30 -47q-20 -20 -47 -32t-59 -12t-59 12t-47 32q-19 19 -30 47t-11 57t11 57t30 47q20 20 47 32t59 12zM183 503q37 0 60 24q22 23 22 54t-22 54q-23 24 -60 24t-60 -24
q-22 -23 -22 -54t22 -54q23 -24 60 -24zM416 286q32 0 59 -12t47 -32q19 -19 30 -47t11 -57t-11 -57t-30 -47q-20 -20 -47 -32t-59 -12t-59 12t-47 32q-19 19 -30 47t-11 57t11 57t30 47q20 20 47 32t59 12zM416 61q38 0 60 24q22 23 22 54t-22 54q-22 24 -60 24t-60 -24
q-22 -23 -22 -54t22 -54q22 -24 60 -24z" />
    <glyph glyph-name="plus.tnum" 
d="M265 331v166h71v-166h166v-77h-166v-166h-71v166h-166v77h166z" />
    <glyph glyph-name="comma.tnum" 
d="M304 0h-1q-18 6 -34 22t-16 48q0 31 22 52q23 21 53 21t53 -21q22 -21 22 -54q0 -27 -9 -48q-8 -19 -21 -40l-74 -135h-63z" />
    <glyph glyph-name="period.tnum" 
d="M244 67q0 32 22 54q23 23 54 23t54 -23q22 -22 22 -54t-22 -54q-23 -23 -54 -23t-54 23q-22 22 -22 54z" />
    <glyph glyph-name="slash.case" horiz-adv-x="455" 
d="M84 -104h-80l368 900h79z" />
    <glyph glyph-name="less.tnum" 
d="M186 295l314 -144v-81l-403 184v83l403 184v-81z" />
    <glyph glyph-name="equal.tnum" 
d="M97 351v77h403v-77h-403zM97 158v77h403v-77h-403z" />
    <glyph glyph-name="greater.tnum" 
d="M100 151l314 144l-314 145v81l403 -184v-83l-403 -184v81z" />
    <glyph glyph-name="at.case" horiz-adv-x="960" 
d="M484 766l-2 -8q78 0 146 -28q69 -28 122 -80q52 -51 84 -122q32 -72 32 -154q0 -46 -7 -84q-8 -41 -25 -73q-18 -32 -48 -52q-31 -20 -76 -20q-82 0 -118 51q-17 -20 -51 -35q-35 -15 -81 -15q-72 0 -114 36t-42 96q0 31 12 55q12 25 33 41q22 17 50 26q29 9 62 9
q31 0 60 -7q33 -8 50 -25v17q0 50 -30 75q-29 25 -81 25q-36 0 -67 -15t-49 -40l-20 63q23 32 61 51q40 20 87 20q39 0 69 -10q31 -11 54 -30q23 -20 36 -49t13 -67v-117q0 -29 17 -51q17 -21 51 -21q26 0 42 15q16 14 25 39q9 24 12 51t3 48q0 72 -25 128q-25 57 -69 96
t-99 60t-117 21q-68 0 -126 -24q-59 -24 -102 -67t-69 -104q-25 -59 -25 -132q0 -70 21 -130t63 -105q41 -44 102 -70q59 -25 135 -25q49 0 95 11q44 10 81 39l14 -65q-28 -28 -79 -46t-108 -18q-84 0 -155 31q-73 32 -125 87q-54 57 -83 130q-30 75 -30 162q0 85 30 158
t83 129t124 87q73 32 154 32zM569 296l-1 -2q-9 17 -38 26q-28 9 -60 9q-44 0 -70 -14q-25 -13 -25 -39q0 -25 24 -40t72 -15q31 0 60 12t38 32v31z" />
    <glyph glyph-name="Q.ss02" horiz-adv-x="790" 
d="M395 -11l-3 -2q-69 0 -135 29q-64 28 -112 78q-49 50 -77 117q-28 66 -28 147q0 78 29 147q28 67 77 117q48 49 113 78q66 29 135 29q72 0 135 -28q65 -29 113 -78q49 -50 77 -117q29 -69 29 -147t-27 -144q-27 -67 -75 -116l120 -154h-103l-79 102q-41 -28 -90 -43
q-48 -15 -99 -15zM392 643v-3q-58 0 -109 -21q-49 -20 -88 -59q-37 -37 -58 -90q-21 -52 -21 -114t21 -114q21 -53 58 -90q39 -39 88 -59q51 -21 109 -21q77 0 139 37l-121 157h102l82 -107q34 37 54 89t20 111q0 61 -21 114t-58 90q-39 39 -88 59q-51 21 -109 21z" />
    <glyph glyph-name="backslash.case" horiz-adv-x="455" 
d="M459 -104h-80l-367 900h79z" />
    <glyph glyph-name="asciitilde.tnum" 
d="M99 218l-5 -1q-6 18 -8 26q-3 12 -3 27q0 49 32 75t80 26q27 0 54 -11q23 -9 50 -23l46 -23q24 -11 45 -11q23 0 36 13t13 37v9q0 6 -1 10h61q6 -15 9 -27t3 -26q0 -50 -31 -75t-78 -25q-29 0 -56 11q-17 7 -49 23q-5 3 -14.5 7.5t-17 8.5t-14.5 7q-24 11 -43 11
q-49 0 -49 -51v-9q0 -6 1 -9h-61z" />
    <glyph glyph-name="plusminus.tnum" 
d="M97 0v77h403v-77h-403zM263 395v166h71v-166h166v-77h-166v-166h-71v166h-166v77h166z" />
    <glyph glyph-name="multiply.tnum" 
d="M299 344l136 136l52 -52l-136 -136l136 -136l-52 -52l-136 136l-136 -136l-52 52l136 136l-136 136l52 52z" />
    <glyph glyph-name="divide.tnum" 
d="M231 122l-4 -4q0 27 20 47t47 20q28 0 47 -19q20 -20 20 -46q0 -27 -19 -46t-46 -19q-26 0 -46 20q-19 19 -19 47zM227 461l-4 -4q0 27 20 47t47 20q28 0 47 -19q20 -20 20 -46q0 -27 -19 -46t-46 -19q-26 0 -46 20q-19 19 -19 47zM87 323h403v-77h-403v77z" />
    </font>
</defs>
</svg>
